<?xml version="1.0" encoding="utf-8"?>
<!-- Generator: Adobe Illustrator 16.0.0, SVG Export Plug-In . SVG Version: 6.00 Build 0)  -->
<!DOCTYPE svg PUBLIC "-//W3C//DTD SVG 1.1//EN" "http://www.w3.org/Graphics/SVG/1.1/DTD/svg11.dtd">
<svg version="1.1" id="Layer_1" xmlns="http://www.w3.org/2000/svg" xmlns:xlink="http://www.w3.org/1999/xlink" x="0px" y="0px"
	 width="186.169px" height="123.835px" viewBox="0 0 186.169 123.835" style="enable-background:new 0 0 186.169 123.835;"
	 xml:space="preserve">
<style type="text/css">
<![CDATA[
	.st0{fill:#FFFFFF;stroke:#86CDFC;stroke-width:2.8346;stroke-miterlimit:10;}
]]>
</style>
<path class="st0" d="M162.423,56.334c-2.133-14.29-14.454-25.25-29.338-25.25c-2.949,0-5.795,0.437-8.484,1.238
	c-5.384-5.493-12.883-8.904-21.183-8.904c-4.799,0-9.328,1.146-13.339,3.17c-2.167-14.25-14.472-25.17-29.328-25.17
	c-15.579,0-28.344,12.011-29.562,27.276c-9.925,4.798-16.771,14.961-16.771,26.724c0,1.656,0.142,3.277,0.403,4.859
	C6.75,65.579,1.417,74.707,1.417,85.084c0,16.385,13.282,29.667,29.667,29.667c6.659,0,12.806-2.194,17.756-5.898
	c5.286,8.161,14.464,13.565,24.911,13.565c9.473,0,17.902-4.445,23.333-11.357c5.432,6.912,13.86,11.357,23.333,11.357
	c8.979,0,17.019-3.994,22.459-10.296c3.725,1.685,7.854,2.63,12.208,2.63c16.385,0,29.667-13.282,29.667-29.667
	C184.752,71.233,175.258,59.601,162.423,56.334z"/>
<g>
	<path class="st0" d="M38.603,82c0-7.964,6.456-14.419,14.42-14.419c2.986,0,5.76,0.907,8.062,2.462"/>
	<path class="st0" d="M22.387,83.389c2.61-2.609,6.214-4.223,10.196-4.223c7.963,0,14.419,6.456,14.419,14.419"/>
</g>
</svg>
