<?xml version="1.0" encoding="utf-8"?>
<!-- Generator: Adobe Illustrator 16.0.0, SVG Export Plug-In . SVG Version: 6.00 Build 0)  -->
<!DOCTYPE svg PUBLIC "-//W3C//DTD SVG 1.1//EN" "http://www.w3.org/Graphics/SVG/1.1/DTD/svg11.dtd">
<svg version="1.1" id="Layer_1" xmlns="http://www.w3.org/2000/svg" xmlns:xlink="http://www.w3.org/1999/xlink" x="0px" y="0px"
	 width="267.417px" height="124.835px" viewBox="0 0 267.417 124.835" style="enable-background:new 0 0 267.417 124.835;"
	 xml:space="preserve">
<style type="text/css">
<![CDATA[
	.st0{fill:#FFFFFF;stroke:#86CDFC;stroke-width:2.8346;stroke-miterlimit:10;}
	.st1{fill:#FFFFFF;}
	.st2{fill:#DBDBDB;}
]]>
</style>
<path class="st0" d="M253.026,68.774c2.819-2.96,4.515-6.759,4.515-10.902c0-9.454-8.823-17.117-19.707-17.117
	c-6.514,0-12.288,2.748-15.875,6.979c-0.13-0.001-0.259-0.007-0.39-0.007c-2.536,0-4.984,0.326-7.296,0.924
	c-4.63-4.103-11.079-6.651-18.216-6.651c-4.127,0-8.022,0.856-11.471,2.368c-1.863-10.644-12.445-18.8-25.221-18.8
	c-2.332,0-4.589,0.277-6.735,0.787c-4.235-7.663-13.552-12.987-24.374-12.987c-3.133,0-6.138,0.451-8.933,1.271
	c-5.595-7.92-15.787-13.221-27.435-13.221c-8.843,0-16.849,3.055-22.64,7.992c-1.716-0.338-3.502-0.522-5.339-0.522
	c-12.278,0-22.352,7.979-23.409,18.151c-1.153-0.148-2.334-0.225-3.536-0.225c-12.982,0-23.506,8.917-23.506,19.918
	c0,4.073,1.445,7.858,3.921,11.014c-9.28,2.665-15.961,10.1-15.961,18.864c0,8.805,6.746,16.271,16.095,18.902
	c-0.399,1.458-0.615,2.961-0.615,4.502c0,12.926,14.759,23.404,32.965,23.404c8.119,0,15.547-2.087,21.291-5.542
	c4.223,3.431,9.949,5.542,16.261,5.542c7.417,0,14.027-2.914,18.335-7.461c1.665,0.316,3.393,0.489,5.17,0.489
	c7.006,0,13.291-2.6,17.598-6.72c1.722,0.319,3.503,0.496,5.334,0.496c5.727,0,11.012-1.639,15.27-4.406
	c4.545,6.096,12.438,10.132,21.422,10.132c8.146,0,15.395-3.32,20.066-8.483c4.671,5.163,11.919,8.483,20.065,8.483
	c7.721,0,14.636-2.983,19.314-7.69c3.203,1.258,6.754,1.964,10.499,1.964c14.09,0,25.512-9.921,25.512-22.159
	C266,79.785,260.767,72.579,253.026,68.774z"/>
<ellipse class="st2" cx="54.751" cy="92.832" rx="17" ry="16.586"/>
<ellipse class="st2" cx="76.751" cy="94.332" rx="17" ry="16.586"/>
<ellipse class="st1" cx="52.751" cy="95.832" rx="17" ry="16.586"/>
<ellipse class="st1" cx="74.751" cy="97.332" rx="17" ry="16.586"/>
<ellipse class="st2" cx="234.084" cy="84.582" rx="17" ry="16.586"/>
<ellipse class="st1" cx="232.084" cy="87.582" rx="17" ry="16.586"/>
</svg>
