
<svg version="1.1" id="Layer_1" xmlns="http://www.w3.org/2000/svg" xmlns:xlink="http://www.w3.org/1999/xlink" x="0px" y="0px"
	 width="105.807px" height="34.841px" viewBox="0 0 105.807 34.841" style="enable-background:new 0 0 105.807 34.841;"
	 xml:space="preserve">
<style type="text/css">

	.st0{fill:none;stroke:#FFFFFF;stroke-width:0.2835;stroke-miterlimit:5;}

</style>
    <defs>
        
        <style>
            
        .st0 {
    fill: none;
    stroke:#FFFFFF;
    stroke-miterlimit:5;
        stroke-dasharray: 400;
        stroke-dashoffset: 0;
        -webkit-animation: dash 10s linear forwards;
        -o-animation: dash 10s linear forwards;
        -moz-animation: dash 10s linear forwards;
        animation: dash 10s linear forwards;
   
        }
    @-webkit-keyframes dash {
        
        from {
                stroke-dashoffset: 400;
    }
            to {
                stroke-dashoffset: 0;
        }
    }
            
        </style>
    </defs>



<g id="thHQKY_1_">
	<g>
		<g id="M3AiiN_1_">
			<g>
				<path class="st0" d="M19.874,12.653c0.006-0.732-0.124-1.052-0.973-1.031c-2.596,0.062-5.195,0.037-7.793,0.013
					c-0.581-0.006-0.893,0.094-0.86,0.771c0.047,0.957,0.05,1.92-0.001,2.877c-0.037,0.686,0.288,0.793,0.861,0.772
					c0.918-0.033,1.844,0.053,2.756-0.029c0.869-0.078,0.902,0.329,0.777,0.983c-0.291,1.514-1.418,2.671-2.924,2.964
					c-1.785,0.347-3.481-0.273-4.273-1.911C5.632,14.315,5.757,10.49,7.527,6.761c0.609-1.283,1.829-1.896,3.266-1.821
					c1.509,0.078,2.611,0.831,3.329,2.191c0.355,0.673,0.121,1.793,0.898,2.009c0.744,0.207,1.644-0.146,2.475-0.256
					c0.356-0.047,0.711-0.154,1.065-0.146c1.14,0.028,1.403-0.449,1.095-1.524c-1.062-3.704-3.407-6.04-7.239-6.574
					c-3.959-0.551-7.423,0.49-9.681,4.038C0.473,8.229,0.176,12.16,0.94,16.212c0.544,2.886,1.768,5.392,4.35,6.999
					c3.619,2.254,7.746,1.688,11.311-1.531c0.2,0.675,0.348,1.331,0.59,1.952c0.45,1.157,1.45,0.436,2.185,0.538
					c0.721,0.101,0.472-0.593,0.474-0.966C19.868,19.688,19.845,16.17,19.874,12.653z"/>
				<path class="st0" d="M72.398,21.027c0.105,0.817,0.484,1.597,0.686,2.407c0.15,0.605,0.458,0.807,1.09,0.788
					c1.636-0.049,3.274-0.017,5.115-0.017c-2.417-7.691-4.794-15.237-7.145-22.792c-0.156-0.503-0.416-0.58-0.859-0.575
					c-1.679,0.016-3.357,0.035-5.035-0.01c-0.576-0.015-0.75,0.264-0.896,0.72c-2.324,7.282-4.648,14.563-6.999,21.836
					c-0.198,0.613-0.205,0.862,0.541,0.832c1.117-0.047,2.238-0.039,3.355,0.001c0.537,0.019,0.791-0.173,0.932-0.681
					c0.285-1.036,0.664-2.047,0.918-3.088c0.188-0.771,0.502-1.114,1.372-1.067c1.594,0.085,3.203,0.123,4.791-0.008
					C71.596,19.266,72.227,19.69,72.398,21.027z M66.589,15.098c-0.63,0.015-0.831-0.066-0.596-0.786
					c0.741-2.269,1.39-4.566,2.074-6.854c0.08-0.017,0.159-0.033,0.239-0.049c0.764,2.52,1.528,5.039,2.329,7.679
					C69.202,15.088,67.896,15.065,66.589,15.098z"/>
				<path class="st0" d="M53.104,13.546c-0.881-0.243-1.8-0.349-2.702-0.512c-1.018-0.184-2.08-0.175-3.03-0.646
					c-1.019-0.508-1.086-1.582-0.159-2.171c1.229-0.781,3.831-0.589,4.486,0.664c0.758,1.449,1.637,1.018,2.665,0.727
					c0.345-0.098,0.69-0.203,1.043-0.261c0.675-0.11,0.8-0.38,0.494-1.025c-1.312-2.772-3.591-3.811-6.516-3.751
					c-0.32,0-0.642-0.023-0.96,0.005c-1.867,0.164-3.651,0.605-5.018,1.983c-2.752,2.775-1.503,7.438,2.284,8.554
					c1.725,0.508,3.507,0.759,5.287,0.998c0.611,0.082,1.182,0.301,1.384,0.973c0.152,0.51-0.018,0.935-0.423,1.281
					c-1.267,1.084-4.785,0.972-5.624-0.45c-0.718-1.214-1.475-1.14-2.521-0.897c-0.581,0.136-1.183,0.232-1.778,0.246
					c-0.769,0.019-0.697,0.34-0.498,0.903c0.414,1.171,1.089,2.129,2.084,2.856c2.751,2.011,8.275,2.05,11.031,0.034
					c1.85-1.354,2.503-3.239,2.201-5.483C56.538,15.354,55.159,14.114,53.104,13.546z"/>
				<path class="st0" d="M103.129,24.452c2.012-0.285,2.012-0.286,2.012-2.347c0-1.771,0-1.771-1.706-1.715
					c-1.778,0.059-2.27-0.399-2.29-2.221c-0.021-1.959,0.069-3.922-0.033-5.875c-0.06-1.135,0.211-1.496,1.404-1.442
					c2.382,0.108,2.385,0.032,2.385-2.402c0.001-1.605,0.001-1.605-1.56-1.605c-2.201,0-2.192,0-2.205-2.152
					c-0.006-1.031,0.337-2.405-0.187-3c-0.562-0.639-1.935-0.021-2.954,0.031c-0.119,0.007-0.24,0.025-0.358,0.015
					c-0.607-0.053-0.922,0.105-0.934,0.829c-0.017,1.074-0.24,2.146-0.264,3.22c-0.019,0.877-0.335,1.113-1.207,1.082
					c-1.93-0.069-1.932-0.016-1.933,1.93c-0.001,2.025-0.001,2.066,1.992,2.065c0.733-0.001,0.843,0.267,0.82,0.899
					c-0.044,1.278-0.013,2.558-0.013,4.11c0.073,1.481-0.104,3.238,0.151,4.994c0.262,1.788,1.211,2.908,2.956,3.335
					C100.496,24.518,101.805,24.64,103.129,24.452z"/>
				<path class="st0" d="M90.989,10.946c-0.026-1.198-0.04-2.397,0.004-3.595c0.023-0.657-0.255-0.767-0.845-0.804
					c-2.02-0.124-2.884,1.194-3.809,2.761c0-0.471-0.044-0.945,0.011-1.409c0.097-0.818-0.171-1.148-1.04-1.071
					c-0.871,0.077-1.762,0.079-2.633-0.001c-0.87-0.08-1.045,0.249-1.036,1.064c0.041,4.153,0.005,8.308,0.027,12.462
					c0.007,1.27-0.535,2.968,0.22,3.684c0.658,0.624,2.358,0.09,3.589,0.189c0.988,0.08,1.255-0.206,1.256-1.223
					c0.002-2.67-0.284-5.355,0.177-8.01c0.385-2.22,1.243-3.043,3.43-3.327C90.873,11.598,91,11.435,90.989,10.946z"/>
				<path class="st0" d="M27.687,23.042c0.029-2.708-0.273-5.43,0.201-8.125c0.366-2.079,1.306-2.996,3.371-3.253
					c0.483-0.061,0.71-0.13,0.694-0.676c-0.036-1.237-0.027-2.476-0.004-3.713c0.009-0.498-0.146-0.688-0.674-0.725
					c-1.373-0.099-2.415,0.388-3.114,1.572c-0.257,0.436-0.469,0.896-0.738,1.415c-0.372-0.93,0.374-2.158-0.428-2.602
					c-0.705-0.39-1.792-0.088-2.71-0.092c-0.319-0.001-0.641,0.022-0.958-0.005c-0.483-0.041-0.719,0.079-0.717,0.642
					c0.018,5.35,0.017,10.699,0,16.05c-0.001,0.523,0.16,0.697,0.679,0.683c1.077-0.03,2.162-0.078,3.232,0.014
					C27.49,24.31,27.677,23.954,27.687,23.042z"/>
				<path class="st0" d="M39.077,23.264c-0.027-5.156-0.025-10.312-0.002-15.468c0.003-0.687-0.115-1.022-0.91-0.97
					c-1.075,0.072-2.161,0.069-3.235,0.001c-0.774-0.05-0.935,0.249-0.925,0.956c0.036,2.558,0.014,5.115,0.014,7.674
					c0,2.598,0.021,5.196-0.014,7.794c-0.009,0.695,0.124,1.021,0.912,0.973c1.075-0.067,2.16-0.065,3.235,0
					C38.922,24.271,39.081,23.978,39.077,23.264z"/>
				<path class="st0" d="M36.389,5.366c2.673,0,2.673,0,2.673-2.383c0-2.459,0-2.459-2.491-2.459c-2.554,0-2.554,0-2.554,2.516
					C34.018,5.366,34.018,5.366,36.389,5.366z"/>
				<path class="st0" d="M55.828,31.507c1.124-2.226,0.42-3.258-2.08-3.156c-0.524,0.021-0.801,0.096-0.785,0.714
					c0.038,1.475,0.022,2.95,0.006,4.425c-0.005,0.465,0.064,0.738,0.64,0.734c0.629-0.004,0.561-0.385,0.585-0.791
					c0.027-0.458-0.138-0.939,0.144-1.416c0.824,0.58,0.045,2.746,2.104,2.081c-0.196-0.578-0.384-1.14-0.579-1.699
					C55.758,32.104,55.65,31.859,55.828,31.507z M54.557,30.894c-0.672,0.003-0.365-0.561-0.405-0.891
					c-0.036-0.293-0.094-0.673,0.401-0.682c0.469,0.072,0.533,0.408,0.53,0.791C55.081,30.493,55.015,30.893,54.557,30.894z"/>
				<path class="st0" d="M14.213,28.231c-0.802,0.004-1.371,0.443-1.603,1.197c-0.383,1.246-0.358,2.513,0.042,3.757
					c0.232,0.723,0.754,1.089,1.523,1.104c0.817,0.017,1.404-0.357,1.646-1.116c0.19-0.599,0.233-1.243,0.342-1.869
					c-0.11-0.644-0.154-1.288-0.34-1.889C15.591,28.666,15.016,28.228,14.213,28.231z M14.286,33.087
					c-0.91,0.005-0.542-1.128-0.55-1.752c-0.007-0.649-0.309-1.855,0.435-1.848c0.977,0.012,0.351,1.216,0.605,1.852
					C14.569,31.955,15.029,33.083,14.286,33.087z"/>
				<path class="st0" d="M81.204,28.244c-0.902-0.023-1.479,0.456-1.721,1.345c-0.322,1.185-0.288,2.361,0.056,3.527
					c0.228,0.772,0.764,1.173,1.592,1.173c0.883,0,1.438-0.45,1.652-1.265c0.149-0.57,0.168-1.176,0.237-1.702
					c-0.067-0.585-0.086-1.106-0.192-1.609C82.646,28.85,82.125,28.268,81.204,28.244z M81.177,33.168
					c-0.424,0.016-0.477-0.348-0.492-0.667c-0.021-0.395-0.005-0.791-0.004-1.187c0.001-0.435-0.008-0.87,0.005-1.305
					c0.008-0.29,0.098-0.585,0.426-0.615c0.354-0.032,0.478,0.288,0.487,0.556c0.032,0.868,0.029,1.738,0.012,2.606
					C81.604,32.831,81.515,33.155,81.177,33.168z"/>
				<path class="st0" d="M32.839,28.349c-0.628-0.01-0.588,0.365-0.585,0.781c0.006,1.039,0.006,2.079,0,3.118
					c-0.002,0.396,0.041,0.902-0.53,0.879c-0.551-0.022-0.492-0.53-0.495-0.922c-0.008-1.079-0.022-2.159,0.004-3.237
					c0.012-0.482-0.182-0.62-0.633-0.615c-0.421,0.004-0.684,0.071-0.673,0.581c0.027,1.238-0.033,2.481,0.042,3.716
					c0.075,1.231,0.603,1.656,1.744,1.646c1.106-0.01,1.578-0.648,1.653-1.652c0.044-0.596,0.008-1.198,0.008-1.798
					c0.003,0,0.007,0,0.01,0c0-0.56,0.003-1.119-0.001-1.68C33.381,28.78,33.49,28.358,32.839,28.349z"/>
				<path class="st0" d="M45.178,31.566c1.072-2.524,0.429-3.431-2.202-3.219c-0.547,0.044-0.653,0.246-0.646,0.729
					c0.023,1.475,0.022,2.95,0,4.425c-0.008,0.487,0.104,0.71,0.653,0.722c0.656,0.015,0.559-0.39,0.559-0.78
					c0-0.46,0-0.921,0-1.571c1.03,0.71,0.214,2.856,2.292,2.215c-0.206-0.599-0.409-1.158-0.587-1.726
					C45.167,32.107,45.046,31.876,45.178,31.566z M43.931,30.892c-0.614,0.023-0.326-0.491-0.414-0.785
					c0.078-0.298-0.191-0.809,0.438-0.766c0.465,0.031,0.543,0.395,0.546,0.783C44.503,30.525,44.379,30.874,43.931,30.892z"/>
				<path class="st0" d="M50.281,28.233c-0.851-0.018-1.438,0.484-1.64,1.301c-0.3,1.211-0.302,2.435,0.078,3.642
					c0.233,0.741,0.748,1.087,1.51,1.112c0.818,0.026,1.37-0.355,1.649-1.107c0.209-0.563,0.291-1.155,0.257-1.759
					c0.039-0.642-0.046-1.265-0.215-1.886C51.69,28.689,51.107,28.251,50.281,28.233z M50.742,32.574
					c-0.023,0.283-0.085,0.595-0.436,0.608c-0.355,0.015-0.44-0.323-0.481-0.582c-0.073-0.468-0.081-0.947-0.118-1.447
					c0.205-0.576-0.233-1.676,0.567-1.686c0.807-0.011,0.456,1.076,0.541,1.686C50.88,31.614,50.782,32.101,50.742,32.574z"/>
				<path class="st0" d="M85.352,29.394c0.471-0.107,0.604,0.249,0.688,0.631c0.12,0.555,0.536,0.351,0.861,0.297
					c0.467-0.078,0.24-0.43,0.19-0.658c-0.167-0.768-0.598-1.323-1.422-1.406c-0.849-0.086-1.474,0.297-1.806,1.086
					c-0.35,0.83-0.353,1.711-0.304,2.593c0.045,0.815,0.194,1.583,0.893,2.127c0.822,0.642,1.698-0.308,2.542,0.092
					c0.151,0.071,0.181-0.207,0.184-0.358c0.006-0.36,0.002-0.72,0.002-1.079c0-0.399-0.008-0.8,0.002-1.198
					c0.01-0.392-0.224-0.486-0.539-0.429c-0.405,0.073-0.923-0.253-1.2,0.229c-0.148,0.257-0.185,0.665,0.239,0.789
					c0.481,0.142,0.358,0.447,0.263,0.752c-0.064,0.204-0.22,0.337-0.445,0.326c-0.409-0.02-0.513-0.343-0.586-0.654
					c-0.177-0.748-0.109-1.511-0.054-2.265C84.885,29.926,84.922,29.491,85.352,29.394z"/>
				<path class="st0" d="M91.418,30.364c0.478-1.543-0.557-2.172-2.682-2.014c-0.465,0.034-0.611,0.157-0.604,0.619
					c0.022,1.516,0.022,3.031-0.001,4.547c-0.007,0.48,0.071,0.707,0.639,0.709c0.639,0.002,0.579-0.363,0.572-0.769
					c-0.007-0.466-0.001-0.933-0.001-1.398c0.646,0.475,0.682,1.124,0.853,1.708c0.17,0.58,0.586,0.415,0.955,0.436
					c0.294,0.017,0.49-0.122,0.353-0.419C90.975,32.646,91.029,31.621,91.418,30.364z M89.717,30.873
					c-0.679,0.051-0.242-0.509-0.396-0.758c0.132-0.265-0.257-0.804,0.4-0.77c0.45,0.024,0.566,0.377,0.567,0.761
					C90.289,30.495,90.158,30.84,89.717,30.873z"/>
				<path class="st0" d="M59.021,28.388c-0.892,0.263-0.252,1.074-0.381,1.619c-0.099,0.414-0.02,0.87-0.02,1.307
					c0,0.756-0.006,1.511,0.003,2.266c0.003,0.219-0.072,0.466,0.209,0.611c0.864,0.447,2.724-0.16,3.102-1.086
					c0.482-1.181,0.5-2.413,0.043-3.603C61.585,28.482,60.35,27.996,59.021,28.388z M60.82,32.646
					c-0.097,0.386-0.381,0.512-0.703,0.504c-0.443-0.01-0.278-0.396-0.293-0.633c-0.027-0.433-0.008-0.869-0.008-1.305
					c0-0.396-0.02-0.792,0.008-1.187c0.017-0.236-0.146-0.605,0.318-0.617c0.307-0.008,0.543,0.12,0.634,0.427
					C61.053,30.768,61.056,31.703,60.82,32.646z"/>
				<path class="st0" d="M73.603,28.232c-0.652,0.018-1.229,0.281-1.523,0.96c-0.277,0.641-0.315,1.307-0.297,1.986
					c-0.003,0.716-0.005,1.428,0.277,2.111c0.277,0.672,0.772,0.977,1.477,0.995c0.752,0.02,1.354-0.268,1.599-0.991
					c0.458-1.356,0.455-2.74-0.028-4.091C74.866,28.532,74.275,28.214,73.603,28.232z M73.564,33.106
					c-0.674,0.012-0.539-1.026-0.501-1.627c0.046-0.728-0.361-1.986,0.576-1.995c0.809-0.008,0.327,1.267,0.513,1.956
					C73.981,32.04,74.443,33.091,73.564,33.106z"/>
				<path class="st0" d="M39.838,29.45c0.245-0.094,0.549-0.032,0.827-0.041c0.383-0.013,0.827,0.105,0.807-0.551
					c-0.021-0.676-0.505-0.475-0.858-0.49c-0.517-0.023-1.039,0.027-1.553-0.015c-0.591-0.048-0.753,0.2-0.738,0.76
					c0.034,1.194,0.079,2.395-0.008,3.584c-0.087,1.196,0.158,1.89,1.351,1.511c0.548,0,0.907-0.014,1.265,0.003
					c0.421,0.02,0.551-0.178,0.541-0.577c-0.009-0.376-0.199-0.479-0.526-0.472c-0.239,0.006-0.48-0.022-0.717,0.004
					c-0.609,0.068-0.607-0.314-0.611-0.748c-0.004-0.401,0.015-0.688,0.554-0.664c0.369,0.016,0.93,0.242,0.9-0.538
					c-0.029-0.75-0.572-0.502-0.953-0.529c-0.34-0.025-0.529-0.129-0.494-0.493C39.651,29.928,39.518,29.573,39.838,29.45z"/>
				<path class="st0" d="M10.368,28.281c-0.969-0.152-1.64,0.241-1.96,1.156c-0.42,1.202-0.413,2.425-0.048,3.644
					c0.271,0.905,0.923,1.273,1.825,1.196c0.887-0.075,1.322-0.627,1.473-1.476c0.06-0.337,0.173-0.647-0.302-0.726
					c-0.319-0.053-0.668-0.113-0.73,0.359c-0.05,0.385-0.182,0.786-0.614,0.732c-0.479-0.059-0.524-0.541-0.559-0.942
					c-0.024-0.277-0.004-0.559-0.005-0.839c0-0.279-0.019-0.561,0.003-0.838c0.034-0.432,0.003-0.999,0.489-1.121
					c0.621-0.154,0.623,0.427,0.711,0.852c0.101,0.486,0.485,0.28,0.775,0.289c0.322,0.01,0.402-0.167,0.351-0.456
					C11.627,29.254,11.415,28.446,10.368,28.281z"/>
				<path class="st0" d="M5.989,30.55c-0.35-0.164-0.786-0.4-0.487-0.898c0.335-0.56,0.639-0.245,0.9,0.117
					c0.285,0.394,0.576,0.098,0.816-0.035c0.361-0.198,0.132-0.491,0.006-0.718c-0.298-0.537-0.803-0.791-1.39-0.773
					c-0.632,0.019-1.142,0.316-1.42,0.927c-0.5,1.093-0.123,1.915,1.292,2.748c0.321,0.189,0.642,0.339,0.583,0.791
					c-0.029,0.222-0.167,0.364-0.358,0.439c-0.391,0.154-0.625-0.095-0.755-0.393c-0.229-0.525-0.585-0.327-0.877-0.16
					c-0.38,0.217-0.193,0.573-0.055,0.842c0.442,0.86,1.214,0.97,2.05,0.779c0.934-0.213,1.232-0.916,1.262-2.191
					C7.594,31.323,6.811,30.935,5.989,30.55z"/>
				<path class="st0" d="M27.626,30.517c-0.428-0.172-0.667-0.525-0.373-0.94c0.301-0.425,0.662-0.193,0.846,0.15
					c0.268,0.497,0.558,0.126,0.779,0.032c0.355-0.15,0.207-0.436,0.068-0.699c-0.318-0.6-0.854-0.858-1.478-0.819
					c-0.74,0.046-1.287,0.481-1.456,1.213c-0.257,1.112,0.105,1.94,1.235,2.381c0.353,0.138,0.77,0.339,0.719,0.835
					c-0.017,0.167-0.169,0.393-0.318,0.459c-0.44,0.197-0.63-0.132-0.816-0.462c-0.223-0.394-0.572-0.222-0.837-0.095
					c-0.423,0.203-0.192,0.521-0.068,0.812c0.293,0.687,0.864,0.886,1.544,0.906c1.038-0.022,1.62-0.542,1.75-1.576
					C29.376,31.477,28.625,30.918,27.626,30.517z"/>
				<path class="st0" d="M65.505,33.161c-0.238,0.011-0.479-0.008-0.717,0.003c-0.552,0.023-0.512-0.361-0.524-0.728
					c-0.014-0.385-0.009-0.697,0.536-0.684c0.324,0.009,0.831,0.251,0.836-0.47c0.004-0.602-0.332-0.633-0.763-0.603
					c-0.466,0.031-0.61-0.19-0.617-0.641c-0.009-0.562,0.278-0.675,0.747-0.635c0.197,0.017,0.398-0.009,0.597,0.004
					c0.338,0.021,0.507-0.095,0.509-0.466c0.003-0.374-0.08-0.536-0.511-0.595c-2.405-0.33-2.621-0.164-2.621,2.208
					c0.001,0.238,0,0.478,0,0.716c0,3.12-0.001,3.111,2.476,2.944c0.401-0.027,0.68-0.036,0.662-0.565
					C66.1,33.188,65.857,33.146,65.505,33.161z"/>
				<path class="st0" d="M105.134,33.362c-0.279-1.444-0.623-2.875-0.947-4.311c-0.093-0.408-0.209-0.796-0.83-0.666
					c-0.507-0.155-0.715,0.12-0.824,0.653c-0.303,1.479-0.667,2.946-0.974,4.426c-0.048,0.228-0.45,0.644,0.16,0.719
					c0.356,0.043,0.825,0.196,0.869-0.463c0.027-0.39,0.083-0.77,0.675-0.771c0.562-0.002,0.68,0.288,0.7,0.729
					c0.035,0.718,0.58,0.552,0.97,0.509C105.601,34.112,105.181,33.605,105.134,33.362z M103.52,31.925
					c-0.02,0.057-0.386,0.09-0.431,0.024c-0.357-0.527,0.022-0.998-0.007-1.7C103.6,30.902,103.704,31.397,103.52,31.925z"/>
				<path class="st0" d="M94.658,28.992c-0.1-0.516-0.314-0.685-0.806-0.619c-0.479-0.11-0.691,0.113-0.795,0.593
					c-0.329,1.516-0.705,3.021-1.036,4.536c-0.056,0.253-0.298,0.665,0.278,0.7c0.371,0.022,0.725,0.035,0.811-0.465
					c0.062-0.361-0.017-0.774,0.621-0.795c0.676-0.022,0.646,0.396,0.733,0.814c0.138,0.655,0.677,0.49,1.059,0.416
					c0.553-0.107,0.16-0.508,0.108-0.755C95.318,31.94,94.942,30.476,94.658,28.992z M93.768,31.99
					c-0.339-0.004-0.398-0.21-0.344-0.475c0.089-0.423,0.201-0.84,0.357-1.481c0.167,0.722,0.266,1.105,0.343,1.494
					C94.179,31.803,94.101,31.993,93.768,31.99z"/>
				<path class="st0" d="M22.798,28.956c-0.104-0.484-0.359-0.68-0.831-0.584c-0.512-0.083-0.702,0.161-0.8,0.64
					c-0.311,1.519-0.674,3.026-1.002,4.542c-0.046,0.216-0.373,0.574,0.143,0.625c0.338,0.033,0.829,0.249,0.903-0.419
					c0.042-0.372,0.039-0.782,0.641-0.811c0.649-0.029,0.705,0.368,0.758,0.815c0.076,0.645,0.572,0.43,0.92,0.427
					c0.579-0.004,0.322-0.445,0.27-0.694C23.482,31.979,23.123,30.472,22.798,28.956z M22.154,31.89
					c-0.011,0.051-0.346,0.117-0.406,0.056c-0.489-0.497,0.137-0.978,0.031-1.47C22.24,30.917,22.261,31.399,22.154,31.89z"/>
				<path class="st0" d="M34.691,28.442c-0.69,0.161-0.209,1.092-0.3,1.671c-0.062,0.391-0.012,0.798-0.012,1.197
					c0,0.679-0.01,1.358,0.003,2.037c0.008,0.399-0.175,0.864,0.579,0.882c0.815,0.02,0.682-0.479,0.652-0.933
					c-0.051-0.785-0.026-1.426,1.07-1.321c0.401,0.037,0.721-0.317,0.878-0.716c0.344-0.871,0.388-1.772-0.262-2.479
					C36.583,28.003,35.509,28.251,34.691,28.442z M35.916,30.976c-0.533-0.033-0.213-0.557-0.323-0.852
					c0.112-0.273-0.226-0.801,0.394-0.77c0.441,0.022,0.524,0.412,0.523,0.778C36.509,30.546,36.4,31.006,35.916,30.976z"/>
				<path class="st0" d="M2.48,29.404c0.159,0.011,0.319-0.008,0.478,0.003c0.379,0.024,0.589-0.09,0.59-0.528
					c0.001-0.451-0.243-0.483-0.601-0.522C0.499,28.092,0.5,28.084,0.5,30.474c0,0.279,0,0.558,0,0.837c0,0.318,0,0.637,0,0.956
					c0,1.962,0,1.977,2.019,1.927c0.393-0.01,1.057,0.31,1.019-0.552c-0.034-0.764-0.627-0.438-0.989-0.461
					c-0.466-0.029-0.854,0.022-0.826-0.662c0.021-0.515,0.059-0.839,0.697-0.765c0.318,0.037,0.725,0.137,0.735-0.469
					c0.011-0.616-0.353-0.639-0.771-0.595c-0.546,0.057-0.649-0.195-0.66-0.689C1.712,29.396,2.046,29.374,2.48,29.404z"/>
				<path class="st0" d="M98.521,28.355c-2.351-0.225-2.351-0.229-2.35,2.135c0,0.239,0,0.479,0,0.719
					c0.001,0.8,0.018,1.599-0.006,2.397c-0.015,0.478,0.194,0.589,0.64,0.617c0.801,0.052,0.634-0.481,0.667-0.941
					c0.046-0.625-0.366-1.548,0.917-1.411c0.396,0.043,0.352-0.339,0.353-0.616c0.001-0.399-0.271-0.446-0.568-0.412
					c-1.01,0.116-0.737-0.631-0.67-1.098c0.086-0.602,0.641-0.287,0.985-0.32c0.398-0.038,0.689-0.052,0.669-0.584
					C99.139,28.358,98.849,28.388,98.521,28.355z"/>
				<path class="st0" d="M78.332,28.361c-0.678-0.004-1.354-0.01-2.031,0.004c-0.259,0.005-0.607-0.068-0.6,0.367
					c0.006,0.292-0.128,0.725,0.355,0.733c0.692,0.014,0.601,0.468,0.598,0.901c-0.003,0.478-0.001,0.956,0,1.434
					c0,0.519,0,1.036,0,1.554c-0.001,0.431-0.108,0.86,0.608,0.877c0.776,0.017,0.691-0.445,0.688-0.93
					c-0.005-0.995-0.001-1.991-0.002-2.987c0-0.399-0.065-0.818,0.555-0.832c0.477-0.01,0.392-0.405,0.401-0.713
					C78.918,28.351,78.614,28.363,78.332,28.361z"/>
				<path class="st0" d="M19.072,33.08c-0.749,0.104-0.838-0.297-0.815-0.909c0.038-1.033-0.007-2.07,0.018-3.104
					c0.012-0.479-0.09-0.724-0.646-0.724c-0.543,0.001-0.686,0.219-0.667,0.712c0.026,0.716,0.007,1.433,0.007,2.149
					c0,0.358,0,0.717,0,1.075c0,2.081-0.001,2.077,2.053,1.937c0.364-0.025,0.709,0.03,0.7-0.535
					C19.713,33.194,19.502,33.02,19.072,33.08z"/>
				<path class="st0" d="M70.781,28.361c-0.278,0.019-0.559,0.004-1.029,0.004c-1.146-0.36-1.458,0.26-1.353,1.483
					c0.096,1.107,0.008,2.231,0.026,3.347c0.008,0.458-0.245,1.064,0.671,1.029c0.873-0.033,0.519-0.627,0.553-1.015
					c0.059-0.667-0.232-1.511,0.982-1.37c0.308,0.036,0.257-0.331,0.265-0.56c0.014-0.388-0.233-0.459-0.546-0.436
					c-1.133,0.087-0.722-0.779-0.619-1.209c0.111-0.47,0.686-0.194,1.05-0.216c0.383-0.021,0.568-0.096,0.572-0.532
					C71.357,28.443,71.168,28.336,70.781,28.361z"/>
				<path class="st0" d="M47.049,28.34c-0.552-0.001-0.666,0.239-0.646,0.721c0.028,0.713,0.007,1.429,0.007,2.144
					c0.001,0.795,0.02,1.59-0.007,2.383c-0.015,0.451,0.128,0.64,0.604,0.64c0.48-0.001,0.729-0.104,0.719-0.656
					c-0.027-1.509-0.023-3.019-0.001-4.527C47.731,28.541,47.581,28.342,47.049,28.34z"/>
				<path class="st0" d="M100.365,28.338c-0.646-0.018-0.7,0.305-0.683,0.806c0.026,0.714,0.007,1.43,0.007,2.145
					s0.021,1.431-0.008,2.145c-0.02,0.508,0.051,0.817,0.689,0.8c0.568-0.016,0.637-0.288,0.632-0.746
					c-0.015-1.47-0.016-2.939-0.001-4.408C101.007,28.615,100.93,28.353,100.365,28.338z"/>
			</g>
		</g>
	</g>
</g>
</svg>
