<?xml version="1.0" encoding="utf-8"?>
<!-- Generator: Adobe Illustrator 16.0.0, SVG Export Plug-In . SVG Version: 6.00 Build 0)  -->
<!DOCTYPE svg PUBLIC "-//W3C//DTD SVG 1.1//EN" "http://www.w3.org/Graphics/SVG/1.1/DTD/svg11.dtd">
<svg version="1.1" id="Layer_1" xmlns="http://www.w3.org/2000/svg" xmlns:xlink="http://www.w3.org/1999/xlink" x="0px" y="0px"
	 width="76.274px" height="72.758px" viewBox="0 0 76.274 72.758" style="enable-background:new 0 0 76.274 72.758;"
	 xml:space="preserve">
<style type="text/css">
<![CDATA[
	.st0{fill:#065A8D;}
]]>
</style>
<g>
	<path class="st0" d="M1.441,4.168L0.81,6.076H0l2.062-6.067h0.945l2.07,6.067H4.24L3.592,4.168H1.441z M3.43,3.556L2.835,1.81
		C2.701,1.413,2.611,1.053,2.521,0.702H2.503c-0.091,0.36-0.189,0.729-0.307,1.099L1.603,3.556H3.43z"/>
	<path class="st0" d="M8.938,5.914C8.731,6.022,8.272,6.166,7.687,6.166c-1.314,0-2.17-0.891-2.17-2.223
		c0-1.342,0.918-2.314,2.34-2.314c0.469,0,0.883,0.117,1.1,0.226L8.776,2.467C8.587,2.358,8.29,2.26,7.857,2.26
		c-0.998,0-1.539,0.738-1.539,1.647c0,1.009,0.648,1.63,1.513,1.63c0.45,0,0.747-0.117,0.972-0.217L8.938,5.914z"/>
	<path class="st0" d="M12.781,5.401h-0.018c-0.234,0.433-0.721,0.774-1.423,0.774c-1.017,0-1.845-0.883-1.845-2.205
		c0-1.631,1.053-2.351,1.971-2.351c0.676,0,1.125,0.333,1.342,0.757h0.018l0.027-0.658H13.6c-0.019,0.369-0.026,0.748-0.026,1.197
		v4.943h-0.793V5.401z M12.781,3.484c0-0.108-0.009-0.234-0.035-0.334c-0.117-0.486-0.541-0.9-1.135-0.9
		c-0.819,0-1.314,0.693-1.314,1.675c0,0.864,0.414,1.62,1.287,1.62c0.514,0,0.954-0.314,1.135-0.863
		c0.035-0.108,0.062-0.262,0.062-0.379V3.484z"/>
	<path class="st0" d="M18.523,4.889c0,0.449,0.01,0.846,0.036,1.188h-0.702l-0.045-0.711h-0.018
		c-0.207,0.352-0.667,0.811-1.441,0.811c-0.684,0-1.503-0.379-1.503-1.908V1.719h0.792v2.413c0,0.829,0.252,1.387,0.973,1.387
		c0.531,0,0.9-0.369,1.044-0.72c0.045-0.117,0.072-0.262,0.072-0.406V1.719h0.792V4.889z"/>
	<path class="st0" d="M20.718,0.495c0.009,0.271-0.189,0.485-0.504,0.485c-0.279,0-0.478-0.215-0.478-0.485
		C19.737,0.216,19.944,0,20.232,0C20.529,0,20.718,0.216,20.718,0.495z M19.835,6.076V1.719h0.793v4.357H19.835z"/>
	<path class="st0" d="M21.833,5.267c0.234,0.153,0.648,0.315,1.045,0.315c0.576,0,0.846-0.289,0.846-0.648
		c0-0.379-0.225-0.586-0.811-0.802c-0.783-0.278-1.152-0.711-1.152-1.233c0-0.702,0.568-1.278,1.504-1.278
		c0.441,0,0.828,0.126,1.071,0.271l-0.198,0.576c-0.171-0.108-0.486-0.252-0.891-0.252c-0.469,0-0.729,0.27-0.729,0.594
		c0,0.36,0.261,0.522,0.828,0.738c0.757,0.288,1.144,0.666,1.144,1.314c0,0.766-0.594,1.305-1.629,1.305
		c-0.479,0-0.919-0.116-1.225-0.297L21.833,5.267z"/>
	<path class="st0" d="M27.224,2.439c0-0.333,0.226-0.566,0.541-0.566c0.314,0,0.521,0.233,0.531,0.566
		c0,0.315-0.207,0.559-0.541,0.559C27.441,2.998,27.224,2.755,27.224,2.439z M27.224,5.617c0-0.333,0.226-0.566,0.541-0.566
		c0.314,0,0.521,0.233,0.531,0.566c0,0.315-0.207,0.559-0.541,0.559C27.441,6.176,27.224,5.933,27.224,5.617z"/>
	<path class="st0" d="M1.242,10.809v6.068H0.458v-6.068H1.242z"/>
	<path class="st0" d="M2.673,13.699c0-0.451-0.01-0.82-0.037-1.18h0.703l0.045,0.72h0.018c0.217-0.414,0.721-0.819,1.44-0.819
		c0.604,0,1.54,0.36,1.54,1.855v2.602H5.589v-2.512c0-0.703-0.261-1.288-1.008-1.288c-0.522,0-0.928,0.369-1.062,0.811
		c-0.036,0.099-0.055,0.233-0.055,0.369v2.62H2.673V13.699z"/>
	<path class="st0" d="M8.586,11.268v1.252H9.72v0.604H8.586v2.35c0,0.539,0.153,0.846,0.595,0.846c0.207,0,0.359-0.027,0.459-0.055
		l0.035,0.595c-0.152,0.063-0.396,0.108-0.701,0.108c-0.369,0-0.666-0.117-0.855-0.334c-0.225-0.233-0.307-0.621-0.307-1.134v-2.376
		H7.137V12.52h0.675v-1.045L8.586,11.268z"/>
	<path class="st0" d="M10.998,14.842c0.019,1.071,0.703,1.513,1.495,1.513c0.567,0,0.909-0.099,1.206-0.226l0.135,0.567
		c-0.278,0.126-0.756,0.271-1.449,0.271c-1.341,0-2.143-0.883-2.143-2.197s0.774-2.35,2.044-2.35c1.423,0,1.8,1.252,1.8,2.053
		c0,0.162-0.018,0.288-0.026,0.369H10.998z M13.321,14.275c0.009-0.505-0.207-1.288-1.099-1.288c-0.801,0-1.152,0.738-1.215,1.288
		H13.321z"/>
	<path class="st0" d="M15.066,13.699c0-0.451-0.009-0.82-0.036-1.18h0.702l0.045,0.72h0.018c0.217-0.414,0.721-0.819,1.441-0.819
		c0.604,0,1.539,0.36,1.539,1.855v2.602h-0.792v-2.512c0-0.703-0.261-1.288-1.009-1.288c-0.521,0-0.927,0.369-1.062,0.811
		c-0.035,0.099-0.054,0.233-0.054,0.369v2.62h-0.792V13.699z"/>
	<path class="st0" d="M19.953,16.066c0.234,0.152,0.648,0.314,1.045,0.314c0.576,0,0.846-0.287,0.846-0.648
		c0-0.377-0.225-0.584-0.811-0.801c-0.783-0.279-1.152-0.711-1.152-1.232c0-0.703,0.568-1.279,1.504-1.279
		c0.441,0,0.828,0.127,1.071,0.271l-0.198,0.576c-0.171-0.108-0.486-0.253-0.891-0.253c-0.469,0-0.729,0.271-0.729,0.595
		c0,0.36,0.261,0.522,0.828,0.738c0.757,0.288,1.144,0.666,1.144,1.314c0,0.765-0.594,1.306-1.629,1.306
		c-0.479,0-0.919-0.117-1.225-0.297L19.953,16.066z"/>
	<path class="st0" d="M24.507,11.295c0.009,0.27-0.189,0.486-0.504,0.486c-0.279,0-0.478-0.217-0.478-0.486
		c0-0.279,0.207-0.495,0.495-0.495C24.318,10.8,24.507,11.016,24.507,11.295z M23.625,16.877V12.52h0.793v4.357H23.625z"/>
	<path class="st0" d="M25.812,16.877v-3.754H25.2V12.52h0.612v-0.207c0-0.613,0.135-1.171,0.504-1.521
		c0.297-0.289,0.693-0.405,1.062-0.405c0.279,0,0.521,0.063,0.676,0.126l-0.108,0.611c-0.117-0.053-0.279-0.098-0.505-0.098
		c-0.675,0-0.846,0.594-0.846,1.26v0.234h1.053v0.604h-1.053v3.754H25.812z"/>
	<path class="st0" d="M0.639,27.118c0.171,0.019,0.369,0,0.64-0.026c0.459-0.063,0.891-0.253,1.225-0.568
		c0.387-0.351,0.666-0.863,0.773-1.557H3.25c-0.324,0.396-0.792,0.63-1.377,0.63c-1.053,0-1.729-0.792-1.729-1.792
		c0-1.107,0.801-2.079,1.998-2.079s1.936,0.972,1.936,2.467c0,1.287-0.432,2.188-1.008,2.745c-0.45,0.441-1.071,0.712-1.701,0.783
		c-0.289,0.045-0.541,0.055-0.729,0.045V27.118z M0.927,23.751c0,0.729,0.441,1.243,1.125,1.243c0.531,0,0.945-0.262,1.152-0.613
		c0.045-0.072,0.072-0.162,0.072-0.287c0-1-0.369-1.766-1.197-1.766C1.404,22.328,0.927,22.923,0.927,23.751z"/>
	<path class="st0" d="M8.686,24.688c0,1.989-0.738,3.088-2.034,3.088c-1.145,0-1.918-1.071-1.936-3.007
		c0-1.963,0.846-3.043,2.034-3.043C7.984,21.726,8.686,22.824,8.686,24.688z M5.507,24.777c0,1.521,0.469,2.386,1.189,2.386
		c0.81,0,1.197-0.945,1.197-2.439c0-1.44-0.369-2.386-1.189-2.386C6.012,22.338,5.507,23.184,5.507,24.777z"/>
	<path class="st0" d="M12.051,23.473c0,1.232-0.648,1.845-1.404,1.845c-0.729,0-1.359-0.585-1.368-1.765
		c0-1.17,0.639-1.827,1.413-1.827C11.511,21.726,12.051,22.355,12.051,23.473z M9.909,23.525c-0.019,0.748,0.261,1.314,0.756,1.314
		c0.522,0,0.757-0.558,0.757-1.332c0-0.711-0.207-1.305-0.757-1.305C10.169,22.203,9.909,22.787,9.909,23.525z M10.593,27.775
		l3.438-6.05h0.505l-3.439,6.05H10.593z M15.859,25.894c0,1.233-0.648,1.846-1.395,1.846c-0.729,0-1.359-0.585-1.369-1.755
		c0-1.18,0.64-1.837,1.414-1.837C15.328,24.147,15.859,24.777,15.859,25.894z M13.716,25.947c-0.009,0.748,0.279,1.314,0.766,1.314
		c0.521,0,0.756-0.558,0.756-1.332c0-0.711-0.207-1.305-0.756-1.305C13.987,24.625,13.716,25.209,13.716,25.947z"/>
	<path class="st0" d="M18.701,24.741c0-0.558-0.018-1.009-0.035-1.423h0.711l0.036,0.748h0.018c0.324-0.531,0.837-0.847,1.549-0.847
		c1.054,0,1.845,0.892,1.845,2.215c0,1.566-0.953,2.341-1.98,2.341c-0.576,0-1.08-0.252-1.341-0.684h-0.019v2.367h-0.783V24.741z
		 M19.484,25.902c0,0.117,0.019,0.226,0.037,0.324c0.144,0.549,0.621,0.928,1.188,0.928c0.838,0,1.324-0.685,1.324-1.684
		c0-0.873-0.46-1.621-1.297-1.621c-0.54,0-1.045,0.388-1.197,0.982c-0.027,0.099-0.055,0.215-0.055,0.323V25.902z"/>
	<path class="st0" d="M23.822,24.678c0-0.513-0.009-0.953-0.035-1.359h0.693l0.026,0.855h0.036c0.198-0.585,0.676-0.954,1.207-0.954
		c0.09,0,0.152,0.009,0.225,0.027v0.747c-0.081-0.018-0.162-0.027-0.271-0.027c-0.558,0-0.954,0.424-1.062,1.018
		c-0.019,0.107-0.037,0.234-0.037,0.369v2.322h-0.783V24.678z"/>
	<path class="st0" d="M29.132,27.676l-0.062-0.549h-0.027c-0.242,0.342-0.711,0.648-1.332,0.648c-0.883,0-1.332-0.621-1.332-1.252
		c0-1.053,0.936-1.629,2.619-1.62v-0.09c0-0.36-0.099-1.009-0.99-1.009c-0.404,0-0.828,0.127-1.135,0.324l-0.18-0.521
		c0.36-0.234,0.883-0.388,1.432-0.388c1.332,0,1.656,0.909,1.656,1.782v1.63c0,0.378,0.019,0.747,0.072,1.044H29.132z
		 M29.016,25.453c-0.864-0.019-1.846,0.135-1.846,0.98c0,0.514,0.342,0.756,0.747,0.756c0.567,0,0.928-0.359,1.053-0.729
		c0.027-0.081,0.046-0.171,0.046-0.252V25.453z"/>
	<path class="st0" d="M31.976,22.067v1.251h1.135v0.604h-1.135v2.35c0,0.541,0.153,0.847,0.594,0.847
		c0.207,0,0.361-0.026,0.46-0.054l0.036,0.594c-0.153,0.062-0.396,0.107-0.703,0.107c-0.369,0-0.666-0.116-0.854-0.332
		c-0.226-0.234-0.306-0.621-0.306-1.135v-2.377h-0.676v-0.604h0.676v-1.044L31.976,22.067z"/>
	<path class="st0" d="M34.883,22.095c0.009,0.271-0.188,0.485-0.505,0.485c-0.278,0-0.477-0.215-0.477-0.485
		c0-0.279,0.207-0.495,0.495-0.495C34.695,21.6,34.883,21.815,34.883,22.095z M34.001,27.676v-4.357h0.791v4.357H34.001z"/>
	<path class="st0" d="M39.078,27.001H39.06c-0.234,0.433-0.721,0.774-1.423,0.774c-1.017,0-1.845-0.883-1.845-2.205
		c0-1.631,1.053-2.351,1.971-2.351c0.676,0,1.125,0.333,1.342,0.757h0.018l0.027-0.658h0.747c-0.019,0.369-0.026,0.748-0.026,1.197
		v4.943h-0.793V27.001z M39.078,25.084c0-0.108-0.009-0.234-0.035-0.334c-0.117-0.486-0.541-0.9-1.135-0.9
		c-0.819,0-1.314,0.693-1.314,1.675c0,0.864,0.414,1.62,1.287,1.62c0.514,0,0.954-0.314,1.135-0.863
		c0.035-0.108,0.062-0.262,0.062-0.379V25.084z"/>
	<path class="st0" d="M44.82,26.488c0,0.449,0.01,0.846,0.036,1.188h-0.702l-0.045-0.711h-0.018
		c-0.207,0.352-0.667,0.811-1.441,0.811c-0.684,0-1.503-0.379-1.503-1.908v-2.549h0.792v2.413c0,0.829,0.252,1.387,0.973,1.387
		c0.531,0,0.9-0.369,1.044-0.72c0.045-0.117,0.072-0.262,0.072-0.406v-2.674h0.792V26.488z"/>
	<path class="st0" d="M46.574,25.642c0.018,1.071,0.702,1.513,1.494,1.513c0.568,0,0.91-0.1,1.207-0.225l0.135,0.566
		c-0.279,0.126-0.756,0.27-1.449,0.27c-1.342,0-2.143-0.882-2.143-2.195c0-1.314,0.773-2.351,2.043-2.351
		c1.423,0,1.801,1.251,1.801,2.053c0,0.162-0.018,0.288-0.027,0.369H46.574z M48.896,25.074c0.01-0.504-0.207-1.287-1.098-1.287
		c-0.801,0-1.152,0.738-1.215,1.287H48.896z"/>
	<path class="st0" d="M0.432,32.084h0.792v6.393H0.432V32.084z"/>
	<path class="st0" d="M2.998,36.441c0.018,1.072,0.702,1.514,1.494,1.514c0.567,0,0.909-0.1,1.207-0.226l0.135,0.567
		c-0.279,0.125-0.757,0.27-1.449,0.27c-1.342,0-2.143-0.882-2.143-2.196s0.773-2.351,2.043-2.351c1.422,0,1.801,1.252,1.801,2.053
		c0,0.162-0.018,0.289-0.027,0.369H2.998z M5.32,35.875c0.01-0.504-0.207-1.287-1.098-1.287c-0.802,0-1.152,0.738-1.216,1.287H5.32z
		"/>
	<path class="st0" d="M9.478,38.477l-0.063-0.549H9.388c-0.244,0.342-0.712,0.648-1.333,0.648c-0.882,0-1.333-0.621-1.333-1.252
		c0-1.053,0.938-1.629,2.621-1.621v-0.09c0-0.359-0.1-1.008-0.991-1.008c-0.405,0-0.828,0.126-1.134,0.324l-0.18-0.522
		c0.359-0.233,0.882-0.388,1.431-0.388c1.333,0,1.657,0.91,1.657,1.783v1.629c0,0.379,0.018,0.748,0.071,1.045H9.478z M9.361,36.253
		c-0.864-0.019-1.846,0.135-1.846,0.981c0,0.514,0.342,0.756,0.747,0.756c0.567,0,0.927-0.359,1.054-0.729
		c0.027-0.082,0.045-0.172,0.045-0.252V36.253z"/>
	<path class="st0" d="M11.403,35.479c0-0.514-0.009-0.954-0.036-1.359h0.693l0.027,0.855h0.035c0.199-0.586,0.676-0.955,1.207-0.955
		c0.09,0,0.152,0.01,0.225,0.027v0.748c-0.08-0.019-0.162-0.027-0.27-0.027c-0.559,0-0.955,0.423-1.062,1.018
		c-0.018,0.107-0.036,0.234-0.036,0.369v2.322h-0.783V35.479z"/>
	<path class="st0" d="M14.382,35.299c0-0.45-0.01-0.819-0.037-1.18h0.703l0.045,0.721h0.018c0.217-0.414,0.721-0.82,1.44-0.82
		c0.604,0,1.54,0.361,1.54,1.855v2.602h-0.793v-2.512c0-0.702-0.261-1.287-1.008-1.287c-0.522,0-0.928,0.369-1.062,0.811
		c-0.036,0.099-0.055,0.233-0.055,0.369v2.619h-0.791V35.299z"/>
	<path class="st0" d="M20.259,32.895c0.009,0.271-0.189,0.486-0.504,0.486c-0.279,0-0.478-0.216-0.478-0.486
		c0-0.279,0.207-0.494,0.495-0.494C20.07,32.4,20.259,32.615,20.259,32.895z M19.376,38.477v-4.357h0.793v4.357H19.376z"/>
	<path class="st0" d="M21.483,35.299c0-0.45-0.009-0.819-0.036-1.18h0.702l0.045,0.721h0.019c0.216-0.414,0.72-0.82,1.439-0.82
		c0.604,0,1.54,0.361,1.54,1.855v2.602H24.4v-2.512c0-0.702-0.262-1.287-1.008-1.287c-0.523,0-0.928,0.369-1.062,0.811
		c-0.037,0.099-0.055,0.233-0.055,0.369v2.619h-0.792V35.299z"/>
	<path class="st0" d="M30.232,34.119c-0.018,0.315-0.035,0.666-0.035,1.197v2.529c0,1-0.199,1.612-0.622,1.99
		c-0.423,0.396-1.035,0.521-1.585,0.521c-0.521,0-1.098-0.125-1.449-0.359l0.199-0.604c0.287,0.18,0.737,0.342,1.277,0.342
		c0.811,0,1.404-0.422,1.404-1.521v-0.485h-0.018c-0.243,0.405-0.711,0.729-1.387,0.729c-1.08,0-1.854-0.919-1.854-2.125
		c0-1.477,0.963-2.314,1.962-2.314c0.757,0,1.171,0.396,1.359,0.757h0.019l0.035-0.657H30.232z M29.414,35.839
		c0-0.136-0.01-0.252-0.046-0.36c-0.144-0.459-0.53-0.837-1.106-0.837c-0.757,0-1.297,0.64-1.297,1.647
		c0,0.855,0.432,1.566,1.287,1.566c0.486,0,0.928-0.307,1.099-0.811c0.045-0.135,0.063-0.288,0.063-0.423V35.839z"/>
	<path class="st0" d="M33.38,38.477c0.018-0.297,0.036-0.738,0.036-1.125v-5.268H34.2v2.737h0.019
		c0.278-0.485,0.783-0.802,1.484-0.802c1.081,0,1.846,0.9,1.837,2.225c0,1.557-0.981,2.332-1.954,2.332
		c-0.629,0-1.134-0.244-1.458-0.82h-0.026l-0.037,0.721H33.38z M34.2,36.73c0,0.099,0.019,0.197,0.036,0.287
		c0.152,0.55,0.612,0.928,1.188,0.928c0.828,0,1.323-0.676,1.323-1.674c0-0.874-0.45-1.621-1.297-1.621
		c-0.539,0-1.044,0.369-1.206,0.973c-0.019,0.09-0.045,0.197-0.045,0.324V36.73z"/>
	<path class="st0" d="M38.763,34.119l0.953,2.574c0.1,0.289,0.207,0.631,0.279,0.893h0.019c0.081-0.262,0.171-0.595,0.278-0.91
		l0.865-2.557h0.837l-1.188,3.105c-0.566,1.495-0.954,2.26-1.494,2.729c-0.387,0.342-0.774,0.477-0.973,0.514L38.142,39.8
		c0.197-0.063,0.459-0.188,0.692-0.387c0.216-0.171,0.486-0.478,0.667-0.882c0.035-0.082,0.062-0.145,0.062-0.189
		s-0.018-0.108-0.055-0.207l-1.611-4.016H38.763z"/>
	<path class="st0" d="M45.576,32.867v1.252h1.134v0.604h-1.134v2.35c0,0.54,0.152,0.846,0.594,0.846c0.207,0,0.36-0.026,0.459-0.054
		l0.036,0.595c-0.153,0.062-0.396,0.107-0.702,0.107c-0.369,0-0.666-0.117-0.855-0.333C44.882,38,44.801,37.612,44.801,37.1v-2.377
		h-0.675v-0.604h0.675v-1.044L45.576,32.867z"/>
	<path class="st0" d="M47.987,36.441c0.019,1.072,0.702,1.514,1.495,1.514c0.566,0,0.908-0.1,1.206-0.226l0.135,0.567
		c-0.278,0.125-0.757,0.27-1.449,0.27c-1.341,0-2.143-0.882-2.143-2.196s0.774-2.351,2.044-2.351c1.422,0,1.8,1.252,1.8,2.053
		c0,0.162-0.018,0.289-0.026,0.369H47.987z M50.31,35.875c0.009-0.504-0.207-1.287-1.099-1.287c-0.802,0-1.152,0.738-1.216,1.287
		H50.31z"/>
	<path class="st0" d="M54.467,38.477l-0.063-0.549h-0.026c-0.243,0.342-0.712,0.648-1.333,0.648c-0.882,0-1.332-0.621-1.332-1.252
		c0-1.053,0.937-1.629,2.62-1.621v-0.09c0-0.359-0.099-1.008-0.99-1.008c-0.405,0-0.829,0.126-1.135,0.324l-0.18-0.522
		c0.36-0.233,0.882-0.388,1.431-0.388c1.333,0,1.657,0.91,1.657,1.783v1.629c0,0.379,0.019,0.748,0.071,1.045H54.467z M54.35,36.253
		c-0.864-0.019-1.845,0.135-1.845,0.981c0,0.514,0.342,0.756,0.746,0.756c0.568,0,0.928-0.359,1.054-0.729
		c0.027-0.082,0.045-0.172,0.045-0.252V36.253z"/>
	<path class="st0" d="M59.499,38.314c-0.207,0.107-0.666,0.252-1.251,0.252c-1.314,0-2.17-0.891-2.17-2.224
		c0-1.341,0.918-2.313,2.34-2.313c0.469,0,0.883,0.117,1.1,0.225l-0.181,0.613c-0.188-0.109-0.486-0.208-0.919-0.208
		c-0.998,0-1.539,0.738-1.539,1.647c0,1.009,0.648,1.63,1.513,1.63c0.45,0,0.747-0.117,0.972-0.216L59.499,38.314z"/>
	<path class="st0" d="M60.424,32.084h0.792v2.72h0.018c0.127-0.226,0.324-0.423,0.568-0.559c0.233-0.135,0.513-0.226,0.81-0.226
		c0.585,0,1.521,0.361,1.521,1.864v2.593h-0.792v-2.503c0-0.702-0.262-1.296-1.008-1.296c-0.514,0-0.919,0.359-1.062,0.792
		c-0.045,0.108-0.055,0.226-0.055,0.378v2.629h-0.792V32.084z"/>
	<path class="st0" d="M66.302,32.895c0.008,0.271-0.189,0.486-0.505,0.486c-0.278,0-0.478-0.216-0.478-0.486
		c0-0.279,0.207-0.494,0.496-0.494C66.113,32.4,66.302,32.615,66.302,32.895z M65.419,38.477v-4.357h0.792v4.357H65.419z"/>
	<path class="st0" d="M67.525,35.299c0-0.45-0.009-0.819-0.035-1.18h0.701l0.046,0.721h0.018c0.216-0.414,0.72-0.82,1.44-0.82
		c0.604,0,1.539,0.361,1.539,1.855v2.602h-0.791v-2.512c0-0.702-0.262-1.287-1.009-1.287c-0.522,0-0.927,0.369-1.062,0.811
		c-0.036,0.099-0.054,0.233-0.054,0.369v2.619h-0.793V35.299z"/>
	<path class="st0" d="M76.275,34.119c-0.019,0.315-0.036,0.666-0.036,1.197v2.529c0,1-0.198,1.612-0.622,1.99
		c-0.422,0.396-1.035,0.521-1.584,0.521c-0.521,0-1.098-0.125-1.449-0.359l0.198-0.604c0.288,0.18,0.738,0.342,1.278,0.342
		c0.811,0,1.404-0.422,1.404-1.521v-0.485h-0.018c-0.244,0.405-0.711,0.729-1.387,0.729c-1.08,0-1.854-0.919-1.854-2.125
		c0-1.477,0.963-2.314,1.962-2.314c0.757,0,1.171,0.396,1.359,0.757h0.019l0.036-0.657H76.275z M75.456,35.839
		c0-0.136-0.009-0.252-0.046-0.36c-0.144-0.459-0.53-0.837-1.106-0.837c-0.757,0-1.296,0.64-1.296,1.647
		c0,0.855,0.432,1.566,1.287,1.566c0.486,0,0.927-0.307,1.098-0.811c0.045-0.135,0.063-0.288,0.063-0.423V35.839z"/>
	<path class="st0" d="M5.078,49.006c-0.352,0.126-1.045,0.334-1.863,0.334c-0.919,0-1.675-0.234-2.27-0.802
		c-0.521-0.504-0.846-1.314-0.846-2.26c0.009-1.81,1.252-3.133,3.285-3.133c0.703,0,1.252,0.153,1.514,0.279l-0.189,0.64
		c-0.324-0.145-0.729-0.262-1.342-0.262c-1.477,0-2.439,0.918-2.439,2.439c0,1.54,0.928,2.449,2.341,2.449
		c0.513,0,0.864-0.072,1.044-0.162v-1.81H3.08v-0.63h1.998V49.006z"/>
	<path class="st0" d="M6.732,47.242c0.018,1.071,0.702,1.512,1.494,1.512c0.568,0,0.91-0.099,1.207-0.225l0.135,0.567
		c-0.279,0.126-0.756,0.27-1.449,0.27c-1.342,0-2.143-0.882-2.143-2.196s0.773-2.35,2.043-2.35c1.423,0,1.801,1.251,1.801,2.053
		c0,0.162-0.018,0.288-0.027,0.369H6.732z M9.054,46.675c0.01-0.505-0.207-1.288-1.098-1.288c-0.801,0-1.152,0.738-1.215,1.288
		H9.054z"/>
	<path class="st0" d="M10.692,48.466c0.233,0.153,0.647,0.315,1.044,0.315c0.576,0,0.847-0.288,0.847-0.648
		c0-0.378-0.226-0.585-0.811-0.801c-0.783-0.279-1.152-0.711-1.152-1.233c0-0.702,0.567-1.278,1.503-1.278
		c0.441,0,0.829,0.126,1.072,0.27l-0.198,0.576c-0.171-0.107-0.486-0.252-0.892-0.252c-0.468,0-0.729,0.27-0.729,0.594
		c0,0.361,0.261,0.523,0.828,0.739c0.756,0.288,1.143,0.666,1.143,1.313c0,0.766-0.594,1.306-1.629,1.306
		c-0.478,0-0.918-0.117-1.225-0.297L10.692,48.466z"/>
	<path class="st0" d="M15.318,43.668v1.251h1.135v0.604h-1.135v2.35c0,0.54,0.153,0.846,0.594,0.846c0.207,0,0.361-0.026,0.46-0.054
		l0.036,0.595c-0.153,0.062-0.396,0.107-0.703,0.107c-0.369,0-0.666-0.117-0.854-0.333c-0.226-0.234-0.306-0.621-0.306-1.134v-2.377
		h-0.676v-0.604h0.676v-1.044L15.318,43.668z"/>
	<path class="st0" d="M18.225,43.695c0.009,0.27-0.188,0.485-0.505,0.485c-0.278,0-0.477-0.216-0.477-0.485
		c0-0.279,0.207-0.496,0.495-0.496C18.037,43.199,18.225,43.416,18.225,43.695z M17.343,49.276v-4.357h0.791v4.357H17.343z"/>
	<path class="st0" d="M23.392,47.062c0,1.611-1.117,2.313-2.17,2.313c-1.18,0-2.088-0.864-2.088-2.241
		c0-1.458,0.953-2.313,2.16-2.313C22.545,44.82,23.392,45.729,23.392,47.062z M19.935,47.106c0,0.954,0.549,1.675,1.323,1.675
		c0.757,0,1.323-0.711,1.323-1.692c0-0.738-0.369-1.675-1.305-1.675C20.339,45.414,19.935,46.278,19.935,47.106z"/>
	<path class="st0" d="M24.39,46.099c0-0.45-0.01-0.819-0.037-1.18h0.703l0.045,0.72h0.018c0.217-0.414,0.721-0.818,1.44-0.818
		c0.604,0,1.54,0.359,1.54,1.854v2.602h-0.793v-2.512c0-0.702-0.261-1.288-1.008-1.288c-0.522,0-0.928,0.369-1.062,0.811
		c-0.036,0.1-0.055,0.234-0.055,0.369v2.62H24.39V46.099z"/>
	<path class="st0" d="M35.056,42.885v5.267c0,0.387,0.008,0.828,0.035,1.125H34.38l-0.036-0.756h-0.019
		c-0.242,0.485-0.773,0.854-1.484,0.854c-1.054,0-1.863-0.891-1.863-2.214c-0.01-1.45,0.891-2.341,1.953-2.341
		c0.666,0,1.116,0.314,1.314,0.666h0.018v-2.602H35.056z M34.263,46.692c0-0.099-0.009-0.233-0.035-0.333
		c-0.117-0.504-0.55-0.918-1.145-0.918c-0.818,0-1.305,0.721-1.305,1.684c0,0.882,0.432,1.611,1.287,1.611
		c0.531,0,1.018-0.352,1.162-0.945c0.026-0.108,0.035-0.216,0.035-0.342V46.692z"/>
	<path class="st0" d="M36.81,47.242c0.018,1.071,0.702,1.512,1.494,1.512c0.567,0,0.909-0.099,1.207-0.225l0.135,0.567
		c-0.279,0.126-0.757,0.27-1.449,0.27c-1.342,0-2.143-0.882-2.143-2.196s0.773-2.35,2.043-2.35c1.422,0,1.801,1.251,1.801,2.053
		c0,0.162-0.018,0.288-0.027,0.369H36.81z M39.132,46.675c0.01-0.505-0.207-1.288-1.098-1.288c-0.802,0-1.152,0.738-1.216,1.288
		H39.132z"/>
	<path class="st0" d="M42.785,46.342c0-0.559-0.018-1.009-0.035-1.423h0.711l0.036,0.747h0.018c0.324-0.531,0.837-0.846,1.549-0.846
		c1.054,0,1.845,0.891,1.845,2.215c0,1.566-0.953,2.34-1.98,2.34c-0.576,0-1.08-0.252-1.341-0.684h-0.019v2.367h-0.783V46.342z
		 M43.568,47.503c0,0.117,0.019,0.225,0.037,0.324c0.144,0.549,0.621,0.927,1.188,0.927c0.838,0,1.324-0.684,1.324-1.684
		c0-0.873-0.46-1.62-1.297-1.62c-0.54,0-1.045,0.388-1.197,0.981c-0.027,0.1-0.055,0.216-0.055,0.324V47.503z"/>
	<path class="st0" d="M47.906,46.278c0-0.513-0.009-0.954-0.035-1.359h0.693l0.026,0.855h0.036c0.198-0.585,0.676-0.954,1.207-0.954
		c0.09,0,0.152,0.009,0.225,0.027v0.746c-0.081-0.018-0.162-0.026-0.271-0.026c-0.558,0-0.954,0.423-1.062,1.017
		c-0.019,0.108-0.037,0.234-0.037,0.37v2.322h-0.783V46.278z"/>
	<path class="st0" d="M54.703,47.062c0,1.611-1.117,2.313-2.17,2.313c-1.18,0-2.088-0.864-2.088-2.241
		c0-1.458,0.953-2.313,2.16-2.313C53.856,44.82,54.703,45.729,54.703,47.062z M51.246,47.106c0,0.954,0.549,1.675,1.323,1.675
		c0.757,0,1.323-0.711,1.323-1.692c0-0.738-0.369-1.675-1.305-1.675C51.65,45.414,51.246,46.278,51.246,47.106z"/>
	<path class="st0" d="M54.638,50.537c0.359-0.027,0.675-0.126,0.863-0.333c0.217-0.253,0.298-0.595,0.298-1.639v-3.646h0.792v3.952
		c0,0.847-0.135,1.396-0.521,1.792c-0.352,0.351-0.928,0.495-1.352,0.495L54.638,50.537z M56.681,43.695
		c0.01,0.26-0.18,0.485-0.494,0.485c-0.298,0-0.486-0.226-0.486-0.485c0-0.279,0.207-0.496,0.504-0.496
		C56.492,43.199,56.681,43.416,56.681,43.695z"/>
	<path class="st0" d="M58.328,47.242c0.019,1.071,0.703,1.512,1.495,1.512c0.567,0,0.909-0.099,1.206-0.225l0.135,0.567
		c-0.278,0.126-0.756,0.27-1.449,0.27c-1.341,0-2.143-0.882-2.143-2.196s0.774-2.35,2.044-2.35c1.423,0,1.8,1.251,1.8,2.053
		c0,0.162-0.018,0.288-0.026,0.369H58.328z M60.651,46.675c0.009-0.505-0.207-1.288-1.099-1.288c-0.801,0-1.152,0.738-1.215,1.288
		H60.651z"/>
	<path class="st0" d="M63.35,43.668v1.251h1.134v0.604H63.35v2.35c0,0.54,0.153,0.846,0.595,0.846c0.207,0,0.359-0.026,0.459-0.054
		l0.035,0.595c-0.152,0.062-0.396,0.107-0.701,0.107c-0.369,0-0.666-0.117-0.855-0.333c-0.225-0.234-0.307-0.621-0.307-1.134v-2.377
		h-0.675v-0.604h0.675v-1.044L63.35,43.668z"/>
	<path class="st0" d="M5.573,57.412c-0.045-0.846-0.099-1.863-0.091-2.619H5.456c-0.207,0.711-0.459,1.467-0.765,2.305l-1.072,2.943
		H3.025L2.043,57.15c-0.288-0.855-0.531-1.639-0.702-2.357H1.324c-0.019,0.756-0.063,1.773-0.117,2.682l-0.162,2.602H0.296
		L0.72,54.01h0.999l1.036,2.934c0.252,0.748,0.459,1.414,0.611,2.045h0.027c0.152-0.613,0.369-1.279,0.639-2.045l1.08-2.934h1
		l0.378,6.066H5.726L5.573,57.412z"/>
	<path class="st0" d="M8.164,58.043c0.018,1.07,0.702,1.512,1.494,1.512c0.567,0,0.909-0.1,1.207-0.225L11,59.896
		c-0.279,0.127-0.757,0.27-1.449,0.27c-1.342,0-2.143-0.881-2.143-2.195s0.773-2.35,2.043-2.35c1.422,0,1.801,1.25,1.801,2.053
		c0,0.162-0.018,0.287-0.027,0.369H8.164z M10.486,57.475c0.01-0.504-0.207-1.287-1.098-1.287c-0.802,0-1.152,0.738-1.216,1.287
		H10.486z M10.675,53.838l-1.099,1.287H9.009l0.793-1.287H10.675z"/>
	<path class="st0" d="M15.994,53.686v5.266c0,0.387,0.01,0.828,0.037,1.125h-0.712l-0.036-0.756h-0.018
		c-0.243,0.486-0.774,0.855-1.486,0.855c-1.053,0-1.863-0.891-1.863-2.215c-0.009-1.449,0.892-2.34,1.954-2.34
		c0.666,0,1.116,0.314,1.313,0.666h0.019v-2.602H15.994z M15.202,57.492c0-0.098-0.009-0.232-0.036-0.332
		c-0.117-0.504-0.549-0.918-1.143-0.918c-0.82,0-1.306,0.719-1.306,1.684c0,0.881,0.433,1.611,1.287,1.611
		c0.531,0,1.018-0.352,1.161-0.945c0.027-0.109,0.036-0.217,0.036-0.342V57.492z"/>
	<path class="st0" d="M18.189,54.494c0.01,0.271-0.188,0.486-0.504,0.486c-0.279,0-0.477-0.215-0.477-0.486
		c0-0.277,0.207-0.494,0.494-0.494C18,54,18.189,54.217,18.189,54.494z M17.307,60.076v-4.357h0.792v4.357H17.307z"/>
	<path class="st0" d="M21.826,60.076l-0.062-0.549h-0.027c-0.243,0.342-0.711,0.648-1.332,0.648c-0.883,0-1.333-0.621-1.333-1.252
		c0-1.053,0.937-1.629,2.62-1.619v-0.092c0-0.359-0.1-1.008-0.99-1.008c-0.405,0-0.828,0.127-1.135,0.324l-0.18-0.521
		c0.359-0.234,0.882-0.387,1.432-0.387c1.332,0,1.656,0.908,1.656,1.781v1.631c0,0.377,0.018,0.746,0.072,1.043H21.826z
		 M21.708,57.854c-0.864-0.018-1.846,0.135-1.846,0.98c0,0.514,0.342,0.756,0.748,0.756c0.566,0,0.927-0.359,1.053-0.729
		c0.027-0.08,0.045-0.172,0.045-0.252V57.854z"/>
	<path class="st0" d="M24.669,54.469v1.25h1.134v0.604h-1.134v2.35c0,0.541,0.152,0.846,0.594,0.846c0.207,0,0.36-0.025,0.459-0.053
		l0.036,0.594c-0.153,0.062-0.396,0.107-0.702,0.107c-0.369,0-0.666-0.117-0.855-0.332c-0.225-0.234-0.306-0.621-0.306-1.135v-2.377
		H23.22v-0.604h0.675v-1.043L24.669,54.469z"/>
	<path class="st0" d="M27.576,54.494c0.01,0.271-0.188,0.486-0.504,0.486c-0.279,0-0.477-0.215-0.477-0.486
		c0-0.277,0.207-0.494,0.494-0.494C27.387,54,27.576,54.217,27.576,54.494z M26.694,60.076v-4.357h0.792v4.357H26.694z"/>
	<path class="st0" d="M32.744,57.861c0,1.611-1.117,2.314-2.17,2.314c-1.18,0-2.089-0.865-2.089-2.242
		c0-1.457,0.954-2.312,2.161-2.312C31.896,55.621,32.744,56.529,32.744,57.861z M29.287,57.906c0,0.955,0.549,1.676,1.322,1.676
		c0.757,0,1.324-0.711,1.324-1.693c0-0.738-0.369-1.674-1.306-1.674S29.287,57.078,29.287,57.906z"/>
	<path class="st0" d="M33.741,56.898c0-0.449-0.009-0.818-0.036-1.18h0.702l0.045,0.721h0.019c0.216-0.414,0.72-0.818,1.439-0.818
		c0.604,0,1.54,0.359,1.54,1.854v2.602h-0.792v-2.512c0-0.701-0.262-1.287-1.008-1.287c-0.523,0-0.928,0.369-1.062,0.811
		c-0.037,0.1-0.055,0.234-0.055,0.369v2.619h-0.792V56.898z"/>
	<path class="st0" d="M5.573,68.211c-0.045-0.846-0.099-1.863-0.091-2.619H5.456c-0.207,0.711-0.459,1.467-0.765,2.305L3.619,70.84
		H3.025l-0.981-2.889c-0.288-0.855-0.531-1.639-0.702-2.359H1.324c-0.019,0.756-0.063,1.773-0.117,2.684l-0.162,2.602H0.296
		l0.424-6.068h0.999l1.036,2.936c0.252,0.746,0.459,1.412,0.611,2.043h0.027c0.152-0.611,0.369-1.279,0.639-2.043l1.08-2.936h1
		l0.378,6.068H5.726L5.573,68.211z"/>
	<path class="st0" d="M10.134,70.877l-0.062-0.549h-0.027c-0.242,0.342-0.711,0.646-1.332,0.646c-0.883,0-1.332-0.621-1.332-1.25
		c0-1.055,0.936-1.631,2.619-1.621v-0.09c0-0.359-0.099-1.008-0.99-1.008c-0.404,0-0.828,0.125-1.135,0.324l-0.18-0.523
		c0.36-0.234,0.883-0.387,1.432-0.387c1.332,0,1.656,0.91,1.656,1.783v1.629c0,0.379,0.019,0.748,0.072,1.045H10.134z
		 M10.018,68.652c-0.864-0.018-1.846,0.135-1.846,0.982c0,0.512,0.342,0.756,0.747,0.756c0.567,0,0.928-0.361,1.053-0.73
		c0.027-0.08,0.046-0.17,0.046-0.252V68.652z"/>
	<path class="st0" d="M12.06,67.699c0-0.451-0.009-0.82-0.036-1.18h0.702l0.045,0.721h0.018c0.217-0.414,0.721-0.82,1.441-0.82
		c0.604,0,1.539,0.359,1.539,1.855v2.602h-0.792v-2.512c0-0.703-0.261-1.287-1.009-1.287c-0.521,0-0.927,0.369-1.062,0.809
		c-0.035,0.1-0.054,0.234-0.054,0.369v2.621H12.06V67.699z"/>
	<path class="st0" d="M19.468,70.877l-0.063-0.549h-0.026c-0.244,0.342-0.712,0.646-1.333,0.646c-0.882,0-1.333-0.621-1.333-1.25
		c0-1.055,0.938-1.631,2.621-1.621v-0.09c0-0.359-0.1-1.008-0.991-1.008c-0.405,0-0.828,0.125-1.134,0.324l-0.18-0.523
		c0.359-0.234,0.882-0.387,1.431-0.387c1.333,0,1.657,0.91,1.657,1.783v1.629c0,0.379,0.018,0.748,0.071,1.045H19.468z
		 M19.351,68.652c-0.864-0.018-1.846,0.135-1.846,0.982c0,0.512,0.342,0.756,0.747,0.756c0.567,0,0.927-0.361,1.054-0.73
		c0.027-0.08,0.045-0.17,0.045-0.252V68.652z"/>
	<path class="st0" d="M25.147,66.52c-0.018,0.314-0.036,0.666-0.036,1.197v2.529c0,1-0.197,1.611-0.621,1.99
		c-0.423,0.396-1.035,0.521-1.584,0.521c-0.522,0-1.099-0.125-1.449-0.359l0.197-0.604c0.289,0.18,0.738,0.342,1.279,0.342
		c0.81,0,1.404-0.424,1.404-1.521v-0.486h-0.019c-0.243,0.406-0.711,0.73-1.386,0.73c-1.081,0-1.855-0.92-1.855-2.125
		c0-1.477,0.963-2.314,1.963-2.314c0.756,0,1.17,0.396,1.359,0.756h0.018l0.037-0.656H25.147z M24.328,68.238
		c0-0.135-0.009-0.252-0.045-0.359c-0.145-0.459-0.531-0.838-1.107-0.838c-0.756,0-1.296,0.639-1.296,1.648
		c0,0.855,0.433,1.566,1.287,1.566c0.486,0,0.927-0.307,1.099-0.811c0.045-0.135,0.062-0.289,0.062-0.424V68.238z"/>
	<path class="st0" d="M26.865,68.842c0.018,1.072,0.702,1.512,1.494,1.512c0.568,0,0.91-0.098,1.207-0.225l0.135,0.568
		c-0.279,0.125-0.756,0.27-1.449,0.27c-1.342,0-2.143-0.883-2.143-2.197s0.773-2.35,2.043-2.35c1.423,0,1.801,1.252,1.801,2.053
		c0,0.162-0.018,0.289-0.027,0.369H26.865z M29.187,68.275c0.01-0.504-0.207-1.287-1.098-1.287c-0.801,0-1.152,0.736-1.215,1.287
		H29.187z"/>
	<path class="st0" d="M30.933,67.699c0-0.451-0.01-0.82-0.037-1.18h0.693l0.037,0.701h0.026c0.243-0.414,0.647-0.801,1.368-0.801
		c0.594,0,1.045,0.359,1.233,0.873h0.019c0.135-0.242,0.306-0.432,0.486-0.566c0.261-0.199,0.549-0.307,0.963-0.307
		c0.576,0,1.432,0.379,1.432,1.891v2.566h-0.774V68.41c0-0.838-0.306-1.342-0.945-1.342c-0.45,0-0.802,0.334-0.937,0.721
		c-0.036,0.107-0.062,0.252-0.062,0.396v2.691h-0.774v-2.611c0-0.693-0.306-1.197-0.909-1.197c-0.496,0-0.855,0.396-0.981,0.793
		c-0.046,0.117-0.063,0.252-0.063,0.387v2.629h-0.773V67.699z"/>
	<path class="st0" d="M38.879,68.842c0.019,1.072,0.702,1.512,1.495,1.512c0.566,0,0.908-0.098,1.206-0.225l0.135,0.568
		c-0.278,0.125-0.757,0.27-1.449,0.27c-1.341,0-2.143-0.883-2.143-2.197s0.774-2.35,2.044-2.35c1.422,0,1.8,1.252,1.8,2.053
		c0,0.162-0.018,0.289-0.026,0.369H38.879z M41.203,68.275c0.009-0.504-0.207-1.287-1.099-1.287c-0.802,0-1.152,0.736-1.216,1.287
		H41.203z"/>
	<path class="st0" d="M42.947,67.699c0-0.451-0.009-0.82-0.035-1.18h0.701l0.046,0.721h0.018c0.216-0.414,0.72-0.82,1.44-0.82
		c0.604,0,1.539,0.359,1.539,1.855v2.602h-0.791v-2.512c0-0.703-0.262-1.287-1.009-1.287c-0.522,0-0.927,0.369-1.062,0.809
		c-0.036,0.1-0.054,0.234-0.054,0.369v2.621h-0.793V67.699z"/>
	<path class="st0" d="M48.861,65.268v1.252h1.134v0.604h-1.134v2.35c0,0.539,0.152,0.846,0.594,0.846
		c0.207,0,0.36-0.027,0.459-0.055l0.036,0.596c-0.153,0.062-0.396,0.107-0.702,0.107c-0.369,0-0.666-0.117-0.855-0.334
		c-0.225-0.234-0.306-0.621-0.306-1.133v-2.377h-0.675V66.52h0.675v-1.045L48.861,65.268z"/>
</g>
</svg>
