<?xml version="1.0" encoding="utf-8"?>
<!-- Generator: Adobe Illustrator 16.0.0, SVG Export Plug-In . SVG Version: 6.00 Build 0)  -->
<!DOCTYPE svg PUBLIC "-//W3C//DTD SVG 1.1//EN" "http://www.w3.org/Graphics/SVG/1.1/DTD/svg11.dtd">
<svg version="1.1" id="Layer_1" xmlns="http://www.w3.org/2000/svg" xmlns:xlink="http://www.w3.org/1999/xlink" x="0px" y="0px"
	 width="94.809px" height="111.381px" viewBox="0 -0.001 94.809 111.381" style="enable-background:new 0 -0.001 94.809 111.381;"
	 xml:space="preserve">
<style type="text/css">
<![CDATA[
	.st0{fill:#FFFFFF;stroke:#000000;stroke-width:0.5669;stroke-miterlimit:10;}
	.st1{fill:none;stroke:#000000;stroke-width:0.2835;stroke-miterlimit:10;}
	.st2{stroke:#000000;stroke-width:0.2835;stroke-miterlimit:10;}
	.st3{fill:none;stroke:#FFFFFF;stroke-miterlimit:10;}
	.st4{fill:#FFFFFF;stroke:#000000;stroke-width:0.2835;stroke-miterlimit:10;}
	.st5{opacity:0.2;}
	.st6{opacity:0.5;}
	.st7{stroke:#000000;stroke-width:8.5039;stroke-miterlimit:10;}
	.st8{fill:#FFFFFF;}
	.st9{fill:none;stroke:#FFFFFF;stroke-width:0.2835;stroke-miterlimit:10;}
	.st10{fill:none;}
	.st11{fill:#010101;}
]]>
</style>
<g class="st5">
	<path d="M86.607,52.244c0,0,2.949,11.211-0.395,17.508l4.918-5.213c0,0,4.129,3.05,2.951,6.394
		C94.082,70.932,97.228,60.506,86.607,52.244z"/>
	<polygon points="54.136,99.36 39.775,99.162 42.924,28.735 50.792,28.735 	"/>
	<path d="M47.543,98.057c-22.576,0-41.157-17.097-43.511-39.047c-0.166,1.551-0.254,3.125-0.254,4.719
		c0,24.172,29.672,47.854,43.858,47.65c12.862-0.185,42.932-18.873,43.67-47.65c0.043-1.594-0.086-3.168-0.254-4.719
		C88.701,80.96,70.119,98.057,47.543,98.057z"/>
	<path d="M73.32,46.045c0,0.979-2.023,1.771-4.521,1.771H25.114c-2.496,0-4.519-0.793-4.519-1.771v-2.359
		c0-0.979,2.022-1.77,4.519-1.77h43.685c2.496,0,4.521,0.791,4.521,1.77V46.045z"/>
	<path d="M8.153,50.667c0,0-2.951,11.216,0.394,17.511l-4.919-5.213c0,0-4.132,3.049-2.951,6.393
		C0.677,69.358-2.471,58.932,8.153,50.667z"/>
	<circle cx="20.153" cy="44.866" r="4.721"/>
	<circle cx="71.302" cy="44.866" r="4.721"/>
	<circle class="st7" cx="47.392" cy="18.559" r="10.046"/>
	<polygon points="47.551,14.042 48.46,9.598 48.455,14.137 50.24,9.965 49.322,14.408 51.912,10.682 50.117,14.85 53.402,11.719 
		50.806,15.442 54.656,13.037 51.363,16.16 55.619,14.58 51.761,16.977 56.25,16.283 51.992,17.858 56.525,18.082 52.037,18.764 
		56.431,19.897 51.9,19.662 55.976,21.657 51.583,20.516 55.177,23.289 51.101,21.287 54.062,24.727 50.476,21.946 52.683,25.91 
		49.732,22.465 51.093,26.791 48.896,22.823 49.359,27.335 48.005,23.006 47.551,27.52 47.096,23.006 45.742,27.335 46.206,22.823 
		44.008,26.791 45.371,22.465 42.419,25.91 44.624,21.946 41.039,24.727 43.998,21.287 39.927,23.289 43.517,20.516 39.125,21.657 
		43.202,19.662 38.671,19.897 43.063,18.764 38.577,18.08 43.11,17.858 38.852,16.283 43.338,16.977 39.484,14.58 43.738,16.16 
		40.446,13.037 44.295,15.442 41.698,11.719 44.984,14.85 43.19,10.682 45.779,14.408 44.861,9.965 46.646,14.137 46.641,9.598 	"/>
	<g>
		<path class="st2" d="M23.507,39.387l4.66,2.064l0.327-3.527C28.494,37.924,26.165,37.924,23.507,39.387z"/>
		<g>
			<g>
				<line x1="24.125" y1="38.637" x2="27.766" y2="40.326"/>
				<polygon points="24.185,38.508 27.766,40.326 24.066,38.766 				"/>
			</g>
			<g>
				<line x1="24.053" y1="38.035" x2="27.694" y2="39.725"/>
				<polygon points="24.113,37.907 27.694,39.725 23.994,38.164 				"/>
			</g>
			<g>
				<line x1="24.127" y1="37.473" x2="27.766" y2="39.162"/>
				<polygon points="24.186,37.344 27.766,39.162 24.067,37.602 				"/>
			</g>
			<g>
				<line x1="24.163" y1="36.91" x2="27.803" y2="38.598"/>
				<polygon points="24.222,36.782 27.803,38.598 24.103,37.039 				"/>
			</g>
			<g>
				<line x1="24.236" y1="36.42" x2="27.877" y2="38.11"/>
				<polygon points="24.296,36.291 27.877,38.11 24.177,36.549 				"/>
			</g>
		</g>
		<path class="st2" d="M28.125,41.33c-7.245-1.248-11.433,1.125-11.433,1.125l5.086-5.146l-3.614-2.652
			c0,0,3.913-2.217,10.719-1.238L28.125,41.33z"/>
		<g>
			<g>
				<path d="M28.175,40.973c0,0-0.535-0.122-1.36-0.226c-0.413-0.044-0.895-0.099-1.414-0.125c-0.519-0.017-1.074-0.057-1.628-0.03
					c-0.556,0.005-1.111,0.02-1.629,0.079c-0.519,0.049-1.006,0.074-1.415,0.156c-0.824,0.136-1.373,0.226-1.373,0.226
					s0.546-0.107,1.366-0.269c0.408-0.097,0.895-0.138,1.414-0.203c0.518-0.076,1.075-0.108,1.633-0.131
					c0.558-0.044,1.117-0.022,1.641-0.021c0.524,0.01,1.012,0.049,1.431,0.08c0.835,0.078,1.392,0.187,1.392,0.187L28.175,40.973z"
					/>
			</g>
			<g>
				<path d="M28.281,40.013c0,0-0.518-0.131-1.321-0.244c-0.402-0.045-0.872-0.11-1.377-0.135c-0.506-0.023-1.047-0.062-1.589-0.039
					c-0.542-0.001-1.083,0.018-1.589,0.074c-0.506,0.044-0.981,0.073-1.381,0.153c-0.804,0.131-1.34,0.219-1.34,0.219
					s0.533-0.104,1.333-0.263c0.398-0.094,0.873-0.138,1.379-0.198c0.506-0.073,1.049-0.11,1.594-0.127
					c0.544-0.04,1.09-0.021,1.602-0.013c0.512,0.008,0.988,0.059,1.397,0.091c0.815,0.088,1.356,0.206,1.356,0.206L28.281,40.013z"
					/>
			</g>
			<g>
				<path d="M28.341,38.803c0,0-0.505-0.106-1.286-0.19c-0.78-0.065-1.828-0.134-2.875-0.076c-0.525,0.008-1.048,0.047-1.537,0.105
					c-0.49,0.047-0.948,0.09-1.334,0.167c-0.778,0.132-1.296,0.219-1.296,0.219s0.516-0.104,1.289-0.263
					c0.385-0.09,0.842-0.148,1.332-0.212c0.489-0.076,1.013-0.132,1.54-0.158c1.052-0.093,2.11-0.061,2.903-0.021
					c0.791,0.058,1.32,0.151,1.32,0.151L28.341,38.803z"/>
			</g>
			<g>
				<path d="M28.525,37.652c0,0-0.43-0.021-1.076-0.051c-0.323-0.026-0.699-0.027-1.1,0.006c-0.402,0.021-0.831,0.043-1.26,0.064
					c-1.72,0.089-3.44,0.177-3.44,0.177s1.72-0.159,3.439-0.318c0.431-0.039,0.862-0.079,1.267-0.116
					c0.405-0.05,0.783-0.064,1.106-0.051c0.647,0.004,1.079,0.006,1.079,0.006L28.525,37.652z"/>
			</g>
			<g>
				<path d="M29.491,36.921c0,0-0.511-0.116-1.279-0.178c-0.385-0.026-0.83-0.116-1.316-0.107c-0.485-0.006-1.003-0.011-1.521-0.017
					c-0.259-0.003-0.519-0.005-0.774-0.008c-0.253,0.025-0.503,0.051-0.745,0.075c-0.484,0.048-0.936,0.093-1.323,0.132
					c-0.775,0.078-1.292,0.13-1.292,0.13s0.515-0.069,1.287-0.173c0.387-0.052,0.838-0.113,1.321-0.178
					c0.242-0.032,0.492-0.066,0.746-0.101c0.256-0.006,0.516-0.013,0.776-0.019c0.521-0.012,1.042-0.024,1.531-0.035
					c0.489-0.026,0.946,0.049,1.338,0.063c0.79,0.038,1.298,0.136,1.298,0.136L29.491,36.921z"/>
			</g>
			<g>
				<path d="M29.813,35.907c0,0-0.535-0.122-1.36-0.226c-0.413-0.044-0.895-0.099-1.414-0.125c-0.519-0.017-1.074-0.057-1.628-0.03
					c-0.556,0.005-1.111,0.02-1.629,0.079c-0.519,0.049-1.006,0.074-1.415,0.156c-0.824,0.136-1.373,0.226-1.373,0.226
					s0.546-0.107,1.366-0.269c0.408-0.097,0.895-0.138,1.414-0.203c0.518-0.076,1.075-0.108,1.633-0.131
					c0.558-0.044,1.117-0.022,1.641-0.021c0.524,0.01,1.012,0.049,1.431,0.08c0.835,0.078,1.392,0.187,1.392,0.187L29.813,35.907z"
					/>
			</g>
			<g>
				<path d="M30.141,34.893c0,0-0.535-0.122-1.36-0.226c-0.412-0.043-0.895-0.098-1.414-0.124c-0.519-0.017-1.074-0.056-1.628-0.03
					c-0.556,0.006-1.111,0.021-1.629,0.08c-0.519,0.048-1.006,0.074-1.416,0.156c-0.824,0.136-1.373,0.226-1.373,0.226
					s0.546-0.107,1.366-0.269c0.408-0.097,0.895-0.138,1.414-0.203c0.519-0.076,1.075-0.108,1.633-0.132
					c0.558-0.044,1.117-0.022,1.641-0.021c0.524,0.01,1.013,0.049,1.431,0.08c0.836,0.077,1.392,0.186,1.392,0.186L30.141,34.893z"
					/>
			</g>
			<g>
				<path d="M30.47,33.879c0,0-0.535-0.122-1.36-0.226c-0.412-0.044-0.895-0.099-1.414-0.124c-0.52-0.018-1.074-0.057-1.629-0.031
					c-0.555,0.006-1.111,0.021-1.629,0.08c-0.519,0.049-1.006,0.074-1.415,0.157c-0.824,0.136-1.374,0.226-1.374,0.226
					s0.546-0.107,1.366-0.27c0.408-0.097,0.895-0.138,1.414-0.203c0.519-0.076,1.076-0.108,1.634-0.132
					c0.558-0.044,1.117-0.021,1.641-0.021c0.524,0.01,1.013,0.049,1.432,0.08c0.836,0.078,1.392,0.187,1.392,0.187L30.47,33.879z"/>
			</g>
		</g>
		<path class="st2" d="M62.683,94.852c8.412,1.479,13.414-1.383,13.414-1.383l-5.082-3.562l6.699-5.01c0,0-5,2.858-13.406,1.385
			L62.683,94.852z"/>
		<g>
			<polygon class="st2" points="17.22,54.244 14.911,51.866 17.22,49.487 19.528,51.866 			"/>
			<polygon points="15.576,51.866 17.22,50.17 18.864,51.866 17.22,53.559 			"/>
		</g>
		<path class="st2" d="M12.6,48.057c0,0,13.631-7.725,35.188,7.055c21.56,14.777,35.774,6.648,35.774,6.648l-1.996,10.58
			c0,0-14.215,8.129-35.774-6.65c-21.558-14.777-35.189-7.055-35.189-7.055L12.6,48.057z"/>
		<path d="M72.847,65.102c-8.248,0-16.877-3.051-25.653-9.066c-8.481-5.812-17.014-8.885-24.675-8.885
			c-4.745,0-7.872,1.178-8.967,1.668l-1.511,8.01c1.747-0.607,4.624-1.32,8.481-1.32c8.203,0,16.906,3.115,25.867,9.258
			c8.416,5.771,16.644,8.693,24.46,8.693h0.002c5.168,0,8.604-1.346,9.76-1.877l1.508-7.99
			C80.246,64.27,77.087,65.102,72.847,65.102z M80.042,71.11c-1.393,0.596-4.568,1.686-9.191,1.686h-0.002
			c-7.688,0-15.795-2.889-24.104-8.582c-9.067-6.219-17.892-9.369-26.223-9.369c-3.26,0-5.84,0.502-7.642,1.023l1.24-6.572
			c1.286-0.533,4.176-1.482,8.399-1.482c7.532,0,15.942,3.035,24.316,8.776c8.882,6.088,17.632,9.174,26.011,9.174
			c3.607,0,6.455-0.59,8.432-1.192L80.042,71.11z"/>
		<g>
			<polygon class="st2" points="76.156,71.248 73.845,68.869 76.156,66.489 78.462,68.869 			"/>
			<polygon points="74.509,68.869 76.156,67.174 77.794,68.869 76.156,70.565 			"/>
		</g>
		<g>
			<polygon class="st2" points="17.487,53.971 15.177,51.592 17.487,49.21 19.794,51.592 			"/>
			<polygon points="15.842,51.592 17.487,49.897 19.129,51.592 17.487,53.285 			"/>
		</g>
		<path class="st2" d="M25.007,31.393c0,0,10.121-5.736,26.127,5.236c16.006,10.975,26.562,4.938,26.562,4.938l-1.482,7.855
			c0,0-10.555,6.035-26.561-4.938c-16.008-10.973-26.127-5.238-26.127-5.238L25.007,31.393z"/>
		<path d="M69.74,44.551c-6.223,0-12.721-2.291-19.318-6.812c-6.217-4.262-12.458-6.516-18.05-6.516
			c-3.146,0-5.32,0.727-6.227,1.098l-0.917,4.854c1.367-0.395,3.269-0.754,5.661-0.754c6.189,0,12.742,2.342,19.478,6.957
			c6.168,4.229,12.186,6.371,17.891,6.371c3.451,0,5.844-0.834,6.816-1.248l0.91-4.828C74.49,44.129,72.39,44.551,69.74,44.551z
			 M74.509,48.016c-1.037,0.398-3.225,1.068-6.252,1.068c-5.576,0-11.473-2.105-17.535-6.26c-6.842-4.691-13.516-7.068-19.833-7.068
			c-1.701,0-3.322,0.174-4.834,0.52l0.654-3.465c0.955-0.352,2.93-0.924,5.662-0.924c5.464,0,11.582,2.215,17.691,6.404
			c6.707,4.596,13.324,6.926,19.676,6.926c1.908,0,3.729-0.211,5.416-0.629L74.509,48.016z"/>
		<g>
			<polygon class="st2" points="28.395,35.184 27.284,34.039 28.395,32.895 29.507,34.039 			"/>
			<polygon points="27.604,34.039 28.395,33.225 29.186,34.039 28.395,34.856 			"/>
		</g>
		<g>
			<polygon class="st2" points="72.232,48.006 71.117,46.86 72.232,45.715 73.339,46.86 			"/>
			<polygon points="71.437,46.86 72.232,46.045 73.019,46.86 72.232,47.676 			"/>
		</g>
		<g>
			<g>
				<path d="M63.289,94.352c0,0,0.678,0.123,1.711,0.201c0.516,0.059,1.121,0.062,1.768,0.094c0.324,0.019,0.658-0.006,0.998-0.008
					c0.342-0.012,0.688-0.004,1.031-0.03c0.688-0.08,1.381-0.103,2.02-0.228c0.316-0.062,0.625-0.123,0.916-0.181
					c0.289-0.067,0.574-0.088,0.816-0.187c0.986-0.328,1.645-0.549,1.645-0.549s-0.652,0.236-1.633,0.592
					c-0.24,0.104-0.523,0.132-0.812,0.207c-0.291,0.065-0.6,0.135-0.918,0.205c-0.635,0.143-1.332,0.182-2.021,0.279
					c-0.346,0.035-0.693,0.037-1.037,0.057c-0.342,0.012-0.678,0.043-1.004,0.035c-0.65-0.016-1.262-0.005-1.783-0.051
					c-1.043-0.051-1.734-0.158-1.734-0.158L63.289,94.352z"/>
			</g>
			<g>
				<path d="M63.445,92.461c0,0,0.588,0.127,1.488,0.225c0.449,0.062,0.98,0.084,1.543,0.134c0.566,0.003,1.174,0.048,1.777,0.021
					c0.605-0.039,1.213-0.021,1.773-0.115c0.562-0.082,1.096-0.105,1.537-0.219c0.889-0.199,1.48-0.332,1.48-0.332
					s-0.59,0.15-1.473,0.377c-0.439,0.125-0.973,0.164-1.535,0.264c-0.562,0.109-1.172,0.111-1.779,0.167
					c-0.605,0.046-1.217,0.02-1.789,0.032c-0.568-0.033-1.104-0.039-1.559-0.09c-0.914-0.072-1.52-0.183-1.52-0.183L63.445,92.461z"
					/>
			</g>
			<g>
				<path d="M63.607,90.573c0,0,0.5,0.152,1.283,0.29c0.391,0.062,0.85,0.133,1.344,0.177c0.494,0.029,1.023,0.09,1.555,0.07
					c0.531,0.004,1.062,0.001,1.557-0.061c0.496-0.048,0.963-0.065,1.354-0.156c0.785-0.144,1.309-0.238,1.309-0.238
					s-0.52,0.113-1.301,0.281c-0.389,0.104-0.855,0.139-1.352,0.203c-0.496,0.076-1.029,0.099-1.564,0.111
					c-0.533,0.037-1.068-0.006-1.57-0.019c-0.5-0.028-0.967-0.084-1.367-0.134c-0.795-0.112-1.32-0.254-1.32-0.254L63.607,90.573z"
					/>
			</g>
			<g>
				<path d="M63.75,88.678c0,0,0.502,0.123,1.277,0.238c0.387,0.053,0.84,0.113,1.326,0.155c0.488,0.03,1.01,0.087,1.531,0.083
					c0.523,0.013,1.047,0.021,1.535-0.012c0.49-0.025,0.949-0.027,1.338-0.086c0.781-0.09,1.303-0.149,1.303-0.149
					s-0.52,0.077-1.297,0.192c-0.389,0.072-0.848,0.091-1.338,0.133c-0.49,0.051-1.016,0.059-1.543,0.062
					c-0.523,0.021-1.051-0.017-1.543-0.031c-0.494-0.024-0.953-0.07-1.346-0.11c-0.785-0.091-1.307-0.199-1.307-0.199L63.75,88.678z
					"/>
			</g>
			<g>
				<path d="M63.904,86.788c0,0,0.648,0.186,1.652,0.346c0.498,0.104,1.09,0.152,1.721,0.234c0.314,0.041,0.645,0.041,0.979,0.064
					c0.332,0.012,0.672,0.049,1.01,0.041c0.676-0.037,1.359-0.004,1.988-0.1c0.314-0.045,0.619-0.088,0.908-0.128
					c0.287-0.051,0.566-0.055,0.809-0.144c0.98-0.281,1.635-0.469,1.635-0.469s-0.648,0.205-1.623,0.512
					c-0.24,0.095-0.521,0.105-0.809,0.164c-0.289,0.05-0.594,0.101-0.91,0.152c-0.631,0.111-1.316,0.096-1.998,0.152
					c-0.34,0.018-0.682-0.012-1.018-0.016c-0.336-0.016-0.668-0.006-0.986-0.039c-0.637-0.066-1.234-0.103-1.74-0.191
					c-1.018-0.135-1.686-0.307-1.686-0.307L63.904,86.788z"/>
			</g>
		</g>
		<path class="st2" d="M62.683,94.852l4.947-4.06c0,0-2.014,1.156-4.363,1.438L62.683,94.852z"/>
		<g>
			<g>
				<line x1="66.646" y1="91.178" x2="63.466" y2="93.667"/>
				<polygon points="66.736,91.289 63.466,93.667 66.558,91.067 				"/>
			</g>
			<g>
				<line x1="66.587" y1="90.574" x2="63.408" y2="93.067"/>
				<polygon points="66.675,90.686 63.408,93.067 66.5,90.463 				"/>
			</g>
			<g>
				<line x1="66.392" y1="90.045" x2="63.212" y2="92.533"/>
				<polygon points="66.48,90.157 63.212,92.533 66.306,89.934 				"/>
			</g>
			<g>
				<line x1="66.236" y1="89.504" x2="63.054" y2="91.994"/>
				<polygon points="66.324,89.616 63.054,91.994 66.146,89.393 				"/>
			</g>
			<g>
				<line x1="66.056" y1="89.045" x2="62.876" y2="91.535"/>
				<polygon points="66.144,89.157 62.876,91.535 65.968,88.934 				"/>
			</g>
		</g>
		<path class="st2" d="M16.426,72.764c0,0,10.121-5.734,26.127,5.237c16.005,10.974,26.562,4.937,26.562,4.937l-1.484,7.854
			c0,0-10.551,6.035-26.56-4.938c-16.006-10.974-26.127-5.238-26.127-5.238L16.426,72.764z"/>
		<path d="M61.158,85.705c-6.18,0-12.639-2.278-19.201-6.778c-6.252-4.285-12.533-6.552-18.166-6.552
			c-3.3,0-5.526,0.779-6.414,1.158l-1.004,5.324c1.342-0.418,3.349-0.849,5.936-0.849c6.146,0,12.659,2.33,19.358,6.922
			c6.203,4.25,12.263,6.406,18.011,6.406c3.609,0,6.059-0.895,7-1.309l1.004-5.307C66.234,85.198,64.021,85.705,61.158,85.705z
			 M66.115,89.549c-1.047,0.418-3.283,1.125-6.438,1.125c-5.619,0-11.557-2.117-17.653-6.295
			c-6.807-4.669-13.439-7.035-19.715-7.035c-2.107,0-3.837,0.282-5.106,0.596l0.74-3.922c0.966-0.369,2.99-0.979,5.849-0.979
			c5.505,0,11.664,2.228,17.809,6.438c6.668,4.572,13.25,6.892,19.559,6.892c2.355,0,4.287-0.34,5.688-0.711L66.115,89.549z"/>
		<g>
			<polygon class="st2" points="20.014,76.596 18.903,75.451 20.014,74.305 21.125,75.451 			"/>
			<polygon points="19.223,75.451 20.014,74.635 20.805,75.451 20.014,76.266 			"/>
		</g>
		<g>
			<polygon class="st2" points="63.847,89.416 62.738,88.272 63.847,87.126 64.958,88.272 			"/>
			<polygon points="63.056,88.272 63.847,87.455 64.638,88.272 63.847,89.085 			"/>
		</g>
	</g>
</g>
<g>
	<g>
		<g class="st6">
			<path class="st11" d="M84.261,59.148c0,0-18.837,13.013-67.136,11.004l-0.869,5.109c0,0,48.499,6.901,66.009-5.533L84.261,59.148
				z"/>
			<path class="st11" d="M13.299,45.445c43.448,9.412,65.095-6.49,65.095-6.49l-1.401,7.785c0,0-19.494,14.748-62.943,5.338"/>
			<path class="st11" d="M63.381,92.24c8.412,1.479,13.414-1.383,13.414-1.383l-5.08-3.56l6.697-5.01c0,0-5,2.857-13.406,1.383
				L63.381,92.24z"/>
			<path class="st11" d="M68.116,91.555c-1.13,0-2.289-0.08-3.46-0.238l1.21-6.387c1.309,0.184,2.604,0.275,3.868,0.275
				c1.177,0,2.252-0.08,3.22-0.205l-1.871,1.397l0.028,1.815l3.404,2.386c-1.394,0.453-3.572,0.955-6.397,0.955L68.116,91.555
				L68.116,91.555z"/>
			<path class="st11" d="M68.116,90.891c-0.882,0-1.785-0.051-2.693-0.148l0.963-5.076c1.131,0.136,2.256,0.203,3.35,0.203
				c0.328,0,0.658-0.008,0.984-0.018l-0.014,0.01l-0.267,0.549l0.026,1.816l0.281,0.541l2.246,1.57
				C71.739,90.637,70.092,90.891,68.116,90.891L68.116,90.891z"/>
			<path class="st11" d="M28.771,38.83c-7.244-1.25-11.432,1.125-11.432,1.125l5.086-5.148l-3.614-2.652
				c0,0,3.913-2.217,10.719-1.236L28.771,38.83z"/>
			<path class="st11" d="M23.18,35.598l-0.131-1.695l-1.967-1.443c1.158-0.34,2.865-0.682,5.043-0.682
				c0.729,0,1.476,0.037,2.229,0.113l-0.543,5.674c-1.07-0.139-2.127-0.209-3.158-0.209c-1.315,0-2.48,0.115-3.484,0.277
				L23.18,35.598z"/>
			<path class="st11" d="M27.234,36.828c-0.875-0.09-1.739-0.135-2.582-0.135c-0.57,0-1.137,0.02-1.694,0.061l0.673-0.682
				l0.191-0.525l-0.131-1.699l-0.269-0.488l-0.806-0.592c0.939-0.182,2.123-0.326,3.508-0.326c0.5,0,1.01,0.02,1.523,0.057
				L27.234,36.828z"/>
			<g>
				<polygon class="st11" points="17.919,51.635 15.611,49.256 17.919,46.875 20.228,49.256 				"/>
				<polygon class="st11" points="16.275,49.256 17.919,47.561 19.562,49.256 17.919,50.949 				"/>
			</g>
			<g>
				<polygon class="st11" points="55.297,69.542 61.204,60.49 60.355,59.947 				"/>
				<polygon class="st11" points="56.163,70.021 62.068,60.971 61.22,60.428 				"/>
				<polygon class="st11" points="57.027,70.5 62.933,61.449 62.083,60.909 				"/>
				<polygon class="st11" points="57.892,70.98 63.797,61.93 62.95,61.387 				"/>
				<polygon class="st11" points="58.754,71.463 64.663,62.411 63.814,61.868 				"/>
				<polygon class="st11" points="59.622,71.941 65.527,62.889 64.679,62.348 				"/>
				<polygon class="st11" points="60.488,72.42 66.392,63.37 65.543,62.829 				"/>
				<polygon class="st11" points="61.351,72.902 67.256,63.848 66.411,63.307 				"/>
				<polygon class="st11" points="62.284,73.107 68.189,64.055 67.34,63.514 				"/>
				<polygon class="st11" points="63.213,73.312 69.122,64.26 68.271,63.719 				"/>
				<polygon class="st11" points="64.146,73.518 70.049,64.465 69.204,63.924 				"/>
				<polygon class="st11" points="65.077,73.725 70.982,64.672 70.133,64.129 				"/>
				<polygon class="st11" points="66.006,73.93 71.915,64.877 71.064,64.336 				"/>
				<polygon class="st11" points="66.939,74.137 72.845,65.083 71.999,64.543 				"/>
				<polygon class="st11" points="68.07,74 73.974,64.945 73.127,64.404 				"/>
				<polygon class="st11" points="69.202,73.861 75.107,64.809 74.256,64.268 				"/>
				<polygon class="st11" points="70.265,73.792 76.17,64.74 75.325,64.199 				"/>
				<polygon class="st11" points="71.461,73.518 77.368,64.465 76.521,63.924 				"/>
				<polygon class="st11" points="72.726,73.038 78.629,63.986 77.786,63.445 				"/>
				<polygon class="st11" points="74.124,72.627 80.031,63.574 79.181,63.034 				"/>
				<polygon class="st11" points="75.386,72.284 81.292,63.232 80.445,62.689 				"/>
				<polygon class="st11" points="76.65,71.803 82.558,62.752 81.708,62.211 				"/>
				<polygon class="st11" points="78.045,71.324 82.872,64.077 82.021,63.534 				"/>
				<polygon class="st11" points="79.247,70.844 83.295,64.879 82.45,64.338 				"/>
			</g>
			<g>
				<polygon class="st11" points="58.318,47.342 62.374,41.129 61.792,40.756 				"/>
				<polygon class="st11" points="58.913,47.672 62.965,41.459 62.381,41.088 				"/>
				<polygon class="st11" points="59.504,48 63.56,41.787 62.976,41.414 				"/>
				<polygon class="st11" points="60.099,48.33 64.152,42.117 63.57,41.744 				"/>
				<polygon class="st11" points="60.691,48.658 64.749,42.445 64.165,42.074 				"/>
				<polygon class="st11" points="61.286,48.988 65.338,42.775 64.756,42.404 				"/>
				<polygon class="st11" points="61.879,49.318 65.933,43.105 65.351,42.732 				"/>
				<polygon class="st11" points="62.472,49.646 66.527,43.436 65.945,43.062 				"/>
				<polygon class="st11" points="63.113,49.787 67.167,43.574 66.583,43.203 				"/>
				<polygon class="st11" points="63.752,49.93 67.806,43.717 67.222,43.344 				"/>
				<polygon class="st11" points="64.39,50.07 68.445,43.857 67.861,43.484 				"/>
				<polygon class="st11" points="65.029,50.213 69.083,43.998 68.5,43.627 				"/>
				<polygon class="st11" points="65.668,50.352 69.722,44.141 69.142,43.768 				"/>
				<polygon class="st11" points="66.31,50.494 70.361,44.281 69.781,43.908 				"/>
				<polygon class="st11" points="67.083,50.4 71.138,44.188 70.556,43.814 				"/>
				<polygon class="st11" points="67.861,50.305 71.917,44.092 71.333,43.721 				"/>
				<polygon class="st11" points="68.59,50.258 72.644,44.045 72.064,43.674 				"/>
				<polygon class="st11" points="69.415,50.07 73.465,43.857 72.886,43.484 				"/>
				<polygon class="st11" points="70.281,49.74 74.333,43.527 73.75,43.156 				"/>
				<polygon class="st11" points="71.241,49.459 75.292,43.244 74.709,42.875 				"/>
				<polygon class="st11" points="72.105,49.223 76.161,43.01 75.579,42.639 				"/>
				<polygon class="st11" points="72.974,48.895 77.029,42.682 76.447,42.311 				"/>
				<polygon class="st11" points="73.933,48.564 77.245,43.59 76.663,43.217 				"/>
				<polygon class="st11" points="74.754,48.234 77.536,44.141 76.956,43.77 				"/>
			</g>
			<path class="st11" d="M25.706,28.783c0,0,10.12-5.736,26.128,5.236c16.006,10.973,26.56,4.936,26.56,4.936l-1.481,7.857
				c0,0-10.554,6.035-26.56-4.939c-16.008-10.971-26.128-5.236-26.128-5.236L25.706,28.783z"/>
			<path class="st11" d="M70.439,41.941c-6.224,0-12.722-2.293-19.319-6.814c-6.216-4.262-12.456-6.516-18.048-6.516
				c-3.147,0-5.32,0.729-6.229,1.1l-0.915,4.854c1.367-0.395,3.267-0.754,5.66-0.754c6.188,0,12.741,2.34,19.477,6.957
				c6.169,4.227,12.188,6.371,17.891,6.371c3.451,0,5.844-0.834,6.816-1.248l0.912-4.83C75.189,41.52,73.09,41.941,70.439,41.941z
				 M75.208,45.404c-1.035,0.4-3.223,1.07-6.252,1.07c-5.574,0-11.472-2.105-17.533-6.26c-6.844-4.691-13.518-7.07-19.834-7.07
				c-1.702,0-3.323,0.176-4.835,0.521l0.654-3.465c0.956-0.35,2.932-0.924,5.664-0.924c5.463,0,11.581,2.215,17.689,6.402
				c6.705,4.598,13.326,6.926,19.677,6.926c1.91,0,3.728-0.211,5.416-0.629L75.208,45.404z"/>
			<g>
				<polygon class="st11" points="29.095,32.576 27.982,31.43 29.095,30.285 30.205,31.43 				"/>
				<polygon class="st11" points="28.303,31.43 29.095,30.613 29.886,31.43 29.095,32.244 				"/>
			</g>
			<g>
				<polygon class="st11" points="72.927,45.396 71.818,44.25 72.927,43.105 74.042,44.25 				"/>
				<polygon class="st11" points="72.136,44.25 72.927,43.436 73.72,44.25 72.927,45.064 				"/>
			</g>
			<g>
				<polygon class="st11" points="22.476,70.098 22.476,71.471 40.303,70.809 				"/>
				<polygon class="st11" points="22.74,70.852 22.74,72.223 40.567,71.562 				"/>
				<polygon class="st11" points="23.64,71.605 23.64,72.979 41.466,72.316 				"/>
				<polygon class="st11" points="24.438,72.293 24.438,73.663 42.264,73.002 				"/>
				<polygon class="st11" points="25.234,72.979 25.234,74.348 43.062,73.688 				"/>
				<polygon class="st11" points="26.034,73.663 26.034,75.036 43.86,74.375 				"/>
				<polygon class="st11" points="26.832,74.348 26.832,75.721 44.659,75.059 				"/>
				<polygon class="st11" points="27.896,75.309 27.896,76.68 45.724,76.02 				"/>
			</g>
			<g>
				<polygon class="st11" points="29.189,49.023 29.221,50.225 47.026,49.16 				"/>
				<polygon class="st11" points="29.473,49.676 29.504,50.875 47.31,49.812 				"/>
				<polygon class="st11" points="30.388,50.312 30.418,51.51 48.224,50.449 				"/>
				<polygon class="st11" points="31.202,50.889 31.232,52.09 49.038,51.027 				"/>
				<polygon class="st11" points="32.015,51.467 32.046,52.668 49.851,51.604 				"/>
				<polygon class="st11" points="32.828,52.045 32.858,53.244 50.665,52.182 				"/>
				<polygon class="st11" points="33.641,52.623 33.672,53.822 51.477,52.76 				"/>
				<polygon class="st11" points="34.728,53.434 34.756,54.633 52.562,53.57 				"/>
			</g>
			<path class="st11" d="M17.125,70.152c0,0,10.121-5.733,26.129,5.238c16.004,10.973,26.56,4.938,26.56,4.938l-1.481,7.854
				c0,0-10.554,6.037-26.562-4.936c-16.007-10.976-26.127-5.238-26.127-5.238L17.125,70.152z"/>
			<path class="st11" d="M61.857,83.096c-6.177,0-12.64-2.281-19.201-6.781c-6.251-4.283-12.532-6.551-18.166-6.551
				c-3.3,0-5.525,0.779-6.413,1.16l-1.005,5.324c1.341-0.42,3.348-0.851,5.935-0.851c6.146,0,12.66,2.33,19.36,6.922
				c6.201,4.252,12.262,6.408,18.008,6.408c3.608,0,6.061-0.896,7.002-1.312l1.002-5.305C66.933,82.588,64.72,83.096,61.857,83.096z
				 M66.814,86.938c-1.049,0.418-3.285,1.125-6.438,1.125c-5.619,0-11.558-2.117-17.652-6.295
				c-6.808-4.666-13.44-7.033-19.716-7.033c-2.106,0-3.835,0.283-5.105,0.594l0.739-3.92c0.966-0.369,2.988-0.979,5.849-0.979
				c5.507,0,11.664,2.227,17.81,6.438c6.669,4.574,13.251,6.892,19.557,6.892c2.356,0,4.289-0.341,5.688-0.709L66.814,86.938z"/>
			<g>
				<polygon class="st11" points="20.713,73.986 19.602,72.842 20.713,71.695 21.823,72.842 				"/>
				<polygon class="st11" points="19.921,72.842 20.713,72.025 21.504,72.842 20.713,73.656 				"/>
			</g>
			<g>
				<polygon class="st11" points="64.547,86.807 63.437,85.663 64.547,84.516 65.661,85.663 				"/>
				<polygon class="st11" points="63.756,85.663 64.547,84.846 65.338,85.663 64.547,86.477 				"/>
			</g>
			<path class="st11" d="M13.299,45.445c0,0,13.631-7.723,35.19,7.055c21.557,14.779,35.772,6.648,35.772,6.648l-1.996,10.58
				c0,0-14.216,8.129-35.773-6.647c-21.558-14.779-35.189-7.056-35.189-7.056L13.299,45.445z"/>
			<path class="st11" d="M73.545,62.49c-8.248,0-16.875-3.051-25.654-9.066c-8.48-5.812-17.013-8.885-24.673-8.885
				c-4.745,0-7.871,1.18-8.967,1.67l-1.511,8.01c1.746-0.607,4.623-1.322,8.481-1.322c8.201,0,16.904,3.115,25.866,9.26
				c8.416,5.768,16.645,8.691,24.458,8.691h0.002c5.166,0,8.604-1.346,9.763-1.877l1.508-7.99
				C80.947,61.659,77.79,62.49,73.545,62.49z M80.745,68.5c-1.394,0.598-4.568,1.686-9.193,1.686h-0.002
				c-7.687,0-15.795-2.889-24.103-8.584c-9.069-6.217-17.892-9.367-26.224-9.367c-3.261,0-5.84,0.5-7.644,1.021l1.24-6.57
				c1.287-0.533,4.176-1.482,8.399-1.482c7.533,0,15.942,3.035,24.317,8.773c8.881,6.09,17.633,9.18,26.01,9.18
				c3.606,0,6.457-0.59,8.432-1.195L80.745,68.5z"/>
			<g>
				<polygon class="st11" points="76.855,68.639 74.542,66.258 76.855,63.879 79.163,66.258 				"/>
				<polygon class="st11" points="75.209,66.258 76.855,64.562 78.497,66.258 76.855,67.954 				"/>
			</g>
			<g>
				<polygon class="st11" points="18.186,51.361 15.876,48.98 18.186,46.602 20.494,48.98 				"/>
				<polygon class="st11" points="16.541,48.98 18.186,47.287 19.829,48.98 18.186,50.674 				"/>
			</g>
		</g>
		<g>
			<path class="st0" d="M83.322,57.499c0,0-18.834,13.01-67.137,11.004l-0.87,5.108c0,0,48.499,6.902,66.012-5.532L83.322,57.499z"
				/>
			<path class="st0" d="M12.359,43.795c43.447,9.412,65.095-6.49,65.095-6.49l-1.401,7.785c0,0-19.494,14.747-62.942,5.336"/>
			<g>
				<polygon class="st11" points="54.357,67.891 60.261,58.838 59.417,58.297 				"/>
				<polygon class="st11" points="55.223,68.372 61.127,59.318 60.281,58.777 				"/>
				<polygon class="st11" points="56.088,68.85 61.995,59.797 61.146,59.256 				"/>
				<polygon class="st11" points="56.952,69.331 62.857,60.279 62.008,59.736 				"/>
				<polygon class="st11" points="57.816,69.809 63.724,60.758 62.875,60.217 				"/>
				<polygon class="st11" points="58.681,70.29 64.586,61.236 63.741,60.695 				"/>
				<polygon class="st11" points="59.545,70.77 65.454,61.719 64.603,61.176 				"/>
				<polygon class="st11" points="60.411,71.25 66.318,62.197 65.467,61.656 				"/>
				<polygon class="st11" points="61.34,71.456 67.249,62.402 66.4,61.861 				"/>
				<polygon class="st11" points="62.275,71.663 68.179,62.607 67.333,62.066 				"/>
				<polygon class="st11" points="63.206,71.868 69.111,62.814 68.263,62.271 				"/>
				<polygon class="st11" points="64.136,72.072 70.042,63.02 69.193,62.479 				"/>
				<polygon class="st11" points="65.066,72.277 70.974,63.227 70.125,62.686 				"/>
				<polygon class="st11" points="66,72.484 71.904,63.432 71.056,62.889 				"/>
				<polygon class="st11" points="67.127,72.346 73.038,63.295 72.187,62.754 				"/>
				<polygon class="st11" points="68.261,72.209 74.167,63.159 73.318,62.615 				"/>
				<polygon class="st11" points="69.325,72.141 75.23,63.088 74.381,62.547 				"/>
				<polygon class="st11" points="70.521,71.868 76.429,62.814 75.581,62.271 				"/>
				<polygon class="st11" points="71.786,71.387 77.693,62.334 76.842,61.793 				"/>
				<polygon class="st11" points="73.181,70.975 79.088,61.924 78.241,61.381 				"/>
				<polygon class="st11" points="74.445,70.631 80.353,61.581 79.502,61.04 				"/>
				<polygon class="st11" points="75.708,70.152 81.618,61.1 80.767,60.559 				"/>
				<polygon class="st11" points="77.107,69.674 81.931,62.424 81.083,61.883 				"/>
				<polygon class="st11" points="78.304,69.191 82.357,63.229 81.506,62.686 				"/>
			</g>
			<g>
				<polygon class="st11" points="57.377,45.689 61.431,39.477 60.849,39.105 				"/>
				<polygon class="st11" points="57.97,46.018 62.025,39.807 61.443,39.434 				"/>
				<polygon class="st11" points="58.564,46.35 62.62,40.135 62.038,39.764 				"/>
				<polygon class="st11" points="59.161,46.678 63.211,40.465 62.629,40.094 				"/>
				<polygon class="st11" points="59.75,47.008 63.806,40.793 63.224,40.422 				"/>
				<polygon class="st11" points="60.345,47.336 64.4,41.123 63.818,40.752 				"/>
				<polygon class="st11" points="60.939,47.668 64.993,41.453 64.413,41.082 				"/>
				<polygon class="st11" points="61.534,47.994 65.584,41.783 65.004,41.41 				"/>
				<polygon class="st11" points="62.17,48.137 66.224,41.922 65.642,41.553 				"/>
				<polygon class="st11" points="62.812,48.277 66.866,42.064 66.284,41.693 				"/>
				<polygon class="st11" points="63.452,48.42 67.504,42.205 66.92,41.836 				"/>
				<polygon class="st11" points="64.088,48.559 68.144,42.348 67.56,41.975 				"/>
				<polygon class="st11" points="64.728,48.701 68.781,42.488 68.202,42.117 				"/>
				<polygon class="st11" points="65.37,48.842 69.42,42.629 68.838,42.258 				"/>
				<polygon class="st11" points="66.144,48.748 70.197,42.535 69.618,42.164 				"/>
				<polygon class="st11" points="66.918,48.654 70.974,42.441 70.392,42.068 				"/>
				<polygon class="st11" points="67.65,48.607 71.704,42.395 71.124,42.023 				"/>
				<polygon class="st11" points="68.472,48.42 72.525,42.205 71.945,41.836 				"/>
				<polygon class="st11" points="69.34,48.088 73.394,41.877 72.812,41.504 				"/>
				<polygon class="st11" points="70.299,47.807 74.353,41.594 73.769,41.223 				"/>
				<polygon class="st11" points="71.167,47.572 75.22,41.357 74.636,40.988 				"/>
				<polygon class="st11" points="72.036,47.242 76.086,41.029 75.504,40.658 				"/>
				<polygon class="st11" points="72.993,46.914 76.302,41.938 75.72,41.566 				"/>
				<polygon class="st11" points="73.814,46.582 76.595,42.49 76.013,42.119 				"/>
			</g>
			<g>
				<polygon class="st11" points="21.535,68.445 21.535,69.818 39.361,69.159 				"/>
				<polygon class="st11" points="21.801,69.202 21.801,70.572 39.628,69.913 				"/>
				<polygon class="st11" points="22.699,69.956 22.699,71.327 40.525,70.665 				"/>
				<polygon class="st11" points="23.497,70.641 23.497,72.01 41.323,71.352 				"/>
				<polygon class="st11" points="24.296,71.327 24.296,72.697 42.122,72.038 				"/>
				<polygon class="st11" points="25.094,72.01 25.094,73.383 42.92,72.723 				"/>
				<polygon class="st11" points="25.892,72.697 25.892,74.068 43.718,73.409 				"/>
				<polygon class="st11" points="26.956,73.656 26.956,75.027 44.782,74.368 				"/>
			</g>
			<g>
				<polygon class="st11" points="28.25,47.373 28.281,48.572 46.086,47.508 				"/>
				<polygon class="st11" points="28.533,48.025 28.564,49.225 46.369,48.162 				"/>
				<polygon class="st11" points="29.448,48.66 29.479,49.859 47.284,48.797 				"/>
				<polygon class="st11" points="30.261,49.238 30.292,50.438 48.097,49.375 				"/>
				<polygon class="st11" points="31.074,49.816 31.105,51.016 48.911,49.953 				"/>
				<polygon class="st11" points="31.889,50.395 31.918,51.594 49.723,50.531 				"/>
				<polygon class="st11" points="32.701,50.973 32.731,52.172 50.538,51.109 				"/>
				<polygon class="st11" points="33.787,51.783 33.816,52.982 51.622,51.92 				"/>
			</g>
		</g>
	</g>
	<path d="M86.366,47.982c0,0,2.95,11.211-0.394,17.508l4.918-5.213c0,0,4.129,3.05,2.95,6.394
		C93.84,66.67,96.988,56.245,86.366,47.982z"/>
	<polygon class="st11" points="53.896,95.098 39.534,94.9 42.683,24.473 50.552,24.473 	"/>
	<path d="M47.302,93.795c-22.576,0-41.157-17.097-43.511-39.047c-0.166,1.551-0.254,3.125-0.254,4.719
		c0,24.172,29.672,47.854,43.858,47.65c12.861-0.185,42.932-18.873,43.671-47.65c0.043-1.594-0.086-3.168-0.254-4.719
		C88.459,76.699,69.877,93.795,47.302,93.795z"/>
	<path class="st11" d="M73.079,41.783c0,0.979-2.023,1.771-4.521,1.771H24.873c-2.496,0-4.519-0.793-4.519-1.771v-2.359
		c0-0.979,2.022-1.77,4.519-1.77h43.685c2.496,0,4.521,0.791,4.521,1.77V41.783z"/>
	<path d="M7.912,46.406c0,0-2.951,11.216,0.394,17.511l-4.919-5.213c0,0-4.132,3.049-2.951,6.393
		C0.436,65.096-2.712,54.67,7.912,46.406z"/>
	<circle class="st11" cx="19.912" cy="40.604" r="4.721"/>
	<circle class="st11" cx="71.062" cy="40.604" r="4.721"/>
	<circle class="st7" cx="47.151" cy="14.297" r="10.046"/>
	<polygon class="st8" points="47.31,9.781 48.219,5.336 48.213,9.875 49.999,5.703 49.081,10.146 51.67,6.42 49.875,10.588 
		53.161,7.457 50.565,11.18 54.415,8.775 51.122,11.898 55.377,10.318 51.521,12.715 56.008,12.021 51.75,13.596 56.284,13.82 
		51.795,14.502 56.191,15.635 51.659,15.4 55.736,17.395 51.342,16.254 54.936,19.027 50.861,17.025 53.821,20.465 50.235,17.684 
		52.442,21.648 49.491,18.203 50.853,22.529 48.655,18.561 49.118,23.074 47.765,18.744 47.31,23.258 46.855,18.744 45.501,23.074 
		45.965,18.561 43.767,22.529 45.13,18.203 42.178,21.648 44.383,17.684 40.798,20.465 43.757,17.025 39.686,19.027 43.276,16.254 
		38.885,17.395 42.961,15.4 38.43,15.635 42.823,14.502 38.336,13.818 42.869,13.596 38.611,12.021 43.097,12.715 39.243,10.318 
		43.497,11.898 40.205,8.775 44.054,11.18 41.457,7.457 44.743,10.588 42.949,6.42 45.538,10.146 44.62,5.703 46.405,9.875 
		46.4,5.336 	"/>
	<circle class="st3" cx="47.152" cy="14.297" r="10.047"/>
	<g>
		<line class="st9" x1="51.143" y1="26.467" x2="47.307" y2="32.348"/>
		<line class="st9" x1="51.213" y1="28.1" x2="47.307" y2="34.061"/>
		<line class="st9" x1="51.288" y1="29.734" x2="47.307" y2="35.774"/>
		<line class="st9" x1="51.358" y1="31.368" x2="47.307" y2="37.488"/>
		<line class="st9" x1="51.43" y1="33.001" x2="47.307" y2="39.201"/>
		<line class="st9" x1="51.502" y1="34.635" x2="47.307" y2="40.915"/>
		<line class="st9" x1="51.575" y1="36.269" x2="47.307" y2="42.628"/>
		<line class="st9" x1="51.646" y1="37.902" x2="47.307" y2="44.341"/>
		<line class="st9" x1="51.717" y1="39.536" x2="47.307" y2="46.054"/>
		<line class="st9" x1="51.792" y1="41.17" x2="47.306" y2="47.768"/>
		<line class="st9" x1="51.862" y1="42.804" x2="47.307" y2="49.481"/>
		<line class="st9" x1="51.934" y1="44.438" x2="47.307" y2="51.195"/>
		<line class="st9" x1="52.004" y1="46.07" x2="47.307" y2="52.908"/>
		<line class="st9" x1="52.079" y1="47.705" x2="47.307" y2="54.622"/>
		<line class="st9" x1="52.15" y1="49.338" x2="47.307" y2="56.334"/>
		<line class="st9" x1="52.222" y1="50.972" x2="47.307" y2="58.047"/>
		<line class="st9" x1="52.293" y1="52.605" x2="47.306" y2="59.761"/>
		<line class="st9" x1="52.366" y1="54.239" x2="47.307" y2="61.475"/>
		<line class="st9" x1="52.438" y1="55.874" x2="47.307" y2="63.188"/>
		<line class="st9" x1="52.51" y1="57.506" x2="47.306" y2="64.902"/>
		<line class="st9" x1="52.583" y1="59.14" x2="47.306" y2="66.615"/>
		<line class="st9" x1="52.654" y1="60.774" x2="47.307" y2="68.329"/>
		<line class="st9" x1="52.726" y1="62.409" x2="47.306" y2="70.042"/>
		<line class="st9" x1="52.797" y1="64.042" x2="47.307" y2="71.754"/>
		<line class="st9" x1="52.87" y1="65.674" x2="47.307" y2="73.469"/>
		<line class="st9" x1="52.942" y1="67.309" x2="47.306" y2="75.182"/>
		<line class="st9" x1="53.013" y1="68.942" x2="47.307" y2="76.896"/>
		<line class="st9" x1="53.084" y1="70.577" x2="47.307" y2="78.608"/>
		<line class="st9" x1="53.159" y1="72.209" x2="47.307" y2="80.322"/>
		<line class="st9" x1="53.229" y1="73.843" x2="47.306" y2="82.036"/>
		<line class="st9" x1="53.301" y1="75.477" x2="47.307" y2="83.749"/>
		<line class="st9" x1="53.374" y1="77.11" x2="47.307" y2="85.461"/>
		<line class="st9" x1="53.445" y1="78.745" x2="47.307" y2="87.174"/>
		<line class="st9" x1="53.517" y1="80.377" x2="47.307" y2="88.889"/>
		<line class="st9" x1="53.588" y1="82.012" x2="47.307" y2="90.602"/>
		<line class="st9" x1="53.661" y1="83.645" x2="47.307" y2="92.315"/>
		<line class="st9" x1="53.733" y1="85.279" x2="47.307" y2="94.029"/>
		<line class="st9" x1="53.805" y1="86.913" x2="47.307" y2="95.743"/>
		<line class="st9" x1="53.877" y1="88.545" x2="47.307" y2="97.456"/>
		<line class="st9" x1="53.95" y1="90.18" x2="47.307" y2="99.168"/>
		<line class="st9" x1="54.021" y1="91.813" x2="47.307" y2="100.881"/>
		<line class="st9" x1="54.092" y1="93.447" x2="47.307" y2="102.596"/>
		<line class="st9" x1="54.096" y1="93.411" x2="47.389" y2="102.616"/>
		<line class="st9" x1="54.178" y1="93.357" x2="47.551" y2="102.622"/>
		<line class="st9" x1="54.338" y1="93.286" x2="47.791" y2="102.607"/>
		<line class="st9" x1="54.575" y1="93.196" x2="48.105" y2="102.575"/>
		<line class="st9" x1="54.881" y1="93.084" x2="48.491" y2="102.521"/>
		<line class="st9" x1="55.256" y1="92.954" x2="48.946" y2="102.447"/>
		<line class="st9" x1="55.7" y1="92.797" x2="49.467" y2="102.349"/>
		<line class="st9" x1="56.206" y1="92.618" x2="50.052" y2="102.227"/>
		<line class="st9" x1="56.771" y1="92.413" x2="50.696" y2="102.079"/>
		<line class="st9" x1="57.393" y1="92.179" x2="51.398" y2="101.904"/>
		<line class="st9" x1="58.069" y1="91.918" x2="52.154" y2="101.7"/>
		<line class="st9" x1="58.797" y1="91.627" x2="52.959" y2="101.468"/>
		<line class="st9" x1="59.575" y1="91.308" x2="53.816" y2="101.204"/>
		<line class="st9" x1="60.395" y1="90.954" x2="54.717" y2="100.909"/>
		<line class="st9" x1="61.258" y1="90.567" x2="55.661" y2="100.579"/>
		<line class="st9" x1="62.163" y1="90.146" x2="56.642" y2="100.215"/>
		<line class="st9" x1="63.101" y1="89.688" x2="57.661" y2="99.816"/>
		<line class="st9" x1="64.075" y1="89.194" x2="58.713" y2="99.379"/>
		<line class="st9" x1="65.079" y1="88.661" x2="59.795" y2="98.903"/>
		<line class="st9" x1="66.111" y1="88.086" x2="60.906" y2="98.387"/>
		<line class="st9" x1="67.167" y1="87.473" x2="62.042" y2="97.831"/>
		<line class="st9" x1="68.245" y1="86.815" x2="63.2" y2="97.23"/>
		<line class="st9" x1="69.34" y1="86.114" x2="64.375" y2="96.588"/>
		<line class="st9" x1="70.454" y1="85.368" x2="65.566" y2="95.899"/>
		<line class="st9" x1="71.579" y1="84.577" x2="66.77" y2="95.165"/>
		<line class="st9" x1="72.711" y1="83.736" x2="67.984" y2="94.381"/>
		<line class="st9" x1="73.854" y1="82.847" x2="69.206" y2="93.549"/>
		<line class="st9" x1="75" y1="81.909" x2="70.43" y2="92.668"/>
		<line class="st9" x1="76.147" y1="80.917" x2="71.656" y2="91.735"/>
		<line class="st9" x1="77.292" y1="79.874" x2="72.879" y2="90.749"/>
		<line class="st9" x1="78.431" y1="78.774" x2="74.099" y2="89.708"/>
		<line class="st9" x1="79.564" y1="77.622" x2="75.31" y2="88.612"/>
		<line class="st9" x1="80.685" y1="76.411" x2="76.511" y2="87.459"/>
		<line class="st9" x1="81.792" y1="75.142" x2="77.698" y2="86.249"/>
		<line class="st9" x1="82.883" y1="73.814" x2="78.868" y2="84.979"/>
		<line class="st9" x1="83.956" y1="72.426" x2="80.018" y2="83.648"/>
		<line class="st9" x1="85.002" y1="70.976" x2="81.146" y2="82.254"/>
		<line class="st9" x1="86.027" y1="69.461" x2="82.249" y2="80.799"/>
		<line class="st9" x1="87.021" y1="67.883" x2="83.322" y2="79.278"/>
		<line class="st9" x1="87.984" y1="66.24" x2="84.364" y2="77.692"/>
		<line class="st9" x1="88.915" y1="64.529" x2="85.374" y2="76.04"/>
	</g>
	<g>
		<path class="st4" d="M23.266,35.125l4.66,2.064l0.327-3.527C28.253,33.662,25.924,33.662,23.266,35.125z"/>
		<g>
			<g>
				<line class="st10" x1="23.885" y1="34.375" x2="27.525" y2="36.064"/>
				<polygon points="23.944,34.246 27.525,36.064 23.825,34.504 				"/>
			</g>
			<g>
				<line class="st10" x1="23.812" y1="33.773" x2="27.453" y2="35.463"/>
				<polygon points="23.872,33.645 27.453,35.463 23.753,33.902 				"/>
			</g>
			<g>
				<line class="st10" x1="23.886" y1="33.211" x2="27.525" y2="34.9"/>
				<polygon points="23.945,33.082 27.525,34.9 23.826,33.34 				"/>
			</g>
			<g>
				<line class="st10" x1="23.922" y1="32.648" x2="27.562" y2="34.336"/>
				<polygon points="23.981,32.52 27.562,34.336 23.862,32.777 				"/>
			</g>
			<g>
				<line class="st10" x1="23.995" y1="32.158" x2="27.636" y2="33.848"/>
				<polygon points="24.055,32.029 27.636,33.848 23.936,32.287 				"/>
			</g>
		</g>
		<path class="st4" d="M27.884,37.068c-7.245-1.248-11.433,1.125-11.433,1.125l5.086-5.146l-3.614-2.652
			c0,0,3.913-2.217,10.719-1.238L27.884,37.068z"/>
		<g>
			<g>
				<path d="M27.934,36.711c0,0-0.535-0.122-1.36-0.226c-0.413-0.044-0.895-0.099-1.414-0.125c-0.519-0.017-1.074-0.057-1.628-0.03
					c-0.556,0.005-1.111,0.02-1.629,0.079c-0.519,0.049-1.006,0.074-1.415,0.156c-0.824,0.136-1.373,0.226-1.373,0.226
					s0.546-0.107,1.366-0.269c0.408-0.097,0.895-0.138,1.414-0.203c0.518-0.076,1.075-0.108,1.633-0.131
					c0.558-0.044,1.117-0.022,1.641-0.021c0.524,0.01,1.012,0.049,1.431,0.08c0.835,0.078,1.392,0.187,1.392,0.187L27.934,36.711z"
					/>
			</g>
			<g>
				<path d="M28.04,35.751c0,0-0.518-0.131-1.321-0.244c-0.402-0.045-0.872-0.11-1.377-0.135c-0.506-0.023-1.047-0.062-1.589-0.039
					c-0.542-0.001-1.083,0.018-1.589,0.074c-0.506,0.044-0.981,0.073-1.381,0.153c-0.804,0.131-1.34,0.219-1.34,0.219
					s0.533-0.104,1.333-0.263c0.398-0.094,0.873-0.138,1.379-0.198c0.506-0.073,1.049-0.11,1.594-0.127
					c0.544-0.04,1.09-0.021,1.602-0.013c0.512,0.008,0.988,0.059,1.397,0.091c0.815,0.088,1.356,0.206,1.356,0.206L28.04,35.751z"/>
			</g>
			<g>
				<path d="M28.1,34.541c0,0-0.505-0.106-1.286-0.19c-0.78-0.065-1.828-0.134-2.875-0.076c-0.525,0.008-1.048,0.047-1.537,0.105
					c-0.49,0.047-0.948,0.09-1.334,0.167c-0.778,0.132-1.296,0.219-1.296,0.219s0.516-0.104,1.289-0.263
					c0.385-0.09,0.842-0.148,1.332-0.212c0.489-0.076,1.013-0.132,1.54-0.158c1.052-0.093,2.11-0.061,2.903-0.021
					c0.791,0.058,1.32,0.151,1.32,0.151L28.1,34.541z"/>
			</g>
			<g>
				<path d="M28.284,33.39c0,0-0.43-0.021-1.076-0.051c-0.323-0.026-0.699-0.027-1.1,0.006c-0.402,0.021-0.831,0.043-1.26,0.064
					c-1.72,0.089-3.44,0.177-3.44,0.177s1.72-0.159,3.439-0.318c0.431-0.039,0.862-0.079,1.267-0.116
					c0.405-0.05,0.783-0.064,1.106-0.051c0.647,0.004,1.079,0.006,1.079,0.006L28.284,33.39z"/>
			</g>
			<g>
				<path d="M29.25,32.659c0,0-0.511-0.116-1.279-0.178c-0.385-0.026-0.83-0.116-1.316-0.107c-0.485-0.006-1.003-0.011-1.521-0.017
					c-0.259-0.003-0.519-0.005-0.774-0.008c-0.253,0.025-0.503,0.051-0.745,0.075c-0.484,0.048-0.936,0.093-1.323,0.132
					C21.517,32.634,21,32.686,21,32.686s0.515-0.069,1.287-0.173c0.387-0.052,0.838-0.113,1.321-0.178
					c0.242-0.032,0.492-0.066,0.746-0.101c0.256-0.006,0.516-0.013,0.776-0.019c0.521-0.012,1.042-0.024,1.531-0.035
					c0.489-0.026,0.946,0.049,1.338,0.063c0.79,0.038,1.298,0.136,1.298,0.136L29.25,32.659z"/>
			</g>
			<g>
				<path d="M29.573,31.645c0,0-0.535-0.122-1.36-0.226c-0.413-0.044-0.895-0.099-1.414-0.125c-0.519-0.017-1.074-0.057-1.628-0.03
					c-0.556,0.005-1.111,0.02-1.629,0.079c-0.519,0.049-1.006,0.074-1.415,0.156c-0.824,0.136-1.373,0.226-1.373,0.226
					s0.546-0.107,1.366-0.269c0.408-0.097,0.895-0.138,1.414-0.203c0.518-0.076,1.075-0.108,1.633-0.131
					c0.558-0.044,1.117-0.022,1.641-0.021c0.524,0.01,1.012,0.049,1.431,0.08c0.835,0.078,1.392,0.187,1.392,0.187L29.573,31.645z"
					/>
			</g>
			<g>
				<path d="M29.9,30.631c0,0-0.535-0.122-1.36-0.226c-0.412-0.043-0.895-0.098-1.414-0.124c-0.519-0.017-1.074-0.056-1.628-0.03
					c-0.556,0.006-1.111,0.021-1.629,0.08c-0.519,0.048-1.006,0.074-1.416,0.156c-0.824,0.136-1.373,0.226-1.373,0.226
					s0.546-0.107,1.366-0.269c0.408-0.097,0.895-0.138,1.414-0.203c0.519-0.076,1.075-0.108,1.633-0.132
					c0.558-0.044,1.117-0.022,1.641-0.021c0.524,0.01,1.013,0.049,1.431,0.08c0.836,0.077,1.392,0.186,1.392,0.186L29.9,30.631z"/>
			</g>
			<g>
				<path d="M30.229,29.617c0,0-0.535-0.122-1.36-0.226c-0.412-0.044-0.895-0.099-1.414-0.124c-0.52-0.018-1.074-0.057-1.629-0.031
					c-0.555,0.006-1.111,0.021-1.629,0.08c-0.519,0.049-1.006,0.074-1.415,0.157c-0.824,0.136-1.374,0.226-1.374,0.226
					s0.546-0.107,1.366-0.27c0.408-0.097,0.895-0.138,1.414-0.203c0.519-0.076,1.076-0.108,1.634-0.132
					c0.558-0.044,1.117-0.021,1.641-0.021c0.524,0.01,1.013,0.049,1.432,0.08c0.836,0.078,1.392,0.187,1.392,0.187L30.229,29.617z"
					/>
			</g>
		</g>
		<path class="st4" d="M62.443,90.59c8.412,1.479,13.414-1.383,13.414-1.383l-5.082-3.562l6.699-5.01c0,0-5,2.858-13.406,1.385
			L62.443,90.59z"/>
		<g>
			<polygon class="st1" points="16.979,49.982 14.67,47.604 16.979,45.225 19.287,47.604 			"/>
			<polygon class="st11" points="15.335,47.604 16.979,45.908 18.623,47.604 16.979,49.297 			"/>
		</g>
		<path class="st4" d="M12.359,43.795c0,0,13.631-7.725,35.188,7.055c21.559,14.777,35.774,6.648,35.774,6.648l-1.996,10.58
			c0,0-14.215,8.129-35.774-6.65c-21.558-14.777-35.189-7.055-35.189-7.055L12.359,43.795z"/>
		<path class="st11" d="M72.607,60.84c-8.248,0-16.878-3.051-25.654-9.066c-8.481-5.812-17.014-8.885-24.675-8.885
			c-4.745,0-7.872,1.178-8.967,1.668l-1.511,8.01c1.747-0.607,4.624-1.32,8.481-1.32c8.203,0,16.906,3.115,25.867,9.257
			c8.416,5.771,16.644,8.693,24.46,8.693h0.002c5.168,0,8.604-1.346,9.76-1.877l1.508-7.99C80.004,60.008,76.847,60.84,72.607,60.84
			z M79.802,66.848c-1.394,0.596-4.568,1.686-9.191,1.686h-0.002c-7.688,0-15.796-2.889-24.104-8.582
			c-9.067-6.219-17.892-9.369-26.223-9.369c-3.26,0-5.84,0.502-7.642,1.023l1.24-6.572c1.286-0.533,4.176-1.482,8.399-1.482
			c7.532,0,15.942,3.035,24.316,8.777c8.882,6.087,17.633,9.173,26.012,9.173c3.606,0,6.455-0.59,8.431-1.192L79.802,66.848z"/>
		<g>
			<polygon class="st1" points="75.915,66.986 73.605,64.607 75.915,62.227 78.222,64.607 			"/>
			<polygon class="st11" points="74.269,64.607 75.915,62.913 77.554,64.607 75.915,66.303 			"/>
		</g>
		<g>
			<polygon class="st1" points="17.246,49.709 14.936,47.33 17.246,44.949 19.553,47.33 			"/>
			<polygon class="st11" points="15.601,47.33 17.246,45.635 18.888,47.33 17.246,49.023 			"/>
		</g>
		<path class="st4" d="M24.766,27.131c0,0,10.121-5.736,26.128,5.236c16.006,10.975,26.562,4.938,26.562,4.938l-1.482,7.855
			c0,0-10.555,6.035-26.561-4.938c-16.008-10.973-26.126-5.238-26.126-5.238L24.766,27.131z"/>
		<path class="st11" d="M69.499,40.289c-6.222,0-12.721-2.291-19.318-6.812c-6.216-4.262-12.457-6.516-18.049-6.516
			c-3.146,0-5.32,0.727-6.227,1.098l-0.917,4.854c1.367-0.395,3.269-0.754,5.661-0.754c6.189,0,12.742,2.342,19.478,6.957
			c6.168,4.229,12.187,6.371,17.892,6.371c3.45,0,5.844-0.834,6.815-1.248l0.91-4.828C74.249,39.867,72.15,40.289,69.499,40.289z
			 M74.269,43.754c-1.037,0.398-3.226,1.068-6.252,1.068c-5.576,0-11.474-2.105-17.535-6.26c-6.843-4.691-13.516-7.068-19.834-7.068
			c-1.701,0-3.322,0.174-4.834,0.52l0.654-3.465c0.955-0.352,2.93-0.924,5.662-0.924c5.464,0,11.582,2.215,17.691,6.404
			c6.707,4.596,13.324,6.926,19.676,6.926c1.909,0,3.729-0.211,5.416-0.629L74.269,43.754z"/>
		<g>
			<polygon class="st1" points="28.154,30.922 27.043,29.777 28.154,28.633 29.266,29.777 			"/>
			<polygon class="st11" points="27.363,29.777 28.154,28.963 28.945,29.777 28.154,30.594 			"/>
		</g>
		<g>
			<polygon class="st1" points="71.991,43.744 70.875,42.598 71.991,41.453 73.099,42.598 			"/>
			<polygon class="st11" points="71.197,42.598 71.991,41.783 72.779,42.598 71.991,43.414 			"/>
		</g>
		<g>
			<g>
				<path d="M63.047,90.09c0,0,0.678,0.123,1.711,0.201c0.517,0.059,1.121,0.062,1.769,0.094c0.323,0.019,0.658-0.006,0.998-0.008
					c0.341-0.012,0.687-0.004,1.031-0.03c0.687-0.08,1.381-0.103,2.019-0.228c0.316-0.062,0.625-0.123,0.916-0.181
					c0.289-0.067,0.575-0.088,0.816-0.187c0.986-0.328,1.645-0.549,1.645-0.549s-0.652,0.236-1.632,0.592
					c-0.241,0.104-0.524,0.132-0.813,0.207c-0.291,0.065-0.6,0.135-0.918,0.205c-0.635,0.143-1.332,0.182-2.021,0.279
					c-0.346,0.035-0.693,0.037-1.036,0.057c-0.342,0.012-0.679,0.043-1.005,0.035c-0.65-0.016-1.262-0.005-1.783-0.051
					c-1.043-0.051-1.734-0.158-1.734-0.158L63.047,90.09z"/>
			</g>
			<g>
				<path d="M63.204,88.2c0,0,0.588,0.127,1.489,0.225c0.449,0.062,0.979,0.084,1.543,0.134c0.566,0.003,1.173,0.048,1.777,0.021
					c0.604-0.039,1.213-0.021,1.772-0.115c0.562-0.082,1.096-0.105,1.537-0.219c0.889-0.199,1.48-0.332,1.48-0.332
					s-0.59,0.15-1.473,0.377c-0.438,0.125-0.973,0.164-1.535,0.264c-0.562,0.109-1.172,0.111-1.778,0.167
					c-0.606,0.046-1.218,0.02-1.789,0.032c-0.569-0.033-1.104-0.039-1.56-0.09c-0.914-0.072-1.519-0.183-1.519-0.183L63.204,88.2z"
					/>
			</g>
			<g>
				<path d="M63.366,86.311c0,0,0.5,0.152,1.283,0.29c0.391,0.062,0.85,0.133,1.344,0.177c0.495,0.029,1.023,0.09,1.555,0.07
					c0.531,0.004,1.062,0.001,1.558-0.061c0.495-0.048,0.963-0.065,1.353-0.156c0.785-0.144,1.31-0.238,1.31-0.238
					s-0.521,0.113-1.302,0.281c-0.389,0.104-0.854,0.139-1.352,0.203c-0.496,0.076-1.029,0.099-1.564,0.111
					c-0.533,0.037-1.067-0.006-1.569-0.019c-0.501-0.028-0.968-0.084-1.367-0.134c-0.796-0.112-1.321-0.254-1.321-0.254
					L63.366,86.311z"/>
			</g>
			<g>
				<path d="M63.508,84.417c0,0,0.503,0.123,1.277,0.238c0.387,0.053,0.84,0.113,1.326,0.155c0.488,0.03,1.01,0.087,1.532,0.083
					c0.522,0.013,1.046,0.021,1.535-0.012c0.489-0.025,0.948-0.027,1.338-0.086c0.78-0.09,1.302-0.149,1.302-0.149
					s-0.52,0.077-1.297,0.192c-0.389,0.072-0.848,0.091-1.338,0.133c-0.49,0.051-1.016,0.059-1.542,0.062
					c-0.524,0.021-1.052-0.017-1.544-0.031c-0.493-0.024-0.952-0.07-1.346-0.11c-0.785-0.091-1.307-0.199-1.307-0.199L63.508,84.417
					z"/>
			</g>
			<g>
				<path d="M63.663,82.526c0,0,0.649,0.186,1.653,0.346c0.498,0.104,1.09,0.152,1.72,0.234c0.315,0.041,0.646,0.041,0.979,0.064
					c0.333,0.012,0.672,0.049,1.01,0.041c0.676-0.037,1.359-0.004,1.989-0.1c0.313-0.045,0.618-0.088,0.907-0.128
					c0.287-0.051,0.567-0.055,0.81-0.144c0.979-0.281,1.634-0.469,1.634-0.469s-0.648,0.205-1.623,0.512
					c-0.24,0.095-0.521,0.105-0.808,0.164c-0.29,0.05-0.595,0.101-0.91,0.152c-0.631,0.111-1.317,0.096-1.998,0.152
					c-0.341,0.018-0.683-0.012-1.019-0.016c-0.336-0.016-0.668-0.006-0.986-0.039c-0.637-0.066-1.234-0.103-1.74-0.191
					c-1.018-0.135-1.685-0.307-1.685-0.307L63.663,82.526z"/>
			</g>
		</g>
		<path class="st4" d="M62.443,90.59l4.947-4.06c0,0-2.015,1.156-4.363,1.438L62.443,90.59z"/>
		<g>
			<g>
				<line class="st10" x1="66.406" y1="86.917" x2="63.226" y2="89.406"/>
				<polygon points="66.495,87.027 63.226,89.406 66.318,86.805 				"/>
			</g>
			<g>
				<line class="st10" x1="66.347" y1="86.312" x2="63.167" y2="88.805"/>
				<polygon points="66.435,86.424 63.167,88.805 66.258,86.202 				"/>
			</g>
			<g>
				<line class="st10" x1="66.152" y1="85.784" x2="62.972" y2="88.271"/>
				<polygon points="66.239,85.895 62.972,88.271 66.065,85.672 				"/>
			</g>
			<g>
				<line class="st10" x1="65.995" y1="85.243" x2="62.814" y2="87.732"/>
				<polygon points="66.083,85.354 62.814,87.732 65.906,85.131 				"/>
			</g>
			<g>
				<line class="st10" x1="65.816" y1="84.784" x2="62.636" y2="87.273"/>
				<polygon points="65.904,84.895 62.636,87.273 65.728,84.672 				"/>
			</g>
		</g>
		<path class="st4" d="M16.185,68.502c0,0,10.121-5.734,26.127,5.237c16.005,10.974,26.562,4.937,26.562,4.937l-1.483,7.854
			c0,0-10.552,6.035-26.56-4.938c-16.006-10.974-26.127-5.238-26.127-5.238L16.185,68.502z"/>
		<path class="st11" d="M60.917,81.443c-6.179,0-12.639-2.278-19.201-6.778c-6.252-4.285-12.533-6.552-18.166-6.552
			c-3.3,0-5.526,0.779-6.414,1.158l-1.004,5.324c1.342-0.418,3.349-0.849,5.936-0.849c6.146,0,12.659,2.33,19.358,6.922
			c6.203,4.25,12.262,6.406,18.01,6.406c3.609,0,6.059-0.895,7-1.309l1.004-5.307C65.993,80.936,63.781,81.443,60.917,81.443z
			 M65.874,85.288c-1.047,0.418-3.283,1.125-6.437,1.125c-5.619,0-11.557-2.117-17.654-6.295
			c-6.807-4.669-13.439-7.035-19.715-7.035c-2.107,0-3.837,0.282-5.106,0.596l0.74-3.922c0.966-0.369,2.99-0.979,5.849-0.979
			c5.505,0,11.664,2.228,17.809,6.438c6.669,4.572,13.25,6.892,19.559,6.892c2.356,0,4.287-0.34,5.688-0.711L65.874,85.288z"/>
		<g>
			<polygon class="st1" points="19.773,72.334 18.662,71.189 19.773,70.043 20.884,71.189 			"/>
			<polygon class="st11" points="18.982,71.189 19.773,70.374 20.564,71.189 19.773,72.004 			"/>
		</g>
		<g>
			<polygon class="st1" points="63.607,85.154 62.497,84.01 63.607,82.865 64.717,84.01 			"/>
			<polygon class="st11" points="62.816,84.01 63.607,83.193 64.398,84.01 63.607,84.824 			"/>
		</g>
	</g>
	<g>
		<path class="st9" d="M86.795,48.086c0,0,8.56,6.329,7.644,16.23"/>
		<path class="st9" d="M87.206,49.198c0,0,8.2,5.961,7.225,15.327"/>
		<path class="st9" d="M87.613,50.31c0,0,7.845,5.595,6.81,14.424"/>
		<path class="st9" d="M88.021,51.421c0,0,7.485,5.228,6.392,13.521"/>
		<path class="st9" d="M88.429,52.533c0,0,7.129,4.861,5.974,12.618"/>
		<path class="st9" d="M88.838,53.646c0,0,6.771,4.495,5.556,11.714"/>
		<path class="st9" d="M89.247,54.756c0,0,6.414,4.129,5.139,10.812"/>
		<path class="st9" d="M89.655,55.87c0,0,6.057,3.762,4.721,9.907"/>
		<path class="st9" d="M90.064,56.981c0,0,5.697,3.395,4.304,9.004"/>
		<path class="st9" d="M90.472,58.093c0,0,5.34,3.028,3.885,8.102"/>
		<path class="st9" d="M90.879,59.206c0,0,4.982,2.662,3.469,7.197"/>
		<path class="st9" d="M91.29,60.316c0,0,4.625,2.295,3.051,6.295"/>
	</g>
	<path class="st9" d="M39.395,93.141l7.804,9.441c0,0-35.148-2.558-42.821-42.886"/>
	<line class="st3" x1="41.952" y1="40.811" x2="24.837" y2="40.811"/>
</g>
<g>
	<path d="M46.419,33.43l0.224,0.443l-0.222,0.038L45.84,34.85c-0.022,0.036-0.032,0.069-0.03,0.1
		c0.001,0.029,0.021,0.064,0.054,0.104l0.153,0.007l0.043,0.096l-0.596-0.018c-0.079-0.049-0.134-0.107-0.164-0.175
		c-0.044-0.099-0.05-0.18-0.02-0.243c0.001-0.011,0.009-0.025,0.02-0.043l0.657-1.063l-0.03-0.204L46.419,33.43z M46.916,32.992
		l0.295,0.182l-0.617,0.118L46.916,32.992z"/>
	<path d="M47.549,34.1c0.056,0.108,0.096,0.213,0.119,0.314c0.023,0.101,0.013,0.19-0.03,0.268l0.842,0.004l0.194,0.434l0.273,0.007
		l0.037,0.083c-0.008,0.005-0.014,0.008-0.018,0.008h-0.015c-0.127,0.005-0.231,0.04-0.314,0.102l-0.555,0.896
		c-0.006,0.026-0.009,0.043-0.007,0.051c0.001,0.007,0.001,0.018-0.003,0.03c0.002,0.005,0.004,0.012,0.008,0.021
		s0.006,0.017,0.008,0.021c0.002,0.005,0.006,0.017,0.013,0.036c0.006,0.019,0.014,0.032,0.021,0.041l0.138,0.006l0.044,0.106
		l-0.613-0.02c-0.062-0.061-0.106-0.124-0.133-0.192c-0.024-0.086-0.035-0.154-0.03-0.204l0.625-1.009
		c-0.007-0.004-0.01-0.008-0.008-0.011s0.004-0.008,0.002-0.014c0-0.007-0.001-0.011-0.005-0.013c0.003-0.02,0.001-0.04-0.005-0.058
		c-0.003-0.039-0.016-0.075-0.036-0.106c-0.013-0.038-0.034-0.07-0.064-0.095l-0.044-0.037l-0.43,0.012l-0.499,0.806
		c-0.002,0.025,0,0.058,0.005,0.096c0.006,0.037,0.016,0.069,0.026,0.095c0.006,0.007,0.009,0.016,0.011,0.027
		c0.001,0.012,0.003,0.019,0.003,0.021c0.001,0.002,0.004,0.008,0.008,0.016c-0.225,0.018-0.4,0.011-0.525-0.02l-0.223-0.453
		l0.206-0.016l0.577-0.932c0.007-0.011,0.008-0.031,0.002-0.059c-0.003-0.017-0.01-0.043-0.02-0.077
		c-0.016-0.019-0.021-0.032-0.017-0.039l-0.125-0.04l-0.016-0.075L47.549,34.1z"/>
</g>
<g>
	<path d="M45.298,52.512l0.016,0.009c0.005,0.003,0.012,0.003,0.02,0l0.03,0.017l0.012-0.003l0.008,0.004l-1.11,0.344l-0.88-0.943
		l-2.033,3.759c0.009,0.032,0.026,0.054,0.053,0.068l0.038,0.021c0.008,0.011,0.021,0.021,0.042,0.033l0.039,0.021
		c0.002,0.008,0.014,0.018,0.034,0.028l0.069,0.037c0.528,0.286,1.205,0.338,2.032,0.155l-0.194,0.214
		c-0.827,0.474-1.613,0.551-2.362,0.232l-0.905-0.529c-0.514-0.41-0.817-0.939-0.911-1.586c-0.093-0.613,0.023-1.219,0.347-1.818
		l0.017-0.031c0.005-0.01,0.013-0.017,0.021-0.019l0.033-0.062c0.005-0.01,0.013-0.017,0.02-0.02l0.009-0.015l0.68-0.726
		c0.68-0.474,1.377-0.686,2.092-0.637l0.117,0.043c-0.013,0.013-0.037,0.024-0.068,0.033c-0.032,0.01-0.056,0.012-0.075,0.01
		c-0.121,0.027-0.247,0.063-0.377,0.108c-0.13,0.046-0.267,0.097-0.409,0.151c-0.262,0.104-0.487,0.257-0.676,0.459l-0.057,0.068
		l-0.021,0.039c-0.01,0.008-0.02,0.02-0.028,0.034c-0.038,0.046-0.055,0.065-0.052,0.061l-0.017,0.03
		c-0.011,0.009-0.02,0.02-0.029,0.035c-0.027,0.025-0.047,0.048-0.061,0.066c-0.013,0.02-0.033,0.052-0.058,0.098
		c-0.021,0.028-0.04,0.055-0.054,0.08c-0.014,0.026-0.028,0.052-0.042,0.077c-0.136,0.251-0.229,0.516-0.279,0.793
		c-0.044,0.241-0.042,0.524,0.007,0.849c0.008-0.002,0.025-0.01,0.052-0.021c-0.011,0.021,0.024-0.008,0.104-0.083l0.049-0.054
		l1.201-2.221l2.292-0.51C44.334,51.786,44.755,52.218,45.298,52.512z M42.788,51.81l-0.91,1.684c-0.108,0.2-0.26,0.351-0.453,0.451
		c-0.125,0.07-0.326,0.157-0.606,0.258c-0.016,0.005-0.032,0.01-0.049,0.018c-0.017,0.008-0.039,0.018-0.065,0.029l-0.119,0.035
		c-0.05,0.007-0.118,0.029-0.206,0.068c0.033,0.11,0.076,0.23,0.127,0.361s0.118,0.274,0.199,0.431
		c0.124,0.2,0.273,0.347,0.448,0.44l2.071-3.867L42.788,51.81z"/>
	<path d="M46.69,54.458c0.075,0.192,0.181,0.388,0.32,0.585c0.138,0.197,0.27,0.356,0.396,0.478l0.216,0.207l-1.434,2.651
		l-1.494-0.013l-0.709-1.039l-0.342-0.324l0.291-0.15l0.183-0.229l1.143-2.113c0.215,0.069,0.447,0.098,0.7,0.085
		c0.252-0.013,0.492-0.054,0.721-0.121L46.69,54.458z M45.982,54.958l-1.193,2.206l0.645,0.826l1.197-2.214L45.982,54.958z"/>
	<path d="M49.13,54.316l1.462,2.848c0.013,0,0.046-0.012,0.099-0.036c0.023-0.008,0.068-0.019,0.132-0.033
		c0.064-0.015,0.139-0.02,0.223-0.015l-0.216,0.212l-1.513,2.798c-0.15-0.015-0.378-0.029-0.683-0.041
		c-0.15,0.011-0.375,0.026-0.67,0.045c-0.011-0.006-0.018-0.006-0.022-0.003c-0.006,0.005-0.02,0.009-0.042,0.013
		c-0.022,0.005-0.04,0.007-0.053,0.006l-0.389-0.677l-0.686-0.718c0.218-0.048,0.382-0.172,0.49-0.371l1.144-2.114l0.837,0.085
		l-0.521-1.275L49.13,54.316z M49.427,56.653l-0.317,0.017l-1.168,2.16l0.659,0.803l1.159-2.145L49.427,56.653z"/>
	<path d="M52.917,57.824l0.441,1.57l-1.95,0.446l-0.411,0.761l0.473,0.652l0.668-0.096l0.028,0.205L50.7,61.612l-0.031-0.017
		c-0.025-0.014-0.058-0.039-0.097-0.077s-0.064-0.061-0.076-0.071c-0.011-0.009-0.05-0.081-0.116-0.216
		c-0.007-0.011-0.016-0.032-0.025-0.063c-0.003-0.008-0.005-0.02-0.011-0.036c-0.005-0.016-0.013-0.031-0.024-0.048
		c-0.011-0.016-0.029-0.046-0.055-0.09c-0.026-0.043-0.064-0.086-0.115-0.127l-0.058-0.061c-0.016-0.008-0.032-0.021-0.054-0.038
		c-0.02-0.018-0.041-0.036-0.063-0.055c-0.023-0.02-0.043-0.04-0.061-0.062c-0.019-0.022-0.062-0.06-0.133-0.112
		c0.26-0.077,0.452-0.231,0.577-0.462l1.159-2.145c0.216,0.03,0.45,0.034,0.7,0.011c0.208-0.02,0.439-0.055,0.691-0.104
		L52.917,57.824z M52.224,58.333l-0.653,1.207c0.034,0.012,0.082,0.011,0.141-0.004l0.167-0.029
		c0.012,0.001,0.024-0.001,0.036-0.005c0.012-0.003,0.021-0.005,0.027-0.005s0.018-0.001,0.031-0.003
		c0.015-0.002,0.024-0.003,0.028-0.005c0.004,0,0.021-0.004,0.05-0.008c0.028-0.004,0.051-0.009,0.066-0.014
		c0.06-0.001,0.127-0.009,0.202-0.024c0.074-0.017,0.139-0.032,0.194-0.049L52.224,58.333z"/>
</g>
<g>
	<g>
		<path d="M46.849,79.041c-0.004,0.001-0.009,0.009-0.016,0.024c-0.004,0.009-0.008,0.014-0.012,0.022
			c-0.007,0.007-0.011,0.01-0.015,0.016c-0.058,0.102-0.199,0.182-0.368,0.219c-0.154,0.034-0.305,0.017-0.447-0.056
			c-0.012-0.008-0.018-0.012-0.029-0.02c-0.005,0.002-0.015-0.005-0.031-0.015c-0.012-0.008-0.019-0.01-0.03-0.018
			c-0.004,0.001-0.014-0.005-0.029-0.013c-0.024-0.013-0.05-0.022-0.063-0.03c-0.029-0.019-0.043-0.029-0.072-0.048
			c-0.003-0.002-0.007-0.006-0.013-0.013c-0.016-0.01-0.023-0.014-0.039-0.023c-0.003-0.002-0.005-0.005-0.007-0.01
			c-0.004-0.003-0.007-0.006-0.011-0.009c-0.339,0.77-0.508,1.155-0.848,1.924c0.006,0.009,0.008,0.013,0.014,0.021
			c0.102,0.088,0.232,0.134,0.391,0.129s0.292-0.029,0.401-0.069c0.062-0.022,0.093-0.032,0.155-0.055
			c0.06-0.022,0.106-0.041,0.137-0.055c0.019,0.008,0.027,0.009,0.046,0.017c-0.011,0.025-0.016,0.039-0.027,0.064
			c-0.113,0.257-0.369,0.402-0.76,0.418c-0.025,0.002-0.066,0.001-0.12,0.002c-0.12,0.002-0.253-0.016-0.371-0.07
			c-0.017-0.008-0.117-0.042-0.259-0.117c-0.143-0.076-0.24-0.151-0.28-0.182c-0.352-0.262-0.628-0.596-0.838-0.991
			c-0.217-0.41-0.291-0.788-0.204-1.139c0.002-0.005,0.003-0.009,0.006-0.014c-0.002-0.005-0.001-0.011,0.003-0.02
			c0.003-0.007,0.005-0.011,0.008-0.018c-0.002-0.005-0.001-0.011,0.002-0.02c0.002-0.005,0.003-0.006,0.006-0.011
			c-0.002-0.001-0.004-0.004-0.006-0.005c0.003-0.007,0.005-0.01,0.008-0.017c-0.002-0.005,0-0.012,0.002-0.017
			c0.014-0.03,0.02-0.044,0.034-0.075c0.003-0.008,0.007-0.018,0.015-0.026c0.007-0.008,0.014-0.01,0.019-0.011
			c0.004-0.01,0.007-0.017,0.012-0.026c0.001-0.004,0.005-0.007,0.01-0.008c0.005-0.002,0.009-0.006,0.012-0.013
			s0.018-0.02,0.029-0.037c0.006-0.009,0.016-0.026,0.032-0.045c0.313-0.355,1.275-0.464,1.275-0.464s-0.013-0.013-0.021-0.021
			c-0.012-0.008-0.019-0.011-0.03-0.019c-0.006-0.004-0.013-0.011-0.022-0.02c-0.012-0.008-0.017-0.011-0.029-0.019
			c-0.02-0.013-0.03-0.021-0.032-0.026c-0.016-0.01-0.024-0.017-0.04-0.026c-0.013-0.008-0.023-0.017-0.032-0.025
			c-0.012-0.008-0.017-0.013-0.028-0.021c-0.351-0.227-0.676-0.277-0.971-0.151c-0.013-0.017-0.02-0.024-0.033-0.041
			c0.009,0.009,0.012,0.015,0.008,0.013c-0.001-0.003-0.001-0.005-0.002-0.008c0.001-0.004,0.003-0.006,0.005-0.01
			c-0.001-0.003-0.002-0.007-0.003-0.01c0.001-0.002-0.001,0.001,0-0.001c0.089-0.204,0.256-0.315,0.502-0.328
			c0.262-0.014,0.511,0.034,0.747,0.135c0.014,0.006,0.07,0.025,0.145,0.067c0.01,0.006,0.025,0.016,0.041,0.023
			s0.027,0.017,0.034,0.02c0.012,0.006,0.038,0.018,0.071,0.038c0.023,0.015,0.034,0.022,0.058,0.037
			c0.002,0.005,0.011,0.014,0.023,0.021c0.016,0.01,0.022,0.014,0.038,0.023c0.009,0.009,0.017,0.015,0.023,0.019
			c0.018,0.011,0.026,0.017,0.044,0.027c0.479,0.396,0.717,0.596,1.192,0.993c0.004,0.01,0.006,0.012,0.007,0.015
			c0.001,0.002,0.006,0.009,0.013,0.013c0.014,0.009,0.02,0.014,0.033,0.022c-0.001,0.003,0.001,0.004,0.007,0.008
			c0.031,0.02,0.046,0.029,0.078,0.049c0.009,0.006,0.021,0.012,0.034,0.016c0.012,0.004,0.023,0.011,0.032,0.015
			c0.009,0.003,0.024,0.005,0.047,0.012c0.02,0.006,0.029,0.009,0.048,0.015c0.013,0,0.031,0,0.053,0s0.038,0.003,0.048,0
			c0.009-0.002,0.019-0.007,0.028-0.011s0.023-0.011,0.039-0.021c0.016-0.008,0.027-0.011,0.035-0.016s0.025-0.016,0.046-0.025
			c0.004,0.003,0.006,0.003,0.01,0.006c0.002,0,0.003,0,0.006,0c0.001-0.002,0.001-0.003,0.002-0.005
			c0.004,0.003,0.007,0.002,0.011,0.005c0.003-0.001,0.004,0.001,0.007,0c0.004,0.003,0.007,0.002,0.011,0.005
			c0.003,0.002,0.005,0.003,0.01,0.001c0.004,0.003,0.006,0.003,0.01,0.006c0.003,0.002,0.007,0.004,0.012,0.003
			c0.002,0.001,0.004,0.004,0.006,0.005C46.873,78.986,46.865,79.004,46.849,79.041z M44.685,78.238
			c-0.08-0.007-0.142,0.001-0.188,0.021c-0.099,0.042-0.196,0.092-0.282,0.153c-0.006,0.003-0.032,0.026-0.082,0.063
			c-0.038,0.029-0.092,0.066-0.131,0.111c-0.023,0.026-0.068,0.077-0.111,0.135c-0.014,0.019-0.033,0.053-0.059,0.094
			c-0.014,0.021-0.029,0.056-0.048,0.101c-0.038,0.086-0.071,0.188-0.08,0.291c-0.011,0.138,0.006,0.266,0.008,0.34
			c0,0.009-0.001,0.019-0.001,0.022s0.002,0.011,0.006,0.021c0.003,0.009,0.006,0.015,0.009,0.023
			c-0.001,0.004-0.002,0.01,0.001,0.021s0.009,0.069,0.033,0.142c0.01,0.03,0.026,0.088,0.049,0.14
			c0.003,0.008,0.009,0.02,0.011,0.034c0.001,0.015,0.002,0.024,0.002,0.028s0.004,0.008,0.011,0.013
			c0.003,0.002,0.008,0.003,0.018,0.001c0.011-0.001,0.016-0.005,0.027-0.006c0.004,0,0.01,0.003,0.016,0.003
			c0.006,0.001,0.01-0.001,0.014-0.004c0.003-0.002,0.008-0.001,0.017-0.003c0.011-0.002,0.015-0.001,0.026-0.003
			c0.005-0.003,0.023-0.008,0.023-0.008c0.002,0.002,0.021-0.009,0.095-0.093c0.015-0.017,0.022-0.023,0.037-0.04
			c0.02-0.016,0.041-0.05,0.064-0.102c0.242-0.55,0.362-0.827,0.604-1.377c-0.002-0.001-0.002,0-0.004-0.001
			c0.001-0.002,0.001-0.001,0.002-0.003c-0.003-0.002-0.004-0.008-0.003-0.011c0.001-0.002,0.001-0.001,0.002-0.003
			c-0.002-0.001-0.002-0.001-0.004-0.002c0.001-0.003,0.001-0.009,0.003-0.012c-0.006-0.004-0.01-0.008-0.007-0.015
			c0.002-0.005,0.005-0.008,0.007-0.013C44.737,78.276,44.719,78.263,44.685,78.238z M45.278,78.759
			c-0.183,0.416-0.274,0.624-0.458,1.04c-0.067,0.152-0.184,0.253-0.347,0.303s-0.341,0.052-0.478,0.061
			c-0.008,0.001-0.019-0.003-0.023-0.004c-0.008-0.002-0.027-0.001-0.042-0.004c-0.012-0.001-0.024-0.001-0.024-0.001
			c-0.015,0.026,0.153,0.28,0.253,0.399s0.211,0.223,0.333,0.312c0.017,0.013,0.026,0.02,0.043,0.032
			c0.01,0.007,0.028,0.018,0.055,0.03c0.003,0.002,0.012,0.004,0.026,0.011c0.009,0.007,0.014,0.009,0.023,0.016
			c0.003,0.002,0.011,0.01,0.025,0.016c0.008,0.006,0.012,0.006,0.02,0.012c0.352-0.797,0.526-1.195,0.878-1.992
			C45.448,78.897,45.392,78.851,45.278,78.759z"/>
		<path d="M47.138,80.111c0.004,0.003,0.007,0.004,0.011,0.007c0.006,0.016,0.015,0.025,0.024,0.031
			c0.003,0.002,0.008,0.006,0.01,0.008c0.002,0.003,0.002,0.009,0.004,0.014s0.01,0.012,0.014,0.016
			c0.014,0.017,0.023,0.051,0.031,0.061c0.007,0.011,0.01,0.021,0.012,0.029s0.005,0.017,0.006,0.021
			c0.002,0.005,0.005,0.011,0.01,0.02s0.009,0.017,0.01,0.021s0,0.012,0.002,0.021c0.002,0.01,0.001,0.016,0.001,0.016
			s-0.003,0.015,0.002,0.037c0.002,0.009,0.009,0.037,0.015,0.054c0.002,0.006,0.004,0.021,0,0.038c0,0.013-0.001,0.019-0.001,0.031
			c0.003,0.002,0.006,0.008,0.007,0.017c0,0.008-0.003,0.015-0.006,0.021c-0.002,0.006-0.002,0.016-0.001,0.027
			c0.001,0.013,0.002,0.017,0.003,0.02s0,0.012-0.002,0.03s0,0.028,0,0.033c0,0.004,0.001,0.013,0,0.02
			c0,0.002-0.002,0.007-0.004,0.013c0.261-0.042,0.391-0.064,0.652-0.105c0.068,0.209,0.103,0.312,0.174,0.516
			c-0.002,0.017-0.005,0.025-0.007,0.042c-0.18,0.031-0.268,0.049-0.448,0.081c-0.068-0.176-0.102-0.267-0.167-0.446
			c-0.105,0.018-0.158,0.027-0.263,0.045c-0.208,0.471-0.312,0.703-0.52,1.174c0.032,0.116,0.089,0.222,0.17,0.312
			c0.098-0.017,0.146-0.023,0.244-0.041c0.023,0.05,0.035,0.073,0.059,0.122c-0.317,0.058-0.474,0.084-0.785,0.132
			c-0.097-0.262-0.393-0.699-0.393-0.699c0.003-0.008,0.137-0.051,0.178-0.08c0.042-0.03,0.108-0.078,0.141-0.15
			c0.177-0.4,0.265-0.6,0.442-1c-0.001-0.006-0.001-0.012,0.002-0.021c0.003-0.007,0.005-0.014,0.009-0.021
			c-0.001-0.006-0.002-0.014,0.001-0.025s0.003-0.052-0.007-0.115c-0.006-0.039-0.023-0.076-0.046-0.109
			c-0.055-0.006-0.082-0.012-0.136-0.019c-0.004-0.035-0.006-0.05-0.011-0.085C46.8,80.179,46.913,80.155,47.138,80.111z"/>
		<path d="M48.942,81.167c0.017,0.009,0.022,0.013,0.039,0.021c0.108,0.187,0.167,0.274,0.282,0.448
			c-0.05,0.047-0.104,0.079-0.166,0.094c-0.026,0.006-0.04,0.009-0.066,0.015c-0.185,0.429-0.272,0.646-0.458,1.075
			c-0.018,0.042-0.023,0.081-0.012,0.123s0.034,0.085,0.07,0.128c0.002,0.001,0.006,0.001,0.008,0.002
			c-0.001,0.003-0.003,0.009,0.002,0.014s0.012,0.004,0.014,0.005s0.003,0.005,0.006,0.009c-0.001,0.002-0.002,0.002-0.003,0.004
			c0.005,0.002,0.007,0.003,0.012,0.005c-0.002,0.005,0.002,0.008,0.01,0.011c0.005,0.002,0.007,0.003,0.012,0.005
			c0.013-0.005,0.018-0.008,0.03-0.013c0.005,0.002,0.009,0.003,0.014,0.005c0.206-0.05,0.306-0.074,0.507-0.125
			c0.161-0.402,0.243-0.604,0.404-1.007c-0.041-0.08-0.062-0.119-0.102-0.201c0.219-0.045,0.324-0.07,0.542-0.121
			c0.117,0.159,0.179,0.236,0.299,0.388c0.003,0.019,0.001,0.03,0.004,0.049c-0.083,0.035-0.121,0.052-0.204,0.086
			c-0.176,0.45-0.265,0.673-0.441,1.123c0.002,0.027,0.001,0.042,0.003,0.069c0.009,0.011,0.03,0.036,0.031,0.052
			c0,0.004,0.007,0.01,0.008,0.011c0.002,0.003,0.018,0.026,0.02,0.029c0,0.001,0.004,0.01,0.01,0.017
			c0.057-0.01,0.082-0.017,0.139-0.026c0.023,0.029,0.037,0.046,0.061,0.075c-0.245,0.076-0.367,0.111-0.616,0.185
			c-0.012-0.003-0.018-0.005-0.029-0.008c-0.003-0.004-0.008-0.01-0.014-0.012s-0.024-0.004-0.039-0.017
			c-0.003-0.002-0.016-0.014-0.03-0.025c-0.153-0.118-0.199-0.313-0.127-0.493c0.001-0.003,0.003-0.005,0.004-0.008
			s0.005-0.006,0.01-0.007c0.003-0.007,0.003-0.01,0.006-0.017c0.001-0.003,0.005-0.005,0.01-0.006c0.001-0.002,0,0.001,0.001-0.001
			c-0.385,0.083-0.58,0.117-0.987,0.198c-0.01-0.01-0.018-0.015-0.02-0.019c-0.002-0.003,0-0.004-0.002-0.007
			c-0.005-0.002-0.011-0.005-0.016-0.007c-0.074-0.085-0.132-0.17-0.175-0.258s-0.055-0.178-0.043-0.263
			c0.227-0.515,0.338-0.772,0.564-1.287c-0.024-0.055-0.038-0.08-0.062-0.135c-0.04,0-0.06-0.001-0.1-0.001
			c-0.014-0.033-0.02-0.047-0.033-0.08C48.565,81.226,48.69,81.208,48.942,81.167z"/>
		<path d="M52.948,82.063c0.024,0.004,0.036,0.005,0.061,0.009c0.054,0.025,0.085,0.053,0.092,0.077
			c0.014,0.047,0.021,0.085,0.016,0.107c-0.001,0.003-0.003,0.006-0.001,0.012c-0.011,0.026-0.014,0.038-0.024,0.064
			c-0.007,0.007-0.017,0.016-0.021,0.026c-0.016,0.019-0.021,0.028-0.036,0.047c-0.002,0.005-0.003,0.009-0.005,0.014
			c-0.006,0.003-0.011,0.003-0.012,0.006s-0.003,0.006-0.004,0.009c-0.006,0.003-0.007,0.006-0.008,0.009
			c-0.364,0.212-0.542,0.313-0.894,0.514c0.179,0.135,0.27,0.203,0.449,0.337c-0.129,0.312-0.193,0.466-0.322,0.778
			c-0.185,0.016-0.317,0.031-0.401,0.047c-0.148,0.027-0.301,0.078-0.381,0.081c-0.003,0-0.011,0.001-0.02,0.004
			s-0.018,0.007-0.024,0.007c-0.006,0-0.011,0-0.016,0.002s-0.009,0.003-0.015,0.004c-0.007,0.001-0.016-0.001-0.019-0.002
			c-0.031-0.015-0.089-0.062-0.164-0.106c-0.052-0.03-0.121-0.069-0.187-0.092c-0.007-0.002-0.021-0.013-0.04-0.02
			c-0.006-0.003-0.018-0.007-0.026-0.011s-0.021-0.005-0.025-0.006c-0.022-0.006-0.038-0.011-0.048-0.016
			c-0.041-0.01-0.059-0.015-0.1-0.024c-0.012,0-0.031-0.006-0.053-0.01c-0.048-0.009-0.146-0.016-0.275-0.018
			c-0.032-0.001-0.089,0.005-0.164,0.018c-0.025-0.024-0.037-0.034-0.062-0.059c0.375-0.204,0.562-0.307,0.94-0.52
			c-0.171-0.138-0.26-0.209-0.431-0.351c0.105-0.271,0.16-0.405,0.266-0.676c0.197,0.004,0.432-0.043,0.706-0.146
			c0.018-0.007,0.026-0.009,0.044-0.016c0.004-0.002,0.012-0.009,0.022-0.015c0.009-0.003,0.015-0.004,0.023-0.007
			c0.216,0.108,0.323,0.162,0.542,0.265c0.012,0.014,0.022,0.022,0.03,0.023c0.007,0.001,0.011,0.003,0.018,0.004
			c0.003,0.003,0.007,0.002,0.014,0.004c0.029,0.009,0.054,0.021,0.059,0.024s0.019,0.008,0.038,0.012
			c0.035,0.006,0.056,0.007,0.068,0.006c0.039-0.002,0.102,0.003,0.158-0.007c0.026-0.005,0.055-0.017,0.077-0.021
			s0.053-0.026,0.086-0.067c0.013-0.031,0.019-0.045,0.031-0.076c-0.002-0.007-0.026-0.016-0.028-0.021
			c-0.001-0.002-0.022-0.022-0.027-0.035c-0.003-0.007-0.003-0.025-0.016-0.031c-0.013-0.007-0.016-0.009-0.015-0.012
			c-0.005-0.006-0.008-0.01-0.013-0.016c0.001-0.001,0-0.004,0.001-0.005c-0.004-0.001-0.005-0.002-0.004-0.005
			s0.001-0.007,0.002-0.011c-0.004-0.001-0.007-0.001-0.009-0.006c-0.003-0.004-0.004-0.008-0.003-0.012
			c0.003-0.007,0.006-0.008,0.009-0.015c0.001-0.003,0.002-0.007,0.007-0.013c0.004-0.005,0.021-0.016,0.048-0.03
			c0.016-0.009,0.038-0.015,0.066-0.022c0.003-0.001,0.005-0.005,0.008-0.006c0.002,0,0.006,0.003,0.009,0.003
			C52.948,82.071,52.947,82.067,52.948,82.063z M51.654,83.21c-0.312,0.178-0.466,0.265-0.772,0.435
			c0.005,0.008,0.019,0.012,0.033,0.016c0.004,0.001,0.01,0.001,0.019,0c0.007,0.002,0.011,0.002,0.018,0.004
			c0.055,0.008,0.089,0.014,0.106,0.018c0.017,0.004,0.032,0.007,0.048,0.008c0.034,0.008,0.051,0.012,0.085,0.02
			c0.003,0.004,0.017,0.007,0.039,0.012c0.019,0.004,0.026,0.006,0.045,0.01c0.01,0.006,0.026,0.013,0.049,0.02
			c0.022,0.006,0.063,0.02,0.113,0.041c0.023,0.011,0.06,0.028,0.105,0.053c0.07,0.037,0.141,0.085,0.203,0.134
			c0.084-0.209,0.127-0.313,0.211-0.522C51.835,83.358,51.774,83.309,51.654,83.21z M51.315,82.922
			c0.107,0.081,0.16,0.122,0.268,0.202c0.284-0.16,0.43-0.242,0.722-0.41c-0.021,0.008-0.042,0.013-0.062,0.009
			c-0.012-0.002-0.016-0.007-0.027-0.009c-0.013,0-0.022,0.004-0.03,0.003c-0.014-0.003-0.022-0.007-0.036-0.01
			c-0.005,0.002-0.015,0.002-0.03-0.001c-0.021-0.004-0.033-0.006-0.054-0.01c0.012,0.002-0.104-0.02-0.297-0.09
			c-0.062-0.022-0.154-0.072-0.274-0.137C51.422,82.652,51.386,82.741,51.315,82.922z"/>
		<path d="M54.616,82.008c-0.108,0.25-0.163,0.377-0.271,0.627c0.259,0.035,0.389,0.052,0.652,0.089
			c-0.037,0.083-0.055,0.123-0.092,0.206c-0.269-0.038-0.399-0.057-0.661-0.094c-0.228,0.526-0.344,0.791-0.571,1.317
			c0.085,0.087,0.128,0.131,0.214,0.219c0.108-0.03,0.162-0.046,0.271-0.076c0.022,0.033,0.034,0.05,0.057,0.083
			c-0.336,0.112-0.498,0.168-0.821,0.275c-0.095-0.111-0.176-0.192-0.238-0.247c-0.104-0.089-0.294-0.213-0.294-0.213
			c0-0.011,0.128-0.081,0.172-0.126c0.075-0.078,0.119-0.132,0.128-0.153c0.194-0.459,0.291-0.686,0.485-1.145
			c-0.088-0.02-0.131-0.03-0.218-0.051c0.027-0.027,0.04-0.041,0.067-0.068C53.933,82.401,54.16,82.271,54.616,82.008z"/>
	</g>
	<g>
		<path d="M38.417,74.154c-0.015,0.035-0.022,0.052-0.037,0.087c-0.012,0.006-0.058,0.017-0.135,0.031
			c-0.012,0.003-0.032,0.006-0.06,0.013s-0.05,0.01-0.064,0.013s-0.021,0.007-0.025,0.016c-0.009,0.008-0.017,0.016-0.026,0.023
			c-0.001,0.004,0,0.007-0.002,0.008c-0.003,0.004-0.012,0.006-0.013,0.009c-0.004,0.011-0.006,0.015-0.011,0.025
			c-0.006,0.001-0.011,0.006-0.017,0.021c-0.004,0.009-0.006,0.017-0.01,0.025c0.082,0.147,0.135,0.295,0.173,0.422
			c0.042,0.139,0.053,0.283,0.008,0.411c0.414-0.058,0.613-0.087,1-0.134c0.173,0.259,0.236,0.494,0.201,0.701
			c0.02,0.006,0.031,0.01,0.05,0.016c0.359-0.047,0.534-0.066,0.878-0.107c0,0.011,0.006,0.017,0.017,0.022
			c0.013,0.008,0.021,0.011,0.033,0.019c0.005,0.011,0.009,0.018,0.017,0.021c0.006,0.004,0.009,0.007,0.016,0.011
			c-0.001,0.003-0.001,0.008,0.002,0.011c0.003,0.004,0.006,0.008,0.008,0.016s0.01,0.014,0.013,0.018
			c0.038,0.048,0.051,0.19,0.076,0.291c0.02,0.078,0.028,0.175,0.013,0.282c-0.217,0.514-0.326,0.773-0.542,1.287
			c-0.023,0.004-0.041,0-0.051-0.001c-0.018-0.002-0.042-0.003-0.056-0.008c-0.013-0.005-0.03-0.006-0.052-0.009
			c-0.022-0.003-0.042-0.012-0.053-0.014c-0.078-0.017-0.209-0.019-0.368-0.034c-0.073-0.007-0.144-0.025-0.189-0.023
			c-0.013,0-0.069,0.003-0.171-0.005c-0.069-0.068-0.106-0.103-0.177-0.171c-0.047-0.053-0.112-0.116-0.192-0.179
			c-0.038-0.029-0.096-0.07-0.173-0.125c-0.044-0.031-0.103-0.062-0.175-0.097c-0.21-0.099-0.565-0.049-0.655-0.087
			c-0.009-0.004-0.025-0.034-0.037-0.048c-0.012-0.014-0.024-0.025-0.036-0.034c-0.031-0.036-0.046-0.054-0.077-0.09
			c-0.027-0.033-0.062-0.074-0.105-0.115c-0.174-0.164-0.291-0.249-0.308-0.261c-0.122-0.09-0.386-0.199-0.386-0.199
			c0-0.003,0.195-0.041,0.259-0.081s0.11-0.091,0.139-0.156c0.183-0.42,0.274-0.631,0.457-1.051
			c-0.097-0.241-0.124-0.417-0.077-0.525c0.007-0.017,0.018-0.03,0.03-0.046c0.035-0.035,0.052-0.053,0.087-0.088
			c0.007-0.004,0.017-0.011,0.028-0.019c0.012-0.009,0.019-0.019,0.021-0.021c0.05-0.046,0.204-0.063,0.296-0.081
			c0.092-0.018,0.203-0.028,0.33-0.026c0.008,0.003,0.013,0.007,0.021,0.01c0.004,0.002,0.008,0.003,0.014,0.002
			c0.01,0.004,0.016,0.006,0.026,0.01c0.004,0.002,0.009,0.002,0.015,0.001c0.005,0.002,0.008,0.003,0.013,0.005
			C38.392,74.147,38.4,74.151,38.417,74.154z M38.677,75.328c-0.22,0.032-0.332,0.05-0.56,0.086c-0.153,0.359-0.23,0.54-0.384,0.899
			c0.015,0.022,0.023,0.029,0.039,0.052c0.215,0.178,0.317,0.27,0.518,0.453c0.204-0.483,0.307-0.728,0.511-1.211
			c0.004-0.011,0.007-0.021,0.009-0.037c0.002-0.017,0-0.04-0.007-0.07c-0.01-0.017-0.017-0.024-0.027-0.041
			c-0.005-0.012-0.018-0.026-0.031-0.044c-0.024-0.031-0.046-0.065-0.07-0.079C38.675,75.333,38.676,75.331,38.677,75.328z
			 M39.857,75.952c-0.207,0.026-0.312,0.04-0.524,0.068c-0.157,0.375-0.236,0.562-0.393,0.938c0.223,0.201,0.33,0.305,0.538,0.512
			c0.209-0.498,0.314-0.746,0.523-1.244c0.009-0.033-0.004-0.084-0.028-0.143c-0.018-0.044-0.055-0.088-0.118-0.123
			C39.855,75.956,39.855,75.956,39.857,75.952z"/>
		<path d="M41.986,76.766c0.158,0.396,0.232,0.595,0.385,0.991c-0.445,0.033-0.665,0.044-1.111,0.075
			c-0.072,0.167-0.108,0.253-0.181,0.42c0.133,0.177,0.198,0.267,0.329,0.443c0.153,0.004,0.229,0.003,0.382,0.006
			c0.013,0.051,0.019,0.077,0.032,0.128c-0.335,0.003-0.501,0.003-0.836,0.005c-0.008-0.005-0.011-0.009-0.019-0.014
			c-0.016-0.011-0.038-0.03-0.063-0.057s-0.044-0.044-0.051-0.051c-0.007-0.008-0.035-0.06-0.087-0.139
			c-0.004-0.007-0.01-0.021-0.018-0.042c-0.002-0.005-0.005-0.012-0.009-0.022c-0.004-0.01-0.011-0.022-0.019-0.032
			c-0.008-0.011-0.021-0.031-0.04-0.06s-0.047-0.058-0.081-0.088c-0.016-0.017-0.022-0.025-0.038-0.042
			c-0.01-0.007-0.021-0.017-0.034-0.029s-0.03-0.026-0.045-0.04c-0.016-0.014-0.028-0.027-0.041-0.043
			c-0.012-0.015-0.09-0.08-0.09-0.08c0.003-0.012,0.25-0.097,0.304-0.223c0.2-0.471,0.302-0.706,0.502-1.177
			c0.134,0.038,0.273,0.064,0.421,0.074c0.124,0.008,0.257,0.008,0.403,0.003C41.982,76.77,41.984,76.77,41.986,76.766z
			 M41.616,77.004c-0.114,0.266-0.17,0.4-0.285,0.666c0.021,0.01,0.047,0.014,0.082,0.012c0.038-0.001,0.057,0,0.095-0.001
			c0.007,0.001,0.016,0.001,0.023,0s0.012-0.002,0.016-0.002c0.004,0.001,0.009,0.002,0.018,0.002s0.013,0.001,0.015,0
			c0.002,0,0.013,0.001,0.029,0.002c0.017,0,0.03-0.003,0.038-0.003c0.031,0.001,0.074,0.006,0.117,0.004s0.081-0.004,0.112-0.009
			C41.773,77.408,41.721,77.271,41.616,77.004z"/>
	</g>
</g>
</svg>
