<?xml version="1.0" encoding="utf-8"?>
<!-- Generator: Adobe Illustrator 16.0.0, SVG Export Plug-In . SVG Version: 6.00 Build 0)  -->
<!DOCTYPE svg PUBLIC "-//W3C//DTD SVG 1.1//EN" "http://www.w3.org/Graphics/SVG/1.1/DTD/svg11.dtd">
<svg version="1.1" id="Layer_1" xmlns="http://www.w3.org/2000/svg" xmlns:xlink="http://www.w3.org/1999/xlink" x="0px" y="0px"
	 width="95.091px" height="107.118px" viewBox="0 0 95.091 107.118" style="enable-background:new 0 0 95.091 107.118;"
	 xml:space="preserve">
<style type="text/css">
<![CDATA[
	.st0{fill:#FFFFFF;stroke:#000000;stroke-width:0.5669;stroke-miterlimit:10;}
	.st1{fill:none;stroke:#000000;stroke-width:0.2835;stroke-miterlimit:10;}
	.st2{fill:none;stroke:#FFFFFF;stroke-miterlimit:10;}
	.st3{fill:#FFFFFF;stroke:#000000;stroke-width:0.2835;stroke-miterlimit:10;}
	.st4{fill:none;stroke:#FFFFFF;stroke-width:0.8504;stroke-miterlimit:10;}
	.st5{opacity:0.5;}
	.st6{stroke:#000000;stroke-width:8.5039;stroke-miterlimit:10;}
	.st7{fill:#FFFFFF;}
	.st8{fill:none;stroke:#FFFFFF;stroke-width:0.2835;stroke-miterlimit:10;}
	.st9{fill:#010101;}
]]>
</style>
<g>
	<g>
		<g class="st5">
			<path class="st9" d="M84.261,59.148c0,0-18.836,13.012-67.136,11.004l-0.869,5.109c0,0,48.499,6.902,66.009-5.533L84.261,59.148z
				"/>
			<path class="st9" d="M13.299,45.445c43.447,9.412,65.095-6.49,65.095-6.49l-1.402,7.785c0,0-19.494,14.748-62.942,5.338"/>
			<path class="st9" d="M63.382,92.24c8.412,1.479,13.414-1.383,13.414-1.383l-5.08-3.559l6.697-5.01c0,0-5,2.857-13.406,1.383
				L63.382,92.24z"/>
			<path class="st9" d="M68.115,91.555c-1.129,0-2.289-0.08-3.459-0.238l1.209-6.387c1.309,0.184,2.605,0.275,3.869,0.275
				c1.176,0,2.252-0.08,3.219-0.205l-1.871,1.398l0.029,1.816l3.404,2.385c-1.393,0.453-3.572,0.955-6.398,0.955H68.115z"/>
			<path class="st9" d="M68.115,90.891c-0.881,0-1.785-0.051-2.693-0.148l0.963-5.076c1.131,0.135,2.256,0.203,3.35,0.203
				c0.328,0,0.658-0.008,0.984-0.018l-0.014,0.01l-0.266,0.549l0.027,1.816l0.281,0.541l2.246,1.57
				c-1.254,0.299-2.9,0.553-4.877,0.553H68.115z"/>
			<path class="st9" d="M28.771,38.83c-7.244-1.25-11.432,1.125-11.432,1.125l5.086-5.148l-3.614-2.652
				c0,0,3.913-2.217,10.719-1.236L28.771,38.83z"/>
			<path class="st9" d="M23.18,35.598l-0.131-1.695l-1.967-1.443c1.158-0.34,2.865-0.682,5.043-0.682
				c0.729,0,1.476,0.037,2.229,0.113l-0.543,5.674c-1.07-0.139-2.127-0.209-3.158-0.209c-1.315,0-2.48,0.115-3.484,0.277
				L23.18,35.598z"/>
			<path class="st9" d="M27.234,36.828c-0.875-0.09-1.739-0.135-2.582-0.135c-0.57,0-1.137,0.02-1.694,0.061l0.673-0.682
				l0.191-0.525l-0.131-1.699l-0.269-0.488l-0.806-0.592c0.939-0.182,2.123-0.326,3.508-0.326c0.5,0,1.01,0.02,1.523,0.057
				L27.234,36.828z"/>
			<g>
				<polygon class="st9" points="17.919,51.635 15.611,49.256 17.919,46.875 20.228,49.256 				"/>
				<polygon class="st9" points="16.275,49.256 17.919,47.561 19.562,49.256 17.919,50.949 				"/>
			</g>
			<g>
				<polygon class="st9" points="55.297,69.541 61.203,60.49 60.355,59.947 				"/>
				<polygon class="st9" points="56.162,70.021 62.068,60.971 61.22,60.428 				"/>
				<polygon class="st9" points="57.027,70.5 62.933,61.449 62.083,60.908 				"/>
				<polygon class="st9" points="57.892,70.98 63.798,61.93 62.949,61.387 				"/>
				<polygon class="st9" points="58.755,71.463 64.662,62.41 63.814,61.867 				"/>
				<polygon class="st9" points="59.621,71.941 65.527,62.889 64.679,62.348 				"/>
				<polygon class="st9" points="60.488,72.42 66.392,63.369 65.544,62.828 				"/>
				<polygon class="st9" points="61.351,72.902 67.257,63.848 66.41,63.307 				"/>
				<polygon class="st9" points="62.283,73.107 68.189,64.055 67.341,63.514 				"/>
				<polygon class="st9" points="63.214,73.312 69.121,64.26 68.271,63.719 				"/>
				<polygon class="st9" points="64.146,73.518 70.05,64.465 69.203,63.924 				"/>
				<polygon class="st9" points="65.076,73.725 70.982,64.672 70.134,64.129 				"/>
				<polygon class="st9" points="66.007,73.93 71.914,64.877 71.064,64.336 				"/>
				<polygon class="st9" points="66.939,74.137 72.845,65.082 71.998,64.543 				"/>
				<polygon class="st9" points="68.07,74 73.974,64.945 73.128,64.404 				"/>
				<polygon class="st9" points="69.201,73.861 75.107,64.809 74.257,64.268 				"/>
				<polygon class="st9" points="70.265,73.791 76.171,64.74 75.324,64.199 				"/>
				<polygon class="st9" points="71.462,73.518 77.367,64.465 76.521,63.924 				"/>
				<polygon class="st9" points="72.726,73.037 78.63,63.986 77.785,63.445 				"/>
				<polygon class="st9" points="74.123,72.627 80.031,63.574 79.181,63.033 				"/>
				<polygon class="st9" points="75.386,72.283 81.292,63.232 80.445,62.689 				"/>
				<polygon class="st9" points="76.65,71.803 82.558,62.752 81.708,62.211 				"/>
				<polygon class="st9" points="78.046,71.324 82.871,64.076 82.021,63.533 				"/>
				<polygon class="st9" points="79.246,70.844 83.296,64.879 82.449,64.338 				"/>
			</g>
			<g>
				<polygon class="st9" points="58.318,47.342 62.373,41.129 61.791,40.756 				"/>
				<polygon class="st9" points="58.912,47.672 62.966,41.459 62.382,41.088 				"/>
				<polygon class="st9" points="59.505,48 63.56,41.787 62.976,41.414 				"/>
				<polygon class="st9" points="60.099,48.33 64.152,42.117 63.57,41.744 				"/>
				<polygon class="st9" points="60.691,48.658 64.748,42.445 64.164,42.074 				"/>
				<polygon class="st9" points="61.285,48.988 65.339,42.775 64.757,42.404 				"/>
				<polygon class="st9" points="61.88,49.318 65.933,43.105 65.351,42.732 				"/>
				<polygon class="st9" points="62.472,49.646 66.527,43.436 65.945,43.062 				"/>
				<polygon class="st9" points="63.113,49.787 67.166,43.574 66.583,43.203 				"/>
				<polygon class="st9" points="63.753,49.93 67.806,43.717 67.222,43.344 				"/>
				<polygon class="st9" points="64.39,50.07 68.445,43.857 67.861,43.484 				"/>
				<polygon class="st9" points="65.029,50.213 69.083,43.998 68.501,43.627 				"/>
				<polygon class="st9" points="65.669,50.352 69.722,44.141 69.142,43.768 				"/>
				<polygon class="st9" points="66.31,50.494 70.361,44.281 69.781,43.908 				"/>
				<polygon class="st9" points="67.083,50.4 71.138,44.188 70.556,43.814 				"/>
				<polygon class="st9" points="67.861,50.305 71.916,44.092 71.333,43.721 				"/>
				<polygon class="st9" points="68.591,50.258 72.644,44.045 72.064,43.674 				"/>
				<polygon class="st9" points="69.414,50.07 73.466,43.857 72.886,43.484 				"/>
				<polygon class="st9" points="70.281,49.74 74.333,43.527 73.751,43.156 				"/>
				<polygon class="st9" points="71.24,49.459 75.292,43.244 74.71,42.875 				"/>
				<polygon class="st9" points="72.105,49.223 76.16,43.01 75.578,42.639 				"/>
				<polygon class="st9" points="72.974,48.895 77.029,42.682 76.447,42.311 				"/>
				<polygon class="st9" points="73.933,48.564 77.244,43.59 76.662,43.217 				"/>
				<polygon class="st9" points="74.755,48.234 77.535,44.141 76.955,43.77 				"/>
			</g>
			<path class="st9" d="M25.706,28.783c0,0,10.12-5.736,26.128,5.236c16.007,10.973,26.56,4.936,26.56,4.936l-1.482,7.857
				c0,0-10.553,6.035-26.559-4.939c-16.008-10.971-26.128-5.236-26.128-5.236L25.706,28.783z"/>
			<path class="st9" d="M70.439,41.941c-6.223,0-12.722-2.293-19.32-6.814c-6.215-4.262-12.455-6.516-18.047-6.516
				c-3.147,0-5.32,0.729-6.229,1.1l-0.915,4.854c1.367-0.395,3.267-0.754,5.66-0.754c6.188,0,12.741,2.34,19.477,6.957
				c6.169,4.227,12.188,6.371,17.891,6.371c3.451,0,5.844-0.834,6.816-1.248l0.912-4.83C75.189,41.52,73.091,41.941,70.439,41.941z
				 M75.208,45.404c-1.035,0.4-3.223,1.07-6.252,1.07c-5.574,0-11.472-2.105-17.534-6.26c-6.844-4.691-13.517-7.07-19.834-7.07
				c-1.702,0-3.323,0.176-4.835,0.521l0.654-3.465c0.956-0.35,2.932-0.924,5.664-0.924c5.463,0,11.581,2.215,17.689,6.402
				c6.705,4.598,13.326,6.926,19.677,6.926c1.91,0,3.727-0.211,5.416-0.629L75.208,45.404z"/>
			<g>
				<polygon class="st9" points="29.095,32.576 27.982,31.43 29.095,30.285 30.205,31.43 				"/>
				<polygon class="st9" points="28.303,31.43 29.095,30.613 29.886,31.43 29.095,32.244 				"/>
			</g>
			<g>
				<polygon class="st9" points="72.927,45.396 71.818,44.25 72.927,43.105 74.041,44.25 				"/>
				<polygon class="st9" points="72.136,44.25 72.927,43.436 73.72,44.25 72.927,45.064 				"/>
			</g>
			<g>
				<polygon class="st9" points="22.476,70.098 22.476,71.471 40.303,70.809 				"/>
				<polygon class="st9" points="22.74,70.852 22.74,72.223 40.567,71.562 				"/>
				<polygon class="st9" points="23.64,71.605 23.64,72.979 41.466,72.316 				"/>
				<polygon class="st9" points="24.438,72.293 24.438,73.662 42.264,73.002 				"/>
				<polygon class="st9" points="25.234,72.979 25.234,74.348 43.062,73.688 				"/>
				<polygon class="st9" points="26.034,73.662 26.034,75.035 43.86,74.375 				"/>
				<polygon class="st9" points="26.832,74.348 26.832,75.721 44.659,75.059 				"/>
				<polygon class="st9" points="27.896,75.309 27.896,76.68 45.724,76.02 				"/>
			</g>
			<g>
				<polygon class="st9" points="29.189,49.023 29.221,50.225 47.026,49.16 				"/>
				<polygon class="st9" points="29.473,49.676 29.504,50.875 47.31,49.812 				"/>
				<polygon class="st9" points="30.388,50.312 30.418,51.51 48.224,50.449 				"/>
				<polygon class="st9" points="31.202,50.889 31.232,52.09 49.038,51.027 				"/>
				<polygon class="st9" points="32.015,51.467 32.046,52.668 49.851,51.604 				"/>
				<polygon class="st9" points="32.828,52.045 32.858,53.244 50.664,52.182 				"/>
				<polygon class="st9" points="33.641,52.623 33.672,53.822 51.477,52.76 				"/>
				<polygon class="st9" points="34.728,53.434 34.756,54.633 52.562,53.57 				"/>
			</g>
			<path class="st9" d="M17.125,70.152c0,0,10.121-5.734,26.129,5.238c16.005,10.973,26.56,4.938,26.56,4.938l-1.482,7.854
				c0,0-10.553,6.037-26.561-4.936c-16.007-10.975-26.127-5.238-26.127-5.238L17.125,70.152z"/>
			<path class="st9" d="M61.857,83.096c-6.177,0-12.639-2.281-19.201-6.781c-6.251-4.283-12.532-6.551-18.166-6.551
				c-3.3,0-5.525,0.779-6.413,1.16l-1.005,5.324c1.341-0.42,3.348-0.85,5.935-0.85c6.146,0,12.66,2.33,19.36,6.922
				c6.201,4.252,12.263,6.408,18.008,6.408c3.609,0,6.061-0.896,7.002-1.311l1.002-5.305C66.933,82.588,64.72,83.096,61.857,83.096z
				 M66.814,86.938c-1.049,0.418-3.285,1.125-6.438,1.125c-5.619,0-11.558-2.117-17.653-6.295
				c-6.808-4.666-13.44-7.033-19.716-7.033c-2.106,0-3.835,0.283-5.105,0.594l0.739-3.92c0.966-0.369,2.988-0.979,5.849-0.979
				c5.507,0,11.664,2.227,17.81,6.438c6.669,4.574,13.251,6.891,19.557,6.891c2.357,0,4.289-0.34,5.689-0.709L66.814,86.938z"/>
			<g>
				<polygon class="st9" points="20.713,73.986 19.602,72.842 20.713,71.695 21.823,72.842 				"/>
				<polygon class="st9" points="19.921,72.842 20.713,72.025 21.504,72.842 20.713,73.656 				"/>
			</g>
			<g>
				<polygon class="st9" points="64.548,86.807 63.437,85.662 64.548,84.516 65.66,85.662 				"/>
				<polygon class="st9" points="63.757,85.662 64.548,84.846 65.339,85.662 64.548,86.477 				"/>
			</g>
			<path class="st9" d="M13.299,45.445c0,0,13.631-7.723,35.19,7.055c21.557,14.779,35.772,6.648,35.772,6.648l-1.996,10.58
				c0,0-14.215,8.129-35.773-6.648c-21.558-14.779-35.189-7.055-35.189-7.055L13.299,45.445z"/>
			<path class="st9" d="M73.546,62.49c-8.248,0-16.876-3.051-25.655-9.066c-8.48-5.812-17.013-8.885-24.673-8.885
				c-4.745,0-7.871,1.18-8.967,1.67l-1.511,8.01c1.746-0.607,4.623-1.322,8.481-1.322c8.201,0,16.904,3.115,25.866,9.26
				c8.415,5.768,16.645,8.691,24.459,8.691h0.002c5.166,0,8.604-1.346,9.762-1.877l1.508-7.99
				C80.947,61.658,77.789,62.49,73.546,62.49z M80.744,68.5c-1.393,0.598-4.568,1.686-9.193,1.686h-0.002
				c-7.686,0-15.794-2.889-24.102-8.584c-9.069-6.217-17.892-9.367-26.224-9.367c-3.261,0-5.84,0.5-7.644,1.021l1.24-6.57
				c1.287-0.533,4.176-1.482,8.399-1.482c7.533,0,15.942,3.035,24.317,8.773c8.882,6.09,17.633,9.18,26.01,9.18
				c3.607,0,6.457-0.59,8.432-1.195L80.744,68.5z"/>
			<g>
				<polygon class="st9" points="76.855,68.639 74.542,66.258 76.855,63.879 79.162,66.258 				"/>
				<polygon class="st9" points="75.21,66.258 76.855,64.562 78.496,66.258 76.855,67.953 				"/>
			</g>
			<g>
				<polygon class="st9" points="18.186,51.361 15.876,48.98 18.186,46.602 20.494,48.98 				"/>
				<polygon class="st9" points="16.541,48.98 18.186,47.287 19.829,48.98 18.186,50.674 				"/>
			</g>
		</g>
		<g>
			<path class="st0" d="M83.322,57.498c0,0-18.834,13.01-67.137,11.004l-0.87,5.109c0,0,48.499,6.902,66.011-5.533L83.322,57.498z"
				/>
			<path class="st0" d="M12.359,43.795c43.447,9.412,65.095-6.49,65.095-6.49l-1.402,7.785c0,0-19.494,14.746-62.942,5.336"/>
			<g>
				<polygon class="st9" points="54.357,67.891 60.261,58.838 59.416,58.297 				"/>
				<polygon class="st9" points="55.223,68.371 61.128,59.318 60.281,58.777 				"/>
				<polygon class="st9" points="56.088,68.85 61.994,59.797 61.146,59.256 				"/>
				<polygon class="st9" points="56.951,69.33 62.857,60.279 62.009,59.736 				"/>
				<polygon class="st9" points="57.816,69.809 63.724,60.758 62.875,60.217 				"/>
				<polygon class="st9" points="58.681,70.289 64.587,61.236 63.74,60.695 				"/>
				<polygon class="st9" points="59.546,70.77 65.453,61.719 64.603,61.176 				"/>
				<polygon class="st9" points="60.41,71.25 66.318,62.197 65.468,61.656 				"/>
				<polygon class="st9" points="61.341,71.455 67.248,62.402 66.4,61.861 				"/>
				<polygon class="st9" points="62.275,71.662 68.179,62.607 67.333,62.066 				"/>
				<polygon class="st9" points="63.205,71.867 69.111,62.814 68.263,62.271 				"/>
				<polygon class="st9" points="64.136,72.072 70.042,63.02 69.193,62.479 				"/>
				<polygon class="st9" points="65.066,72.277 70.974,63.227 70.125,62.686 				"/>
				<polygon class="st9" points="66,72.484 71.904,63.432 71.056,62.889 				"/>
				<polygon class="st9" points="67.128,72.346 73.037,63.295 72.187,62.754 				"/>
				<polygon class="st9" points="68.261,72.209 74.167,63.158 73.318,62.615 				"/>
				<polygon class="st9" points="69.324,72.141 75.23,63.088 74.382,62.547 				"/>
				<polygon class="st9" points="70.521,71.867 76.429,62.814 75.58,62.271 				"/>
				<polygon class="st9" points="71.785,71.387 77.693,62.334 76.843,61.793 				"/>
				<polygon class="st9" points="73.181,70.975 79.089,61.924 78.24,61.381 				"/>
				<polygon class="st9" points="74.445,70.631 80.353,61.58 79.503,61.039 				"/>
				<polygon class="st9" points="75.708,70.152 81.617,61.1 80.767,60.559 				"/>
				<polygon class="st9" points="77.107,69.674 81.931,62.424 81.082,61.883 				"/>
				<polygon class="st9" points="78.304,69.191 82.357,63.229 81.507,62.686 				"/>
			</g>
			<g>
				<polygon class="st9" points="57.377,45.689 61.431,39.477 60.849,39.105 				"/>
				<polygon class="st9" points="57.97,46.018 62.025,39.807 61.443,39.434 				"/>
				<polygon class="st9" points="58.564,46.35 62.619,40.135 62.037,39.764 				"/>
				<polygon class="st9" points="59.16,46.678 63.212,40.465 62.63,40.094 				"/>
				<polygon class="st9" points="59.751,47.008 63.806,40.793 63.224,40.422 				"/>
				<polygon class="st9" points="60.345,47.336 64.4,41.123 63.818,40.752 				"/>
				<polygon class="st9" points="60.939,47.668 64.992,41.453 64.412,41.082 				"/>
				<polygon class="st9" points="61.533,47.994 65.585,41.783 65.005,41.41 				"/>
				<polygon class="st9" points="62.171,48.137 66.224,41.922 65.642,41.553 				"/>
				<polygon class="st9" points="62.812,48.277 66.865,42.064 66.283,41.693 				"/>
				<polygon class="st9" points="63.451,48.42 67.505,42.205 66.921,41.836 				"/>
				<polygon class="st9" points="64.089,48.559 68.144,42.348 67.56,41.975 				"/>
				<polygon class="st9" points="64.728,48.701 68.781,42.488 68.201,42.117 				"/>
				<polygon class="st9" points="65.369,48.842 69.421,42.629 68.839,42.258 				"/>
				<polygon class="st9" points="66.144,48.748 70.197,42.535 69.617,42.164 				"/>
				<polygon class="st9" points="66.919,48.654 70.974,42.441 70.392,42.068 				"/>
				<polygon class="st9" points="67.65,48.607 71.703,42.395 71.123,42.023 				"/>
				<polygon class="st9" points="68.472,48.42 72.525,42.205 71.945,41.836 				"/>
				<polygon class="st9" points="69.341,48.088 73.394,41.877 72.812,41.504 				"/>
				<polygon class="st9" points="70.3,47.807 74.353,41.594 73.769,41.223 				"/>
				<polygon class="st9" points="71.167,47.572 75.22,41.357 74.636,40.988 				"/>
				<polygon class="st9" points="72.035,47.242 76.087,41.029 75.505,40.658 				"/>
				<polygon class="st9" points="72.992,46.914 76.302,41.938 75.72,41.566 				"/>
				<polygon class="st9" points="73.814,46.582 76.595,42.49 76.013,42.119 				"/>
			</g>
			<g>
				<polygon class="st9" points="21.535,68.445 21.535,69.818 39.361,69.158 				"/>
				<polygon class="st9" points="21.801,69.201 21.801,70.572 39.628,69.912 				"/>
				<polygon class="st9" points="22.699,69.955 22.699,71.326 40.525,70.664 				"/>
				<polygon class="st9" points="23.497,70.641 23.497,72.01 41.323,71.352 				"/>
				<polygon class="st9" points="24.296,71.326 24.296,72.697 42.122,72.037 				"/>
				<polygon class="st9" points="25.094,72.01 25.094,73.383 42.92,72.723 				"/>
				<polygon class="st9" points="25.892,72.697 25.892,74.068 43.718,73.408 				"/>
				<polygon class="st9" points="26.956,73.656 26.956,75.027 44.782,74.367 				"/>
			</g>
			<g>
				<polygon class="st9" points="28.25,47.373 28.281,48.572 46.086,47.508 				"/>
				<polygon class="st9" points="28.533,48.025 28.564,49.225 46.369,48.162 				"/>
				<polygon class="st9" points="29.448,48.66 29.479,49.859 47.284,48.797 				"/>
				<polygon class="st9" points="30.261,49.238 30.292,50.438 48.097,49.375 				"/>
				<polygon class="st9" points="31.074,49.816 31.105,51.016 48.91,49.953 				"/>
				<polygon class="st9" points="31.889,50.395 31.918,51.594 49.723,50.531 				"/>
				<polygon class="st9" points="32.701,50.973 32.731,52.172 50.537,51.109 				"/>
				<polygon class="st9" points="33.787,51.783 33.816,52.982 51.622,51.92 				"/>
			</g>
		</g>
	</g>
	<path d="M86.365,47.982c0,0,2.951,11.211-0.393,17.508l4.918-5.213c0,0,4.129,3.049,2.951,6.393
		C93.841,66.67,96.988,56.244,86.365,47.982z"/>
	<polygon class="st9" points="53.896,95.098 39.534,94.9 42.683,24.473 50.552,24.473 	"/>
	<path d="M47.302,93.795c-22.576,0-41.157-17.096-43.511-39.047c-0.166,1.551-0.254,3.125-0.254,4.719
		c0,24.172,29.672,47.855,43.858,47.65c12.861-0.184,42.931-18.873,43.671-47.65c0.043-1.594-0.086-3.168-0.254-4.719
		C88.46,76.699,69.878,93.795,47.302,93.795z"/>
	<path class="st9" d="M73.078,41.783c0,0.979-2.023,1.771-4.52,1.771H24.873c-2.496,0-4.519-0.793-4.519-1.771v-2.359
		c0-0.979,2.022-1.77,4.519-1.77h43.685c2.496,0,4.52,0.791,4.52,1.77V41.783z"/>
	<path d="M7.912,46.406c0,0-2.951,11.215,0.394,17.51l-4.919-5.213c0,0-4.132,3.049-2.951,6.393
		C0.436,65.096-2.712,54.67,7.912,46.406z"/>
	<circle class="st9" cx="19.912" cy="40.604" r="4.721"/>
	<circle class="st9" cx="71.062" cy="40.604" r="4.721"/>
	<circle class="st6" cx="47.151" cy="14.297" r="10.046"/>
	<polygon class="st7" points="47.31,9.781 48.219,5.336 48.214,9.875 49.999,5.703 49.081,10.146 51.67,6.42 49.876,10.588 
		53.161,7.457 50.565,11.18 54.415,8.775 51.122,11.898 55.377,10.318 51.521,12.715 56.008,12.021 51.75,13.596 56.283,13.82 
		51.796,14.502 56.191,15.635 51.658,15.4 55.736,17.395 51.343,16.254 54.936,19.027 50.861,17.025 53.821,20.465 50.235,17.684 
		52.442,21.648 49.49,18.203 50.853,22.529 48.655,18.561 49.118,23.074 47.765,18.744 47.31,23.258 46.855,18.744 45.501,23.074 
		45.965,18.561 43.767,22.529 45.13,18.203 42.178,21.648 44.383,17.684 40.798,20.465 43.757,17.025 39.686,19.027 43.276,16.254 
		38.885,17.395 42.961,15.4 38.43,15.635 42.823,14.502 38.336,13.818 42.869,13.596 38.611,12.021 43.097,12.715 39.243,10.318 
		43.497,11.898 40.205,8.775 44.054,11.18 41.457,7.457 44.743,10.588 42.949,6.42 45.538,10.146 44.62,5.703 46.405,9.875 
		46.4,5.336 	"/>
	<circle class="st2" cx="47.152" cy="14.297" r="10.047"/>
	<g>
		<line class="st8" x1="51.143" y1="26.467" x2="47.307" y2="32.348"/>
		<line class="st8" x1="51.214" y1="28.1" x2="47.307" y2="34.061"/>
		<line class="st8" x1="51.287" y1="29.734" x2="47.307" y2="35.774"/>
		<line class="st8" x1="51.358" y1="31.368" x2="47.307" y2="37.488"/>
		<line class="st8" x1="51.43" y1="33.001" x2="47.307" y2="39.201"/>
		<line class="st8" x1="51.502" y1="34.635" x2="47.307" y2="40.915"/>
		<line class="st8" x1="51.575" y1="36.269" x2="47.307" y2="42.628"/>
		<line class="st8" x1="51.646" y1="37.902" x2="47.307" y2="44.341"/>
		<line class="st8" x1="51.718" y1="39.536" x2="47.307" y2="46.054"/>
		<line class="st8" x1="51.791" y1="41.17" x2="47.306" y2="47.768"/>
		<line class="st8" x1="51.862" y1="42.804" x2="47.307" y2="49.481"/>
		<line class="st8" x1="51.934" y1="44.438" x2="47.307" y2="51.195"/>
		<line class="st8" x1="52.005" y1="46.07" x2="47.307" y2="52.908"/>
		<line class="st8" x1="52.078" y1="47.705" x2="47.307" y2="54.621"/>
		<line class="st8" x1="52.15" y1="49.338" x2="47.307" y2="56.335"/>
		<line class="st8" x1="52.222" y1="50.972" x2="47.307" y2="58.048"/>
		<line class="st8" x1="52.294" y1="52.605" x2="47.306" y2="59.761"/>
		<line class="st8" x1="52.366" y1="54.239" x2="47.307" y2="61.475"/>
		<line class="st8" x1="52.438" y1="55.873" x2="47.307" y2="63.188"/>
		<line class="st8" x1="52.51" y1="57.507" x2="47.306" y2="64.902"/>
		<line class="st8" x1="52.582" y1="59.14" x2="47.306" y2="66.615"/>
		<line class="st8" x1="52.654" y1="60.774" x2="47.307" y2="68.328"/>
		<line class="st8" x1="52.726" y1="62.408" x2="47.306" y2="70.042"/>
		<line class="st8" x1="52.797" y1="64.041" x2="47.307" y2="71.755"/>
		<line class="st8" x1="52.87" y1="65.675" x2="47.307" y2="73.469"/>
		<line class="st8" x1="52.942" y1="67.309" x2="47.306" y2="75.182"/>
		<line class="st8" x1="53.013" y1="68.942" x2="47.307" y2="76.896"/>
		<line class="st8" x1="53.085" y1="70.576" x2="47.307" y2="78.608"/>
		<line class="st8" x1="53.158" y1="72.209" x2="47.307" y2="80.322"/>
		<line class="st8" x1="53.229" y1="73.843" x2="47.306" y2="82.035"/>
		<line class="st8" x1="53.301" y1="75.477" x2="47.307" y2="83.749"/>
		<line class="st8" x1="53.373" y1="77.11" x2="47.307" y2="85.462"/>
		<line class="st8" x1="53.445" y1="78.744" x2="47.307" y2="87.175"/>
		<line class="st8" x1="53.517" y1="80.378" x2="47.307" y2="88.889"/>
		<line class="st8" x1="53.589" y1="82.012" x2="47.307" y2="90.602"/>
		<line class="st8" x1="53.661" y1="83.645" x2="47.307" y2="92.315"/>
		<line class="st8" x1="53.733" y1="85.279" x2="47.307" y2="94.029"/>
		<line class="st8" x1="53.805" y1="86.913" x2="47.307" y2="95.742"/>
		<line class="st8" x1="53.877" y1="88.546" x2="47.307" y2="97.456"/>
		<line class="st8" x1="53.949" y1="90.18" x2="47.307" y2="99.169"/>
		<line class="st8" x1="54.021" y1="91.813" x2="47.307" y2="100.882"/>
		<line class="st8" x1="54.093" y1="93.447" x2="47.307" y2="102.596"/>
		<line class="st8" x1="54.096" y1="93.411" x2="47.389" y2="102.616"/>
		<line class="st8" x1="54.178" y1="93.357" x2="47.551" y2="102.621"/>
		<line class="st8" x1="54.339" y1="93.286" x2="47.791" y2="102.607"/>
		<line class="st8" x1="54.574" y1="93.196" x2="48.105" y2="102.575"/>
		<line class="st8" x1="54.881" y1="93.085" x2="48.491" y2="102.521"/>
		<line class="st8" x1="55.257" y1="92.953" x2="48.946" y2="102.447"/>
		<line class="st8" x1="55.7" y1="92.797" x2="49.468" y2="102.349"/>
		<line class="st8" x1="56.205" y1="92.618" x2="50.052" y2="102.227"/>
		<line class="st8" x1="56.771" y1="92.412" x2="50.696" y2="102.078"/>
		<line class="st8" x1="57.393" y1="92.179" x2="51.398" y2="101.904"/>
		<line class="st8" x1="58.069" y1="91.919" x2="52.154" y2="101.7"/>
		<line class="st8" x1="58.797" y1="91.628" x2="52.96" y2="101.468"/>
		<line class="st8" x1="59.574" y1="91.308" x2="53.816" y2="101.204"/>
		<line class="st8" x1="60.395" y1="90.954" x2="54.717" y2="100.909"/>
		<line class="st8" x1="61.258" y1="90.567" x2="55.66" y2="100.579"/>
		<line class="st8" x1="62.162" y1="90.146" x2="56.642" y2="100.216"/>
		<line class="st8" x1="63.101" y1="89.688" x2="57.661" y2="99.816"/>
		<line class="st8" x1="64.075" y1="89.194" x2="58.713" y2="99.379"/>
		<line class="st8" x1="65.079" y1="88.66" x2="59.796" y2="98.903"/>
		<line class="st8" x1="66.111" y1="88.087" x2="60.906" y2="98.387"/>
		<line class="st8" x1="67.166" y1="87.473" x2="62.042" y2="97.83"/>
		<line class="st8" x1="68.244" y1="86.815" x2="63.199" y2="97.23"/>
		<line class="st8" x1="69.34" y1="86.114" x2="64.375" y2="96.588"/>
		<line class="st8" x1="70.453" y1="85.368" x2="65.566" y2="95.899"/>
		<line class="st8" x1="71.578" y1="84.576" x2="66.77" y2="95.164"/>
		<line class="st8" x1="72.712" y1="83.736" x2="67.984" y2="94.382"/>
		<line class="st8" x1="73.854" y1="82.847" x2="69.206" y2="93.55"/>
		<line class="st8" x1="75" y1="81.908" x2="70.43" y2="92.668"/>
		<line class="st8" x1="76.147" y1="80.917" x2="71.656" y2="91.735"/>
		<line class="st8" x1="77.292" y1="79.873" x2="72.88" y2="90.749"/>
		<line class="st8" x1="78.431" y1="78.774" x2="74.099" y2="89.708"/>
		<line class="st8" x1="79.564" y1="77.622" x2="75.31" y2="88.612"/>
		<line class="st8" x1="80.685" y1="76.411" x2="76.511" y2="87.46"/>
		<line class="st8" x1="81.792" y1="75.142" x2="77.698" y2="86.249"/>
		<line class="st8" x1="82.883" y1="73.814" x2="78.868" y2="84.979"/>
		<line class="st8" x1="83.956" y1="72.426" x2="80.018" y2="83.648"/>
		<line class="st8" x1="85.003" y1="70.976" x2="81.146" y2="82.255"/>
		<line class="st8" x1="86.027" y1="69.462" x2="82.249" y2="80.799"/>
		<line class="st8" x1="87.021" y1="67.883" x2="83.322" y2="79.278"/>
		<line class="st8" x1="87.984" y1="66.24" x2="84.364" y2="77.692"/>
		<line class="st8" x1="88.914" y1="64.529" x2="85.373" y2="76.039"/>
	</g>
	<g>
		<path class="st3" d="M23.266,35.125l4.66,2.064l0.327-3.527C28.253,33.662,25.924,33.662,23.266,35.125z"/>
		<g>
			<g>
				<line class="st7" x1="23.885" y1="34.375" x2="27.525" y2="36.064"/>
				<polygon points="23.944,34.246 27.525,36.064 23.825,34.504 				"/>
			</g>
			<g>
				<line class="st7" x1="23.812" y1="33.773" x2="27.453" y2="35.463"/>
				<polygon points="23.872,33.645 27.453,35.463 23.753,33.902 				"/>
			</g>
			<g>
				<line class="st7" x1="23.886" y1="33.211" x2="27.525" y2="34.9"/>
				<polygon points="23.945,33.082 27.525,34.9 23.826,33.34 				"/>
			</g>
			<g>
				<line class="st7" x1="23.922" y1="32.648" x2="27.562" y2="34.336"/>
				<polygon points="23.981,32.52 27.562,34.336 23.862,32.777 				"/>
			</g>
			<g>
				<line class="st7" x1="23.995" y1="32.158" x2="27.636" y2="33.848"/>
				<polygon points="24.055,32.029 27.636,33.848 23.936,32.287 				"/>
			</g>
		</g>
		<path class="st3" d="M27.884,37.068c-7.245-1.248-11.433,1.125-11.433,1.125l5.086-5.146l-3.614-2.652
			c0,0,3.913-2.217,10.719-1.238L27.884,37.068z"/>
		<g>
			<g>
				<path d="M27.934,36.711c0,0-0.535-0.122-1.36-0.226c-0.413-0.044-0.895-0.099-1.414-0.125c-0.519-0.017-1.074-0.057-1.628-0.03
					c-0.556,0.005-1.111,0.02-1.629,0.079c-0.519,0.049-1.006,0.074-1.415,0.156c-0.824,0.136-1.373,0.226-1.373,0.226
					s0.546-0.107,1.366-0.269c0.408-0.097,0.895-0.138,1.414-0.203c0.518-0.076,1.075-0.108,1.633-0.131
					c0.558-0.044,1.117-0.022,1.641-0.021c0.524,0.01,1.012,0.049,1.431,0.08c0.835,0.078,1.392,0.187,1.392,0.187L27.934,36.711z"
					/>
			</g>
			<g>
				<path d="M28.04,35.751c0,0-0.518-0.131-1.321-0.244c-0.402-0.045-0.872-0.11-1.377-0.135c-0.506-0.023-1.047-0.062-1.589-0.039
					c-0.542-0.001-1.083,0.018-1.589,0.074c-0.506,0.044-0.981,0.073-1.381,0.153c-0.804,0.131-1.34,0.219-1.34,0.219
					s0.533-0.104,1.333-0.263c0.398-0.094,0.873-0.138,1.379-0.198c0.506-0.073,1.049-0.11,1.594-0.127
					c0.544-0.04,1.09-0.021,1.602-0.013s0.988,0.059,1.397,0.091c0.815,0.088,1.356,0.206,1.356,0.206L28.04,35.751z"/>
			</g>
			<g>
				<path d="M28.1,34.541c0,0-0.505-0.106-1.286-0.19c-0.78-0.065-1.828-0.134-2.875-0.076c-0.525,0.008-1.048,0.047-1.537,0.105
					c-0.49,0.047-0.948,0.09-1.334,0.167c-0.778,0.132-1.296,0.219-1.296,0.219s0.516-0.104,1.289-0.263
					c0.385-0.09,0.842-0.148,1.332-0.212c0.489-0.076,1.013-0.132,1.54-0.158c1.052-0.093,2.11-0.061,2.903-0.021
					c0.791,0.058,1.32,0.151,1.32,0.151L28.1,34.541z"/>
			</g>
			<g>
				<path d="M28.284,33.39c0,0-0.43-0.021-1.076-0.051c-0.323-0.026-0.699-0.027-1.1,0.006c-0.402,0.021-0.831,0.043-1.26,0.064
					c-1.72,0.089-3.44,0.177-3.44,0.177s1.72-0.159,3.439-0.318c0.431-0.039,0.862-0.079,1.267-0.116
					c0.405-0.05,0.783-0.064,1.106-0.051c0.647,0.004,1.079,0.006,1.079,0.006L28.284,33.39z"/>
			</g>
			<g>
				<path d="M29.25,32.659c0,0-0.511-0.116-1.279-0.178c-0.385-0.026-0.83-0.116-1.316-0.107c-0.485-0.006-1.003-0.011-1.521-0.017
					c-0.259-0.003-0.519-0.005-0.774-0.008c-0.253,0.025-0.503,0.051-0.745,0.075c-0.484,0.048-0.936,0.093-1.323,0.132
					C21.517,32.634,21,32.686,21,32.686s0.515-0.069,1.287-0.173c0.387-0.052,0.838-0.113,1.321-0.178
					c0.242-0.032,0.492-0.066,0.746-0.101c0.256-0.006,0.516-0.013,0.776-0.019c0.521-0.012,1.042-0.024,1.531-0.035
					c0.489-0.026,0.946,0.049,1.338,0.063c0.79,0.038,1.298,0.136,1.298,0.136L29.25,32.659z"/>
			</g>
			<g>
				<path d="M29.573,31.645c0,0-0.535-0.122-1.36-0.226c-0.413-0.044-0.895-0.099-1.414-0.125c-0.519-0.017-1.074-0.057-1.628-0.03
					c-0.556,0.005-1.111,0.02-1.629,0.079c-0.519,0.049-1.006,0.074-1.415,0.156c-0.824,0.136-1.373,0.226-1.373,0.226
					s0.546-0.107,1.366-0.269c0.408-0.097,0.895-0.138,1.414-0.203c0.518-0.076,1.075-0.108,1.633-0.131
					c0.558-0.044,1.117-0.022,1.641-0.021c0.524,0.01,1.012,0.049,1.431,0.08c0.835,0.078,1.392,0.187,1.392,0.187L29.573,31.645z"
					/>
			</g>
			<g>
				<path d="M29.9,30.631c0,0-0.535-0.122-1.36-0.226c-0.412-0.043-0.895-0.098-1.414-0.124c-0.519-0.017-1.074-0.056-1.628-0.03
					c-0.556,0.006-1.111,0.021-1.629,0.08c-0.519,0.048-1.006,0.074-1.416,0.156c-0.824,0.136-1.373,0.226-1.373,0.226
					s0.546-0.107,1.366-0.269c0.408-0.097,0.895-0.138,1.414-0.203c0.519-0.076,1.075-0.108,1.633-0.132
					c0.558-0.044,1.117-0.022,1.641-0.021c0.524,0.01,1.013,0.049,1.431,0.08c0.836,0.077,1.392,0.186,1.392,0.186L29.9,30.631z"/>
			</g>
			<g>
				<path d="M30.229,29.617c0,0-0.535-0.122-1.36-0.226c-0.412-0.044-0.895-0.099-1.414-0.124c-0.52-0.018-1.074-0.057-1.629-0.031
					c-0.555,0.006-1.111,0.021-1.629,0.08c-0.519,0.049-1.006,0.074-1.415,0.157c-0.824,0.136-1.374,0.226-1.374,0.226
					s0.546-0.107,1.366-0.27c0.408-0.097,0.895-0.138,1.414-0.203c0.519-0.076,1.076-0.108,1.634-0.132
					c0.558-0.044,1.117-0.021,1.641-0.021c0.524,0.01,1.013,0.049,1.432,0.08c0.836,0.078,1.392,0.187,1.392,0.187L30.229,29.617z"
					/>
			</g>
		</g>
		<path class="st3" d="M62.443,90.59c8.412,1.479,13.414-1.383,13.414-1.383l-5.082-3.561l6.699-5.01c0,0-5,2.859-13.406,1.385
			L62.443,90.59z"/>
		<g>
			<polygon class="st1" points="16.979,49.982 14.67,47.604 16.979,45.225 19.287,47.604 			"/>
			<polygon class="st9" points="15.335,47.604 16.979,45.908 18.623,47.604 16.979,49.297 			"/>
		</g>
		<path class="st3" d="M12.359,43.795c0,0,13.631-7.725,35.188,7.055c21.559,14.777,35.774,6.648,35.774,6.648l-1.996,10.58
			c0,0-14.215,8.129-35.774-6.65c-21.558-14.777-35.189-7.055-35.189-7.055L12.359,43.795z"/>
		<path class="st9" d="M72.607,60.84c-8.248,0-16.878-3.051-25.654-9.066c-8.481-5.812-17.014-8.885-24.675-8.885
			c-4.745,0-7.872,1.178-8.967,1.668l-1.511,8.01c1.747-0.607,4.624-1.32,8.481-1.32c8.203,0,16.906,3.115,25.867,9.258
			c8.416,5.77,16.644,8.693,24.46,8.693h0.002c5.168,0,8.604-1.346,9.76-1.877l1.508-7.99C80.005,60.008,76.847,60.84,72.607,60.84z
			 M79.802,66.848c-1.393,0.596-4.568,1.686-9.191,1.686h-0.002c-7.688,0-15.796-2.889-24.104-8.582
			c-9.067-6.219-17.892-9.369-26.223-9.369c-3.26,0-5.84,0.502-7.642,1.023l1.24-6.572c1.286-0.533,4.176-1.482,8.399-1.482
			c7.532,0,15.942,3.035,24.316,8.777c8.882,6.088,17.633,9.174,26.012,9.174c3.607,0,6.455-0.59,8.43-1.193L79.802,66.848z"/>
		<g>
			<polygon class="st1" points="75.914,66.986 73.605,64.607 75.914,62.227 78.222,64.607 			"/>
			<polygon class="st9" points="74.269,64.607 75.914,62.912 77.554,64.607 75.914,66.303 			"/>
		</g>
		<g>
			<polygon class="st1" points="17.246,49.709 14.936,47.33 17.246,44.949 19.553,47.33 			"/>
			<polygon class="st9" points="15.601,47.33 17.246,45.635 18.888,47.33 17.246,49.023 			"/>
		</g>
		<path class="st3" d="M24.766,27.131c0,0,10.121-5.736,26.128,5.236c16.006,10.975,26.561,4.938,26.561,4.938l-1.482,7.855
			c0,0-10.555,6.035-26.56-4.938c-16.008-10.973-26.127-5.238-26.127-5.238L24.766,27.131z"/>
		<path class="st9" d="M69.498,40.289c-6.221,0-12.72-2.291-19.318-6.812c-6.216-4.262-12.457-6.516-18.049-6.516
			c-3.146,0-5.32,0.727-6.227,1.098l-0.917,4.854c1.367-0.395,3.269-0.754,5.661-0.754c6.189,0,12.742,2.342,19.478,6.957
			c6.167,4.229,12.186,6.371,17.891,6.371c3.451,0,5.844-0.834,6.816-1.248l0.91-4.828C74.248,39.867,72.15,40.289,69.498,40.289z
			 M74.269,43.754c-1.037,0.398-3.225,1.068-6.252,1.068c-5.576,0-11.474-2.105-17.535-6.26c-6.843-4.691-13.516-7.068-19.834-7.068
			c-1.701,0-3.322,0.174-4.834,0.52l0.654-3.465c0.955-0.352,2.93-0.924,5.662-0.924c5.464,0,11.582,2.215,17.691,6.404
			c6.707,4.596,13.324,6.926,19.675,6.926c1.91,0,3.729-0.211,5.416-0.629L74.269,43.754z"/>
		<g>
			<polygon class="st1" points="28.154,30.922 27.043,29.777 28.154,28.633 29.266,29.777 			"/>
			<polygon class="st9" points="27.363,29.777 28.154,28.963 28.945,29.777 28.154,30.594 			"/>
		</g>
		<g>
			<polygon class="st1" points="71.99,43.744 70.876,42.598 71.99,41.453 73.099,42.598 			"/>
			<polygon class="st9" points="71.197,42.598 71.99,41.783 72.779,42.598 71.99,43.414 			"/>
		</g>
		<g>
			<g>
				<path d="M63.047,90.09c0,0.001,0.678,0.124,1.712,0.201c0.516,0.059,1.12,0.063,1.768,0.094
					c0.323,0.019,0.658-0.006,0.998-0.008c0.34-0.011,0.687-0.004,1.031-0.03c0.686-0.08,1.381-0.102,2.018-0.227
					c0.317-0.062,0.625-0.123,0.917-0.181c0.289-0.067,0.575-0.088,0.816-0.186c0.986-0.329,1.644-0.549,1.644-0.549
					s-0.652,0.236-1.631,0.592c-0.241,0.104-0.525,0.131-0.814,0.207c-0.291,0.065-0.599,0.134-0.917,0.204
					c-0.636,0.143-1.333,0.182-2.022,0.28c-0.346,0.035-0.694,0.037-1.036,0.057c-0.342,0.011-0.679,0.043-1.005,0.034
					c-0.651-0.015-1.262-0.004-1.783-0.05c-1.043-0.051-1.735-0.158-1.735-0.158L63.047,90.09z"/>
			</g>
			<g>
				<path d="M63.203,88.2c0,0,0.588,0.126,1.49,0.224c0.449,0.062,0.979,0.084,1.543,0.134c0.566,0.003,1.173,0.048,1.777,0.02
					c0.604-0.038,1.213-0.021,1.773-0.114c0.562-0.082,1.096-0.106,1.537-0.219c0.889-0.199,1.48-0.332,1.48-0.332
					s-0.589,0.15-1.472,0.376c-0.439,0.125-0.973,0.165-1.535,0.264c-0.562,0.109-1.173,0.111-1.779,0.167
					c-0.607,0.046-1.218,0.02-1.789,0.032c-0.57-0.033-1.104-0.039-1.56-0.089c-0.913-0.072-1.518-0.183-1.518-0.183L63.203,88.2z"
					/>
			</g>
			<g>
				<path d="M63.366,86.311c0,0,0.5,0.152,1.283,0.29c0.391,0.062,0.85,0.133,1.344,0.177c0.495,0.029,1.023,0.09,1.555,0.07
					c0.53,0.004,1.062,0.001,1.557-0.06c0.495-0.048,0.963-0.066,1.352-0.156c0.786-0.144,1.31-0.239,1.31-0.239
					s-0.521,0.113-1.302,0.282c-0.388,0.104-0.854,0.138-1.351,0.202c-0.496,0.077-1.029,0.099-1.564,0.112
					c-0.534,0.037-1.068-0.006-1.57-0.019c-0.501-0.028-0.968-0.084-1.367-0.134c-0.796-0.112-1.321-0.253-1.321-0.253
					L63.366,86.311z"/>
			</g>
			<g>
				<path d="M63.508,84.416c0,0,0.503,0.123,1.277,0.239c0.387,0.053,0.84,0.113,1.327,0.155c0.488,0.031,1.009,0.087,1.532,0.083
					c0.522,0.013,1.046,0.022,1.535-0.012c0.489-0.025,0.949-0.027,1.338-0.086c0.781-0.09,1.302-0.149,1.302-0.149
					s-0.519,0.077-1.297,0.193c-0.388,0.071-0.848,0.09-1.338,0.132c-0.49,0.051-1.016,0.059-1.542,0.063
					c-0.525,0.021-1.051-0.017-1.544-0.031c-0.493-0.025-0.952-0.071-1.346-0.111c-0.784-0.091-1.306-0.199-1.306-0.199
					L63.508,84.416z"/>
			</g>
			<g>
				<path d="M63.663,82.526c0,0,0.649,0.186,1.653,0.346c0.498,0.103,1.09,0.152,1.72,0.234c0.315,0.041,0.645,0.041,0.978,0.064
					c0.333,0.012,0.672,0.049,1.01,0.041c0.676-0.037,1.359-0.004,1.989-0.099c0.314-0.045,0.619-0.088,0.908-0.128
					c0.286-0.051,0.567-0.055,0.809-0.144c0.98-0.281,1.634-0.469,1.634-0.469s-0.649,0.205-1.624,0.512
					c-0.24,0.095-0.521,0.106-0.807,0.165c-0.29,0.049-0.595,0.1-0.91,0.152c-0.631,0.111-1.317,0.096-1.998,0.152
					c-0.341,0.017-0.682-0.012-1.019-0.016c-0.335-0.015-0.668-0.006-0.986-0.039c-0.637-0.066-1.235-0.102-1.74-0.191
					c-1.018-0.135-1.685-0.307-1.685-0.307L63.663,82.526z"/>
			</g>
		</g>
		<path class="st3" d="M62.443,90.59l4.947-4.059c0,0-2.014,1.156-4.363,1.438L62.443,90.59z"/>
		<g>
			<g>
				<line class="st7" x1="66.406" y1="86.916" x2="63.226" y2="89.406"/>
				<polygon points="66.494,87.027 63.226,89.406 66.318,86.805 				"/>
			</g>
			<g>
				<line class="st7" x1="66.347" y1="86.312" x2="63.166" y2="88.805"/>
				<polygon points="66.435,86.424 63.166,88.805 66.259,86.201 				"/>
			</g>
			<g>
				<line class="st7" x1="66.152" y1="85.783" x2="62.972" y2="88.271"/>
				<polygon points="66.239,85.895 62.972,88.271 66.065,85.672 				"/>
			</g>
			<g>
				<line class="st7" x1="65.994" y1="85.242" x2="62.814" y2="87.732"/>
				<polygon points="66.082,85.354 62.814,87.732 65.906,85.131 				"/>
			</g>
			<g>
				<line class="st7" x1="65.816" y1="84.783" x2="62.636" y2="87.273"/>
				<polygon points="65.904,84.895 62.636,87.273 65.728,84.672 				"/>
			</g>
		</g>
		<path class="st3" d="M16.185,68.502c0,0,10.121-5.734,26.127,5.238c16.005,10.973,26.562,4.936,26.562,4.936l-1.484,7.855
			c0,0-10.552,6.035-26.56-4.938c-16.006-10.973-26.127-5.238-26.127-5.238L16.185,68.502z"/>
		<path class="st9" d="M60.917,81.443c-6.179,0-12.639-2.279-19.201-6.779c-6.252-4.285-12.533-6.551-18.166-6.551
			c-3.3,0-5.526,0.779-6.414,1.158l-1.004,5.324c1.342-0.418,3.349-0.848,5.936-0.848c6.146,0,12.659,2.33,19.358,6.922
			c6.203,4.25,12.262,6.406,18.01,6.406c3.609,0,6.059-0.895,7-1.309l1.004-5.307C65.992,80.936,63.781,81.443,60.917,81.443z
			 M65.873,85.287c-1.047,0.418-3.283,1.125-6.436,1.125c-5.619,0-11.557-2.117-17.654-6.295
			c-6.807-4.668-13.439-7.035-19.715-7.035c-2.107,0-3.837,0.283-5.106,0.596l0.74-3.922c0.966-0.369,2.99-0.979,5.849-0.979
			c5.505,0,11.664,2.227,17.809,6.439c6.669,4.572,13.25,6.891,19.558,6.891c2.357,0,4.287-0.34,5.688-0.711L65.873,85.287z"/>
		<g>
			<polygon class="st1" points="19.773,72.334 18.662,71.189 19.773,70.043 20.884,71.189 			"/>
			<polygon class="st9" points="18.982,71.189 19.773,70.373 20.564,71.189 19.773,72.004 			"/>
		</g>
		<g>
			<polygon class="st1" points="63.607,85.154 62.496,84.01 63.607,82.865 64.718,84.01 			"/>
			<polygon class="st9" points="62.816,84.01 63.607,83.193 64.398,84.01 63.607,84.824 			"/>
		</g>
	</g>
	<g>
		<path class="st4" d="M86.796,48.086c0,0,8.559,6.328,7.643,16.23"/>
		<path class="st4" d="M87.205,49.198c0,0,8.201,5.961,7.225,15.327"/>
		<path class="st4" d="M87.613,50.31c0,0,7.844,5.595,6.809,14.424"/>
		<path class="st4" d="M88.021,51.421c0,0,7.486,5.228,6.391,13.521"/>
		<path class="st4" d="M88.429,52.533c0,0,7.129,4.861,5.974,12.618"/>
		<path class="st4" d="M88.838,53.646c0,0,6.771,4.495,5.556,11.714"/>
		<path class="st4" d="M89.247,54.757c0,0,6.413,4.128,5.138,10.811"/>
		<path class="st4" d="M89.655,55.869c0,0,6.056,3.762,4.721,9.908"/>
		<path class="st4" d="M90.064,56.981c0,0,5.697,3.395,4.303,9.004"/>
		<path class="st4" d="M90.472,58.093c0,0,5.34,3.028,3.885,8.102"/>
		<path class="st4" d="M90.88,59.205c0,0,4.982,2.662,3.468,7.198"/>
		<path class="st4" d="M91.289,60.316c0,0,4.625,2.295,3.051,6.295"/>
	</g>
	<path class="st8" d="M39.395,93.141l7.804,9.441c0,0-35.148-2.557-42.821-42.885"/>
	<line class="st2" x1="41.952" y1="40.811" x2="24.837" y2="40.811"/>
</g>
</svg>
