<?xml version="1.0" encoding="utf-8"?>
<!-- Generator: Adobe Illustrator 16.0.0, SVG Export Plug-In . SVG Version: 6.00 Build 0)  -->
<!DOCTYPE svg PUBLIC "-//W3C//DTD SVG 1.1//EN" "http://www.w3.org/Graphics/SVG/1.1/DTD/svg11.dtd">
<svg version="1.1" id="Layer_1" xmlns="http://www.w3.org/2000/svg" xmlns:xlink="http://www.w3.org/1999/xlink" x="0px" y="0px"
	 width="190.601px" height="40.637px" viewBox="0 0 190.601 40.637" style="enable-background:new 0 0 190.601 40.637;"
	 xml:space="preserve">
<style type="text/css">
<![CDATA[
	.st0{fill:none;stroke:#F9F8F7;stroke-miterlimit:10;}
]]>
</style>
<g>
	<path class="st0" d="M2.145,31.125v-1.731c6.434-5.965,9.651-11.45,9.651-16.456c0-1.421-0.292-2.557-0.876-3.408
		c-0.584-0.85-1.364-1.275-2.341-1.275c-0.798,0-1.48,0.289-2.046,0.866s-0.849,1.242-0.849,1.995c0,0.887,0.22,1.665,0.662,2.333
		c0.095,0.146,0.143,0.255,0.143,0.328c0,0.134-0.143,0.255-0.429,0.364c-0.191,0.073-0.673,0.28-1.448,0.62
		c-0.75,0.34-1.215,0.51-1.394,0.51c-0.214,0-0.459-0.337-0.733-1.011c-0.274-0.674-0.411-1.4-0.411-2.178
		c0-1.773,0.76-3.225,2.279-4.355c1.52-1.13,3.399-1.695,5.639-1.695c2.204,0,4.054,0.61,5.55,1.832
		c1.495,1.221,2.243,2.815,2.243,4.783c0,1.167-0.253,2.296-0.759,3.39c-0.507,1.093-1.719,2.779-3.637,5.057
		c-1.918,2.278-3.789,4.383-5.612,6.314h10.241l-0.911,5.211H15.21c0.072-0.255,0.107-0.486,0.107-0.692
		c0-0.353-0.089-0.574-0.268-0.665s-0.536-0.137-1.072-0.137H2.145z"/>
	<path class="st0" d="M21.198,18.605c0-4.106,0.786-7.228,2.359-9.367c1.573-2.138,3.616-3.207,6.131-3.207
		c2.442,0,4.465,1.057,6.068,3.171s2.404,5.188,2.404,9.221c0,4.556-0.777,7.899-2.333,10.032c-1.555,2.132-3.595,3.198-6.122,3.198
		c-1.787,0-3.357-0.571-4.709-1.713c-1.353-1.142-2.324-2.608-2.914-4.401C21.493,23.748,21.198,21.436,21.198,18.605z
		 M27.203,18.642c0,3.948,0.161,6.746,0.482,8.392s1.024,2.469,2.109,2.469c0.93,0,1.558-0.662,1.886-1.986s0.492-4.228,0.492-8.711
		c0-4.251-0.176-7.098-0.527-8.537c-0.352-1.439-1.022-2.16-2.011-2.16c-0.882,0-1.507,0.684-1.877,2.05
		C27.388,11.526,27.203,14.354,27.203,18.642z"/>
	<path class="st0" d="M41.02,18.605c0-4.106,0.786-7.228,2.359-9.367c1.573-2.138,3.616-3.207,6.131-3.207
		c2.442,0,4.465,1.057,6.068,3.171s2.404,5.188,2.404,9.221c0,4.556-0.777,7.899-2.333,10.032c-1.555,2.132-3.595,3.198-6.122,3.198
		c-1.787,0-3.357-0.571-4.709-1.713c-1.353-1.142-2.324-2.608-2.914-4.401C41.314,23.748,41.02,21.436,41.02,18.605z M47.025,18.642
		c0,3.948,0.161,6.746,0.482,8.392s1.024,2.469,2.109,2.469c0.93,0,1.558-0.662,1.886-1.986s0.492-4.228,0.492-8.711
		c0-4.251-0.176-7.098-0.527-8.537c-0.352-1.439-1.022-2.16-2.011-2.16c-0.882,0-1.507,0.684-1.877,2.05
		C47.209,11.526,47.025,14.354,47.025,18.642z"/>
	<path class="st0" d="M63.611,31.125v-2.023h0.894c0.739,0,1.293-0.127,1.663-0.382c0.369-0.255,0.554-0.863,0.554-1.822v-13.85
		c0-1.312-0.173-2.125-0.518-2.442c-0.346-0.315-1.323-0.474-2.931-0.474v-1.95c3.134-0.134,5.594-0.869,7.381-2.205h1.895v20.811
		c0,0.838,0.134,1.434,0.402,1.786c0.268,0.353,0.849,0.528,1.743,0.528h0.894v2.023H63.611z"/>
	<path class="st0" d="M94.657,6.032h5.094l-12.94,25.621h-5.094L94.657,6.032z"/>
	<path class="st0" d="M104.309,31.125v-1.731c6.434-5.965,9.651-11.45,9.651-16.456c0-1.421-0.292-2.557-0.876-3.408
		c-0.584-0.85-1.364-1.275-2.341-1.275c-0.798,0-1.48,0.289-2.046,0.866s-0.849,1.242-0.849,1.995c0,0.887,0.22,1.665,0.662,2.333
		c0.095,0.146,0.143,0.255,0.143,0.328c0,0.134-0.143,0.255-0.429,0.364c-0.191,0.073-0.673,0.28-1.448,0.62
		c-0.75,0.34-1.215,0.51-1.394,0.51c-0.214,0-0.459-0.337-0.733-1.011c-0.274-0.674-0.411-1.4-0.411-2.178
		c0-1.773,0.76-3.225,2.279-4.355c1.52-1.13,3.399-1.695,5.639-1.695c2.204,0,4.054,0.61,5.55,1.832
		c1.495,1.221,2.243,2.815,2.243,4.783c0,1.167-0.253,2.296-0.759,3.39c-0.507,1.093-1.719,2.779-3.637,5.057
		c-1.918,2.278-3.789,4.383-5.612,6.314h10.241l-0.911,5.211h-1.895c0.072-0.255,0.107-0.486,0.107-0.692
		c0-0.353-0.089-0.574-0.268-0.665s-0.536-0.137-1.072-0.137H104.309z"/>
	<path class="st0" d="M123.362,18.605c0-4.106,0.786-7.228,2.359-9.367c1.573-2.138,3.616-3.207,6.131-3.207
		c2.442,0,4.465,1.057,6.068,3.171s2.404,5.188,2.404,9.221c0,4.556-0.777,7.899-2.333,10.032c-1.555,2.132-3.595,3.198-6.122,3.198
		c-1.787,0-3.357-0.571-4.709-1.713c-1.353-1.142-2.324-2.608-2.914-4.401C123.657,23.748,123.362,21.436,123.362,18.605z
		 M129.367,18.642c0,3.948,0.161,6.746,0.482,8.392s1.024,2.469,2.109,2.469c0.93,0,1.558-0.662,1.886-1.986
		s0.492-4.228,0.492-8.711c0-4.251-0.176-7.098-0.527-8.537c-0.352-1.439-1.022-2.16-2.011-2.16c-0.882,0-1.507,0.684-1.877,2.05
		C129.552,11.526,129.367,14.354,129.367,18.642z"/>
	<path class="st0" d="M143.183,18.605c0-4.106,0.786-7.228,2.359-9.367c1.573-2.138,3.616-3.207,6.131-3.207
		c2.442,0,4.465,1.057,6.068,3.171s2.404,5.188,2.404,9.221c0,4.556-0.777,7.899-2.333,10.032c-1.555,2.132-3.595,3.198-6.122,3.198
		c-1.787,0-3.357-0.571-4.709-1.713c-1.353-1.142-2.324-2.608-2.914-4.401C143.478,23.748,143.183,21.436,143.183,18.605z
		 M149.188,18.642c0,3.948,0.161,6.746,0.482,8.392s1.024,2.469,2.109,2.469c0.93,0,1.558-0.662,1.886-1.986
		s0.492-4.228,0.492-8.711c0-4.251-0.176-7.098-0.527-8.537c-0.352-1.439-1.022-2.16-2.011-2.16c-0.882,0-1.507,0.684-1.877,2.05
		C149.373,11.526,149.188,14.354,149.188,18.642z"/>
	<path class="st0" d="M173.639,16.564c1.561,0.037,2.896,0.58,4.004,1.631c1.108,1.051,1.662,2.524,1.662,4.419
		c0,2.722-1.013,4.908-3.039,6.561c-2.026,1.652-4.475,2.478-7.346,2.478c-1.799,0-3.283-0.349-4.451-1.048
		c-1.168-0.698-1.751-1.612-1.751-2.742c0-0.705,0.241-1.272,0.724-1.704c0.483-0.431,1.01-0.647,1.582-0.647
		s1.04,0.183,1.403,0.547s0.7,0.96,1.01,1.786c0.417,1.154,1.108,1.731,2.074,1.731c1.132,0,2.046-0.434,2.743-1.303
		c0.697-0.868,1.046-2.444,1.046-4.729c0-1.555-0.107-2.752-0.322-3.59c-0.214-0.838-0.709-1.257-1.483-1.257
		c-0.524,0-1.061,0.279-1.609,0.838c-0.441,0.45-0.834,0.674-1.18,0.674c-0.298,0-0.539-0.133-0.724-0.401
		c-0.185-0.267-0.277-0.522-0.277-0.765c0-0.292,0.092-0.541,0.277-0.747c0.185-0.207,0.617-0.541,1.296-1.002
		c2.574-1.75,3.86-3.657,3.86-5.722c0-1.081-0.274-1.904-0.822-2.469c-0.548-0.565-1.209-0.847-1.984-0.847
		c-0.715,0-1.364,0.24-1.948,0.72c-0.584,0.48-0.876,1.054-0.876,1.722c0,0.583,0.226,1.124,0.679,1.622
		c0.155,0.183,0.232,0.334,0.232,0.456c0,0.109-0.51,0.389-1.528,0.838c-1.019,0.45-1.659,0.674-1.921,0.674
		c-0.37,0-0.67-0.304-0.902-0.911c-0.232-0.607-0.349-1.166-0.349-1.676c0-1.592,0.831-2.934,2.493-4.027s3.548-1.64,5.657-1.64
		c1.847,0,3.447,0.407,4.799,1.221c1.352,0.814,2.028,1.926,2.028,3.335c0,1.239-0.509,2.387-1.528,3.444
		C176.15,15.088,174.973,15.933,173.639,16.564z"/>
</g>
</svg>
