<?xml version="1.0" encoding="utf-8"?>
<!-- Generator: Adobe Illustrator 16.0.0, SVG Export Plug-In . SVG Version: 6.00 Build 0)  -->
<!DOCTYPE svg PUBLIC "-//W3C//DTD SVG 1.1//EN" "http://www.w3.org/Graphics/SVG/1.1/DTD/svg11.dtd">
<svg version="1.1" id="Layer_1" xmlns="http://www.w3.org/2000/svg" xmlns:xlink="http://www.w3.org/1999/xlink" x="0px" y="0px"
	 width="255.145px" height="33.019px" viewBox="0 0 255.145 33.019" style="enable-background:new 0 0 255.145 33.019;"
	 xml:space="preserve">
<style type="text/css">
<![CDATA[
	.st0{fill:#FFFFFF;}
]]>
</style>
<g>
	<path class="st0" d="M66.512,24.234v-1.135c4.218-3.911,6.328-7.507,6.328-10.789c0-0.932-0.191-1.676-0.574-2.234
		S71.371,9.24,70.73,9.24c-0.523,0-0.971,0.189-1.342,0.567c-0.371,0.378-0.557,0.814-0.557,1.309c0,0.582,0.145,1.091,0.434,1.529
		c0.062,0.095,0.094,0.167,0.094,0.215c0,0.088-0.094,0.167-0.281,0.239c-0.125,0.048-0.441,0.184-0.949,0.406
		c-0.492,0.223-0.797,0.334-0.914,0.334c-0.141,0-0.301-0.221-0.48-0.663c-0.18-0.442-0.27-0.917-0.27-1.428
		c0-1.163,0.498-2.114,1.494-2.855c0.996-0.741,2.228-1.111,3.697-1.111c1.445,0,2.658,0.4,3.638,1.201
		c0.98,0.801,1.471,1.846,1.471,3.136c0,0.765-0.166,1.505-0.498,2.222s-1.127,1.822-2.384,3.315
		c-1.258,1.493-2.484,2.873-3.68,4.14h6.714l-0.598,3.417h-1.242c0.047-0.167,0.07-0.318,0.07-0.454
		c0-0.231-0.059-0.376-0.175-0.436c-0.117-0.06-0.352-0.09-0.703-0.09H66.512z"/>
	<path class="st0" d="M79.003,16.026c0-2.692,0.516-4.739,1.547-6.141c1.031-1.402,2.371-2.103,4.019-2.103
		c1.602,0,2.927,0.693,3.978,2.079c1.051,1.386,1.576,3.401,1.576,6.045c0,2.987-0.51,5.179-1.529,6.577
		c-1.019,1.397-2.357,2.097-4.013,2.097c-1.172,0-2.201-0.375-3.088-1.123s-1.523-1.71-1.91-2.885S79.003,17.882,79.003,16.026z
		 M82.94,16.05c0,2.588,0.105,4.422,0.316,5.501c0.211,1.08,0.672,1.619,1.383,1.619c0.609,0,1.021-0.434,1.236-1.302
		c0.215-0.868,0.322-2.771,0.322-5.71c0-2.788-0.115-4.653-0.346-5.597s-0.67-1.416-1.318-1.416c-0.578,0-0.988,0.448-1.23,1.344
		S82.94,13.239,82.94,16.05z"/>
	<path class="st0" d="M93.815,24.234v-1.326h0.586c0.484,0,0.847-0.083,1.089-0.251c0.242-0.167,0.363-0.565,0.363-1.194v-9.08
		c0-0.86-0.113-1.394-0.34-1.601s-0.867-0.311-1.921-0.311V9.192c2.054-0.087,3.667-0.569,4.839-1.445h1.242v13.644
		c0,0.549,0.088,0.94,0.264,1.171s0.557,0.346,1.142,0.346h0.586v1.326H93.815z"/>
	<path class="st0" d="M109.364,14.485c0.672-0.375,1.395-0.562,2.168-0.562c1.289,0,2.406,0.436,3.351,1.308
		s1.418,2.132,1.418,3.781c0,1.808-0.559,3.188-1.676,4.14s-2.343,1.428-3.679,1.428c-1.555,0-2.873-0.613-3.955-1.84
		c-1.083-1.227-1.623-2.975-1.623-5.245c0-1.68,0.273-3.285,0.82-4.814c0.546-1.529,1.429-2.728,2.648-3.596
		s2.527-1.302,3.926-1.302c0.906,0,1.664,0.185,2.273,0.556c0.609,0.37,0.914,0.822,0.914,1.356c0,0.351-0.131,0.671-0.393,0.962
		c-0.262,0.291-0.584,0.436-0.967,0.436c-0.508,0-1.007-0.366-1.5-1.099c-0.352-0.51-0.789-0.765-1.312-0.765
		c-0.672,0-1.209,0.438-1.611,1.314C109.765,11.419,109.497,12.733,109.364,14.485z M109.153,19.18c0,1.434,0.141,2.467,0.422,3.101
		c0.281,0.633,0.723,0.95,1.324,0.95c0.523,0,0.904-0.247,1.143-0.741s0.357-1.43,0.357-2.808c0-1.84-0.143-3.033-0.428-3.578
		s-0.697-0.818-1.236-0.818c-0.359,0-0.668,0.131-0.926,0.394c-0.258,0.263-0.432,0.607-0.521,1.034
		C109.198,17.139,109.153,17.962,109.153,19.18z"/>
	<path class="st0" d="M127.164,7.783h3.34l-8.484,16.798h-3.339L127.164,7.783z"/>
	<path class="st0" d="M133.492,24.234v-1.135c4.218-3.911,6.328-7.507,6.328-10.789c0-0.932-0.191-1.676-0.574-2.234
		s-0.895-0.836-1.535-0.836c-0.523,0-0.971,0.189-1.342,0.567c-0.371,0.378-0.557,0.814-0.557,1.309
		c0,0.582,0.145,1.091,0.434,1.529c0.062,0.095,0.094,0.167,0.094,0.215c0,0.088-0.094,0.167-0.281,0.239
		c-0.125,0.048-0.441,0.184-0.949,0.406c-0.492,0.223-0.797,0.334-0.914,0.334c-0.141,0-0.301-0.221-0.48-0.663
		c-0.18-0.442-0.27-0.917-0.27-1.428c0-1.163,0.498-2.114,1.494-2.855c0.996-0.741,2.228-1.111,3.697-1.111
		c1.445,0,2.658,0.4,3.638,1.201c0.98,0.801,1.471,1.846,1.471,3.136c0,0.765-0.166,1.505-0.498,2.222s-1.127,1.822-2.384,3.315
		c-1.258,1.493-2.484,2.873-3.68,4.14h6.714l-0.598,3.417h-1.242c0.047-0.167,0.07-0.318,0.07-0.454
		c0-0.231-0.059-0.376-0.175-0.436c-0.117-0.06-0.352-0.09-0.703-0.09H133.492z"/>
	<path class="st0" d="M145.983,16.026c0-2.692,0.516-4.739,1.547-6.141c1.031-1.402,2.371-2.103,4.019-2.103
		c1.602,0,2.927,0.693,3.978,2.079c1.051,1.386,1.576,3.401,1.576,6.045c0,2.987-0.51,5.179-1.529,6.577
		c-1.019,1.397-2.357,2.097-4.013,2.097c-1.172,0-2.201-0.375-3.088-1.123s-1.523-1.71-1.91-2.885S145.983,17.882,145.983,16.026z
		 M149.92,16.05c0,2.588,0.105,4.422,0.316,5.501c0.211,1.08,0.672,1.619,1.383,1.619c0.609,0,1.021-0.434,1.236-1.302
		c0.215-0.868,0.322-2.771,0.322-5.71c0-2.788-0.115-4.653-0.346-5.597s-0.67-1.416-1.318-1.416c-0.578,0-0.988,0.448-1.23,1.344
		S149.92,13.239,149.92,16.05z"/>
	<path class="st0" d="M160.794,24.234v-1.326h0.586c0.484,0,0.847-0.083,1.089-0.251c0.242-0.167,0.363-0.565,0.363-1.194v-9.08
		c0-0.86-0.113-1.394-0.34-1.601s-0.867-0.311-1.921-0.311V9.192c2.054-0.087,3.667-0.569,4.839-1.445h1.242v13.644
		c0,0.549,0.088,0.94,0.264,1.171s0.557,0.346,1.142,0.346h0.586v1.326H160.794z"/>
	<path class="st0" d="M180.621,10.997h-5.449c-0.547,0-0.931,0.072-1.154,0.215c-0.223,0.144-0.409,0.494-0.557,1.052h-1.277
		l1.57-4.911h1.289c-0.023,0.096-0.035,0.175-0.035,0.239c0,0.263,0.223,0.394,0.668,0.394h7.371l-4.441,14.384
		c-0.273,0.884-0.557,1.474-0.85,1.768c-0.293,0.295-0.674,0.442-1.143,0.442c-0.477,0-0.877-0.13-1.201-0.389
		s-0.486-0.607-0.486-1.045c0-0.382,0.277-1.131,0.832-2.246L180.621,10.997z"/>
</g>
</svg>
