<?xml version="1.0" encoding="utf-8"?>
<!-- Generator: Adobe Illustrator 16.0.0, SVG Export Plug-In . SVG Version: 6.00 Build 0)  -->
<!DOCTYPE svg PUBLIC "-//W3C//DTD SVG 1.1//EN" "http://www.w3.org/Graphics/SVG/1.1/DTD/svg11.dtd">
<svg version="1.1" id="Layer_1" xmlns="http://www.w3.org/2000/svg" xmlns:xlink="http://www.w3.org/1999/xlink" x="0px" y="0px"
	 width="255.145px" height="33.019px" viewBox="0 0 255.145 33.019" style="enable-background:new 0 0 255.145 33.019;"
	 xml:space="preserve">
<style type="text/css">
<![CDATA[
	.st0{fill:#FCFBFA;}
	.st1{fill:#FFFEFD;}
	.st2{fill:#F9F9F9;stroke:#F9F9F9;stroke-width:0.2835;stroke-miterlimit:10;}
]]>
</style>
<g>
	<path class="st1" d="M1.086,11.75V1.901h3.3c0.269,0,0.532,0.007,0.792,0.021s0.514,0.046,0.765,0.096
		c0.25,0.05,0.494,0.125,0.731,0.226C6.911,2.344,7.142,2.476,7.365,2.64c0.322,0.237,0.585,0.526,0.792,0.869
		c0.206,0.342,0.369,0.702,0.49,1.08c0.121,0.379,0.206,0.762,0.255,1.149C8.95,6.126,8.975,6.483,8.975,6.812
		c0,0.328-0.02,0.661-0.061,0.998C8.875,8.148,8.81,8.479,8.72,8.802c-0.089,0.324-0.208,0.634-0.355,0.93
		c-0.147,0.296-0.333,0.568-0.557,0.814c-0.224,0.255-0.468,0.46-0.731,0.615c-0.264,0.155-0.541,0.276-0.832,0.363
		c-0.291,0.086-0.593,0.146-0.906,0.178c-0.313,0.032-0.63,0.048-0.953,0.048H1.086z M1.999,10.956h2.187
		c0.412,0,0.798-0.025,1.161-0.075c0.362-0.05,0.731-0.175,1.107-0.376c0.322-0.164,0.585-0.388,0.792-0.67
		c0.206-0.282,0.369-0.59,0.489-0.923C7.855,8.579,7.94,8.23,7.989,7.865C8.038,7.5,8.063,7.149,8.063,6.812
		c0-0.356-0.022-0.718-0.067-1.087c-0.045-0.37-0.13-0.721-0.255-1.053c-0.125-0.333-0.295-0.638-0.51-0.917
		C7.017,3.477,6.739,3.247,6.399,3.064C6.113,2.909,5.773,2.809,5.38,2.763C4.986,2.718,4.588,2.695,4.186,2.695H1.999V10.956z"/>
	<path class="st1" d="M10.732,3.119V1.901h0.885v1.217H10.732z M10.772,11.75V4.665h0.805v7.085H10.772z"/>
	<path class="st1" d="M14.529,14.54h-0.805V4.665h0.805v1.245h0.027c0.116-0.228,0.266-0.433,0.449-0.616
		c0.184-0.182,0.385-0.333,0.604-0.451c0.219-0.119,0.445-0.21,0.677-0.274c0.232-0.063,0.46-0.096,0.685-0.096
		c0.563,0,1.042,0.096,1.435,0.288c0.394,0.191,0.718,0.454,0.973,0.786c0.255,0.333,0.44,0.728,0.557,1.183
		c0.116,0.456,0.174,0.944,0.174,1.464c0,0.492-0.063,0.966-0.188,1.422c-0.125,0.456-0.315,0.855-0.57,1.197
		s-0.577,0.616-0.966,0.821s-0.848,0.308-1.375,0.308c-0.492,0-0.964-0.112-1.416-0.335c-0.452-0.224-0.807-0.554-1.066-0.992V14.54
		z M14.529,8.234c0,0.401,0.054,0.782,0.161,1.142s0.262,0.675,0.463,0.944s0.447,0.483,0.738,0.643
		c0.291,0.16,0.619,0.24,0.986,0.24c0.411,0,0.771-0.084,1.08-0.253c0.309-0.168,0.561-0.398,0.758-0.69s0.34-0.631,0.43-1.019
		c0.089-0.388,0.125-0.805,0.107-1.251c0-0.447-0.06-0.841-0.181-1.183c-0.121-0.342-0.288-0.631-0.503-0.869
		s-0.465-0.417-0.751-0.541s-0.599-0.185-0.939-0.185c-0.375,0-0.711,0.078-1.006,0.232c-0.295,0.155-0.542,0.367-0.738,0.636
		s-0.347,0.588-0.449,0.958C14.58,7.407,14.529,7.806,14.529,8.234z"/>
	<path class="st1" d="M21.947,11.75V1.901h0.805v9.848H21.947z"/>
	<path class="st1" d="M27.568,11.941c-0.447-0.009-0.865-0.091-1.254-0.246s-0.729-0.388-1.02-0.698
		c-0.291-0.31-0.521-0.697-0.691-1.163c-0.17-0.465-0.255-1.007-0.255-1.627c0-0.52,0.067-1.005,0.201-1.457
		c0.134-0.451,0.335-0.846,0.604-1.183c0.268-0.337,0.604-0.604,1.006-0.8c0.402-0.196,0.872-0.294,1.409-0.294
		c0.545,0,1.02,0.098,1.422,0.294c0.403,0.196,0.738,0.46,1.006,0.793c0.269,0.333,0.467,0.728,0.597,1.183
		c0.129,0.456,0.194,0.944,0.194,1.464c0,0.565-0.076,1.076-0.228,1.532c-0.152,0.456-0.369,0.848-0.65,1.176
		c-0.282,0.329-0.622,0.582-1.02,0.759S28.051,11.941,27.568,11.941z M29.93,8.207c0-0.419-0.045-0.812-0.134-1.176
		s-0.228-0.682-0.416-0.951c-0.188-0.269-0.429-0.481-0.724-0.636c-0.295-0.155-0.658-0.232-1.087-0.232
		c-0.42,0-0.78,0.084-1.08,0.253c-0.3,0.169-0.543,0.392-0.731,0.67s-0.327,0.597-0.416,0.958s-0.134,0.731-0.134,1.115
		c0,0.438,0.052,0.841,0.154,1.21c0.103,0.369,0.253,0.686,0.45,0.951s0.443,0.47,0.738,0.615c0.295,0.146,0.635,0.219,1.02,0.219
		c0.42,0,0.78-0.084,1.08-0.253c0.299-0.168,0.543-0.394,0.731-0.677c0.188-0.283,0.327-0.602,0.416-0.958
		C29.885,8.959,29.93,8.59,29.93,8.207z M26.536,3.898h-0.872l1.529-1.901h0.899l1.516,1.901h-0.872l-1.1-1.395L26.536,3.898z"/>
	<path class="st1" d="M32.961,11.75h-0.805V4.665h0.805v1.067h0.027c0.206-0.411,0.5-0.723,0.885-0.937s0.805-0.322,1.261-0.322
		c0.322,0,0.595,0.037,0.818,0.109c0.224,0.073,0.414,0.171,0.57,0.294C36.68,5,36.81,5.143,36.912,5.307
		c0.103,0.164,0.19,0.342,0.262,0.534c0.232-0.465,0.543-0.809,0.933-1.033c0.389-0.224,0.833-0.335,1.334-0.335
		c0.474,0,0.852,0.08,1.134,0.24s0.499,0.369,0.651,0.629c0.152,0.26,0.252,0.559,0.302,0.896c0.049,0.337,0.074,0.684,0.074,1.04
		v4.473h-0.805V6.853c0-0.511-0.105-0.912-0.315-1.204c-0.21-0.292-0.602-0.438-1.174-0.438c-0.295,0-0.579,0.066-0.852,0.198
		c-0.273,0.132-0.512,0.335-0.718,0.609c-0.089,0.119-0.163,0.258-0.221,0.417c-0.059,0.16-0.105,0.326-0.141,0.5
		s-0.06,0.347-0.074,0.52c-0.013,0.173-0.02,0.333-0.02,0.479v3.816h-0.805V6.853c0-0.511-0.105-0.912-0.315-1.204
		c-0.21-0.292-0.602-0.438-1.174-0.438c-0.295,0-0.579,0.066-0.852,0.198c-0.273,0.132-0.512,0.335-0.718,0.609
		c-0.089,0.119-0.163,0.258-0.221,0.417c-0.059,0.16-0.105,0.326-0.141,0.5s-0.06,0.347-0.074,0.52
		c-0.013,0.173-0.02,0.333-0.02,0.479V11.75z"/>
	<path class="st1" d="M43.936,8.398c0,0.383,0.049,0.746,0.147,1.087c0.098,0.342,0.244,0.638,0.436,0.889s0.436,0.451,0.731,0.602
		c0.295,0.15,0.635,0.226,1.02,0.226c0.528,0,0.979-0.142,1.355-0.424c0.376-0.283,0.626-0.684,0.751-1.204h0.899
		c-0.099,0.337-0.228,0.65-0.389,0.937s-0.362,0.538-0.604,0.752c-0.242,0.214-0.528,0.381-0.859,0.499s-0.715,0.178-1.154,0.178
		c-0.554,0-1.033-0.096-1.435-0.287c-0.403-0.191-0.733-0.454-0.993-0.787c-0.259-0.333-0.452-0.725-0.577-1.176
		c-0.125-0.451-0.188-0.937-0.188-1.457c0-0.52,0.074-1.007,0.222-1.464c0.147-0.456,0.357-0.854,0.63-1.197
		c0.273-0.342,0.606-0.611,1-0.807c0.394-0.196,0.84-0.294,1.341-0.294c0.957,0,1.708,0.335,2.254,1.005
		c0.545,0.67,0.814,1.644,0.805,2.92H43.936z M48.47,7.714c0-0.346-0.047-0.672-0.141-0.978c-0.094-0.305-0.233-0.569-0.416-0.793
		S47.5,5.542,47.222,5.41c-0.277-0.132-0.595-0.198-0.953-0.198c-0.357,0-0.673,0.068-0.946,0.205
		c-0.272,0.137-0.505,0.319-0.697,0.547c-0.192,0.228-0.347,0.492-0.463,0.793c-0.116,0.301-0.192,0.621-0.228,0.958H48.47z"/>
	<path class="st1" d="M55.097,9.534c0.125,0.611,0.351,1.042,0.677,1.292c0.327,0.251,0.794,0.376,1.402,0.376
		c0.295,0,0.55-0.037,0.765-0.11c0.214-0.073,0.391-0.171,0.53-0.294s0.244-0.262,0.315-0.417c0.071-0.155,0.107-0.319,0.107-0.493
		c0-0.346-0.109-0.604-0.329-0.772c-0.219-0.169-0.494-0.301-0.825-0.397c-0.331-0.096-0.688-0.178-1.073-0.246
		c-0.384-0.068-0.742-0.171-1.073-0.308c-0.331-0.137-0.606-0.333-0.825-0.588c-0.219-0.255-0.329-0.615-0.329-1.081
		c0-0.593,0.212-1.078,0.637-1.457c0.424-0.378,1.026-0.568,1.804-0.568c0.751,0,1.362,0.171,1.831,0.513
		c0.47,0.342,0.753,0.914,0.852,1.716h-0.818c-0.072-0.547-0.275-0.932-0.61-1.156c-0.335-0.223-0.758-0.335-1.268-0.335
		s-0.899,0.112-1.167,0.335c-0.268,0.224-0.402,0.518-0.402,0.882c0,0.319,0.109,0.563,0.329,0.732s0.494,0.306,0.825,0.41
		c0.331,0.105,0.688,0.198,1.073,0.28C57.91,7.934,58.268,8.05,58.599,8.2c0.331,0.15,0.606,0.354,0.825,0.608
		c0.219,0.255,0.329,0.611,0.329,1.067c0,0.337-0.072,0.636-0.215,0.896s-0.34,0.477-0.59,0.65s-0.548,0.303-0.892,0.39
		s-0.722,0.13-1.134,0.13c-0.411,0-0.776-0.062-1.093-0.185s-0.588-0.294-0.812-0.513c-0.224-0.219-0.398-0.474-0.523-0.766
		c-0.125-0.292-0.197-0.606-0.214-0.944H55.097z"/>
	<path class="st1" d="M66.044,4.665h0.805v7.085h-0.805v-0.985c-0.107,0.128-0.228,0.26-0.362,0.396
		c-0.134,0.137-0.289,0.263-0.463,0.376c-0.174,0.114-0.378,0.21-0.61,0.287c-0.232,0.078-0.501,0.116-0.805,0.116
		c-0.465,0-0.854-0.066-1.167-0.198c-0.313-0.132-0.565-0.317-0.758-0.554c-0.192-0.237-0.331-0.513-0.416-0.827
		c-0.085-0.315-0.127-0.659-0.127-1.033V4.665h0.805v4.65c0,0.611,0.138,1.078,0.416,1.402s0.733,0.486,1.369,0.486
		c0.331,0,0.628-0.066,0.892-0.199c0.264-0.132,0.485-0.316,0.664-0.554c0.179-0.237,0.317-0.52,0.416-0.848
		c0.098-0.328,0.147-0.688,0.147-1.081V4.665z"/>
	<path class="st1" d="M69.693,14.54h-0.805V4.665h0.805v1.245h0.027c0.116-0.228,0.266-0.433,0.449-0.616
		c0.184-0.182,0.385-0.333,0.604-0.451c0.219-0.119,0.445-0.21,0.677-0.274c0.232-0.063,0.46-0.096,0.685-0.096
		c0.563,0,1.042,0.096,1.435,0.288c0.394,0.191,0.718,0.454,0.973,0.786c0.255,0.333,0.44,0.728,0.557,1.183
		c0.116,0.456,0.174,0.944,0.174,1.464c0,0.492-0.063,0.966-0.188,1.422c-0.125,0.456-0.315,0.855-0.57,1.197
		s-0.577,0.616-0.966,0.821s-0.848,0.308-1.375,0.308c-0.492,0-0.964-0.112-1.416-0.335c-0.452-0.224-0.807-0.554-1.066-0.992V14.54
		z M69.693,8.234c0,0.401,0.054,0.782,0.161,1.142s0.262,0.675,0.463,0.944s0.447,0.483,0.738,0.643
		c0.291,0.16,0.619,0.24,0.986,0.24c0.411,0,0.771-0.084,1.08-0.253c0.309-0.168,0.561-0.398,0.758-0.69s0.34-0.631,0.43-1.019
		c0.089-0.388,0.125-0.805,0.107-1.251c0-0.447-0.06-0.841-0.181-1.183c-0.121-0.342-0.288-0.631-0.503-0.869
		s-0.465-0.417-0.751-0.541s-0.599-0.185-0.939-0.185c-0.375,0-0.711,0.078-1.006,0.232c-0.295,0.155-0.542,0.367-0.738,0.636
		s-0.347,0.588-0.449,0.958C69.745,7.407,69.693,7.806,69.693,8.234z"/>
	<path class="st1" d="M77.488,8.398c0,0.383,0.049,0.746,0.147,1.087c0.098,0.342,0.244,0.638,0.436,0.889s0.436,0.451,0.731,0.602
		c0.295,0.15,0.635,0.226,1.02,0.226c0.528,0,0.979-0.142,1.355-0.424c0.376-0.283,0.626-0.684,0.752-1.204h0.898
		c-0.099,0.337-0.229,0.65-0.389,0.937c-0.161,0.287-0.362,0.538-0.604,0.752c-0.241,0.214-0.527,0.381-0.858,0.499
		s-0.715,0.178-1.154,0.178c-0.554,0-1.033-0.096-1.435-0.287c-0.403-0.191-0.733-0.454-0.993-0.787
		c-0.259-0.333-0.452-0.725-0.577-1.176c-0.125-0.451-0.188-0.937-0.188-1.457c0-0.52,0.074-1.007,0.222-1.464
		c0.147-0.456,0.357-0.854,0.63-1.197c0.273-0.342,0.606-0.611,1-0.807c0.394-0.196,0.84-0.294,1.341-0.294
		c0.957,0,1.708,0.335,2.254,1.005c0.545,0.67,0.813,1.644,0.805,2.92H77.488z M82.022,7.714c0-0.346-0.047-0.672-0.142-0.978
		c-0.094-0.305-0.232-0.569-0.415-0.793c-0.184-0.224-0.414-0.401-0.691-0.534c-0.277-0.132-0.595-0.198-0.953-0.198
		c-0.357,0-0.673,0.068-0.946,0.205c-0.272,0.137-0.505,0.319-0.697,0.547c-0.192,0.228-0.347,0.492-0.463,0.793
		c-0.116,0.301-0.192,0.621-0.228,0.958H82.022z M78.99,3.898l1.489-1.901h1.033l-1.838,1.901H78.99z"/>
	<path class="st1" d="M85.296,11.75H84.49V4.665h0.806v1.327h0.026c0.224-0.565,0.512-0.959,0.865-1.183s0.82-0.335,1.402-0.335
		v0.889c-0.456-0.009-0.832,0.064-1.127,0.219c-0.295,0.155-0.53,0.365-0.704,0.629c-0.175,0.265-0.296,0.577-0.362,0.937
		c-0.067,0.36-0.101,0.736-0.101,1.128V11.75z"/>
	<path class="st1" d="M88.998,3.119V1.901h0.885v1.217H88.998z M89.038,11.75V4.665h0.805v7.085H89.038z"/>
	<path class="st1" d="M92.392,8.398c0,0.383,0.05,0.746,0.148,1.087c0.098,0.342,0.243,0.638,0.436,0.889s0.436,0.451,0.731,0.602
		c0.295,0.15,0.635,0.226,1.02,0.226c0.527,0,0.979-0.142,1.354-0.424c0.376-0.283,0.626-0.684,0.752-1.204h0.898
		c-0.099,0.337-0.229,0.65-0.389,0.937c-0.161,0.287-0.362,0.538-0.604,0.752c-0.241,0.214-0.527,0.381-0.858,0.499
		s-0.716,0.178-1.153,0.178c-0.555,0-1.033-0.096-1.436-0.287s-0.733-0.454-0.993-0.787c-0.26-0.333-0.451-0.725-0.576-1.176
		c-0.126-0.451-0.188-0.937-0.188-1.457c0-0.52,0.074-1.007,0.222-1.464c0.147-0.456,0.357-0.854,0.631-1.197
		c0.272-0.342,0.605-0.611,0.999-0.807c0.394-0.196,0.841-0.294,1.342-0.294c0.957,0,1.708,0.335,2.254,1.005
		c0.545,0.67,0.813,1.644,0.805,2.92H92.392z M96.927,7.714c0-0.346-0.047-0.672-0.142-0.978c-0.094-0.305-0.232-0.569-0.415-0.793
		c-0.184-0.224-0.414-0.401-0.691-0.534c-0.277-0.132-0.595-0.198-0.952-0.198c-0.358,0-0.674,0.068-0.946,0.205
		s-0.505,0.319-0.697,0.547s-0.347,0.492-0.463,0.793c-0.116,0.301-0.192,0.621-0.229,0.958H96.927z"/>
	<path class="st1" d="M104.063,4.665h0.805v7.085h-0.805v-0.985c-0.107,0.128-0.229,0.26-0.362,0.396
		c-0.134,0.137-0.288,0.263-0.463,0.376c-0.174,0.114-0.378,0.21-0.61,0.287c-0.232,0.078-0.501,0.116-0.805,0.116
		c-0.465,0-0.854-0.066-1.167-0.198c-0.313-0.132-0.566-0.317-0.759-0.554c-0.192-0.237-0.33-0.513-0.415-0.827
		c-0.086-0.315-0.128-0.659-0.128-1.033V4.665h0.805v4.65c0,0.611,0.139,1.078,0.416,1.402s0.733,0.486,1.368,0.486
		c0.331,0,0.629-0.066,0.893-0.199c0.264-0.132,0.485-0.316,0.664-0.554s0.317-0.52,0.416-0.848s0.147-0.688,0.147-1.081V4.665z"/>
	<path class="st1" d="M107.659,11.75h-0.806V4.665h0.806v1.327h0.026c0.224-0.565,0.512-0.959,0.865-1.183s0.82-0.335,1.402-0.335
		v0.889c-0.456-0.009-0.832,0.064-1.127,0.219c-0.295,0.155-0.53,0.365-0.704,0.629c-0.175,0.265-0.296,0.577-0.362,0.937
		c-0.067,0.36-0.101,0.736-0.101,1.128V11.75z"/>
	<path class="st1" d="M120.377,1.901h0.805v9.848h-0.805v-1.245h-0.026c-0.116,0.237-0.267,0.444-0.45,0.622
		c-0.183,0.178-0.384,0.326-0.604,0.445c-0.219,0.119-0.444,0.209-0.677,0.273c-0.233,0.064-0.461,0.096-0.685,0.096
		c-0.563,0-1.042-0.096-1.436-0.287s-0.718-0.454-0.973-0.787c-0.255-0.333-0.44-0.727-0.557-1.183
		c-0.116-0.456-0.175-0.944-0.175-1.463c0-0.493,0.062-0.966,0.188-1.423c0.125-0.456,0.314-0.854,0.569-1.197
		c0.255-0.342,0.577-0.615,0.967-0.82c0.389-0.206,0.847-0.308,1.375-0.308c0.491,0,0.963,0.112,1.415,0.335
		c0.451,0.224,0.807,0.554,1.066,0.992V1.901z M120.377,8.18c0-0.401-0.054-0.782-0.161-1.142s-0.262-0.675-0.463-0.944
		s-0.447-0.483-0.737-0.643c-0.291-0.159-0.62-0.239-0.986-0.239c-0.421,0-0.782,0.084-1.087,0.253
		c-0.304,0.169-0.555,0.399-0.751,0.691c-0.197,0.292-0.34,0.631-0.43,1.019c-0.089,0.388-0.125,0.805-0.106,1.251
		c0,0.447,0.06,0.841,0.181,1.183s0.288,0.631,0.503,0.869s0.465,0.417,0.751,0.54s0.6,0.185,0.939,0.185
		c0.376,0,0.711-0.078,1.006-0.233c0.296-0.155,0.541-0.367,0.738-0.636c0.196-0.269,0.347-0.588,0.449-0.958
		S120.377,8.608,120.377,8.18z"/>
	<path class="st1" d="M123.703,8.398c0,0.383,0.05,0.746,0.148,1.087c0.098,0.342,0.243,0.638,0.436,0.889s0.436,0.451,0.731,0.602
		c0.295,0.15,0.635,0.226,1.02,0.226c0.527,0,0.979-0.142,1.354-0.424c0.376-0.283,0.626-0.684,0.752-1.204h0.898
		c-0.099,0.337-0.229,0.65-0.389,0.937c-0.161,0.287-0.362,0.538-0.604,0.752c-0.241,0.214-0.527,0.381-0.858,0.499
		s-0.716,0.178-1.153,0.178c-0.555,0-1.033-0.096-1.436-0.287s-0.733-0.454-0.993-0.787c-0.26-0.333-0.451-0.725-0.576-1.176
		c-0.126-0.451-0.188-0.937-0.188-1.457c0-0.52,0.074-1.007,0.222-1.464c0.147-0.456,0.357-0.854,0.631-1.197
		c0.272-0.342,0.605-0.611,0.999-0.807c0.394-0.196,0.841-0.294,1.342-0.294c0.957,0,1.708,0.335,2.254,1.005
		c0.545,0.67,0.813,1.644,0.805,2.92H123.703z M128.238,7.714c0-0.346-0.047-0.672-0.142-0.978
		c-0.094-0.305-0.232-0.569-0.415-0.793c-0.184-0.224-0.414-0.401-0.691-0.534c-0.277-0.132-0.595-0.198-0.952-0.198
		c-0.358,0-0.674,0.068-0.946,0.205s-0.505,0.319-0.697,0.547s-0.347,0.492-0.463,0.793c-0.116,0.301-0.192,0.621-0.229,0.958
		H128.238z"/>
	<path class="st1" d="M131.136,9.534c0.125,0.611,0.351,1.042,0.678,1.292c0.326,0.251,0.793,0.376,1.401,0.376
		c0.295,0,0.55-0.037,0.765-0.11c0.215-0.073,0.392-0.171,0.53-0.294s0.243-0.262,0.315-0.417c0.071-0.155,0.107-0.319,0.107-0.493
		c0-0.346-0.11-0.604-0.329-0.772c-0.219-0.169-0.494-0.301-0.825-0.397s-0.688-0.178-1.073-0.246s-0.742-0.171-1.073-0.308
		s-0.605-0.333-0.825-0.588c-0.219-0.255-0.328-0.615-0.328-1.081c0-0.593,0.212-1.078,0.637-1.457s1.026-0.568,1.805-0.568
		c0.751,0,1.361,0.171,1.831,0.513s0.754,0.914,0.853,1.716h-0.818c-0.072-0.547-0.275-0.932-0.611-1.156
		c-0.335-0.223-0.758-0.335-1.268-0.335s-0.898,0.112-1.167,0.335c-0.269,0.224-0.402,0.518-0.402,0.882
		c0,0.319,0.109,0.563,0.329,0.732c0.219,0.169,0.493,0.306,0.824,0.41c0.331,0.105,0.689,0.198,1.073,0.28
		c0.385,0.083,0.742,0.199,1.073,0.349s0.606,0.354,0.825,0.608c0.22,0.255,0.329,0.611,0.329,1.067
		c0,0.337-0.072,0.636-0.215,0.896c-0.144,0.26-0.34,0.477-0.59,0.65c-0.251,0.173-0.548,0.303-0.893,0.39s-0.723,0.13-1.134,0.13
		s-0.775-0.062-1.093-0.185c-0.318-0.123-0.589-0.294-0.812-0.513c-0.224-0.219-0.397-0.474-0.522-0.766
		c-0.126-0.292-0.197-0.606-0.215-0.944H131.136z"/>
	<path class="st1" d="M141.801,11.75h-0.805V4.665h0.805v1.067h0.027c0.206-0.411,0.501-0.723,0.886-0.937
		c0.384-0.214,0.805-0.322,1.261-0.322c0.322,0,0.595,0.037,0.818,0.109c0.224,0.073,0.413,0.171,0.57,0.294
		c0.156,0.123,0.286,0.267,0.389,0.431s0.19,0.342,0.262,0.534c0.232-0.465,0.543-0.809,0.933-1.033
		c0.389-0.224,0.834-0.335,1.335-0.335c0.474,0,0.852,0.08,1.134,0.24c0.281,0.16,0.498,0.369,0.65,0.629
		c0.151,0.26,0.252,0.559,0.302,0.896c0.049,0.337,0.073,0.684,0.073,1.04v4.473h-0.805V6.853c0-0.511-0.105-0.912-0.315-1.204
		c-0.21-0.292-0.602-0.438-1.174-0.438c-0.295,0-0.579,0.066-0.852,0.198c-0.272,0.132-0.512,0.335-0.718,0.609
		c-0.09,0.119-0.163,0.258-0.222,0.417c-0.058,0.16-0.104,0.326-0.141,0.5s-0.061,0.347-0.073,0.52
		c-0.014,0.173-0.021,0.333-0.021,0.479v3.816h-0.805V6.853c0-0.511-0.105-0.912-0.315-1.204c-0.21-0.292-0.602-0.438-1.174-0.438
		c-0.295,0-0.579,0.066-0.853,0.198c-0.272,0.132-0.512,0.335-0.717,0.609c-0.09,0.119-0.164,0.258-0.222,0.417
		c-0.059,0.16-0.105,0.326-0.141,0.5c-0.036,0.173-0.061,0.347-0.074,0.52c-0.014,0.173-0.021,0.333-0.021,0.479V11.75z"/>
	<path class="st1" d="M152.774,8.398c0,0.383,0.05,0.746,0.148,1.087c0.098,0.342,0.243,0.638,0.436,0.889s0.436,0.451,0.731,0.602
		c0.295,0.15,0.635,0.226,1.02,0.226c0.527,0,0.979-0.142,1.354-0.424c0.376-0.283,0.626-0.684,0.752-1.204h0.898
		c-0.099,0.337-0.229,0.65-0.389,0.937c-0.161,0.287-0.362,0.538-0.604,0.752c-0.241,0.214-0.527,0.381-0.858,0.499
		s-0.716,0.178-1.153,0.178c-0.555,0-1.033-0.096-1.436-0.287s-0.733-0.454-0.993-0.787c-0.26-0.333-0.451-0.725-0.576-1.176
		c-0.126-0.451-0.188-0.937-0.188-1.457c0-0.52,0.074-1.007,0.222-1.464c0.147-0.456,0.357-0.854,0.631-1.197
		c0.272-0.342,0.605-0.611,0.999-0.807c0.394-0.196,0.841-0.294,1.342-0.294c0.957,0,1.708,0.335,2.254,1.005
		c0.545,0.67,0.813,1.644,0.805,2.92H152.774z M157.31,7.714c0-0.346-0.047-0.672-0.142-0.978c-0.094-0.305-0.232-0.569-0.415-0.793
		c-0.184-0.224-0.414-0.401-0.691-0.534c-0.277-0.132-0.595-0.198-0.952-0.198c-0.358,0-0.674,0.068-0.946,0.205
		s-0.505,0.319-0.697,0.547s-0.347,0.492-0.463,0.793c-0.116,0.301-0.192,0.621-0.229,0.958H157.31z M154.277,3.898l1.489-1.901
		h1.033l-1.838,1.901H154.277z"/>
	<path class="st1" d="M162.179,11.777c-0.099,0.018-0.228,0.05-0.389,0.096c-0.161,0.045-0.34,0.068-0.537,0.068
		c-0.402,0-0.708-0.103-0.919-0.308c-0.21-0.205-0.314-0.572-0.314-1.101V5.348h-0.979V4.665h0.979v-1.97h0.805v1.97h1.301v0.684
		h-1.301v4.856c0,0.173,0.004,0.324,0.014,0.451c0.009,0.128,0.035,0.232,0.08,0.314s0.114,0.142,0.208,0.178
		c0.094,0.037,0.226,0.055,0.396,0.055c0.107,0,0.217-0.009,0.329-0.028c0.111-0.018,0.221-0.041,0.328-0.068V11.777z"/>
	<path class="st1" d="M163.548,3.119V1.901h0.885v1.217H163.548z M163.588,11.75V4.665h0.805v7.085H163.588z"/>
	<path class="st1" d="M166.941,8.398c0,0.383,0.05,0.746,0.148,1.087c0.098,0.342,0.243,0.638,0.436,0.889s0.436,0.451,0.731,0.602
		c0.295,0.15,0.635,0.226,1.02,0.226c0.527,0,0.979-0.142,1.354-0.424c0.376-0.283,0.626-0.684,0.752-1.204h0.898
		c-0.099,0.337-0.229,0.65-0.389,0.937c-0.161,0.287-0.362,0.538-0.604,0.752c-0.241,0.214-0.527,0.381-0.858,0.499
		s-0.716,0.178-1.153,0.178c-0.555,0-1.033-0.096-1.436-0.287s-0.733-0.454-0.993-0.787c-0.26-0.333-0.451-0.725-0.576-1.176
		c-0.126-0.451-0.188-0.937-0.188-1.457c0-0.52,0.074-1.007,0.222-1.464c0.147-0.456,0.357-0.854,0.631-1.197
		c0.272-0.342,0.605-0.611,0.999-0.807c0.394-0.196,0.841-0.294,1.342-0.294c0.957,0,1.708,0.335,2.254,1.005
		c0.545,0.67,0.813,1.644,0.805,2.92H166.941z M171.477,7.714c0-0.346-0.047-0.672-0.142-0.978
		c-0.094-0.305-0.232-0.569-0.415-0.793c-0.184-0.224-0.414-0.401-0.691-0.534c-0.277-0.132-0.595-0.198-0.952-0.198
		c-0.358,0-0.674,0.068-0.946,0.205s-0.505,0.319-0.697,0.547s-0.347,0.492-0.463,0.793c-0.116,0.301-0.192,0.621-0.229,0.958
		H171.477z"/>
	<path class="st1" d="M174.75,11.75h-0.806V4.665h0.806v1.327h0.026c0.224-0.565,0.512-0.959,0.865-1.183s0.82-0.335,1.402-0.335
		v0.889c-0.456-0.009-0.832,0.064-1.127,0.219c-0.295,0.155-0.53,0.365-0.704,0.629c-0.175,0.265-0.296,0.577-0.362,0.937
		c-0.067,0.36-0.101,0.736-0.101,1.128V11.75z"/>
	<path class="st1" d="M178.842,9.534c0.125,0.611,0.351,1.042,0.678,1.292c0.326,0.251,0.793,0.376,1.401,0.376
		c0.295,0,0.55-0.037,0.765-0.11c0.215-0.073,0.392-0.171,0.53-0.294s0.243-0.262,0.315-0.417c0.071-0.155,0.107-0.319,0.107-0.493
		c0-0.346-0.11-0.604-0.329-0.772c-0.219-0.169-0.494-0.301-0.825-0.397s-0.688-0.178-1.073-0.246s-0.742-0.171-1.073-0.308
		s-0.605-0.333-0.825-0.588c-0.219-0.255-0.328-0.615-0.328-1.081c0-0.593,0.212-1.078,0.637-1.457s1.026-0.568,1.805-0.568
		c0.751,0,1.361,0.171,1.831,0.513s0.754,0.914,0.853,1.716h-0.818c-0.072-0.547-0.275-0.932-0.611-1.156
		c-0.335-0.223-0.758-0.335-1.268-0.335s-0.898,0.112-1.167,0.335c-0.269,0.224-0.402,0.518-0.402,0.882
		c0,0.319,0.109,0.563,0.329,0.732c0.219,0.169,0.493,0.306,0.824,0.41c0.331,0.105,0.689,0.198,1.073,0.28
		c0.385,0.083,0.742,0.199,1.073,0.349s0.606,0.354,0.825,0.608c0.22,0.255,0.329,0.611,0.329,1.067
		c0,0.337-0.072,0.636-0.215,0.896c-0.144,0.26-0.34,0.477-0.59,0.65c-0.251,0.173-0.548,0.303-0.893,0.39s-0.723,0.13-1.134,0.13
		s-0.775-0.062-1.093-0.185c-0.318-0.123-0.589-0.294-0.812-0.513c-0.224-0.219-0.397-0.474-0.522-0.766
		c-0.126-0.292-0.197-0.606-0.215-0.944H178.842z"/>
	<path class="st1" d="M194.175,1.901h0.805v9.848h-0.805v-1.245h-0.026c-0.116,0.237-0.267,0.444-0.45,0.622
		c-0.183,0.178-0.384,0.326-0.604,0.445c-0.219,0.119-0.444,0.209-0.677,0.273c-0.233,0.064-0.461,0.096-0.685,0.096
		c-0.563,0-1.042-0.096-1.436-0.287s-0.718-0.454-0.973-0.787c-0.255-0.333-0.44-0.727-0.557-1.183
		c-0.116-0.456-0.175-0.944-0.175-1.463c0-0.493,0.062-0.966,0.188-1.423c0.125-0.456,0.314-0.854,0.569-1.197
		c0.255-0.342,0.577-0.615,0.967-0.82c0.389-0.206,0.847-0.308,1.375-0.308c0.491,0,0.963,0.112,1.415,0.335
		c0.451,0.224,0.807,0.554,1.066,0.992V1.901z M194.175,8.18c0-0.401-0.054-0.782-0.161-1.142s-0.262-0.675-0.463-0.944
		s-0.447-0.483-0.737-0.643c-0.291-0.159-0.62-0.239-0.986-0.239c-0.421,0-0.782,0.084-1.087,0.253
		c-0.304,0.169-0.555,0.399-0.751,0.691c-0.197,0.292-0.34,0.631-0.43,1.019c-0.089,0.388-0.125,0.805-0.106,1.251
		c0,0.447,0.06,0.841,0.181,1.183s0.288,0.631,0.503,0.869s0.465,0.417,0.751,0.54s0.6,0.185,0.939,0.185
		c0.376,0,0.711-0.078,1.006-0.233c0.296-0.155,0.541-0.367,0.738-0.636c0.196-0.269,0.347-0.588,0.449-0.958
		S194.175,8.608,194.175,8.18z"/>
	<path class="st1" d="M197.502,8.398c0,0.383,0.05,0.746,0.148,1.087c0.098,0.342,0.243,0.638,0.436,0.889s0.436,0.451,0.731,0.602
		c0.295,0.15,0.635,0.226,1.02,0.226c0.527,0,0.979-0.142,1.354-0.424c0.376-0.283,0.626-0.684,0.752-1.204h0.898
		c-0.099,0.337-0.229,0.65-0.389,0.937c-0.161,0.287-0.362,0.538-0.604,0.752c-0.241,0.214-0.527,0.381-0.858,0.499
		s-0.716,0.178-1.153,0.178c-0.555,0-1.033-0.096-1.436-0.287s-0.733-0.454-0.993-0.787c-0.26-0.333-0.451-0.725-0.576-1.176
		c-0.126-0.451-0.188-0.937-0.188-1.457c0-0.52,0.074-1.007,0.222-1.464c0.147-0.456,0.357-0.854,0.631-1.197
		c0.272-0.342,0.605-0.611,0.999-0.807c0.394-0.196,0.841-0.294,1.342-0.294c0.957,0,1.708,0.335,2.254,1.005
		c0.545,0.67,0.813,1.644,0.805,2.92H197.502z M202.037,7.714c0-0.346-0.047-0.672-0.142-0.978
		c-0.094-0.305-0.232-0.569-0.415-0.793c-0.184-0.224-0.414-0.401-0.691-0.534c-0.277-0.132-0.595-0.198-0.952-0.198
		c-0.358,0-0.674,0.068-0.946,0.205s-0.505,0.319-0.697,0.547s-0.347,0.492-0.463,0.793c-0.116,0.301-0.192,0.621-0.229,0.958
		H202.037z"/>
	<path class="st1" d="M208.315,11.75V1.901h0.805v9.848H208.315z"/>
	<path class="st1" d="M212.26,3.516c0,0.401-0.092,0.723-0.275,0.964c-0.184,0.242-0.418,0.408-0.704,0.5V4.473
		c0.107-0.073,0.21-0.173,0.309-0.301c0.099-0.127,0.147-0.328,0.147-0.602V3.105h-0.456V1.901h0.979V3.516z"/>
	<path class="st1" d="M214.231,3.119V1.901h0.885v1.217H214.231z M214.271,11.75V4.665h0.805v7.085H214.271z"/>
	<path class="st1" d="M217.826,11.75h-0.805V4.665h0.805v1.067h0.027c0.206-0.411,0.501-0.723,0.886-0.937
		c0.384-0.214,0.805-0.322,1.261-0.322c0.322,0,0.595,0.037,0.818,0.109c0.224,0.073,0.413,0.171,0.57,0.294
		c0.156,0.123,0.286,0.267,0.389,0.431s0.19,0.342,0.262,0.534c0.232-0.465,0.543-0.809,0.933-1.033
		c0.389-0.224,0.834-0.335,1.335-0.335c0.474,0,0.852,0.08,1.134,0.24c0.281,0.16,0.498,0.369,0.65,0.629
		c0.151,0.26,0.252,0.559,0.302,0.896c0.049,0.337,0.073,0.684,0.073,1.04v4.473h-0.805V6.853c0-0.511-0.105-0.912-0.315-1.204
		c-0.21-0.292-0.602-0.438-1.174-0.438c-0.295,0-0.579,0.066-0.852,0.198c-0.272,0.132-0.512,0.335-0.718,0.609
		c-0.09,0.119-0.163,0.258-0.222,0.417c-0.058,0.16-0.104,0.326-0.141,0.5s-0.061,0.347-0.073,0.52
		c-0.014,0.173-0.021,0.333-0.021,0.479v3.816h-0.805V6.853c0-0.511-0.105-0.912-0.315-1.204c-0.21-0.292-0.602-0.438-1.174-0.438
		c-0.295,0-0.579,0.066-0.853,0.198c-0.272,0.132-0.512,0.335-0.717,0.609c-0.09,0.119-0.164,0.258-0.222,0.417
		c-0.059,0.16-0.105,0.326-0.141,0.5c-0.036,0.173-0.061,0.347-0.074,0.52c-0.014,0.173-0.021,0.333-0.021,0.479V11.75z"/>
	<path class="st1" d="M231.497,7.619c0.151-0.018,0.333-0.045,0.543-0.082c0.21-0.036,0.383-0.086,0.517-0.15
		c0.134-0.063,0.217-0.171,0.248-0.321s0.047-0.29,0.047-0.417c0-0.419-0.132-0.764-0.396-1.033
		c-0.264-0.269-0.709-0.403-1.335-0.403c-0.277,0-0.532,0.025-0.765,0.075c-0.232,0.05-0.437,0.137-0.61,0.26
		c-0.175,0.123-0.317,0.288-0.43,0.493c-0.111,0.205-0.186,0.463-0.221,0.773h-0.818c0.026-0.419,0.12-0.777,0.281-1.074
		s0.369-0.538,0.624-0.725s0.55-0.324,0.886-0.411c0.335-0.086,0.69-0.13,1.066-0.13c0.349,0,0.677,0.039,0.985,0.116
		c0.309,0.078,0.577,0.201,0.806,0.37c0.228,0.169,0.406,0.395,0.536,0.677c0.13,0.283,0.194,0.629,0.194,1.04v3.857
		c0,0.319,0.056,0.522,0.168,0.608c0.112,0.087,0.338,0.066,0.678-0.062v0.643c-0.062,0.019-0.154,0.045-0.275,0.082
		c-0.12,0.036-0.239,0.055-0.355,0.055c-0.125,0-0.246-0.014-0.362-0.041c-0.134-0.019-0.241-0.062-0.321-0.13
		c-0.081-0.068-0.146-0.15-0.195-0.246c-0.049-0.096-0.082-0.201-0.101-0.315c-0.018-0.114-0.026-0.234-0.026-0.362
		c-0.34,0.383-0.729,0.675-1.167,0.875c-0.438,0.2-0.912,0.301-1.422,0.301c-0.305,0-0.598-0.041-0.879-0.123
		c-0.282-0.082-0.53-0.209-0.745-0.383s-0.385-0.385-0.51-0.636c-0.125-0.25-0.188-0.549-0.188-0.896
		c0-1.204,0.81-1.915,2.428-2.134L231.497,7.619z M232.852,8.029c-0.34,0.146-0.684,0.242-1.033,0.287
		c-0.349,0.046-0.697,0.082-1.046,0.109c-0.617,0.046-1.099,0.187-1.442,0.424c-0.345,0.237-0.517,0.598-0.517,1.081
		c0,0.219,0.042,0.408,0.128,0.568c0.085,0.16,0.196,0.292,0.335,0.396c0.139,0.105,0.3,0.183,0.483,0.232
		c0.183,0.05,0.368,0.076,0.557,0.076c0.321,0,0.635-0.042,0.938-0.124c0.305-0.082,0.575-0.207,0.812-0.376
		c0.237-0.168,0.428-0.383,0.57-0.643c0.144-0.26,0.215-0.567,0.215-0.923V8.029z"/>
	<path class="st1" d="M241.129,4.665h0.805v6.401c0,0.475-0.047,0.928-0.141,1.361c-0.094,0.433-0.262,0.813-0.503,1.142
		c-0.241,0.328-0.572,0.59-0.993,0.786c-0.42,0.196-0.961,0.294-1.623,0.294c-0.51,0-0.948-0.066-1.314-0.199
		c-0.367-0.132-0.666-0.298-0.899-0.499c-0.232-0.201-0.409-0.422-0.529-0.664c-0.121-0.242-0.186-0.467-0.194-0.677h0.858
		c0.062,0.264,0.161,0.481,0.295,0.649c0.134,0.169,0.293,0.301,0.477,0.397c0.183,0.096,0.387,0.162,0.61,0.198
		c0.224,0.036,0.456,0.055,0.697,0.055c0.546,0,0.984-0.096,1.314-0.287c0.331-0.191,0.582-0.442,0.752-0.752
		s0.279-0.661,0.328-1.053c0.05-0.392,0.069-0.793,0.061-1.204c-0.26,0.438-0.615,0.768-1.066,0.992
		c-0.452,0.223-0.924,0.335-1.415,0.335c-0.528,0-0.986-0.103-1.375-0.308c-0.39-0.205-0.712-0.479-0.967-0.821
		s-0.444-0.741-0.569-1.197c-0.126-0.456-0.188-0.93-0.188-1.422c0-0.52,0.059-1.008,0.175-1.464
		c0.116-0.456,0.302-0.85,0.557-1.183c0.255-0.333,0.579-0.595,0.973-0.786c0.394-0.192,0.872-0.288,1.436-0.288
		c0.224,0,0.451,0.032,0.685,0.096c0.232,0.064,0.458,0.155,0.677,0.274c0.22,0.119,0.421,0.269,0.604,0.451
		c0.184,0.183,0.334,0.388,0.45,0.616h0.026V4.665z M241.129,8.234c0-0.429-0.052-0.828-0.154-1.197
		c-0.103-0.37-0.253-0.688-0.449-0.958c-0.197-0.269-0.442-0.481-0.738-0.636c-0.295-0.155-0.63-0.232-1.006-0.232
		c-0.34,0-0.653,0.062-0.939,0.185s-0.536,0.303-0.751,0.541s-0.382,0.526-0.503,0.869c-0.121,0.342-0.181,0.736-0.181,1.183
		c-0.019,0.447,0.018,0.864,0.106,1.251c0.09,0.388,0.232,0.727,0.43,1.019c0.196,0.292,0.447,0.522,0.751,0.69
		c0.305,0.169,0.666,0.253,1.087,0.253c0.366,0,0.695-0.08,0.986-0.24c0.29-0.159,0.536-0.374,0.737-0.643s0.355-0.583,0.463-0.944
		S241.129,8.636,241.129,8.234z"/>
	<path class="st1" d="M244.456,8.398c0,0.383,0.05,0.746,0.148,1.087c0.098,0.342,0.243,0.638,0.436,0.889s0.436,0.451,0.731,0.602
		c0.295,0.15,0.635,0.226,1.02,0.226c0.527,0,0.979-0.142,1.354-0.424c0.376-0.283,0.626-0.684,0.752-1.204h0.898
		c-0.099,0.337-0.229,0.65-0.389,0.937c-0.161,0.287-0.362,0.538-0.604,0.752c-0.241,0.214-0.527,0.381-0.858,0.499
		s-0.716,0.178-1.153,0.178c-0.555,0-1.033-0.096-1.436-0.287s-0.733-0.454-0.993-0.787c-0.26-0.333-0.451-0.725-0.576-1.176
		c-0.126-0.451-0.188-0.937-0.188-1.457c0-0.52,0.074-1.007,0.222-1.464c0.147-0.456,0.357-0.854,0.631-1.197
		c0.272-0.342,0.605-0.611,0.999-0.807c0.394-0.196,0.841-0.294,1.342-0.294c0.957,0,1.708,0.335,2.254,1.005
		c0.545,0.67,0.813,1.644,0.805,2.92H244.456z M248.991,7.714c0-0.346-0.047-0.672-0.142-0.978
		c-0.094-0.305-0.232-0.569-0.415-0.793c-0.184-0.224-0.414-0.401-0.691-0.534c-0.277-0.132-0.595-0.198-0.952-0.198
		c-0.358,0-0.674,0.068-0.946,0.205s-0.505,0.319-0.697,0.547s-0.347,0.492-0.463,0.793c-0.116,0.301-0.192,0.621-0.229,0.958
		H248.991z"/>
	<path class="st2" d="M1.704,21.118v7.045H0.794v-7.045H1.704z"/>
	<path class="st2" d="M3.365,24.474c0-0.523-0.011-0.951-0.042-1.37h0.815l0.052,0.836h0.021c0.25-0.481,0.836-0.951,1.672-0.951
		c0.7,0,1.787,0.418,1.787,2.153v3.021h-0.92v-2.916c0-0.815-0.303-1.495-1.17-1.495c-0.606,0-1.077,0.428-1.233,0.94
		c-0.042,0.115-0.063,0.272-0.063,0.429v3.042H3.365V24.474z"/>
	<path class="st2" d="M10.23,21.651v1.453h1.317v0.701H10.23v2.728c0,0.627,0.178,0.982,0.69,0.982c0.24,0,0.418-0.031,0.533-0.063
		l0.042,0.69c-0.178,0.073-0.46,0.125-0.815,0.125c-0.428,0-0.773-0.136-0.993-0.387c-0.262-0.272-0.355-0.721-0.355-1.317v-2.759
		H8.547v-0.701h0.784v-1.212L10.23,21.651z"/>
	<path class="st2" d="M13.031,25.801c0.021,1.244,0.815,1.756,1.735,1.756c0.659,0,1.056-0.115,1.4-0.261l0.157,0.659
		c-0.324,0.146-0.878,0.313-1.683,0.313c-1.557,0-2.488-1.024-2.488-2.55s0.899-2.728,2.373-2.728c1.651,0,2.09,1.453,2.09,2.383
		c0,0.188-0.021,0.334-0.031,0.428H13.031z M15.728,25.143c0.011-0.585-0.24-1.495-1.275-1.495c-0.93,0-1.338,0.857-1.411,1.495
		H15.728z"/>
	<path class="st2" d="M17.754,24.683c0-0.596-0.011-1.108-0.042-1.579h0.805l0.032,0.993h0.042c0.23-0.679,0.784-1.108,1.401-1.108
		c0.104,0,0.177,0.01,0.261,0.031v0.868c-0.094-0.021-0.188-0.031-0.313-0.031c-0.648,0-1.108,0.491-1.233,1.181
		c-0.021,0.125-0.042,0.271-0.042,0.428v2.697h-0.909V24.683z"/>
	<path class="st2" d="M21.213,24.474c0-0.523-0.011-0.951-0.042-1.37h0.815l0.052,0.836h0.021c0.25-0.481,0.836-0.951,1.672-0.951
		c0.7,0,1.787,0.418,1.787,2.153v3.021h-0.92v-2.916c0-0.815-0.303-1.495-1.17-1.495c-0.606,0-1.077,0.428-1.233,0.94
		c-0.042,0.115-0.063,0.272-0.063,0.429v3.042h-0.919V24.474z"/>
	<path class="st2" d="M29.813,28.163l-0.073-0.638h-0.032c-0.282,0.397-0.826,0.752-1.547,0.752c-1.024,0-1.547-0.721-1.547-1.453
		c0-1.223,1.087-1.892,3.042-1.881v-0.104c0-0.418-0.115-1.171-1.149-1.171c-0.471,0-0.962,0.146-1.317,0.376l-0.209-0.606
		c0.418-0.271,1.024-0.449,1.662-0.449c1.547,0,1.923,1.056,1.923,2.069v1.892c0,0.439,0.021,0.868,0.083,1.212H29.813z
		 M29.677,25.582c-1.003-0.021-2.143,0.157-2.143,1.139c0,0.596,0.397,0.878,0.868,0.878c0.658,0,1.077-0.418,1.223-0.847
		c0.031-0.094,0.052-0.199,0.052-0.292V25.582z"/>
	<path class="st2" d="M33.115,21.651v1.453h1.317v0.701h-1.317v2.728c0,0.627,0.178,0.982,0.69,0.982
		c0.24,0,0.418-0.031,0.533-0.063l0.042,0.69c-0.178,0.073-0.46,0.125-0.815,0.125c-0.428,0-0.773-0.136-0.993-0.387
		c-0.262-0.272-0.355-0.721-0.355-1.317v-2.759h-0.784v-0.701h0.784v-1.212L33.115,21.651z"/>
	<path class="st2" d="M36.49,21.683c0.011,0.313-0.219,0.564-0.585,0.564c-0.324,0-0.554-0.251-0.554-0.564
		c0-0.324,0.241-0.575,0.575-0.575C36.271,21.108,36.49,21.359,36.49,21.683z M35.466,28.163v-5.059h0.919v5.059H35.466z"/>
	<path class="st2" d="M42.489,25.592c0,1.871-1.296,2.686-2.519,2.686c-1.37,0-2.425-1.003-2.425-2.603
		c0-1.693,1.108-2.686,2.509-2.686C41.506,22.989,42.489,24.045,42.489,25.592z M38.476,25.644c0,1.108,0.637,1.944,1.536,1.944
		c0.878,0,1.537-0.826,1.537-1.965c0-0.857-0.429-1.944-1.516-1.944S38.476,24.683,38.476,25.644z"/>
	<path class="st2" d="M43.648,24.474c0-0.523-0.011-0.951-0.042-1.37h0.815l0.052,0.836h0.021c0.25-0.481,0.836-0.951,1.672-0.951
		c0.7,0,1.787,0.418,1.787,2.153v3.021h-0.92v-2.916c0-0.815-0.303-1.495-1.17-1.495c-0.606,0-1.077,0.428-1.233,0.94
		c-0.042,0.115-0.063,0.272-0.063,0.429v3.042h-0.919V24.474z"/>
	<path class="st2" d="M52.249,28.163l-0.073-0.638h-0.032c-0.282,0.397-0.826,0.752-1.547,0.752c-1.024,0-1.547-0.721-1.547-1.453
		c0-1.223,1.087-1.892,3.042-1.881v-0.104c0-0.418-0.115-1.171-1.149-1.171c-0.471,0-0.962,0.146-1.317,0.376l-0.209-0.606
		c0.418-0.271,1.024-0.449,1.662-0.449c1.547,0,1.923,1.056,1.923,2.069v1.892c0,0.439,0.021,0.868,0.083,1.212H52.249z
		 M52.112,25.582c-1.003-0.021-2.143,0.157-2.143,1.139c0,0.596,0.397,0.878,0.868,0.878c0.658,0,1.077-0.418,1.223-0.847
		c0.031-0.094,0.052-0.199,0.052-0.292V25.582z"/>
	<path class="st2" d="M54.484,20.742h0.919v7.421h-0.919V20.742z"/>
	<path class="st2" d="M59.071,27.055c0.408,0.251,1.003,0.46,1.63,0.46c0.931,0,1.474-0.491,1.474-1.202
		c0-0.658-0.376-1.035-1.328-1.4c-1.15-0.408-1.86-1.003-1.86-1.997c0-1.098,0.909-1.913,2.278-1.913
		c0.721,0,1.244,0.167,1.558,0.345l-0.251,0.742c-0.23-0.125-0.7-0.334-1.338-0.334c-0.961,0-1.328,0.575-1.328,1.056
		c0,0.659,0.429,0.982,1.401,1.359c1.191,0.46,1.798,1.035,1.798,2.069c0,1.087-0.805,2.028-2.467,2.028
		c-0.679,0-1.421-0.199-1.798-0.449L59.071,27.055z"/>
	<path class="st2" d="M67.986,27.975c-0.241,0.125-0.773,0.292-1.453,0.292c-1.526,0-2.519-1.035-2.519-2.582
		c0-1.558,1.066-2.687,2.718-2.687c0.543,0,1.024,0.136,1.275,0.261l-0.209,0.711c-0.22-0.125-0.564-0.24-1.066-0.24
		c-1.16,0-1.787,0.857-1.787,1.913c0,1.171,0.752,1.892,1.756,1.892c0.522,0,0.868-0.136,1.129-0.251L67.986,27.975z"/>
	<path class="st2" d="M69.061,20.742h0.919v3.156h0.021c0.146-0.261,0.376-0.491,0.659-0.648c0.271-0.157,0.596-0.261,0.94-0.261
		c0.68,0,1.767,0.418,1.767,2.164v3.01h-0.92v-2.906c0-0.815-0.303-1.505-1.17-1.505c-0.596,0-1.066,0.418-1.233,0.919
		c-0.052,0.125-0.063,0.261-0.063,0.439v3.052h-0.919V20.742z"/>
	<path class="st2" d="M79.438,25.592c0,1.871-1.296,2.686-2.519,2.686c-1.37,0-2.425-1.003-2.425-2.603
		c0-1.693,1.108-2.686,2.509-2.686C78.456,22.989,79.438,24.045,79.438,25.592z M75.425,25.644c0,1.108,0.637,1.944,1.536,1.944
		c0.878,0,1.537-0.826,1.537-1.965c0-0.857-0.429-1.944-1.516-1.944S75.425,24.683,75.425,25.644z"/>
	<path class="st2" d="M85.175,25.592c0,1.871-1.296,2.686-2.519,2.686c-1.369,0-2.425-1.003-2.425-2.603
		c0-1.693,1.108-2.686,2.508-2.686C84.192,22.989,85.175,24.045,85.175,25.592z M81.161,25.644c0,1.108,0.638,1.944,1.537,1.944
		c0.878,0,1.536-0.826,1.536-1.965c0-0.857-0.429-1.944-1.516-1.944S81.161,24.683,81.161,25.644z"/>
	<path class="st2" d="M86.334,20.742h0.92v7.421h-0.92V20.742z"/>
	<path class="st2" d="M95.593,25.592c0,1.871-1.296,2.686-2.519,2.686c-1.369,0-2.425-1.003-2.425-2.603
		c0-1.693,1.107-2.686,2.508-2.686C94.61,22.989,95.593,24.045,95.593,25.592z M91.579,25.644c0,1.108,0.638,1.944,1.537,1.944
		c0.878,0,1.536-0.826,1.536-1.965c0-0.857-0.429-1.944-1.516-1.944S91.579,24.683,91.579,25.644z"/>
	<path class="st2" d="M96.847,28.163v-4.358h-0.711v-0.701h0.711v-0.24c0-0.711,0.156-1.359,0.585-1.767
		c0.345-0.334,0.805-0.47,1.233-0.47c0.324,0,0.606,0.073,0.784,0.146l-0.126,0.71c-0.136-0.062-0.324-0.115-0.585-0.115
		c-0.784,0-0.982,0.69-0.982,1.463v0.271h1.223v0.701h-1.223v4.358H96.847z"/>
	<path class="st2" d="M102.019,24.756c0-0.648-0.021-1.171-0.041-1.652h0.825l0.042,0.868h0.021
		c0.377-0.617,0.973-0.982,1.798-0.982c1.223,0,2.143,1.035,2.143,2.571c0,1.819-1.107,2.717-2.299,2.717
		c-0.669,0-1.255-0.292-1.558-0.794h-0.021v2.749h-0.91V24.756z M102.929,26.104c0,0.136,0.021,0.261,0.041,0.376
		c0.168,0.637,0.722,1.076,1.38,1.076c0.973,0,1.536-0.794,1.536-1.955c0-1.014-0.532-1.881-1.505-1.881
		c-0.627,0-1.212,0.45-1.39,1.14c-0.031,0.115-0.062,0.25-0.062,0.376V26.104z"/>
	<path class="st2" d="M107.964,20.742h0.92v3.156h0.021c0.146-0.261,0.376-0.491,0.658-0.648c0.271-0.157,0.596-0.261,0.94-0.261
		c0.68,0,1.767,0.418,1.767,2.164v3.01h-0.92v-2.906c0-0.815-0.303-1.505-1.171-1.505c-0.596,0-1.065,0.418-1.233,0.919
		c-0.052,0.125-0.062,0.261-0.062,0.439v3.052h-0.92V20.742z"/>
	<path class="st2" d="M118.342,25.592c0,1.871-1.296,2.686-2.519,2.686c-1.369,0-2.425-1.003-2.425-2.603
		c0-1.693,1.107-2.686,2.508-2.686C117.359,22.989,118.342,24.045,118.342,25.592z M114.328,25.644c0,1.108,0.638,1.944,1.537,1.944
		c0.878,0,1.536-0.826,1.536-1.965c0-0.857-0.429-1.944-1.516-1.944S114.328,24.683,114.328,25.644z"/>
	<path class="st2" d="M120.608,21.651v1.453h1.316v0.701h-1.316v2.728c0,0.627,0.178,0.982,0.689,0.982
		c0.24,0,0.418-0.031,0.533-0.063l0.042,0.69c-0.178,0.073-0.46,0.125-0.815,0.125c-0.429,0-0.773-0.136-0.993-0.387
		c-0.261-0.272-0.355-0.721-0.355-1.317v-2.759h-0.783v-0.701h0.783v-1.212L120.608,21.651z"/>
	<path class="st2" d="M127.475,25.592c0,1.871-1.296,2.686-2.519,2.686c-1.369,0-2.425-1.003-2.425-2.603
		c0-1.693,1.107-2.686,2.508-2.686C126.492,22.989,127.475,24.045,127.475,25.592z M123.461,25.644c0,1.108,0.638,1.944,1.537,1.944
		c0.878,0,1.536-0.826,1.536-1.965c0-0.857-0.429-1.944-1.516-1.944S123.461,24.683,123.461,25.644z"/>
	<path class="st2" d="M132.992,23.104c-0.021,0.366-0.042,0.773-0.042,1.39v2.938c0,1.16-0.23,1.871-0.722,2.31
		c-0.491,0.46-1.202,0.606-1.84,0.606c-0.605,0-1.274-0.146-1.683-0.418l0.23-0.701c0.334,0.209,0.856,0.397,1.484,0.397
		c0.94,0,1.63-0.491,1.63-1.767v-0.564h-0.021c-0.282,0.471-0.826,0.847-1.609,0.847c-1.255,0-2.153-1.066-2.153-2.467
		c0-1.714,1.118-2.686,2.278-2.686c0.878,0,1.358,0.46,1.578,0.878h0.021l0.041-0.763H132.992z M132.041,25.101
		c0-0.157-0.011-0.292-0.053-0.418c-0.167-0.533-0.616-0.972-1.285-0.972c-0.879,0-1.506,0.742-1.506,1.913
		c0,0.993,0.502,1.819,1.495,1.819c0.564,0,1.076-0.355,1.275-0.941c0.052-0.157,0.073-0.334,0.073-0.491V25.101z"/>
	<path class="st2" d="M134.412,24.683c0-0.596-0.01-1.108-0.041-1.579h0.805l0.031,0.993h0.042c0.229-0.679,0.783-1.108,1.4-1.108
		c0.104,0,0.178,0.01,0.261,0.031v0.868c-0.094-0.021-0.188-0.031-0.313-0.031c-0.647,0-1.107,0.491-1.233,1.181
		c-0.021,0.125-0.042,0.271-0.042,0.428v2.697h-0.909V24.683z"/>
	<path class="st2" d="M140.578,28.163l-0.073-0.638h-0.031c-0.282,0.397-0.826,0.752-1.547,0.752c-1.024,0-1.547-0.721-1.547-1.453
		c0-1.223,1.087-1.892,3.041-1.881v-0.104c0-0.418-0.115-1.171-1.149-1.171c-0.471,0-0.962,0.146-1.317,0.376l-0.209-0.606
		c0.418-0.271,1.024-0.449,1.662-0.449c1.547,0,1.923,1.056,1.923,2.069v1.892c0,0.439,0.021,0.868,0.084,1.212H140.578z
		 M140.442,25.582c-1.004-0.021-2.144,0.157-2.144,1.139c0,0.596,0.397,0.878,0.868,0.878c0.658,0,1.076-0.418,1.223-0.847
		c0.031-0.094,0.053-0.199,0.053-0.292V25.582z"/>
	<path class="st2" d="M142.813,24.756c0-0.648-0.021-1.171-0.041-1.652h0.825l0.042,0.868h0.021
		c0.377-0.617,0.973-0.982,1.798-0.982c1.223,0,2.143,1.035,2.143,2.571c0,1.819-1.107,2.717-2.299,2.717
		c-0.669,0-1.255-0.292-1.558-0.794h-0.021v2.749h-0.91V24.756z M143.724,26.104c0,0.136,0.021,0.261,0.041,0.376
		c0.168,0.637,0.722,1.076,1.38,1.076c0.973,0,1.536-0.794,1.536-1.955c0-1.014-0.532-1.881-1.505-1.881
		c-0.627,0-1.212,0.45-1.39,1.14c-0.031,0.115-0.062,0.25-0.062,0.376V26.104z"/>
	<path class="st2" d="M148.759,20.742h0.92v3.156h0.021c0.146-0.261,0.376-0.491,0.658-0.648c0.271-0.157,0.596-0.261,0.94-0.261
		c0.68,0,1.767,0.418,1.767,2.164v3.01h-0.92v-2.906c0-0.815-0.303-1.505-1.171-1.505c-0.596,0-1.065,0.418-1.233,0.919
		c-0.052,0.125-0.062,0.261-0.062,0.439v3.052h-0.92V20.742z"/>
	<path class="st2" d="M154.758,23.104l1.107,2.99c0.115,0.334,0.241,0.731,0.324,1.035h0.021c0.094-0.303,0.198-0.69,0.323-1.056
		l1.004-2.969h0.972l-1.38,3.606c-0.658,1.735-1.107,2.623-1.734,3.167c-0.45,0.397-0.899,0.554-1.129,0.596l-0.23-0.773
		c0.23-0.073,0.533-0.22,0.805-0.45c0.251-0.198,0.564-0.554,0.773-1.024c0.042-0.094,0.073-0.167,0.073-0.219
		s-0.021-0.125-0.062-0.24l-1.871-4.662H154.758z"/>
	<path class="st2" d="M158.342,29.449c0.23-0.617,0.513-1.735,0.627-2.498l1.024-0.104c-0.24,0.888-0.7,2.048-0.992,2.54
		L158.342,29.449z"/>
	<path class="st0" d="M165.562,21.212c0.397-0.083,1.024-0.146,1.662-0.146c0.909,0,1.495,0.157,1.934,0.512
		c0.366,0.272,0.586,0.69,0.586,1.244c0,0.68-0.45,1.275-1.191,1.547v0.021c0.669,0.167,1.452,0.721,1.452,1.767
		c0,0.606-0.24,1.066-0.596,1.411c-0.491,0.449-1.285,0.658-2.436,0.658c-0.627,0-1.107-0.042-1.411-0.083V21.212z M166.472,24.097
		h0.825c0.962,0,1.526-0.502,1.526-1.181c0-0.826-0.627-1.15-1.547-1.15c-0.418,0-0.659,0.032-0.805,0.063V24.097z M166.472,27.473
		c0.178,0.031,0.438,0.042,0.763,0.042c0.94,0,1.809-0.345,1.809-1.369c0-0.962-0.826-1.359-1.819-1.359h-0.752V27.473z"/>
	<path class="st0" d="M173.996,28.163l-0.073-0.638h-0.031c-0.282,0.397-0.826,0.752-1.547,0.752c-1.024,0-1.547-0.721-1.547-1.453
		c0-1.223,1.087-1.892,3.041-1.881v-0.104c0-0.418-0.115-1.171-1.149-1.171c-0.471,0-0.962,0.146-1.317,0.376l-0.209-0.606
		c0.418-0.271,1.024-0.449,1.662-0.449c1.547,0,1.923,1.056,1.923,2.069v1.892c0,0.439,0.021,0.868,0.084,1.212H173.996z
		 M173.86,25.582c-1.004-0.021-2.144,0.157-2.144,1.139c0,0.596,0.397,0.878,0.868,0.878c0.658,0,1.076-0.418,1.223-0.847
		c0.031-0.094,0.053-0.199,0.053-0.292V25.582z"/>
	<path class="st0" d="M176.23,24.683c0-0.596-0.01-1.108-0.041-1.579h0.805l0.031,0.993h0.042c0.229-0.679,0.783-1.108,1.4-1.108
		c0.104,0,0.178,0.01,0.261,0.031v0.868c-0.094-0.021-0.188-0.031-0.313-0.031c-0.647,0-1.107,0.491-1.233,1.181
		c-0.021,0.125-0.042,0.271-0.042,0.428v2.697h-0.909V24.683z"/>
	<path class="st0" d="M183.149,27.975c-0.24,0.125-0.773,0.292-1.453,0.292c-1.525,0-2.519-1.035-2.519-2.582
		c0-1.558,1.065-2.687,2.718-2.687c0.543,0,1.023,0.136,1.274,0.261l-0.209,0.711c-0.22-0.125-0.564-0.24-1.065-0.24
		c-1.161,0-1.788,0.857-1.788,1.913c0,1.171,0.753,1.892,1.756,1.892c0.523,0,0.868-0.136,1.129-0.251L183.149,27.975z"/>
	<path class="st0" d="M184.675,25.801c0.021,1.244,0.815,1.756,1.734,1.756c0.659,0,1.057-0.115,1.401-0.261l0.156,0.659
		c-0.324,0.146-0.878,0.313-1.683,0.313c-1.558,0-2.487-1.024-2.487-2.55s0.898-2.728,2.372-2.728c1.651,0,2.091,1.453,2.091,2.383
		c0,0.188-0.021,0.334-0.031,0.428H184.675z M187.371,25.143c0.011-0.585-0.24-1.495-1.275-1.495c-0.93,0-1.338,0.857-1.411,1.495
		H187.371z"/>
	<path class="st0" d="M189.397,20.742h0.92v7.421h-0.92V20.742z"/>
	<path class="st0" d="M196.441,25.592c0,1.871-1.296,2.686-2.519,2.686c-1.369,0-2.425-1.003-2.425-2.603
		c0-1.693,1.107-2.686,2.508-2.686C195.459,22.989,196.441,24.045,196.441,25.592z M192.428,25.644c0,1.108,0.638,1.944,1.537,1.944
		c0.878,0,1.536-0.826,1.536-1.965c0-0.857-0.429-1.944-1.516-1.944S192.428,24.683,192.428,25.644z"/>
	<path class="st0" d="M197.601,24.474c0-0.523-0.01-0.951-0.041-1.37h0.814l0.053,0.836h0.021c0.251-0.481,0.837-0.951,1.673-0.951
		c0.7,0,1.787,0.418,1.787,2.153v3.021h-0.92v-2.916c0-0.815-0.303-1.495-1.171-1.495c-0.605,0-1.076,0.428-1.233,0.94
		c-0.041,0.115-0.062,0.272-0.062,0.429v3.042h-0.92V24.474z"/>
	<path class="st0" d="M203.912,25.801c0.021,1.244,0.815,1.756,1.735,1.756c0.658,0,1.056-0.115,1.4-0.261l0.156,0.659
		c-0.324,0.146-0.878,0.313-1.683,0.313c-1.558,0-2.487-1.024-2.487-2.55s0.898-2.728,2.372-2.728c1.651,0,2.091,1.453,2.091,2.383
		c0,0.188-0.021,0.334-0.031,0.428H203.912z M206.608,25.143c0.011-0.585-0.24-1.495-1.275-1.495c-0.93,0-1.338,0.857-1.411,1.495
		H206.608z"/>
	<path class="st0" d="M207.914,29.449c0.23-0.617,0.513-1.735,0.627-2.498l1.024-0.104c-0.24,0.888-0.7,2.048-0.992,2.54
		L207.914,29.449z"/>
	<path class="st0" d="M216.567,24.86h-2.738v2.54h3.052v0.763h-3.962v-7.045h3.805v0.763h-2.895v2.226h2.738V24.86z"/>
	<path class="st0" d="M217.903,27.222c0.271,0.178,0.753,0.366,1.212,0.366c0.669,0,0.983-0.334,0.983-0.753
		c0-0.439-0.262-0.679-0.941-0.93c-0.909-0.324-1.338-0.826-1.338-1.432c0-0.815,0.659-1.484,1.746-1.484
		c0.512,0,0.961,0.146,1.243,0.313l-0.229,0.669c-0.198-0.125-0.564-0.292-1.035-0.292c-0.543,0-0.847,0.313-0.847,0.69
		c0,0.418,0.304,0.606,0.962,0.857c0.878,0.334,1.327,0.773,1.327,1.526c0,0.889-0.689,1.516-1.892,1.516
		c-0.554,0-1.066-0.136-1.422-0.345L217.903,27.222z"/>
	<path class="st0" d="M222.167,24.756c0-0.648-0.021-1.171-0.041-1.652h0.825l0.042,0.868h0.021
		c0.377-0.617,0.973-0.982,1.798-0.982c1.223,0,2.143,1.035,2.143,2.571c0,1.819-1.107,2.717-2.299,2.717
		c-0.669,0-1.255-0.292-1.558-0.794h-0.021v2.749h-0.91V24.756z M223.077,26.104c0,0.136,0.021,0.261,0.041,0.376
		c0.168,0.637,0.722,1.076,1.38,1.076c0.973,0,1.536-0.794,1.536-1.955c0-1.014-0.532-1.881-1.505-1.881
		c-0.627,0-1.212,0.45-1.39,1.14c-0.031,0.115-0.062,0.25-0.062,0.376V26.104z"/>
	<path class="st0" d="M230.914,28.163l-0.073-0.638h-0.031c-0.282,0.397-0.826,0.752-1.547,0.752c-1.024,0-1.547-0.721-1.547-1.453
		c0-1.223,1.087-1.892,3.041-1.881v-0.104c0-0.418-0.115-1.171-1.149-1.171c-0.471,0-0.962,0.146-1.317,0.376l-0.209-0.606
		c0.418-0.271,1.024-0.449,1.662-0.449c1.547,0,1.923,1.056,1.923,2.069v1.892c0,0.439,0.021,0.868,0.084,1.212H230.914z
		 M230.778,25.582c-1.004-0.021-2.144,0.157-2.144,1.139c0,0.596,0.397,0.878,0.868,0.878c0.658,0,1.076-0.418,1.223-0.847
		c0.031-0.094,0.053-0.199,0.053-0.292V25.582z"/>
	<path class="st0" d="M237.509,23.104c-0.021,0.366-0.042,0.773-0.042,1.39v2.938c0,1.16-0.23,1.871-0.722,2.31
		c-0.491,0.46-1.202,0.606-1.84,0.606c-0.605,0-1.274-0.146-1.683-0.418l0.23-0.701c0.334,0.209,0.856,0.397,1.484,0.397
		c0.94,0,1.63-0.491,1.63-1.767v-0.564h-0.021c-0.282,0.471-0.826,0.847-1.609,0.847c-1.255,0-2.153-1.066-2.153-2.467
		c0-1.714,1.118-2.686,2.278-2.686c0.878,0,1.358,0.46,1.578,0.878h0.021l0.041-0.763H237.509z M236.558,25.101
		c0-0.157-0.011-0.292-0.053-0.418c-0.167-0.533-0.616-0.972-1.285-0.972c-0.879,0-1.506,0.742-1.506,1.913
		c0,0.993,0.502,1.819,1.495,1.819c0.564,0,1.076-0.355,1.275-0.941c0.052-0.157,0.073-0.334,0.073-0.491V25.101z"/>
	<path class="st0" d="M238.928,24.474c0-0.523-0.01-0.951-0.041-1.37h0.814l0.053,0.836h0.021c0.251-0.481,0.837-0.951,1.673-0.951
		c0.7,0,1.787,0.418,1.787,2.153v3.021h-0.92v-2.916c0-0.815-0.303-1.495-1.171-1.495c-0.605,0-1.076,0.428-1.233,0.94
		c-0.041,0.115-0.062,0.272-0.062,0.429v3.042h-0.92V24.474z"/>
	<path class="st0" d="M245.24,25.801c0.021,1.244,0.815,1.756,1.735,1.756c0.658,0,1.056-0.115,1.4-0.261l0.156,0.659
		c-0.324,0.146-0.878,0.313-1.683,0.313c-1.558,0-2.487-1.024-2.487-2.55s0.898-2.728,2.372-2.728c1.651,0,2.091,1.453,2.091,2.383
		c0,0.188-0.021,0.334-0.031,0.428H245.24z M247.937,25.143c0.011-0.585-0.24-1.495-1.275-1.495c-0.93,0-1.338,0.857-1.411,1.495
		H247.937z"/>
</g>
</svg>
