<?xml version="1.0" encoding="utf-8"?>
<!-- Generator: Adobe Illustrator 16.0.0, SVG Export Plug-In . SVG Version: 6.00 Build 0)  -->
<!DOCTYPE svg PUBLIC "-//W3C//DTD SVG 1.1//EN" "http://www.w3.org/Graphics/SVG/1.1/DTD/svg11.dtd">
<svg version="1.1" id="Layer_1" xmlns="http://www.w3.org/2000/svg" xmlns:xlink="http://www.w3.org/1999/xlink" x="0px" y="0px"
	 width="543.539px" height="252.565px" viewBox="10.143 256.698 543.539 252.565"
	 style="enable-background:new 10.143 256.698 543.539 252.565;" xml:space="preserve">
<style type="text/css">
<![CDATA[
	.st0{fill:#FFFFFF;stroke:#000000;stroke-miterlimit:10;}
]]>
</style>
<g>
	<path class="st0" d="M174.767,307.396c-1.112,6.891-1.679,13.729-3.393,20.267c-2.895,11.035-11.12,17.401-21.917,17.96
		c-12.753,0.659-21.441-4.249-25.481-15.751c-5.235-14.907-5.267-30.176,0.231-45.046c4.106-11.108,12.664-15.8,25.371-15.112
		c10.728,0.58,18.771,6.709,21.689,17.55C173.025,293.788,173.631,300.623,174.767,307.396z M157.318,307.977
		c-0.557-5.803-0.827-11.64-1.758-17.368c-0.715-4.411-3.17-7.756-8.272-7.846c-5.274-0.092-7.975,3.667-8.17,7.841
		c-0.535,11.421-0.485,22.898,0.038,34.323c0.187,4.061,2.933,7.504,7.888,7.544c5.08,0.041,7.712-3.12,8.472-7.585
		C156.46,319.331,156.742,313.661,157.318,307.977z"/>
	<path class="st0" d="M455.443,446.892c-5.14,0-9.748,0.205-14.312-0.149c-1.098-0.085-2.513-1.858-2.991-3.149
		c-2.544-6.869-5.107-13.754-7.107-20.791c-1.088-3.827-3.592-4.371-6.343-3.451c-1.271,0.425-2.481,2.996-2.562,4.648
		c-0.3,6.152-0.232,12.33-0.07,18.492c0.08,3.042-0.596,4.444-4.09,4.511c-11.483,0.214-11.484,0.358-11.486-11.079
		c-0.004-17.666-0.002-35.332-0.002-52.998c0-1.808,0-3.613,0-6.879c11.851,0.706,23.282,0.726,34.489,2.32
		c6.097,0.868,9.429,6.498,10.896,12.529c2.233,9.185,1.264,17.479-6.627,23.996c-0.918,0.758-1.242,3.26-0.75,4.531
		c3.123,8.072,6.561,16.024,9.871,24.025C454.716,444.321,454.93,445.254,455.443,446.892z M427.322,388.124
		c-4.421-1.056-5.784,1.199-5.377,5.707c0.312,3.464-0.094,6.986,0.157,10.459c0.089,1.208,1.367,3.416,1.799,3.345
		c3.941-0.658,8.556-0.725,11.521-2.921c3.443-2.555,3.32-7.441,1.711-11.562C435.492,388.954,431.855,387.963,427.322,388.124z"/>
	<path class="st0" d="M278.402,331.47c0,4.688,0,8.595,0,13.138c-7.896,0-15.502,0-23.107,0c-5.826,0-11.653-0.075-17.479,0.031
		c-2.584,0.048-4.001-0.527-3.989-3.554c0.084-22.305,0.01-44.61,0.146-66.916c0.007-1.195,1.466-3.409,2.274-3.422
		c13.932-0.212,27.865-0.152,42.123-0.152c0,4.317,0,8.074,0,12.529c-9.181,0-18.398,0-28.366,0c0,5.433-0.18,10.21,0.163,14.95
		c0.062,0.871,2.202,2.202,3.442,2.271c4.812,0.268,9.654,0.242,14.476,0.064c3.102-0.112,4.543,0.733,4.467,4.165
		c-0.228,10.371,0.728,8.54-8.334,8.719c-0.334,0.008-0.666,0.002-1,0.002c-13.933-0.003-13.845-0.006-13.333,14.248
		c0.109,3.062,1.124,4.032,4.11,3.977C261.959,331.371,269.927,331.47,278.402,331.47z"/>
	<path class="st0" d="M112.934,318.827c0.612,12.505-7.489,23.584-18.688,26.18c-13.833,3.204-26.039-2.653-30.896-16.304
		c-5.351-15.041-5.397-30.492,1.474-45.248c5.374-11.54,17.297-16.229,30.921-12.954c9.366,2.253,17.435,13.538,17.153,24.441
		c-0.029,1.185-1.717,3.137-2.871,3.33c-3.566,0.599-7.248,0.52-11.283,0.724c-0.439-2.688-0.709-5.121-1.25-7.491
		c-1.2-5.258-4.61-8.577-8.948-8.723c-5.189-0.173-8.002,2.862-9.244,7.481c-3.124,11.626-3.257,23.334-0.245,34.992
		c1.153,4.466,4.139,7.223,8.992,7.207c4.934-0.016,7.388-3.214,8.907-7.423c2.557-7.085,2.552-7.091,10.268-6.629
		C109.023,318.52,110.822,318.672,112.934,318.827z"/>
	<path class="st0" d="M504.174,428.726c4.396-1.241,8.498-2.399,12.938-3.652c0.731,1.526,1.354,2.83,1.981,4.13
		c2.576,5.329,7.972,7.896,13.254,5.449c2.178-1.01,4.601-3.846,4.822-6.062c0.223-2.21-1.594-5.542-3.543-6.85
		c-3.384-2.268-7.551-3.373-11.404-4.931c-12.988-5.252-18.32-15.383-14.25-27.11c3.877-11.169,16.134-16.854,28.698-13.236
		c6.189,1.781,11.093,5.156,13.771,11.32c1.209,2.785,1.271,4.741-2.256,5.553c-1.439,0.332-2.832,0.991-4.161,1.671
		c-3.126,1.597-4.984,1.37-7.142-2.146c-1.428-2.329-5.26-4.227-8.082-4.321c-2.213-0.074-5.647,2.498-6.445,4.665
		c-0.634,1.724,1.281,5.577,3.157,6.781c4.004,2.57,8.667,4.161,13.149,5.927c10.263,4.042,15.308,11.614,14.42,21.938
		c-0.868,10.098-7.375,17.118-17.906,19.322C519.553,450.444,508.288,443.985,504.174,428.726z"/>
	<path class="st0" d="M398.218,446.896c-4.729,0-8.868,0.137-12.986-0.1c-0.99-0.058-2.418-1.161-2.771-2.108
		c-1.434-3.86-1.447-10.021-3.995-11.289c-4.043-2.01-9.71-0.605-14.665-0.98c-3.42-0.26-4.529,1.3-5.29,4.353
		c-2.852,11.467-3.601,11.83-16.431,9.482c2.62-8.771,5.21-17.491,7.833-26.203c3.935-13.07,8.037-26.092,11.738-39.228
		c0.898-3.189,2.178-4.223,5.419-4.232c11.318-0.037,11.416-0.182,14.568,10.701c5.234,18.063,10.341,36.166,15.472,54.26
		C397.549,443.098,397.772,444.708,398.218,446.896z M376.286,419.992c-2.2-8.938-4.265-17.331-6.33-25.723
		c-0.402-0.009-0.805-0.017-1.208-0.025c-1.994,8.431-3.988,16.858-6.091,25.748C367.258,419.992,371.313,419.992,376.286,419.992z"
		/>
	<path class="st0" d="M26.882,331.475c8.362,0,15.859,0.275,23.322-0.104c4.524-0.229,6.037,1.296,5.483,5.647
		c-0.286,2.253-0.05,4.572-0.05,7.224c-15.12,0-29.667,0-44.491,0c-0.146-1.307-0.381-2.423-0.384-3.539
		c-0.032-17.497,0.06-34.995-0.119-52.491c-0.037-3.652,0.925-4.9,4.736-4.893c11.444,0.029,11.673-0.127,11.373,11.056
		c-0.127,4.723,1.091,6.569,6.036,6.177c5.258-0.42,10.575-0.096,16.544-0.096c0,3.84,0.26,7.149-0.16,10.373
		c-0.124,0.949-2.136,2.285-3.342,2.352c-4.985,0.269-9.997,0.242-14.99,0.074c-3.072-0.104-4.125,1.104-4.006,4.102
		C27.012,321.811,26.882,326.277,26.882,331.475z"/>
	<path class="st0" d="M184.641,344.304c0-24.5,0-48.734,0-73.705c4.56,0,9.024-0.26,13.414,0.204
		c0.951,0.102,2.309,2.796,2.324,4.308c0.165,16.495,0.1,32.993,0.1,49.49c-0.001,6.827,0,6.829,6.603,6.833
		c5.479,0.003,10.961,0,16.844,0c0,4.464,0,8.511,0,12.87C210.789,344.304,197.894,344.304,184.641,344.304z"/>
	<path class="st0" d="M472.747,446.917c0-19.284,0-37.857,0-56.922c-4.808,0-9.062,0-13.709,0c0-4.538,0-8.581,0-13.337
		c6.404,0,12.671-0.001,18.938,0.001c6.825,0.001,13.654,0.122,20.476-0.045c2.984-0.073,4.153,0.842,4.102,3.947
		c-0.188,11.337,0.853,9.136-8.68,9.341c-1.643,0.036-3.287,0.006-5.481,0.006c-0.104,2.129-0.265,3.893-0.267,5.654
		c-0.02,15.482-0.146,30.967,0.083,46.445c0.061,4.027-1.196,5.34-5.099,4.969C479.998,446.68,476.837,446.917,472.747,446.917z"/>
	<path class="st0" d="M547.182,493.573c0-12.852,0-25.704,0-39.065c2.007-0.145,3.533-0.253,5.455-0.392
		c0.144,1.906,0.342,3.355,0.344,4.806c0.023,14.645,0.076,29.291-0.075,43.935c-0.018,1.627-0.854,4.172-2.011,4.67
		c-2.479,1.07-4.576-0.089-5.903-2.883c-5.925-12.461-12.035-24.832-18.093-37.229c-0.422-0.861-0.952-1.672-2.096-3.658
		c-0.283,2.383-0.537,3.536-0.541,4.689c-0.027,11.649,0.073,23.301-0.126,34.947c-0.023,1.469-1.354,3.948-2.449,4.174
		c-3.361,0.692-2.936-2.174-2.938-4.28c-0.017-14.646-0.08-29.292,0.098-43.935c0.021-1.746,1.072-4.649,2.228-4.979
		c2.729-0.776,5.745-0.87,7.46,2.84c5.158,11.168,10.615,22.198,15.974,33.274c0.542,1.12,1.207,2.181,1.813,3.269
		C546.608,493.693,546.895,493.634,547.182,493.573z"/>
	<path class="st0" d="M285.163,480.899c0.004-7.312,0.248-14.635-0.091-21.932c-0.193-4.146,1.374-5.308,5.156-4.89
		c5.252,0.581,10.816,0.072,15.729,1.649c11.828,3.801,17.765,17.126,14.781,31.278c-2.973,14.098-11.274,20.706-26.112,20.784
		c-9.465,0.051-9.466,0.051-9.467-9.442C285.159,492.532,285.159,486.716,285.163,480.899z M291.656,460.083
		c0,13.294-0.065,26.403,0.136,39.511c0.015,0.948,1.894,2.553,3.043,2.688c8.648,1.019,15.905-3.626,18.033-12.225
		c1.131-4.572,1.356-9.596,0.864-14.298C312.49,463.919,304.53,458.254,291.656,460.083z"/>
	<path class="st0" d="M504.753,481.26c-1.126,5.526-1.736,11.024-3.416,16.176c-2.457,7.533-8.559,11.374-16.404,11.327
		c-7.701-0.046-13.827-4.204-16.35-11.562c-3.676-10.723-3.756-21.559-0.065-32.309c2.604-7.585,8.864-11.952,16.661-11.933
		c7.554,0.018,13.859,4.157,16.242,11.708C503.1,469.989,503.671,475.66,504.753,481.26z M471.878,480.534
		c1.32,5.845,2.176,11.582,3.982,17.004c1.379,4.138,5.104,5.867,9.562,5.749c4.274-0.112,7.475-2.032,8.95-5.969
		c4.059-10.812,4.025-21.771,0.078-32.593c-1.498-4.107-4.896-6.194-9.336-6.246c-4.224-0.049-7.783,1.746-9.133,5.667
		C474.173,469.393,473.234,474.939,471.878,480.534z"/>
	<path class="st0" d="M342.706,459.532c0,6.293,0,11.719,0,17.692c4.809,0,9.283-0.194,13.722,0.118
		c1.336,0.094,2.573,1.599,3.855,2.457c-1.204,0.941-2.372,1.938-3.635,2.794c-0.345,0.232-0.979,0.014-1.477,0.047
		c-4.087,0.269-8.174,0.549-12.261,0.825c-0.163,5.624-0.468,11.252-0.313,16.866c0.021,0.725,2.398,1.922,3.723,1.977
		c5.489,0.228,11-0.022,16.489,0.217c0.996,0.043,1.929,1.558,2.891,2.394c-0.842,0.948-1.665,2.703-2.528,2.724
		c-8.79,0.203-17.587,0.124-26.657,0.124c-0.185-1.755-0.434-3.026-0.436-4.297c-0.024-14.833,0.084-29.666-0.076-44.496
		c-0.039-3.549,0.709-5.13,4.664-4.949c6.819,0.312,13.667-0.039,20.49,0.209c1.327,0.048,2.601,1.562,3.898,2.397
		c-1.354,0.968-2.668,2.695-4.068,2.771C355.041,459.712,349.07,459.532,342.706,459.532z"/>
	<path class="st0" d="M10.985,270.152c0-4.803,0-8.726,0-12.954c14.783,0,29.295,0,44.536,0c0,3.622,0.163,7.053-0.109,10.449
		c-0.072,0.891-1.486,2.39-2.297,2.397C39.217,270.194,25.319,270.152,10.985,270.152z"/>
	<path class="st0" d="M307.637,405.846c6.145,0.004,12.291,0.099,18.433-0.039c2.743-0.062,3.745,0.847,3.859,3.688
		c0.386,9.441,0.495,9.438-9.082,9.438c-10.295,0-20.594-0.143-30.885,0.072c-3.663,0.075-4.971-0.964-4.842-4.757
		c0.334-9.89-0.986-8.262,8.568-8.396C298.337,405.789,302.988,405.843,307.637,405.846z"/>
	<path class="st0" d="M423.434,454.732c4.301-1.484,6.8-0.549,8.523,3.583c2.735,6.557,6.039,12.876,9.572,20.281
		c3.598-7.639,6.715-14.351,9.92-21.021c1.805-3.756,1.881-3.729,7.139-2.769c-1.837,3.992-3.298,8.057-5.462,11.703
		c-6.8,11.459-10.689,23.521-8.938,37.019c0.295,2.271,0.077,4.743-3.168,4.118c-1.156-0.223-2.06-1.795-3.058-2.772
		c-0.085-0.082-0.043-0.325-0.016-0.486c2.723-16.231-4.539-29.753-11.707-43.315C425.18,459.065,424.392,456.915,423.434,454.732z"
		/>
	<path class="st0" d="M145.598,413.951c5.496,4.421,7.106,8.753,5.201,14.026c-1.996,5.52-6.709,6.359-11.742,6.577
		c-11.374,0.492-11.376,0.501-11.381-11.053c-0.004-7.985,0.105-15.974-0.055-23.957c-0.062-3.076,1.048-4.218,4.063-3.981
		c2.315,0.181,4.656,0.028,6.985,0.05c4.504,0.042,8.704,0.63,10.58,5.649C151.01,405.974,150.084,409.455,145.598,413.951z
		 M137.087,430.732c6.706-0.088,9.594-2.51,9.387-7.464c-0.203-4.899-3.516-7.327-9.921-7.121c-7.712,0.248-3.122,6.114-3.997,9.335
		C131.536,429.238,133.094,431.672,137.087,430.732z M131.722,411.983c5.579,0.098,10.31,1.768,12.528-2.936
		c0.953-2.021,0.447-6.537-0.989-7.471c-2.45-1.591-8.375-2.482-8.924-1.495C132.551,403.301,132.538,407.502,131.722,411.983z"/>
	<path class="st0" d="M10.729,395.908c8.526-0.602,16.535-1.3,22.056,5.952c5.316,6.985,5.384,14.907,2.14,22.762
		c-3.305,8.001-13.933,12.575-22.304,9.79c-0.857-0.285-1.801-1.898-1.812-2.905C10.683,419.851,10.729,408.194,10.729,395.908z
		 M15.394,430.248c9.03,0.988,14.192-1.558,15.488-8.906c0.869-4.926,0.058-10.481-1.334-15.377
		c-1.447-5.088-6.371-6.403-11.312-6.162c-0.984,0.049-2.699,1.581-2.719,2.459C15.318,411.497,15.394,420.74,15.394,430.248z"/>
	<path class="st0" d="M393.647,507.786c0-11.767,0.001-22.717,0-33.666c-0.001-4.824-0.103-9.651,0.024-14.473
		c0.063-2.389-1.16-5.656,3.417-5.578c4.275,0.073,3.084,3.132,3.1,5.338c0.084,12.644,0.167,25.289-0.035,37.931
		c-0.062,3.843,0.958,5.474,5.026,5.145c3.968-0.322,7.995-0.265,11.963,0.049c1.159,0.091,2.205,1.627,3.303,2.5
		c-1.045,0.919-2.066,2.603-3.139,2.634C409.687,507.893,402.055,507.786,393.647,507.786z"/>
	<path class="st0" d="M164.541,359.8c0,8.303,0.078,16.605-0.08,24.904c-0.025,1.319-1.113,2.619-1.709,3.929
		c-0.635-1.289-1.797-2.57-1.817-3.87c-0.152-9.479-0.157-18.965,0.009-28.443c0.027-1.516,1.146-3.013,1.759-4.518
		c1.808,1.062,4.442,1.684,5.28,3.261c4.123,7.759,7.77,15.771,12.802,23.616c0-4.979,0-9.96,0-14.939
		c0.001-2.994-0.15-6.001,0.09-8.977c0.081-1.004,1.159-1.929,1.781-2.89c0.597,1.003,1.688,1.996,1.709,3.012
		c0.149,7.481,0.087,14.97,0.09,22.456c0.001,3.626,0,7.252,0,10.878c-0.473,0.364-0.943,0.73-1.415,1.097
		c-1.464-1.201-3.49-2.108-4.298-3.653c-4.513-8.634-8.729-17.422-13.049-26.157C165.309,359.603,164.926,359.702,164.541,359.8z"/>
	<path class="st0" d="M32.938,389.375c-1.456-1.247-3.448-2.211-4.275-3.786c-4.015-7.649-7.708-15.467-11.536-23.215
		c-0.411-0.831-0.952-1.598-2.604-2.283c0,3.354,0.001,6.709,0,10.062c-0.001,5.32,0.074,10.645-0.085,15.96
		c-0.024,0.854-1.099,1.679-1.688,2.518c-0.656-0.753-1.875-1.496-1.884-2.256c-0.125-10.641-0.14-21.282,0.008-31.924
		c0.012-0.9,1.508-2.613,2.076-2.519c1.581,0.265,3.769,0.882,4.418,2.068c3.103,5.679,5.771,11.594,8.603,17.421
		c1.14,2.347,2.297,4.685,4.593,6.873c0-6.845-0.137-13.694,0.085-20.532c0.064-1.987,1.155-3.941,1.775-5.911
		c0.708,1.917,1.99,3.823,2.029,5.754c0.205,10.118,0.096,20.242,0.096,30.364C34.014,388.438,33.476,388.906,32.938,389.375z"/>
	<path class="st0" d="M222.568,411.76c-0.006-4.326-0.146-8.659,0.094-12.973c0.06-1.084,1.343-2.101,2.062-3.147
		c0.896,1.051,2.538,2.082,2.567,3.156c0.22,8.146,0.051,16.302,0.15,24.451c0.074,5.92,2.112,8.188,6.988,8.209
		c5.038,0.023,7.322-2.479,7.391-8.431c0.09-7.818-0.078-15.642,0.148-23.454c0.039-1.326,1.508-2.611,2.314-3.915
		c0.665,1.275,1.878,2.539,1.904,3.828c0.166,7.981,0.228,15.974,0.008,23.953c-0.232,8.435-4.008,12.091-11.902,12.084
		c-7.729-0.006-11.488-3.907-11.703-12.284C222.493,419.415,222.574,415.588,222.568,411.76z"/>
	<path class="st0" d="M97.732,405.538c-1.345-0.829-2.667-1.698-4.04-2.479c-2.428-1.379-4.828-3.577-7.354-3.75
		c-1.741-0.119-4.716,2.305-5.228,4.128c-0.489,1.75,0.912,4.937,2.506,6.157c2.56,1.962,6.009,2.727,8.997,4.171
		c5.965,2.884,8.439,6.897,7.632,12.077c-0.771,4.938-4.963,8.898-10.158,9.594c-6.195,0.828-12.294-1.906-14.259-6.797
		c-0.53-1.32,0.181-3.141,0.322-4.729c1.245,0.88,2.974,1.489,3.646,2.689c2.184,3.89,5.545,5.712,9.536,4.545
		c2.275-0.666,5.023-3.066,5.591-5.207c0.491-1.854-1.277-5.018-2.987-6.557c-2-1.803-5.007-2.503-7.6-3.627
		c-6.067-2.632-9.174-7.196-8.218-12.144c0.987-5.109,4.664-8.215,10.199-8.618c6.469-0.47,10.244,2.3,12.296,9.021
		C98.321,404.522,98.026,405.03,97.732,405.538z"/>
	<path class="st0" d="M149.617,370.308c-1.066,4.306-1.691,8.785-3.315,12.868c-1.741,4.376-5.602,6.423-10.403,6.403
		c-4.99-0.019-8.729-2.238-10.773-6.749c-3.392-7.479-3.246-15.305-0.931-22.959c1.996-6.596,6.139-9.032,12.86-8.609
		c5.733,0.358,9.723,3.967,11.082,10.414c0.581,2.752,0.613,5.618,0.896,8.435C149.227,370.177,149.422,370.243,149.617,370.308z
		 M127.022,370.282c0.562,3.338,0.405,7.142,1.942,10.048c1.242,2.352,4.445,4.838,6.928,5.003c2.159,0.145,5.684-2.401,6.591-4.593
		c2.8-6.752,2.786-14.081,0.032-20.82c-0.945-2.312-4.627-4.943-6.957-4.853c-2.368,0.095-5.424,2.939-6.693,5.359
		C127.409,363.199,127.586,366.83,127.022,370.282z"/>
	<path class="st0" d="M215.256,433.879c-5.55,1.831-5.614-2.041-5.904-4.672c-0.507-4.604-2.688-5.636-7.172-5.962
		c-5.964-0.435-7.018,2.879-7.767,7.229c-0.505,2.935-1.345,5.306-5.519,3.282c2.06-7.499,4.098-14.996,6.182-22.479
		c1.204-4.326,2.35-8.678,3.819-12.914c0.387-1.111,1.803-2.425,2.895-2.576c1.131-0.156,3.302,0.738,3.546,1.594
		C208.779,409.468,211.972,421.625,215.256,433.879z M202.666,403.116c-0.447,0.035-0.896,0.069-1.341,0.104
		c-1.335,5.308-2.672,10.614-4.059,16.132c3.529,0,6.255,0,9.455,0C205.291,413.624,203.978,408.37,202.666,403.116z"/>
	<path class="st0" d="M51.874,416.446c0,5.122,0,9.374,0,14.278c4.403,0,8.525-0.16,12.622,0.093
		c1.306,0.081,2.543,1.259,3.812,1.935c-1.32,0.613-2.618,1.693-3.963,1.757c-4.652,0.219-9.335,0.279-13.975-0.049
		c-1.262-0.09-3.435-1.739-3.454-2.71c-0.24-11.787-0.156-23.58-0.156-36.124c6.533,0,12.629-0.07,18.718,0.092
		c0.757,0.021,1.48,1.28,2.219,1.968c-0.775,0.65-1.529,1.831-2.332,1.866c-4.295,0.188-8.603,0.088-13.755,0.088
		c0,3.862-0.208,7.29,0.146,10.657c0.088,0.839,1.926,1.962,3.076,2.122c2.453,0.344,5.002-0.029,7.466,0.269
		c0.752,0.091,1.354,1.413,2.027,2.172c-0.713,0.529-1.403,1.479-2.141,1.516C58.895,416.541,55.594,416.446,51.874,416.446z"/>
	<path class="st0" d="M167.295,416.478c-0.471,0.949-0.59,1.089-0.608,1.24c-1.557,12.977-1.556,12.977,11.151,13.001
		c0.999,0.002,2.082-0.233,2.975,0.077c0.911,0.316,1.637,1.171,2.442,1.789c-0.762,0.66-1.507,1.868-2.288,1.893
		c-5.49,0.169-10.997,0.249-16.478-0.043c-1.008-0.054-2.727-1.919-2.745-2.975c-0.199-10.987-0.195-21.982,0.016-32.972
		c0.02-0.981,1.852-2.697,2.918-2.76c4.979-0.291,9.991-0.246,14.979-0.021c1.084,0.05,2.113,1.33,3.17,2.044
		c-1.147,0.639-2.259,1.727-3.449,1.825c-3.144,0.264-6.324,0.185-9.485,0.074c-2.599-0.091-3.662,1.058-3.484,3.576
		c0.058,0.828,0.002,1.665-0.001,2.497c-0.026,6.786-0.021,6.617,6.701,6.906c2.068,0.089,4.085,1.377,6.125,2.115
		c-2.021,0.576-4.01,1.362-6.069,1.668C171.236,416.703,169.236,416.478,167.295,416.478z"/>
	<path class="st0" d="M266.422,419.051c-5.373,4.627-4.552,13.222-11.297,15.744c-0.479-0.327-0.955-0.654-1.433-0.981
		c2.623-5.31,5.486-10.52,7.742-15.979c0.823-1.99,0.857-4.822,0.106-6.847c-1.831-4.938-4.331-9.626-6.625-14.55
		c4.771-2.404,5.556,1.181,6.822,3.909c1.314,2.831,2.582,5.685,3.984,8.78c4.617-3.869,4.014-11.568,9.963-13.702
		c0.506,0.354,1.014,0.708,1.52,1.062c-1.984,3.94-3.721,8.035-6.026,11.777c-2.285,3.709-2.025,6.918,0.006,10.606
		c2.619,4.753,4.765,9.768,7.196,14.841c-5.803,2.517-6.188-2.079-7.608-4.807C269.178,425.838,267.957,422.576,266.422,419.051z"/>
	<path class="st0" d="M220.132,388.07c-4.056,1.707-4.751-0.635-5.403-3.267c-1.658-6.687-4.221-8.516-10.72-6.415
		c-1.703,0.55-2.676,3.959-3.583,6.216c-1.006,2.5-1.339,5.496-5.479,3.436c3.138-11.198,6.199-22.409,9.517-33.546
		c0.343-1.149,2.198-2.571,3.343-2.563c1.179,0.009,3.083,1.405,3.403,2.551C214.309,365.531,217.142,376.657,220.132,388.07z
		 M212.144,374.36c-1.515-5.724-2.843-10.742-4.171-15.761c-0.385,0.061-0.771,0.121-1.156,0.182
		c-1.202,5.055-2.405,10.109-3.708,15.579C206.314,374.36,208.732,374.36,212.144,374.36z"/>
	<path class="st0" d="M44.902,387.985c3.189-11.3,6.318-22.618,9.671-33.869c0.301-1.011,2.039-2.188,3.126-2.203
		c1.074-0.016,2.865,1.145,3.147,2.13c3.228,11.265,6.224,22.594,9.279,33.892c-4.074,1.897-5.025-0.354-5.298-3.078
		c-0.522-5.213-2.858-7.066-8.419-6.993c-5.727,0.075-5.258,4.045-6.184,7.194C49.403,387.851,48.628,389.831,44.902,387.985z
		 M61.966,374.295c-1.317-5.409-2.528-10.383-3.739-15.354c-0.481-0.004-0.964-0.008-1.445-0.011
		c-1.255,5.04-2.51,10.08-3.825,15.365C56.327,374.295,58.887,374.295,61.966,374.295z"/>
	<path class="st0" d="M262.639,367.557c3.742,0,6.717-0.163,9.654,0.093c0.973,0.084,1.853,1.247,2.774,1.917
		c-0.959,0.64-1.851,1.665-2.891,1.848c-3.023,0.531-7.854-0.295-8.773,1.281c-1.54,2.636-0.615,6.722-0.686,10.197
		c-0.011,0.476,0.225,0.957,0.537,2.184c3.944,0,8.059-0.14,12.148,0.093c1.102,0.062,2.138,1.258,3.203,1.933
		c-1.009,0.555-2.006,1.56-3.03,1.588c-5.63,0.157-11.268,0.075-17.598,0.075c0-7.847-0.089-15.276,0.032-22.703
		c0.075-4.589-1.231-10.931,1.189-13.271c2.48-2.396,8.748-0.879,13.359-1.056c0.996-0.039,2.069-0.223,2.973,0.072
		c0.931,0.303,1.695,1.107,2.532,1.693c-0.797,0.615-1.554,1.688-2.397,1.764c-2.641,0.233-5.332,0.293-7.971,0.05
		c-3.842-0.354-5.623,0.917-5.106,4.998C262.857,362.416,262.639,364.579,262.639,367.557z"/>
	<path class="st0" d="M230.803,388.742c0-11.941-0.049-23.215,0.101-34.484c0.012-0.838,1.455-1.655,2.233-2.482
		c0.718,1.095,2.031,2.175,2.059,3.286c0.188,7.816,0.111,15.642,0.118,23.464c0.002,1.962,0.001,3.924,0.001,6.553
		c4.037,0,7.498-0.131,10.938,0.077c1.068,0.064,2.084,1.047,3.123,1.608c-1.087,0.659-2.148,1.84-3.261,1.889
		C241.311,388.862,236.493,388.742,230.803,388.742z"/>
	<path class="st0" d="M88.984,355.766c0,9.678,0.116,18.81-0.104,27.934c-0.041,1.675-1.446,3.317-2.222,4.976
		c-0.681-1.601-1.902-3.185-1.946-4.802c-0.207-7.656-0.254-15.327-0.023-22.983c0.116-3.854-0.638-6.028-5.126-5.566
		c-1.176,0.121-2.502-1.219-3.759-1.888c1.196-0.567,2.375-1.577,3.592-1.625c4.823-0.188,9.665-0.212,14.486,0.016
		c1.318,0.062,2.584,1.215,3.875,1.867c-1.355,0.581-2.668,1.325-4.08,1.693C92.424,355.713,91.064,355.62,88.984,355.766z"/>
	<path class="st0" d="M110.664,370.535c0.005,4.975,0.126,9.952-0.088,14.916c-0.049,1.106-1.276,2.161-1.96,3.24
		c-0.844-1.083-2.396-2.152-2.417-3.25c-0.185-10.109-0.165-20.224-0.01-30.333c0.018-1.111,1.256-2.205,1.93-3.307
		c0.847,1.104,2.364,2.177,2.424,3.322C110.808,360.25,110.658,365.396,110.664,370.535z"/>
</g>
</svg>
