<?xml version="1.0" encoding="utf-8"?>
<!-- Generator: Adobe Illustrator 16.0.0, SVG Export Plug-In . SVG Version: 6.00 Build 0)  -->
<!DOCTYPE svg PUBLIC "-//W3C//DTD SVG 1.1//EN" "http://www.w3.org/Graphics/SVG/1.1/DTD/svg11.dtd">
<svg version="1.1" id="Layer_1" xmlns="http://www.w3.org/2000/svg" xmlns:xlink="http://www.w3.org/1999/xlink" x="0px" y="0px"
	 width="425.778px" height="147.045px" viewBox="-37.52 27.164 425.778 147.045"
	 enable-background="new -37.52 27.164 425.778 147.045" xml:space="preserve">
<g>
	<g>
		<path fill="#FFFFFF" d="M16.847,165.874c3.049,0.228,6.098,0.347,9.143,0.316c3.043,0.012,6.083-0.135,9.092-0.473
			c1.503-0.181,3-0.379,4.481-0.656c0.738-0.148,1.477-0.295,2.203-0.48c0.731-0.172,1.452-0.377,2.169-0.588
			c0.717-0.217,1.421-0.461,2.113-0.731c0.687-0.281,1.377-0.562,2.026-0.91c0.666-0.322,1.291-0.711,1.907-1.104
			c0.297-0.211,0.607-0.407,0.895-0.631l0.842-0.692l0.397-0.328l0.42,0.239c1.062,0.605,2.191,1.175,3.317,1.707
			c1.13,0.531,2.266,1.06,3.426,1.525c0.579,0.236,1.154,0.48,1.744,0.688c0.588,0.211,1.169,0.446,1.764,0.637l1.777,0.596
			l1.802,0.514c0.599,0.187,1.212,0.3,1.82,0.439c0.609,0.137,1.219,0.281,1.837,0.359c0.617,0.088,1.233,0.2,1.854,0.27
			c0.621,0.043,1.243,0.092,1.866,0.15c0.624,0.067,1.246,0.01,1.873,0.021l0.939-0.012l0.931-0.113
			c0.615-0.102,1.26-0.094,1.858-0.287l1.838-0.455l-1.79,0.644l-0.451,0.158l-0.467,0.096l-0.937,0.188l-0.94,0.188l-0.952,0.084
			c-0.636,0.037-1.275,0.146-1.913,0.123c-0.639-0.002-1.279-0.014-1.919-0.033c-0.638-0.041-1.271-0.127-1.908-0.188
			c-0.64-0.052-1.268-0.17-1.896-0.281c-0.629-0.113-1.265-0.201-1.883-0.361l-1.866-0.438l-1.843-0.523
			c-0.614-0.178-1.211-0.404-1.817-0.604c-0.607-0.197-1.2-0.435-1.797-0.66c-1.193-0.453-2.372-0.945-3.528-1.486
			c-1.163-0.539-2.297-1.096-3.436-1.734l0.817-0.086l-0.921,0.771c-0.312,0.248-0.646,0.465-0.97,0.697
			c-0.662,0.438-1.347,0.846-2.058,1.184c-0.699,0.367-1.43,0.658-2.157,0.949c-0.732,0.281-1.473,0.531-2.221,0.75
			c-0.749,0.213-1.499,0.43-2.26,0.582c-0.757,0.174-1.521,0.307-2.283,0.44c-1.528,0.242-3.062,0.437-4.6,0.545
			c-3.076,0.201-6.152,0.205-9.216,0.054c-0.767-0.029-1.53-0.103-2.294-0.164l-2.287-0.229
			C19.869,166.367,18.35,166.161,16.847,165.874z"/>
	</g>
	<g>
		<path fill="#FFFFFF" d="M65.778,155.001c3.049,0.228,6.098,0.347,9.143,0.316c3.042,0.012,6.082-0.135,9.091-0.473
			c1.503-0.181,3-0.379,4.481-0.656c0.737-0.148,1.476-0.295,2.203-0.482c0.731-0.17,1.452-0.375,2.169-0.586
			c0.716-0.217,1.42-0.461,2.113-0.731c0.687-0.281,1.376-0.562,2.026-0.91c0.665-0.322,1.29-0.711,1.906-1.104
			c0.297-0.213,0.607-0.407,0.895-0.633l0.842-0.692l0.397-0.326l0.42,0.24c1.062,0.604,2.191,1.174,3.317,1.704
			c1.13,0.533,2.267,1.06,3.426,1.525c0.579,0.236,1.154,0.482,1.744,0.689c0.588,0.211,1.169,0.444,1.764,0.637l1.777,0.596
			l1.802,0.514c0.599,0.187,1.212,0.3,1.821,0.439c0.609,0.137,1.218,0.281,1.837,0.357c0.617,0.09,1.233,0.202,1.854,0.271
			c0.621,0.041,1.243,0.092,1.866,0.148c0.624,0.069,1.246,0.012,1.872,0.022l0.94-0.012l0.931-0.113
			c0.615-0.102,1.259-0.094,1.858-0.287l1.838-0.455l-1.79,0.644l-0.451,0.158l-0.467,0.094l-0.937,0.188l-0.94,0.188l-0.952,0.084
			c-0.636,0.037-1.275,0.145-1.914,0.123c-0.638-0.004-1.278-0.014-1.919-0.033c-0.638-0.041-1.271-0.127-1.908-0.188
			c-0.64-0.052-1.267-0.168-1.896-0.279c-0.628-0.115-1.265-0.201-1.882-0.363l-1.866-0.438l-1.844-0.525
			c-0.614-0.178-1.21-0.404-1.817-0.604c-0.607-0.2-1.2-0.437-1.797-0.662c-1.192-0.453-2.372-0.945-3.528-1.484
			c-1.162-0.539-2.297-1.098-3.436-1.734l0.817-0.088l-0.92,0.771c-0.313,0.246-0.647,0.465-0.971,0.697
			c-0.662,0.438-1.347,0.844-2.057,1.184c-0.7,0.367-1.431,0.658-2.158,0.949c-0.731,0.28-1.472,0.528-2.22,0.75
			c-0.749,0.213-1.499,0.43-2.26,0.582c-0.757,0.174-1.521,0.307-2.283,0.44c-1.528,0.242-3.062,0.435-4.6,0.545
			c-3.076,0.201-6.152,0.205-9.216,0.054c-0.766-0.029-1.53-0.103-2.294-0.164l-2.286-0.229
			C68.798,155.493,67.281,155.288,65.778,155.001z"/>
	</g>
	<g>
		<path fill="#FFFFFF" d="M-37.52,152.283c3.049,0.228,6.098,0.347,9.143,0.316c3.042,0.012,6.082-0.135,9.091-0.474
			c1.503-0.18,3-0.379,4.481-0.655c0.738-0.148,1.477-0.295,2.204-0.48c0.731-0.172,1.451-0.377,2.168-0.588
			c0.717-0.217,1.421-0.461,2.113-0.731c0.687-0.281,1.377-0.562,2.026-0.91c0.666-0.322,1.291-0.711,1.907-1.104
			c0.297-0.211,0.607-0.408,0.895-0.631l0.842-0.693l0.397-0.327l0.42,0.239c1.062,0.605,2.191,1.174,3.317,1.707
			c1.13,0.531,2.266,1.06,3.426,1.525c0.579,0.236,1.154,0.479,1.744,0.688c0.588,0.211,1.169,0.447,1.763,0.638l1.778,0.596
			l1.802,0.514c0.599,0.187,1.212,0.299,1.82,0.439c0.609,0.137,1.219,0.281,1.837,0.358c0.617,0.089,1.233,0.201,1.854,0.271
			c0.621,0.043,1.243,0.092,1.866,0.15c0.624,0.067,1.246,0.01,1.873,0.021l0.939-0.012l0.931-0.113
			c0.615-0.102,1.26-0.094,1.858-0.287l1.838-0.455l-1.79,0.644l-0.451,0.157l-0.467,0.097l-0.937,0.188l-0.94,0.188l-0.952,0.084
			c-0.636,0.037-1.275,0.146-1.913,0.123c-0.639-0.002-1.279-0.015-1.919-0.033c-0.638-0.041-1.271-0.127-1.908-0.188
			c-0.64-0.051-1.268-0.17-1.896-0.28c-0.629-0.113-1.265-0.201-1.883-0.361l-1.866-0.439l-1.843-0.522
			c-0.614-0.178-1.211-0.404-1.817-0.605c-0.607-0.196-1.2-0.434-1.797-0.659c-1.193-0.453-2.372-0.945-3.528-1.486
			c-1.163-0.539-2.297-1.096-3.436-1.734l0.817-0.086l-0.921,0.771c-0.312,0.248-0.646,0.465-0.97,0.696
			c-0.662,0.438-1.347,0.847-2.058,1.185c-0.699,0.367-1.43,0.658-2.157,0.949c-0.732,0.28-1.473,0.53-2.221,0.75
			c-0.749,0.213-1.498,0.43-2.26,0.582c-0.757,0.174-1.521,0.307-2.282,0.44c-1.529,0.242-3.062,0.437-4.601,0.545
			c-3.076,0.201-6.152,0.205-9.216,0.054c-0.766-0.029-1.53-0.103-2.293-0.164l-2.287-0.229
			C-34.499,152.776-36.017,152.571-37.52,152.283z"/>
	</g>
	<g>
		<path fill="#FFFFFF" d="M113.803,143.223c3.049,0.225,6.098,0.344,9.143,0.315c3.042,0.011,6.082-0.137,9.091-0.475
			c1.503-0.178,3-0.377,4.481-0.656c0.737-0.147,1.476-0.295,2.203-0.479c0.731-0.17,1.452-0.375,2.169-0.588
			c0.716-0.216,1.42-0.459,2.113-0.73c0.686-0.283,1.376-0.562,2.025-0.91c0.666-0.322,1.291-0.711,1.907-1.104
			c0.297-0.213,0.607-0.408,0.895-0.633l0.842-0.693l0.397-0.326l0.42,0.24c1.062,0.604,2.191,1.174,3.317,1.705
			c1.13,0.533,2.267,1.059,3.426,1.524c0.579,0.236,1.154,0.482,1.744,0.689c0.588,0.209,1.17,0.445,1.765,0.635l1.776,0.598
			l1.803,0.513c0.599,0.188,1.212,0.299,1.82,0.438c0.609,0.138,1.219,0.283,1.838,0.359c0.617,0.088,1.232,0.201,1.854,0.271
			c0.621,0.041,1.243,0.093,1.865,0.148c0.625,0.07,1.246,0.01,1.873,0.021l0.939-0.01l0.932-0.115
			c0.615-0.102,1.259-0.094,1.857-0.286l1.838-0.453l-1.789,0.643l-0.451,0.158l-0.467,0.094l-0.938,0.188l-0.94,0.188l-0.952,0.082
			c-0.636,0.037-1.274,0.146-1.912,0.125c-0.64-0.004-1.279-0.016-1.92-0.035c-0.639-0.041-1.271-0.127-1.908-0.188
			c-0.641-0.051-1.268-0.168-1.896-0.279c-0.628-0.115-1.264-0.203-1.882-0.363l-1.866-0.438l-1.844-0.523
			c-0.614-0.178-1.21-0.403-1.816-0.604c-0.608-0.197-1.201-0.435-1.798-0.66c-1.192-0.453-2.372-0.945-3.528-1.484
			c-1.162-0.539-2.297-1.098-3.436-1.733l0.817-0.088l-0.921,0.771c-0.312,0.246-0.646,0.463-0.97,0.697
			c-0.662,0.438-1.347,0.844-2.058,1.184c-0.699,0.367-1.43,0.658-2.157,0.949c-0.731,0.279-1.472,0.529-2.221,0.75
			c-0.749,0.211-1.498,0.428-2.259,0.582c-0.758,0.174-1.521,0.307-2.283,0.441c-1.528,0.239-3.062,0.434-4.6,0.543
			c-3.076,0.2-6.152,0.207-9.216,0.055c-0.766-0.031-1.53-0.103-2.294-0.166l-2.286-0.227
			C116.825,143.715,115.307,143.508,113.803,143.223z"/>
	</g>
	
		<ellipse fill="none" stroke="#FFFFFF" stroke-width="2.8347" stroke-miterlimit="10" stroke-dasharray="2.8347,5.6693,0" cx="49.122" cy="141.854" rx="16.333" ry="5.666"/>
	<g>
		<path fill="#FFFFFF" d="M46.58,140.354c0,0-0.71,0.274-1.774,0.686c-0.518,0.216-1.139,0.459-1.688,0.802
			c-0.281,0.149-0.464,0.45-0.397,0.401c-0.022,0.049,0.314,0.306,0.621,0.414c0.631,0.293,1.365,0.48,2.035,0.674
			c0.683,0.183,1.32,0.351,1.867,0.496c1.101,0.289,1.836,0.527,1.836,0.527s-0.771,0.045-1.917-0.047
			c-0.574-0.039-1.241-0.115-1.953-0.246c-0.714-0.133-1.466-0.305-2.224-0.633c-0.187-0.08-0.377-0.195-0.563-0.318
			c-0.179-0.152-0.404-0.307-0.5-0.674c-0.098-0.365,0.119-0.73,0.289-0.863c0.177-0.176,0.355-0.276,0.529-0.377
			c0.698-0.354,1.357-0.504,1.927-0.623C45.805,140.35,46.58,140.354,46.58,140.354z"/>
	</g>
	<g>
		<path fill="#FFFFFF" d="M52.205,140.104c0,0,0.611-0.062,1.517,0.041c0.453,0.049,0.98,0.133,1.539,0.295
			c0.278,0.086,0.57,0.178,0.858,0.32c0.286,0.149,0.591,0.311,0.859,0.657c0.124,0.179,0.226,0.451,0.18,0.714
			c-0.028,0.268-0.167,0.457-0.287,0.6c-0.252,0.299-0.538,0.445-0.801,0.592c-0.534,0.279-1.05,0.422-1.491,0.539
			c-0.887,0.219-1.499,0.242-1.499,0.242s0.535-0.301,1.327-0.699c0.387-0.213,0.853-0.438,1.283-0.727
			c0.214-0.14,0.421-0.312,0.545-0.468c0.117-0.188,0.123-0.186,0.046-0.307c-0.09-0.133-0.31-0.293-0.537-0.416
			c-0.237-0.119-0.479-0.244-0.729-0.344c-0.497-0.205-0.983-0.373-1.4-0.525C52.774,140.325,52.205,140.104,52.205,140.104z"/>
	</g>
	<path fill="#FFFFFF" stroke="#000000" stroke-width="0.2835" stroke-miterlimit="10" d="M139.989,161.405"/>
</g>
<g>
	<defs>
		<filter id="Adobe_OpacityMaskFilter" filterUnits="userSpaceOnUse" x="116.024" y="87.818" width="66.212" height="66.215">
			
				<feColorMatrix  type="matrix" values="-1 0 0 0 1  0 -1 0 0 1  0 0 -1 0 1  0 0 0 1 0" color-interpolation-filters="sRGB" result="source"/>
			<feFlood  style="flood-color:white;flood-opacity:1" result="back"/>
			<feBlend  in="source" in2="back" mode="normal"/>
		</filter>
	</defs>
	<mask maskUnits="userSpaceOnUse" x="116.024" y="87.818" width="66.212" height="66.215" id="SVGID_1_">
		<g filter="url(#Adobe_OpacityMaskFilter)">
			<rect x="98.269" y="125.417" fill="#FFFFFF" width="89" height="46.229"/>
		</g>
	</mask>
	<g mask="url(#SVGID_1_)">
		<g>
			<polygon fill="#FFFFFF" points="149.128,87.818 151.475,94.11 154.88,88.319 156.098,94.926 160.452,89.814 160.5,96.531 
				165.683,92.252 164.564,98.876 170.409,95.566 168.162,101.89 174.49,99.644 171.183,105.487 177.8,104.37 173.527,109.551 
				180.243,109.6 175.128,113.959 181.729,115.177 175.944,118.577 182.237,120.924 175.944,123.272 181.729,126.674 
				175.128,127.892 180.243,132.247 173.527,132.3 177.8,137.478 171.183,136.364 174.49,142.204 168.162,139.959 170.409,146.284 
				164.564,142.974 165.683,149.596 160.5,145.319 160.452,152.034 156.098,146.923 154.88,153.531 151.475,147.739 
				149.128,154.032 146.785,147.739 143.378,153.531 142.16,146.923 137.806,152.034 137.762,145.319 132.574,149.596 
				133.695,142.974 127.848,146.284 130.101,139.959 123.771,142.204 127.083,136.364 120.458,137.478 124.731,132.3 
				118.021,132.247 123.129,127.892 116.527,126.674 122.313,123.272 116.024,120.924 122.313,118.577 116.527,115.177 
				123.129,113.959 118.021,109.6 124.731,109.551 120.458,104.37 127.083,105.487 123.771,99.644 130.101,101.89 127.848,95.566 
				133.695,98.876 132.574,92.252 137.762,96.531 137.806,89.814 142.16,94.926 143.378,88.319 146.785,94.11 			"/>
			<g>
				<g>
					<path fill="#FFFFFF" d="M150.084,97.952c-0.639-0.058-1.29-0.09-1.95-0.09c-0.66,0-1.312,0.032-1.963,0.09
						c0.658,0.003,1.303,0.007,1.963,0.007C148.785,97.959,149.436,97.955,150.084,97.952z"/>
					<path fill="#4976BB" d="M150.084,97.952l-0.986,0.132l-0.493,0.066l-0.246,0.032c-0.068,0.012-0.196,0.021-0.215,0.034
						l-1.941,0.442l-0.028-1.417L150.084,97.952z M150.084,97.952l-3.916,0.709l-0.028-1.417l1.973,0.266
						c0.144,0.018,0.179,0.035,0.273,0.055l0.243,0.056l0.484,0.111L150.084,97.952z"/>
				</g>
				<g>
					<path fill="#FFFFFF" d="M148.135,101.971c-4.656,0.02-9.322,0.042-13.242,0.058c-0.041,0.029-0.088,0.057-0.123,0.088
						c3.949,0.017,8.656,0.035,13.365,0.053c4.706-0.018,9.415-0.036,13.364-0.053c-0.04-0.031-0.086-0.059-0.127-0.088
						C157.449,102.013,152.792,101.99,148.135,101.971z"/>
					<path fill="#4976BB" d="M148.135,101.971c-2.207,0.021-4.414,0.051-6.621,0.126c-2.206,0.077-4.413,0.187-6.619,0.278
						l0.2-0.064l-0.091,0.068l-0.232-0.616l6.683-0.229c2.228-0.057,4.455-0.069,6.683-0.073c2.217,0.002,4.452,0.015,6.678,0.07
						c2.228,0.062,4.455,0.153,6.683,0.229l-0.218,0.638l-0.11-0.084l0.201,0.064c-2.205-0.093-4.411-0.201-6.617-0.28
						C152.547,102.023,150.341,101.993,148.135,101.971z M148.135,101.971c2.206-0.003,4.412-0.015,6.619-0.069
						c2.206-0.06,4.413-0.149,6.619-0.224l0.097-0.003l0.106,0.067l0.143,0.092l0.915,0.592l-1.134,0.047
						c-2.227,0.093-4.454,0.203-6.681,0.28c-2.23,0.074-4.449,0.104-6.688,0.123c-2.228-0.021-4.455-0.052-6.683-0.126l-6.681-0.28
						l-1.071-0.045l0.838-0.572l0.155-0.106l0.1-0.067l0.102,0.003c2.207,0.072,4.414,0.164,6.622,0.222
						C143.721,101.957,145.928,101.968,148.135,101.971z"/>
				</g>
				<g>
					<path fill="#FFFFFF" d="M130.291,106.257c-0.014,0.019-0.031,0.032-0.043,0.052c4.516,0.017,11.199,0.046,17.887,0.072
						c6.681-0.026,13.364-0.057,17.88-0.072c-0.008-0.02-0.029-0.033-0.042-0.052c-4.514-0.019-11.173-0.046-17.838-0.072
						C141.469,106.211,134.805,106.24,130.291,106.257z"/>
					<path fill="#4976BB" d="M130.291,106.257l-0.042,0.053l-0.001-0.002l17.885-0.281l17.879-0.425l-0.649,0.98
						c0.004,0.026,0.013,0.053,0.025,0.074l0.582,0.31l-17.837-0.428L130.291,106.257z M130.291,106.257l17.839-0.428l17.846-0.281
						l0.357-0.006l0.225,0.313c0.04,0.057,0.077,0.116,0.108,0.178l0.524,1l-1.173-0.019l-17.888-0.28l-17.882-0.426l-0.001-0.002
						L130.291,106.257z"/>
				</g>
				<g>
					<path fill="#FFFFFF" d="M127.514,110.483c-0.004,0.009-0.004,0.015-0.016,0.021c4.186,0.02,12.402,0.056,20.637,0.089
						c8.228-0.033,16.445-0.069,20.624-0.089c0-0.008,0-0.014-0.008-0.021c-4.184-0.019-12.396-0.054-20.616-0.088
						C139.906,110.429,131.695,110.463,127.514,110.483z"/>
					<path fill="#4976BB" d="M127.514,110.483l-0.015,0.023l-0.001-0.003c3.439-0.146,6.878-0.198,10.316-0.301l10.316-0.152
						c3.429-0.095,6.874-0.114,10.31-0.171l10.315-0.083l-0.705,0.711c-0.008,0.147,0.064,0.339,0.17,0.443l0.527,0.239
						l-10.31-0.081c-3.434-0.057-6.877-0.075-10.304-0.17l-10.311-0.154C134.388,110.683,130.951,110.627,127.514,110.483z
						 M127.514,110.483c3.436-0.175,6.872-0.259,10.308-0.391l10.309-0.242c3.446-0.065,6.876-0.056,10.314-0.082l10.31,0.007h0.311
						l0.218,0.239c0.109,0.121,0.188,0.325,0.185,0.488l-0.01,0.71h-0.695l-10.315,0.006c-3.44-0.026-6.872-0.018-10.32-0.082
						l-10.314-0.241c-3.438-0.131-6.876-0.214-10.313-0.389l-0.001-0.003L127.514,110.483z"/>
				</g>
				<g>
					<path fill="#FFFFFF" d="M125.858,114.702c0,0.002-0.006,0.004-0.006,0.01c3.264,0.015,12.768,0.054,22.281,0.093
						c9.507-0.039,19.017-0.078,22.28-0.093c0-0.006-0.008-0.008-0.008-0.01c-3.256-0.012-12.766-0.059-22.272-0.097
						C138.626,114.644,129.117,114.691,125.858,114.702z"/>
					<path fill="#4976BB" d="M125.858,114.702l-0.005,0.01h-0.001c3.714-0.145,7.428-0.197,11.142-0.3l11.142-0.15
						c3.704-0.102,7.424-0.101,11.135-0.146l11.141-0.109l-0.705,0.707l-0.008-0.01l0.705,0.708l-11.137-0.11
						c-3.71-0.051-7.429-0.047-11.132-0.148l-11.138-0.149C133.285,114.9,129.572,114.847,125.858,114.702z M125.858,114.702
						c3.712-0.177,7.424-0.262,11.136-0.396l11.136-0.246c3.722-0.07,7.428-0.034,11.142-0.052l11.137-0.016h0.145l0.562,0.708
						l0.008,0.01l0.562,0.71l-1.268-0.002l-11.141-0.019c-3.716-0.017-7.423,0.015-11.146-0.055l-11.14-0.243
						c-3.713-0.132-7.426-0.216-11.139-0.393l0,0L125.858,114.702z"/>
				</g>
				<g>
					<path fill="#FFFFFF" d="M125.072,118.911c0,0.004,0,0.004,0,0.005c2.139,0.009,12.6,0.054,23.062,0.102
						c10.458-0.048,20.917-0.093,23.054-0.102c0-0.001,0-0.001,0-0.005c-2.137-0.008-12.596-0.053-23.054-0.091
						C137.672,118.86,127.21,118.905,125.072,118.911z"/>
					<path fill="#4976BB" d="M125.072,118.911v0.005l0,0c3.844-0.143,7.687-0.194,11.53-0.295l11.53-0.146
						c3.833-0.103,7.684-0.104,11.524-0.151l11.528-0.114l-0.705,0.708v-0.005l0.705,0.708l-11.528-0.107
						c-3.842-0.05-7.69-0.044-11.525-0.146l-11.529-0.151C132.759,119.112,128.916,119.058,125.072,118.911z M125.072,118.911
						c3.843-0.176,7.686-0.26,11.527-0.393l11.528-0.243c3.852-0.071,7.688-0.036,11.534-0.055l11.529-0.019l0.709-0.001
						l-0.004,0.709v0.005l-0.004,0.709l-0.701-0.001l-11.529-0.014c-3.846-0.016-7.682,0.018-11.534-0.051l-11.528-0.248
						c-3.842-0.134-7.685-0.219-11.527-0.396l0,0V118.911z"/>
				</g>
				<g>
					<path fill="#FFFFFF" d="M125.072,123.125v0.003c2.139,0.009,12.6,0.051,23.062,0.098c10.458-0.047,20.917-0.089,23.054-0.098
						v-0.003c-2.137-0.011-12.596-0.051-23.054-0.099C137.672,123.075,127.21,123.115,125.072,123.125z"/>
					<path fill="#4976BB" d="M125.072,123.125v0.003l0,0c3.844-0.144,7.687-0.195,11.53-0.297l11.53-0.148
						c3.833-0.102,7.684-0.103,11.524-0.149l11.528-0.112l-0.705,0.708v-0.003l0.704,0.708l-11.528-0.111
						c-3.841-0.051-7.691-0.047-11.523-0.149l-11.53-0.147C132.76,123.323,128.916,123.271,125.072,123.125z M125.072,123.125
						c3.842-0.177,7.685-0.263,11.527-0.396l11.528-0.247c3.854-0.07,7.689-0.033,11.534-0.051l11.53-0.015l0.708-0.001
						l-0.004,0.709v0.003l-0.004,0.709l-0.701-0.001l-11.529-0.016c-3.846-0.016-7.682,0.016-11.534-0.053l-11.528-0.246
						c-3.842-0.133-7.685-0.218-11.527-0.395l0,0V123.125z"/>
				</g>
				<g>
					<path fill="#FFFFFF" d="M125.853,127.33c0,0.004,0.006,0.008,0.006,0.011c3.258,0.018,12.768,0.057,22.275,0.095
						c9.507-0.038,19.017-0.077,22.272-0.095c0-0.003,0.008-0.007,0.008-0.011c-3.264-0.012-12.773-0.056-22.28-0.093
						C138.621,127.276,129.117,127.32,125.853,127.33z"/>
					<path fill="#4976BB" d="M125.853,127.33l0.006,0.011l0,0c3.713-0.146,7.426-0.197,11.139-0.299l11.138-0.149
						c3.702-0.102,7.422-0.102,11.132-0.148l11.136-0.11l-0.704,0.708l0.008-0.011l0.705,0.708l-11.14-0.108
						c-3.712-0.049-7.432-0.045-11.136-0.146l-11.142-0.15C133.281,127.531,129.566,127.477,125.853,127.33z M125.853,127.33
						c3.713-0.176,7.426-0.261,11.139-0.394l11.14-0.244c3.723-0.07,7.43-0.035,11.146-0.054l11.14-0.018l1.279-0.002l-0.573,0.71
						l-0.008,0.011l-0.572,0.708h-0.133l-11.137-0.018c-3.715-0.017-7.42,0.016-11.143-0.054l-11.136-0.245
						c-3.712-0.133-7.424-0.217-11.136-0.394h-0.001L125.853,127.33z"/>
				</g>
				<g>
					<path fill="#FFFFFF" d="M127.498,131.535c0.012,0.009,0.012,0.018,0.016,0.025c4.182,0.016,12.393,0.052,20.621,0.084
						c8.22-0.032,16.433-0.068,20.616-0.084c0.008-0.009,0.008-0.018,0.008-0.025c-4.179-0.017-12.396-0.051-20.624-0.084
						C139.899,131.486,131.683,131.52,127.498,131.535z"/>
					<path fill="#4976BB" d="M127.498,131.535l0.017,0.024h-0.001c3.438-0.146,6.874-0.2,10.311-0.303l10.311-0.155
						c3.428-0.094,6.87-0.113,10.305-0.168l10.309-0.081l-0.527,0.238c-0.105,0.104-0.178,0.295-0.17,0.441l0.705,0.71
						l-10.315-0.079c-3.436-0.056-6.881-0.073-10.31-0.168l-10.316-0.154C134.375,131.738,130.937,131.683,127.498,131.535z
						 M127.498,131.535c3.438-0.175,6.876-0.258,10.313-0.39l10.314-0.239c3.447-0.065,6.88-0.056,10.32-0.084l10.315,0.005h0.696
						l0.009,0.71c0.003,0.165-0.075,0.37-0.186,0.492l-0.216,0.239h-0.312l-10.31,0.003c-3.438-0.026-6.869-0.02-10.314-0.084
						l-10.309-0.239c-3.436-0.131-6.872-0.213-10.308-0.387h-0.001L127.498,131.535z"/>
				</g>
				<g>
					<path fill="#FFFFFF" d="M130.248,135.733c0.012,0.019,0.029,0.033,0.043,0.052c4.514,0.021,11.178,0.045,17.844,0.074
						c6.665-0.029,13.324-0.055,17.838-0.074c0.013-0.019,0.034-0.033,0.042-0.052c-4.516-0.015-11.188-0.044-17.88-0.073
						C141.447,135.689,134.764,135.718,130.248,135.733z"/>
					<path fill="#4976BB" d="M130.248,135.733l0.046,0.05l-0.003-0.001c2.975-0.146,5.948-0.202,8.922-0.307l8.921-0.159
						c2.964-0.092,5.944-0.11,8.915-0.163l8.921-0.076l-0.581,0.31c-0.013,0.021-0.022,0.047-0.026,0.071l0.65,0.983l-8.942-0.074
						c-2.979-0.054-5.966-0.068-8.937-0.162l-8.942-0.161C136.209,135.938,133.229,135.881,130.248,135.733z M130.248,135.733
						c2.979-0.173,5.96-0.254,8.94-0.384l8.94-0.234c2.99-0.068,5.964-0.06,8.946-0.089l8.941-0.001h1.175l-0.524,0.983
						c-0.032,0.061-0.069,0.119-0.109,0.176l-0.225,0.309h-0.357l-8.921-0.002c-2.976-0.028-5.942-0.021-8.925-0.089l-8.92-0.233
						c-2.973-0.13-5.946-0.209-8.919-0.381l-0.003-0.001L130.248,135.733z"/>
				</g>
				<g>
					<path fill="#FFFFFF" d="M134.769,139.929c0.035,0.026,0.082,0.057,0.117,0.084c3.926,0.015,8.592,0.038,13.248,0.058
						c4.657-0.02,9.314-0.043,13.237-0.058c0.041-0.027,0.087-0.058,0.127-0.084c-3.949-0.021-8.658-0.035-13.364-0.06
						C143.426,139.894,138.719,139.909,134.769,139.929z"/>
					<path fill="#4976BB" d="M134.769,139.929l0.123,0.076l-0.006-0.002c2.208-0.146,4.415-0.204,6.623-0.312
						c2.207-0.07,4.415-0.136,6.622-0.173c4.404-0.131,8.825-0.183,13.237-0.215l-0.39,0.119l0.12-0.08l0.396,1.293
						c-4.452-0.032-8.915-0.082-13.358-0.215c-2.228-0.037-4.455-0.104-6.683-0.177
						C139.225,140.139,136.998,140.078,134.769,139.929z M134.769,139.929c2.227-0.17,4.454-0.249,6.681-0.376
						c2.227-0.094,4.454-0.179,6.682-0.235c4.466-0.093,8.913-0.104,13.371-0.097l2.363,0.003l-1.968,1.29l-0.134,0.088
						l-0.181,0.118l-0.209,0.001c-4.416,0.005-8.824-0.008-13.248-0.101c-2.207-0.056-4.413-0.141-6.62-0.229
						c-2.207-0.126-4.413-0.203-6.62-0.369h-0.004l-0.002-0.002L134.769,139.929z"/>
				</g>
				<g>
					<path fill="#FFFFFF" d="M146.172,144.093c0.65,0.053,1.303,0.085,1.963,0.085c0.66,0,1.312-0.032,1.959-0.085
						c-0.647-0.007-1.307-0.007-1.959-0.011C147.474,144.086,146.822,144.086,146.172,144.093z"/>
					<path fill="#4976BB" d="M146.172,144.093l1.976-0.271c0.023-0.018,0.146-0.036,0.214-0.055l0.243-0.056l0.487-0.108l0.973-0.22
						l0.022,1.417C148.784,144.555,147.486,144.319,146.172,144.093z M146.172,144.093c1.3-0.247,2.617-0.483,3.928-0.709
						l0.022,1.417l-0.987-0.136l-0.494-0.066l-0.246-0.033c-0.096-0.012-0.137-0.022-0.276-0.034L146.172,144.093z"/>
				</g>
			</g>
		</g>
	</g>
	<g>
		<g>
			<path fill="#FDFDFE" stroke="#FDFDFE" stroke-miterlimit="10" d="M279.354,83.782c6.54,6.541,9.811,14.43,9.811,23.667
				s-3.271,17.127-9.811,23.667c-6.541,6.54-14.43,9.811-23.668,9.811s-17.127-3.271-23.667-9.811
				c-6.54-6.541-9.812-14.43-9.812-23.667s3.271-17.127,9.812-23.667s14.429-9.811,23.667-9.811S272.812,77.242,279.354,83.782z
				 M255.686,82.515c-6.895,0-12.773,2.433-17.639,7.297c-4.864,4.863-7.297,10.743-7.297,17.638s2.438,12.781,7.317,17.659
				c4.878,4.878,10.75,7.316,17.617,7.316c6.896,0,12.774-2.438,17.64-7.316c4.864-4.878,7.295-10.765,7.295-17.659
				s-2.432-12.774-7.295-17.638C268.459,84.948,262.581,82.515,255.686,82.515z"/>
			<path fill="#FDFDFE" stroke="#FDFDFE" stroke-miterlimit="10" d="M308.906,103.853c3.161-4.278,7.044-6.526,11.649-6.745v8.789
				c-3.079,0.164-5.532,1.158-7.357,2.983c-2.753,2.726-4.184,5.968-4.292,9.729v21.624h-8.461V98.171h8.461V103.853z"/>
		</g>
		<g>
			<g>
				<path fill="#FFFFFF" d="M205.113,106.015c0.188-0.282,0.447-0.845,0.612-1.912c0.291-1.899,1.161-2.104,1.521-2.104
					c0.408,0,0.818,0.24,1.123,0.659c0.465,0.638,0.592,1.54,0.328,2.353c-0.437,1.376-1.652,1.397-2.632,1.415
					c-0.235,0.004-0.469,0.008-0.69,0.03l-0.594,0.058L205.113,106.015z"/>
				<path fill="#4160AC" d="M207.247,102.281c0.813,0,1.619,1.287,1.184,2.642c-0.469,1.479-1.934,1.139-3.08,1.249
					c0.262-0.394,0.504-1.039,0.656-2.025C206.211,102.798,206.73,102.281,207.247,102.281 M207.247,101.714
					c-0.434,0-1.478,0.229-1.802,2.346c-0.155,1.016-0.396,1.538-0.567,1.798l-0.66,0.994l1.188-0.115
					c0.215-0.021,0.44-0.024,0.668-0.028c1.014-0.018,2.399-0.042,2.897-1.614c0.288-0.896,0.147-1.895-0.369-2.604
					C208.241,101.997,207.749,101.714,207.247,101.714L207.247,101.714z"/>
			</g>
			<g>
				<path fill="#FFFFFF" d="M204.655,106.938c-0.172,0-0.342-0.058-0.49-0.165l-0.287-0.207l0.265-0.235
					c0.285-0.254,0.661-0.394,1.183-0.441l0.596-0.054l-0.336,0.496C205.245,106.832,204.892,106.938,204.655,106.938
					L204.655,106.938z"/>
				<path fill="#4160AC" d="M205.35,106.172c-0.229,0.336-0.471,0.482-0.694,0.482c-0.114,0-0.226-0.039-0.325-0.111
					C204.596,106.306,204.952,106.208,205.35,106.172 M206.491,105.499l-1.193,0.108c-0.575,0.052-1.016,0.22-1.344,0.512
					l-0.529,0.47l0.574,0.413c0.197,0.144,0.426,0.218,0.656,0.218c0.305,0,0.754-0.126,1.163-0.729L206.491,105.499
					L206.491,105.499z"/>
			</g>
			<g>
				<path fill="#FFFFFF" d="M217.577,78.615l0.332-0.021l0.036,0.565c0,0-0.127,0.012-0.343,0.021L217.577,78.615z"/>
				<path fill="#4160AC" d="M217.918,78.879c0,0-0.121,0.012-0.326,0.021C217.704,78.892,217.799,78.882,217.918,78.879
					 M217.899,78.313c-0.079,0.002-0.148,0.007-0.219,0.012l-0.119,0.008l0.052,1.132c0.226-0.008,0.359-0.021,0.359-0.021
					L217.899,78.313L217.899,78.313z"/>
			</g>
			<g>
				<g>
					<polygon fill="#4160AC" points="271.958,54.741 274.104,54.67 272.469,56.064 					"/>
				</g>
				<g>
					<polygon fill="#4160AC" points="272.051,55.937 274.2,55.865 272.562,57.258 					"/>
				</g>
				<g>
					<polygon fill="#4160AC" points="272.107,57.003 274.254,56.931 272.62,58.324 					"/>
				</g>
				<g>
					<polygon fill="#4160AC" points="272.133,58.145 274.279,58.073 272.645,59.465 					"/>
				</g>
			</g>
			<path fill="none" stroke="#4160AC" stroke-width="0.5669" stroke-miterlimit="10" d="M224.631,84.214c0,0,3.908-5.24,5.052-7.774
				c1.146-2.537,2.593-4.291,2.593-4.291"/>
			<path fill="none" stroke="#4160AC" stroke-width="0.5669" stroke-miterlimit="10" d="M226.697,72.948
				c0,0-7.637,5.979-11.903,5.977"/>
			<path fill="none" stroke="#4160AC" stroke-width="0.5669" stroke-miterlimit="10" d="M222.07,71.631c0,0,4.615-2.459,5.761-3.778
				"/>
			<g>
				<path fill="none" d="M257.745,37.127c0.909,0,2.34-0.932,2.469-1.608c0.074-0.395-0.455-0.691-0.912-0.87
					c-0.59-0.231-1.125-0.349-1.596-0.349c-1.562,0-1.971,1.31-2.012,1.455l-0.003,0.011c0.524,0.149,1.112,0.579,1.782,1.304
					C257.488,37.085,257.565,37.127,257.745,37.127z"/>
				<path fill="none" d="M226.459,60.678c-2.043-0.762-3.059-5.503-3.401-7.511c-3.556,1.54-3.784,6.139-3.313,9.829
					c0.24,1.914,1.414,2.885,3.483,2.885c1.715,0,3.403-0.694,3.624-0.892c0.218-0.308,0.8-2.14,0.423-3.374
					C227.129,61.136,226.861,60.829,226.459,60.678z"/>
				<path fill="none" d="M206.852,105.52c0.705-0.4,1.102-0.824,1.102-1.2c0-0.418-0.478-0.948-1.221-1.357l-0.078-0.022v-0.001
					h-0.004c-0.014-0.007-0.037-0.014-0.056-0.012c-0.197,0-0.702,0.702-1.072,2.67c0.171-0.01,0.343-0.021,0.521-0.024
					C206.333,105.566,206.6,105.553,206.852,105.52z"/>
				<path fill="none" d="M219.926,41.541c-0.19-0.82-1.078-2.729-1.795-2.729c-0.146,0-0.864,0.15-1.674,2.936
					c0.025,0,0.055,0,0.082-0.001C218.508,41.746,219.515,41.636,219.926,41.541z"/>
				<path fill="#4160AC" d="M206.733,102.962c0.743,0.409,1.221,0.939,1.221,1.357c0,0.376-0.396,0.8-1.102,1.2
					c0.027-0.004,0.062-0.001,0.088-0.006l0.001,0.002l0,0c0.542-0.087,0.8-0.294,0.949-0.766c0.214-0.666,0.034-1.255-0.203-1.583
					c-0.138-0.187-0.308-0.308-0.437-0.308c-0.039,0-0.076,0.012-0.115,0.035l-0.48,0.044v0.001L206.733,102.962z"/>
				<path fill="#FFFFFF" d="M219.182,63.067c-0.684-5.367,0.479-9.499,4.328-10.667v0c-3.852,1.168-5.012,5.301-4.33,10.668
					c0.207,1.647,1.011,2.556,2.038,3.007C220.192,65.623,219.389,64.714,219.182,63.067z"/>
				<path fill="#FFFFFF" d="M223.227,66.448L223.227,66.448c-0.425,0-0.849-0.045-1.256-0.138
					C222.378,66.403,222.801,66.448,223.227,66.448z"/>
				<path fill="#FFFFFF" d="M227.024,60.331c0.11,0.071,0.209,0.153,0.297,0.243C227.233,60.484,227.134,60.403,227.024,60.331z"/>
				<path fill="#FFFFFF" d="M227.381,60.65c0.064,0.074,0.128,0.149,0.181,0.233C227.509,60.8,227.446,60.724,227.381,60.65z"/>
				<path fill="#FFFFFF" d="M208.428,104.923c-0.236,0.744-0.73,1.017-1.305,1.128v0.001c0.575-0.111,1.07-0.384,1.307-1.129
					c0.436-1.354-0.367-2.631-1.18-2.631h-0.001C208.062,102.293,208.865,103.57,208.428,104.923z"/>
				<path fill="#FFFFFF" d="M206.847,102.406L206.847,102.406c0.01-0.006,0.021-0.008,0.03-0.014
					C206.868,102.398,206.857,102.4,206.847,102.406z"/>
				<path fill="#FFFFFF" d="M217.918,78.879c-0.006,0-0.01,0.001-0.015,0.001c-0.006,0-0.028,0.002-0.063,0.005
					C217.886,78.882,217.918,78.879,217.918,78.879z"/>
				<path fill="#FFFFFF" d="M217.592,78.9c0.061-0.002,0.096-0.005,0.141-0.008c-0.036,0.002-0.067,0.004-0.113,0.006
					C217.61,78.899,217.601,78.899,217.592,78.9z"/>
				<path fill="#FFFFFF" d="M221.858,66.291c-0.14-0.036-0.272-0.089-0.407-0.139C221.585,66.201,221.718,66.255,221.858,66.291z"/>
				<path fill="#FFFFFF" d="M289.422,100.685c-1.326,2.936-3.023,4.17-4.805,4.17c-5.104,0-10.912-10.136-10.767-19.396
					c0.196-12.493-12.136-15.35-12.136-15.35c0.392,0.069,0.77,0.103,1.135,0.103c6.506,0,8.91-10.507,8.91-10.507
					c0.674-0.339,1.496-0.507,2.357-0.507c3.545,0,7.74,2.861,4.942,8.468c-1.142,2.286-2.22,3.093-3.125,3.093
					c-1.856,0-2.996-3.381-2.511-4.373c0.721-1.477,2.07-1.805,2.07-1.805c-0.451-0.114-0.861-0.165-1.232-0.165
					c-2.965,0-3.479,3.225-3.479,3.225c1.551,4.13,3.91,5.834,6.182,5.834c4.14,0,7.986-5.661,6.102-12.629
					c-1.621-5.996-5.249-7.329-8.152-7.329c-2.32,0-4.177,0.852-4.177,0.852s1.427-4.963-9.29-10.789
					c-7.802-4.241-6.91-5.36-5.684-5.36c0.457,0,0.961,0.156,1.074,0.364c0.168,0.307,1.151,0.731,2.209,0.731
					c1.578,0,3.318-0.942,2.764-4.622c-0.333-2.207-1.705-3.201-3.277-3.201c-2.807,0-6.25,3.169-5.55,8.26
					c1.099,7.946,19.675,9.407,9.001,20.476c-3.393,3.519-5.925,4.72-7.801,4.72c-4.021,0-5.023-5.52-5.023-5.52
					c8.745-29.595-13.681-31.698-13.681-31.698c-13.817,1.508-12.215,22.077-12.218,22.078c-8.217,2.388-8.958,7.283-8.958,7.283
					c-3.179,13.781,9.627,14.381,9.627,14.381c-1.693,0.257-3.031,0.354-4.089,0.354c-3.4,0-3.896-1.008-3.896-1.008
					c-16.98-10.062-1.146-24.838,1.209-25.461c2.354-0.625,6.055,0.23,5.205-5.119c-0.439-2.757-1.994-3.753-3.556-3.753
					c-1.47-0.001-2.944,0.88-3.507,2.005c-1.156,2.324-0.115,4.236-0.115,4.236s-16.852,4.008-12.689,20.715
					c3.625,14.517,12.592,15.462,14.879,15.462c0.081,0,0.153-0.001,0.216-0.003l-0.026-0.567l0.119-0.008
					c0.07-0.005,0.14-0.01,0.219-0.012l0.073,1.131c0,0-0.134,0.013-0.359,0.021l-0.025-0.564
					c-15.684,0.583-19.025,6.861-20.607,10.008c-1.597,3.167-3.008,13.761,3.496,18.779c1.354,1.045,2.75,1.476,4.062,1.476
					c4.987,0,8.789-6.219,4.748-8.543c-0.971-0.56-1.768-0.793-2.421-0.793c-2.78,0-2.971,4.223-2.985,5.528
					c-0.005,0.279,0.041,0.527,0.121,0.731c0.182-0.151,0.396-0.269,0.661-0.353l0.001-0.001c0.084-0.026,0.177-0.033,0.265-0.052
					c0.242-1.365,0.749-3.321,1.667-3.321c0.002,0,0.004,0.001,0.006,0.001l-0.042-0.442c0.215-0.128,0.448-0.193,0.692-0.193
					c0.502,0,0.994,0.282,1.354,0.773c0.515,0.706,0.653,1.702,0.366,2.595c-0.265,0.836-0.833,1.322-1.713,1.502
					c-0.623,0.334-1.413,0.644-2.354,0.92l-0.387-0.321c-0.185-0.022-0.365-0.079-0.52-0.191l-0.001-0.017
					c-0.057,0.094-0.135,0.148-0.237,0.148c-1.461,0-7.021-9.137-2.154-16.05c2.271-3.22,5.537-4.044,8.729-4.044
					c3.338,0,6.596,0.901,8.549,0.901c0.513,0,0.934-0.062,1.244-0.219c2.637-1.321,6.33-5.963,6.33-5.963
					c-1.369,4.957-12.151,12.414-12.609,22.113c-0.396,8.316,8.056,17.371,14.593,17.371c1.089,0,2.124-0.251,3.058-0.799
					c1.03-0.606,1.889-0.861,2.603-0.861c3.808,0,3.517,7.256,3.517,7.256c4.159-6.426-0.957-9.166-5.328-9.166
					c-0.683,0-1.347,0.067-1.955,0.197c-0.152,0.032-0.311,0.048-0.473,0.048c-4.646,0-13.167-12.923-7.52-17.733
					c9.117-7.763,16.514-18.526,16.514-18.526l0.955-2.639c2.879,8.577,4.629,1.573,8.178,8.075
					c3.543,6.507,13.6,1.734,9.607,15.991c-1.273,4.556-3.323,6.125-5.653,6.125c-4.967,0-11.213-7.127-13.965-7.688
					c-0.214-0.043-0.416-0.064-0.604-0.064c-3.365-0.001-2.738,6.617-2.738,6.617l1.328-0.528c0,0,0.541-3.855,1.893-3.855
					c0.514,0,1.143,0.556,1.904,2.09c2.767,5.571,10.771,8.234,10.771,8.234c18.656-1.361,13.144-17.739,11.306-24.404
					c-1.836-6.668-11.242-15.031-11.242-15.031c27.674,13.879,12.455,18.737,25.164,29.203c4.072,3.355,7.004,4.566,9.133,4.566
					c4.512,0,5.417-5.437,5.936-7.398c0.758-2.887,3.266-3.729,3.266-3.729c-0.122-0.011-0.242-0.016-0.36-0.016
					C290.689,97.208,289.422,100.685,289.422,100.685z M254.202,36.401l0.516,0.232l0.43-1.022c0,0,0.495-1.877,2.561-1.877
					c0.502,0,1.098,0.11,1.801,0.387c3.061,1.199-0.113,3.574-1.764,3.574c-0.291,0-0.535-0.073-0.688-0.24
					c-0.85-0.918-1.408-1.18-1.77-1.18c-0.336,0-0.499,0.224-0.568,0.359l0.516,0.232l-0.035,0.087l-1.063-0.391
					C254.136,36.563,254.156,36.493,254.202,36.401z M218.129,38.245c1.394,0,2.507,3.251,2.392,3.609
					c-0.128,0.404-2.644,0.46-3.981,0.46c-0.49,0-0.822-0.009-0.824-0.008C216.499,39.248,217.357,38.245,218.129,38.245z
					 M227.778,65.641c-0.424,0.606-2.652,1.374-4.551,1.374c-2.657,0-4.294-1.377-4.609-3.877
					c-0.777-6.114,0.902-10.121,4.729-11.281l0.725,0.461c0.395,2.746,1.52,6.826,2.787,7.298c0.732,0.275,1.252,0.853,1.501,1.667
					C228.858,62.915,228.177,65.08,227.778,65.641z M230.679,68.691l-0.054,0.004H230.6c-1.452,0-1.865-3.575-1.934-4.292
					c-0.069-0.74-0.342-4.442,1.174-4.588l0.055-0.004h0.027c1.449,0,1.865,3.572,1.934,4.289
					C231.924,64.841,232.193,68.545,230.679,68.691z M238.944,68.179l-0.052,0.004h-0.026c-1.453,0-1.867-3.576-1.935-4.294
					c-0.147-1.553-0.084-3.48,0.538-4.23c0.222-0.268,0.47-0.341,0.636-0.357l0.056-0.004h0.026c1.455,0,1.865,3.575,1.933,4.291
					C240.189,64.328,240.463,68.029,238.944,68.179z"/>
				<path fill="#FFFFFF" d="M206.847,102.406L206.847,102.406c0.01-0.006,0.021-0.008,0.03-0.014c0.121-0.064,0.245-0.1,0.371-0.1
					h0.001h0.001c0.812,0,1.615,1.277,1.18,2.631c-0.236,0.745-0.731,1.018-1.307,1.129l0.179,0.521
					c-0.014,0.008-0.03,0.014-0.044,0.021c0.88-0.18,1.448-0.666,1.713-1.502c0.287-0.893,0.148-1.889-0.366-2.595
					c-0.36-0.491-0.853-0.773-1.354-0.773c-0.244,0-0.478,0.065-0.692,0.193l0.042,0.442c0.078,0.001,0.16,0.015,0.245,0.046
					C206.846,102.406,206.846,102.406,206.847,102.406z"/>
				<path fill="#FFFFFF" d="M204.518,107.194l-0.338-0.28c0,0,0.012-0.102,0.028-0.242c-0.068,0.08-0.132,0.167-0.181,0.276
					c-0.008,0.017-0.021,0.023-0.03,0.038l0.001,0.017C204.153,107.115,204.333,107.171,204.518,107.194z"/>
				<path fill="#FFFFFF" d="M204.27,106.193l0.392-0.459c-0.266,0.084-0.479,0.201-0.661,0.353c0.06,0.15,0.144,0.267,0.235,0.361
					C204.247,106.367,204.256,106.29,204.27,106.193z"/>
				<path fill="#FFFFFF" d="M217.972,79.444l-0.073-1.131c-0.079,0.002-0.148,0.007-0.219,0.012l-0.119,0.008l0.026,0.567h0.001
					c0.111-0.006,0.207-0.017,0.326-0.021c0,0-0.01,0.001-0.011,0.001c0.005,0,0.009-0.001,0.015-0.001c0,0-0.032,0.003-0.078,0.006
					c-0.026,0.002-0.066,0.004-0.107,0.006c-0.045,0.002-0.08,0.005-0.141,0.008c0.009,0,0.018-0.001,0.027-0.002
					c-0.013,0.001-0.018,0.001-0.031,0.002h-0.001l0.025,0.564C217.838,79.456,217.972,79.444,217.972,79.444z"/>
				<path fill="#FFFFFF" d="M226.858,59.615c-1.268-0.472-2.393-4.552-2.787-7.298l-0.725-0.461
					c-3.826,1.16-5.506,5.167-4.729,11.281c0.315,2.5,1.952,3.877,4.609,3.877c1.898,0,4.127-0.768,4.551-1.374
					c0.399-0.561,1.08-2.726,0.581-4.358C228.11,60.468,227.59,59.891,226.858,59.615z M227.315,65.317
					c-0.23,0.329-2.159,1.132-4.087,1.132c0,0,0,0-0.001,0l0,0c-0.426,0-0.849-0.045-1.256-0.138
					c-0.037-0.008-0.076-0.011-0.113-0.02c-0.14-0.036-0.272-0.089-0.407-0.139c-0.077-0.028-0.158-0.046-0.232-0.079
					c-1.027-0.451-1.831-1.36-2.038-3.007c-0.682-5.367,0.479-9.5,4.33-10.668v0c0,0,0.001,0,0.001,0s1,6.946,3.147,7.748
					c0.134,0.05,0.256,0.112,0.365,0.184c0.11,0.072,0.209,0.153,0.297,0.243c0.022,0.023,0.039,0.052,0.061,0.076
					c0.064,0.074,0.128,0.149,0.181,0.233C228.43,62.258,227.687,64.793,227.315,65.317z"/>
				<path fill="#4160AC" d="M220.284,41.713c-0.015-0.184-0.527-1.828-1.336-2.711c-0.287-0.313-0.562-0.474-0.816-0.474
					c-0.416,0-1.223,0.465-2.049,3.5c0.127,0.001,0.281,0.002,0.457,0.002C219.2,42.031,220.144,41.83,220.284,41.713z
					 M218.131,38.812c0.717,0,1.604,1.909,1.795,2.729c-0.411,0.095-1.418,0.205-3.387,0.205c-0.027,0.001-0.057,0.001-0.082,0.001
					C217.267,38.962,217.986,38.812,218.131,38.812z"/>
				<path fill="#4160AC" d="M208.093,103.316c-0.053-0.118-0.112-0.227-0.177-0.315c-0.192-0.266-0.441-0.424-0.664-0.424
					c-0.013,0-0.025,0.01-0.038,0.011C207.548,102.792,207.859,103.04,208.093,103.316z"/>
				<path fill="#4160AC" d="M294.143,96.662c-0.141-0.012-0.277-0.018-0.411-0.018c-3.401,0-4.784,3.691-4.842,3.849
					c-0.774,1.71-2.161,3.797-4.271,3.797c-1.287,0-2.713-0.758-4.123-2.191c-3.615-3.672-6.17-10.665-6.078-16.627
					c0.144-9.028-6.106-13.222-9.849-14.919c5.104-1.412,7.274-8.874,7.677-10.441c0.539-0.225,1.182-0.341,1.873-0.341
					c1.979,0,3.823,0.914,4.698,2.328c0.865,1.399,0.774,3.239-0.264,5.32c-0.896,1.792-1.824,2.779-2.617,2.779
					c-0.636,0-1.132-0.646-1.371-1.029c-0.647-1.042-0.776-2.228-0.63-2.527c0.588-1.204,1.686-1.501,1.695-1.504l0.004-1.101
					c-0.479-0.121-0.939-0.182-1.371-0.182c-2.729,0-3.833,2.422-4.037,3.702l0.027,0.289c1.479,3.941,3.927,6.202,6.713,6.202
					c1.839,0,3.664-1.009,5.012-2.768c2.081-2.718,2.691-6.671,1.637-10.576c-1.73-6.403-5.686-7.748-8.699-7.748
					c-1.469,0-2.752,0.32-3.552,0.579c-0.087-1.827-1.334-5.93-9.645-10.448c-5.029-2.733-5.976-3.936-6.153-4.277
					c0.051-0.01,0.115-0.018,0.199-0.018c0.275,0,0.523,0.075,0.611,0.126c0.392,0.601,1.67,0.969,2.672,0.969
					c1.074,0,1.961-0.371,2.563-1.071c0.787-0.914,1.042-2.327,0.761-4.201c-0.344-2.272-1.812-3.685-3.838-3.685
					c-1.519,0-3.127,0.807-4.305,2.157c-1.523,1.748-2.166,4.146-1.809,6.747c0.455,3.293,3.567,5.471,6.578,7.577
					c2.805,1.961,5.451,3.812,5.694,6.32c0.17,1.757-0.851,3.755-3.118,6.106c-2.908,3.018-5.396,4.546-7.393,4.546
					c-3.194,0-4.268-4.147-4.439-4.927c3.065-10.458,2.627-18.705-1.303-24.512c-4.689-6.938-12.574-7.751-12.908-7.782
					l-0.115,0.001c-13.02,1.42-12.871,19.129-12.744,22.227c-8.063,2.504-8.896,7.402-8.928,7.613
					c-1.022,4.428-0.525,8.04,1.485,10.693c1.427,1.88,3.358,2.948,5.04,3.554c-0.146,0.003-0.288,0.005-0.428,0.005
					c-2.844,0-3.405-0.726-3.41-0.732l-0.196-0.196c-5.56-3.294-8.042-7.389-7.377-12.17c0.907-6.524,7.386-11.976,8.44-12.255
					c0.427-0.113,0.91-0.174,1.422-0.24c1.299-0.166,2.771-0.354,3.636-1.509c0.666-0.89,0.851-2.2,0.563-4.006
					c-0.422-2.649-1.961-4.231-4.115-4.231c-1.653,0-3.342,0.975-4.014,2.319c-0.869,1.745-0.625,3.282-0.367,4.11
					c-1.928,0.583-7.762,2.723-10.997,8.04c-2.246,3.69-2.745,8.128-1.483,13.191c2.483,9.949,7.415,13.707,11.188,15.099
					c-12.405,1.521-15.229,7.134-16.657,9.977c-0.838,1.664-1.618,5.188-1.349,8.991c0.228,3.199,1.279,7.618,5.004,10.491
					c1.373,1.059,2.854,1.595,4.408,1.595c3.436,0,6.182-2.601,6.854-5.113c0.498-1.868-0.184-3.545-1.822-4.488
					c-1-0.576-1.908-0.869-2.703-0.869c-2.216,0-3.511,2.22-3.553,6.089c-0.008,0.394,0.066,0.759,0.21,1.062
					c-0.512-0.448-1.569-1.813-2.396-4.056c-0.866-2.356-1.896-6.911,0.941-10.941c1.829-2.595,4.455-3.804,8.264-3.804
					c1.849,0,3.676,0.282,5.287,0.532c1.272,0.197,2.373,0.368,3.264,0.368c0.645,0,1.119-0.088,1.498-0.277
					c0.781-0.393,1.639-1.047,2.469-1.788c-0.416,0.512-0.855,1.041-1.311,1.586c-3.549,4.265-7.965,9.573-8.26,15.817
					c-0.203,4.271,1.85,9.104,5.491,12.924c3.011,3.156,6.623,5.042,9.668,5.042c1.228,0,2.353-0.295,3.345-0.877
					c0.883-0.521,1.662-0.783,2.314-0.783c0.58,0,1.062,0.208,1.472,0.634c1.63,1.694,1.479,5.989,1.478,6.033l1.043,0.331
					c2.152-3.325,1.777-5.546,1.082-6.823c-1.291-2.375-4.516-3.217-6.885-3.217c-0.728,0-1.425,0.069-2.074,0.209
					c-0.11,0.023-0.229,0.036-0.354,0.036c-2.463,0-6.371-4.294-8.044-8.835c-0.747-2.03-1.625-5.756,0.894-7.9
					c9.068-7.722,16.537-18.529,16.611-18.637l0.066-0.128l0.426-1.178c1.316,3.242,2.496,3.61,4.061,3.754
					c1.09,0.101,2.117,0.195,3.615,2.939c1.371,2.517,3.66,3.468,5.68,4.307c3.521,1.463,6.301,2.618,3.881,11.261
					c-1.075,3.843-2.745,5.71-5.107,5.71c-2.845,0-6.316-2.63-9.105-4.744c-1.982-1.502-3.549-2.688-4.745-2.934
					c-0.246-0.05-0.487-0.075-0.718-0.075c-0.797,0-1.473,0.298-2.008,0.886c-1.697,1.866-1.312,6.169-1.296,6.352l0.773,0.475
					l1.329-0.528l0.353-0.448c0.244-1.73,0.892-3.369,1.33-3.369c0.054,0,0.54,0.051,1.396,1.775
					c2.84,5.717,10.766,8.409,11.102,8.521l0.22,0.027c5.644-0.412,9.64-2.237,11.874-5.426c3.915-5.583,1.592-13.822,0.202-18.745
					c-0.095-0.334-0.185-0.652-0.267-0.95c-1.223-4.439-5.604-9.509-8.571-12.558c13.185,7.214,14.127,11.837,15.041,16.32
					c0.675,3.312,1.373,6.738,6.546,10.999c3.78,3.115,6.975,4.694,9.493,4.694c4.569,0,5.769-4.899,6.343-7.255
					c0.051-0.209,0.098-0.399,0.141-0.563c0.674-2.563,2.877-3.33,2.898-3.338L294.143,96.662z M291.1,101.026
					c-0.044,0.167-0.091,0.358-0.143,0.57c-0.56,2.285-1.722,7.039-6.067,7.039c-2.451,0-5.584-1.558-9.313-4.631
					c-5.095-4.196-5.781-7.572-6.447-10.836c-0.965-4.73-1.961-9.617-16.872-17.416c2.741,2.662,8.44,8.661,9.853,13.787
					l0.268,0.951c1.373,4.875,3.676,13.033-0.162,18.506c-2.184,3.115-6.107,4.9-11.662,5.306l-0.11-0.014
					c-0.331-0.11-8.147-2.765-10.936-8.377c-0.835-1.681-1.394-1.933-1.65-1.933c-0.762,0-1.399,2.112-1.61,3.612l-0.176,0.225
					l-1.33,0.527l-0.387-0.235c-0.018-0.178-0.393-4.359,1.223-6.135c0.479-0.526,1.086-0.794,1.799-0.794
					c0.211,0,0.434,0.024,0.66,0.07c1.135,0.231,2.754,1.459,4.631,2.88c2.824,2.141,6.338,4.802,9.277,4.802
					c2.508,0,4.268-1.936,5.381-5.917c2.487-8.884-0.539-10.142-4.045-11.598c-1.977-0.821-4.216-1.752-5.539-4.181
					c-1.57-2.877-2.724-2.983-3.839-3.086c-1.338-0.123-2.604-0.24-4.094-4.282l-0.685,1.892
					c-0.107,0.172-7.557,10.948-16.596,18.646c-2.648,2.256-1.748,6.115-0.976,8.214c1.707,4.637,5.745,9.021,8.31,9.021
					c0.145,0,0.282-0.014,0.413-0.042c0.632-0.134,1.31-0.202,2.015-0.202c2.291,0,5.404,0.804,6.637,3.068
					c0.658,1.21,1.007,3.325-1.07,6.534l-0.523-0.169c0.002-0.044,0.157-4.458-1.556-6.24c-0.467-0.484-1.016-0.722-1.677-0.722
					c-0.704,0-1.531,0.277-2.459,0.822c-0.947,0.556-2.023,0.838-3.201,0.838c-2.968,0-6.505-1.853-9.462-4.953
					c-3.59-3.767-5.613-8.52-5.413-12.715c0.29-6.15,4.673-11.418,8.193-15.65c1.445-1.738,2.758-3.312,3.599-4.713
					c-1.326,1.491-3.405,3.63-5.103,4.48c-0.332,0.167-0.779,0.247-1.371,0.247c-0.868,0-1.957-0.169-3.219-0.363
					c-1.621-0.251-3.461-0.537-5.33-0.537c-3.855,0-6.635,1.284-8.496,3.924c-2.942,4.18-2.029,9.447-0.193,12.982
					c0.962,1.852,1.854,2.62,2.117,2.62c0.05-0.111,0.107-0.211,0.175-0.301c-0.226-0.293-0.349-0.72-0.34-1.201
					c0.04-3.688,1.231-5.807,3.271-5.807c0.742,0,1.604,0.279,2.562,0.831c1.544,0.888,2.159,2.408,1.688,4.169
					c-0.631,2.358-3.324,4.903-6.578,4.903c-1.49,0-2.914-0.518-4.234-1.535c-6.591-5.084-5.212-15.884-3.576-19.131
					c1.456-2.897,4.383-8.716,17.793-9.967c-3.779-0.962-9.55-4.28-12.302-15.304c-1.242-4.985-0.755-9.352,1.45-12.975
					c3.322-5.46,9.619-7.562,11.121-7.995c-0.258-0.667-0.686-2.288,0.256-4.176c0.625-1.253,2.207-2.163,3.76-2.163
					c0.962,0,3.261,0.389,3.836,3.993c0.273,1.727,0.107,2.967-0.512,3.792c-0.793,1.059-2.141,1.23-3.444,1.397
					c-0.521,0.066-1.015,0.129-1.457,0.247c-1.437,0.38-7.748,6-8.649,12.49c-0.683,4.906,1.847,9.096,7.514,12.454l0.109,0.119
					c0,0,0.549,0.849,3.642,0.849c0.62,0,1.305-0.034,2.045-0.103c-1.856-0.438-4.584-1.475-6.433-3.911
					c-1.957-2.583-2.438-6.116-1.428-10.5c0.027-0.186,0.846-4.997,8.938-7.429c-0.118-2.282-0.651-20.719,12.481-22.151
					c0.137,0.007,8.141,0.832,12.756,7.651c3.891,5.747,4.31,13.937,1.246,24.343c0.127,0.6,1.221,5.223,4.731,5.222
					c2.077,0,4.634-1.559,7.597-4.633c2.329-2.416,3.375-4.486,3.196-6.332c-0.256-2.636-2.955-4.525-5.813-6.525
					c-2.961-2.07-6.021-4.212-6.461-7.383c-0.347-2.52,0.271-4.836,1.74-6.521c1.125-1.29,2.654-2.062,4.092-2.062
					c1.902,0,3.231,1.287,3.558,3.442c0.27,1.789,0.036,3.125-0.694,3.974c-0.691,0.805-1.658,0.974-2.35,0.974
					c-1.053,0-2.202-0.41-2.457-0.879c-0.055-0.073-0.411-0.216-0.826-0.216c-0.312,0-0.498,0.083-0.52,0.165
					c-0.027,0.109-0.086,1.17,6.338,4.663c8.926,4.854,9.578,9.138,9.502,10.594c0.705-0.257,2.141-0.689,3.83-0.689
					c2.914,0,6.742,1.308,8.426,7.539c1.033,3.819,0.438,7.681-1.588,10.33c-1.293,1.688-3.039,2.656-4.787,2.656
					c-2.661,0-5.012-2.193-6.446-6.019l-0.015-0.145c0.006-0.034,0.589-3.464,3.758-3.464c0.408,0,0.847,0.06,1.303,0.173
					l-0.001,0.551c-0.051,0.012-1.233,0.322-1.884,1.653c-0.225,0.458,0.007,1.782,0.645,2.803c0.271,0.434,0.84,1.163,1.61,1.163
					c0.92,0,1.912-1.017,2.871-2.938c1.084-2.173,1.171-4.108,0.251-5.596c-0.926-1.496-2.865-2.462-4.939-2.462
					c-0.785,0-1.514,0.145-2.113,0.421c-0.305,1.237-2.623,9.836-8.387,10.547c3.479,1.39,10.666,5.427,10.517,15.014
					c-0.095,6.032,2.495,13.111,6.157,16.832c1.467,1.488,2.963,2.275,4.326,2.275c1.789,0,3.361-1.385,4.547-4.003
					c0.045-0.13,1.36-3.644,4.565-3.644c0.126,0,0.255,0.005,0.386,0.018l0.066,0.551C294.159,97.5,291.807,98.328,291.1,101.026z"
					/>
				<path fill="#4160AC" d="M257.745,37.411c0.99,0,2.58-0.952,2.746-1.84c0.09-0.47-0.275-0.869-1.087-1.188
					c-0.622-0.244-1.192-0.368-1.698-0.368c-1.813,0-2.268,1.6-2.285,1.667l-0.129,0.309c0.539,0.002,1.186,0.418,1.974,1.271
					C257.379,37.386,257.588,37.411,257.745,37.411z M255.691,35.766l0.003-0.011c0.041-0.146,0.45-1.455,2.012-1.455
					c0.471,0,1.006,0.117,1.596,0.349c0.457,0.179,0.986,0.476,0.912,0.87c-0.129,0.677-1.56,1.608-2.469,1.608
					c-0.18,0-0.257-0.042-0.271-0.058C256.803,36.345,256.215,35.915,255.691,35.766z"/>
				<path fill="#4160AC" d="M227.545,61.531c-0.174-0.568-0.496-0.936-0.986-1.12c-2.036-0.758-3.035-6.117-3.279-7.638
					c-4.037,1.458-4.314,6.354-3.818,10.258c0.263,2.08,1.529,3.134,3.767,3.134c1.935,0,3.683-0.796,3.856-1.013
					C227.356,64.769,227.956,62.871,227.545,61.531z M226.852,64.99c-0.221,0.197-1.909,0.892-3.624,0.892
					c-2.069,0-3.243-0.971-3.483-2.885c-0.471-3.69-0.242-8.289,3.313-9.829c0.343,2.008,1.358,6.749,3.401,7.511
					c0.401,0.151,0.67,0.458,0.815,0.938C227.652,62.85,227.07,64.682,226.852,64.99z"/>
				<path fill="#4160AC" d="M205.295,105.608c0.073-0.007,0.152-0.007,0.228-0.011c0.37-1.968,0.875-2.67,1.072-2.67
					c0.019-0.002,0.042,0.005,0.056,0.012h0.004l-0.027-0.289c-0.01-0.001-0.021-0.006-0.03-0.006c-0.515,0-1.031,1.148-1.367,2.978
					c0.021-0.003,0.041-0.011,0.063-0.013L205.295,105.608z"/>
				<path fill="#4160AC" d="M207.135,102.895c0.039-0.023,0.076-0.035,0.115-0.035c0.129,0,0.299,0.121,0.437,0.308
					c0.237,0.328,0.417,0.917,0.203,1.583c-0.149,0.472-0.407,0.679-0.949,0.766l0,0l0.093,0.272
					c0.631-0.145,0.959-0.424,1.127-0.951c0.19-0.591,0.107-1.129-0.067-1.521c-0.234-0.275-0.545-0.523-0.879-0.729
					c-0.076,0.006-0.151,0.021-0.222,0.063l-0.242,0.021c-0.044-0.016-0.084-0.021-0.123-0.022l0.027,0.289L207.135,102.895z"/>
				<path fill="#4160AC" d="M217.733,78.892c0.039-0.002,0.081-0.004,0.107-0.006c0.035-0.003,0.058-0.005,0.063-0.005
					c-0.103,0.003-0.189,0.011-0.284,0.018C217.666,78.896,217.697,78.894,217.733,78.892z"/>
				<path fill="#4160AC" d="M227.562,60.883c-0.053-0.083-0.116-0.159-0.181-0.233c-0.021-0.024-0.038-0.053-0.061-0.076
					c-0.088-0.09-0.187-0.172-0.297-0.243c-0.109-0.072-0.231-0.134-0.365-0.184c-2.147-0.802-3.147-7.744-3.148-7.748
					c-3.85,1.168-5.012,5.301-4.328,10.667c0.207,1.647,1.01,2.557,2.036,3.007c0.075,0.033,0.155,0.051,0.232,0.079
					c0.135,0.049,0.268,0.103,0.407,0.139c0.037,0.009,0.076,0.012,0.113,0.02c0.407,0.092,0.831,0.138,1.256,0.138
					c1.928,0,3.857-0.803,4.087-1.132C227.686,64.792,228.429,62.257,227.562,60.883z M223.228,66.165
					c-2.237,0-3.504-1.054-3.767-3.134c-0.496-3.903-0.219-8.8,3.818-10.258c0.244,1.521,1.243,6.88,3.279,7.638
					c0.49,0.185,0.812,0.552,0.986,1.12c0.41,1.34-0.189,3.237-0.461,3.621C226.911,65.369,225.163,66.165,223.228,66.165z"/>
				<path fill="#4160AC" d="M206.597,102.644c0.01,0,0.021,0.005,0.03,0.006l-0.027-0.289c-0.002,0-0.004-0.001-0.006-0.001
					c-0.918,0-1.425,1.956-1.667,3.321c0.1-0.021,0.198-0.048,0.303-0.06C205.566,103.792,206.083,102.644,206.597,102.644z"/>
				<path fill="#4160AC" d="M294.116,96.942c-0.131-0.013-0.26-0.018-0.386-0.018c-3.205,0-4.521,3.514-4.565,3.644
					c-1.186,2.618-2.758,4.003-4.547,4.003c-1.363,0-2.859-0.787-4.326-2.275c-3.662-3.721-6.252-10.8-6.157-16.832
					c0.149-9.587-7.038-13.624-10.517-15.014c5.764-0.711,8.082-9.31,8.387-10.547c0.6-0.276,1.328-0.421,2.113-0.421
					c2.074,0,4.014,0.966,4.939,2.462c0.92,1.487,0.833,3.423-0.251,5.596c-0.959,1.921-1.951,2.938-2.871,2.938
					c-0.771,0-1.34-0.729-1.61-1.163c-0.638-1.021-0.869-2.345-0.645-2.803c0.65-1.331,1.833-1.642,1.884-1.653l0.001-0.551
					c-0.456-0.113-0.895-0.173-1.303-0.173c-3.169,0-3.752,3.43-3.758,3.464l0.015,0.145c1.435,3.825,3.785,6.019,6.446,6.019
					c1.748,0,3.494-0.969,4.787-2.656c2.026-2.649,2.621-6.511,1.588-10.33c-1.684-6.231-5.512-7.539-8.426-7.539
					c-1.689,0-3.125,0.433-3.83,0.689c0.076-1.456-0.576-5.74-9.502-10.594c-6.424-3.493-6.365-4.554-6.338-4.663
					c0.021-0.082,0.207-0.165,0.52-0.165c0.415,0,0.771,0.143,0.826,0.216c0.255,0.469,1.404,0.879,2.457,0.879
					c0.691,0,1.658-0.169,2.35-0.974c0.73-0.849,0.964-2.185,0.694-3.974c-0.326-2.155-1.655-3.442-3.558-3.442
					c-1.438,0-2.967,0.771-4.092,2.062c-1.469,1.685-2.087,4.001-1.74,6.521c0.439,3.171,3.5,5.312,6.461,7.383
					c2.858,2,5.558,3.89,5.813,6.525c0.179,1.846-0.867,3.916-3.196,6.332c-2.963,3.074-5.52,4.633-7.597,4.633
					c-3.511,0.001-4.604-4.622-4.731-5.222c3.063-10.406,2.645-18.596-1.246-24.343c-4.615-6.819-12.619-7.645-12.756-7.651
					c-13.133,1.433-12.6,19.869-12.481,22.151c-8.093,2.432-8.911,7.243-8.938,7.429c-1.01,4.384-0.529,7.917,1.428,10.5
					c1.849,2.437,4.576,3.473,6.433,3.911c-0.74,0.068-1.425,0.103-2.045,0.103c-3.093,0-3.642-0.849-3.642-0.849l-0.109-0.119
					c-5.667-3.358-8.196-7.548-7.514-12.454c0.901-6.49,7.213-12.11,8.649-12.49c0.442-0.118,0.937-0.181,1.457-0.247
					c1.304-0.167,2.651-0.339,3.444-1.397c0.619-0.825,0.785-2.065,0.512-3.792c-0.575-3.604-2.874-3.993-3.836-3.993
					c-1.553,0-3.135,0.91-3.76,2.163c-0.941,1.888-0.514,3.509-0.256,4.176c-1.502,0.434-7.799,2.535-11.121,7.995
					c-2.205,3.623-2.692,7.989-1.45,12.975c2.752,11.023,8.522,14.342,12.302,15.304c-13.41,1.251-16.337,7.069-17.793,9.967
					c-1.636,3.247-3.015,14.047,3.576,19.131c1.32,1.018,2.744,1.535,4.234,1.535c3.254,0,5.947-2.545,6.578-4.903
					c0.471-1.761-0.145-3.281-1.688-4.169c-0.957-0.552-1.819-0.831-2.562-0.831c-2.039,0-3.23,2.118-3.271,5.807
					c-0.009,0.481,0.114,0.908,0.34,1.201c-0.067,0.09-0.125,0.189-0.175,0.301c-0.264,0-1.155-0.769-2.117-2.62
					c-1.836-3.535-2.749-8.803,0.193-12.982c1.861-2.64,4.641-3.924,8.496-3.924c1.869,0,3.709,0.286,5.33,0.537
					c1.262,0.194,2.351,0.363,3.219,0.363c0.592,0,1.039-0.08,1.371-0.247c1.697-0.851,3.776-2.989,5.103-4.48
					c-0.841,1.4-2.153,2.975-3.599,4.713c-3.521,4.232-7.903,9.5-8.193,15.65c-0.2,4.195,1.823,8.948,5.413,12.715
					c2.957,3.101,6.494,4.953,9.462,4.953c1.178,0,2.254-0.282,3.201-0.838c0.928-0.545,1.755-0.822,2.459-0.822
					c0.661,0,1.21,0.237,1.677,0.722c1.713,1.782,1.558,6.196,1.556,6.24l0.523,0.169c2.077-3.209,1.729-5.324,1.07-6.534
					c-1.232-2.265-4.346-3.068-6.637-3.068c-0.705,0-1.383,0.068-2.015,0.202c-0.131,0.028-0.269,0.042-0.413,0.042
					c-2.564,0-6.603-4.384-8.31-9.021c-0.772-2.099-1.673-5.958,0.976-8.214c9.039-7.698,16.488-18.475,16.596-18.646l0.685-1.892
					c1.49,4.042,2.756,4.159,4.094,4.282c1.115,0.103,2.269,0.209,3.839,3.086c1.323,2.429,3.562,3.359,5.539,4.181
					c3.506,1.456,6.532,2.714,4.045,11.598c-1.113,3.981-2.873,5.917-5.381,5.917c-2.939,0-6.453-2.661-9.277-4.802
					c-1.877-1.421-3.496-2.648-4.631-2.88c-0.227-0.046-0.449-0.07-0.66-0.07c-0.713,0-1.319,0.268-1.799,0.794
					c-1.615,1.775-1.24,5.957-1.223,6.135l0.387,0.235l1.33-0.527l0.176-0.225c0.211-1.5,0.849-3.612,1.61-3.612
					c0.257,0,0.815,0.252,1.65,1.933c2.788,5.612,10.604,8.267,10.936,8.377l0.11,0.014c5.555-0.405,9.479-2.19,11.662-5.306
					c3.838-5.473,1.535-13.631,0.162-18.506l-0.268-0.951c-1.412-5.126-7.111-11.125-9.853-13.787
					c14.911,7.799,15.907,12.686,16.872,17.416c0.666,3.264,1.353,6.64,6.447,10.836c3.729,3.073,6.862,4.631,9.313,4.631
					c4.346,0,5.508-4.754,6.067-7.039c0.052-0.212,0.099-0.403,0.143-0.57c0.707-2.697,3.059-3.525,3.082-3.533L294.116,96.942z
					 M290.827,100.953c-0.519,1.962-1.424,7.398-5.936,7.398c-2.129,0-5.061-1.211-9.133-4.566
					c-12.709-10.466,2.51-15.324-25.164-29.203c0,0,9.406,8.363,11.242,15.031c1.838,6.665,7.351,23.043-11.306,24.404
					c0,0-8.004-2.663-10.771-8.234c-0.762-1.534-1.391-2.09-1.904-2.09c-1.352,0-1.893,3.855-1.893,3.855l-1.328,0.528
					c0,0-0.627-6.618,2.738-6.617c0.188,0,0.391,0.021,0.604,0.064c2.752,0.561,8.998,7.688,13.965,7.688
					c2.33,0,4.38-1.569,5.653-6.125c3.992-14.257-6.064-9.484-9.607-15.991c-3.549-6.502-5.299,0.502-8.178-8.075l-0.955,2.639
					c0,0-7.396,10.764-16.514,18.526c-5.647,4.811,2.873,17.733,7.52,17.733c0.162,0,0.32-0.016,0.473-0.048
					c0.608-0.13,1.272-0.197,1.955-0.197c4.371,0,9.487,2.74,5.328,9.166c0,0,0.291-7.256-3.517-7.256
					c-0.714,0-1.572,0.255-2.603,0.861c-0.934,0.548-1.969,0.799-3.058,0.799c-6.537,0-14.989-9.055-14.593-17.371
					c0.458-9.699,11.24-17.156,12.609-22.113c0,0-3.693,4.642-6.33,5.963c-0.311,0.156-0.731,0.219-1.244,0.219
					c-1.953,0-5.211-0.901-8.549-0.901c-3.191,0-6.457,0.824-8.729,4.044c-4.867,6.913,0.693,16.05,2.154,16.05
					c0.103,0,0.181-0.055,0.237-0.148l-0.044-0.866c0.014-0.013,0.033-0.021,0.047-0.033c-0.08-0.204-0.126-0.452-0.121-0.731
					c0.015-1.306,0.205-5.528,2.985-5.528c0.653,0,1.45,0.233,2.421,0.793c4.041,2.324,0.239,8.543-4.748,8.543
					c-1.312,0-2.707-0.431-4.062-1.476c-6.504-5.019-5.093-15.612-3.496-18.779c1.582-3.146,4.924-9.425,20.607-10.008l0,0
					c-0.062,0.002-0.135,0.003-0.216,0.003c-2.287,0-11.254-0.945-14.879-15.462c-4.162-16.707,12.689-20.715,12.689-20.715
					s-1.041-1.912,0.115-4.236c0.562-1.125,2.037-2.006,3.507-2.005c1.562,0,3.116,0.996,3.556,3.753
					c0.85,5.35-2.852,4.494-5.205,5.119c-2.355,0.623-18.189,15.399-1.209,25.461c0,0,0.496,1.008,3.896,1.008
					c1.058,0,2.396-0.098,4.089-0.354c0,0-12.806-0.6-9.627-14.381c0,0,0.741-4.896,8.958-7.283
					c0.003-0.001-1.6-20.57,12.218-22.078c0,0,22.426,2.104,13.681,31.698c0,0,1.002,5.52,5.023,5.52
					c1.876,0,4.408-1.201,7.801-4.72c10.674-11.068-7.902-12.529-9.001-20.476c-0.7-5.091,2.743-8.26,5.55-8.26
					c1.572,0,2.944,0.994,3.277,3.201c0.555,3.68-1.186,4.622-2.764,4.622c-1.058,0-2.041-0.425-2.209-0.731
					c-0.113-0.208-0.617-0.364-1.074-0.364c-1.227,0-2.118,1.119,5.684,5.36c10.717,5.826,9.29,10.789,9.29,10.789
					s1.856-0.852,4.177-0.852c2.903,0,6.531,1.333,8.152,7.329c1.885,6.968-1.962,12.629-6.102,12.629
					c-2.271,0-4.631-1.704-6.182-5.834c0,0,0.514-3.225,3.479-3.225c0.371,0,0.781,0.051,1.232,0.165c0,0-1.35,0.328-2.07,1.805
					c-0.485,0.992,0.654,4.373,2.511,4.373c0.905,0,1.983-0.807,3.125-3.093c2.798-5.606-1.397-8.468-4.942-8.468
					c-0.861,0-1.684,0.168-2.357,0.507c0,0-2.404,10.507-8.91,10.507c-0.365,0-0.743-0.033-1.135-0.103
					c0,0,12.332,2.856,12.136,15.35c-0.146,9.26,5.662,19.396,10.767,19.396c1.781,0,3.479-1.234,4.805-4.17
					c0,0,1.267-3.477,4.31-3.477c0.118,0,0.238,0.005,0.36,0.016C294.092,97.224,291.584,98.067,290.827,100.953z"/>
				<path fill="#4160AC" d="M207.917,103c0.064,0.089,0.124,0.197,0.177,0.315c0.653,0.768,0.709,1.76-0.979,2.709l0.009,0.026
					c0.574-0.111,1.068-0.384,1.305-1.128c0.437-1.354-0.366-2.63-1.179-2.631c-0.126,0-0.251,0.035-0.372,0.1
					c-0.01,0.006-0.021,0.008-0.03,0.014c0.042,0.016,0.081,0.018,0.124,0.041c0.082,0.045,0.163,0.092,0.243,0.141
					c0.013-0.001,0.025-0.011,0.038-0.011C207.475,102.576,207.724,102.735,207.917,103z"/>
				<path fill="#4160AC" d="M255.288,36.275c0.361,0,0.92,0.262,1.77,1.18c0.152,0.167,0.396,0.24,0.688,0.24
					c1.65,0,4.824-2.375,1.764-3.574c-0.703-0.276-1.299-0.387-1.801-0.387c-2.065,0-2.561,1.877-2.561,1.877l-0.43,1.022
					l0.002,0.001C254.789,36.499,254.952,36.275,255.288,36.275z M255.42,35.683c0.018-0.067,0.472-1.667,2.285-1.667
					c0.506,0,1.076,0.124,1.698,0.368c0.812,0.318,1.177,0.718,1.087,1.188c-0.166,0.888-1.756,1.84-2.746,1.84
					c-0.156,0-0.365-0.025-0.479-0.149c-0.788-0.853-1.435-1.269-1.974-1.271L255.42,35.683z"/>
				<path fill="#4160AC" d="M220.521,41.855c0.115-0.358-0.998-3.609-2.392-3.609c-0.772,0-1.631,1.003-2.414,4.062
					c0.002-0.001,0.334,0.008,0.824,0.008C217.877,42.315,220.393,42.259,220.521,41.855z M218.131,38.529
					c0.254,0,0.529,0.16,0.816,0.474c0.809,0.883,1.321,2.527,1.336,2.711c-0.14,0.117-1.084,0.317-3.744,0.317
					c-0.176,0-0.33-0.001-0.457-0.002C216.909,38.993,217.715,38.529,218.131,38.529z"/>
				<path fill="#4160AC" d="M206.75,102.672l0.242-0.021c0.07-0.042,0.146-0.058,0.222-0.063c-0.08-0.049-0.161-0.096-0.243-0.141
					c-0.043-0.023-0.082-0.025-0.124-0.041c-0.001,0-0.001,0-0.002,0.001c-0.085-0.031-0.167-0.045-0.245-0.046l0.027,0.289
					C206.667,102.652,206.707,102.656,206.75,102.672z"/>
				<path fill="#4160AC" d="M207.249,102.292c-0.126,0-0.25,0.035-0.371,0.1C206.999,102.327,207.124,102.292,207.249,102.292
					L207.249,102.292z"/>
				<path fill="#4160AC" d="M208.093,103.316c0.175,0.393,0.258,0.931,0.067,1.521c-0.168,0.527-0.496,0.807-1.127,0.951
					l0.081,0.236C208.802,105.075,208.747,104.083,208.093,103.316z"/>
				<path fill="#4160AC" d="M204.208,106.671c0.005-0.039,0.008-0.065,0.014-0.112l0,0l-0.001-0.001
					c0.004-0.031,0.01-0.076,0.015-0.11c-0.092-0.095-0.176-0.211-0.235-0.361c-0.014,0.013-0.033,0.021-0.047,0.033l0.044,0.866
					c0.009-0.015,0.022-0.021,0.03-0.038C204.077,106.838,204.14,106.751,204.208,106.671z"/>
				<path fill="#4160AC" d="M217.84,78.885c-0.026,0.002-0.068,0.004-0.107,0.006C217.774,78.889,217.814,78.887,217.84,78.885z"/>
				<path fill="#4160AC" d="M217.904,78.88c0.001,0,0.011-0.001,0.011-0.001c-0.119,0.004-0.215,0.015-0.326,0.021
					c0.014,0,0.019-0.001,0.031-0.002C217.714,78.891,217.801,78.883,217.904,78.88z"/>
				<polygon fill="#4160AC" points="217.587,78.9 217.587,78.9 217.588,78.9 				"/>
				<path fill="#4160AC" d="M227.314,65.317c-0.229,0.329-2.159,1.132-4.087,1.132c0.001,0,0.001,0,0.001,0
					C225.156,66.448,227.084,65.646,227.314,65.317c0.373-0.523,1.116-3.059,0.248-4.434
					C228.429,62.257,227.686,64.792,227.314,65.317z"/>
				<path fill="#4160AC" d="M227.321,60.574c0.022,0.023,0.039,0.052,0.061,0.076C227.36,60.626,227.343,60.597,227.321,60.574z"/>
				<path fill="#4160AC" d="M226.659,60.147c-2.147-0.802-3.147-7.748-3.147-7.748s-0.001,0-0.001,0
					C223.511,52.403,224.511,59.345,226.659,60.147z"/>
				<path fill="#4160AC" d="M221.451,66.152c-0.077-0.028-0.157-0.046-0.232-0.079C221.292,66.106,221.374,66.124,221.451,66.152z"
					/>
				<path fill="#4160AC" d="M221.971,66.311c-0.037-0.008-0.076-0.011-0.113-0.02C221.895,66.3,221.934,66.302,221.971,66.311z"/>
				<path fill="#4160AC" d="M255.235,36.866l-0.516-0.232c-0.002,0.004-0.006,0.01-0.008,0.014l-0.035,0.087
					c0,0,0.011-0.037,0.035-0.088l0.006-0.014l-0.516-0.232c-0.046,0.093-0.065,0.162-0.065,0.162l1.063,0.391L255.235,36.866z"/>
				<path fill="#4160AC" d="M254.676,36.735l0.035-0.087c0.002-0.004,0.006-0.009,0.008-0.014l-0.002-0.001l-0.006,0.014
					C254.687,36.698,254.676,36.735,254.676,36.735z"/>
				<path fill="#4160AC" d="M204.849,105.892c0.012-0.016,0.02-0.02,0.032-0.038l0.018-0.011c0.009-0.053,0.018-0.106,0.028-0.162
					c-0.088,0.019-0.181,0.025-0.265,0.052l-0.001,0.001h0.001L204.849,105.892z"/>
				<path fill="#4160AC" d="M204.236,106.448c0.015,0.016,0.029,0.032,0.045,0.046l0.368-0.413c0.014-0.004,0.042-0.022,0.073-0.047
					l0.024-0.029c0.003-0.001,0.006-0.001,0.009-0.001c0.027-0.027,0.06-0.066,0.094-0.111l-0.187-0.158h-0.001l-0.392,0.459
					C204.256,106.29,204.247,106.367,204.236,106.448z"/>
				<path fill="#4160AC" d="M205.23,105.621c-0.002,0.009-0.004,0.019-0.005,0.028l0.068-0.041
					C205.271,105.611,205.251,105.618,205.23,105.621z"/>
				<path fill="#4160AC" d="M205.225,105.65c0.001-0.01,0.003-0.02,0.005-0.028c-0.104,0.012-0.203,0.038-0.303,0.06
					c-0.011,0.056-0.02,0.109-0.028,0.162L205.225,105.65z"/>
				<path fill="#4160AC" d="M204.236,106.448c-0.005,0.034-0.011,0.079-0.015,0.11l0.001,0.001l0.059-0.065
					C204.265,106.48,204.25,106.463,204.236,106.448z"/>
				<path fill="#4160AC" d="M204.755,106.003c-0.003,0-0.006,0-0.009,0.001l-0.024,0.029
					C204.733,106.025,204.743,106.015,204.755,106.003z"/>
				<path fill="#FFFFFF" d="M205.65,106.672C205.649,106.673,205.649,106.673,205.65,106.672c0.507-0.181,0.938-0.367,1.296-0.556
					l0,0C206.587,106.304,206.157,106.49,205.65,106.672z"/>
				<path fill="#FFFFFF" d="M206.946,106.116c0.027-0.014,0.059-0.027,0.085-0.042h-0.001
					C207.003,106.089,206.972,106.103,206.946,106.116L206.946,106.116z"/>
				<path fill="#FFFFFF" d="M205.624,106.16l0.104,0.177c0.179-0.067,0.351-0.135,0.512-0.205
					C206.03,106.138,205.827,106.15,205.624,106.16z"/>
				<path fill="#FFFFFF" d="M205.727,106.337l0.09,0.152c-0.051,0.075-0.112,0.119-0.167,0.183c0.507-0.183,0.938-0.368,1.296-0.556
					l-0.012-0.035c-0.226,0.03-0.459,0.045-0.695,0.051C206.078,106.202,205.906,106.27,205.727,106.337z"/>
				<path fill="#FFFFFF" d="M206.946,106.116c0.026-0.014,0.058-0.027,0.084-0.042c-0.031,0.005-0.064,0.003-0.096,0.007
					L206.946,106.116z"/>
				<path fill="#FFFFFF" d="M205.276,106.255c0.024-0.031,0.05-0.047,0.074-0.083h-0.001
					C205.325,106.208,205.299,106.224,205.276,106.255L205.276,106.255z"/>
				<path fill="#FFFFFF" d="M205.276,106.255L205.276,106.255c-0.118,0.149-0.237,0.247-0.356,0.306l0.001,0.001
					C205.039,106.503,205.158,106.406,205.276,106.255z"/>
				<path fill="#FFFFFF" d="M204.92,106.562L204.92,106.562c-0.045,0.021-0.091,0.057-0.135,0.067v0.001
					C204.83,106.619,204.875,106.583,204.92,106.562z"/>
				<path fill="#FFFFFF" d="M205.25,106.81L205.25,106.81c0.138-0.045,0.271-0.09,0.399-0.137c0,0,0,0,0.001-0.001
					C205.521,106.718,205.389,106.764,205.25,106.81z"/>
				<path fill="#FFFFFF" d="M204.745,106.97L204.745,106.97c0.179-0.053,0.341-0.105,0.504-0.16h0.001
					C205.086,106.863,204.923,106.917,204.745,106.97z"/>
				<path fill="#FFFFFF" d="M205.509,106.415c0.072-0.026,0.148-0.052,0.218-0.078l-0.104-0.177
					c-0.045,0.002-0.092,0.003-0.137,0.006l0.098,0.165C205.561,106.366,205.533,106.383,205.509,106.415z"/>
				<path fill="#FFFFFF" d="M205.727,106.337c-0.069,0.026-0.146,0.052-0.218,0.078c-0.047,0.061-0.097,0.111-0.146,0.161
					c-0.005,0.04-0.012,0.089-0.017,0.125l-0.097,0.108c0.14-0.046,0.271-0.092,0.4-0.138c0.055-0.063,0.116-0.107,0.167-0.183
					L205.727,106.337z"/>
				<path fill="#FFFFFF" d="M205.346,106.701c0.005-0.036,0.012-0.085,0.017-0.125c-0.158,0.159-0.325,0.284-0.51,0.33l-0.092-0.082
					c-0.01,0.085-0.017,0.145-0.017,0.146c0.179-0.053,0.342-0.107,0.505-0.16L205.346,106.701z"/>
				<path fill="#FFFFFF" d="M205.276,106.255l0.117,0.1c-0.006,0.041-0.009,0.068-0.015,0.106c0.045-0.015,0.087-0.03,0.131-0.046
					c0.023-0.032,0.052-0.049,0.075-0.084l-0.098-0.165c-0.045,0.003-0.094,0.001-0.138,0.006l0,0h0.001
					C205.326,106.208,205.3,106.224,205.276,106.255z"/>
				<path fill="#FFFFFF" d="M204.92,106.562l0.058,0.042c0.146-0.046,0.265-0.096,0.4-0.143c0.006-0.038,0.009-0.065,0.015-0.106
					l-0.117-0.1C205.158,106.406,205.039,106.503,204.92,106.562z"/>
				<path fill="#FFFFFF" d="M205.378,106.461c-0.005,0.04-0.011,0.078-0.016,0.115c0.05-0.05,0.1-0.101,0.146-0.161
					C205.465,106.431,205.423,106.447,205.378,106.461z"/>
				<path fill="#FFFFFF" d="M204.978,106.604l-0.058-0.042c-0.045,0.021-0.091,0.058-0.135,0.068v-0.001
					c-0.001,0-0.001,0.001-0.002,0.001c-0.01,0.081-0.017,0.14-0.022,0.194l0.092,0.082c0.185-0.046,0.352-0.171,0.51-0.33
					c0.005-0.037,0.011-0.075,0.016-0.115C205.243,106.508,205.124,106.558,204.978,106.604z"/>
				<path fill="#4160AC" d="M206.049,105.857c0.047-0.001,0.095-0.004,0.143-0.005c0.204-0.09,0.396-0.181,0.568-0.274l0.002-0.001
					v-0.001c0.034-0.019,0.058-0.037,0.09-0.056c-0.252,0.033-0.52,0.046-0.809,0.053c-0.178,0.004-0.35,0.015-0.521,0.024
					c-0.018,0.092-0.035,0.188-0.052,0.286C205.661,105.87,205.852,105.862,206.049,105.857z"/>
				<path fill="#4160AC" d="M206.852,105.52c-0.032,0.019-0.056,0.037-0.09,0.056v0.001l0.179-0.061l-0.001-0.002
					C206.914,105.519,206.879,105.516,206.852,105.52z"/>
				<path fill="#4160AC" d="M207.078,106.062L207.078,106.062c0.017-0.002,0.03-0.008,0.046-0.01v-0.001
					C207.108,106.054,207.093,106.06,207.078,106.062z"/>
				<path fill="#4160AC" d="M207.039,106.388c-0.594,0.308-1.334,0.596-2.214,0.854l-0.053-0.044
					c-0.043,0.005-0.085,0.016-0.127,0.016c-0.043,0-0.084-0.016-0.127-0.021l0.387,0.321c0.94-0.276,1.73-0.586,2.354-0.92
					c-0.048,0.01-0.086,0.03-0.137,0.038L207.039,106.388z"/>
				<path fill="#4160AC" d="M207.124,106.052c-0.016,0.002-0.029,0.008-0.046,0.011l0.089,0.261
					c-0.04,0.021-0.087,0.043-0.128,0.064l0.083,0.245c0.051-0.008,0.089-0.028,0.137-0.038c0.014-0.008,0.03-0.014,0.044-0.021
					L207.124,106.052z"/>
				<path fill="#4160AC" d="M204.772,107.198l-0.311-0.256l0.019-0.154l-0.208-0.186c-0.021,0.022-0.043,0.045-0.063,0.068
					c-0.017,0.141-0.028,0.242-0.028,0.242l0.338,0.28c0.043,0.005,0.084,0.021,0.127,0.021
					C204.687,107.214,204.729,107.203,204.772,107.198z"/>
				<path fill="#4160AC" d="M205.523,105.597c-0.075,0.004-0.154,0.004-0.228,0.011l-0.002,0.001c0.002,0,0.004-0.001,0.006-0.001
					l0.162,0.276c0.003-0.001,0.007-0.001,0.01-0.001C205.488,105.784,205.505,105.689,205.523,105.597z"/>
				<path fill="#4160AC" d="M206.762,105.576l-0.002,0.001c-0.172,0.094-0.364,0.185-0.568,0.274
					c0.221-0.006,0.439-0.019,0.649-0.043L206.762,105.576z"/>
				<path fill="#4160AC" d="M206.841,105.809c0.048-0.006,0.1-0.007,0.146-0.015l0.002,0.006c0.017-0.003,0.029-0.008,0.045-0.012
					l-0.093-0.272l-0.179,0.061L206.841,105.809z"/>
				<path fill="#4160AC" d="M207.078,106.062c0.016-0.002,0.03-0.008,0.046-0.011l-0.009-0.026
					c-0.015,0.008-0.026,0.017-0.041,0.025L207.078,106.062z"/>
				<path fill="#4160AC" d="M207.074,106.05c0.015-0.009,0.026-0.018,0.041-0.025l-0.081-0.236
					c-0.016,0.004-0.028,0.009-0.045,0.012L207.074,106.05z"/>
				<path fill="#4160AC" d="M204.222,106.559L204.222,106.559c-0.006,0.047-0.009,0.073-0.014,0.112
					c0.021-0.023,0.042-0.046,0.063-0.068L204.222,106.559z"/>
				<path fill="#4160AC" d="M204.877,106.266c-0.015,0.004-0.031,0.005-0.045,0.009c-0.001,0.007-0.001,0.011-0.002,0.018
					C204.846,106.282,204.862,106.278,204.877,106.266z"/>
				<path fill="#4160AC" d="M204.899,105.843l-0.018,0.011c-0.013,0.019-0.021,0.022-0.032,0.038l0.036,0.031
					C204.89,105.897,204.894,105.87,204.899,105.843z"/>
				<path fill="#4160AC" d="M204.529,106.406l0.023-0.172l0.17-0.201c-0.031,0.024-0.06,0.043-0.073,0.047l-0.368,0.413
					c0.017,0.016,0.03,0.037,0.048,0.05C204.389,106.49,204.458,106.447,204.529,106.406z"/>
				<path fill="#4160AC" d="M204.885,105.923l-0.036-0.031c-0.034,0.045-0.066,0.084-0.094,0.111
					c0.038-0.013,0.081-0.015,0.121-0.024C204.879,105.96,204.882,105.941,204.885,105.923z"/>
				<path fill="#4160AC" d="M204.329,106.543c-0.021,0.018-0.037,0.041-0.057,0.06l0.208,0.186l0.021-0.188
					C204.444,106.583,204.382,106.581,204.329,106.543z"/>
				<path fill="#4160AC" d="M205.321,105.891L205.321,105.891c0.046-0.005,0.095-0.005,0.141-0.007l-0.162-0.276
					c-0.002,0-0.004,0.001-0.006,0.001l-0.068,0.041c-0.016,0.086-0.03,0.18-0.045,0.27
					C205.228,105.911,205.272,105.896,205.321,105.891z"/>
				<path fill="#4160AC" d="M204.937,105.966c0.08-0.019,0.16-0.035,0.243-0.047c0.015-0.09,0.029-0.184,0.045-0.27l-0.326,0.193
					c-0.005,0.027-0.009,0.054-0.014,0.08L204.937,105.966z"/>
				<path fill="#4160AC" d="M204.502,106.594l0.025-0.186c-0.069,0.039-0.137,0.081-0.197,0.135c0.052,0.038,0.113,0.04,0.171,0.057
					L204.502,106.594L204.502,106.594z"/>
				<path fill="#4160AC" d="M204.501,106.6c-0.058-0.017-0.119-0.019-0.171-0.057c0.061-0.054,0.128-0.096,0.197-0.135l0.001-0.002
					c-0.071,0.04-0.14,0.083-0.2,0.137C204.382,106.581,204.444,106.583,204.501,106.6L204.501,106.6z"/>
				<path fill="#4160AC" d="M204.329,106.543c-0.018-0.013-0.031-0.034-0.048-0.05l-0.059,0.065l0.05,0.044
					C204.292,106.584,204.308,106.561,204.329,106.543z"/>
				<path fill="#4160AC" d="M204.885,105.923c-0.003,0.018-0.006,0.037-0.009,0.056c0.02-0.005,0.04-0.007,0.061-0.013
					L204.885,105.923z"/>
				<path fill="#4160AC" d="M204.529,106.406c0.094-0.054,0.194-0.099,0.302-0.132c0.014-0.092,0.029-0.191,0.046-0.296
					c-0.04,0.01-0.083,0.012-0.121,0.024c-0.013,0.012-0.022,0.021-0.033,0.03l-0.17,0.201L204.529,106.406z"/>
				<path fill="#4160AC" d="M205.321,105.891c-0.049,0.005-0.093,0.021-0.141,0.028c-0.004,0.02-0.007,0.041-0.011,0.062
					L205.321,105.891z"/>
				<path fill="#4160AC" d="M204.715,106.356c0.038-0.009,0.076-0.04,0.115-0.063c0.001-0.007,0.001-0.011,0.002-0.018
					c-0.108,0.033-0.209,0.08-0.305,0.134l-0.025,0.186L204.715,106.356z"/>
				<path fill="#4160AC" d="M205.116,106.013l0.054-0.032c0.004-0.021,0.007-0.042,0.011-0.062
					c-0.083,0.012-0.163,0.028-0.243,0.047l0.126,0.107C205.081,106.051,205.098,106.038,205.116,106.013z"/>
				<path fill="#4160AC" d="M204.831,106.292c0.001-0.007,0.001-0.011,0.002-0.018C204.832,106.281,204.832,106.285,204.831,106.292
					L204.831,106.292z"/>
				<path fill="#4160AC" d="M204.833,106.275c0.014-0.004,0.03-0.005,0.045-0.009c0.062-0.046,0.124-0.112,0.186-0.192l-0.126-0.107
					c-0.021,0.006-0.041,0.008-0.061,0.013c-0.017,0.104-0.032,0.204-0.046,0.296c-0.107,0.033-0.208,0.078-0.302,0.132
					l-0.001,0.002C204.624,106.355,204.724,106.308,204.833,106.275z"/>
				<path fill="#4160AC" d="M206.192,105.852c-0.048,0.001-0.096,0.004-0.143,0.005c-0.197,0.005-0.389,0.014-0.578,0.026
					c-0.001,0.005-0.001,0.009-0.002,0.014l0.115,0.197C205.798,106.015,206.004,105.935,206.192,105.852z"/>
				<path fill="#4160AC" d="M205.649,106.673c-0.217,0.251-0.455,0.438-0.728,0.504l-0.003,0.004
					c-0.048,0.012-0.098,0.012-0.146,0.018l0.053,0.044c0.88-0.259,1.62-0.547,2.214-0.854l-0.093-0.271
					C206.587,106.305,206.157,106.491,205.649,106.673z"/>
				<path fill="#4160AC" d="M207.033,106.073C207.033,106.073,207.032,106.073,207.033,106.073c0.015-0.002,0.029-0.008,0.045-0.011
					v-0.001C207.063,106.066,207.048,106.072,207.033,106.073z"/>
				<path fill="#4160AC" d="M207.033,106.073c-0.001,0-0.002,0.001-0.003,0.001l0,0h0.001c-0.026,0.015-0.058,0.028-0.085,0.042
					l0.093,0.271c0.041-0.021,0.088-0.043,0.128-0.064l-0.089-0.261C207.062,106.066,207.047,106.072,207.033,106.073
					C207.032,106.073,207.033,106.073,207.033,106.073z"/>
				<path fill="#4160AC" d="M204.921,107.177c-0.001,0-0.002,0.002-0.003,0.002l-0.438-0.391l-0.019,0.154l0.311,0.256
					c0.049-0.006,0.099-0.006,0.146-0.018L204.921,107.177z"/>
				<polygon fill="#4160AC" points="205.471,105.883 205.461,105.884 205.469,105.897 				"/>
				<path fill="#4160AC" d="M205.624,106.16c0.203-0.011,0.406-0.022,0.615-0.028c0.217-0.094,0.431-0.188,0.615-0.287l-0.013-0.036
					c-0.21,0.024-0.429,0.037-0.649,0.043c-0.188,0.083-0.394,0.163-0.607,0.242L205.624,106.16z"/>
				<path fill="#4160AC" d="M206.897,105.825c0.035-0.006,0.059-0.018,0.092-0.025l-0.002-0.006
					c-0.046,0.008-0.098,0.009-0.146,0.015l0.013,0.036C206.867,105.839,206.884,105.832,206.897,105.825z"/>
				<path fill="#4160AC" d="M207.033,106.073c0.016-0.002,0.03-0.008,0.045-0.012l-0.004-0.012
					C207.059,106.058,207.048,106.066,207.033,106.073z"/>
				<path fill="#4160AC" d="M206.934,106.081l-0.08-0.236c-0.185,0.1-0.398,0.193-0.615,0.287
					C206.475,106.126,206.708,106.112,206.934,106.081z"/>
				<path fill="#4160AC" d="M206.989,105.8c-0.033,0.008-0.057,0.02-0.092,0.025c-0.013,0.007-0.03,0.014-0.043,0.02l0.08,0.236
					c0.031-0.004,0.064-0.002,0.096-0.007l0,0c0.001,0,0.002-0.001,0.003-0.001c0.016-0.008,0.026-0.016,0.041-0.023L206.989,105.8z
					"/>
				<path fill="#4160AC" d="M205.349,106.172c-0.049,0.005-0.091,0.021-0.139,0.027l0.064,0.056
					C205.299,106.224,205.325,106.208,205.349,106.172z"/>
				<path fill="#4160AC" d="M205.114,106.316l-0.195,0.229c-0.004,0.001-0.01,0.003-0.015,0.004l0.016,0.012
					c0.119-0.059,0.238-0.156,0.355-0.306l-0.064-0.056c-0.027,0.005-0.053,0.011-0.08,0.017
					C205.125,106.25,205.119,106.281,205.114,106.316z"/>
				<path fill="#4160AC" d="M204.786,106.629c0.044-0.011,0.09-0.046,0.134-0.068l-0.016-0.012c0.005-0.001,0.011-0.003,0.015-0.004
					l0.195-0.229c0.005-0.035,0.012-0.065,0.017-0.1c-0.085,0.016-0.173,0.025-0.253,0.05c-0.016,0.012-0.031,0.017-0.047,0.026
					C204.812,106.419,204.797,106.533,204.786,106.629z"/>
				<path fill="#4160AC" d="M205.469,105.897c-0.011,0.063-0.022,0.118-0.033,0.183l0.035,0.059c0.04-0.014,0.074-0.029,0.113-0.044
					L205.469,105.897z"/>
				<path fill="#4160AC" d="M204.921,107.177c0.272-0.066,0.511-0.253,0.728-0.504c-0.129,0.047-0.262,0.092-0.4,0.137
					L204.921,107.177z"/>
				<path fill="#4160AC" d="M204.921,107.177l0.327-0.367c-0.163,0.055-0.325,0.107-0.504,0.16l0,0c-0.001,0-0.001,0-0.002,0
					c0,0,0.007-0.061,0.017-0.146l-0.246-0.219c-0.004-0.002-0.008-0.003-0.012-0.004l-0.021,0.188l0.438,0.391
					C204.919,107.179,204.92,107.177,204.921,107.177z"/>
				<path fill="#4160AC" d="M205.436,106.079c0.011-0.064,0.022-0.119,0.033-0.183l-0.008-0.013
					c-0.046,0.002-0.095,0.002-0.14,0.006l-0.001,0.001c0.001,0,0.002-0.001,0.004-0.001L205.436,106.079z"/>
				<path fill="#4160AC" d="M205.584,106.094c-0.039,0.015-0.073,0.03-0.113,0.044l0.016,0.028c0.045-0.003,0.092-0.004,0.137-0.006
					L205.584,106.094z"/>
				<polygon fill="#4160AC" points="204.502,106.595 204.502,106.594 204.502,106.594 204.501,106.6 204.512,106.604 				"/>
				<path fill="#4160AC" d="M204.759,106.823c-0.01,0.086-0.017,0.146-0.017,0.146c0.001,0,0.001,0,0.002,0
					c0-0.001,0.007-0.061,0.017-0.146L204.759,106.823z"/>
				<rect x="204.507" y="106.596" fill="#4160AC" width="0.001" height="0.012"/>
				<path fill="#4160AC" d="M205.422,106.157c0.018-0.006,0.031-0.013,0.049-0.02l-0.035-0.059
					C205.432,106.107,205.426,106.129,205.422,106.157z"/>
				<path fill="#4160AC" d="M204.645,106.648c0.046,0,0.092-0.007,0.139-0.018C204.736,106.642,204.69,106.648,204.645,106.648
					L204.645,106.648z"/>
				<path fill="#4160AC" d="M204.645,106.648L204.645,106.648L204.645,106.648c-0.048,0-0.088-0.031-0.132-0.043l0.246,0.219
					c0.007-0.055,0.014-0.112,0.024-0.193C204.737,106.641,204.691,106.648,204.645,106.648z"/>
				<path fill="#4160AC" d="M205.143,106.142l0.067,0.058c0.048-0.007,0.09-0.022,0.139-0.027l0,0
					c0.044-0.005,0.093-0.003,0.138-0.006l-0.016-0.028c-0.018,0.007-0.031,0.014-0.049,0.02c0.004-0.028,0.01-0.051,0.014-0.078
					l-0.111-0.189c-0.002,0-0.003,0.001-0.004,0.001l-0.151,0.09C205.161,106.034,205.151,106.087,205.143,106.142z"/>
				<path fill="#4160AC" d="M205.21,106.199l-0.067-0.058c-0.004,0.025-0.009,0.049-0.013,0.074
					C205.158,106.21,205.183,106.204,205.21,106.199z"/>
				<path fill="#4160AC" d="M205.169,105.981l-0.054,0.032c-0.018,0.025-0.035,0.038-0.053,0.061l0.08,0.068
					C205.151,106.087,205.161,106.034,205.169,105.981z"/>
				<path fill="#4160AC" d="M204.715,106.356l-0.213,0.238v0.001l0.01,0.009c0.045,0.013,0.086,0.044,0.133,0.044
					c0.045,0,0.091-0.006,0.139-0.018c0.013-0.096,0.027-0.211,0.047-0.338C204.792,106.316,204.753,106.347,204.715,106.356z"/>
				<path fill="#4160AC" d="M204.784,106.63c-0.011,0.081-0.018,0.139-0.024,0.193l0.002,0.001
					C204.767,106.77,204.774,106.711,204.784,106.63z"/>
				<path fill="#4160AC" d="M205.143,106.142l-0.08-0.068c-0.062,0.08-0.123,0.146-0.186,0.192c0.08-0.024,0.168-0.034,0.253-0.05
					C205.134,106.191,205.139,106.167,205.143,106.142z"/>
				<path fill="#4160AC" d="M204.831,106.292L204.831,106.292c-0.02,0.127-0.034,0.242-0.047,0.338c0.001,0,0.001-0.001,0.002-0.001
					C204.797,106.533,204.812,106.419,204.831,106.292z"/>
				<path fill="#4160AC" d="M204.645,106.648c-0.047,0-0.088-0.031-0.133-0.044l0.001,0.001
					C204.557,106.616,204.597,106.648,204.645,106.648L204.645,106.648z"/>
				<path fill="#4160AC" d="M229.922,59.811h-0.027l-0.055,0.004c-1.516,0.146-1.243,3.848-1.174,4.588
					c0.068,0.717,0.481,4.292,1.934,4.292h0.025l0.054-0.004c1.514-0.146,1.245-3.85,1.177-4.591
					C231.788,63.383,231.372,59.811,229.922,59.811z M230.654,68.409l-0.053,0.002c-1.001,0-1.509-2.537-1.651-4.035
					c-0.188-2.001,0.019-4.193,0.918-4.28c0.002,0,0.002,0,0.002,0c1.053,0,1.562,2.533,1.705,4.031
					C231.718,65.671,231.685,68.311,230.654,68.409z"/>
				<path fill="#4160AC" d="M238.187,59.297h-0.026l-0.056,0.004c-0.166,0.017-0.414,0.09-0.636,0.357
					c-0.622,0.75-0.686,2.678-0.538,4.23c0.067,0.718,0.481,4.294,1.935,4.294h0.026l0.052-0.004c1.52-0.15,1.245-3.851,1.176-4.591
					C240.052,62.872,239.642,59.297,238.187,59.297z M238.92,67.899l-0.055,0.002c-1.002,0-1.51-2.538-1.652-4.037
					c-0.146-1.542-0.057-3.383,0.476-4.023c0.159-0.191,0.33-0.246,0.445-0.256c0.001,0,0.001,0,0.002,0
					c1.055,0,1.561,2.535,1.7,4.033C240.026,65.616,239.82,67.808,238.92,67.899z"/>
			</g>
		</g>
		<g>
			<path fill="#FFFFFF" d="M221.854,100.879c0.238-0.582,0.624-1.104,0.991-1.609c0.372-0.51,0.764-1.004,1.155-1.498
				c0.781-0.989,1.604-1.942,2.459-2.875c0.428-0.469,0.858-0.928,1.332-1.372c0.461-0.422,0.94-0.857,1.332-1.302
				c0.817-0.873,1.641-1.838,2.422-2.789c0.767-0.975,1.554-1.936,2.252-2.942c0.363-0.499,0.689-1.008,0.99-1.521
				c0.342-0.551,0.64-1.071,1.004-1.612c0.728-1.086,1.461-2.099,2.236-3.101c0.779-0.995,1.565-1.976,2.381-2.942l0.768-0.909
				l0.267,1.118c0.031,0.131,0.103,0.313,0.151,0.473l0.197,0.494c0.131,0.33,0.305,0.649,0.453,0.979l0.519,0.961
				c0.168,0.325,0.38,0.625,0.569,0.939c0.371,0.636,0.813,1.227,1.229,1.844c0.211,0.306,0.456,0.584,0.684,0.879l0.678,0.896
				l-0.851-0.736c-0.272-0.256-0.565-0.498-0.825-0.769c-0.508-0.555-1.076-1.064-1.529-1.673c-0.231-0.302-0.486-0.586-0.699-0.9
				c-0.216-0.314-0.443-0.623-0.646-0.949c-0.188-0.335-0.398-0.656-0.572-1.006l-0.262-0.525c-0.08-0.189-0.16-0.349-0.238-0.573
				l1.033,0.209c-0.76,0.981-1.508,1.985-2.235,2.995c-0.728,1.005-1.468,2.023-2.116,3.033c-0.336,0.5-0.645,1.078-0.972,1.588
				c-0.339,0.565-0.698,1.105-1.08,1.616c-0.749,1.04-1.546,2.026-2.378,2.984c-0.854,0.948-1.676,1.881-2.633,2.778
				c-0.474,0.467-0.95,0.846-1.439,1.239c-0.465,0.389-0.923,0.814-1.384,1.229c-0.914,0.847-1.813,1.717-2.714,2.586
				c-0.444,0.439-0.891,0.882-1.317,1.337C222.647,99.918,222.179,100.338,221.854,100.879z"/>
		</g>
		<g>
			<path fill="#FFFFFF" d="M259.81,84.679c0,0-0.668-0.739-1.67-1.849c-1.007-1.104-2.339-2.584-3.722-4.015
				c-0.682-0.725-1.381-1.432-2.051-2.078c-0.672-0.646-1.311-1.232-1.882-1.711c-0.295-0.228-0.563-0.437-0.803-0.621
				c-0.255-0.161-0.478-0.303-0.66-0.419c-0.396-0.173-0.63-0.264-0.63-0.264s0.236,0.07,0.65,0.222
				c0.192,0.104,0.428,0.229,0.695,0.376c0.251,0.173,0.535,0.368,0.846,0.581c0.59,0.463,1.27,1.016,1.951,1.656
				c0.682,0.644,1.395,1.344,2.088,2.062c1.371,1.449,2.687,2.95,3.635,4.106C259.209,83.882,259.81,84.679,259.81,84.679z"/>
		</g>
		<path fill="#FFFFFF" stroke="#000000" stroke-width="0.2835" stroke-miterlimit="10" d="M192.074,163.281l5.557-7.189l3.701-6.291
			l4.938-0.896l8.023,5.393l7.403-7.188l4.32-2.697l12.829-1.961c0,0,6.305-8.822,9.389-8.822c3.086,0,13.578-1.799,13.578-1.799
			l11.727,1.799l15.43-10.785h5.554l3.086,4.494l6.788,9.885l24.688,3.597l6.791,14.379l14.192,7.188l4.32,11.684H190.223
			L192.074,163.281z"/>
		<polyline fill="#434E77" points="226.019,148.003 228.484,155.194 235.893,155.194 		"/>
		<polyline fill="#434E77" points="250.706,139.916 256.258,143.51 259.963,143.51 264.9,137.218 266.752,141.713 273.542,140.815 
					"/>
		<polyline fill="#434E77" points="282.18,164.179 282.799,154.295 289.586,152.496 		"/>
		<polyline fill="#434E77" points="299.461,152.496 298.227,159.687 295.758,157.888 		"/>
		<polyline fill="#434E77" points="247.004,156.99 247.004,166.877 254.409,164.179 		"/>
		<polyline fill="#434E77" points="206.27,148.903 205.652,159.687 213.676,160.585 		"/>
		<polyline fill="#434E77" points="308.718,146.205 313.656,155.194 319.209,156.09 331.553,164.179 		"/>
		<polyline fill="#4D4B4C" points="321.678,141.713 325.999,148.003 329.702,148.003 		"/>
		<polyline fill="#434E77" points="264.281,153.396 264.9,159.687 272.924,161.483 273.542,167.774 277.243,169.572 
			279.096,160.585 		"/>
		<line fill="none" x1="277.243" y1="143.51" x2="277.243" y2="148.003"/>
		<polyline fill="#486DA5" points="203.801,151.845 203.391,158.841 198.866,160.488 		"/>
		<polyline fill="#486DA5" points="283.211,133.744 281.562,143.619 274.159,136.623 		"/>
		<polyline fill="#486DA5" points="305.428,158.43 313.656,170.774 320.652,167.483 		"/>
		<polyline fill="#486DA5" points="329.293,165.013 332.999,166.659 333.816,163.367 		"/>
		<polyline fill="#486DA5" points="314.068,142.795 327.234,157.608 330.114,153.08 		"/>
		<polyline fill="#486DA5" points="248.648,137.858 244.124,149.789 232.192,148.145 		"/>
		<polyline fill="#486DA5" points="258.113,148.966 263.461,162.955 266.752,162.955 		"/>
		<g>
			<path fill="#FFFFFF" d="M308.168,88.72c0-2.014-1.787-3.646-3.994-3.646c-2.205,0-3.994,1.633-3.994,3.646H308.168z"/>
			<path fill="#FFFFFF" d="M309.301,89.504c0,0.24-0.195,0.435-0.434,0.435h-9.386c-0.237,0-0.433-0.193-0.433-0.435l0,0
				c0-0.24,0.193-0.434,0.433-0.434h9.386C309.105,89.071,309.301,89.263,309.301,89.504L309.301,89.504z"/>
			<polygon fill="#FFFFFF" points="308.999,96.149 299.529,96.149 300.225,90.242 308.127,90.242 			"/>
			<polygon fill="none" stroke="#FFFFFF" stroke-miterlimit="10" points="304.045,90.806 304.045,95.41 308.215,95.41 
				307.52,91.155 			"/>
			<g>
				<line fill="none" x1="315.208" y1="91.807" x2="387.235" y2="90.397"/>
				<polygon fill="#326CB5" points="315.204,91.666 387.235,90.397 315.209,91.949 				"/>
			</g>
			<g>
				<line fill="none" x1="315.208" y1="92.216" x2="386.723" y2="91.399"/>
				<polygon fill="#326CB5" points="315.206,92.075 386.723,91.399 315.209,92.359 				"/>
			</g>
			<g>
				<line fill="none" x1="312.723" y1="91.801" x2="387.281" y2="89.867"/>
				<polygon fill="#326CB5" points="312.719,91.66 387.281,89.867 312.727,91.944 				"/>
			</g>
			<g>
				<line fill="none" x1="315.717" y1="93.379" x2="388.258" y2="94.333"/>
				<polygon fill="#326CB5" points="315.719,93.238 388.258,94.333 315.715,93.521 				"/>
			</g>
		</g>
	</g>
	<polyline fill="#D1D3D4" points="287.904,131.737 288.654,141.237 294.654,141.237 	"/>
	<polyline fill="#D1D3D4" points="287.236,139.988 300.986,147.738 298.486,152.738 	"/>
	<polyline fill="#D1D3D4" points="273.486,136.238 279.236,139.988 286.236,136.238 	"/>
	<polyline fill="#D1D3D4" points="260.736,142.488 261.985,146.484 266.236,144.738 	"/>
</g>
</svg>
