<?xml version="1.0" encoding="utf-8"?>
<!-- Generator: Adobe Illustrator 16.0.0, SVG Export Plug-In . SVG Version: 6.00 Build 0)  -->
<!DOCTYPE svg PUBLIC "-//W3C//DTD SVG 1.1//EN" "http://www.w3.org/Graphics/SVG/1.1/DTD/svg11.dtd">
<svg version="1.1" id="Layer_1" xmlns="http://www.w3.org/2000/svg" xmlns:xlink="http://www.w3.org/1999/xlink" x="0px" y="0px"
	 width="25.594px" height="25.575px" viewBox="0 0 25.594 25.575" style="enable-background:new 0 0 25.594 25.575;"
	 xml:space="preserve">
<style type="text/css">
<![CDATA[
	.st0{fill:#FFFEFE;}
	.st1{fill:#FFFFFF;}
	.st2{fill:#CA3144;}
]]>
</style>
<g>
	<path class="st2" d="M12.799,25.57c-3.543,0-7.086-0.007-10.628,0.005c-1.017,0.003-2.038-0.816-2.149-1.925
		c-0.014-0.131-0.021-0.263-0.021-0.394C0,16.254,0,9.251,0.001,2.249c0-1.099,0.683-1.959,1.749-2.206C1.866,0.016,1.984,0,2.104,0
		c7.126,0.001,14.253-0.004,21.38,0.006c0.799,0.002,1.402,0.408,1.812,1.092c0.217,0.363,0.297,0.764,0.297,1.184
		c0,7.011,0,14.022,0,21.033c0,0.994-0.539,1.783-1.465,2.14c-0.213,0.082-0.436,0.117-0.666,0.117
		C19.908,25.569,16.354,25.57,12.799,25.57z M18.305,14.804c0.001,0,0.002,0,0.002,0c0-0.591-0.002-1.181,0.003-1.771
		c0.001-0.101-0.03-0.122-0.124-0.121c-0.451,0.005-0.9,0.006-1.351-0.001c-0.11-0.001-0.137,0.026-0.136,0.137
		c0.004,0.883-0.002,1.767,0.004,2.65c0,0.104-0.035,0.141-0.126,0.171c-0.478,0.158-0.967,0.203-1.465,0.14
		c-0.819-0.105-1.476-0.489-1.921-1.19c-0.457-0.722-0.572-1.52-0.459-2.354c0.229-1.684,1.693-2.771,3.365-2.517
		c0.502,0.076,0.981,0.214,1.438,0.434c0.089,0.043,0.124,0.024,0.164-0.062c0.14-0.299,0.288-0.593,0.434-0.89
		c0.075-0.153,0.076-0.157-0.08-0.229c-1.121-0.517-2.293-0.665-3.501-0.426c-2.313,0.457-3.812,2.676-3.396,4.994
		c0.371,2.071,2.049,3.374,4.035,3.499c1.055,0.066,2.054-0.185,3.031-0.553c0.074-0.029,0.083-0.074,0.082-0.142
		C18.304,15.984,18.305,15.394,18.305,14.804z M3.326,13.003c0.006,0.247,0.02,0.519,0.069,0.787
		c0.248,1.36,0.962,2.387,2.199,3.023c0.845,0.435,1.75,0.542,2.685,0.423c0.68-0.088,1.311-0.317,1.886-0.695
		c0.071-0.047,0.081-0.081,0.038-0.154c-0.174-0.291-0.344-0.583-0.51-0.877c-0.035-0.063-0.062-0.081-0.13-0.041
		c-0.62,0.372-1.3,0.503-2.015,0.494c-0.633-0.008-1.175-0.234-1.632-0.664c-0.929-0.873-1.243-2.351-0.77-3.589
		c0.428-1.119,1.375-1.764,2.567-1.72c0.662,0.025,1.269,0.24,1.802,0.64c0.071,0.054,0.095,0.041,0.136-0.026
		c0.184-0.298,0.369-0.596,0.561-0.89c0.048-0.073,0.039-0.11-0.03-0.156c-0.083-0.053-0.157-0.119-0.24-0.174
		C8.973,8.743,7.91,8.55,6.773,8.736c-1.076,0.178-1.961,0.688-2.612,1.571C3.576,11.1,3.342,12.006,3.326,13.003z M20.16,12.975
		h0.002c0,1.337,0.002,2.674-0.002,4.012c0,0.1,0.021,0.133,0.128,0.132c0.425-0.007,0.851-0.005,1.274-0.001
		c0.092,0.001,0.13-0.015,0.129-0.12c-0.004-2.683-0.004-5.365-0.003-8.048c0-0.085-0.021-0.112-0.109-0.111
		c-0.429,0.004-0.858,0.007-1.288-0.001c-0.113-0.002-0.133,0.033-0.133,0.138C20.162,10.308,20.16,11.642,20.16,12.975z
		 M20.014,6.948c0.001,0.497,0.4,0.898,0.894,0.901c0.497,0.003,0.903-0.404,0.903-0.905c-0.001-0.503-0.402-0.901-0.907-0.898
		C20.408,6.05,20.012,6.451,20.014,6.948z"/>
	<path class="st1" d="M18.305,14.804c0,0.59-0.001,1.181,0.001,1.771c0,0.067-0.009,0.112-0.083,0.142
		c-0.978,0.368-1.977,0.619-3.031,0.553c-1.986-0.125-3.664-1.428-4.035-3.499c-0.416-2.318,1.082-4.537,3.396-4.994
		c1.207-0.239,2.379-0.091,3.501,0.426c0.155,0.071,0.154,0.075,0.079,0.229c-0.146,0.296-0.294,0.591-0.434,0.89
		c-0.04,0.086-0.075,0.104-0.164,0.062c-0.455-0.22-0.936-0.357-1.438-0.434c-1.672-0.254-3.137,0.833-3.365,2.517
		c-0.113,0.834,0.002,1.632,0.459,2.354c0.446,0.701,1.102,1.085,1.921,1.19c0.499,0.064,0.987,0.019,1.465-0.14
		c0.091-0.03,0.126-0.068,0.126-0.171c-0.006-0.884,0-1.768-0.004-2.65c-0.001-0.11,0.026-0.138,0.136-0.137
		c0.45,0.007,0.899,0.006,1.351,0.001c0.094-0.001,0.125,0.021,0.125,0.121c-0.006,0.591-0.004,1.181-0.004,1.771
		C18.307,14.804,18.306,14.804,18.305,14.804z"/>
	<path class="st1" d="M3.326,13.003c0.016-0.997,0.25-1.903,0.835-2.695c0.651-0.883,1.536-1.394,2.612-1.571
		C7.91,8.55,8.973,8.743,9.942,9.384c0.083,0.055,0.157,0.121,0.24,0.174c0.069,0.046,0.077,0.083,0.03,0.156
		c-0.191,0.294-0.377,0.592-0.561,0.89c-0.041,0.067-0.064,0.08-0.136,0.026c-0.533-0.399-1.14-0.614-1.802-0.64
		c-1.192-0.044-2.14,0.601-2.567,1.72c-0.474,1.238-0.159,2.716,0.77,3.589c0.457,0.43,0.999,0.656,1.632,0.664
		c0.715,0.009,1.395-0.122,2.015-0.494c0.068-0.04,0.095-0.022,0.13,0.041c0.166,0.294,0.336,0.586,0.51,0.876
		c0.043,0.074,0.033,0.108-0.038,0.155c-0.575,0.378-1.206,0.607-1.886,0.695c-0.934,0.119-1.84,0.012-2.685-0.423
		c-1.237-0.637-1.951-1.663-2.199-3.023C3.346,13.521,3.332,13.25,3.326,13.003z"/>
	<path class="st1" d="M20.16,12.975c0-1.333,0.002-2.667-0.002-4c0-0.104,0.02-0.14,0.134-0.138
		c0.429,0.008,0.858,0.005,1.287,0.001c0.089-0.001,0.109,0.027,0.109,0.111c-0.001,2.683-0.001,5.365,0.003,8.048
		c0.001,0.105-0.037,0.12-0.129,0.12c-0.424-0.004-0.85-0.006-1.274,0.001c-0.106,0.001-0.128-0.033-0.128-0.132
		c0.004-1.338,0.002-2.675,0.002-4.012C20.162,12.975,20.161,12.975,20.16,12.975z"/>
	<path class="st0" d="M20.014,6.948c-0.002-0.497,0.395-0.898,0.89-0.902c0.505-0.003,0.906,0.396,0.907,0.898
		c0,0.501-0.406,0.908-0.903,0.905C20.414,7.847,20.015,7.445,20.014,6.948z"/>
</g>
</svg>
