<?xml version="1.0" encoding="utf-8"?>
<!-- Generator: Adobe Illustrator 16.0.0, SVG Export Plug-In . SVG Version: 6.00 Build 0)  -->
<!DOCTYPE svg PUBLIC "-//W3C//DTD SVG 1.1//EN" "http://www.w3.org/Graphics/SVG/1.1/DTD/svg11.dtd">
<svg version="1.1" id="Layer_1" xmlns="http://www.w3.org/2000/svg" xmlns:xlink="http://www.w3.org/1999/xlink" x="0px" y="0px"
	 width="239.649px" height="84.055px" viewBox="0 0 239.649 84.055" style="enable-background:new 0 0 239.649 84.055;"
	 xml:space="preserve">
<style type="text/css">
<![CDATA[
	.st0{fill:#E0E0E0;}
	.st1{fill:#B5B5B6;}
	.st2{fill:#FFFFFF;}
	.st3{fill:#FFFFFF;stroke:#FFFFFF;stroke-miterlimit:10;}
	.st4{fill:#F9F8F7;stroke:#F9F8F7;stroke-miterlimit:10;}
]]>
</style>
<g>
	<path class="st4" d="M0.844,28.516v-9.848h6.225v0.793H1.756v3.556h4.83v0.793h-4.83v4.705H0.844z"/>
	<path class="st4" d="M11.04,28.708c-0.447-0.009-0.865-0.091-1.254-0.246s-0.729-0.388-1.02-0.698
		c-0.291-0.31-0.521-0.697-0.691-1.163c-0.17-0.465-0.255-1.007-0.255-1.627c0-0.52,0.067-1.005,0.201-1.457
		c0.134-0.451,0.335-0.846,0.604-1.183c0.268-0.337,0.604-0.604,1.006-0.8c0.402-0.196,0.872-0.294,1.409-0.294
		c0.545,0,1.02,0.098,1.422,0.294c0.403,0.196,0.738,0.46,1.006,0.793c0.269,0.333,0.467,0.728,0.597,1.183
		c0.129,0.456,0.194,0.944,0.194,1.464c0,0.565-0.076,1.076-0.228,1.532c-0.152,0.456-0.369,0.848-0.65,1.176
		c-0.282,0.329-0.622,0.582-1.02,0.759S11.522,28.708,11.04,28.708z M13.401,24.974c0-0.419-0.045-0.812-0.134-1.176
		s-0.228-0.682-0.416-0.951c-0.188-0.269-0.429-0.481-0.724-0.636c-0.295-0.155-0.658-0.232-1.087-0.232
		c-0.42,0-0.78,0.084-1.08,0.253c-0.3,0.169-0.543,0.392-0.731,0.67s-0.327,0.597-0.416,0.958s-0.134,0.731-0.134,1.115
		c0,0.438,0.052,0.841,0.154,1.21c0.103,0.369,0.253,0.686,0.45,0.951s0.443,0.47,0.738,0.615c0.295,0.146,0.635,0.219,1.02,0.219
		c0.42,0,0.78-0.084,1.08-0.253c0.299-0.168,0.543-0.394,0.731-0.677c0.188-0.283,0.327-0.602,0.416-0.958
		C13.356,25.726,13.401,25.356,13.401,24.974z"/>
	<path class="st4" d="M16.58,28.516h-0.805v-7.085h0.805v1.327h0.027c0.224-0.565,0.512-0.959,0.865-1.183s0.821-0.335,1.402-0.335
		v0.889c-0.456-0.009-0.832,0.064-1.127,0.219c-0.295,0.155-0.53,0.365-0.704,0.629c-0.174,0.265-0.295,0.577-0.362,0.937
		c-0.067,0.36-0.101,0.736-0.101,1.128V28.516z"/>
	<path class="st4" d="M20.9,28.516h-0.805v-7.085H20.9v1.067h0.027c0.206-0.411,0.5-0.723,0.885-0.937s0.805-0.322,1.261-0.322
		c0.322,0,0.595,0.037,0.818,0.109c0.224,0.073,0.414,0.171,0.57,0.294c0.156,0.123,0.286,0.267,0.389,0.431
		c0.103,0.164,0.19,0.342,0.262,0.534c0.232-0.465,0.543-0.809,0.933-1.033c0.389-0.224,0.833-0.335,1.334-0.335
		c0.474,0,0.852,0.08,1.134,0.24s0.499,0.369,0.651,0.629c0.152,0.26,0.252,0.559,0.302,0.896c0.049,0.337,0.074,0.684,0.074,1.04
		v4.473h-0.805V23.62c0-0.511-0.105-0.912-0.315-1.204c-0.21-0.292-0.602-0.438-1.174-0.438c-0.295,0-0.579,0.066-0.852,0.198
		c-0.273,0.132-0.512,0.335-0.718,0.609c-0.089,0.119-0.163,0.258-0.221,0.417c-0.059,0.16-0.105,0.326-0.141,0.5
		s-0.06,0.347-0.074,0.52c-0.013,0.173-0.02,0.333-0.02,0.479v3.816h-0.805V23.62c0-0.511-0.105-0.912-0.315-1.204
		c-0.21-0.292-0.602-0.438-1.174-0.438c-0.295,0-0.579,0.066-0.852,0.198c-0.273,0.132-0.512,0.335-0.718,0.609
		c-0.089,0.119-0.163,0.258-0.221,0.417c-0.059,0.16-0.105,0.326-0.141,0.5s-0.06,0.347-0.074,0.52
		c-0.013,0.173-0.02,0.333-0.02,0.479V28.516z"/>
	<path class="st4" d="M34.57,24.385c0.152-0.018,0.333-0.045,0.543-0.082c0.21-0.036,0.382-0.086,0.517-0.15
		c0.134-0.063,0.217-0.171,0.248-0.321s0.047-0.29,0.047-0.417c0-0.419-0.132-0.764-0.396-1.033
		c-0.264-0.269-0.709-0.403-1.335-0.403c-0.277,0-0.532,0.025-0.765,0.075c-0.233,0.05-0.436,0.137-0.61,0.26
		s-0.318,0.288-0.429,0.493c-0.112,0.205-0.186,0.463-0.222,0.773h-0.818c0.027-0.419,0.121-0.777,0.282-1.074
		c0.161-0.296,0.369-0.538,0.624-0.725s0.55-0.324,0.885-0.411c0.335-0.086,0.691-0.13,1.066-0.13c0.349,0,0.678,0.039,0.986,0.116
		c0.309,0.078,0.577,0.201,0.805,0.37s0.407,0.395,0.537,0.677c0.13,0.283,0.195,0.629,0.195,1.04v3.857
		c0,0.319,0.056,0.522,0.167,0.608c0.112,0.087,0.337,0.066,0.678-0.062v0.643c-0.063,0.019-0.154,0.045-0.275,0.082
		c-0.121,0.036-0.239,0.055-0.355,0.055c-0.125,0-0.246-0.014-0.362-0.041c-0.134-0.019-0.242-0.062-0.322-0.13
		s-0.146-0.15-0.194-0.246c-0.049-0.096-0.083-0.201-0.101-0.315c-0.018-0.114-0.027-0.234-0.027-0.362
		c-0.34,0.383-0.729,0.675-1.167,0.875c-0.438,0.2-0.912,0.301-1.422,0.301c-0.304,0-0.597-0.041-0.879-0.123
		s-0.53-0.209-0.744-0.383c-0.215-0.173-0.385-0.385-0.51-0.636c-0.125-0.25-0.188-0.549-0.188-0.896
		c0-1.204,0.809-1.915,2.428-2.134L34.57,24.385z M35.925,24.796c-0.34,0.146-0.684,0.242-1.033,0.287
		c-0.349,0.046-0.698,0.082-1.046,0.109c-0.617,0.046-1.098,0.187-1.442,0.424c-0.344,0.237-0.517,0.598-0.517,1.081
		c0,0.219,0.042,0.408,0.127,0.568s0.197,0.292,0.335,0.396c0.139,0.105,0.3,0.183,0.483,0.232c0.183,0.05,0.369,0.076,0.557,0.076
		c0.322,0,0.635-0.042,0.939-0.124c0.304-0.082,0.574-0.207,0.812-0.376c0.237-0.168,0.427-0.383,0.57-0.643
		c0.143-0.26,0.214-0.567,0.214-0.923V24.796z"/>
	<path class="st4" d="M41.278,28.543c-0.099,0.018-0.228,0.05-0.389,0.096c-0.161,0.045-0.34,0.068-0.537,0.068
		c-0.402,0-0.709-0.103-0.919-0.308c-0.21-0.205-0.315-0.572-0.315-1.101v-5.184h-0.979v-0.684h0.979v-1.97h0.805v1.97h1.301v0.684
		h-1.301v4.856c0,0.173,0.004,0.324,0.013,0.451c0.009,0.128,0.036,0.232,0.081,0.314c0.044,0.082,0.114,0.142,0.208,0.178
		c0.094,0.037,0.226,0.055,0.396,0.055c0.107,0,0.217-0.009,0.329-0.028c0.111-0.018,0.221-0.041,0.329-0.068V28.543z"/>
	<path class="st4" d="M42.646,19.885v-1.217h0.885v1.217H42.646z M42.687,28.516v-7.085h0.805v7.085H42.687z"/>
	<path class="st4" d="M48.308,28.708c-0.447-0.009-0.865-0.091-1.254-0.246s-0.729-0.388-1.02-0.698
		c-0.291-0.31-0.521-0.697-0.691-1.163c-0.17-0.465-0.255-1.007-0.255-1.627c0-0.52,0.067-1.005,0.201-1.457
		c0.134-0.451,0.335-0.846,0.604-1.183c0.268-0.337,0.604-0.604,1.006-0.8c0.402-0.196,0.872-0.294,1.409-0.294
		c0.545,0,1.02,0.098,1.422,0.294c0.403,0.196,0.738,0.46,1.006,0.793c0.269,0.333,0.467,0.728,0.597,1.183
		c0.129,0.456,0.194,0.944,0.194,1.464c0,0.565-0.076,1.076-0.228,1.532c-0.152,0.456-0.369,0.848-0.65,1.176
		c-0.282,0.329-0.622,0.582-1.02,0.759S48.791,28.708,48.308,28.708z M50.669,24.974c0-0.419-0.045-0.812-0.134-1.176
		s-0.228-0.682-0.416-0.951c-0.188-0.269-0.429-0.481-0.724-0.636c-0.295-0.155-0.658-0.232-1.087-0.232
		c-0.42,0-0.78,0.084-1.08,0.253c-0.3,0.169-0.543,0.392-0.731,0.67s-0.327,0.597-0.416,0.958s-0.134,0.731-0.134,1.115
		c0,0.438,0.052,0.841,0.154,1.21c0.103,0.369,0.253,0.686,0.45,0.951s0.443,0.47,0.738,0.615c0.295,0.146,0.635,0.219,1.02,0.219
		c0.42,0,0.78-0.084,1.08-0.253c0.299-0.168,0.543-0.394,0.731-0.677c0.188-0.283,0.327-0.602,0.416-0.958
		C50.624,25.726,50.669,25.356,50.669,24.974z"/>
	<path class="st4" d="M53.808,28.516h-0.805v-7.085h0.805v0.984c0.322-0.346,0.655-0.629,1-0.848
		c0.344-0.219,0.758-0.329,1.241-0.329c0.429,0,0.827,0.075,1.194,0.226c0.367,0.15,0.675,0.413,0.926,0.786
		c0.17,0.255,0.271,0.518,0.302,0.787s0.047,0.549,0.047,0.841v4.637h-0.805v-4.623c0-0.638-0.139-1.117-0.416-1.437
		c-0.277-0.319-0.738-0.479-1.382-0.479c-0.25,0-0.479,0.039-0.684,0.116c-0.206,0.078-0.391,0.18-0.557,0.308
		c-0.166,0.128-0.307,0.274-0.423,0.438s-0.206,0.337-0.268,0.52c-0.081,0.228-0.13,0.447-0.147,0.657
		c-0.018,0.21-0.027,0.438-0.027,0.684V28.516z"/>
	<path class="st4" d="M69.558,18.668h0.805v9.848h-0.805v-1.245h-0.027c-0.116,0.237-0.266,0.444-0.449,0.622
		c-0.184,0.178-0.385,0.326-0.604,0.445c-0.22,0.119-0.445,0.209-0.678,0.273s-0.461,0.096-0.684,0.096
		c-0.563,0-1.042-0.096-1.436-0.287s-0.718-0.454-0.973-0.787c-0.255-0.333-0.44-0.727-0.557-1.183
		c-0.116-0.456-0.174-0.944-0.174-1.463c0-0.493,0.062-0.966,0.188-1.423c0.125-0.456,0.315-0.854,0.57-1.197
		c0.255-0.342,0.577-0.615,0.966-0.82c0.389-0.206,0.847-0.308,1.375-0.308c0.492,0,0.964,0.112,1.416,0.335
		s0.807,0.554,1.066,0.992V18.668z M69.558,24.946c0-0.401-0.054-0.782-0.161-1.142c-0.107-0.36-0.262-0.675-0.463-0.944
		s-0.447-0.483-0.738-0.643c-0.291-0.159-0.62-0.239-0.986-0.239c-0.42,0-0.783,0.084-1.086,0.253
		c-0.304,0.169-0.555,0.399-0.751,0.691s-0.34,0.631-0.429,1.019s-0.125,0.805-0.107,1.251c0,0.447,0.061,0.841,0.181,1.183
		s0.289,0.631,0.503,0.869c0.215,0.237,0.465,0.417,0.751,0.54c0.286,0.123,0.599,0.185,0.939,0.185
		c0.375,0,0.711-0.078,1.006-0.233c0.295-0.155,0.541-0.367,0.738-0.636s0.347-0.588,0.449-0.958
		C69.507,25.774,69.558,25.375,69.558,24.946z"/>
	<path class="st4" d="M72.885,25.165c0,0.383,0.049,0.746,0.147,1.087c0.098,0.342,0.244,0.638,0.436,0.889s0.436,0.451,0.731,0.602
		c0.295,0.15,0.635,0.226,1.02,0.226c0.528,0,0.979-0.142,1.355-0.424c0.376-0.283,0.626-0.684,0.751-1.204h0.899
		c-0.099,0.337-0.228,0.65-0.389,0.937s-0.362,0.538-0.604,0.752c-0.242,0.214-0.528,0.381-0.859,0.499s-0.715,0.178-1.154,0.178
		c-0.554,0-1.033-0.096-1.435-0.287c-0.403-0.191-0.733-0.454-0.993-0.787c-0.259-0.333-0.452-0.725-0.577-1.176
		c-0.125-0.451-0.188-0.937-0.188-1.457c0-0.52,0.074-1.007,0.222-1.464c0.147-0.456,0.357-0.854,0.63-1.197
		c0.273-0.342,0.606-0.611,1-0.807c0.394-0.196,0.84-0.294,1.341-0.294c0.957,0,1.708,0.335,2.254,1.005
		c0.545,0.67,0.814,1.644,0.805,2.92H72.885z M77.419,24.481c0-0.346-0.047-0.672-0.141-0.978c-0.094-0.305-0.233-0.569-0.416-0.793
		s-0.414-0.401-0.691-0.534c-0.277-0.132-0.595-0.198-0.953-0.198c-0.357,0-0.673,0.068-0.946,0.205
		c-0.272,0.137-0.505,0.319-0.697,0.547c-0.192,0.228-0.347,0.492-0.463,0.793c-0.116,0.301-0.192,0.621-0.228,0.958H77.419z
		 M74.388,20.665l1.489-1.901h1.033l-1.838,1.901H74.388z"/>
	<path class="st4" d="M79.11,21.431h0.871l2.254,6.073l2.254-6.073h0.873l-2.697,7.085h-0.898L79.11,21.431z"/>
	<path class="st4" d="M87.052,25.165c0,0.383,0.049,0.746,0.147,1.087s0.243,0.638,0.437,0.889c0.191,0.251,0.436,0.451,0.73,0.602
		s0.635,0.226,1.02,0.226c0.527,0,0.98-0.142,1.355-0.424s0.625-0.684,0.752-1.204h0.898c-0.1,0.337-0.229,0.65-0.389,0.937
		c-0.162,0.287-0.363,0.538-0.605,0.752c-0.24,0.214-0.527,0.381-0.857,0.499c-0.332,0.118-0.717,0.178-1.154,0.178
		c-0.555,0-1.033-0.096-1.436-0.287s-0.732-0.454-0.992-0.787c-0.26-0.333-0.452-0.725-0.577-1.176
		c-0.126-0.451-0.188-0.937-0.188-1.457c0-0.52,0.074-1.007,0.223-1.464c0.146-0.456,0.357-0.854,0.63-1.197
		c0.272-0.342,0.606-0.611,0.999-0.807c0.395-0.196,0.842-0.294,1.342-0.294c0.957,0,1.709,0.335,2.254,1.005
		c0.545,0.67,0.814,1.644,0.805,2.92H87.052z M91.587,24.481c0-0.346-0.047-0.672-0.143-0.978c-0.094-0.305-0.232-0.569-0.414-0.793
		c-0.184-0.224-0.414-0.401-0.691-0.534c-0.277-0.132-0.596-0.198-0.953-0.198s-0.674,0.068-0.945,0.205
		c-0.273,0.137-0.506,0.319-0.697,0.547c-0.193,0.228-0.348,0.492-0.463,0.793c-0.117,0.301-0.193,0.621-0.229,0.958H91.587z"/>
	<path class="st4" d="M94.136,28.516v-9.848h0.805v9.848H94.136z"/>
	<path class="st4" d="M99.757,28.708c-0.447-0.009-0.865-0.091-1.254-0.246c-0.391-0.155-0.73-0.388-1.02-0.698
		c-0.291-0.31-0.521-0.697-0.691-1.163c-0.17-0.465-0.256-1.007-0.256-1.627c0-0.52,0.068-1.005,0.201-1.457
		c0.135-0.451,0.336-0.846,0.604-1.183c0.27-0.337,0.604-0.604,1.008-0.8c0.402-0.196,0.871-0.294,1.408-0.294
		c0.545,0,1.02,0.098,1.422,0.294c0.402,0.196,0.738,0.46,1.006,0.793c0.268,0.333,0.467,0.728,0.598,1.183
		c0.129,0.456,0.193,0.944,0.193,1.464c0,0.565-0.076,1.076-0.227,1.532c-0.152,0.456-0.369,0.848-0.652,1.176
		c-0.281,0.329-0.621,0.582-1.02,0.759C100.681,28.619,100.239,28.708,99.757,28.708z M102.118,24.974
		c0-0.419-0.045-0.812-0.135-1.176s-0.229-0.682-0.416-0.951s-0.43-0.481-0.725-0.636c-0.295-0.155-0.656-0.232-1.086-0.232
		c-0.422,0-0.781,0.084-1.08,0.253c-0.301,0.169-0.543,0.392-0.732,0.67c-0.188,0.278-0.326,0.597-0.414,0.958
		c-0.09,0.36-0.135,0.731-0.135,1.115c0,0.438,0.051,0.841,0.154,1.21c0.102,0.369,0.252,0.686,0.449,0.951s0.443,0.47,0.738,0.615
		c0.295,0.146,0.635,0.219,1.02,0.219c0.42,0,0.779-0.084,1.08-0.253c0.299-0.168,0.543-0.394,0.73-0.677s0.326-0.602,0.416-0.958
		C102.073,25.726,102.118,25.356,102.118,24.974z"/>
	<path class="st4" d="M105.351,31.307h-0.805v-9.875h0.805v1.245h0.027c0.115-0.228,0.266-0.433,0.449-0.616
		c0.184-0.182,0.385-0.333,0.604-0.451s0.445-0.21,0.678-0.274c0.232-0.063,0.461-0.096,0.684-0.096
		c0.564,0,1.043,0.096,1.436,0.288c0.395,0.191,0.719,0.454,0.973,0.786c0.256,0.333,0.441,0.728,0.557,1.183
		c0.117,0.456,0.174,0.944,0.174,1.464c0,0.492-0.062,0.966-0.188,1.422s-0.314,0.855-0.57,1.197
		c-0.254,0.342-0.576,0.616-0.965,0.821s-0.848,0.308-1.375,0.308c-0.492,0-0.965-0.112-1.416-0.335
		c-0.451-0.224-0.807-0.554-1.066-0.992V31.307z M105.351,25.001c0,0.401,0.053,0.782,0.16,1.142s0.262,0.675,0.463,0.944
		s0.447,0.483,0.738,0.643c0.291,0.16,0.619,0.24,0.986,0.24c0.412,0,0.771-0.084,1.08-0.253c0.309-0.168,0.561-0.398,0.758-0.69
		s0.34-0.631,0.43-1.019s0.125-0.805,0.107-1.251c0-0.447-0.061-0.841-0.182-1.183c-0.121-0.342-0.289-0.631-0.502-0.869
		c-0.215-0.237-0.467-0.417-0.752-0.541c-0.287-0.123-0.6-0.185-0.939-0.185c-0.375,0-0.711,0.078-1.006,0.232
		c-0.295,0.155-0.541,0.367-0.738,0.636s-0.346,0.588-0.449,0.958C105.401,24.173,105.351,24.572,105.351,25.001z"/>
	<path class="st4" d="M113.548,31.307h-0.807v-9.875h0.807v1.245h0.025c0.117-0.228,0.266-0.433,0.449-0.616
		c0.184-0.182,0.385-0.333,0.604-0.451c0.221-0.119,0.445-0.21,0.678-0.274c0.232-0.063,0.461-0.096,0.686-0.096
		c0.562,0,1.041,0.096,1.436,0.288c0.393,0.191,0.717,0.454,0.973,0.786c0.254,0.333,0.439,0.728,0.557,1.183
		c0.115,0.456,0.174,0.944,0.174,1.464c0,0.492-0.062,0.966-0.188,1.422s-0.316,0.855-0.57,1.197
		c-0.256,0.342-0.578,0.616-0.967,0.821s-0.848,0.308-1.375,0.308c-0.492,0-0.963-0.112-1.414-0.335
		c-0.453-0.224-0.809-0.554-1.066-0.992V31.307z M113.548,25.001c0,0.401,0.053,0.782,0.16,1.142s0.262,0.675,0.463,0.944
		s0.447,0.483,0.738,0.643c0.289,0.16,0.619,0.24,0.986,0.24c0.41,0,0.771-0.084,1.078-0.253c0.309-0.168,0.562-0.398,0.76-0.69
		c0.195-0.292,0.34-0.631,0.428-1.019c0.09-0.388,0.125-0.805,0.107-1.251c0-0.447-0.061-0.841-0.18-1.183
		c-0.121-0.342-0.289-0.631-0.504-0.869s-0.465-0.417-0.752-0.541c-0.285-0.123-0.598-0.185-0.938-0.185
		c-0.377,0-0.711,0.078-1.008,0.232c-0.295,0.155-0.541,0.367-0.736,0.636c-0.197,0.269-0.348,0.588-0.449,0.958
		C113.599,24.173,113.548,24.572,113.548,25.001z"/>
	<path class="st4" d="M121.341,25.165c0,0.383,0.051,0.746,0.148,1.087s0.244,0.638,0.436,0.889
		c0.193,0.251,0.436,0.451,0.732,0.602c0.295,0.15,0.635,0.226,1.02,0.226c0.527,0,0.979-0.142,1.354-0.424
		c0.377-0.283,0.627-0.684,0.752-1.204h0.898c-0.098,0.337-0.229,0.65-0.389,0.937s-0.361,0.538-0.604,0.752
		s-0.527,0.381-0.859,0.499c-0.33,0.118-0.715,0.178-1.152,0.178c-0.555,0-1.033-0.096-1.436-0.287s-0.734-0.454-0.994-0.787
		c-0.26-0.333-0.451-0.725-0.576-1.176c-0.125-0.451-0.188-0.937-0.188-1.457c0-0.52,0.074-1.007,0.221-1.464
		c0.148-0.456,0.357-0.854,0.631-1.197c0.273-0.342,0.605-0.611,1-0.807c0.393-0.196,0.84-0.294,1.342-0.294
		c0.957,0,1.707,0.335,2.254,1.005c0.545,0.67,0.812,1.644,0.805,2.92H121.341z M125.876,24.481c0-0.346-0.047-0.672-0.141-0.978
		c-0.094-0.305-0.232-0.569-0.416-0.793s-0.414-0.401-0.691-0.534c-0.277-0.132-0.594-0.198-0.951-0.198
		c-0.359,0-0.674,0.068-0.947,0.205c-0.271,0.137-0.504,0.319-0.697,0.547c-0.191,0.228-0.346,0.492-0.463,0.793
		c-0.115,0.301-0.191,0.621-0.229,0.958H125.876z"/>
	<path class="st4" d="M133.013,21.431h0.805v7.085h-0.805v-0.985c-0.107,0.128-0.229,0.26-0.361,0.396
		c-0.135,0.137-0.289,0.263-0.463,0.376c-0.174,0.114-0.379,0.21-0.611,0.287c-0.232,0.078-0.5,0.116-0.805,0.116
		c-0.465,0-0.854-0.066-1.166-0.198c-0.314-0.132-0.566-0.317-0.76-0.554c-0.191-0.237-0.33-0.513-0.414-0.827
		c-0.086-0.315-0.129-0.659-0.129-1.033v-4.664h0.805v4.65c0,0.611,0.139,1.078,0.416,1.402s0.734,0.486,1.369,0.486
		c0.33,0,0.629-0.066,0.893-0.199c0.264-0.132,0.484-0.316,0.664-0.554c0.178-0.237,0.316-0.52,0.416-0.848
		c0.098-0.328,0.146-0.688,0.146-1.081V21.431z"/>
	<path class="st4" d="M136.608,28.516h-0.805v-7.085h0.805v1.327h0.027c0.223-0.565,0.512-0.959,0.865-1.183s0.82-0.335,1.402-0.335
		v0.889c-0.457-0.009-0.832,0.064-1.127,0.219c-0.295,0.155-0.531,0.365-0.705,0.629c-0.174,0.265-0.295,0.577-0.361,0.937
		c-0.068,0.36-0.102,0.736-0.102,1.128V28.516z"/>
	<path class="st4" d="M151.661,27.203h0.027l2.105-8.535h0.939l-2.535,9.848h-1.006l-2.242-8.699h-0.025l-2.24,8.699h-1.006
		l-2.496-9.848h0.912l2.08,8.535h0.025l2.24-8.535h1.021L151.661,27.203z"/>
	<path class="st4" d="M156.382,25.165c0,0.383,0.051,0.746,0.148,1.087s0.244,0.638,0.436,0.889
		c0.193,0.251,0.436,0.451,0.732,0.602c0.295,0.15,0.635,0.226,1.02,0.226c0.527,0,0.979-0.142,1.354-0.424
		c0.377-0.283,0.627-0.684,0.752-1.204h0.898c-0.098,0.337-0.229,0.65-0.389,0.937s-0.361,0.538-0.604,0.752
		s-0.527,0.381-0.859,0.499c-0.33,0.118-0.715,0.178-1.152,0.178c-0.555,0-1.033-0.096-1.436-0.287s-0.734-0.454-0.994-0.787
		c-0.26-0.333-0.451-0.725-0.576-1.176c-0.125-0.451-0.188-0.937-0.188-1.457c0-0.52,0.074-1.007,0.221-1.464
		c0.148-0.456,0.357-0.854,0.631-1.197c0.273-0.342,0.605-0.611,1-0.807c0.393-0.196,0.84-0.294,1.342-0.294
		c0.957,0,1.707,0.335,2.254,1.005c0.545,0.67,0.812,1.644,0.805,2.92H156.382z M160.917,24.481c0-0.346-0.047-0.672-0.141-0.978
		c-0.094-0.305-0.232-0.569-0.416-0.793s-0.414-0.401-0.691-0.534c-0.277-0.132-0.594-0.198-0.951-0.198
		c-0.359,0-0.674,0.068-0.947,0.205c-0.271,0.137-0.504,0.319-0.697,0.547c-0.191,0.228-0.346,0.492-0.463,0.793
		c-0.115,0.301-0.191,0.621-0.229,0.958H160.917z"/>
	<path class="st4" d="M164.245,28.516h-0.807v-9.848h0.807v3.898c0.258-0.438,0.613-0.768,1.066-0.992
		c0.451-0.224,0.922-0.335,1.414-0.335c0.527,0,0.986,0.103,1.375,0.308c0.389,0.205,0.711,0.479,0.967,0.82
		c0.254,0.342,0.445,0.741,0.57,1.197c0.125,0.457,0.188,0.93,0.188,1.423c0,0.52-0.059,1.008-0.174,1.463
		c-0.117,0.456-0.303,0.851-0.557,1.183c-0.256,0.333-0.58,0.595-0.973,0.787c-0.395,0.191-0.873,0.287-1.436,0.287
		c-0.225,0-0.453-0.032-0.686-0.096s-0.457-0.155-0.678-0.273c-0.219-0.119-0.42-0.267-0.604-0.445
		c-0.184-0.178-0.332-0.385-0.449-0.622h-0.025V28.516z M164.245,24.946c0,0.429,0.051,0.828,0.154,1.197
		c0.102,0.369,0.252,0.688,0.449,0.958c0.195,0.269,0.441,0.481,0.736,0.636c0.297,0.155,0.631,0.233,1.008,0.233
		c0.34,0,0.652-0.062,0.938-0.185c0.287-0.123,0.537-0.303,0.752-0.54s0.383-0.527,0.504-0.869c0.119-0.342,0.18-0.736,0.18-1.183
		c0.018-0.447-0.018-0.864-0.107-1.251c-0.088-0.388-0.232-0.727-0.428-1.019c-0.197-0.292-0.451-0.522-0.76-0.691
		c-0.307-0.168-0.668-0.253-1.078-0.253c-0.367,0-0.697,0.08-0.986,0.239c-0.291,0.16-0.537,0.374-0.738,0.643
		s-0.355,0.583-0.463,0.944S164.245,24.545,164.245,24.946z"/>
	<path class="st2" d="M1.555,34.011v4.17c0,1.579,0.7,2.248,1.641,2.248c1.045,0,1.714-0.69,1.714-2.248v-4.17H5.83v4.108
		c0,2.164-1.139,3.052-2.665,3.052c-1.442,0-2.53-0.826-2.53-3.01v-4.149H1.555z"/>
	<path class="st2" d="M7.406,34.094c0.439-0.073,1.014-0.136,1.746-0.136c0.899,0,1.557,0.209,1.976,0.585
		c0.387,0.334,0.616,0.847,0.616,1.474c0,0.638-0.188,1.139-0.543,1.505c-0.48,0.512-1.265,0.773-2.153,0.773
		c-0.272,0-0.523-0.011-0.732-0.063v2.822H7.406V34.094z M8.315,37.491c0.199,0.053,0.45,0.073,0.752,0.073
		c1.098,0,1.767-0.533,1.767-1.505c0-0.93-0.658-1.38-1.662-1.38c-0.397,0-0.701,0.031-0.857,0.073V37.491z"/>
	<path class="st2" d="M16.09,34.784h-2.143v-0.773h5.215v0.773H17.01v6.271h-0.92V34.784z"/>
	<path class="st2" d="M25.684,37.46c0,2.425-1.474,3.71-3.271,3.71c-1.861,0-3.167-1.442-3.167-3.574c0-2.237,1.39-3.7,3.271-3.7
		C24.44,33.896,25.684,35.37,25.684,37.46z M20.217,37.575c0,1.505,0.815,2.854,2.248,2.854c1.442,0,2.257-1.328,2.257-2.927
		c0-1.401-0.731-2.864-2.247-2.864C20.97,34.638,20.217,36.028,20.217,37.575z"/>
	<path class="st2" d="M29.56,38.693c0.021,1.244,0.815,1.756,1.735,1.756c0.659,0,1.056-0.115,1.4-0.261l0.157,0.659
		c-0.324,0.146-0.878,0.313-1.683,0.313c-1.557,0-2.488-1.024-2.488-2.55s0.899-2.728,2.373-2.728c1.651,0,2.09,1.453,2.09,2.383
		c0,0.188-0.021,0.334-0.031,0.428H29.56z M32.256,38.035c0.011-0.585-0.24-1.495-1.275-1.495c-0.93,0-1.338,0.857-1.411,1.495
		H32.256z M32.476,33.812L31.2,35.307h-0.658l0.919-1.495H32.476z"/>
	<path class="st2" d="M37.889,40.868c-0.241,0.125-0.773,0.292-1.453,0.292c-1.526,0-2.519-1.035-2.519-2.582
		c0-1.558,1.066-2.687,2.718-2.687c0.543,0,1.024,0.136,1.275,0.261l-0.209,0.711c-0.22-0.125-0.564-0.24-1.066-0.24
		c-1.16,0-1.787,0.857-1.787,1.913c0,1.171,0.752,1.892,1.756,1.892c0.522,0,0.868-0.136,1.129-0.251L37.889,40.868z"/>
	<path class="st2" d="M43.479,38.484c0,1.871-1.296,2.686-2.519,2.686c-1.37,0-2.425-1.003-2.425-2.603
		c0-1.693,1.108-2.686,2.509-2.686C42.497,35.882,43.479,36.938,43.479,38.484z M39.466,38.537c0,1.108,0.637,1.944,1.536,1.944
		c0.878,0,1.537-0.826,1.537-1.965c0-0.857-0.429-1.944-1.516-1.944S39.466,37.575,39.466,38.537z"/>
	<path class="st2" d="M44.638,33.635h0.919v7.421h-0.919V33.635z"/>
	<path class="st2" d="M47.617,38.693c0.021,1.244,0.815,1.756,1.735,1.756c0.659,0,1.056-0.115,1.4-0.261l0.157,0.659
		c-0.324,0.146-0.878,0.313-1.683,0.313c-1.557,0-2.488-1.024-2.488-2.55s0.899-2.728,2.373-2.728c1.651,0,2.09,1.453,2.09,2.383
		c0,0.188-0.021,0.334-0.031,0.428H47.617z M50.313,38.035c0.011-0.585-0.24-1.495-1.275-1.495c-0.93,0-1.338,0.857-1.411,1.495
		H50.313z"/>
	<path class="st2" d="M58.923,33.635v6.114c0,0.45,0.011,0.962,0.042,1.307H58.14l-0.042-0.878h-0.021
		c-0.282,0.564-0.899,0.993-1.725,0.993c-1.223,0-2.164-1.035-2.164-2.571c-0.01-1.683,1.035-2.718,2.269-2.718
		c0.773,0,1.296,0.366,1.526,0.773h0.021v-3.021H58.923z M58.004,38.056c0-0.115-0.011-0.271-0.042-0.387
		c-0.136-0.585-0.638-1.066-1.328-1.066c-0.951,0-1.515,0.836-1.515,1.955c0,1.024,0.501,1.871,1.495,1.871
		c0.617,0,1.181-0.408,1.348-1.098c0.031-0.125,0.042-0.251,0.042-0.397V38.056z"/>
	<path class="st2" d="M64.681,39.676c0,0.523,0.011,0.983,0.042,1.38h-0.815l-0.052-0.826h-0.021c-0.24,0.408-0.773,0.94-1.672,0.94
		c-0.794,0-1.746-0.439-1.746-2.216v-2.958h0.92v2.801c0,0.962,0.293,1.61,1.129,1.61c0.617,0,1.045-0.429,1.212-0.836
		c0.052-0.136,0.083-0.303,0.083-0.47v-3.104h0.92V39.676z"/>
	<path class="st2" d="M68.421,37.366c0-0.523-0.011-0.951-0.042-1.37h0.815l0.052,0.836h0.021c0.25-0.481,0.836-0.951,1.672-0.951
		c0.7,0,1.787,0.418,1.787,2.153v3.021h-0.92V38.14c0-0.815-0.303-1.495-1.17-1.495c-0.606,0-1.077,0.428-1.233,0.94
		c-0.042,0.115-0.063,0.272-0.063,0.429v3.042h-0.919V37.366z"/>
	<path class="st2" d="M78.454,39.676c0,0.523,0.01,0.983,0.041,1.38H77.68l-0.052-0.826h-0.021c-0.24,0.408-0.773,0.94-1.672,0.94
		c-0.794,0-1.746-0.439-1.746-2.216v-2.958h0.92v2.801c0,0.962,0.293,1.61,1.129,1.61c0.617,0,1.045-0.429,1.212-0.836
		c0.052-0.136,0.083-0.303,0.083-0.47v-3.104h0.92V39.676z"/>
	<path class="st2" d="M79.979,37.366c0-0.523-0.011-0.951-0.042-1.37h0.805l0.042,0.815h0.031c0.282-0.481,0.753-0.93,1.589-0.93
		c0.689,0,1.213,0.418,1.432,1.014h0.021c0.156-0.282,0.355-0.501,0.564-0.658c0.303-0.23,0.637-0.355,1.118-0.355
		c0.669,0,1.661,0.439,1.661,2.195v2.979h-0.898v-2.864c0-0.972-0.355-1.558-1.098-1.558c-0.522,0-0.93,0.387-1.086,0.836
		c-0.043,0.125-0.074,0.292-0.074,0.46v3.125h-0.898v-3.031c0-0.805-0.355-1.39-1.056-1.39c-0.575,0-0.993,0.46-1.14,0.92
		c-0.053,0.136-0.072,0.292-0.072,0.449v3.052h-0.899V37.366z"/>
	<path class="st2" d="M89.206,38.693c0.02,1.244,0.814,1.756,1.734,1.756c0.658,0,1.057-0.115,1.4-0.261l0.156,0.659
		c-0.324,0.146-0.877,0.313-1.682,0.313c-1.559,0-2.488-1.024-2.488-2.55s0.898-2.728,2.373-2.728c1.65,0,2.09,1.453,2.09,2.383
		c0,0.188-0.02,0.334-0.031,0.428H89.206z M91.901,38.035c0.012-0.585-0.24-1.495-1.275-1.495c-0.93,0-1.338,0.857-1.41,1.495
		H91.901z M92.122,33.812l-1.275,1.495h-0.658l0.92-1.495H92.122z"/>
	<path class="st2" d="M93.929,37.575c0-0.596-0.01-1.108-0.041-1.579h0.805l0.031,0.993h0.041c0.23-0.679,0.783-1.108,1.4-1.108
		c0.105,0,0.178,0.01,0.262,0.031v0.868c-0.094-0.021-0.188-0.031-0.314-0.031c-0.646,0-1.107,0.491-1.232,1.181
		c-0.021,0.125-0.041,0.271-0.041,0.428v2.697h-0.91V37.575z"/>
	<path class="st2" d="M98.411,34.575c0.012,0.313-0.219,0.564-0.584,0.564c-0.324,0-0.555-0.251-0.555-0.564
		c0-0.324,0.24-0.575,0.574-0.575C98.192,34,98.411,34.251,98.411,34.575z M97.388,41.056v-5.059h0.92v5.059H97.388z"/>
	<path class="st2" d="M103.282,40.272h-0.021c-0.271,0.501-0.836,0.898-1.65,0.898c-1.182,0-2.143-1.024-2.143-2.561
		c0-1.892,1.223-2.728,2.289-2.728c0.783,0,1.307,0.387,1.557,0.878h0.021l0.031-0.763h0.867c-0.021,0.429-0.031,0.868-0.031,1.39
		v5.738h-0.92V40.272z M103.282,38.045c0-0.125-0.01-0.272-0.041-0.387c-0.137-0.564-0.629-1.045-1.318-1.045
		c-0.951,0-1.525,0.805-1.525,1.944c0,1.003,0.48,1.881,1.494,1.881c0.596,0,1.107-0.366,1.316-1.003
		c0.043-0.125,0.074-0.303,0.074-0.439V38.045z"/>
	<path class="st2" d="M109.948,39.676c0,0.523,0.012,0.983,0.043,1.38h-0.816l-0.051-0.826h-0.021
		c-0.24,0.408-0.773,0.94-1.672,0.94c-0.795,0-1.746-0.439-1.746-2.216v-2.958h0.92v2.801c0,0.962,0.293,1.61,1.129,1.61
		c0.617,0,1.045-0.429,1.213-0.836c0.051-0.136,0.082-0.303,0.082-0.47v-3.104h0.92V39.676z"/>
	<path class="st2" d="M111.985,38.693c0.021,1.244,0.816,1.756,1.736,1.756c0.658,0,1.055-0.115,1.4-0.261l0.156,0.659
		c-0.324,0.146-0.879,0.313-1.684,0.313c-1.557,0-2.486-1.024-2.486-2.55s0.898-2.728,2.371-2.728c1.652,0,2.092,1.453,2.092,2.383
		c0,0.188-0.021,0.334-0.031,0.428H111.985z M114.683,38.035c0.01-0.585-0.24-1.495-1.275-1.495c-0.93,0-1.338,0.857-1.412,1.495
		H114.683z"/>
	<path class="st2" d="M118.882,41.056c0.021-0.345,0.041-0.857,0.041-1.307v-6.114h0.91v3.177h0.021
		c0.324-0.564,0.908-0.93,1.725-0.93c1.254,0,2.143,1.045,2.131,2.582c0,1.809-1.139,2.707-2.268,2.707
		c-0.73,0-1.316-0.282-1.693-0.951h-0.031l-0.041,0.836H118.882z M119.833,39.028c0,0.115,0.021,0.23,0.041,0.334
		c0.178,0.638,0.711,1.077,1.381,1.077c0.961,0,1.535-0.784,1.535-1.944c0-1.014-0.521-1.881-1.504-1.881
		c-0.627,0-1.213,0.429-1.4,1.129c-0.021,0.104-0.053,0.23-0.053,0.376V39.028z"/>
	<path class="st2" d="M125.13,35.997l1.107,2.99c0.115,0.334,0.242,0.731,0.324,1.035h0.021c0.094-0.303,0.199-0.69,0.324-1.056
		l1.004-2.969h0.971l-1.379,3.606c-0.658,1.735-1.107,2.624-1.734,3.167c-0.451,0.397-0.9,0.554-1.129,0.596l-0.23-0.773
		c0.23-0.073,0.533-0.22,0.805-0.45c0.25-0.198,0.564-0.554,0.773-1.024c0.041-0.094,0.072-0.167,0.072-0.219
		s-0.02-0.125-0.062-0.24l-1.871-4.662H125.13z"/>
	<path class="st2" d="M131.839,39.948c0.408,0.251,1.004,0.46,1.631,0.46c0.93,0,1.475-0.491,1.475-1.202
		c0-0.659-0.377-1.035-1.328-1.4c-1.15-0.408-1.861-1.003-1.861-1.997c0-1.098,0.91-1.913,2.279-1.913
		c0.721,0,1.244,0.167,1.557,0.345l-0.25,0.742c-0.23-0.125-0.701-0.334-1.338-0.334c-0.961,0-1.328,0.575-1.328,1.056
		c0,0.659,0.43,0.982,1.4,1.359c1.193,0.46,1.799,1.035,1.799,2.069c0,1.087-0.805,2.028-2.467,2.028
		c-0.68,0-1.422-0.199-1.797-0.449L131.839,39.948z"/>
	<path class="st2" d="M138.108,34.575c0.012,0.313-0.219,0.564-0.584,0.564c-0.324,0-0.555-0.251-0.555-0.564
		c0-0.324,0.24-0.575,0.574-0.575C137.89,34,138.108,34.251,138.108,34.575z M137.085,41.056v-5.059h0.92v5.059H137.085z"/>
	<path class="st2" d="M139.53,37.366c0-0.523-0.01-0.951-0.041-1.37h0.805l0.041,0.815h0.031c0.283-0.481,0.752-0.93,1.588-0.93
		c0.691,0,1.213,0.418,1.434,1.014h0.02c0.158-0.282,0.355-0.501,0.564-0.658c0.305-0.23,0.639-0.355,1.119-0.355
		c0.668,0,1.662,0.439,1.662,2.195v2.979h-0.898v-2.864c0-0.972-0.355-1.558-1.098-1.558c-0.523,0-0.932,0.387-1.088,0.836
		c-0.041,0.125-0.072,0.292-0.072,0.46v3.125h-0.9v-3.031c0-0.805-0.355-1.39-1.055-1.39c-0.574,0-0.992,0.46-1.139,0.92
		c-0.053,0.136-0.074,0.292-0.074,0.449v3.052h-0.898V37.366z"/>
	<path class="st2" d="M148.245,37.648c0-0.648-0.021-1.171-0.041-1.652h0.824l0.043,0.868h0.02c0.377-0.617,0.973-0.982,1.799-0.982
		c1.223,0,2.143,1.035,2.143,2.571c0,1.819-1.107,2.717-2.299,2.717c-0.67,0-1.256-0.292-1.559-0.794h-0.02v2.749h-0.91V37.648z
		 M149.155,38.997c0,0.136,0.02,0.261,0.041,0.376c0.168,0.637,0.721,1.076,1.379,1.076c0.973,0,1.537-0.794,1.537-1.955
		c0-1.014-0.533-1.881-1.506-1.881c-0.627,0-1.211,0.45-1.389,1.14c-0.031,0.115-0.062,0.25-0.062,0.376V38.997z"/>
	<path class="st2" d="M154.19,33.635h0.92v7.421h-0.92V33.635z"/>
	<path class="st2" d="M161.235,38.484c0,1.871-1.297,2.686-2.52,2.686c-1.369,0-2.424-1.003-2.424-2.603
		c0-1.693,1.107-2.686,2.508-2.686C160.253,35.882,161.235,36.938,161.235,38.484z M157.222,38.537c0,1.108,0.637,1.944,1.537,1.944
		c0.877,0,1.535-0.826,1.535-1.965c0-0.857-0.428-1.944-1.516-1.944C157.692,36.572,157.222,37.575,157.222,38.537z"/>
	<path class="st2" d="M162.394,37.366c0-0.523-0.01-0.951-0.041-1.37h0.814l0.053,0.836h0.02c0.252-0.481,0.838-0.951,1.674-0.951
		c0.699,0,1.787,0.418,1.787,2.153v3.021h-0.92V38.14c0-0.815-0.303-1.495-1.172-1.495c-0.605,0-1.076,0.428-1.232,0.94
		c-0.041,0.115-0.062,0.272-0.062,0.429v3.042h-0.92V37.366z"/>
	<path class="st1" d="M167.597,42.341c0.23-0.617,0.514-1.735,0.627-2.498l1.025-0.104c-0.24,0.888-0.701,2.048-0.992,2.54
		L167.597,42.341z"/>
	<path class="st1" d="M178.54,37.962c-0.053-0.982-0.115-2.164-0.105-3.042h-0.031c-0.24,0.826-0.533,1.704-0.889,2.676
		l-1.244,3.417h-0.689l-1.139-3.355c-0.334-0.993-0.617-1.902-0.816-2.738h-0.02c-0.021,0.878-0.074,2.059-0.137,3.115l-0.188,3.021
		h-0.867l0.49-7.045h1.16l1.203,3.408c0.291,0.867,0.533,1.641,0.711,2.373h0.031c0.178-0.711,0.428-1.484,0.742-2.373l1.254-3.408
		h1.16l0.439,7.045h-0.889L178.54,37.962z"/>
	<path class="st1" d="M185.612,38.484c0,1.871-1.295,2.686-2.518,2.686c-1.369,0-2.426-1.003-2.426-2.603
		c0-1.693,1.107-2.686,2.508-2.686C184.63,35.882,185.612,36.938,185.612,38.484z M181.599,38.537c0,1.108,0.639,1.944,1.537,1.944
		c0.879,0,1.537-0.826,1.537-1.965c0-0.857-0.43-1.944-1.516-1.944C182.069,36.572,181.599,37.575,181.599,38.537z"/>
	<path class="st1" d="M186.772,37.366c0-0.523-0.01-0.951-0.041-1.37h0.814l0.053,0.836h0.02c0.252-0.481,0.838-0.951,1.674-0.951
		c0.699,0,1.787,0.418,1.787,2.153v3.021h-0.92V38.14c0-0.815-0.303-1.495-1.172-1.495c-0.605,0-1.076,0.428-1.232,0.94
		c-0.041,0.115-0.062,0.272-0.062,0.429v3.042h-0.92V37.366z"/>
	<path class="st1" d="M193.638,34.544v1.453h1.316v0.701h-1.316v2.728c0,0.627,0.178,0.982,0.689,0.982
		c0.24,0,0.418-0.031,0.533-0.063l0.043,0.69c-0.178,0.073-0.461,0.125-0.816,0.125c-0.428,0-0.773-0.136-0.992-0.387
		c-0.262-0.272-0.355-0.721-0.355-1.317v-2.759h-0.783v-0.701h0.783v-1.212L193.638,34.544z"/>
	<path class="st1" d="M195.987,37.648c0-0.648-0.02-1.171-0.041-1.652h0.826l0.041,0.868h0.021c0.377-0.617,0.973-0.982,1.797-0.982
		c1.223,0,2.143,1.035,2.143,2.571c0,1.819-1.107,2.717-2.299,2.717c-0.668,0-1.254-0.292-1.557-0.794h-0.021v2.749h-0.91V37.648z
		 M196.897,38.997c0,0.136,0.021,0.261,0.041,0.376c0.168,0.637,0.723,1.076,1.381,1.076c0.973,0,1.535-0.794,1.535-1.955
		c0-1.014-0.531-1.881-1.504-1.881c-0.627,0-1.213,0.45-1.391,1.14c-0.031,0.115-0.062,0.25-0.062,0.376V38.997z"/>
	<path class="st1" d="M202.446,38.693c0.021,1.244,0.816,1.756,1.736,1.756c0.658,0,1.055-0.115,1.4-0.261l0.156,0.659
		c-0.324,0.146-0.879,0.313-1.684,0.313c-1.557,0-2.486-1.024-2.486-2.55s0.898-2.728,2.371-2.728c1.652,0,2.092,1.453,2.092,2.383
		c0,0.188-0.021,0.334-0.031,0.428H202.446z M205.144,38.035c0.01-0.585-0.24-1.495-1.275-1.495c-0.93,0-1.338,0.857-1.412,1.495
		H205.144z"/>
	<path class="st1" d="M207.169,33.635h0.92v7.421h-0.92V33.635z"/>
	<path class="st1" d="M209.636,33.635h0.92v7.421h-0.92V33.635z"/>
	<path class="st1" d="M213.126,34.575c0.01,0.313-0.221,0.564-0.586,0.564c-0.324,0-0.553-0.251-0.553-0.564
		c0-0.324,0.24-0.575,0.574-0.575C212.905,34,213.126,34.251,213.126,34.575z M212.101,41.056v-5.059h0.92v5.059H212.101z"/>
	<path class="st1" d="M215.06,38.693c0.02,1.244,0.814,1.756,1.734,1.756c0.658,0,1.057-0.115,1.4-0.261l0.156,0.659
		c-0.324,0.146-0.877,0.313-1.682,0.313c-1.559,0-2.488-1.024-2.488-2.55s0.898-2.728,2.373-2.728c1.65,0,2.09,1.453,2.09,2.383
		c0,0.188-0.02,0.334-0.031,0.428H215.06z M217.755,38.035c0.012-0.585-0.24-1.495-1.275-1.495c-0.93,0-1.338,0.857-1.41,1.495
		H217.755z"/>
	<path class="st1" d="M219.782,37.575c0-0.596-0.01-1.108-0.041-1.579h0.805l0.031,0.993h0.041c0.23-0.679,0.783-1.108,1.4-1.108
		c0.105,0,0.178,0.01,0.262,0.031v0.868c-0.094-0.021-0.188-0.031-0.314-0.031c-0.646,0-1.107,0.491-1.232,1.181
		c-0.021,0.125-0.041,0.271-0.041,0.428v2.697h-0.91V37.575z"/>
</g>
<g>
	<path class="st0" d="M0.715,46.746h4.126v0.83H1.704v2.546h2.899v0.818H1.704v3.467H0.715V46.746z"/>
	<path class="st0" d="M10.841,51.612c0,2.035-1.409,2.921-2.739,2.921c-1.489,0-2.638-1.091-2.638-2.831
		c0-1.841,1.205-2.921,2.729-2.921C9.773,48.781,10.841,49.929,10.841,51.612z M6.476,51.668c0,1.205,0.693,2.115,1.672,2.115
		c0.954,0,1.671-0.898,1.671-2.137c0-0.932-0.467-2.115-1.648-2.115C6.988,49.531,6.476,50.623,6.476,51.668z"/>
	<path class="st0" d="M12.101,50.623c0-0.648-0.012-1.205-0.046-1.716h0.876l0.033,1.08h0.046c0.25-0.739,0.853-1.205,1.523-1.205
		c0.113,0,0.193,0.011,0.284,0.034v0.943c-0.103-0.023-0.205-0.034-0.341-0.034c-0.705,0-1.205,0.534-1.342,1.285
		c-0.022,0.136-0.046,0.295-0.046,0.466v2.933h-0.988V50.623z"/>
	<path class="st0" d="M15.862,50.396c0-0.568-0.012-1.035-0.046-1.489h0.876l0.045,0.887h0.034c0.307-0.523,0.818-1.012,1.728-1.012
		c0.751,0,1.319,0.455,1.558,1.103h0.022c0.171-0.307,0.387-0.545,0.614-0.716c0.33-0.25,0.693-0.386,1.217-0.386
		c0.728,0,1.807,0.478,1.807,2.387v3.24h-0.978v-3.115c0-1.057-0.386-1.694-1.193-1.694c-0.568,0-1.012,0.42-1.183,0.91
		c-0.045,0.136-0.079,0.318-0.079,0.5v3.399h-0.978v-3.297c0-0.875-0.387-1.512-1.148-1.512c-0.625,0-1.08,0.5-1.239,1
		c-0.057,0.147-0.079,0.318-0.079,0.489v3.319h-0.978V50.396z"/>
	<path class="st0" d="M28.384,54.408l-0.079-0.693h-0.034c-0.307,0.432-0.898,0.818-1.683,0.818c-1.114,0-1.683-0.784-1.683-1.58
		c0-1.33,1.183-2.058,3.309-2.046v-0.113c0-0.455-0.125-1.273-1.251-1.273c-0.511,0-1.046,0.159-1.432,0.409l-0.228-0.659
		c0.454-0.295,1.114-0.489,1.808-0.489c1.683,0,2.092,1.148,2.092,2.25v2.058c0,0.478,0.022,0.944,0.091,1.319H28.384z
		 M28.237,51.601c-1.091-0.023-2.33,0.17-2.33,1.239c0,0.648,0.432,0.955,0.943,0.955c0.716,0,1.171-0.455,1.33-0.921
		c0.034-0.102,0.057-0.216,0.057-0.318V51.601z"/>
	<path class="st0" d="M31.975,47.326v1.58h1.432v0.762h-1.432v2.967c0,0.682,0.193,1.069,0.75,1.069c0.262,0,0.455-0.034,0.58-0.068
		l0.045,0.75c-0.193,0.08-0.5,0.137-0.887,0.137c-0.466,0-0.841-0.148-1.08-0.421c-0.284-0.295-0.386-0.784-0.386-1.432v-3.001
		h-0.853v-0.762h0.853v-1.319L31.975,47.326z"/>
	<path class="st0" d="M35.645,47.36c0.011,0.341-0.239,0.614-0.637,0.614c-0.353,0-0.603-0.273-0.603-0.614
		c0-0.353,0.261-0.625,0.625-0.625C35.406,46.735,35.645,47.008,35.645,47.36z M34.531,54.408v-5.502h1v5.502H34.531z"/>
	<path class="st0" d="M42.168,51.612c0,2.035-1.409,2.921-2.739,2.921c-1.489,0-2.638-1.091-2.638-2.831
		c0-1.841,1.205-2.921,2.729-2.921C41.1,48.781,42.168,49.929,42.168,51.612z M37.803,51.668c0,1.205,0.693,2.115,1.672,2.115
		c0.954,0,1.671-0.898,1.671-2.137c0-0.932-0.467-2.115-1.648-2.115C38.315,49.531,37.803,50.623,37.803,51.668z"/>
	<path class="st0" d="M43.427,50.396c0-0.568-0.012-1.035-0.046-1.489h0.887l0.057,0.909h0.023c0.272-0.523,0.909-1.034,1.818-1.034
		c0.762,0,1.944,0.455,1.944,2.342v3.285H47.11v-3.171c0-0.887-0.329-1.626-1.272-1.626c-0.66,0-1.171,0.466-1.342,1.023
		c-0.046,0.125-0.068,0.295-0.068,0.466v3.308h-1V50.396z"/>
	<path class="st0" d="M53.257,47.36c0.011,0.341-0.239,0.614-0.637,0.614c-0.353,0-0.603-0.273-0.603-0.614
		c0-0.353,0.261-0.625,0.625-0.625C53.018,46.735,53.257,47.008,53.257,47.36z M52.143,54.408v-5.502h1v5.502H52.143z"/>
	<path class="st0" d="M54.801,50.396c0-0.568-0.012-1.035-0.046-1.489h0.887l0.057,0.909h0.023c0.272-0.523,0.909-1.034,1.818-1.034
		c0.762,0,1.944,0.455,1.944,2.342v3.285h-1.001v-3.171c0-0.887-0.329-1.626-1.272-1.626c-0.66,0-1.171,0.466-1.342,1.023
		c-0.046,0.125-0.068,0.295-0.068,0.466v3.308h-1V50.396z"/>
	<path class="st0" d="M62.267,47.326v1.58h1.432v0.762h-1.432v2.967c0,0.682,0.193,1.069,0.75,1.069c0.262,0,0.455-0.034,0.58-0.068
		l0.045,0.75c-0.193,0.08-0.5,0.137-0.887,0.137c-0.466,0-0.841-0.148-1.08-0.421c-0.284-0.295-0.386-0.784-0.386-1.432v-3.001
		h-0.853v-0.762h0.853v-1.319L62.267,47.326z"/>
	<path class="st0" d="M65.312,51.839c0.022,1.353,0.887,1.91,1.887,1.91c0.717,0,1.148-0.125,1.523-0.284l0.171,0.716
		c-0.353,0.159-0.955,0.341-1.83,0.341c-1.694,0-2.706-1.114-2.706-2.774s0.978-2.967,2.581-2.967c1.796,0,2.273,1.58,2.273,2.592
		c0,0.205-0.022,0.364-0.034,0.466H65.312z M68.245,51.123c0.012-0.637-0.261-1.626-1.387-1.626c-1.012,0-1.455,0.933-1.534,1.626
		H68.245z"/>
	<path class="st0" d="M70.448,50.396c0-0.568-0.012-1.035-0.046-1.489h0.887l0.057,0.909h0.023c0.272-0.523,0.909-1.034,1.818-1.034
		c0.762,0,1.944,0.455,1.944,2.342v3.285H74.13v-3.171c0-0.887-0.329-1.626-1.272-1.626c-0.66,0-1.171,0.466-1.342,1.023
		c-0.046,0.125-0.068,0.295-0.068,0.466v3.308h-1V50.396z"/>
	<path class="st0" d="M76.618,53.385c0.296,0.193,0.818,0.398,1.318,0.398c0.727,0,1.069-0.364,1.069-0.819
		c0-0.478-0.283-0.739-1.023-1.012c-0.989-0.352-1.455-0.898-1.455-1.557c0-0.887,0.716-1.614,1.898-1.614
		c0.557,0,1.047,0.159,1.354,0.341l-0.25,0.728c-0.217-0.136-0.615-0.318-1.125-0.318c-0.592,0-0.921,0.341-0.921,0.75
		c0,0.455,0.329,0.659,1.046,0.932c0.955,0.364,1.443,0.841,1.443,1.66c0,0.966-0.75,1.648-2.058,1.648
		c-0.603,0-1.159-0.148-1.546-0.375L76.618,53.385z"/>
	<path class="st0" d="M82.368,47.36c0.01,0.341-0.24,0.614-0.637,0.614c-0.354,0-0.604-0.273-0.604-0.614
		c0-0.353,0.262-0.625,0.625-0.625C82.128,46.735,82.368,47.008,82.368,47.36z M81.253,54.408v-5.502h1v5.502H81.253z"/>
	<path class="st0" d="M84.3,48.906l1.078,3.092c0.184,0.5,0.33,0.955,0.443,1.41h0.035c0.125-0.455,0.283-0.909,0.467-1.41
		l1.068-3.092h1.045l-2.16,5.502h-0.955l-2.092-5.502H84.3z"/>
	<path class="st0" d="M89.821,51.839c0.021,1.353,0.887,1.91,1.887,1.91c0.717,0,1.148-0.125,1.523-0.284l0.17,0.716
		c-0.352,0.159-0.955,0.341-1.83,0.341c-1.693,0-2.705-1.114-2.705-2.774s0.977-2.967,2.58-2.967c1.797,0,2.273,1.58,2.273,2.592
		c0,0.205-0.021,0.364-0.033,0.466H89.821z M92.753,51.123c0.012-0.637-0.26-1.626-1.387-1.626c-1.012,0-1.455,0.933-1.533,1.626
		H92.753z"/>
	<path class="st0" d="M97.923,51.839c0.021,1.353,0.887,1.91,1.887,1.91c0.717,0,1.148-0.125,1.523-0.284l0.17,0.716
		c-0.352,0.159-0.955,0.341-1.83,0.341c-1.693,0-2.705-1.114-2.705-2.774s0.977-2.967,2.58-2.967c1.797,0,2.273,1.58,2.273,2.592
		c0,0.205-0.021,0.364-0.033,0.466H97.923z M100.854,51.123c0.012-0.637-0.26-1.626-1.387-1.626c-1.012,0-1.455,0.933-1.533,1.626
		H100.854z"/>
	<path class="st0" d="M103.058,50.396c0-0.568-0.012-1.035-0.045-1.489h0.887l0.057,0.909h0.023
		c0.271-0.523,0.908-1.034,1.818-1.034c0.762,0,1.943,0.455,1.943,2.342v3.285h-1v-3.171c0-0.887-0.33-1.626-1.273-1.626
		c-0.66,0-1.17,0.466-1.342,1.023c-0.045,0.125-0.068,0.295-0.068,0.466v3.308h-1V50.396z"/>
	<path class="st0" d="M112.171,48.906l0.729,2.796c0.158,0.614,0.307,1.182,0.408,1.75h0.035c0.125-0.557,0.307-1.148,0.488-1.739
		l0.898-2.808h0.842l0.852,2.751c0.205,0.659,0.363,1.239,0.488,1.796h0.035c0.09-0.557,0.238-1.137,0.42-1.785l0.785-2.762h0.988
		l-1.773,5.502h-0.908l-0.842-2.626c-0.193-0.614-0.354-1.16-0.488-1.808h-0.023c-0.137,0.66-0.307,1.228-0.5,1.819l-0.887,2.615
		h-0.91l-1.658-5.502H112.171z"/>
	<path class="st0" d="M120.579,51.839c0.023,1.353,0.887,1.91,1.887,1.91c0.717,0,1.148-0.125,1.523-0.284l0.172,0.716
		c-0.354,0.159-0.955,0.341-1.83,0.341c-1.695,0-2.707-1.114-2.707-2.774s0.979-2.967,2.582-2.967c1.795,0,2.273,1.58,2.273,2.592
		c0,0.205-0.023,0.364-0.035,0.466H120.579z M123.513,51.123c0.012-0.637-0.262-1.626-1.387-1.626c-1.012,0-1.455,0.933-1.535,1.626
		H123.513z"/>
	<path class="st0" d="M125.669,54.408c0.023-0.375,0.047-0.932,0.047-1.421v-6.65h0.988v3.456h0.023
		c0.352-0.614,0.988-1.012,1.875-1.012c1.363,0,2.33,1.137,2.318,2.808c0,1.967-1.238,2.944-2.467,2.944
		c-0.795,0-1.432-0.307-1.842-1.034h-0.033l-0.045,0.909H125.669z M126.704,52.203c0,0.125,0.023,0.25,0.045,0.364
		c0.193,0.694,0.773,1.171,1.502,1.171c1.045,0,1.67-0.853,1.67-2.114c0-1.103-0.568-2.046-1.637-2.046
		c-0.682,0-1.318,0.466-1.523,1.228c-0.023,0.114-0.057,0.25-0.057,0.409V52.203z"/>
	<path class="st0" d="M139.341,46.337v6.65c0,0.489,0.012,1.046,0.045,1.421h-0.898l-0.045-0.955h-0.021
		c-0.309,0.614-0.979,1.08-1.877,1.08c-1.33,0-2.354-1.125-2.354-2.796c-0.01-1.83,1.127-2.956,2.467-2.956
		c0.842,0,1.41,0.398,1.66,0.841h0.023v-3.286H139.341z M138.341,51.146c0-0.125-0.012-0.295-0.045-0.42
		c-0.148-0.637-0.693-1.16-1.445-1.16c-1.033,0-1.648,0.91-1.648,2.126c0,1.114,0.547,2.035,1.627,2.035
		c0.67,0,1.283-0.443,1.467-1.193c0.033-0.137,0.045-0.273,0.045-0.432V51.146z"/>
	<path class="st0" d="M141.556,51.839c0.021,1.353,0.887,1.91,1.887,1.91c0.717,0,1.148-0.125,1.523-0.284l0.17,0.716
		c-0.352,0.159-0.955,0.341-1.83,0.341c-1.693,0-2.705-1.114-2.705-2.774s0.977-2.967,2.58-2.967c1.797,0,2.273,1.58,2.273,2.592
		c0,0.205-0.021,0.364-0.033,0.466H141.556z M144.487,51.123c0.012-0.637-0.26-1.626-1.387-1.626c-1.012,0-1.455,0.933-1.533,1.626
		H144.487z"/>
	<path class="st0" d="M147.077,48.906l1.08,3.092c0.182,0.5,0.33,0.955,0.443,1.41h0.033c0.125-0.455,0.285-0.909,0.467-1.41
		l1.068-3.092h1.047l-2.16,5.502h-0.955l-2.092-5.502H147.077z"/>
	<path class="st0" d="M152.599,51.839c0.023,1.353,0.887,1.91,1.887,1.91c0.717,0,1.148-0.125,1.523-0.284l0.172,0.716
		c-0.354,0.159-0.955,0.341-1.83,0.341c-1.695,0-2.707-1.114-2.707-2.774s0.979-2.967,2.582-2.967c1.795,0,2.273,1.58,2.273,2.592
		c0,0.205-0.023,0.364-0.035,0.466H152.599z M155.532,51.123c0.012-0.637-0.262-1.626-1.387-1.626c-1.012,0-1.455,0.933-1.535,1.626
		H155.532z"/>
	<path class="st0" d="M157.735,46.337h1v8.071h-1V46.337z"/>
	<path class="st0" d="M165.396,51.612c0,2.035-1.41,2.921-2.74,2.921c-1.488,0-2.637-1.091-2.637-2.831
		c0-1.841,1.205-2.921,2.729-2.921C164.327,48.781,165.396,49.929,165.396,51.612z M161.03,51.668c0,1.205,0.693,2.115,1.672,2.115
		c0.953,0,1.67-0.898,1.67-2.137c0-0.932-0.467-2.115-1.648-2.115S161.03,50.623,161.03,51.668z"/>
	<path class="st0" d="M166.655,50.702c0-0.705-0.023-1.273-0.047-1.796h0.898l0.045,0.943h0.023c0.41-0.67,1.057-1.068,1.955-1.068
		c1.33,0,2.33,1.125,2.33,2.796c0,1.978-1.205,2.956-2.5,2.956c-0.729,0-1.365-0.318-1.693-0.864h-0.023v2.99h-0.988V50.702z
		 M167.644,52.169c0,0.147,0.023,0.284,0.045,0.409c0.182,0.693,0.785,1.171,1.502,1.171c1.057,0,1.67-0.864,1.67-2.126
		c0-1.103-0.58-2.046-1.637-2.046c-0.682,0-1.318,0.489-1.512,1.239c-0.035,0.125-0.068,0.273-0.068,0.409V52.169z"/>
	<path class="st0" d="M173.12,50.702c0-0.705-0.023-1.273-0.047-1.796h0.898l0.045,0.943h0.023c0.41-0.67,1.057-1.068,1.955-1.068
		c1.33,0,2.33,1.125,2.33,2.796c0,1.978-1.205,2.956-2.5,2.956c-0.729,0-1.365-0.318-1.693-0.864h-0.023v2.99h-0.988V50.702z
		 M174.108,52.169c0,0.147,0.023,0.284,0.045,0.409c0.182,0.693,0.785,1.171,1.502,1.171c1.057,0,1.67-0.864,1.67-2.126
		c0-1.103-0.58-2.046-1.637-2.046c-0.682,0-1.318,0.489-1.512,1.239c-0.035,0.125-0.068,0.273-0.068,0.409V52.169z"/>
	<path class="st0" d="M180.142,51.839c0.023,1.353,0.887,1.91,1.887,1.91c0.717,0,1.148-0.125,1.523-0.284l0.172,0.716
		c-0.354,0.159-0.955,0.341-1.83,0.341c-1.695,0-2.707-1.114-2.707-2.774s0.979-2.967,2.582-2.967c1.795,0,2.273,1.58,2.273,2.592
		c0,0.205-0.023,0.364-0.035,0.466H180.142z M183.075,51.123c0.012-0.637-0.262-1.626-1.387-1.626c-1.012,0-1.455,0.933-1.535,1.626
		H183.075z"/>
	<path class="st0" d="M185.278,50.396c0-0.568-0.012-1.035-0.047-1.489h0.877l0.045,0.887h0.033
		c0.307-0.523,0.818-1.012,1.729-1.012c0.75,0,1.318,0.455,1.557,1.103h0.023c0.17-0.307,0.387-0.545,0.613-0.716
		c0.33-0.25,0.693-0.386,1.217-0.386c0.729,0,1.807,0.478,1.807,2.387v3.24h-0.977v-3.115c0-1.057-0.387-1.694-1.193-1.694
		c-0.568,0-1.012,0.42-1.184,0.91c-0.045,0.136-0.078,0.318-0.078,0.5v3.399h-0.979v-3.297c0-0.875-0.387-1.512-1.148-1.512
		c-0.625,0-1.08,0.5-1.238,1c-0.057,0.147-0.08,0.318-0.08,0.489v3.319h-0.977V50.396z"/>
	<path class="st0" d="M195.312,51.839c0.021,1.353,0.887,1.91,1.887,1.91c0.717,0,1.148-0.125,1.523-0.284l0.17,0.716
		c-0.352,0.159-0.955,0.341-1.83,0.341c-1.693,0-2.705-1.114-2.705-2.774s0.977-2.967,2.58-2.967c1.797,0,2.273,1.58,2.273,2.592
		c0,0.205-0.021,0.364-0.033,0.466H195.312z M198.243,51.123c0.012-0.637-0.26-1.626-1.387-1.626c-1.012,0-1.455,0.933-1.533,1.626
		H198.243z"/>
	<path class="st0" d="M200.446,50.396c0-0.568-0.012-1.035-0.045-1.489h0.887l0.057,0.909h0.023
		c0.271-0.523,0.908-1.034,1.818-1.034c0.762,0,1.943,0.455,1.943,2.342v3.285h-1v-3.171c0-0.887-0.33-1.626-1.273-1.626
		c-0.66,0-1.17,0.466-1.342,1.023c-0.045,0.125-0.068,0.295-0.068,0.466v3.308h-1V50.396z"/>
	<path class="st0" d="M207.913,47.326v1.58h1.432v0.762h-1.432v2.967c0,0.682,0.193,1.069,0.75,1.069
		c0.262,0,0.455-0.034,0.58-0.068l0.045,0.75c-0.193,0.08-0.5,0.137-0.887,0.137c-0.467,0-0.842-0.148-1.08-0.421
		c-0.285-0.295-0.387-0.784-0.387-1.432v-3.001h-0.852v-0.762h0.852v-1.319L207.913,47.326z"/>
	<path class="st0" d="M209.786,55.807c0.25-0.671,0.559-1.887,0.684-2.717l1.113-0.113c-0.262,0.966-0.762,2.228-1.08,2.762
		L209.786,55.807z"/>
	<path class="st0" d="M0.715,60.381h4.126v0.83H1.704v2.546h2.899v0.818H1.704v3.468H0.715V60.381z"/>
	<path class="st0" d="M5.919,64.258c0-0.648-0.012-1.205-0.046-1.716H6.75l0.033,1.08h0.046c0.25-0.739,0.853-1.205,1.523-1.205
		c0.113,0,0.193,0.011,0.284,0.034v0.943c-0.103-0.023-0.205-0.034-0.341-0.034c-0.705,0-1.205,0.534-1.342,1.285
		c-0.022,0.136-0.046,0.295-0.046,0.466v2.934H5.919V64.258z"/>
	<path class="st0" d="M14.5,65.247c0,2.035-1.409,2.922-2.739,2.922c-1.489,0-2.638-1.092-2.638-2.831
		c0-1.842,1.205-2.921,2.729-2.921C13.432,62.417,14.5,63.564,14.5,65.247z M10.135,65.304c0,1.205,0.693,2.115,1.672,2.115
		c0.954,0,1.671-0.898,1.671-2.138c0-0.932-0.467-2.115-1.648-2.115C10.647,63.167,10.135,64.258,10.135,65.304z"/>
	<path class="st0" d="M15.759,64.031c0-0.568-0.012-1.035-0.046-1.489H16.6l0.057,0.909h0.023c0.272-0.523,0.909-1.034,1.818-1.034
		c0.762,0,1.944,0.455,1.944,2.342v3.286h-1.001v-3.172c0-0.887-0.329-1.626-1.272-1.626c-0.66,0-1.171,0.466-1.342,1.023
		c-0.046,0.125-0.068,0.295-0.068,0.466v3.309h-1V64.031z"/>
	<path class="st0" d="M23.226,60.961v1.58h1.432v0.762h-1.432v2.967c0,0.682,0.193,1.068,0.75,1.068c0.262,0,0.455-0.034,0.58-0.068
		l0.045,0.75c-0.193,0.08-0.5,0.137-0.887,0.137c-0.466,0-0.841-0.148-1.08-0.421c-0.284-0.296-0.386-0.784-0.386-1.433v-3h-0.853
		v-0.762h0.853v-1.319L23.226,60.961z"/>
	<path class="st0" d="M28.747,65.474c0.022,1.354,0.887,1.91,1.888,1.91c0.716,0,1.147-0.125,1.522-0.283l0.171,0.715
		c-0.353,0.16-0.955,0.342-1.83,0.342c-1.694,0-2.706-1.114-2.706-2.773c0-1.66,0.978-2.967,2.581-2.967
		c1.796,0,2.273,1.58,2.273,2.592c0,0.205-0.022,0.364-0.034,0.465H28.747z M31.679,64.758c0.012-0.637-0.261-1.625-1.387-1.625
		c-1.012,0-1.455,0.932-1.534,1.625H31.679z"/>
	<path class="st0" d="M35.088,60.961v1.58h1.432v0.762h-1.432v2.967c0,0.682,0.193,1.068,0.75,1.068c0.262,0,0.455-0.034,0.58-0.068
		l0.045,0.75c-0.193,0.08-0.5,0.137-0.887,0.137c-0.466,0-0.841-0.148-1.08-0.421c-0.284-0.296-0.386-0.784-0.386-1.433v-3h-0.853
		v-0.762h0.853v-1.319L35.088,60.961z"/>
	<path class="st0" d="M40.087,60.484c0.432-0.091,1.113-0.159,1.808-0.159c0.988,0,1.625,0.17,2.103,0.557
		c0.397,0.295,0.637,0.75,0.637,1.353c0,0.739-0.489,1.387-1.296,1.683v0.022c0.728,0.182,1.58,0.785,1.58,1.921
		c0,0.66-0.262,1.16-0.648,1.535c-0.534,0.488-1.397,0.717-2.648,0.717c-0.682,0-1.205-0.046-1.534-0.092V60.484z M41.076,63.622
		h0.898c1.046,0,1.66-0.546,1.66-1.285c0-0.898-0.683-1.25-1.683-1.25c-0.455,0-0.717,0.034-0.876,0.068V63.622z M41.076,67.293
		c0.193,0.034,0.478,0.046,0.83,0.046c1.023,0,1.967-0.375,1.967-1.489c0-1.046-0.898-1.478-1.978-1.478h-0.819V67.293z"/>
	<path class="st0" d="M49.257,68.044l-0.079-0.693h-0.034c-0.307,0.432-0.898,0.818-1.683,0.818c-1.114,0-1.683-0.785-1.683-1.58
		c0-1.33,1.183-2.058,3.309-2.047v-0.113c0-0.455-0.125-1.273-1.251-1.273c-0.511,0-1.046,0.159-1.432,0.409l-0.228-0.659
		c0.454-0.295,1.114-0.489,1.808-0.489c1.683,0,2.092,1.148,2.092,2.25v2.058c0,0.478,0.022,0.944,0.091,1.319H49.257z
		 M49.11,65.235c-1.091-0.022-2.33,0.171-2.33,1.239c0,0.647,0.432,0.955,0.943,0.955c0.716,0,1.171-0.454,1.33-0.921
		c0.034-0.103,0.057-0.216,0.057-0.318V65.235z"/>
	<path class="st0" d="M55.61,67.839c-0.262,0.137-0.842,0.318-1.58,0.318c-1.66,0-2.74-1.125-2.74-2.809
		c0-1.693,1.16-2.921,2.956-2.921c0.591,0,1.114,0.148,1.387,0.284l-0.228,0.773c-0.238-0.136-0.613-0.261-1.159-0.261
		c-1.262,0-1.944,0.932-1.944,2.08c0,1.273,0.818,2.058,1.91,2.058c0.568,0,0.943-0.147,1.228-0.272L55.61,67.839z"/>
	<path class="st0" d="M57.767,65.065h0.023c0.136-0.193,0.329-0.432,0.488-0.625l1.614-1.898h1.205l-2.126,2.262l2.422,3.24h-1.217
		l-1.898-2.638l-0.512,0.568v2.069h-0.988v-8.072h0.988V65.065z"/>
	<path class="st0" d="M65.073,65.474c0.022,1.354,0.887,1.91,1.888,1.91c0.716,0,1.147-0.125,1.522-0.283l0.171,0.715
		c-0.353,0.16-0.955,0.342-1.83,0.342c-1.694,0-2.706-1.114-2.706-2.773c0-1.66,0.978-2.967,2.581-2.967
		c1.796,0,2.273,1.58,2.273,2.592c0,0.205-0.022,0.364-0.034,0.465H65.073z M68.005,64.758c0.012-0.637-0.261-1.625-1.387-1.625
		c-1.012,0-1.455,0.932-1.534,1.625H68.005z"/>
	<path class="st0" d="M70.209,64.031c0-0.568-0.012-1.035-0.046-1.489h0.887l0.057,0.909h0.023c0.272-0.523,0.909-1.034,1.818-1.034
		c0.762,0,1.944,0.455,1.944,2.342v3.286h-1.001v-3.172c0-0.887-0.329-1.626-1.272-1.626c-0.66,0-1.171,0.466-1.342,1.023
		c-0.046,0.125-0.068,0.295-0.068,0.466v3.309h-1V64.031z"/>
	<path class="st0" d="M81.267,59.972v6.65c0,0.489,0.012,1.047,0.045,1.422h-0.898l-0.045-0.955h-0.021
		c-0.309,0.613-0.979,1.08-1.877,1.08c-1.33,0-2.353-1.126-2.353-2.797c-0.011-1.83,1.126-2.956,2.466-2.956
		c0.842,0,1.41,0.398,1.66,0.841h0.023v-3.286H81.267z M80.267,64.781c0-0.125-0.012-0.295-0.045-0.42
		c-0.148-0.637-0.693-1.16-1.445-1.16c-1.034,0-1.648,0.91-1.648,2.126c0,1.113,0.546,2.034,1.626,2.034
		c0.67,0,1.283-0.443,1.467-1.193c0.033-0.137,0.045-0.272,0.045-0.433V64.781z"/>
	<path class="st0" d="M82.571,67.452c0-0.42,0.283-0.716,0.682-0.716s0.672,0.296,0.672,0.716c0,0.409-0.262,0.717-0.684,0.717
		C82.845,68.169,82.571,67.861,82.571,67.452z"/>
	<path class="st0" d="M91.571,64.451h-2.979v2.763h3.32v0.83h-4.309v-7.663h4.139v0.83h-3.15v2.421h2.979V64.451z"/>
	<path class="st0" d="M93.161,64.031c0-0.568-0.012-1.035-0.045-1.489h0.887l0.057,0.909h0.023c0.271-0.523,0.908-1.034,1.818-1.034
		c0.762,0,1.943,0.455,1.943,2.342v3.286h-1v-3.172c0-0.887-0.33-1.626-1.273-1.626c-0.66,0-1.17,0.466-1.342,1.023
		c-0.045,0.125-0.068,0.295-0.068,0.466v3.309h-1V64.031z"/>
	<path class="st0" d="M105.798,67.839c-0.262,0.137-0.842,0.318-1.58,0.318c-1.66,0-2.74-1.125-2.74-2.809
		c0-1.693,1.16-2.921,2.957-2.921c0.59,0,1.113,0.148,1.387,0.284l-0.229,0.773c-0.238-0.136-0.613-0.261-1.158-0.261
		c-1.262,0-1.945,0.932-1.945,2.08c0,1.273,0.818,2.058,1.91,2.058c0.568,0,0.943-0.147,1.229-0.272L105.798,67.839z"/>
	<path class="st0" d="M111.878,65.247c0,2.035-1.41,2.922-2.74,2.922c-1.488,0-2.637-1.092-2.637-2.831
		c0-1.842,1.205-2.921,2.729-2.921C110.81,62.417,111.878,63.564,111.878,65.247z M107.513,65.304c0,1.205,0.693,2.115,1.672,2.115
		c0.953,0,1.67-0.898,1.67-2.138c0-0.932-0.467-2.115-1.648-2.115S107.513,64.258,107.513,65.304z"/>
	<path class="st0" d="M113.138,59.972h1v8.072h-1V59.972z"/>
	<path class="st0" d="M115.819,59.972h1v8.072h-1V59.972z"/>
	<path class="st0" d="M121.546,68.044l-0.08-0.693h-0.033c-0.307,0.432-0.898,0.818-1.684,0.818c-1.113,0-1.682-0.785-1.682-1.58
		c0-1.33,1.182-2.058,3.309-2.047v-0.113c0-0.455-0.125-1.273-1.252-1.273c-0.51,0-1.045,0.159-1.432,0.409l-0.227-0.659
		c0.453-0.295,1.113-0.489,1.807-0.489c1.684,0,2.092,1.148,2.092,2.25v2.058c0,0.478,0.023,0.944,0.092,1.319H121.546z
		 M121.397,65.235c-1.09-0.022-2.33,0.171-2.33,1.239c0,0.647,0.432,0.955,0.943,0.955c0.717,0,1.172-0.454,1.33-0.921
		c0.035-0.103,0.057-0.216,0.057-0.318V65.235z"/>
	<path class="st0" d="M123.931,68.044c0.023-0.375,0.047-0.933,0.047-1.422v-6.65h0.988v3.456h0.023
		c0.352-0.614,0.988-1.012,1.875-1.012c1.363,0,2.33,1.137,2.318,2.807c0,1.967-1.238,2.945-2.467,2.945
		c-0.795,0-1.432-0.308-1.842-1.035h-0.033l-0.045,0.91H123.931z M124.966,65.838c0,0.126,0.023,0.251,0.045,0.364
		c0.193,0.693,0.773,1.17,1.502,1.17c1.045,0,1.67-0.852,1.67-2.113c0-1.103-0.568-2.047-1.637-2.047
		c-0.682,0-1.318,0.466-1.523,1.228c-0.023,0.114-0.057,0.25-0.057,0.409V65.838z"/>
	<path class="st0" d="M135.421,65.247c0,2.035-1.41,2.922-2.74,2.922c-1.488,0-2.637-1.092-2.637-2.831
		c0-1.842,1.205-2.921,2.729-2.921C134.353,62.417,135.421,63.564,135.421,65.247z M131.056,65.304c0,1.205,0.693,2.115,1.672,2.115
		c0.953,0,1.67-0.898,1.67-2.138c0-0.932-0.467-2.115-1.648-2.115S131.056,64.258,131.056,65.304z"/>
	<path class="st0" d="M136.681,64.258c0-0.648-0.012-1.205-0.047-1.716h0.877l0.033,1.08h0.045c0.25-0.739,0.854-1.205,1.523-1.205
		c0.113,0,0.193,0.011,0.285,0.034v0.943c-0.104-0.023-0.205-0.034-0.342-0.034c-0.705,0-1.205,0.534-1.342,1.285
		c-0.021,0.136-0.045,0.295-0.045,0.466v2.934h-0.988V64.258z"/>
	<path class="st0" d="M143.386,68.044l-0.08-0.693h-0.033c-0.307,0.432-0.898,0.818-1.684,0.818c-1.113,0-1.682-0.785-1.682-1.58
		c0-1.33,1.182-2.058,3.309-2.047v-0.113c0-0.455-0.125-1.273-1.252-1.273c-0.51,0-1.045,0.159-1.432,0.409l-0.227-0.659
		c0.453-0.295,1.113-0.489,1.807-0.489c1.684,0,2.092,1.148,2.092,2.25v2.058c0,0.478,0.023,0.944,0.092,1.319H143.386z
		 M143.237,65.235c-1.09-0.022-2.33,0.171-2.33,1.239c0,0.647,0.432,0.955,0.943,0.955c0.717,0,1.172-0.454,1.33-0.921
		c0.035-0.103,0.057-0.216,0.057-0.318V65.235z"/>
	<path class="st0" d="M146.976,60.961v1.58h1.432v0.762h-1.432v2.967c0,0.682,0.193,1.068,0.75,1.068
		c0.262,0,0.455-0.034,0.58-0.068l0.045,0.75c-0.193,0.08-0.5,0.137-0.887,0.137c-0.467,0-0.842-0.148-1.08-0.421
		c-0.285-0.296-0.387-0.784-0.387-1.433v-3h-0.852v-0.762h0.852v-1.319L146.976,60.961z"/>
	<path class="st0" d="M150.646,60.996c0.012,0.341-0.238,0.614-0.637,0.614c-0.352,0-0.602-0.273-0.602-0.614
		c0-0.353,0.26-0.625,0.625-0.625C150.407,60.37,150.646,60.643,150.646,60.996z M149.532,68.044v-5.502h1v5.502H149.532z"/>
	<path class="st0" d="M157.169,65.247c0,2.035-1.41,2.922-2.74,2.922c-1.488,0-2.637-1.092-2.637-2.831
		c0-1.842,1.205-2.921,2.729-2.921C156.101,62.417,157.169,63.564,157.169,65.247z M152.804,65.304c0,1.205,0.693,2.115,1.672,2.115
		c0.953,0,1.67-0.898,1.67-2.138c0-0.932-0.467-2.115-1.648-2.115S152.804,64.258,152.804,65.304z"/>
	<path class="st0" d="M158.429,64.031c0-0.568-0.012-1.035-0.047-1.489h0.887l0.057,0.909h0.023c0.273-0.523,0.91-1.034,1.818-1.034
		c0.762,0,1.945,0.455,1.945,2.342v3.286h-1.002v-3.172c0-0.887-0.328-1.626-1.271-1.626c-0.66,0-1.172,0.466-1.342,1.023
		c-0.047,0.125-0.068,0.295-0.068,0.466v3.309h-1V64.031z"/>
	<path class="st0" d="M170.188,68.044l-0.078-0.693h-0.035c-0.307,0.432-0.898,0.818-1.682,0.818c-1.115,0-1.684-0.785-1.684-1.58
		c0-1.33,1.184-2.058,3.309-2.047v-0.113c0-0.455-0.125-1.273-1.25-1.273c-0.512,0-1.047,0.159-1.432,0.409l-0.229-0.659
		c0.455-0.295,1.115-0.489,1.809-0.489c1.682,0,2.092,1.148,2.092,2.25v2.058c0,0.478,0.021,0.944,0.09,1.319H170.188z
		 M170.042,65.235c-1.092-0.022-2.33,0.171-2.33,1.239c0,0.647,0.432,0.955,0.943,0.955c0.715,0,1.17-0.454,1.33-0.921
		c0.033-0.103,0.057-0.216,0.057-0.318V65.235z"/>
	<path class="st0" d="M172.917,62.542l1.078,3.092c0.184,0.5,0.33,0.955,0.443,1.409h0.035c0.125-0.454,0.283-0.909,0.467-1.409
		l1.068-3.092h1.045l-2.16,5.502h-0.955l-2.092-5.502H172.917z"/>
	<path class="st0" d="M178.438,65.474c0.021,1.354,0.887,1.91,1.887,1.91c0.717,0,1.148-0.125,1.523-0.283l0.17,0.715
		c-0.352,0.16-0.955,0.342-1.83,0.342c-1.693,0-2.705-1.114-2.705-2.773c0-1.66,0.977-2.967,2.58-2.967
		c1.797,0,2.273,1.58,2.273,2.592c0,0.205-0.021,0.364-0.033,0.465H178.438z M181.37,64.758c0.012-0.637-0.26-1.625-1.387-1.625
		c-1.012,0-1.455,0.932-1.533,1.625H181.37z"/>
	<path class="st0" d="M187.495,67.839c-0.262,0.137-0.842,0.318-1.58,0.318c-1.66,0-2.74-1.125-2.74-2.809
		c0-1.693,1.16-2.921,2.957-2.921c0.59,0,1.113,0.148,1.387,0.284l-0.229,0.773c-0.238-0.136-0.613-0.261-1.158-0.261
		c-1.262,0-1.945,0.932-1.945,2.08c0,1.273,0.818,2.058,1.91,2.058c0.568,0,0.943-0.147,1.229-0.272L187.495,67.839z"/>
	<path class="st0" d="M191.073,59.972h1v8.072h-1V59.972z"/>
	<path class="st0" d="M194.312,65.474c0.021,1.354,0.887,1.91,1.887,1.91c0.717,0,1.148-0.125,1.523-0.283l0.17,0.715
		c-0.352,0.16-0.955,0.342-1.83,0.342c-1.693,0-2.705-1.114-2.705-2.773c0-1.66,0.977-2.967,2.58-2.967
		c1.797,0,2.273,1.58,2.273,2.592c0,0.205-0.021,0.364-0.033,0.465H194.312z M197.243,64.758c0.012-0.637-0.26-1.625-1.387-1.625
		c-1.012,0-1.455,0.932-1.533,1.625H197.243z"/>
	<path class="st0" d="M199.31,67.021c0.297,0.193,0.818,0.398,1.318,0.398c0.729,0,1.07-0.364,1.07-0.819
		c0-0.478-0.285-0.739-1.023-1.012c-0.99-0.353-1.455-0.898-1.455-1.557c0-0.887,0.715-1.614,1.898-1.614
		c0.557,0,1.045,0.159,1.352,0.341l-0.25,0.728c-0.215-0.136-0.613-0.318-1.125-0.318c-0.592,0-0.92,0.341-0.92,0.75
		c0,0.455,0.328,0.659,1.045,0.932c0.955,0.364,1.443,0.841,1.443,1.66c0,0.967-0.75,1.648-2.057,1.648
		c-0.604,0-1.16-0.148-1.547-0.375L199.31,67.021z"/>
	<path class="st0" d="M209.401,68.044l-0.078-0.693h-0.035c-0.307,0.432-0.898,0.818-1.682,0.818c-1.115,0-1.684-0.785-1.684-1.58
		c0-1.33,1.184-2.058,3.309-2.047v-0.113c0-0.455-0.125-1.273-1.25-1.273c-0.512,0-1.047,0.159-1.432,0.409l-0.229-0.659
		c0.455-0.295,1.115-0.489,1.809-0.489c1.682,0,2.092,1.148,2.092,2.25v2.058c0,0.478,0.021,0.944,0.09,1.319H209.401z
		 M209.255,65.235c-1.092-0.022-2.33,0.171-2.33,1.239c0,0.647,0.432,0.955,0.943,0.955c0.715,0,1.17-0.454,1.33-0.921
		c0.033-0.103,0.057-0.216,0.057-0.318V65.235z"/>
	<path class="st0" d="M215.755,67.839c-0.262,0.137-0.842,0.318-1.58,0.318c-1.66,0-2.74-1.125-2.74-2.809
		c0-1.693,1.16-2.921,2.955-2.921c0.592,0,1.115,0.148,1.387,0.284l-0.227,0.773c-0.238-0.136-0.613-0.261-1.16-0.261
		c-1.262,0-1.943,0.932-1.943,2.08c0,1.273,0.818,2.058,1.91,2.058c0.568,0,0.943-0.147,1.227-0.272L215.755,67.839z"/>
	<path class="st0" d="M218.276,60.961v1.58h1.432v0.762h-1.432v2.967c0,0.682,0.193,1.068,0.75,1.068
		c0.262,0,0.455-0.034,0.58-0.068l0.045,0.75c-0.193,0.08-0.5,0.137-0.887,0.137c-0.467,0-0.842-0.148-1.08-0.421
		c-0.285-0.296-0.387-0.784-0.387-1.433v-3h-0.852v-0.762h0.852v-1.319L218.276,60.961z"/>
	<path class="st0" d="M221.319,65.474c0.023,1.354,0.887,1.91,1.887,1.91c0.717,0,1.148-0.125,1.523-0.283l0.172,0.715
		c-0.354,0.16-0.955,0.342-1.83,0.342c-1.695,0-2.707-1.114-2.707-2.773c0-1.66,0.979-2.967,2.582-2.967
		c1.795,0,2.273,1.58,2.273,2.592c0,0.205-0.023,0.364-0.035,0.465H221.319z M224.253,64.758c0.012-0.637-0.262-1.625-1.387-1.625
		c-1.012,0-1.455,0.932-1.535,1.625H224.253z"/>
	<path class="st0" d="M231.06,66.543c0,0.568,0.012,1.068,0.045,1.501h-0.887l-0.057-0.898h-0.023
		c-0.26,0.443-0.84,1.023-1.818,1.023c-0.863,0-1.898-0.479-1.898-2.41v-3.217h1v3.046c0,1.046,0.318,1.751,1.229,1.751
		c0.67,0,1.137-0.467,1.318-0.91c0.057-0.147,0.092-0.329,0.092-0.512v-3.375h1V66.543z"/>
	<path class="st0" d="M232.718,64.258c0-0.648-0.012-1.205-0.047-1.716h0.877l0.033,1.08h0.045c0.25-0.739,0.854-1.205,1.523-1.205
		c0.113,0,0.193,0.011,0.285,0.034v0.943c-0.104-0.023-0.205-0.034-0.342-0.034c-0.705,0-1.205,0.534-1.342,1.285
		c-0.021,0.136-0.045,0.295-0.045,0.466v2.934h-0.988V64.258z"/>
	<path class="st0" d="M236.296,67.021c0.295,0.193,0.818,0.398,1.318,0.398c0.727,0,1.068-0.364,1.068-0.819
		c0-0.478-0.283-0.739-1.023-1.012c-0.988-0.353-1.455-0.898-1.455-1.557c0-0.887,0.717-1.614,1.898-1.614
		c0.557,0,1.047,0.159,1.354,0.341l-0.25,0.728c-0.217-0.136-0.615-0.318-1.125-0.318c-0.592,0-0.922,0.341-0.922,0.75
		c0,0.455,0.33,0.659,1.047,0.932c0.955,0.364,1.443,0.841,1.443,1.66c0,0.967-0.75,1.648-2.059,1.648
		c-0.602,0-1.158-0.148-1.545-0.375L236.296,67.021z"/>
	<path class="st0" d="M0.681,77.667c0-0.568-0.012-1.035-0.046-1.49h0.876l0.045,0.887H1.59c0.307-0.523,0.818-1.012,1.728-1.012
		c0.751,0,1.319,0.455,1.558,1.104h0.022c0.171-0.309,0.387-0.547,0.614-0.717c0.33-0.25,0.693-0.387,1.217-0.387
		c0.728,0,1.807,0.479,1.807,2.387v3.24H7.558v-3.115c0-1.057-0.386-1.693-1.193-1.693c-0.568,0-1.012,0.42-1.183,0.91
		c-0.045,0.137-0.079,0.318-0.079,0.5v3.398H4.125v-3.297c0-0.875-0.387-1.512-1.148-1.512c-0.625,0-1.08,0.5-1.239,1
		c-0.057,0.148-0.079,0.318-0.079,0.49v3.318H0.681V77.667z"/>
	<path class="st0" d="M13.204,81.679l-0.079-0.693H13.09c-0.307,0.432-0.898,0.818-1.683,0.818c-1.114,0-1.683-0.783-1.683-1.58
		c0-1.33,1.183-2.057,3.309-2.047v-0.113c0-0.455-0.125-1.273-1.251-1.273c-0.511,0-1.046,0.16-1.432,0.41l-0.228-0.66
		c0.454-0.295,1.114-0.488,1.808-0.488c1.683,0,2.092,1.148,2.092,2.25v2.059c0,0.477,0.022,0.943,0.091,1.318H13.204z
		 M13.056,78.872c-1.091-0.023-2.33,0.17-2.33,1.238c0,0.648,0.432,0.955,0.943,0.955c0.716,0,1.171-0.455,1.33-0.922
		c0.034-0.102,0.057-0.215,0.057-0.318V78.872z"/>
	<path class="st0" d="M14.292,83.271c0.455-0.033,0.853-0.16,1.092-0.42c0.272-0.318,0.375-0.752,0.375-2.07v-4.604h1v4.99
		c0,1.068-0.17,1.762-0.659,2.262c-0.443,0.443-1.171,0.627-1.705,0.627L14.292,83.271z M16.874,74.632
		c0.011,0.328-0.228,0.613-0.626,0.613c-0.375,0-0.613-0.285-0.613-0.613c0-0.354,0.262-0.627,0.637-0.627
		C16.634,74.005,16.874,74.278,16.874,74.632z"/>
	<path class="st0" d="M18.953,79.11c0.022,1.352,0.887,1.91,1.887,1.91c0.717,0,1.148-0.125,1.523-0.285l0.171,0.717
		c-0.353,0.158-0.955,0.34-1.83,0.34c-1.694,0-2.706-1.113-2.706-2.773s0.978-2.967,2.581-2.967c1.796,0,2.273,1.58,2.273,2.592
		c0,0.205-0.022,0.363-0.034,0.467H18.953z M21.885,78.394c0.012-0.637-0.261-1.625-1.387-1.625c-1.012,0-1.455,0.932-1.534,1.625
		H21.885z"/>
	<path class="st0" d="M28.692,80.179c0,0.568,0.012,1.068,0.046,1.5h-0.887l-0.057-0.898h-0.023
		c-0.261,0.443-0.841,1.023-1.818,1.023c-0.864,0-1.898-0.477-1.898-2.41v-3.217h1v3.047c0,1.045,0.318,1.75,1.228,1.75
		c0.671,0,1.137-0.465,1.319-0.908c0.057-0.148,0.091-0.33,0.091-0.512v-3.377h1V80.179z"/>
	<path class="st0" d="M30.349,77.894c0-0.648-0.012-1.205-0.046-1.717h0.876l0.033,1.08h0.046c0.25-0.738,0.853-1.205,1.523-1.205
		c0.113,0,0.193,0.012,0.284,0.035v0.943c-0.103-0.023-0.205-0.035-0.341-0.035c-0.705,0-1.205,0.535-1.342,1.285
		c-0.022,0.137-0.046,0.295-0.046,0.465v2.934h-0.988V77.894z"/>
	<path class="st0" d="M33.928,80.655c0.296,0.193,0.818,0.398,1.318,0.398c0.728,0,1.069-0.363,1.069-0.818
		c0-0.479-0.284-0.738-1.023-1.012c-0.989-0.352-1.455-0.898-1.455-1.557c0-0.887,0.716-1.615,1.898-1.615
		c0.557,0,1.046,0.16,1.353,0.342l-0.25,0.727c-0.216-0.137-0.614-0.318-1.125-0.318c-0.592,0-0.921,0.342-0.921,0.75
		c0,0.455,0.329,0.66,1.046,0.934c0.955,0.363,1.443,0.84,1.443,1.658c0,0.967-0.75,1.648-2.058,1.648
		c-0.603,0-1.159-0.146-1.546-0.375L33.928,80.655z"/>
	<path class="st0" d="M45.725,73.608v6.65c0,0.488,0.011,1.045,0.045,1.42h-0.897l-0.046-0.955h-0.022
		c-0.308,0.615-0.978,1.08-1.876,1.08c-1.33,0-2.354-1.125-2.354-2.797c-0.011-1.83,1.126-2.955,2.467-2.955
		c0.842,0,1.41,0.398,1.66,0.842h0.022v-3.285H45.725z M44.724,78.417c0-0.125-0.011-0.297-0.045-0.422
		c-0.148-0.637-0.693-1.158-1.444-1.158c-1.034,0-1.648,0.908-1.648,2.125c0,1.113,0.546,2.035,1.626,2.035
		c0.671,0,1.284-0.443,1.467-1.193c0.034-0.137,0.045-0.273,0.045-0.432V78.417z"/>
	<path class="st0" d="M47.938,79.11c0.022,1.352,0.887,1.91,1.888,1.91c0.716,0,1.147-0.125,1.522-0.285l0.171,0.717
		c-0.353,0.158-0.955,0.34-1.83,0.34c-1.694,0-2.706-1.113-2.706-2.773s0.978-2.967,2.581-2.967c1.796,0,2.273,1.58,2.273,2.592
		c0,0.205-0.022,0.363-0.034,0.467H47.938z M50.871,78.394c0.012-0.637-0.261-1.625-1.387-1.625c-1.012,0-1.455,0.932-1.534,1.625
		H50.871z"/>
	<path class="st0" d="M55.483,73.608h1v8.07h-1V73.608z"/>
	<path class="st0" d="M59.495,73.892c-0.262,0.955-0.75,2.172-1.068,2.695l-0.637,0.078c0.25-0.67,0.546-1.852,0.671-2.67
		L59.495,73.892z"/>
	<path class="st0" d="M63.039,74.017v7.662H62.05v-7.662H63.039z"/>
	<path class="st0" d="M66.221,74.858H63.89v-0.842h5.673v0.842h-2.342v6.82h-1V74.858z"/>
	<path class="st0" d="M69.458,81.087c0-0.42,0.284-0.715,0.683-0.715c0.397,0,0.671,0.295,0.671,0.715
		c0,0.41-0.262,0.717-0.683,0.717C69.732,81.804,69.458,81.497,69.458,81.087z"/>
	<path class="st0" d="M74.493,74.017h0.988v6.832h3.274v0.83h-4.262V74.017z"/>
	<path class="st0" d="M82.866,81.679l-0.078-0.693h-0.035c-0.307,0.432-0.898,0.818-1.682,0.818c-1.115,0-1.684-0.783-1.684-1.58
		c0-1.33,1.184-2.057,3.309-2.047v-0.113c0-0.455-0.125-1.273-1.25-1.273c-0.512,0-1.047,0.16-1.432,0.41l-0.229-0.66
		c0.455-0.295,1.115-0.488,1.809-0.488c1.682,0,2.092,1.148,2.092,2.25v2.059c0,0.477,0.021,0.943,0.09,1.318H82.866z M82.72,78.872
		c-1.092-0.023-2.33,0.17-2.33,1.238c0,0.648,0.432,0.955,0.943,0.955c0.715,0,1.17-0.455,1.33-0.922
		c0.033-0.102,0.057-0.215,0.057-0.318V78.872z"/>
	<path class="st0" d="M85.253,81.679c0.021-0.375,0.045-0.932,0.045-1.42v-6.65h0.988v3.455h0.023
		c0.354-0.613,0.99-1.012,1.875-1.012c1.365,0,2.332,1.137,2.32,2.809c0,1.967-1.24,2.943-2.467,2.943
		c-0.797,0-1.434-0.307-1.842-1.033h-0.035l-0.045,0.908H85.253z M86.286,79.474c0,0.125,0.023,0.25,0.047,0.363
		c0.193,0.693,0.773,1.172,1.5,1.172c1.047,0,1.672-0.854,1.672-2.115c0-1.102-0.568-2.047-1.637-2.047
		c-0.684,0-1.32,0.467-1.523,1.229c-0.023,0.113-0.059,0.25-0.059,0.41V79.474z"/>
	<path class="st0" d="M92.319,79.11c0.023,1.352,0.887,1.91,1.887,1.91c0.717,0,1.148-0.125,1.523-0.285l0.172,0.717
		c-0.354,0.158-0.955,0.34-1.83,0.34c-1.695,0-2.707-1.113-2.707-2.773s0.979-2.967,2.582-2.967c1.795,0,2.273,1.58,2.273,2.592
		c0,0.205-0.023,0.363-0.035,0.467H92.319z M95.253,78.394c0.012-0.637-0.262-1.625-1.387-1.625c-1.012,0-1.455,0.932-1.535,1.625
		H95.253z"/>
	<path class="st0" d="M97.456,73.608h1v8.07h-1V73.608z"/>
	<path class="st0" d="M108.411,81.339c-0.443,0.158-1.318,0.42-2.352,0.42c-1.16,0-2.115-0.295-2.865-1.012
		c-0.66-0.637-1.068-1.66-1.068-2.854c0.012-2.285,1.58-3.957,4.148-3.957c0.887,0,1.58,0.193,1.91,0.354l-0.238,0.807
		c-0.41-0.182-0.922-0.33-1.693-0.33c-1.865,0-3.082,1.16-3.082,3.082c0,1.943,1.172,3.092,2.957,3.092
		c0.646,0,1.09-0.092,1.318-0.205V78.45h-1.559v-0.795h2.523V81.339z"/>
	<path class="st0" d="M109.886,77.894c0-0.648-0.012-1.205-0.045-1.717h0.875l0.033,1.08h0.047c0.25-0.738,0.852-1.205,1.523-1.205
		c0.113,0,0.193,0.012,0.283,0.035v0.943c-0.102-0.023-0.205-0.035-0.34-0.035c-0.705,0-1.205,0.535-1.342,1.285
		c-0.023,0.137-0.047,0.295-0.047,0.465v2.934h-0.988V77.894z"/>
	<path class="st0" d="M116.591,81.679l-0.078-0.693h-0.035c-0.307,0.432-0.898,0.818-1.682,0.818c-1.115,0-1.684-0.783-1.684-1.58
		c0-1.33,1.184-2.057,3.309-2.047v-0.113c0-0.455-0.125-1.273-1.25-1.273c-0.512,0-1.047,0.16-1.432,0.41l-0.229-0.66
		c0.455-0.295,1.115-0.488,1.809-0.488c1.682,0,2.092,1.148,2.092,2.25v2.059c0,0.477,0.021,0.943,0.09,1.318H116.591z
		 M116.444,78.872c-1.092-0.023-2.33,0.17-2.33,1.238c0,0.648,0.432,0.955,0.943,0.955c0.715,0,1.17-0.455,1.33-0.922
		c0.033-0.102,0.057-0.215,0.057-0.318V78.872z"/>
	<path class="st0" d="M119.022,77.667c0-0.568-0.012-1.035-0.047-1.49h0.887l0.057,0.91h0.023c0.273-0.523,0.91-1.035,1.818-1.035
		c0.762,0,1.945,0.455,1.945,2.342v3.285h-1.002v-3.172c0-0.887-0.328-1.625-1.271-1.625c-0.66,0-1.172,0.467-1.342,1.023
		c-0.047,0.125-0.068,0.295-0.068,0.465v3.309h-1V77.667z"/>
	<path class="st0" d="M130.081,73.608v6.65c0,0.488,0.01,1.045,0.045,1.42h-0.898l-0.045-0.955h-0.023
		c-0.307,0.615-0.977,1.08-1.875,1.08c-1.33,0-2.354-1.125-2.354-2.797c-0.012-1.83,1.125-2.955,2.467-2.955
		c0.842,0,1.41,0.398,1.66,0.842h0.021v-3.285H130.081z M129.079,78.417c0-0.125-0.01-0.297-0.045-0.422
		c-0.148-0.637-0.693-1.158-1.443-1.158c-1.035,0-1.648,0.908-1.648,2.125c0,1.113,0.545,2.035,1.625,2.035
		c0.672,0,1.285-0.443,1.467-1.193c0.035-0.137,0.045-0.273,0.045-0.432V78.417z"/>
	<path class="st0" d="M132.294,79.11c0.021,1.352,0.887,1.91,1.887,1.91c0.717,0,1.148-0.125,1.523-0.285l0.17,0.717
		c-0.352,0.158-0.955,0.34-1.83,0.34c-1.693,0-2.705-1.113-2.705-2.773s0.977-2.967,2.58-2.967c1.797,0,2.273,1.58,2.273,2.592
		c0,0.205-0.021,0.363-0.033,0.467H132.294z M135.226,78.394c0.012-0.637-0.26-1.625-1.387-1.625c-1.012,0-1.455,0.932-1.533,1.625
		H135.226z"/>
	<path class="st0" d="M143.839,78.087h-2.979v2.762h3.32v0.83h-4.309v-7.662h4.139v0.83h-3.15v2.422h2.979V78.087z"/>
	<path class="st0" d="M149.306,81.474c-0.262,0.137-0.842,0.318-1.58,0.318c-1.66,0-2.74-1.125-2.74-2.807
		c0-1.695,1.16-2.922,2.955-2.922c0.592,0,1.115,0.148,1.387,0.283l-0.227,0.773c-0.238-0.137-0.613-0.262-1.16-0.262
		c-1.262,0-1.943,0.934-1.943,2.08c0,1.273,0.818,2.059,1.91,2.059c0.568,0,0.943-0.148,1.227-0.273L149.306,81.474z"/>
	<path class="st0" d="M155.384,78.882c0,2.035-1.408,2.922-2.738,2.922c-1.49,0-2.639-1.092-2.639-2.83
		c0-1.842,1.205-2.922,2.729-2.922C154.315,76.052,155.384,77.2,155.384,78.882z M151.019,78.938c0,1.205,0.693,2.115,1.672,2.115
		c0.955,0,1.672-0.898,1.672-2.137c0-0.932-0.467-2.115-1.648-2.115C151.53,76.802,151.019,77.894,151.019,78.938z"/>
	<path class="st0" d="M156.644,73.608h1v8.07h-1V73.608z"/>
	<path class="st0" d="M159.882,79.11c0.023,1.352,0.887,1.91,1.887,1.91c0.717,0,1.148-0.125,1.523-0.285l0.172,0.717
		c-0.354,0.158-0.955,0.34-1.83,0.34c-1.695,0-2.707-1.113-2.707-2.773s0.979-2.967,2.582-2.967c1.795,0,2.273,1.58,2.273,2.592
		c0,0.205-0.023,0.363-0.035,0.467H159.882z M162.815,78.394c0.012-0.637-0.262-1.625-1.387-1.625c-1.012,0-1.455,0.932-1.535,1.625
		H162.815z"/>
	<path class="st0" d="M172.179,73.608v6.65c0,0.488,0.012,1.045,0.045,1.42h-0.898l-0.045-0.955h-0.021
		c-0.309,0.615-0.979,1.08-1.877,1.08c-1.33,0-2.354-1.125-2.354-2.797c-0.01-1.83,1.127-2.955,2.467-2.955
		c0.842,0,1.41,0.398,1.66,0.842h0.023v-3.285H172.179z M171.179,78.417c0-0.125-0.012-0.297-0.045-0.422
		c-0.148-0.637-0.693-1.158-1.445-1.158c-1.033,0-1.648,0.908-1.648,2.125c0,1.113,0.547,2.035,1.627,2.035
		c0.67,0,1.283-0.443,1.467-1.193c0.033-0.137,0.045-0.273,0.045-0.432V78.417z"/>
	<path class="st0" d="M178.438,80.179c0,0.568,0.012,1.068,0.047,1.5h-0.887l-0.057-0.898h-0.023
		c-0.262,0.443-0.842,1.023-1.818,1.023c-0.865,0-1.898-0.477-1.898-2.41v-3.217h1v3.047c0,1.045,0.318,1.75,1.227,1.75
		c0.672,0,1.137-0.465,1.32-0.908c0.057-0.148,0.09-0.33,0.09-0.512v-3.377h1V80.179z"/>
	<path class="st0" d="M182.54,81.679v-7.662h1.08l2.455,3.877c0.568,0.898,1.012,1.705,1.375,2.49l0.023-0.012
		c-0.092-1.023-0.115-1.955-0.115-3.148v-3.207h0.934v7.662h-1.002l-2.432-3.887c-0.535-0.854-1.047-1.729-1.432-2.559l-0.035,0.012
		c0.057,0.967,0.08,1.887,0.08,3.16v3.273H182.54z"/>
	<path class="st0" d="M194.585,80.179c0,0.568,0.012,1.068,0.047,1.5h-0.887l-0.057-0.898h-0.023
		c-0.262,0.443-0.842,1.023-1.818,1.023c-0.865,0-1.898-0.477-1.898-2.41v-3.217h1v3.047c0,1.045,0.318,1.75,1.227,1.75
		c0.672,0,1.137-0.465,1.32-0.908c0.057-0.148,0.09-0.33,0.09-0.512v-3.377h1V80.179z"/>
	<path class="st0" d="M196.243,77.667c0-0.568-0.012-1.035-0.047-1.49h0.877l0.045,0.887h0.033c0.307-0.523,0.818-1.012,1.729-1.012
		c0.75,0,1.318,0.455,1.557,1.104h0.023c0.17-0.309,0.387-0.547,0.613-0.717c0.33-0.25,0.693-0.387,1.217-0.387
		c0.729,0,1.807,0.479,1.807,2.387v3.24h-0.977v-3.115c0-1.057-0.387-1.693-1.193-1.693c-0.568,0-1.012,0.42-1.184,0.91
		c-0.045,0.137-0.078,0.318-0.078,0.5v3.398h-0.979v-3.297c0-0.875-0.387-1.512-1.148-1.512c-0.625,0-1.08,0.5-1.238,1
		c-0.057,0.148-0.08,0.318-0.08,0.49v3.318h-0.977V77.667z"/>
	<path class="st0" d="M206.276,79.11c0.021,1.352,0.887,1.91,1.887,1.91c0.717,0,1.148-0.125,1.523-0.285l0.17,0.717
		c-0.352,0.158-0.955,0.34-1.83,0.34c-1.693,0-2.705-1.113-2.705-2.773s0.977-2.967,2.58-2.967c1.797,0,2.273,1.58,2.273,2.592
		c0,0.205-0.021,0.363-0.033,0.467H206.276z M209.208,78.394c0.012-0.637-0.26-1.625-1.387-1.625c-1.012,0-1.455,0.932-1.533,1.625
		H209.208z M209.448,73.802l-1.387,1.625h-0.717l1-1.625H209.448z"/>
	<path class="st0" d="M211.411,77.894c0-0.648-0.012-1.205-0.045-1.717h0.875l0.033,1.08h0.047c0.25-0.738,0.852-1.205,1.523-1.205
		c0.113,0,0.193,0.012,0.283,0.035v0.943c-0.102-0.023-0.205-0.035-0.34-0.035c-0.705,0-1.205,0.535-1.342,1.285
		c-0.023,0.137-0.047,0.295-0.047,0.465v2.934h-0.988V77.894z"/>
	<path class="st0" d="M216.286,74.632c0.012,0.34-0.238,0.613-0.637,0.613c-0.352,0-0.602-0.273-0.602-0.613
		c0-0.354,0.26-0.627,0.625-0.627C216.048,74.005,216.286,74.278,216.286,74.632z M215.173,81.679v-5.502h1v5.502H215.173z"/>
	<path class="st0" d="M221.583,80.827h-0.023c-0.295,0.545-0.908,0.977-1.795,0.977c-1.285,0-2.332-1.113-2.332-2.785
		c0-2.057,1.33-2.967,2.49-2.967c0.854,0,1.422,0.42,1.693,0.955h0.023l0.033-0.83h0.943c-0.021,0.467-0.033,0.943-0.033,1.512
		v6.242h-1V80.827z M221.583,78.405c0-0.137-0.012-0.295-0.045-0.42c-0.148-0.615-0.684-1.139-1.434-1.139
		c-1.033,0-1.66,0.877-1.66,2.115c0,1.092,0.523,2.047,1.627,2.047c0.646,0,1.205-0.398,1.432-1.092
		c0.045-0.137,0.08-0.33,0.08-0.477V78.405z"/>
	<path class="st0" d="M228.833,80.179c0,0.568,0.012,1.068,0.045,1.5h-0.887l-0.057-0.898h-0.023
		c-0.26,0.443-0.84,1.023-1.818,1.023c-0.863,0-1.898-0.477-1.898-2.41v-3.217h1v3.047c0,1.045,0.318,1.75,1.229,1.75
		c0.67,0,1.137-0.465,1.318-0.908c0.057-0.148,0.092-0.33,0.092-0.512v-3.377h1V80.179z"/>
	<path class="st0" d="M231.046,79.11c0.023,1.352,0.887,1.91,1.887,1.91c0.717,0,1.148-0.125,1.523-0.285l0.172,0.717
		c-0.354,0.158-0.955,0.34-1.83,0.34c-1.695,0-2.707-1.113-2.707-2.773s0.979-2.967,2.582-2.967c1.795,0,2.273,1.58,2.273,2.592
		c0,0.205-0.023,0.363-0.035,0.467H231.046z M233.979,78.394c0.012-0.637-0.262-1.625-1.387-1.625c-1.012,0-1.455,0.932-1.535,1.625
		H233.979z"/>
	<path class="st0" d="M235.806,81.087c0-0.42,0.285-0.715,0.684-0.715c0.396,0,0.67,0.295,0.67,0.715
		c0,0.41-0.262,0.717-0.682,0.717C236.079,81.804,235.806,81.497,235.806,81.087z"/>
</g>
<g>
	<path class="st3" d="M0.5,10.576V9.782l0.995-0.985c2.394-2.324,3.475-3.56,3.489-5.001c0-0.971-0.461-1.868-1.86-1.868
		c-0.851,0-1.558,0.441-1.99,0.809L0.73,1.824c0.649-0.559,1.572-0.971,2.653-0.971c2.019,0,2.87,1.412,2.87,2.78
		c0,1.765-1.254,3.192-3.23,5.134l-0.75,0.706v0.029h4.21v1.074H0.5z"/>
	<path class="st3" d="M14.128,5.692c0,3.251-1.182,5.045-3.259,5.045c-1.831,0-3.071-1.75-3.1-4.913
		c0-3.207,1.355-4.972,3.259-4.972C13.004,0.853,14.128,2.648,14.128,5.692z M9.039,5.84c0,2.486,0.75,3.898,1.903,3.898
		c1.298,0,1.918-1.544,1.918-3.986c0-2.354-0.591-3.898-1.903-3.898C9.846,1.854,9.039,3.236,9.039,5.84z"/>
	<path class="st3" d="M18.053,2.221h-0.029l-1.629,0.897L16.15,2.133l2.048-1.118h1.082v9.561h-1.226V2.221z"/>
	<path class="st3" d="M28.048,1.927c-0.26-0.015-0.591,0-0.952,0.059c-1.99,0.338-3.042,1.824-3.259,3.398h0.043
		c0.447-0.603,1.226-1.104,2.264-1.104c1.658,0,2.826,1.221,2.826,3.089c0,1.75-1.168,3.368-3.115,3.368
		c-2.004,0-3.316-1.588-3.316-4.074c0-1.883,0.663-3.369,1.586-4.31c0.779-0.779,1.817-1.265,3-1.412
		c0.375-0.059,0.692-0.073,0.923-0.073V1.927z M27.688,7.443c0-1.368-0.764-2.191-1.932-2.191c-0.765,0-1.471,0.485-1.817,1.177
		c-0.087,0.147-0.145,0.338-0.145,0.574c0.029,1.574,0.735,2.736,2.062,2.736C26.953,9.738,27.688,8.811,27.688,7.443z"/>
	<path class="st3" d="M29.435,11.165L33.458,0.5h0.98l-4.038,10.665H29.435z"/>
	<path class="st3" d="M35.046,10.576V9.782l0.995-0.985c2.394-2.324,3.475-3.56,3.489-5.001c0-0.971-0.461-1.868-1.86-1.868
		c-0.851,0-1.558,0.441-1.99,0.809l-0.404-0.912c0.649-0.559,1.572-0.971,2.653-0.971c2.019,0,2.87,1.412,2.87,2.78
		c0,1.765-1.254,3.192-3.23,5.134l-0.75,0.706v0.029h4.21v1.074H35.046z"/>
	<path class="st3" d="M48.674,5.692c0,3.251-1.182,5.045-3.259,5.045c-1.831,0-3.071-1.75-3.1-4.913
		c0-3.207,1.355-4.972,3.259-4.972C47.55,0.853,48.674,2.648,48.674,5.692z M43.584,5.84c0,2.486,0.75,3.898,1.903,3.898
		c1.298,0,1.918-1.544,1.918-3.986c0-2.354-0.591-3.898-1.903-3.898C44.392,1.854,43.584,3.236,43.584,5.84z"/>
	<path class="st3" d="M52.599,2.221H52.57L50.94,3.119l-0.245-0.986l2.048-1.118h1.082v9.561h-1.226V2.221z"/>
	<path class="st3" d="M63.33,1.015v0.853l-4.081,8.708h-1.312l4.066-8.458V2.089h-4.585V1.015H63.33z"/>
</g>
</svg>
