<?xml version="1.0" encoding="utf-8"?>
<!-- Generator: Adobe Illustrator 16.0.0, SVG Export Plug-In . SVG Version: 6.00 Build 0)  -->
<!DOCTYPE svg PUBLIC "-//W3C//DTD SVG 1.1//EN" "http://www.w3.org/Graphics/SVG/1.1/DTD/svg11.dtd">
<svg version="1.1" id="Layer_1" xmlns="http://www.w3.org/2000/svg" xmlns:xlink="http://www.w3.org/1999/xlink" x="0px" y="0px"
	 width="325.525px" height="93.808px" viewBox="0 0 325.525 93.808" style="enable-background:new 0 0 325.525 93.808;"
	 xml:space="preserve">
<style type="text/css">
<![CDATA[
	.st0{fill:#E2E2E2;}
	.st1{fill:#ECECEC;}
	.st2{fill:#FFFFFF;}
	.st3{fill:#CCCCCC;}
	.st4{fill:#FCF8F5;stroke:#FCF8F5;stroke-miterlimit:10;}
	.st5{fill:#457CBF;}
]]>
</style>
<g>
	<path class="st4" d="M1.909,28.416v-9.848h0.912v9.848H1.909z"/>
	<path class="st4" d="M6,28.416H5.195v-7.085H6v0.984c0.322-0.346,0.655-0.629,1-0.848c0.344-0.219,0.758-0.329,1.241-0.329
		c0.429,0,0.827,0.075,1.194,0.226c0.367,0.15,0.675,0.413,0.926,0.786c0.17,0.255,0.271,0.518,0.302,0.787s0.047,0.549,0.047,0.841
		v4.637H9.904v-4.623c0-0.638-0.139-1.117-0.416-1.437c-0.277-0.319-0.738-0.479-1.382-0.479c-0.25,0-0.479,0.039-0.684,0.116
		c-0.206,0.078-0.391,0.18-0.557,0.308C6.7,22.43,6.559,22.576,6.443,22.74s-0.206,0.337-0.268,0.52
		c-0.081,0.228-0.13,0.447-0.147,0.657C6.009,24.126,6,24.354,6,24.6V28.416z"/>
	<path class="st4" d="M11.957,22.015v-0.684h1.033v-1.122c0-0.565,0.112-1.012,0.335-1.341c0.224-0.328,0.604-0.492,1.14-0.492
		c0.125,0,0.242,0.004,0.349,0.014s0.214,0.023,0.322,0.041v0.752c-0.179-0.046-0.34-0.068-0.483-0.068
		c-0.206,0-0.367,0.039-0.483,0.116s-0.201,0.18-0.255,0.308c-0.054,0.128-0.087,0.271-0.101,0.431
		c-0.014,0.16-0.02,0.322-0.02,0.486v0.875h1.341v0.684h-1.341v6.401H12.99v-6.401H11.957z"/>
	<path class="st4" d="M19.147,28.607c-0.447-0.009-0.865-0.091-1.254-0.246s-0.729-0.388-1.02-0.698
		c-0.291-0.31-0.521-0.697-0.691-1.163c-0.17-0.465-0.255-1.007-0.255-1.627c0-0.52,0.067-1.005,0.201-1.457
		c0.134-0.451,0.335-0.846,0.604-1.183c0.268-0.337,0.604-0.604,1.006-0.8c0.402-0.196,0.872-0.294,1.409-0.294
		c0.545,0,1.02,0.098,1.422,0.294c0.403,0.196,0.738,0.46,1.006,0.793c0.269,0.333,0.467,0.728,0.597,1.183
		c0.129,0.456,0.194,0.944,0.194,1.464c0,0.565-0.076,1.076-0.228,1.532c-0.152,0.456-0.369,0.848-0.65,1.176
		c-0.282,0.329-0.622,0.582-1.02,0.759S19.63,28.607,19.147,28.607z M21.509,24.874c0-0.419-0.045-0.812-0.134-1.176
		s-0.228-0.682-0.416-0.951c-0.188-0.269-0.429-0.481-0.724-0.636c-0.295-0.155-0.658-0.232-1.087-0.232
		c-0.42,0-0.78,0.084-1.08,0.253c-0.3,0.169-0.543,0.392-0.731,0.67s-0.327,0.597-0.416,0.958s-0.134,0.731-0.134,1.115
		c0,0.438,0.052,0.841,0.154,1.21c0.103,0.369,0.253,0.686,0.45,0.951s0.443,0.47,0.738,0.615c0.295,0.146,0.635,0.219,1.02,0.219
		c0.42,0,0.78-0.084,1.08-0.253c0.299-0.168,0.543-0.394,0.731-0.677c0.188-0.283,0.327-0.602,0.416-0.958
		C21.464,25.625,21.509,25.256,21.509,24.874z"/>
	<path class="st4" d="M29.209,21.331h0.805v6.401c0,0.475-0.047,0.928-0.141,1.361c-0.094,0.433-0.261,0.813-0.503,1.142
		c-0.242,0.328-0.572,0.59-0.993,0.786c-0.42,0.196-0.961,0.294-1.624,0.294c-0.51,0-0.948-0.066-1.314-0.199
		c-0.367-0.132-0.667-0.298-0.899-0.499c-0.233-0.201-0.409-0.422-0.53-0.664c-0.121-0.242-0.186-0.467-0.195-0.677h0.859
		c0.062,0.264,0.161,0.481,0.295,0.649c0.134,0.169,0.293,0.301,0.476,0.397c0.184,0.096,0.387,0.162,0.611,0.198
		c0.223,0.036,0.456,0.055,0.697,0.055c0.545,0,0.984-0.096,1.315-0.287c0.331-0.191,0.581-0.442,0.751-0.752
		s0.28-0.661,0.329-1.053c0.049-0.392,0.069-0.793,0.06-1.204c-0.259,0.438-0.615,0.768-1.066,0.992
		c-0.452,0.223-0.923,0.335-1.416,0.335c-0.528,0-0.986-0.103-1.375-0.308s-0.711-0.479-0.966-0.821s-0.445-0.741-0.57-1.197
		c-0.125-0.456-0.188-0.93-0.188-1.422c0-0.52,0.058-1.008,0.174-1.464c0.116-0.456,0.302-0.85,0.557-1.183
		c0.255-0.333,0.579-0.595,0.973-0.786c0.394-0.192,0.872-0.288,1.436-0.288c0.223,0,0.452,0.032,0.684,0.096
		c0.232,0.064,0.458,0.155,0.678,0.274c0.219,0.119,0.42,0.269,0.604,0.451c0.183,0.183,0.333,0.388,0.449,0.616h0.027V21.331z
		 M29.209,24.901c0-0.429-0.051-0.828-0.154-1.197c-0.103-0.37-0.252-0.688-0.449-0.958s-0.443-0.481-0.738-0.636
		c-0.295-0.155-0.631-0.232-1.006-0.232c-0.34,0-0.653,0.062-0.939,0.185c-0.287,0.123-0.537,0.303-0.751,0.541
		c-0.214,0.237-0.382,0.526-0.503,0.869c-0.121,0.342-0.181,0.736-0.181,1.183c-0.018,0.447,0.018,0.864,0.107,1.251
		s0.232,0.727,0.429,1.019s0.447,0.522,0.751,0.69c0.304,0.169,0.666,0.253,1.086,0.253c0.367,0,0.695-0.08,0.986-0.24
		c0.291-0.159,0.537-0.374,0.738-0.643s0.355-0.583,0.463-0.944C29.155,25.683,29.209,25.302,29.209,24.901z"/>
	<path class="st4" d="M32.885,28.416h-0.805v-7.085h0.805v1.327h0.027c0.224-0.565,0.512-0.959,0.865-1.183s0.821-0.335,1.402-0.335
		v0.889c-0.456-0.009-0.832,0.064-1.127,0.219c-0.295,0.155-0.53,0.365-0.704,0.629c-0.174,0.265-0.295,0.577-0.362,0.937
		c-0.067,0.36-0.101,0.736-0.101,1.128V28.416z"/>
	<path class="st4" d="M39.7,24.285c0.152-0.018,0.333-0.045,0.543-0.082c0.21-0.036,0.382-0.086,0.517-0.15
		c0.134-0.063,0.217-0.171,0.248-0.321s0.047-0.29,0.047-0.417c0-0.419-0.132-0.764-0.396-1.033
		c-0.264-0.269-0.709-0.403-1.335-0.403c-0.277,0-0.532,0.025-0.765,0.075c-0.233,0.05-0.436,0.137-0.61,0.26
		s-0.318,0.288-0.429,0.493c-0.112,0.205-0.186,0.463-0.222,0.773H36.48c0.027-0.419,0.121-0.777,0.282-1.074
		c0.161-0.296,0.369-0.538,0.624-0.725s0.55-0.324,0.885-0.411c0.335-0.086,0.691-0.13,1.066-0.13c0.349,0,0.678,0.039,0.986,0.116
		c0.309,0.078,0.577,0.201,0.805,0.37s0.407,0.395,0.537,0.677c0.13,0.283,0.195,0.629,0.195,1.04v3.857
		c0,0.319,0.056,0.522,0.167,0.608c0.112,0.087,0.337,0.066,0.678-0.062v0.643c-0.063,0.019-0.154,0.045-0.275,0.082
		c-0.121,0.036-0.239,0.055-0.355,0.055c-0.125,0-0.246-0.014-0.362-0.041c-0.134-0.019-0.242-0.062-0.322-0.13
		s-0.146-0.15-0.194-0.246c-0.049-0.096-0.083-0.201-0.101-0.315c-0.018-0.114-0.027-0.234-0.027-0.362
		c-0.34,0.383-0.729,0.675-1.167,0.875c-0.438,0.2-0.912,0.301-1.422,0.301c-0.304,0-0.597-0.041-0.879-0.123
		s-0.53-0.209-0.744-0.383c-0.215-0.173-0.385-0.385-0.51-0.636c-0.125-0.25-0.188-0.549-0.188-0.896
		c0-1.204,0.809-1.915,2.428-2.134L39.7,24.285z M41.055,24.696c-0.34,0.146-0.684,0.242-1.033,0.287
		c-0.349,0.046-0.698,0.082-1.046,0.109c-0.617,0.046-1.098,0.187-1.442,0.424c-0.344,0.237-0.517,0.598-0.517,1.081
		c0,0.219,0.042,0.408,0.127,0.568s0.197,0.292,0.335,0.396c0.139,0.105,0.3,0.183,0.483,0.232c0.183,0.05,0.369,0.076,0.557,0.076
		c0.322,0,0.635-0.042,0.939-0.124c0.304-0.082,0.574-0.207,0.812-0.376c0.237-0.168,0.427-0.383,0.57-0.643
		c0.143-0.26,0.214-0.567,0.214-0.923V24.696z"/>
	<path class="st4" d="M44.865,31.207h-0.805v-9.875h0.805v1.245h0.027c0.116-0.228,0.266-0.433,0.449-0.616
		c0.184-0.182,0.385-0.333,0.604-0.451c0.219-0.119,0.445-0.21,0.677-0.274c0.232-0.063,0.46-0.096,0.685-0.096
		c0.563,0,1.042,0.096,1.435,0.288c0.394,0.191,0.718,0.454,0.973,0.786c0.255,0.333,0.44,0.728,0.557,1.183
		c0.116,0.456,0.174,0.944,0.174,1.464c0,0.492-0.063,0.966-0.188,1.422c-0.125,0.456-0.315,0.855-0.57,1.197
		s-0.577,0.616-0.966,0.821s-0.848,0.308-1.375,0.308c-0.492,0-0.964-0.112-1.416-0.335c-0.452-0.224-0.807-0.554-1.066-0.992
		V31.207z M44.865,24.901c0,0.401,0.054,0.782,0.161,1.142s0.262,0.675,0.463,0.944s0.447,0.483,0.738,0.643
		c0.291,0.16,0.619,0.24,0.986,0.24c0.411,0,0.771-0.084,1.08-0.253c0.309-0.168,0.561-0.398,0.758-0.69s0.34-0.631,0.43-1.019
		c0.089-0.388,0.125-0.805,0.107-1.251c0-0.447-0.06-0.841-0.181-1.183c-0.121-0.342-0.288-0.631-0.503-0.869
		s-0.465-0.417-0.751-0.541s-0.599-0.185-0.939-0.185c-0.375,0-0.711,0.078-1.006,0.232c-0.295,0.155-0.542,0.367-0.738,0.636
		s-0.347,0.588-0.449,0.958C44.917,24.073,44.865,24.472,44.865,24.901z"/>
	<path class="st4" d="M52.163,28.416v-9.848h0.805v3.748c0.322-0.346,0.655-0.629,1-0.848c0.344-0.219,0.758-0.329,1.241-0.329
		c0.429,0,0.827,0.075,1.194,0.226c0.367,0.15,0.675,0.413,0.926,0.786c0.17,0.255,0.271,0.518,0.302,0.787s0.047,0.549,0.047,0.841
		v4.637h-0.805v-4.623c0-0.638-0.139-1.117-0.416-1.437c-0.277-0.319-0.738-0.479-1.382-0.479c-0.25,0-0.479,0.039-0.684,0.116
		c-0.206,0.078-0.391,0.18-0.557,0.308c-0.166,0.128-0.307,0.274-0.423,0.438s-0.206,0.337-0.268,0.52
		c-0.081,0.228-0.13,0.447-0.147,0.657c-0.018,0.21-0.027,0.438-0.027,0.684v3.816H52.163z"/>
	<path class="st4" d="M59.703,19.785v-1.217h0.885v1.217H59.703z M59.743,28.416v-7.085h0.805v7.085H59.743z"/>
	<path class="st4" d="M63.07,26.2c0.125,0.611,0.351,1.042,0.677,1.292c0.327,0.251,0.794,0.376,1.402,0.376
		c0.295,0,0.55-0.037,0.765-0.11c0.214-0.073,0.391-0.171,0.53-0.294s0.244-0.262,0.315-0.417c0.071-0.155,0.107-0.319,0.107-0.493
		c0-0.346-0.109-0.604-0.329-0.772c-0.219-0.169-0.494-0.301-0.825-0.397c-0.331-0.096-0.688-0.178-1.073-0.246
		c-0.384-0.068-0.742-0.171-1.073-0.308c-0.331-0.137-0.606-0.333-0.825-0.588c-0.219-0.255-0.329-0.615-0.329-1.081
		c0-0.593,0.212-1.078,0.637-1.457c0.424-0.378,1.026-0.568,1.804-0.568c0.751,0,1.362,0.171,1.831,0.513
		c0.47,0.342,0.753,0.914,0.852,1.716h-0.818c-0.072-0.547-0.275-0.932-0.61-1.156c-0.335-0.223-0.758-0.335-1.268-0.335
		s-0.899,0.112-1.167,0.335c-0.268,0.224-0.402,0.518-0.402,0.882c0,0.319,0.109,0.563,0.329,0.732s0.494,0.306,0.825,0.41
		c0.331,0.105,0.688,0.198,1.073,0.28c0.384,0.083,0.742,0.199,1.073,0.349c0.331,0.15,0.606,0.354,0.825,0.608
		c0.219,0.255,0.329,0.611,0.329,1.067c0,0.337-0.072,0.636-0.215,0.896s-0.34,0.477-0.59,0.65s-0.548,0.303-0.892,0.39
		s-0.722,0.13-1.134,0.13c-0.411,0-0.776-0.062-1.093-0.185s-0.588-0.294-0.812-0.513c-0.224-0.219-0.398-0.474-0.523-0.766
		c-0.125-0.292-0.197-0.606-0.214-0.944H63.07z"/>
	<path class="st4" d="M71.75,28.443c-0.099,0.018-0.228,0.05-0.389,0.096c-0.161,0.045-0.34,0.068-0.537,0.068
		c-0.402,0-0.709-0.103-0.919-0.308c-0.21-0.205-0.315-0.572-0.315-1.101v-5.184h-0.979v-0.684h0.979v-1.97h0.805v1.97h1.301v0.684
		h-1.301v4.856c0,0.173,0.004,0.324,0.013,0.451c0.009,0.128,0.036,0.232,0.081,0.314c0.044,0.082,0.114,0.142,0.208,0.178
		c0.094,0.037,0.226,0.055,0.396,0.055c0.107,0,0.217-0.009,0.329-0.028c0.111-0.018,0.221-0.041,0.329-0.068V28.443z"/>
	<path class="st4" d="M73.534,25.065c0,0.383,0.049,0.746,0.148,1.087c0.098,0.342,0.243,0.638,0.436,0.889s0.436,0.451,0.73,0.602
		c0.296,0.15,0.636,0.226,1.02,0.226c0.528,0,0.98-0.142,1.355-0.424c0.376-0.283,0.626-0.684,0.752-1.204h0.898
		c-0.099,0.337-0.229,0.65-0.389,0.937c-0.162,0.287-0.363,0.538-0.604,0.752c-0.242,0.214-0.528,0.381-0.859,0.499
		s-0.715,0.178-1.154,0.178c-0.554,0-1.032-0.096-1.435-0.287c-0.403-0.191-0.733-0.454-0.993-0.787
		c-0.26-0.333-0.451-0.725-0.577-1.176c-0.125-0.451-0.188-0.937-0.188-1.457c0-0.52,0.074-1.007,0.222-1.464
		c0.147-0.456,0.357-0.854,0.631-1.197c0.272-0.342,0.605-0.611,0.999-0.807c0.394-0.196,0.841-0.294,1.341-0.294
		c0.957,0,1.709,0.335,2.254,1.005c0.546,0.67,0.814,1.644,0.806,2.92H73.534z M78.069,24.381c0-0.346-0.047-0.672-0.141-0.978
		c-0.094-0.305-0.233-0.569-0.416-0.793c-0.184-0.224-0.414-0.401-0.691-0.534c-0.277-0.132-0.595-0.198-0.953-0.198
		c-0.357,0-0.672,0.068-0.945,0.205c-0.272,0.137-0.506,0.319-0.697,0.547c-0.192,0.228-0.347,0.492-0.463,0.793
		c-0.116,0.301-0.192,0.621-0.229,0.958H78.069z"/>
	<path class="st4" d="M84.723,25.065c0,0.383,0.049,0.746,0.146,1.087c0.099,0.342,0.244,0.638,0.437,0.889s0.437,0.451,0.731,0.602
		s0.635,0.226,1.02,0.226c0.527,0,0.979-0.142,1.354-0.424c0.377-0.283,0.627-0.684,0.752-1.204h0.898
		c-0.098,0.337-0.229,0.65-0.389,0.937s-0.361,0.538-0.604,0.752s-0.527,0.381-0.858,0.499s-0.716,0.178-1.153,0.178
		c-0.555,0-1.033-0.096-1.436-0.287s-0.733-0.454-0.993-0.787c-0.259-0.333-0.452-0.725-0.577-1.176
		c-0.125-0.451-0.188-0.937-0.188-1.457c0-0.52,0.074-1.007,0.222-1.464c0.147-0.456,0.357-0.854,0.63-1.197
		c0.273-0.342,0.606-0.611,1-0.807c0.394-0.196,0.84-0.294,1.342-0.294c0.957,0,1.707,0.335,2.254,1.005
		c0.545,0.67,0.812,1.644,0.805,2.92H84.723z M89.256,24.381c0-0.346-0.047-0.672-0.141-0.978c-0.094-0.305-0.232-0.569-0.416-0.793
		s-0.413-0.401-0.69-0.534c-0.277-0.132-0.595-0.198-0.952-0.198s-0.674,0.068-0.946,0.205s-0.505,0.319-0.697,0.547
		s-0.347,0.492-0.463,0.793c-0.116,0.301-0.192,0.621-0.228,0.958H89.256z"/>
	<path class="st4" d="M94.127,28.443c-0.1,0.018-0.229,0.05-0.389,0.096c-0.162,0.045-0.34,0.068-0.537,0.068
		c-0.402,0-0.709-0.103-0.92-0.308c-0.209-0.205-0.314-0.572-0.314-1.101v-5.184h-0.979v-0.684h0.979v-1.97h0.805v1.97h1.301v0.684
		h-1.301v4.856c0,0.173,0.004,0.324,0.014,0.451c0.01,0.128,0.035,0.232,0.08,0.314s0.115,0.142,0.209,0.178
		c0.094,0.037,0.225,0.055,0.395,0.055c0.107,0,0.217-0.009,0.33-0.028c0.111-0.018,0.221-0.041,0.328-0.068V28.443z"/>
	<path class="st4" d="M105.02,27.322l1.824-5.991h0.818l-2.252,7.085h-0.859l-1.516-5.95h-0.027l-1.543,5.95H100.5l-2.121-7.085
		h0.805l1.799,6.045l1.609-6.045h0.898L105.02,27.322z"/>
	<path class="st4" d="M109.327,25.065c0,0.383,0.049,0.746,0.148,1.087c0.098,0.342,0.242,0.638,0.436,0.889
		c0.191,0.251,0.436,0.451,0.73,0.602s0.635,0.226,1.02,0.226c0.527,0,0.98-0.142,1.355-0.424s0.625-0.684,0.752-1.204h0.898
		c-0.1,0.337-0.229,0.65-0.389,0.937c-0.162,0.287-0.363,0.538-0.605,0.752c-0.24,0.214-0.527,0.381-0.857,0.499
		c-0.332,0.118-0.717,0.178-1.154,0.178c-0.555,0-1.033-0.096-1.436-0.287s-0.732-0.454-0.992-0.787
		c-0.26-0.333-0.451-0.725-0.576-1.176c-0.127-0.451-0.189-0.937-0.189-1.457c0-0.52,0.074-1.007,0.223-1.464
		c0.146-0.456,0.357-0.854,0.631-1.197c0.271-0.342,0.605-0.611,0.998-0.807c0.395-0.196,0.842-0.294,1.342-0.294
		c0.957,0,1.709,0.335,2.254,1.005c0.545,0.67,0.814,1.644,0.805,2.92H109.327z M113.862,24.381c0-0.346-0.047-0.672-0.143-0.978
		c-0.094-0.305-0.232-0.569-0.414-0.793c-0.184-0.224-0.414-0.401-0.691-0.534c-0.277-0.132-0.596-0.198-0.953-0.198
		s-0.674,0.068-0.945,0.205c-0.273,0.137-0.506,0.319-0.697,0.547c-0.193,0.228-0.348,0.492-0.463,0.793
		c-0.117,0.301-0.193,0.621-0.229,0.958H113.862z"/>
	<path class="st4" d="M117.188,28.416h-0.805v-9.848h0.805v3.898c0.26-0.438,0.615-0.768,1.066-0.992s0.924-0.335,1.416-0.335
		c0.527,0,0.986,0.103,1.375,0.308c0.389,0.205,0.711,0.479,0.965,0.82c0.256,0.342,0.445,0.741,0.57,1.197
		c0.125,0.457,0.188,0.93,0.188,1.423c0,0.52-0.057,1.008-0.174,1.463c-0.115,0.456-0.301,0.851-0.557,1.183
		c-0.254,0.333-0.578,0.595-0.973,0.787c-0.393,0.191-0.871,0.287-1.436,0.287c-0.223,0-0.451-0.032-0.684-0.096
		s-0.459-0.155-0.678-0.273s-0.42-0.267-0.604-0.445c-0.184-0.178-0.334-0.385-0.449-0.622h-0.027V28.416z M117.188,24.846
		c0,0.429,0.051,0.828,0.154,1.197s0.252,0.688,0.449,0.958s0.443,0.481,0.738,0.636c0.295,0.155,0.631,0.233,1.006,0.233
		c0.34,0,0.652-0.062,0.939-0.185c0.285-0.123,0.537-0.303,0.752-0.54c0.213-0.237,0.381-0.527,0.502-0.869s0.182-0.736,0.182-1.183
		c0.018-0.447-0.018-0.864-0.107-1.251s-0.232-0.727-0.43-1.019s-0.449-0.522-0.758-0.691c-0.309-0.168-0.668-0.253-1.08-0.253
		c-0.367,0-0.695,0.08-0.986,0.239c-0.291,0.16-0.537,0.374-0.738,0.643s-0.355,0.583-0.463,0.944S117.188,24.445,117.188,24.846z"
		/>
	<path class="st4" d="M133.583,18.568h0.805v9.848h-0.805v-1.245h-0.027c-0.115,0.237-0.266,0.444-0.449,0.622
		c-0.184,0.178-0.385,0.326-0.604,0.445s-0.445,0.209-0.678,0.273s-0.461,0.096-0.684,0.096c-0.564,0-1.043-0.096-1.436-0.287
		c-0.395-0.191-0.719-0.454-0.973-0.787c-0.256-0.333-0.441-0.727-0.557-1.183c-0.117-0.456-0.176-0.944-0.176-1.463
		c0-0.493,0.062-0.966,0.189-1.423c0.125-0.456,0.314-0.854,0.568-1.197c0.256-0.342,0.578-0.615,0.967-0.82
		c0.389-0.206,0.848-0.308,1.375-0.308c0.492,0,0.963,0.112,1.416,0.335c0.451,0.224,0.807,0.554,1.066,0.992V18.568z
		 M133.583,24.846c0-0.401-0.055-0.782-0.162-1.142s-0.262-0.675-0.463-0.944s-0.447-0.483-0.736-0.643
		c-0.291-0.159-0.621-0.239-0.986-0.239c-0.422,0-0.783,0.084-1.088,0.253c-0.303,0.169-0.555,0.399-0.75,0.691
		c-0.197,0.292-0.34,0.631-0.43,1.019s-0.125,0.805-0.107,1.251c0,0.447,0.061,0.841,0.182,1.183s0.287,0.631,0.502,0.869
		s0.465,0.417,0.752,0.54c0.285,0.123,0.6,0.185,0.939,0.185c0.375,0,0.711-0.078,1.006-0.233c0.295-0.155,0.541-0.367,0.738-0.636
		c0.195-0.269,0.346-0.588,0.449-0.958C133.53,25.674,133.583,25.275,133.583,24.846z"/>
	<path class="st4" d="M136.909,25.065c0,0.383,0.049,0.746,0.148,1.087c0.098,0.342,0.242,0.638,0.436,0.889
		c0.191,0.251,0.436,0.451,0.73,0.602s0.635,0.226,1.02,0.226c0.527,0,0.98-0.142,1.355-0.424s0.625-0.684,0.752-1.204h0.898
		c-0.1,0.337-0.229,0.65-0.389,0.937c-0.162,0.287-0.363,0.538-0.605,0.752c-0.24,0.214-0.527,0.381-0.857,0.499
		c-0.332,0.118-0.717,0.178-1.154,0.178c-0.555,0-1.033-0.096-1.436-0.287s-0.732-0.454-0.992-0.787
		c-0.26-0.333-0.451-0.725-0.576-1.176c-0.127-0.451-0.189-0.937-0.189-1.457c0-0.52,0.074-1.007,0.223-1.464
		c0.146-0.456,0.357-0.854,0.631-1.197c0.271-0.342,0.605-0.611,0.998-0.807c0.395-0.196,0.842-0.294,1.342-0.294
		c0.957,0,1.709,0.335,2.254,1.005c0.545,0.67,0.814,1.644,0.805,2.92H136.909z M141.444,24.381c0-0.346-0.047-0.672-0.143-0.978
		c-0.094-0.305-0.232-0.569-0.414-0.793c-0.184-0.224-0.414-0.401-0.691-0.534c-0.277-0.132-0.596-0.198-0.953-0.198
		s-0.674,0.068-0.945,0.205c-0.273,0.137-0.506,0.319-0.697,0.547c-0.193,0.228-0.348,0.492-0.463,0.793
		c-0.117,0.301-0.193,0.621-0.229,0.958H141.444z"/>
	<path class="st4" d="M144.34,26.2c0.125,0.611,0.352,1.042,0.678,1.292c0.326,0.251,0.793,0.376,1.402,0.376
		c0.295,0,0.549-0.037,0.764-0.11c0.215-0.073,0.393-0.171,0.531-0.294s0.242-0.262,0.314-0.417s0.107-0.319,0.107-0.493
		c0-0.346-0.109-0.604-0.328-0.772c-0.219-0.169-0.494-0.301-0.826-0.397c-0.33-0.096-0.688-0.178-1.072-0.246
		s-0.742-0.171-1.074-0.308c-0.33-0.137-0.605-0.333-0.824-0.588c-0.219-0.255-0.328-0.615-0.328-1.081
		c0-0.593,0.211-1.078,0.637-1.457c0.424-0.378,1.025-0.568,1.805-0.568c0.75,0,1.361,0.171,1.83,0.513
		c0.471,0.342,0.754,0.914,0.854,1.716h-0.818c-0.072-0.547-0.275-0.932-0.611-1.156c-0.336-0.223-0.758-0.335-1.268-0.335
		s-0.898,0.112-1.168,0.335c-0.268,0.224-0.402,0.518-0.402,0.882c0,0.319,0.109,0.563,0.33,0.732
		c0.219,0.169,0.492,0.306,0.824,0.41c0.33,0.105,0.689,0.198,1.072,0.28c0.385,0.083,0.742,0.199,1.074,0.349
		c0.33,0.15,0.605,0.354,0.824,0.608c0.221,0.255,0.33,0.611,0.33,1.067c0,0.337-0.072,0.636-0.215,0.896
		c-0.145,0.26-0.34,0.477-0.59,0.65c-0.252,0.173-0.549,0.303-0.893,0.39c-0.346,0.086-0.723,0.13-1.135,0.13
		c-0.41,0-0.775-0.062-1.092-0.185c-0.318-0.123-0.59-0.294-0.812-0.513c-0.225-0.219-0.398-0.474-0.523-0.766
		s-0.197-0.606-0.215-0.944H144.34z"/>
	<path class="st4" d="M150.661,19.785v-1.217h0.885v1.217H150.661z M150.7,28.416v-7.085h0.805v7.085H150.7z"/>
	<path class="st4" d="M158.922,21.331h0.805v6.401c0,0.475-0.047,0.928-0.141,1.361c-0.094,0.433-0.262,0.813-0.502,1.142
		c-0.242,0.328-0.572,0.59-0.994,0.786c-0.42,0.196-0.961,0.294-1.623,0.294c-0.51,0-0.947-0.066-1.314-0.199
		c-0.367-0.132-0.666-0.298-0.898-0.499s-0.41-0.422-0.529-0.664c-0.121-0.242-0.186-0.467-0.195-0.677h0.859
		c0.062,0.264,0.16,0.481,0.295,0.649c0.133,0.169,0.293,0.301,0.477,0.397c0.182,0.096,0.387,0.162,0.609,0.198
		c0.225,0.036,0.457,0.055,0.697,0.055c0.547,0,0.984-0.096,1.314-0.287c0.332-0.191,0.582-0.442,0.752-0.752
		s0.279-0.661,0.328-1.053c0.051-0.392,0.07-0.793,0.061-1.204c-0.26,0.438-0.615,0.768-1.066,0.992
		c-0.451,0.223-0.924,0.335-1.414,0.335c-0.529,0-0.986-0.103-1.375-0.308c-0.391-0.205-0.713-0.479-0.967-0.821
		c-0.256-0.342-0.445-0.741-0.57-1.197s-0.188-0.93-0.188-1.422c0-0.52,0.059-1.008,0.174-1.464c0.117-0.456,0.303-0.85,0.557-1.183
		c0.256-0.333,0.58-0.595,0.973-0.786c0.395-0.192,0.873-0.288,1.436-0.288c0.225,0,0.451,0.032,0.686,0.096
		c0.232,0.064,0.457,0.155,0.676,0.274c0.221,0.119,0.422,0.269,0.604,0.451c0.184,0.183,0.334,0.388,0.451,0.616h0.025V21.331z
		 M158.922,24.901c0-0.429-0.051-0.828-0.154-1.197c-0.102-0.37-0.252-0.688-0.449-0.958s-0.441-0.481-0.738-0.636
		c-0.295-0.155-0.629-0.232-1.006-0.232c-0.34,0-0.652,0.062-0.939,0.185c-0.285,0.123-0.535,0.303-0.75,0.541
		s-0.383,0.526-0.504,0.869c-0.121,0.342-0.18,0.736-0.18,1.183c-0.02,0.447,0.018,0.864,0.105,1.251
		c0.09,0.388,0.232,0.727,0.43,1.019s0.447,0.522,0.752,0.69c0.305,0.169,0.666,0.253,1.086,0.253c0.367,0,0.695-0.08,0.986-0.24
		c0.291-0.159,0.537-0.374,0.738-0.643s0.355-0.583,0.463-0.944S158.922,25.302,158.922,24.901z"/>
	<path class="st4" d="M162.559,28.416h-0.805v-7.085h0.805v0.984c0.322-0.346,0.654-0.629,1-0.848
		c0.344-0.219,0.758-0.329,1.24-0.329c0.43,0,0.828,0.075,1.193,0.226c0.367,0.15,0.676,0.413,0.926,0.786
		c0.17,0.255,0.271,0.518,0.303,0.787s0.047,0.549,0.047,0.841v4.637h-0.805v-4.623c0-0.638-0.139-1.117-0.416-1.437
		c-0.277-0.319-0.738-0.479-1.383-0.479c-0.25,0-0.479,0.039-0.684,0.116c-0.205,0.078-0.391,0.18-0.557,0.308
		c-0.166,0.128-0.307,0.274-0.422,0.438c-0.117,0.164-0.207,0.337-0.27,0.52c-0.08,0.228-0.129,0.447-0.146,0.657
		c-0.02,0.21-0.027,0.438-0.027,0.684V28.416z"/>
	<path class="st4" d="M169.709,25.065c0,0.383,0.049,0.746,0.148,1.087c0.098,0.342,0.242,0.638,0.436,0.889
		c0.191,0.251,0.436,0.451,0.73,0.602s0.635,0.226,1.02,0.226c0.527,0,0.98-0.142,1.355-0.424s0.625-0.684,0.752-1.204h0.898
		c-0.1,0.337-0.229,0.65-0.389,0.937c-0.162,0.287-0.363,0.538-0.605,0.752c-0.24,0.214-0.527,0.381-0.857,0.499
		c-0.332,0.118-0.717,0.178-1.154,0.178c-0.555,0-1.033-0.096-1.436-0.287s-0.732-0.454-0.992-0.787
		c-0.26-0.333-0.451-0.725-0.576-1.176c-0.127-0.451-0.189-0.937-0.189-1.457c0-0.52,0.074-1.007,0.223-1.464
		c0.146-0.456,0.357-0.854,0.631-1.197c0.271-0.342,0.605-0.611,0.998-0.807c0.395-0.196,0.842-0.294,1.342-0.294
		c0.957,0,1.709,0.335,2.254,1.005c0.545,0.67,0.814,1.644,0.805,2.92H169.709z M174.245,24.381c0-0.346-0.047-0.672-0.143-0.978
		c-0.094-0.305-0.232-0.569-0.414-0.793c-0.184-0.224-0.414-0.401-0.691-0.534c-0.277-0.132-0.596-0.198-0.953-0.198
		s-0.674,0.068-0.945,0.205c-0.273,0.137-0.506,0.319-0.697,0.547c-0.193,0.228-0.348,0.492-0.463,0.793
		c-0.117,0.301-0.193,0.621-0.229,0.958H174.245z"/>
	<path class="st4" d="M177.518,28.416h-0.807v-7.085h0.807v1.327h0.025c0.225-0.565,0.512-0.959,0.865-1.183s0.82-0.335,1.402-0.335
		v0.889c-0.455-0.009-0.832,0.064-1.127,0.219c-0.295,0.155-0.529,0.365-0.703,0.629c-0.176,0.265-0.297,0.577-0.363,0.937
		s-0.1,0.736-0.1,1.128V28.416z"/>
	<path class="st2" d="M2.434,38.74l-0.731,2.216H0.761l2.394-7.045h1.098l2.404,7.045H5.685L4.932,38.74H2.434z M4.744,38.029
		l-0.69-2.028c-0.157-0.459-0.261-0.878-0.366-1.286H3.667c-0.104,0.418-0.219,0.847-0.355,1.275l-0.69,2.038H4.744z"/>
	<path class="st2" d="M7.47,40.015c0.271,0.178,0.752,0.366,1.212,0.366c0.669,0,0.982-0.334,0.982-0.753
		c0-0.439-0.261-0.679-0.94-0.93c-0.91-0.324-1.338-0.826-1.338-1.432c0-0.815,0.658-1.484,1.745-1.484
		c0.512,0,0.962,0.146,1.244,0.313l-0.23,0.669c-0.199-0.125-0.564-0.292-1.035-0.292c-0.544,0-0.847,0.313-0.847,0.69
		c0,0.418,0.303,0.606,0.961,0.857c0.878,0.334,1.328,0.773,1.328,1.526c0,0.889-0.69,1.516-1.892,1.516
		c-0.554,0-1.066-0.136-1.421-0.345L7.47,40.015z"/>
	<path class="st2" d="M11.608,40.015c0.271,0.178,0.752,0.366,1.212,0.366c0.669,0,0.982-0.334,0.982-0.753
		c0-0.439-0.261-0.679-0.94-0.93c-0.91-0.324-1.338-0.826-1.338-1.432c0-0.815,0.658-1.484,1.745-1.484
		c0.512,0,0.962,0.146,1.244,0.313l-0.23,0.669c-0.199-0.125-0.564-0.292-1.035-0.292c-0.544,0-0.847,0.313-0.847,0.69
		c0,0.418,0.303,0.606,0.961,0.857c0.878,0.334,1.328,0.773,1.328,1.526c0,0.889-0.69,1.516-1.892,1.516
		c-0.554,0-1.066-0.136-1.421-0.345L11.608,40.015z"/>
	<path class="st2" d="M20.45,38.384c0,1.871-1.296,2.686-2.519,2.686c-1.37,0-2.425-1.003-2.425-2.603
		c0-1.693,1.108-2.686,2.509-2.686C19.467,35.782,20.45,36.837,20.45,38.384z M16.436,38.437c0,1.108,0.637,1.944,1.536,1.944
		c0.878,0,1.537-0.826,1.537-1.965c0-0.857-0.429-1.944-1.516-1.944S16.436,37.475,16.436,38.437z"/>
	<path class="st2" d="M25.214,40.768c-0.241,0.125-0.773,0.292-1.453,0.292c-1.526,0-2.519-1.035-2.519-2.582
		c0-1.558,1.066-2.687,2.718-2.687c0.543,0,1.024,0.136,1.275,0.261l-0.209,0.711c-0.22-0.125-0.564-0.24-1.066-0.24
		c-1.16,0-1.787,0.857-1.787,1.913c0,1.171,0.752,1.892,1.756,1.892c0.522,0,0.868-0.136,1.129-0.251L25.214,40.768z"/>
	<path class="st2" d="M27.314,34.475c0.011,0.313-0.219,0.564-0.585,0.564c-0.324,0-0.554-0.251-0.554-0.564
		c0-0.324,0.241-0.575,0.575-0.575C27.095,33.9,27.314,34.151,27.314,34.475z M26.29,40.956v-5.059h0.919v5.059H26.29z"/>
	<path class="st2" d="M31.537,40.956l-0.073-0.638h-0.032c-0.282,0.397-0.826,0.752-1.547,0.752c-1.024,0-1.547-0.721-1.547-1.453
		c0-1.223,1.087-1.892,3.042-1.881v-0.104c0-0.418-0.115-1.171-1.149-1.171c-0.471,0-0.962,0.146-1.317,0.376l-0.209-0.606
		c0.418-0.271,1.024-0.449,1.662-0.449c1.547,0,1.923,1.056,1.923,2.069v1.892c0,0.439,0.021,0.868,0.083,1.212H31.537z
		 M31.4,38.374c-1.003-0.021-2.143,0.157-2.143,1.139c0,0.596,0.397,0.878,0.868,0.878c0.658,0,1.077-0.418,1.223-0.847
		c0.031-0.094,0.052-0.199,0.052-0.292V38.374z"/>
	<path class="st2" d="M34.838,34.444v1.453h1.317v0.701h-1.317v2.728c0,0.627,0.178,0.982,0.69,0.982
		c0.24,0,0.418-0.031,0.533-0.063l0.042,0.69c-0.178,0.073-0.46,0.125-0.815,0.125c-0.428,0-0.773-0.136-0.993-0.387
		c-0.262-0.272-0.355-0.721-0.355-1.317v-2.759h-0.784v-0.701h0.784v-1.212L34.838,34.444z"/>
	<path class="st2" d="M38.213,34.475c0.011,0.313-0.219,0.564-0.585,0.564c-0.324,0-0.554-0.251-0.554-0.564
		c0-0.324,0.241-0.575,0.575-0.575C37.994,33.9,38.213,34.151,38.213,34.475z M37.189,40.956v-5.059h0.919v5.059H37.189z"/>
	<path class="st2" d="M44.212,38.384c0,1.871-1.296,2.686-2.519,2.686c-1.37,0-2.425-1.003-2.425-2.603
		c0-1.693,1.108-2.686,2.509-2.686C43.229,35.782,44.212,36.837,44.212,38.384z M40.198,38.437c0,1.108,0.637,1.944,1.536,1.944
		c0.878,0,1.537-0.826,1.537-1.965c0-0.857-0.429-1.944-1.516-1.944S40.198,37.475,40.198,38.437z"/>
	<path class="st2" d="M45.371,37.266c0-0.523-0.011-0.951-0.042-1.37h0.815l0.052,0.836h0.021c0.25-0.481,0.836-0.951,1.672-0.951
		c0.7,0,1.787,0.418,1.787,2.153v3.021h-0.92V38.04c0-0.815-0.303-1.495-1.17-1.495c-0.606,0-1.077,0.428-1.233,0.94
		c-0.042,0.115-0.063,0.272-0.063,0.429v3.042h-0.919V37.266z"/>
	<path class="st2" d="M58.339,40.726c-0.334,0.167-1.003,0.334-1.86,0.334c-1.986,0-3.48-1.254-3.48-3.564
		c0-2.206,1.495-3.7,3.679-3.7c0.878,0,1.432,0.188,1.672,0.313l-0.22,0.742c-0.345-0.167-0.836-0.293-1.421-0.293
		c-1.651,0-2.749,1.056-2.749,2.906c0,1.725,0.993,2.833,2.707,2.833c0.554,0,1.119-0.115,1.484-0.292L58.339,40.726z"/>
	<path class="st2" d="M59.844,38.593c0.021,1.244,0.815,1.756,1.735,1.756c0.659,0,1.056-0.115,1.4-0.261l0.157,0.659
		c-0.324,0.146-0.878,0.313-1.683,0.313c-1.557,0-2.488-1.024-2.488-2.55s0.899-2.728,2.373-2.728c1.651,0,2.09,1.453,2.09,2.383
		c0,0.188-0.021,0.334-0.031,0.428H59.844z M62.54,37.935c0.011-0.585-0.24-1.495-1.275-1.495c-0.93,0-1.338,0.857-1.411,1.495
		H62.54z M62.76,33.712l-1.275,1.495h-0.658l0.92-1.495H62.76z"/>
	<path class="st2" d="M65.674,34.444v1.453h1.317v0.701h-1.317v2.728c0,0.627,0.178,0.982,0.69,0.982
		c0.24,0,0.418-0.031,0.533-0.063l0.042,0.69c-0.178,0.073-0.46,0.125-0.815,0.125c-0.428,0-0.773-0.136-0.993-0.387
		c-0.262-0.272-0.355-0.721-0.355-1.317v-2.759h-0.784v-0.701h0.784v-1.212L65.674,34.444z"/>
	<path class="st2" d="M70.827,40.956l-0.073-0.638h-0.032c-0.282,0.397-0.826,0.752-1.547,0.752c-1.024,0-1.547-0.721-1.547-1.453
		c0-1.223,1.087-1.892,3.042-1.881v-0.104c0-0.418-0.115-1.171-1.149-1.171c-0.471,0-0.962,0.146-1.317,0.376l-0.209-0.606
		c0.418-0.271,1.024-0.449,1.662-0.449c1.547,0,1.923,1.056,1.923,2.069v1.892c0,0.439,0.021,0.868,0.083,1.212H70.827z
		 M69.269,33.712l0.909,1.495H69.53l-1.275-1.495H69.269z M70.69,38.374c-1.003-0.021-2.143,0.157-2.143,1.139
		c0,0.596,0.397,0.878,0.868,0.878c0.658,0,1.077-0.418,1.223-0.847c0.031-0.094,0.052-0.199,0.052-0.292V38.374z"/>
	<path class="st2" d="M74.64,40.956l-2.299-7.045h0.982l1.098,3.47c0.303,0.951,0.564,1.808,0.753,2.634h0.021
		c0.199-0.815,0.492-1.704,0.805-2.624l1.191-3.48h0.973l-2.52,7.045H74.64z"/>
	<path class="st2" d="M84.945,37.36c0,2.425-1.474,3.71-3.271,3.71c-1.86,0-3.167-1.442-3.167-3.574c0-2.237,1.391-3.7,3.271-3.7
		C83.702,33.796,84.945,35.27,84.945,37.36z M79.478,37.475c0,1.505,0.815,2.854,2.247,2.854c1.443,0,2.258-1.328,2.258-2.927
		c0-1.401-0.731-2.864-2.247-2.864C80.231,34.538,79.478,35.928,79.478,37.475z"/>
	<path class="st2" d="M87.034,33.911v7.045h-0.91v-7.045H87.034z"/>
	<path class="st2" d="M88.622,34.005c0.459-0.094,1.117-0.146,1.744-0.146c0.973,0,1.6,0.178,2.039,0.575
		c0.355,0.314,0.555,0.794,0.555,1.338c0,0.931-0.586,1.547-1.328,1.798v0.032c0.543,0.188,0.867,0.689,1.035,1.421
		c0.23,0.982,0.396,1.662,0.543,1.934h-0.941c-0.113-0.199-0.271-0.805-0.469-1.683c-0.209-0.972-0.586-1.338-1.412-1.37H89.53
		v3.052h-0.908V34.005z M89.53,37.214h0.932c0.971,0,1.588-0.533,1.588-1.338c0-0.91-0.658-1.307-1.619-1.317
		c-0.439,0-0.754,0.042-0.9,0.084V37.214z"/>
	<path class="st2" d="M96.94,38.593c0.02,1.244,0.814,1.756,1.734,1.756c0.658,0,1.057-0.115,1.4-0.261l0.156,0.659
		c-0.324,0.146-0.877,0.313-1.682,0.313c-1.559,0-2.488-1.024-2.488-2.55s0.898-2.728,2.373-2.728c1.65,0,2.09,1.453,2.09,2.383
		c0,0.188-0.02,0.334-0.031,0.428H96.94z M99.635,37.935c0.012-0.585-0.24-1.495-1.275-1.495c-0.93,0-1.338,0.857-1.41,1.495H99.635
		z"/>
	<path class="st2" d="M102.77,34.444v1.453h1.316v0.701h-1.316v2.728c0,0.627,0.178,0.982,0.689,0.982
		c0.24,0,0.418-0.031,0.533-0.063l0.043,0.69c-0.178,0.073-0.461,0.125-0.816,0.125c-0.428,0-0.773-0.136-0.992-0.387
		c-0.262-0.272-0.355-0.721-0.355-1.317v-2.759h-0.783v-0.701h0.783v-1.212L102.77,34.444z"/>
	<path class="st2" d="M107.368,33.911h3.795v0.763h-2.885v2.341h2.664v0.752h-2.664v3.188h-0.91V33.911z"/>
	<path class="st2" d="M112.614,38.593c0.02,1.244,0.814,1.756,1.734,1.756c0.658,0,1.057-0.115,1.4-0.261l0.156,0.659
		c-0.324,0.146-0.877,0.313-1.682,0.313c-1.559,0-2.488-1.024-2.488-2.55s0.898-2.728,2.373-2.728c1.65,0,2.09,1.453,2.09,2.383
		c0,0.188-0.02,0.334-0.031,0.428H112.614z M115.309,37.935c0.012-0.585-0.24-1.495-1.275-1.495c-0.93,0-1.338,0.857-1.41,1.495
		H115.309z"/>
	<path class="st2" d="M117.211,40.015c0.271,0.178,0.752,0.366,1.211,0.366c0.67,0,0.984-0.334,0.984-0.753
		c0-0.439-0.262-0.679-0.941-0.93c-0.91-0.324-1.338-0.826-1.338-1.432c0-0.815,0.658-1.484,1.746-1.484
		c0.512,0,0.961,0.146,1.242,0.313l-0.229,0.669c-0.199-0.125-0.564-0.292-1.035-0.292c-0.543,0-0.848,0.313-0.848,0.69
		c0,0.418,0.305,0.606,0.963,0.857c0.877,0.334,1.326,0.773,1.326,1.526c0,0.889-0.689,1.516-1.891,1.516
		c-0.555,0-1.066-0.136-1.422-0.345L117.211,40.015z"/>
	<path class="st2" d="M122.583,34.444v1.453h1.316v0.701h-1.316v2.728c0,0.627,0.178,0.982,0.689,0.982
		c0.24,0,0.418-0.031,0.533-0.063l0.043,0.69c-0.178,0.073-0.461,0.125-0.816,0.125c-0.428,0-0.773-0.136-0.992-0.387
		c-0.262-0.272-0.355-0.721-0.355-1.317v-2.759h-0.783v-0.701h0.783v-1.212L122.583,34.444z"/>
	<path class="st2" d="M125.958,34.475c0.01,0.313-0.221,0.564-0.586,0.564c-0.324,0-0.553-0.251-0.553-0.564
		c0-0.324,0.24-0.575,0.574-0.575C125.737,33.9,125.958,34.151,125.958,34.475z M124.932,40.956v-5.059h0.92v5.059H124.932z"/>
	<path class="st2" d="M127.733,35.896l0.994,2.843c0.166,0.46,0.303,0.878,0.406,1.296h0.033c0.113-0.418,0.26-0.836,0.428-1.296
		l0.982-2.843h0.961l-1.984,5.059h-0.879l-1.924-5.059H127.733z"/>
	<path class="st2" d="M135.165,40.956l-0.074-0.638h-0.031c-0.281,0.397-0.826,0.752-1.547,0.752c-1.023,0-1.547-0.721-1.547-1.453
		c0-1.223,1.088-1.892,3.041-1.881v-0.104c0-0.418-0.115-1.171-1.148-1.171c-0.471,0-0.963,0.146-1.318,0.376l-0.209-0.606
		c0.418-0.271,1.025-0.449,1.662-0.449c1.547,0,1.924,1.056,1.924,2.069v1.892c0,0.439,0.021,0.868,0.084,1.212H135.165z
		 M135.028,38.374c-1.004-0.021-2.143,0.157-2.143,1.139c0,0.596,0.396,0.878,0.867,0.878c0.658,0,1.076-0.418,1.223-0.847
		c0.031-0.094,0.053-0.199,0.053-0.292V38.374z"/>
	<path class="st2" d="M137.399,33.535h0.92v7.421h-0.92V33.535z"/>
	<path class="st2" d="M143.022,33.911v7.045h-0.91v-7.045H143.022z"/>
	<path class="st2" d="M144.682,37.266c0-0.523-0.01-0.951-0.041-1.37h0.805l0.041,0.815h0.033c0.281-0.481,0.752-0.93,1.588-0.93
		c0.689,0,1.213,0.418,1.432,1.014h0.021c0.156-0.282,0.355-0.501,0.564-0.658c0.303-0.23,0.637-0.355,1.117-0.355
		c0.67,0,1.662,0.439,1.662,2.195v2.979h-0.898v-2.864c0-0.972-0.355-1.558-1.098-1.558c-0.521,0-0.93,0.387-1.086,0.836
		c-0.043,0.125-0.074,0.292-0.074,0.46v3.125h-0.898v-3.031c0-0.805-0.355-1.39-1.057-1.39c-0.574,0-0.992,0.46-1.139,0.92
		c-0.053,0.136-0.072,0.292-0.072,0.449v3.052h-0.9V37.266z"/>
	<path class="st2" d="M156.2,40.956l-0.074-0.638h-0.031c-0.281,0.397-0.826,0.752-1.547,0.752c-1.023,0-1.547-0.721-1.547-1.453
		c0-1.223,1.088-1.892,3.041-1.881v-0.104c0-0.418-0.115-1.171-1.148-1.171c-0.471,0-0.963,0.146-1.318,0.376l-0.209-0.606
		c0.418-0.271,1.025-0.449,1.662-0.449c1.547,0,1.924,1.056,1.924,2.069v1.892c0,0.439,0.021,0.868,0.084,1.212H156.2z
		 M156.063,38.374c-1.004-0.021-2.143,0.157-2.143,1.139c0,0.596,0.396,0.878,0.867,0.878c0.658,0,1.076-0.418,1.223-0.847
		c0.031-0.094,0.053-0.199,0.053-0.292V38.374z"/>
	<path class="st2" d="M162.793,35.896c-0.021,0.366-0.043,0.773-0.043,1.39v2.938c0,1.16-0.23,1.871-0.721,2.31
		c-0.492,0.46-1.203,0.606-1.84,0.606c-0.605,0-1.275-0.146-1.684-0.418l0.23-0.701c0.334,0.209,0.857,0.397,1.484,0.397
		c0.941,0,1.631-0.491,1.631-1.767v-0.564h-0.021c-0.281,0.471-0.826,0.847-1.609,0.847c-1.254,0-2.152-1.066-2.152-2.467
		c0-1.714,1.117-2.686,2.277-2.686c0.879,0,1.359,0.46,1.578,0.878h0.021l0.041-0.763H162.793z M161.842,37.893
		c0-0.157-0.012-0.292-0.053-0.418c-0.168-0.533-0.617-0.972-1.285-0.972c-0.879,0-1.506,0.742-1.506,1.913
		c0,0.993,0.502,1.819,1.494,1.819c0.564,0,1.076-0.355,1.275-0.941c0.053-0.157,0.074-0.334,0.074-0.491V37.893z"/>
	<path class="st2" d="M164.788,38.593c0.021,1.244,0.816,1.756,1.734,1.756c0.66,0,1.057-0.115,1.402-0.261l0.156,0.659
		c-0.324,0.146-0.879,0.313-1.684,0.313c-1.557,0-2.486-1.024-2.486-2.55s0.898-2.728,2.371-2.728c1.652,0,2.092,1.453,2.092,2.383
		c0,0.188-0.021,0.334-0.031,0.428H164.788z M167.485,37.935c0.01-0.585-0.24-1.495-1.275-1.495c-0.93,0-1.338,0.857-1.412,1.495
		H167.485z"/>
	<path class="st2" d="M169.417,39.848c0.408,0.251,1.004,0.46,1.631,0.46c0.93,0,1.475-0.491,1.475-1.202
		c0-0.659-0.377-1.035-1.328-1.4c-1.15-0.408-1.861-1.003-1.861-1.997c0-1.098,0.91-1.913,2.279-1.913
		c0.721,0,1.244,0.167,1.557,0.345l-0.25,0.742c-0.23-0.125-0.701-0.334-1.338-0.334c-0.961,0-1.328,0.575-1.328,1.056
		c0,0.659,0.43,0.982,1.4,1.359c1.193,0.46,1.799,1.035,1.799,2.069c0,1.087-0.805,2.028-2.467,2.028
		c-0.68,0-1.422-0.199-1.797-0.449L169.417,39.848z"/>
	<path class="st2" d="M175.686,34.475c0.012,0.313-0.219,0.564-0.584,0.564c-0.324,0-0.555-0.251-0.555-0.564
		c0-0.324,0.24-0.575,0.574-0.575C175.467,33.9,175.686,34.151,175.686,34.475z M174.663,40.956v-5.059h0.92v5.059H174.663z"/>
	<path class="st2" d="M177.108,37.266c0-0.523-0.01-0.951-0.041-1.37h0.814l0.053,0.836h0.02c0.252-0.481,0.838-0.951,1.674-0.951
		c0.699,0,1.787,0.418,1.787,2.153v3.021h-0.92V38.04c0-0.815-0.303-1.495-1.172-1.495c-0.605,0-1.076,0.428-1.232,0.94
		c-0.041,0.115-0.062,0.272-0.062,0.429v3.042h-0.92V37.266z"/>
	<path class="st2" d="M187.266,35.896c-0.021,0.366-0.043,0.773-0.043,1.39v2.938c0,1.16-0.23,1.871-0.721,2.31
		c-0.492,0.46-1.203,0.606-1.84,0.606c-0.605,0-1.275-0.146-1.684-0.418l0.23-0.701c0.334,0.209,0.857,0.397,1.484,0.397
		c0.941,0,1.631-0.491,1.631-1.767v-0.564h-0.021c-0.281,0.471-0.826,0.847-1.609,0.847c-1.254,0-2.152-1.066-2.152-2.467
		c0-1.714,1.117-2.686,2.277-2.686c0.879,0,1.359,0.46,1.578,0.878h0.021l0.041-0.763H187.266z M186.315,37.893
		c0-0.157-0.012-0.292-0.053-0.418c-0.168-0.533-0.617-0.972-1.285-0.972c-0.879,0-1.506,0.742-1.506,1.913
		c0,0.993,0.502,1.819,1.494,1.819c0.564,0,1.076-0.355,1.275-0.941c0.053-0.157,0.074-0.334,0.074-0.491V37.893z"/>
	<path class="st2" d="M192.981,39.576c0,0.523,0.012,0.983,0.043,1.38h-0.816l-0.051-0.826h-0.021
		c-0.24,0.408-0.773,0.94-1.672,0.94c-0.795,0-1.746-0.439-1.746-2.216v-2.958h0.92v2.801c0,0.962,0.293,1.61,1.129,1.61
		c0.617,0,1.045-0.429,1.213-0.836c0.051-0.136,0.082-0.303,0.082-0.47v-3.104h0.92V39.576z"/>
	<path class="st2" d="M194.506,33.535h0.92v7.421h-0.92V33.535z"/>
	<path class="st2" d="M197.997,34.475c0.01,0.313-0.221,0.564-0.586,0.564c-0.324,0-0.553-0.251-0.553-0.564
		c0-0.324,0.24-0.575,0.574-0.575C197.776,33.9,197.997,34.151,197.997,34.475z M196.971,40.956v-5.059h0.92v5.059H196.971z"/>
	<path class="st2" d="M199.93,38.593c0.02,1.244,0.814,1.756,1.734,1.756c0.658,0,1.057-0.115,1.4-0.261l0.156,0.659
		c-0.324,0.146-0.877,0.313-1.682,0.313c-1.559,0-2.488-1.024-2.488-2.55s0.898-2.728,2.373-2.728c1.65,0,2.09,1.453,2.09,2.383
		c0,0.188-0.02,0.334-0.031,0.428H199.93z M202.625,37.935c0.012-0.585-0.24-1.495-1.275-1.495c-0.93,0-1.338,0.857-1.41,1.495
		H202.625z M201.079,33.712l0.92,1.495h-0.658l-1.275-1.495H201.079z"/>
	<path class="st2" d="M204.653,37.475c0-0.596-0.01-1.108-0.041-1.579h0.805l0.031,0.993h0.041c0.23-0.679,0.783-1.108,1.4-1.108
		c0.105,0,0.178,0.01,0.262,0.031v0.868c-0.094-0.021-0.188-0.031-0.314-0.031c-0.646,0-1.107,0.491-1.232,1.181
		c-0.021,0.125-0.043,0.271-0.043,0.428v2.697h-0.908V37.475z"/>
	<path class="st2" d="M208.477,38.593c0.021,1.244,0.816,1.756,1.734,1.756c0.66,0,1.057-0.115,1.402-0.261l0.156,0.659
		c-0.324,0.146-0.879,0.313-1.684,0.313c-1.557,0-2.486-1.024-2.486-2.55s0.898-2.728,2.371-2.728c1.652,0,2.092,1.453,2.092,2.383
		c0,0.188-0.021,0.334-0.031,0.428H208.477z M211.174,37.935c0.01-0.585-0.24-1.495-1.275-1.495c-0.93,0-1.338,0.857-1.412,1.495
		H211.174z"/>
	<path class="st1" d="M213.075,40.015c0.271,0.178,0.754,0.366,1.213,0.366c0.668,0,0.982-0.334,0.982-0.753
		c0-0.439-0.262-0.679-0.941-0.93c-0.908-0.324-1.338-0.826-1.338-1.432c0-0.815,0.66-1.484,1.746-1.484
		c0.512,0,0.961,0.146,1.244,0.313l-0.23,0.669c-0.197-0.125-0.564-0.292-1.035-0.292c-0.543,0-0.846,0.313-0.846,0.69
		c0,0.418,0.303,0.606,0.961,0.857c0.879,0.334,1.328,0.773,1.328,1.526c0,0.889-0.689,1.516-1.893,1.516
		c-0.553,0-1.066-0.136-1.422-0.345L213.075,40.015z"/>
	<path class="st1" d="M216.627,42.241c0.23-0.617,0.512-1.735,0.627-2.498l1.023-0.104c-0.24,0.888-0.699,2.048-0.992,2.54
		L216.627,42.241z"/>
	<path class="st1" d="M221.508,39.848c0.406,0.251,1.002,0.46,1.631,0.46c0.93,0,1.473-0.491,1.473-1.202
		c0-0.659-0.375-1.035-1.326-1.4c-1.15-0.408-1.861-1.003-1.861-1.997c0-1.098,0.91-1.913,2.279-1.913
		c0.721,0,1.242,0.167,1.557,0.345l-0.25,0.742c-0.23-0.125-0.701-0.334-1.338-0.334c-0.963,0-1.328,0.575-1.328,1.056
		c0,0.659,0.428,0.982,1.4,1.359c1.191,0.46,1.797,1.035,1.797,2.069c0,1.087-0.805,2.028-2.467,2.028
		c-0.678,0-1.42-0.199-1.797-0.449L221.508,39.848z"/>
	<path class="st1" d="M227.329,38.593c0.02,1.244,0.814,1.756,1.734,1.756c0.658,0,1.057-0.115,1.4-0.261l0.156,0.659
		c-0.324,0.146-0.877,0.313-1.682,0.313c-1.559,0-2.488-1.024-2.488-2.55s0.898-2.728,2.373-2.728c1.65,0,2.09,1.453,2.09,2.383
		c0,0.188-0.02,0.334-0.031,0.428H227.329z M230.024,37.935c0.012-0.585-0.24-1.495-1.275-1.495c-0.93,0-1.338,0.857-1.41,1.495
		H230.024z M228.477,33.712l0.92,1.495h-0.658l-1.275-1.495H228.477z"/>
	<path class="st1" d="M233.159,34.444v1.453h1.316v0.701h-1.316v2.728c0,0.627,0.178,0.982,0.689,0.982
		c0.24,0,0.418-0.031,0.533-0.063l0.043,0.69c-0.178,0.073-0.461,0.125-0.816,0.125c-0.428,0-0.773-0.136-0.992-0.387
		c-0.262-0.272-0.355-0.721-0.355-1.317v-2.759h-0.783v-0.701h0.783v-1.212L233.159,34.444z"/>
	<path class="st1" d="M235.959,38.593c0.02,1.244,0.814,1.756,1.734,1.756c0.658,0,1.057-0.115,1.4-0.261l0.156,0.659
		c-0.324,0.146-0.877,0.313-1.682,0.313c-1.559,0-2.488-1.024-2.488-2.55s0.898-2.728,2.373-2.728c1.65,0,2.09,1.453,2.09,2.383
		c0,0.188-0.02,0.334-0.031,0.428H235.959z M238.655,37.935c0.012-0.585-0.24-1.495-1.275-1.495c-0.93,0-1.338,0.857-1.41,1.495
		H238.655z"/>
</g>
<g>
	<path class="st0" d="M6.718,54.058c-0.363,0.182-1.091,0.364-2.023,0.364c-2.159,0-3.785-1.364-3.785-3.876
		c0-2.398,1.626-4.024,4.002-4.024c0.954,0,1.557,0.205,1.818,0.341l-0.238,0.807c-0.376-0.182-0.91-0.318-1.547-0.318
		c-1.796,0-2.989,1.148-2.989,3.16c0,1.875,1.08,3.081,2.944,3.081c0.603,0,1.216-0.125,1.614-0.318L6.718,54.058z"/>
	<path class="st0" d="M7.887,50.522c0-0.648-0.012-1.205-0.046-1.716h0.876l0.033,1.08h0.046c0.25-0.739,0.853-1.205,1.523-1.205
		c0.113,0,0.193,0.011,0.284,0.034v0.943c-0.103-0.023-0.205-0.034-0.341-0.034c-0.705,0-1.205,0.534-1.342,1.285
		c-0.022,0.136-0.046,0.295-0.046,0.466v2.933H7.887V50.522z"/>
	<path class="st0" d="M12.045,51.739c0.022,1.353,0.887,1.91,1.887,1.91c0.717,0,1.148-0.125,1.523-0.284l0.171,0.716
		c-0.353,0.159-0.955,0.341-1.83,0.341c-1.694,0-2.706-1.114-2.706-2.774s0.978-2.967,2.581-2.967c1.796,0,2.273,1.58,2.273,2.592
		c0,0.205-0.022,0.364-0.034,0.466H12.045z M14.978,51.023c0.012-0.637-0.261-1.626-1.387-1.626c-1.012,0-1.455,0.933-1.534,1.626
		H14.978z M15.217,46.43l-1.387,1.625h-0.717l1.001-1.625H15.217z"/>
	<path class="st0" d="M20.227,54.308l-0.079-0.693h-0.034c-0.307,0.432-0.898,0.818-1.683,0.818c-1.114,0-1.683-0.784-1.683-1.58
		c0-1.33,1.183-2.058,3.309-2.046v-0.113c0-0.455-0.125-1.273-1.251-1.273c-0.511,0-1.046,0.159-1.432,0.409l-0.228-0.659
		c0.454-0.295,1.114-0.489,1.808-0.489c1.683,0,2.092,1.148,2.092,2.25v2.058c0,0.478,0.022,0.944,0.091,1.319H20.227z M20.079,51.5
		c-1.091-0.023-2.33,0.17-2.33,1.239c0,0.648,0.432,0.955,0.943,0.955c0.716,0,1.171-0.455,1.33-0.921
		c0.034-0.102,0.057-0.216,0.057-0.318V51.5z"/>
	<path class="st0" d="M23.817,47.226v1.58h1.432v0.762h-1.432v2.967c0,0.682,0.193,1.069,0.75,1.069c0.262,0,0.455-0.034,0.58-0.068
		l0.045,0.75c-0.193,0.08-0.5,0.137-0.887,0.137c-0.466,0-0.841-0.148-1.08-0.421c-0.284-0.295-0.386-0.784-0.386-1.432v-3.001
		h-0.853v-0.762h0.853v-1.319L23.817,47.226z"/>
	<path class="st0" d="M27.487,47.26c0.011,0.341-0.239,0.614-0.637,0.614c-0.353,0-0.603-0.273-0.603-0.614
		c0-0.353,0.261-0.625,0.625-0.625C27.248,46.635,27.487,46.908,27.487,47.26z M26.373,54.308v-5.502h1v5.502H26.373z"/>
	<path class="st0" d="M34.011,51.512c0,2.035-1.409,2.921-2.739,2.921c-1.489,0-2.638-1.091-2.638-2.831
		c0-1.841,1.205-2.921,2.729-2.921C32.942,48.681,34.011,49.829,34.011,51.512z M29.646,51.568c0,1.205,0.693,2.115,1.672,2.115
		c0.954,0,1.671-0.898,1.671-2.137c0-0.932-0.467-2.115-1.648-2.115C30.157,49.431,29.646,50.522,29.646,51.568z"/>
	<path class="st0" d="M35.271,50.295c0-0.568-0.012-1.035-0.046-1.489h0.887l0.057,0.909h0.023c0.272-0.523,0.909-1.034,1.818-1.034
		c0.762,0,1.944,0.455,1.944,2.342v3.285h-1.001v-3.171c0-0.887-0.329-1.626-1.272-1.626c-0.66,0-1.171,0.466-1.342,1.023
		c-0.046,0.125-0.068,0.295-0.068,0.466v3.308h-1V50.295z"/>
	<path class="st0" d="M44.542,51.739c0.022,1.353,0.887,1.91,1.888,1.91c0.716,0,1.147-0.125,1.522-0.284l0.171,0.716
		c-0.353,0.159-0.955,0.341-1.83,0.341c-1.694,0-2.706-1.114-2.706-2.774s0.978-2.967,2.581-2.967c1.796,0,2.273,1.58,2.273,2.592
		c0,0.205-0.022,0.364-0.034,0.466H44.542z M47.475,51.023c0.012-0.637-0.261-1.626-1.387-1.626c-1.012,0-1.455,0.933-1.534,1.626
		H47.475z"/>
	<path class="st0" d="M50.883,47.226v1.58h1.432v0.762h-1.432v2.967c0,0.682,0.193,1.069,0.75,1.069c0.262,0,0.455-0.034,0.58-0.068
		l0.045,0.75c-0.193,0.08-0.5,0.137-0.887,0.137c-0.466,0-0.841-0.148-1.08-0.421c-0.284-0.295-0.386-0.784-0.386-1.432v-3.001
		h-0.853v-0.762h0.853v-1.319L50.883,47.226z"/>
	<path class="st0" d="M60.6,46.237v6.65c0,0.489,0.011,1.046,0.045,1.421h-0.898l-0.045-0.955h-0.022
		c-0.308,0.614-0.978,1.08-1.876,1.08c-1.33,0-2.354-1.125-2.354-2.796c-0.011-1.83,1.126-2.956,2.467-2.956
		c0.842,0,1.41,0.398,1.66,0.841h0.022v-3.286H60.6z M59.599,51.045c0-0.125-0.011-0.295-0.045-0.42
		c-0.148-0.637-0.693-1.16-1.444-1.16c-1.034,0-1.648,0.91-1.648,2.126c0,1.114,0.546,2.035,1.626,2.035
		c0.671,0,1.284-0.443,1.467-1.193c0.034-0.137,0.045-0.273,0.045-0.432V51.045z"/>
	<path class="st0" d="M62.813,51.739c0.022,1.353,0.887,1.91,1.888,1.91c0.716,0,1.147-0.125,1.522-0.284l0.171,0.716
		c-0.353,0.159-0.955,0.341-1.83,0.341c-1.694,0-2.706-1.114-2.706-2.774s0.978-2.967,2.581-2.967c1.796,0,2.273,1.58,2.273,2.592
		c0,0.205-0.022,0.364-0.034,0.466H62.813z M65.746,51.023c0.012-0.637-0.261-1.626-1.387-1.626c-1.012,0-1.455,0.933-1.534,1.626
		H65.746z M65.985,46.43l-1.387,1.625h-0.717l1.001-1.625H65.985z"/>
	<path class="st0" d="M68.336,48.806l1.079,3.092c0.183,0.5,0.33,0.955,0.443,1.41h0.034c0.125-0.455,0.284-0.909,0.467-1.41
		l1.068-3.092h1.046l-2.16,5.502h-0.955l-2.092-5.502H68.336z"/>
	<path class="st0" d="M73.858,51.739c0.021,1.353,0.887,1.91,1.887,1.91c0.717,0,1.148-0.125,1.523-0.284l0.17,0.716
		c-0.352,0.159-0.955,0.341-1.83,0.341c-1.693,0-2.706-1.114-2.706-2.774s0.977-2.967,2.581-2.967c1.797,0,2.273,1.58,2.273,2.592
		c0,0.205-0.021,0.364-0.033,0.466H73.858z M76.79,51.023c0.012-0.637-0.26-1.626-1.387-1.626c-1.012,0-1.455,0.933-1.533,1.626
		H76.79z"/>
	<path class="st0" d="M78.993,46.237h1v8.071h-1V46.237z"/>
	<path class="st0" d="M86.653,51.512c0,2.035-1.408,2.921-2.738,2.921c-1.49,0-2.639-1.091-2.639-2.831
		c0-1.841,1.205-2.921,2.729-2.921C85.584,48.681,86.653,49.829,86.653,51.512z M82.288,51.568c0,1.205,0.693,2.115,1.672,2.115
		c0.955,0,1.672-0.898,1.672-2.137c0-0.932-0.467-2.115-1.648-2.115C82.799,49.431,82.288,50.522,82.288,51.568z"/>
	<path class="st0" d="M87.913,50.602c0-0.705-0.023-1.273-0.045-1.796h0.898l0.045,0.943h0.023c0.408-0.67,1.057-1.068,1.955-1.068
		c1.33,0,2.33,1.125,2.33,2.796c0,1.978-1.205,2.956-2.502,2.956c-0.727,0-1.363-0.318-1.693-0.864h-0.021v2.99h-0.99V50.602z
		 M88.903,52.069c0,0.147,0.021,0.284,0.045,0.409c0.182,0.693,0.783,1.171,1.5,1.171c1.057,0,1.672-0.864,1.672-2.126
		c0-1.103-0.58-2.046-1.637-2.046c-0.684,0-1.32,0.489-1.514,1.239c-0.033,0.125-0.066,0.273-0.066,0.409V52.069z"/>
	<path class="st0" d="M94.377,50.602c0-0.705-0.023-1.273-0.045-1.796h0.898l0.045,0.943h0.023c0.408-0.67,1.057-1.068,1.955-1.068
		c1.33,0,2.33,1.125,2.33,2.796c0,1.978-1.205,2.956-2.502,2.956c-0.727,0-1.363-0.318-1.693-0.864h-0.021v2.99h-0.99V50.602z
		 M95.368,52.069c0,0.147,0.021,0.284,0.045,0.409c0.182,0.693,0.783,1.171,1.5,1.171c1.057,0,1.672-0.864,1.672-2.126
		c0-1.103-0.58-2.046-1.637-2.046c-0.684,0-1.32,0.489-1.514,1.239c-0.033,0.125-0.066,0.273-0.066,0.409V52.069z"/>
	<path class="st0" d="M101.401,51.739c0.021,1.353,0.887,1.91,1.887,1.91c0.717,0,1.148-0.125,1.523-0.284l0.17,0.716
		c-0.352,0.159-0.955,0.341-1.83,0.341c-1.693,0-2.705-1.114-2.705-2.774s0.977-2.967,2.58-2.967c1.797,0,2.273,1.58,2.273,2.592
		c0,0.205-0.021,0.364-0.033,0.466H101.401z M104.333,51.023c0.012-0.637-0.26-1.626-1.387-1.626c-1.012,0-1.455,0.933-1.533,1.626
		H104.333z"/>
	<path class="st0" d="M106.536,50.295c0-0.568-0.012-1.035-0.045-1.489h0.875l0.045,0.887h0.035
		c0.307-0.523,0.818-1.012,1.727-1.012c0.752,0,1.32,0.455,1.559,1.103h0.021c0.172-0.307,0.387-0.545,0.615-0.716
		c0.33-0.25,0.693-0.386,1.217-0.386c0.727,0,1.807,0.478,1.807,2.387v3.24h-0.979v-3.115c0-1.057-0.385-1.694-1.193-1.694
		c-0.568,0-1.012,0.42-1.182,0.91c-0.045,0.136-0.08,0.318-0.08,0.5v3.399h-0.977v-3.297c0-0.875-0.387-1.512-1.148-1.512
		c-0.625,0-1.08,0.5-1.24,1c-0.057,0.147-0.078,0.318-0.078,0.489v3.319h-0.979V50.295z"/>
	<path class="st0" d="M116.569,51.739c0.023,1.353,0.887,1.91,1.889,1.91c0.715,0,1.146-0.125,1.521-0.284l0.172,0.716
		c-0.354,0.159-0.955,0.341-1.83,0.341c-1.695,0-2.707-1.114-2.707-2.774s0.979-2.967,2.582-2.967c1.795,0,2.273,1.58,2.273,2.592
		c0,0.205-0.023,0.364-0.035,0.466H116.569z M119.502,51.023c0.012-0.637-0.262-1.626-1.387-1.626c-1.012,0-1.455,0.933-1.535,1.626
		H119.502z"/>
	<path class="st0" d="M121.706,50.295c0-0.568-0.012-1.035-0.047-1.489h0.887l0.057,0.909h0.023c0.273-0.523,0.91-1.034,1.818-1.034
		c0.762,0,1.945,0.455,1.945,2.342v3.285h-1.002v-3.171c0-0.887-0.328-1.626-1.271-1.626c-0.66,0-1.172,0.466-1.342,1.023
		c-0.047,0.125-0.068,0.295-0.068,0.466v3.308h-1V50.295z"/>
	<path class="st0" d="M129.17,47.226v1.58h1.432v0.762h-1.432v2.967c0,0.682,0.193,1.069,0.75,1.069c0.262,0,0.455-0.034,0.58-0.068
		l0.045,0.75c-0.193,0.08-0.5,0.137-0.887,0.137c-0.465,0-0.84-0.148-1.08-0.421c-0.283-0.295-0.385-0.784-0.385-1.432v-3.001
		h-0.854v-0.762h0.854v-1.319L129.17,47.226z"/>
	<path class="st0" d="M138.887,46.237v6.65c0,0.489,0.012,1.046,0.045,1.421h-0.896l-0.047-0.955h-0.021
		c-0.309,0.614-0.979,1.08-1.877,1.08c-1.33,0-2.354-1.125-2.354-2.796c-0.01-1.83,1.127-2.956,2.467-2.956
		c0.842,0,1.41,0.398,1.66,0.841h0.023v-3.286H138.887z M137.887,51.045c0-0.125-0.012-0.295-0.045-0.42
		c-0.148-0.637-0.693-1.16-1.445-1.16c-1.033,0-1.648,0.91-1.648,2.126c0,1.114,0.547,2.035,1.627,2.035
		c0.67,0,1.283-0.443,1.467-1.193c0.033-0.137,0.045-0.273,0.045-0.432V51.045z"/>
	<path class="st0" d="M141.102,51.739c0.021,1.353,0.887,1.91,1.887,1.91c0.717,0,1.148-0.125,1.523-0.284l0.17,0.716
		c-0.352,0.159-0.955,0.341-1.83,0.341c-1.693,0-2.705-1.114-2.705-2.774s0.977-2.967,2.58-2.967c1.797,0,2.273,1.58,2.273,2.592
		c0,0.205-0.021,0.364-0.033,0.466H141.102z M144.034,51.023c0.012-0.637-0.26-1.626-1.387-1.626c-1.012,0-1.455,0.933-1.533,1.626
		H144.034z"/>
	<path class="st0" d="M148.647,46.237h1v8.071h-1V46.237z"/>
	<path class="st0" d="M154.374,54.308l-0.08-0.693h-0.033c-0.307,0.432-0.898,0.818-1.684,0.818c-1.113,0-1.682-0.784-1.682-1.58
		c0-1.33,1.182-2.058,3.309-2.046v-0.113c0-0.455-0.125-1.273-1.252-1.273c-0.51,0-1.045,0.159-1.432,0.409l-0.227-0.659
		c0.453-0.295,1.113-0.489,1.807-0.489c1.684,0,2.092,1.148,2.092,2.25v2.058c0,0.478,0.023,0.944,0.092,1.319H154.374z
		 M154.225,51.5c-1.09-0.023-2.33,0.17-2.33,1.239c0,0.648,0.432,0.955,0.943,0.955c0.717,0,1.172-0.455,1.33-0.921
		c0.035-0.102,0.057-0.216,0.057-0.318V51.5z"/>
	<path class="st0" d="M163.135,54.104c-0.262,0.136-0.842,0.318-1.58,0.318c-1.66,0-2.74-1.125-2.74-2.808
		c0-1.694,1.16-2.921,2.955-2.921c0.592,0,1.115,0.148,1.387,0.284l-0.227,0.773c-0.238-0.136-0.613-0.261-1.16-0.261
		c-1.262,0-1.943,0.932-1.943,2.08c0,1.273,0.818,2.058,1.91,2.058c0.568,0,0.943-0.148,1.227-0.273L163.135,54.104z"/>
	<path class="st0" d="M169.213,51.512c0,2.035-1.408,2.921-2.738,2.921c-1.49,0-2.639-1.091-2.639-2.831
		c0-1.841,1.205-2.921,2.729-2.921C168.145,48.681,169.213,49.829,169.213,51.512z M164.848,51.568c0,1.205,0.693,2.115,1.672,2.115
		c0.955,0,1.672-0.898,1.672-2.137c0-0.932-0.467-2.115-1.648-2.115C165.36,49.431,164.848,50.522,164.848,51.568z"/>
	<path class="st0" d="M170.473,50.295c0-0.568-0.012-1.035-0.045-1.489h0.875l0.045,0.887h0.035
		c0.307-0.523,0.818-1.012,1.727-1.012c0.752,0,1.32,0.455,1.559,1.103h0.021c0.172-0.307,0.387-0.545,0.615-0.716
		c0.33-0.25,0.693-0.386,1.217-0.386c0.727,0,1.807,0.478,1.807,2.387v3.24h-0.979v-3.115c0-1.057-0.385-1.694-1.193-1.694
		c-0.568,0-1.012,0.42-1.182,0.91c-0.045,0.136-0.08,0.318-0.08,0.5v3.399h-0.977v-3.297c0-0.875-0.387-1.512-1.148-1.512
		c-0.625,0-1.08,0.5-1.24,1c-0.057,0.147-0.078,0.318-0.078,0.489v3.319h-0.979V50.295z"/>
	<path class="st0" d="M179.95,50.295c0-0.568-0.012-1.035-0.045-1.489h0.875l0.045,0.887h0.035c0.307-0.523,0.818-1.012,1.727-1.012
		c0.752,0,1.32,0.455,1.559,1.103h0.021c0.172-0.307,0.387-0.545,0.615-0.716c0.33-0.25,0.693-0.386,1.217-0.386
		c0.727,0,1.807,0.478,1.807,2.387v3.24h-0.979v-3.115c0-1.057-0.385-1.694-1.193-1.694c-0.568,0-1.012,0.42-1.182,0.91
		c-0.045,0.136-0.08,0.318-0.08,0.5v3.399h-0.977v-3.297c0-0.875-0.387-1.512-1.148-1.512c-0.625,0-1.08,0.5-1.24,1
		c-0.057,0.147-0.078,0.318-0.078,0.489v3.319h-0.979V50.295z"/>
	<path class="st0" d="M194.03,52.808c0,0.568,0.012,1.068,0.047,1.5h-0.887l-0.057-0.898h-0.023
		c-0.262,0.443-0.842,1.023-1.818,1.023c-0.865,0-1.898-0.478-1.898-2.41v-3.217h1v3.046c0,1.046,0.318,1.751,1.227,1.751
		c0.672,0,1.137-0.466,1.32-0.91c0.057-0.148,0.09-0.33,0.09-0.512v-3.376h1V52.808z"/>
	<path class="st0" d="M195.688,50.295c0-0.568-0.012-1.035-0.047-1.489h0.887l0.057,0.909h0.023c0.273-0.523,0.91-1.034,1.818-1.034
		c0.762,0,1.945,0.455,1.945,2.342v3.285h-1.002v-3.171c0-0.887-0.328-1.626-1.271-1.626c-0.66,0-1.172,0.466-1.342,1.023
		c-0.047,0.125-0.068,0.295-0.068,0.466v3.308h-1V50.295z"/>
	<path class="st0" d="M203.108,47.26c0.012,0.341-0.238,0.614-0.637,0.614c-0.352,0-0.602-0.273-0.602-0.614
		c0-0.353,0.26-0.625,0.625-0.625C202.87,46.635,203.108,46.908,203.108,47.26z M201.995,54.308v-5.502h1v5.502H201.995z"/>
	<path class="st0" d="M208.575,54.104c-0.262,0.136-0.842,0.318-1.58,0.318c-1.66,0-2.74-1.125-2.74-2.808
		c0-1.694,1.16-2.921,2.955-2.921c0.592,0,1.115,0.148,1.387,0.284l-0.227,0.773c-0.238-0.136-0.613-0.261-1.16-0.261
		c-1.262,0-1.943,0.932-1.943,2.08c0,1.273,0.818,2.058,1.91,2.058c0.568,0,0.943-0.148,1.227-0.273L208.575,54.104z"/>
	<path class="st0" d="M212.79,54.308l-0.08-0.693h-0.033c-0.307,0.432-0.898,0.818-1.684,0.818c-1.113,0-1.682-0.784-1.682-1.58
		c0-1.33,1.182-2.058,3.309-2.046v-0.113c0-0.455-0.125-1.273-1.252-1.273c-0.51,0-1.045,0.159-1.432,0.409l-0.227-0.659
		c0.453-0.295,1.113-0.489,1.807-0.489c1.684,0,2.092,1.148,2.092,2.25v2.058c0,0.478,0.023,0.944,0.092,1.319H212.79z
		 M212.641,51.5c-1.09-0.023-2.33,0.17-2.33,1.239c0,0.648,0.432,0.955,0.943,0.955c0.717,0,1.172-0.455,1.33-0.921
		c0.035-0.102,0.057-0.216,0.057-0.318V51.5z"/>
	<path class="st0" d="M216.379,47.226v1.58h1.432v0.762h-1.432v2.967c0,0.682,0.193,1.069,0.75,1.069
		c0.262,0,0.455-0.034,0.58-0.068l0.045,0.75c-0.193,0.08-0.5,0.137-0.887,0.137c-0.465,0-0.84-0.148-1.08-0.421
		c-0.283-0.295-0.385-0.784-0.385-1.432v-3.001h-0.854v-0.762h0.854v-1.319L216.379,47.226z"/>
	<path class="st0" d="M220.049,47.26c0.012,0.341-0.238,0.614-0.637,0.614c-0.352,0-0.602-0.273-0.602-0.614
		c0-0.353,0.26-0.625,0.625-0.625C219.811,46.635,220.049,46.908,220.049,47.26z M218.936,54.308v-5.502h1v5.502H218.936z"/>
	<path class="st0" d="M226.573,51.512c0,2.035-1.408,2.921-2.738,2.921c-1.49,0-2.639-1.091-2.639-2.831
		c0-1.841,1.205-2.921,2.729-2.921C225.504,48.681,226.573,49.829,226.573,51.512z M222.208,51.568c0,1.205,0.693,2.115,1.672,2.115
		c0.955,0,1.672-0.898,1.672-2.137c0-0.932-0.467-2.115-1.648-2.115C222.719,49.431,222.208,50.522,222.208,51.568z"/>
	<path class="st0" d="M227.833,50.295c0-0.568-0.012-1.035-0.047-1.489h0.887l0.057,0.909h0.023c0.273-0.523,0.91-1.034,1.818-1.034
		c0.762,0,1.945,0.455,1.945,2.342v3.285h-1.002v-3.171c0-0.887-0.328-1.626-1.271-1.626c-0.66,0-1.172,0.466-1.342,1.023
		c-0.047,0.125-0.068,0.295-0.068,0.466v3.308h-1V50.295z"/>
	<path class="st0" d="M2.444,60.896c0.011,0.341-0.239,0.614-0.637,0.614c-0.352,0-0.603-0.273-0.603-0.614
		c0-0.353,0.262-0.625,0.625-0.625C2.205,60.27,2.444,60.543,2.444,60.896z M1.33,67.943v-5.502h1v5.502H1.33z"/>
	<path class="st0" d="M3.989,63.931c0-0.568-0.012-1.035-0.046-1.489H4.83l0.057,0.909H4.91c0.272-0.523,0.909-1.034,1.818-1.034
		c0.762,0,1.944,0.455,1.944,2.342v3.285H7.672v-3.171c0-0.887-0.329-1.626-1.272-1.626c-0.66,0-1.171,0.466-1.342,1.023
		c-0.046,0.125-0.068,0.295-0.068,0.466v3.308h-1V63.931z"/>
	<path class="st0" d="M11.455,60.861v1.58h1.432v0.762h-1.432v2.967c0,0.682,0.193,1.069,0.75,1.069c0.262,0,0.455-0.034,0.58-0.068
		l0.045,0.75c-0.193,0.08-0.5,0.137-0.887,0.137c-0.466,0-0.841-0.148-1.08-0.421c-0.284-0.295-0.386-0.784-0.386-1.432v-3.001
		H9.625v-0.762h0.853v-1.319L11.455,60.861z"/>
	<path class="st0" d="M14.499,65.374c0.022,1.353,0.887,1.91,1.888,1.91c0.716,0,1.147-0.125,1.522-0.284l0.171,0.716
		c-0.353,0.159-0.955,0.341-1.83,0.341c-1.694,0-2.706-1.114-2.706-2.774s0.978-2.967,2.581-2.967c1.796,0,2.273,1.58,2.273,2.592
		c0,0.205-0.022,0.364-0.034,0.466H14.499z M17.432,64.658c0.012-0.637-0.261-1.625-1.387-1.625c-1.012,0-1.455,0.932-1.534,1.625
		H17.432z"/>
	<path class="st0" d="M19.635,64.158c0-0.648-0.012-1.205-0.046-1.716h0.876l0.033,1.08h0.046c0.25-0.739,0.853-1.205,1.523-1.205
		c0.113,0,0.193,0.011,0.284,0.034v0.943c-0.103-0.023-0.205-0.034-0.341-0.034c-0.705,0-1.205,0.534-1.342,1.285
		c-0.022,0.136-0.046,0.295-0.046,0.466v2.933h-0.988V64.158z"/>
	<path class="st0" d="M23.396,63.931c0-0.568-0.012-1.035-0.046-1.489h0.887l0.057,0.909h0.023c0.272-0.523,0.909-1.034,1.818-1.034
		c0.762,0,1.944,0.455,1.944,2.342v3.285h-1.001v-3.171c0-0.887-0.329-1.626-1.272-1.626c-0.66,0-1.171,0.466-1.342,1.023
		c-0.046,0.125-0.068,0.295-0.068,0.466v3.308h-1V63.931z"/>
	<path class="st0" d="M30.259,65.374c0.022,1.353,0.887,1.91,1.888,1.91c0.716,0,1.147-0.125,1.522-0.284l0.171,0.716
		c-0.353,0.159-0.955,0.341-1.83,0.341c-1.694,0-2.706-1.114-2.706-2.774s0.978-2.967,2.581-2.967c1.796,0,2.273,1.58,2.273,2.592
		c0,0.205-0.022,0.364-0.034,0.466H30.259z M33.191,64.658c0.012-0.637-0.261-1.625-1.387-1.625c-1.012,0-1.455,0.932-1.534,1.625
		H33.191z"/>
	<path class="st0" d="M38.36,65.374c0.022,1.353,0.887,1.91,1.888,1.91c0.716,0,1.147-0.125,1.522-0.284l0.171,0.716
		c-0.353,0.159-0.955,0.341-1.83,0.341c-1.694,0-2.706-1.114-2.706-2.774s0.978-2.967,2.581-2.967c1.796,0,2.273,1.58,2.273,2.592
		c0,0.205-0.022,0.364-0.034,0.466H38.36z M41.293,64.658c0.012-0.637-0.261-1.625-1.387-1.625c-1.012,0-1.455,0.932-1.534,1.625
		H41.293z"/>
	<path class="st0" d="M44.702,60.861v1.58h1.432v0.762h-1.432v2.967c0,0.682,0.193,1.069,0.75,1.069c0.262,0,0.455-0.034,0.58-0.068
		l0.045,0.75c-0.193,0.08-0.5,0.137-0.887,0.137c-0.466,0-0.841-0.148-1.08-0.421c-0.284-0.295-0.386-0.784-0.386-1.432v-3.001
		h-0.853v-0.762h0.853v-1.319L44.702,60.861z"/>
	<path class="st0" d="M50.223,65.374c0.022,1.353,0.887,1.91,1.887,1.91c0.717,0,1.148-0.125,1.523-0.284l0.171,0.716
		c-0.353,0.159-0.955,0.341-1.83,0.341c-1.694,0-2.706-1.114-2.706-2.774s0.978-2.967,2.581-2.967c1.796,0,2.273,1.58,2.273,2.592
		c0,0.205-0.022,0.364-0.034,0.466H50.223z M53.155,64.658c0.012-0.637-0.261-1.625-1.387-1.625c-1.012,0-1.455,0.932-1.534,1.625
		H53.155z"/>
	<path class="st0" d="M55.791,62.441l0.784,1.182c0.205,0.307,0.375,0.591,0.558,0.898h0.034c0.182-0.33,0.363-0.614,0.545-0.909
		l0.773-1.171h1.08l-1.876,2.66l1.933,2.842h-1.137l-0.808-1.239c-0.216-0.318-0.397-0.625-0.591-0.955h-0.022
		c-0.182,0.33-0.375,0.625-0.58,0.955l-0.796,1.239h-1.103l1.955-2.808l-1.864-2.694H55.791z"/>
	<path class="st0" d="M61.938,60.861v1.58h1.432v0.762h-1.432v2.967c0,0.682,0.193,1.069,0.75,1.069c0.262,0,0.455-0.034,0.58-0.068
		l0.045,0.75c-0.193,0.08-0.5,0.137-0.887,0.137c-0.466,0-0.841-0.148-1.08-0.421c-0.284-0.295-0.386-0.784-0.386-1.432v-3.001
		h-0.853v-0.762h0.853v-1.319L61.938,60.861z"/>
	<path class="st0" d="M64.983,65.374c0.022,1.353,0.887,1.91,1.888,1.91c0.716,0,1.147-0.125,1.522-0.284l0.171,0.716
		c-0.353,0.159-0.955,0.341-1.83,0.341c-1.694,0-2.706-1.114-2.706-2.774s0.978-2.967,2.581-2.967c1.796,0,2.273,1.58,2.273,2.592
		c0,0.205-0.022,0.364-0.034,0.466H64.983z M67.916,64.658c0.012-0.637-0.261-1.625-1.387-1.625c-1.012,0-1.455,0.932-1.534,1.625
		H67.916z"/>
	<path class="st0" d="M70.119,64.158c0-0.648-0.012-1.205-0.046-1.716h0.876l0.033,1.08h0.046c0.25-0.739,0.853-1.205,1.523-1.205
		c0.113,0,0.193,0.011,0.284,0.034v0.943c-0.103-0.023-0.205-0.034-0.341-0.034c-0.705,0-1.205,0.534-1.342,1.285
		c-0.022,0.136-0.046,0.295-0.046,0.466v2.933h-0.988V64.158z"/>
	<path class="st0" d="M73.879,63.931c0-0.568-0.012-1.035-0.045-1.489h0.887l0.057,0.909h0.023c0.271-0.523,0.908-1.034,1.818-1.034
		c0.762,0,1.943,0.455,1.943,2.342v3.285h-1v-3.171c0-0.887-0.33-1.626-1.273-1.626c-0.66,0-1.17,0.466-1.342,1.023
		c-0.045,0.125-0.068,0.295-0.068,0.466v3.308h-1V63.931z"/>
	<path class="st0" d="M80.743,65.374c0.023,1.353,0.887,1.91,1.889,1.91c0.715,0,1.146-0.125,1.521-0.284l0.172,0.716
		c-0.354,0.159-0.955,0.341-1.83,0.341c-1.695,0-2.707-1.114-2.707-2.774s0.979-2.967,2.582-2.967c1.795,0,2.273,1.58,2.273,2.592
		c0,0.205-0.023,0.364-0.035,0.466H80.743z M83.676,64.658c0.012-0.637-0.262-1.625-1.387-1.625c-1.012,0-1.455,0.932-1.535,1.625
		H83.676z"/>
	<path class="st0" d="M93.04,59.872v6.65c0,0.489,0.012,1.046,0.045,1.421h-0.896l-0.047-0.955H92.12
		c-0.309,0.614-0.979,1.08-1.877,1.08c-1.33,0-2.354-1.125-2.354-2.796c-0.01-1.83,1.127-2.956,2.467-2.956
		c0.842,0,1.41,0.398,1.66,0.841h0.023v-3.286H93.04z M92.04,64.681c0-0.125-0.012-0.295-0.045-0.42
		c-0.148-0.637-0.693-1.16-1.445-1.16c-1.033,0-1.648,0.91-1.648,2.126c0,1.114,0.547,2.035,1.627,2.035
		c0.67,0,1.283-0.443,1.467-1.193c0.033-0.137,0.045-0.273,0.045-0.432V64.681z"/>
	<path class="st0" d="M95.252,65.374c0.023,1.353,0.887,1.91,1.889,1.91c0.715,0,1.146-0.125,1.521-0.284l0.172,0.716
		c-0.354,0.159-0.955,0.341-1.83,0.341c-1.695,0-2.707-1.114-2.707-2.774s0.979-2.967,2.582-2.967c1.795,0,2.273,1.58,2.273,2.592
		c0,0.205-0.023,0.364-0.035,0.466H95.252z M98.186,64.658c0.012-0.637-0.262-1.625-1.387-1.625c-1.012,0-1.455,0.932-1.535,1.625
		H98.186z"/>
	<path class="st0" d="M102.797,59.872h1v8.071h-1V59.872z"/>
	<path class="st0" d="M106.809,60.156c-0.262,0.955-0.75,2.171-1.068,2.694l-0.637,0.08c0.25-0.671,0.547-1.853,0.672-2.671
		L106.809,60.156z"/>
	<path class="st0" d="M110.741,67.943l-0.078-0.693h-0.035c-0.307,0.432-0.898,0.818-1.682,0.818c-1.115,0-1.684-0.784-1.684-1.58
		c0-1.33,1.184-2.058,3.309-2.046v-0.113c0-0.455-0.125-1.273-1.25-1.273c-0.512,0-1.047,0.159-1.432,0.409l-0.229-0.659
		c0.455-0.295,1.115-0.489,1.809-0.489c1.682,0,2.092,1.148,2.092,2.25v2.058c0,0.478,0.021,0.944,0.09,1.319H110.741z
		 M110.594,65.136c-1.092-0.023-2.33,0.17-2.33,1.239c0,0.648,0.432,0.955,0.943,0.955c0.715,0,1.17-0.455,1.33-0.921
		c0.033-0.103,0.057-0.216,0.057-0.318V65.136z"/>
	<path class="st0" d="M113.036,66.92c0.295,0.193,0.818,0.398,1.318,0.398c0.727,0,1.068-0.364,1.068-0.819
		c0-0.478-0.283-0.739-1.023-1.012c-0.988-0.352-1.455-0.898-1.455-1.557c0-0.887,0.717-1.614,1.898-1.614
		c0.557,0,1.047,0.159,1.354,0.341l-0.25,0.728c-0.217-0.136-0.615-0.318-1.125-0.318c-0.592,0-0.922,0.341-0.922,0.75
		c0,0.455,0.33,0.659,1.047,0.932c0.955,0.364,1.443,0.841,1.443,1.66c0,0.966-0.75,1.648-2.059,1.648
		c-0.602,0-1.158-0.148-1.545-0.375L113.036,66.92z"/>
	<path class="st0" d="M117.534,66.92c0.297,0.193,0.818,0.398,1.318,0.398c0.729,0,1.07-0.364,1.07-0.819
		c0-0.478-0.285-0.739-1.023-1.012c-0.99-0.352-1.455-0.898-1.455-1.557c0-0.887,0.715-1.614,1.898-1.614
		c0.557,0,1.045,0.159,1.352,0.341l-0.25,0.728c-0.215-0.136-0.613-0.318-1.125-0.318c-0.592,0-0.92,0.341-0.92,0.75
		c0,0.455,0.328,0.659,1.045,0.932c0.955,0.364,1.443,0.841,1.443,1.66c0,0.966-0.75,1.648-2.057,1.648
		c-0.604,0-1.16-0.148-1.547-0.375L117.534,66.92z"/>
	<path class="st0" d="M127.149,65.147c0,2.035-1.408,2.921-2.738,2.921c-1.49,0-2.639-1.091-2.639-2.831
		c0-1.842,1.205-2.921,2.729-2.921C126.081,62.316,127.149,63.464,127.149,65.147z M122.784,65.204c0,1.205,0.693,2.115,1.672,2.115
		c0.955,0,1.672-0.898,1.672-2.137c0-0.932-0.467-2.115-1.648-2.115C123.295,63.066,122.784,64.158,122.784,65.204z"/>
	<path class="st0" d="M132.331,67.739c-0.262,0.136-0.842,0.318-1.58,0.318c-1.66,0-2.74-1.125-2.74-2.808
		c0-1.694,1.16-2.921,2.957-2.921c0.59,0,1.113,0.148,1.387,0.284l-0.229,0.773c-0.238-0.136-0.613-0.261-1.158-0.261
		c-1.262,0-1.945,0.932-1.945,2.08c0,1.273,0.818,2.058,1.91,2.058c0.568,0,0.943-0.148,1.229-0.273L132.331,67.739z"/>
	<path class="st0" d="M134.614,60.896c0.012,0.341-0.238,0.614-0.637,0.614c-0.352,0-0.602-0.273-0.602-0.614
		c0-0.353,0.26-0.625,0.625-0.625C134.375,60.27,134.614,60.543,134.614,60.896z M133.5,67.943v-5.502h1v5.502H133.5z"/>
	<path class="st0" d="M139.204,67.943l-0.078-0.693h-0.035c-0.307,0.432-0.898,0.818-1.682,0.818c-1.115,0-1.684-0.784-1.684-1.58
		c0-1.33,1.184-2.058,3.309-2.046v-0.113c0-0.455-0.125-1.273-1.25-1.273c-0.512,0-1.047,0.159-1.432,0.409l-0.229-0.659
		c0.455-0.295,1.115-0.489,1.809-0.489c1.682,0,2.092,1.148,2.092,2.25v2.058c0,0.478,0.021,0.944,0.09,1.319H139.204z
		 M139.057,65.136c-1.092-0.023-2.33,0.17-2.33,1.239c0,0.648,0.432,0.955,0.943,0.955c0.715,0,1.17-0.455,1.33-0.921
		c0.033-0.103,0.057-0.216,0.057-0.318V65.136z"/>
	<path class="st0" d="M142.795,60.861v1.58h1.432v0.762h-1.432v2.967c0,0.682,0.193,1.069,0.75,1.069
		c0.262,0,0.455-0.034,0.58-0.068l0.045,0.75c-0.193,0.08-0.5,0.137-0.887,0.137c-0.467,0-0.842-0.148-1.08-0.421
		c-0.285-0.295-0.387-0.784-0.387-1.432v-3.001h-0.852v-0.762h0.852v-1.319L142.795,60.861z"/>
	<path class="st0" d="M146.465,60.896c0.01,0.341-0.24,0.614-0.637,0.614c-0.354,0-0.604-0.273-0.604-0.614
		c0-0.353,0.262-0.625,0.625-0.625C146.225,60.27,146.465,60.543,146.465,60.896z M145.35,67.943v-5.502h1v5.502H145.35z"/>
	<path class="st0" d="M152.989,65.147c0,2.035-1.41,2.921-2.74,2.921c-1.488,0-2.637-1.091-2.637-2.831
		c0-1.842,1.205-2.921,2.729-2.921C151.92,62.316,152.989,63.464,152.989,65.147z M148.624,65.204c0,1.205,0.693,2.115,1.672,2.115
		c0.953,0,1.67-0.898,1.67-2.137c0-0.932-0.467-2.115-1.648-2.115S148.624,64.158,148.624,65.204z"/>
	<path class="st0" d="M154.249,63.931c0-0.568-0.012-1.035-0.047-1.489h0.887l0.057,0.909h0.023c0.273-0.523,0.91-1.034,1.818-1.034
		c0.762,0,1.945,0.455,1.945,2.342v3.285h-1.002v-3.171c0-0.887-0.328-1.626-1.271-1.626c-0.66,0-1.172,0.466-1.342,1.023
		c-0.047,0.125-0.068,0.295-0.068,0.466v3.308h-1V63.931z"/>
	<path class="st0" d="M163.52,65.374c0.021,1.353,0.887,1.91,1.887,1.91c0.717,0,1.148-0.125,1.523-0.284l0.17,0.716
		c-0.352,0.159-0.955,0.341-1.83,0.341c-1.693,0-2.705-1.114-2.705-2.774s0.977-2.967,2.58-2.967c1.797,0,2.273,1.58,2.273,2.592
		c0,0.205-0.021,0.364-0.033,0.466H163.52z M166.452,64.658c0.012-0.637-0.26-1.625-1.387-1.625c-1.012,0-1.455,0.932-1.533,1.625
		H166.452z"/>
	<path class="st0" d="M169.86,60.861v1.58h1.432v0.762h-1.432v2.967c0,0.682,0.193,1.069,0.75,1.069c0.262,0,0.455-0.034,0.58-0.068
		l0.045,0.75c-0.193,0.08-0.5,0.137-0.887,0.137c-0.465,0-0.84-0.148-1.08-0.421c-0.283-0.295-0.385-0.784-0.385-1.432v-3.001
		h-0.854v-0.762h0.854v-1.319L169.86,60.861z"/>
	<path class="st0" d="M179.577,59.872v6.65c0,0.489,0.012,1.046,0.045,1.421h-0.896l-0.047-0.955h-0.021
		c-0.309,0.614-0.979,1.08-1.877,1.08c-1.33,0-2.354-1.125-2.354-2.796c-0.01-1.83,1.127-2.956,2.467-2.956
		c0.842,0,1.41,0.398,1.66,0.841h0.023v-3.286H179.577z M178.577,64.681c0-0.125-0.012-0.295-0.045-0.42
		c-0.148-0.637-0.693-1.16-1.445-1.16c-1.033,0-1.648,0.91-1.648,2.126c0,1.114,0.547,2.035,1.627,2.035
		c0.67,0,1.283-0.443,1.467-1.193c0.033-0.137,0.045-0.273,0.045-0.432V64.681z"/>
	<path class="st0" d="M185.836,66.443c0,0.568,0.012,1.068,0.047,1.5h-0.887l-0.057-0.898h-0.023
		c-0.262,0.443-0.842,1.023-1.818,1.023c-0.865,0-1.898-0.478-1.898-2.41v-3.217h1v3.046c0,1.046,0.318,1.751,1.227,1.751
		c0.672,0,1.137-0.466,1.32-0.91c0.057-0.148,0.09-0.33,0.09-0.512v-3.376h1V66.443z"/>
	<path class="st0" d="M190.006,67.943v-4.74h-0.773v-0.762h0.773V62.18c0-0.773,0.17-1.478,0.635-1.921
		c0.377-0.364,0.877-0.512,1.342-0.512c0.354,0,0.66,0.08,0.854,0.159l-0.137,0.773c-0.148-0.068-0.352-0.125-0.637-0.125
		c-0.854,0-1.068,0.75-1.068,1.592v0.295h1.33v0.762h-1.33v4.74H190.006z"/>
	<path class="st0" d="M193.629,65.374c0.023,1.353,0.887,1.91,1.889,1.91c0.715,0,1.146-0.125,1.521-0.284l0.172,0.716
		c-0.354,0.159-0.955,0.341-1.83,0.341c-1.695,0-2.707-1.114-2.707-2.774s0.979-2.967,2.582-2.967c1.795,0,2.273,1.58,2.273,2.592
		c0,0.205-0.023,0.364-0.035,0.466H193.629z M196.563,64.658c0.012-0.637-0.262-1.625-1.387-1.625c-1.012,0-1.455,0.932-1.535,1.625
		H196.563z"/>
	<path class="st0" d="M198.629,66.92c0.297,0.193,0.818,0.398,1.318,0.398c0.729,0,1.07-0.364,1.07-0.819
		c0-0.478-0.285-0.739-1.023-1.012c-0.99-0.352-1.455-0.898-1.455-1.557c0-0.887,0.715-1.614,1.898-1.614
		c0.557,0,1.045,0.159,1.352,0.341l-0.25,0.728c-0.215-0.136-0.613-0.318-1.125-0.318c-0.592,0-0.92,0.341-0.92,0.75
		c0,0.455,0.328,0.659,1.045,0.932c0.955,0.364,1.443,0.841,1.443,1.66c0,0.966-0.75,1.648-2.057,1.648
		c-0.604,0-1.16-0.148-1.547-0.375L198.629,66.92z"/>
	<path class="st0" d="M204.471,60.861v1.58h1.432v0.762h-1.432v2.967c0,0.682,0.193,1.069,0.75,1.069
		c0.262,0,0.455-0.034,0.58-0.068l0.045,0.75c-0.193,0.08-0.5,0.137-0.887,0.137c-0.467,0-0.842-0.148-1.08-0.421
		c-0.285-0.295-0.387-0.784-0.387-1.432v-3.001h-0.852v-0.762h0.852v-1.319L204.471,60.861z"/>
	<path class="st0" d="M208.141,60.896c0.012,0.341-0.238,0.614-0.637,0.614c-0.352,0-0.602-0.273-0.602-0.614
		c0-0.353,0.26-0.625,0.625-0.625C207.903,60.27,208.141,60.543,208.141,60.896z M207.028,67.943v-5.502h1v5.502H207.028z"/>
	<path class="st0" d="M210.073,62.441l1.078,3.092c0.184,0.5,0.33,0.955,0.443,1.41h0.035c0.125-0.455,0.283-0.909,0.467-1.41
		l1.068-3.092h1.045l-2.16,5.502h-0.955l-2.092-5.502H210.073z"/>
	<path class="st0" d="M218.151,67.943l-0.078-0.693h-0.035c-0.307,0.432-0.898,0.818-1.682,0.818c-1.115,0-1.684-0.784-1.684-1.58
		c0-1.33,1.184-2.058,3.309-2.046v-0.113c0-0.455-0.125-1.273-1.25-1.273c-0.512,0-1.047,0.159-1.432,0.409l-0.229-0.659
		c0.455-0.295,1.115-0.489,1.809-0.489c1.682,0,2.092,1.148,2.092,2.25v2.058c0,0.478,0.021,0.944,0.09,1.319H218.151z
		 M218.004,65.136c-1.092-0.023-2.33,0.17-2.33,1.239c0,0.648,0.432,0.955,0.943,0.955c0.715,0,1.17-0.455,1.33-0.921
		c0.033-0.103,0.057-0.216,0.057-0.318V65.136z"/>
	<path class="st0" d="M220.583,59.872h1v8.071h-1V59.872z"/>
	<path class="st0" d="M222.911,67.352c0-0.42,0.285-0.716,0.684-0.716c0.396,0,0.67,0.295,0.67,0.716
		c0,0.409-0.262,0.716-0.682,0.716C223.184,68.068,222.911,67.761,222.911,67.352z"/>
	<path class="st0" d="M1.364,73.917H5.49v0.83H2.353v2.546h2.899v0.818H2.353v3.467H1.364V73.917z"/>
	<path class="st0" d="M6.671,73.507h1v8.071h-1V73.507z"/>
	<path class="st0" d="M9.716,76.077l1.205,3.251c0.125,0.364,0.262,0.796,0.353,1.125h0.022c0.103-0.33,0.216-0.75,0.353-1.148
		l1.092-3.229h1.057l-1.5,3.922c-0.717,1.887-1.205,2.854-1.888,3.444c-0.488,0.432-0.978,0.603-1.228,0.648l-0.25-0.841
		c0.25-0.08,0.58-0.239,0.875-0.489c0.273-0.216,0.614-0.603,0.842-1.114c0.045-0.103,0.079-0.182,0.079-0.239
		c0-0.057-0.022-0.137-0.068-0.262l-2.034-5.07H9.716z"/>
	<path class="st0" d="M15.146,79.009c0.022,1.353,0.887,1.91,1.887,1.91c0.717,0,1.148-0.125,1.523-0.284l0.171,0.716
		c-0.353,0.159-0.955,0.341-1.83,0.341c-1.694,0-2.706-1.114-2.706-2.774s0.978-2.967,2.581-2.967c1.796,0,2.273,1.58,2.273,2.592
		c0,0.205-0.022,0.364-0.034,0.466H15.146z M18.079,78.293c0.012-0.637-0.261-1.626-1.387-1.626c-1.012,0-1.455,0.933-1.534,1.626
		H18.079z"/>
	<path class="st0" d="M20.283,77.793c0-0.648-0.012-1.205-0.046-1.716h0.876l0.033,1.08h0.046c0.25-0.739,0.853-1.205,1.523-1.205
		c0.113,0,0.193,0.011,0.284,0.034v0.943c-0.103-0.023-0.205-0.034-0.341-0.034c-0.705,0-1.205,0.534-1.342,1.285
		c-0.022,0.136-0.046,0.295-0.046,0.466v2.933h-0.988V77.793z"/>
	<path class="st0" d="M23.862,80.556c0.296,0.193,0.818,0.398,1.318,0.398c0.728,0,1.069-0.364,1.069-0.819
		c0-0.478-0.284-0.739-1.023-1.012c-0.989-0.352-1.455-0.898-1.455-1.557c0-0.887,0.716-1.614,1.898-1.614
		c0.557,0,1.046,0.159,1.353,0.341l-0.25,0.728c-0.216-0.136-0.614-0.318-1.125-0.318c-0.592,0-0.921,0.341-0.921,0.75
		c0,0.455,0.329,0.659,1.046,0.932c0.955,0.364,1.443,0.841,1.443,1.66c0,0.966-0.75,1.648-2.058,1.648
		c-0.603,0-1.159-0.148-1.546-0.375L23.862,80.556z"/>
	<path class="st0" d="M27.725,82.977c0.25-0.671,0.558-1.887,0.683-2.717l1.113-0.113c-0.261,0.966-0.761,2.228-1.079,2.762
		L27.725,82.977z"/>
	<path class="st0" d="M33.134,73.507h1v8.071h-1V73.507z"/>
	<path class="st0" d="M40.794,78.782c0,2.035-1.409,2.921-2.739,2.921c-1.489,0-2.638-1.091-2.638-2.831
		c0-1.841,1.205-2.921,2.729-2.921C39.726,75.952,40.794,77.1,40.794,78.782z M36.429,78.839c0,1.205,0.693,2.115,1.672,2.115
		c0.954,0,1.671-0.898,1.671-2.137c0-0.932-0.467-2.115-1.648-2.115C36.94,76.702,36.429,77.793,36.429,78.839z"/>
	<path class="st0" d="M46.794,76.077c-0.022,0.398-0.046,0.841-0.046,1.512v3.194c0,1.262-0.25,2.035-0.784,2.512
		c-0.534,0.5-1.308,0.66-2.001,0.66c-0.659,0-1.387-0.159-1.83-0.455l0.25-0.762c0.364,0.227,0.933,0.432,1.614,0.432
		c1.023,0,1.773-0.534,1.773-1.921v-0.614h-0.022c-0.307,0.511-0.898,0.92-1.751,0.92c-1.364,0-2.342-1.159-2.342-2.683
		c0-1.864,1.217-2.921,2.479-2.921c0.955,0,1.478,0.5,1.717,0.955h0.022l0.046-0.83H46.794z M45.76,78.248
		c0-0.171-0.012-0.318-0.058-0.455c-0.182-0.58-0.67-1.057-1.397-1.057c-0.955,0-1.638,0.807-1.638,2.081
		c0,1.08,0.546,1.978,1.626,1.978c0.614,0,1.171-0.387,1.387-1.023c0.057-0.17,0.08-0.364,0.08-0.534V78.248z"/>
	<path class="st0" d="M53.384,78.782c0,2.035-1.409,2.921-2.739,2.921c-1.489,0-2.638-1.091-2.638-2.831
		c0-1.841,1.205-2.921,2.729-2.921C52.315,75.952,53.384,77.1,53.384,78.782z M49.019,78.839c0,1.205,0.693,2.115,1.672,2.115
		c0.954,0,1.671-0.898,1.671-2.137c0-0.932-0.467-2.115-1.648-2.115C49.53,76.702,49.019,77.793,49.019,78.839z"/>
	<path class="st0" d="M54.507,80.556c0.296,0.193,0.818,0.398,1.318,0.398c0.728,0,1.069-0.364,1.069-0.819
		c0-0.478-0.284-0.739-1.023-1.012c-0.989-0.352-1.455-0.898-1.455-1.557c0-0.887,0.716-1.614,1.898-1.614
		c0.557,0,1.046,0.159,1.353,0.341l-0.25,0.728c-0.216-0.136-0.614-0.318-1.125-0.318c-0.592,0-0.921,0.341-0.921,0.75
		c0,0.455,0.329,0.659,1.046,0.932c0.955,0.364,1.443,0.841,1.443,1.66c0,0.966-0.75,1.648-2.058,1.648
		c-0.603,0-1.159-0.148-1.546-0.375L54.507,80.556z"/>
	<path class="st0" d="M58.37,82.977c0.25-0.671,0.558-1.887,0.683-2.717l1.113-0.113c-0.261,0.966-0.761,2.228-1.079,2.762
		L58.37,82.977z"/>
	<path class="st0" d="M66.825,81.579l-0.079-0.693h-0.034c-0.307,0.432-0.898,0.818-1.683,0.818c-1.114,0-1.683-0.784-1.683-1.58
		c0-1.33,1.183-2.058,3.309-2.046v-0.113c0-0.455-0.125-1.273-1.251-1.273c-0.511,0-1.046,0.159-1.432,0.409l-0.228-0.659
		c0.454-0.295,1.114-0.489,1.808-0.489c1.683,0,2.092,1.148,2.092,2.25v2.058c0,0.478,0.022,0.944,0.091,1.319H66.825z
		 M66.678,78.771c-1.091-0.023-2.33,0.17-2.33,1.239c0,0.648,0.432,0.955,0.943,0.955c0.716,0,1.171-0.455,1.33-0.921
		c0.034-0.102,0.057-0.216,0.057-0.318V78.771z"/>
	<path class="st0" d="M76.145,74.485c-0.25-0.159-0.66-0.295-1.115-0.295c-1.057,0-1.375,0.739-1.375,1.614v0.273h3.205v5.502h-1
		v-4.74h-2.193v4.74h-1v-4.74h-2.319v4.74h-0.988v-4.74h-0.773v-0.762h0.773v-0.205c0-0.693,0.182-1.364,0.659-1.83
		c0.318-0.33,0.796-0.535,1.409-0.535c0.375,0,0.762,0.137,0.967,0.239l-0.273,0.739c-0.17-0.091-0.432-0.193-0.693-0.193
		c-0.318,0-0.546,0.114-0.716,0.295c-0.273,0.295-0.364,0.796-0.364,1.273v0.216h2.319v-0.295c0-1.455,0.864-2.399,2.411-2.399
		c0.5,0,1.068,0.148,1.363,0.353L76.145,74.485z"/>
	<path class="st0" d="M82.438,81.374c-0.262,0.136-0.842,0.318-1.58,0.318c-1.66,0-2.74-1.125-2.74-2.808
		c0-1.694,1.16-2.921,2.957-2.921c0.59,0,1.113,0.148,1.387,0.284l-0.229,0.773c-0.238-0.136-0.613-0.261-1.158-0.261
		c-1.262,0-1.945,0.932-1.945,2.08c0,1.273,0.818,2.058,1.91,2.058c0.568,0,0.943-0.148,1.229-0.273L82.438,81.374z"/>
	<path class="st0" d="M83.606,73.507h1v3.433h0.023c0.158-0.284,0.408-0.534,0.717-0.705c0.295-0.17,0.646-0.284,1.021-0.284
		c0.74,0,1.922,0.455,1.922,2.353v3.274h-1v-3.16c0-0.887-0.33-1.637-1.273-1.637c-0.648,0-1.16,0.455-1.342,1
		c-0.057,0.136-0.068,0.284-0.068,0.478v3.319h-1V73.507z"/>
	<path class="st0" d="M90.469,79.009c0.023,1.353,0.887,1.91,1.889,1.91c0.715,0,1.146-0.125,1.521-0.284l0.172,0.716
		c-0.354,0.159-0.955,0.341-1.83,0.341c-1.695,0-2.707-1.114-2.707-2.774s0.979-2.967,2.582-2.967c1.795,0,2.273,1.58,2.273,2.592
		c0,0.205-0.023,0.364-0.035,0.466H90.469z M93.403,78.293c0.012-0.637-0.262-1.626-1.387-1.626c-1.012,0-1.455,0.933-1.535,1.626
		H93.403z"/>
	<path class="st0" d="M95.469,80.556c0.295,0.193,0.818,0.398,1.318,0.398c0.727,0,1.068-0.364,1.068-0.819
		c0-0.478-0.283-0.739-1.023-1.012c-0.988-0.352-1.455-0.898-1.455-1.557c0-0.887,0.717-1.614,1.898-1.614
		c0.557,0,1.047,0.159,1.354,0.341l-0.25,0.728c-0.217-0.136-0.615-0.318-1.125-0.318c-0.592,0-0.922,0.341-0.922,0.75
		c0,0.455,0.33,0.659,1.047,0.932c0.955,0.364,1.443,0.841,1.443,1.66c0,0.966-0.75,1.648-2.059,1.648
		c-0.602,0-1.158-0.148-1.545-0.375L95.469,80.556z"/>
	<path class="st0" d="M99.333,82.977c0.25-0.671,0.557-1.887,0.682-2.717l1.113-0.113c-0.26,0.966-0.76,2.228-1.078,2.762
		L99.333,82.977z"/>
	<path class="st0" d="M104.604,80.556c0.297,0.193,0.818,0.398,1.318,0.398c0.729,0,1.07-0.364,1.07-0.819
		c0-0.478-0.285-0.739-1.023-1.012c-0.99-0.352-1.455-0.898-1.455-1.557c0-0.887,0.715-1.614,1.898-1.614
		c0.557,0,1.045,0.159,1.352,0.341l-0.25,0.728c-0.215-0.136-0.613-0.318-1.125-0.318c-0.592,0-0.92,0.341-0.92,0.75
		c0,0.455,0.328,0.659,1.045,0.932c0.955,0.364,1.443,0.841,1.443,1.66c0,0.966-0.75,1.648-2.057,1.648
		c-0.604,0-1.16-0.148-1.547-0.375L104.604,80.556z"/>
	<path class="st0" d="M110.356,74.531c0.01,0.341-0.24,0.614-0.637,0.614c-0.354,0-0.604-0.273-0.604-0.614
		c0-0.353,0.262-0.625,0.625-0.625C110.116,73.905,110.356,74.178,110.356,74.531z M109.241,81.579v-5.502h1v5.502H109.241z"/>
	<path class="st0" d="M113.104,74.497v1.58h1.432v0.762h-1.432v2.967c0,0.682,0.193,1.069,0.75,1.069
		c0.262,0,0.455-0.034,0.58-0.068l0.045,0.75c-0.193,0.08-0.5,0.137-0.887,0.137c-0.465,0-0.84-0.148-1.08-0.421
		c-0.283-0.295-0.385-0.784-0.385-1.432v-3.001h-0.854v-0.762h0.854v-1.319L113.104,74.497z"/>
	<path class="st0" d="M116.149,79.009c0.023,1.353,0.887,1.91,1.889,1.91c0.715,0,1.146-0.125,1.521-0.284l0.172,0.716
		c-0.354,0.159-0.955,0.341-1.83,0.341c-1.695,0-2.707-1.114-2.707-2.774s0.979-2.967,2.582-2.967c1.795,0,2.273,1.58,2.273,2.592
		c0,0.205-0.023,0.364-0.035,0.466H116.149z M119.083,78.293c0.012-0.637-0.262-1.626-1.387-1.626c-1.012,0-1.455,0.933-1.535,1.626
		H119.083z"/>
	<path class="st0" d="M120.5,82.977c0.25-0.671,0.557-1.887,0.682-2.717l1.113-0.113c-0.26,0.966-0.76,2.228-1.078,2.762
		L120.5,82.977z"/>
	<path class="st0" d="M125.909,77.566c0-0.568-0.012-1.035-0.045-1.489h0.887l0.057,0.909h0.023
		c0.271-0.523,0.908-1.034,1.818-1.034c0.762,0,1.943,0.455,1.943,2.342v3.285h-1v-3.171c0-0.887-0.33-1.626-1.273-1.626
		c-0.66,0-1.17,0.466-1.342,1.023c-0.045,0.125-0.068,0.295-0.068,0.466v3.308h-1V77.566z"/>
	<path class="st0" d="M132.772,79.009c0.023,1.353,0.887,1.91,1.889,1.91c0.715,0,1.146-0.125,1.521-0.284l0.172,0.716
		c-0.354,0.159-0.955,0.341-1.83,0.341c-1.695,0-2.707-1.114-2.707-2.774s0.979-2.967,2.582-2.967c1.795,0,2.273,1.58,2.273,2.592
		c0,0.205-0.023,0.364-0.035,0.466H132.772z M135.706,78.293c0.012-0.637-0.262-1.626-1.387-1.626c-1.012,0-1.455,0.933-1.535,1.626
		H135.706z"/>
	<path class="st0" d="M138.305,76.077l0.729,2.796c0.158,0.614,0.307,1.182,0.408,1.75h0.035c0.125-0.557,0.307-1.148,0.488-1.739
		l0.898-2.808h0.842l0.852,2.751c0.205,0.659,0.363,1.239,0.488,1.796h0.035c0.09-0.557,0.238-1.137,0.42-1.785l0.785-2.762h0.988
		l-1.773,5.502h-0.908l-0.842-2.626c-0.193-0.614-0.354-1.16-0.488-1.808h-0.023c-0.137,0.66-0.307,1.228-0.5,1.819l-0.887,2.615
		h-0.91l-1.658-5.502H138.305z"/>
	<path class="st0" d="M146.067,80.556c0.295,0.193,0.818,0.398,1.318,0.398c0.727,0,1.068-0.364,1.068-0.819
		c0-0.478-0.283-0.739-1.023-1.012c-0.988-0.352-1.455-0.898-1.455-1.557c0-0.887,0.717-1.614,1.898-1.614
		c0.557,0,1.047,0.159,1.354,0.341l-0.25,0.728c-0.217-0.136-0.615-0.318-1.125-0.318c-0.592,0-0.922,0.341-0.922,0.75
		c0,0.455,0.33,0.659,1.047,0.932c0.955,0.364,1.443,0.841,1.443,1.66c0,0.966-0.75,1.648-2.059,1.648
		c-0.602,0-1.158-0.148-1.545-0.375L146.067,80.556z"/>
	<path class="st0" d="M150.704,73.507h1v8.071h-1V73.507z"/>
	<path class="st0" d="M153.942,79.009c0.021,1.353,0.887,1.91,1.887,1.91c0.717,0,1.148-0.125,1.523-0.284l0.17,0.716
		c-0.352,0.159-0.955,0.341-1.83,0.341c-1.693,0-2.705-1.114-2.705-2.774s0.977-2.967,2.58-2.967c1.797,0,2.273,1.58,2.273,2.592
		c0,0.205-0.021,0.364-0.033,0.466H153.942z M156.874,78.293c0.012-0.637-0.26-1.626-1.387-1.626c-1.012,0-1.455,0.933-1.533,1.626
		H156.874z"/>
	<path class="st0" d="M160.282,74.497v1.58h1.432v0.762h-1.432v2.967c0,0.682,0.193,1.069,0.75,1.069
		c0.262,0,0.455-0.034,0.58-0.068l0.045,0.75c-0.193,0.08-0.5,0.137-0.887,0.137c-0.465,0-0.84-0.148-1.08-0.421
		c-0.283-0.295-0.385-0.784-0.385-1.432v-3.001h-0.854v-0.762h0.854v-1.319L160.282,74.497z"/>
	<path class="st0" d="M164.043,74.497v1.58h1.432v0.762h-1.432v2.967c0,0.682,0.193,1.069,0.75,1.069
		c0.262,0,0.455-0.034,0.58-0.068l0.045,0.75c-0.193,0.08-0.5,0.137-0.887,0.137c-0.467,0-0.842-0.148-1.08-0.421
		c-0.285-0.295-0.387-0.784-0.387-1.432v-3.001h-0.852v-0.762h0.852v-1.319L164.043,74.497z"/>
	<path class="st0" d="M167.088,79.009c0.021,1.353,0.887,1.91,1.887,1.91c0.717,0,1.148-0.125,1.523-0.284l0.17,0.716
		c-0.352,0.159-0.955,0.341-1.83,0.341c-1.693,0-2.705-1.114-2.705-2.774s0.977-2.967,2.58-2.967c1.797,0,2.273,1.58,2.273,2.592
		c0,0.205-0.021,0.364-0.033,0.466H167.088z M170.02,78.293c0.012-0.637-0.26-1.626-1.387-1.626c-1.012,0-1.455,0.933-1.533,1.626
		H170.02z"/>
	<path class="st0" d="M172.223,77.793c0-0.648-0.012-1.205-0.045-1.716h0.875l0.033,1.08h0.047c0.25-0.739,0.852-1.205,1.523-1.205
		c0.113,0,0.193,0.011,0.283,0.034v0.943c-0.102-0.023-0.205-0.034-0.34-0.034c-0.705,0-1.205,0.534-1.342,1.285
		c-0.023,0.136-0.045,0.295-0.045,0.466v2.933h-0.99V77.793z"/>
	<path class="st0" d="M175.803,80.556c0.295,0.193,0.818,0.398,1.318,0.398c0.727,0,1.068-0.364,1.068-0.819
		c0-0.478-0.283-0.739-1.023-1.012c-0.988-0.352-1.455-0.898-1.455-1.557c0-0.887,0.717-1.614,1.898-1.614
		c0.557,0,1.047,0.159,1.354,0.341l-0.25,0.728c-0.217-0.136-0.615-0.318-1.125-0.318c-0.592,0-0.922,0.341-0.922,0.75
		c0,0.455,0.33,0.659,1.047,0.932c0.955,0.364,1.443,0.841,1.443,1.66c0,0.966-0.75,1.648-2.059,1.648
		c-0.602,0-1.158-0.148-1.545-0.375L175.803,80.556z"/>
	<path class="st0" d="M179.665,82.977c0.25-0.671,0.559-1.887,0.684-2.717l1.113-0.113c-0.262,0.966-0.762,2.228-1.08,2.762
		L179.665,82.977z"/>
	<path class="st0" d="M182.426,80.987c0-0.42,0.285-0.716,0.684-0.716c0.396,0,0.67,0.295,0.67,0.716
		c0,0.41-0.262,0.716-0.682,0.716C182.7,81.704,182.426,81.397,182.426,80.987z"/>
	<path class="st0" d="M184.778,80.987c0-0.42,0.285-0.716,0.684-0.716c0.396,0,0.67,0.295,0.67,0.716
		c0,0.41-0.262,0.716-0.682,0.716C185.051,81.704,184.778,81.397,184.778,80.987z"/>
	<path class="st0" d="M187.131,80.987c0-0.42,0.283-0.716,0.682-0.716s0.672,0.295,0.672,0.716c0,0.41-0.262,0.716-0.684,0.716
		C187.405,81.704,187.131,81.397,187.131,80.987z"/>
</g>
<g>
	<path class="st3" d="M1.149,12.31v-0.794l0.995-0.985c2.394-2.324,3.475-3.56,3.489-5.001c0-0.971-0.461-1.868-1.86-1.868
		c-0.851,0-1.558,0.441-1.99,0.809L1.379,3.558c0.649-0.559,1.572-0.971,2.653-0.971c2.019,0,2.87,1.412,2.87,2.78
		c0,1.765-1.254,3.192-3.23,5.134l-0.75,0.706v0.029h4.21v1.074H1.149z"/>
	<path class="st3" d="M14.777,7.426c0,3.251-1.182,5.045-3.259,5.045c-1.831,0-3.071-1.75-3.1-4.913
		c0-3.207,1.355-4.972,3.259-4.972C13.653,2.586,14.777,4.381,14.777,7.426z M9.688,7.573c0,2.486,0.75,3.898,1.903,3.898
		c1.298,0,1.918-1.544,1.918-3.986c0-2.354-0.591-3.898-1.903-3.898C10.495,3.587,9.688,4.97,9.688,7.573z"/>
	<path class="st3" d="M18.702,3.955h-0.029l-1.629,0.897l-0.245-0.986l2.048-1.118h1.082v9.561h-1.226V3.955z"/>
	<path class="st3" d="M23.65,10.824c0.36,0.235,1.197,0.603,2.077,0.603c1.629,0,2.134-1.059,2.12-1.853
		c-0.015-1.339-1.197-1.913-2.423-1.913h-0.707V6.69h0.707c0.923,0,2.091-0.485,2.091-1.618c0-0.765-0.476-1.441-1.644-1.441
		c-0.75,0-1.471,0.338-1.875,0.633l-0.332-0.941c0.49-0.368,1.442-0.736,2.451-0.736c1.846,0,2.682,1.118,2.682,2.28
		c0,0.985-0.577,1.824-1.73,2.25v0.029c1.153,0.235,2.091,1.118,2.091,2.457c0,1.53-1.168,2.868-3.417,2.868
		c-1.053,0-1.976-0.338-2.437-0.647L23.65,10.824z"/>
	<path class="st3" d="M30.083,12.898l4.023-10.665h0.98L31.05,12.898H30.083z"/>
	<path class="st3" d="M35.695,12.31v-0.794l0.995-0.985c2.394-2.324,3.475-3.56,3.489-5.001c0-0.971-0.461-1.868-1.86-1.868
		c-0.851,0-1.558,0.441-1.99,0.809l-0.404-0.912c0.649-0.559,1.572-0.971,2.653-0.971c2.019,0,2.87,1.412,2.87,2.78
		c0,1.765-1.254,3.192-3.23,5.134l-0.75,0.706v0.029h4.21v1.074H35.695z"/>
	<path class="st3" d="M49.323,7.426c0,3.251-1.182,5.045-3.259,5.045c-1.831,0-3.071-1.75-3.1-4.913
		c0-3.207,1.355-4.972,3.259-4.972C48.199,2.586,49.323,4.381,49.323,7.426z M44.233,7.573c0,2.486,0.75,3.898,1.903,3.898
		c1.298,0,1.918-1.544,1.918-3.986c0-2.354-0.591-3.898-1.903-3.898C45.041,3.587,44.233,4.97,44.233,7.573z"/>
	<path class="st3" d="M53.248,3.955h-0.029l-1.629,0.897l-0.245-0.986l2.048-1.118h1.082v9.561h-1.226V3.955z"/>
	<path class="st3" d="M63.243,3.66c-0.26-0.015-0.591,0-0.952,0.059c-1.99,0.338-3.042,1.824-3.259,3.398h0.043
		c0.447-0.603,1.226-1.104,2.264-1.104c1.658,0,2.826,1.221,2.826,3.089c0,1.75-1.168,3.368-3.115,3.368
		c-2.004,0-3.316-1.588-3.316-4.074c0-1.883,0.663-3.369,1.586-4.31c0.779-0.779,1.817-1.265,3-1.412
		c0.375-0.059,0.692-0.073,0.923-0.073V3.66z M62.883,9.176c0-1.368-0.764-2.191-1.932-2.191c-0.765,0-1.471,0.485-1.817,1.177
		c-0.087,0.147-0.145,0.338-0.145,0.574c0.029,1.574,0.735,2.736,2.062,2.736C62.147,11.471,62.883,10.544,62.883,9.176z"/>
</g>
<g>
	<path class="st5" d="M260.19,19.29l-0.63,1.909h-0.81l2.061-6.068h0.945l2.071,6.068h-0.837l-0.648-1.909H260.19z M262.18,18.677
		l-0.594-1.746c-0.136-0.396-0.226-0.756-0.316-1.107h-0.018c-0.09,0.36-0.189,0.729-0.306,1.098l-0.595,1.755H262.18z"/>
	<path class="st5" d="M267.688,21.036c-0.207,0.108-0.666,0.252-1.252,0.252c-1.314,0-2.169-0.891-2.169-2.224
		c0-1.341,0.918-2.313,2.341-2.313c0.468,0,0.882,0.117,1.098,0.225l-0.18,0.612c-0.189-0.108-0.486-0.207-0.918-0.207
		c-1,0-1.539,0.738-1.539,1.647c0,1.008,0.647,1.629,1.512,1.629c0.45,0,0.747-0.117,0.973-0.216L267.688,21.036z"/>
	<path class="st5" d="M271.531,20.523h-0.019c-0.233,0.432-0.72,0.774-1.422,0.774c-1.018,0-1.846-0.882-1.846-2.206
		c0-1.63,1.054-2.35,1.972-2.35c0.675,0,1.126,0.333,1.342,0.756h0.018l0.027-0.657h0.747c-0.018,0.369-0.027,0.748-0.027,1.197
		v4.943h-0.792V20.523z M271.531,18.605c0-0.108-0.009-0.234-0.036-0.333c-0.117-0.486-0.54-0.9-1.135-0.9
		c-0.818,0-1.313,0.693-1.313,1.674c0,0.864,0.414,1.621,1.287,1.621c0.513,0,0.954-0.315,1.134-0.864
		c0.037-0.108,0.063-0.261,0.063-0.378V18.605z"/>
	<path class="st5" d="M277.273,20.01c0,0.45,0.009,0.846,0.036,1.188h-0.702l-0.045-0.711h-0.019
		c-0.207,0.352-0.666,0.811-1.439,0.811c-0.686,0-1.504-0.378-1.504-1.909v-2.548h0.792v2.413c0,0.829,0.252,1.387,0.972,1.387
		c0.531,0,0.9-0.369,1.045-0.72c0.045-0.117,0.072-0.261,0.072-0.405v-2.674h0.792V20.01z"/>
	<path class="st5" d="M279.468,15.617c0.009,0.27-0.188,0.486-0.505,0.486c-0.278,0-0.477-0.216-0.477-0.486
		c0-0.279,0.207-0.495,0.495-0.495C279.28,15.122,279.468,15.337,279.468,15.617z M278.586,21.198v-4.357h0.791v4.357H278.586z"/>
	<path class="st5" d="M280.584,20.388c0.233,0.153,0.647,0.315,1.043,0.315c0.576,0,0.848-0.288,0.848-0.648
		c0-0.378-0.226-0.585-0.811-0.801c-0.783-0.279-1.152-0.711-1.152-1.233c0-0.703,0.566-1.279,1.503-1.279
		c0.441,0,0.828,0.126,1.071,0.271l-0.197,0.576c-0.172-0.108-0.486-0.252-0.893-0.252c-0.467,0-0.729,0.27-0.729,0.594
		c0,0.36,0.262,0.522,0.828,0.738c0.756,0.288,1.144,0.666,1.144,1.314c0,0.765-0.595,1.305-1.63,1.305
		c-0.477,0-0.918-0.117-1.225-0.297L280.584,20.388z"/>
	<path class="st5" d="M285.975,17.561c0-0.333,0.225-0.567,0.539-0.567c0.315,0,0.522,0.234,0.531,0.567
		c0,0.315-0.207,0.558-0.539,0.558C286.19,18.119,285.975,17.876,285.975,17.561z M285.975,20.739c0-0.333,0.225-0.567,0.539-0.567
		c0.315,0,0.522,0.234,0.531,0.567c0,0.315-0.207,0.558-0.539,0.558C286.19,21.297,285.975,21.054,285.975,20.739z"/>
	<path class="st5" d="M264.395,28.901c0,2.089-1.27,3.196-2.818,3.196c-1.603,0-2.728-1.243-2.728-3.079
		c0-1.926,1.197-3.187,2.817-3.187C263.323,25.831,264.395,27.101,264.395,28.901z M259.686,29c0,1.296,0.703,2.458,1.936,2.458
		c1.242,0,1.945-1.144,1.945-2.521c0-1.206-0.631-2.467-1.936-2.467C260.334,26.47,259.686,27.668,259.686,29z"/>
	<path class="st5" d="M268.219,31.998v-3.754h-1.828v3.754h-0.783v-3.754h-0.611v-0.604h0.611v-0.144
		c0-0.612,0.145-1.143,0.486-1.485c0.252-0.252,0.612-0.405,1.099-0.405c0.252,0,0.486,0.081,0.621,0.153l-0.162,0.585
		c-0.117-0.054-0.288-0.108-0.468-0.108c-0.621,0-0.793,0.531-0.793,1.215v0.189h1.828v-0.207c0-0.612,0.145-1.17,0.514-1.521
		c0.297-0.288,0.692-0.405,1.053-0.405c0.288,0,0.521,0.063,0.676,0.126l-0.1,0.612c-0.126-0.054-0.279-0.099-0.514-0.099
		c-0.666,0-0.846,0.594-0.846,1.26v0.234h1.053v0.604h-1.044v3.754H268.219z"/>
	<path class="st5" d="M270.585,31.188c0.233,0.153,0.647,0.315,1.044,0.315c0.576,0,0.847-0.288,0.847-0.648
		c0-0.378-0.226-0.585-0.811-0.801c-0.783-0.279-1.152-0.711-1.152-1.233c0-0.703,0.567-1.279,1.503-1.279
		c0.441,0,0.829,0.126,1.072,0.271l-0.198,0.576c-0.171-0.108-0.486-0.252-0.892-0.252c-0.468,0-0.729,0.27-0.729,0.594
		c0,0.36,0.261,0.522,0.828,0.738c0.756,0.288,1.143,0.666,1.143,1.314c0,0.765-0.594,1.305-1.629,1.305
		c-0.478,0-0.918-0.117-1.225-0.297L270.585,31.188z"/>
	<path class="st5" d="M274.698,29.963c0.019,1.071,0.703,1.513,1.495,1.513c0.567,0,0.909-0.099,1.206-0.225l0.135,0.567
		c-0.278,0.126-0.756,0.27-1.449,0.27c-1.341,0-2.143-0.882-2.143-2.196c0-1.314,0.774-2.35,2.044-2.35c1.423,0,1.8,1.251,1.8,2.053
		c0,0.162-0.018,0.288-0.026,0.369H274.698z M277.021,29.396c0.009-0.504-0.207-1.288-1.099-1.288c-0.801,0-1.152,0.738-1.215,1.288
		H277.021z"/>
	<path class="st5" d="M279.72,26.389v1.251h1.134v0.604h-1.134v2.35c0,0.54,0.153,0.846,0.595,0.846
		c0.207,0,0.359-0.027,0.459-0.054l0.035,0.594c-0.152,0.063-0.396,0.108-0.701,0.108c-0.369,0-0.666-0.117-0.855-0.333
		c-0.225-0.234-0.307-0.621-0.307-1.134v-2.376h-0.675v-0.604h0.675v-1.044L279.72,26.389z"/>
	<path class="st5" d="M259.624,40.763c0.018,1.071,0.702,1.513,1.494,1.513c0.567,0,0.909-0.099,1.207-0.225l0.135,0.567
		c-0.279,0.126-0.757,0.27-1.449,0.27c-1.342,0-2.143-0.882-2.143-2.196c0-1.314,0.773-2.35,2.043-2.35
		c1.422,0,1.801,1.251,1.801,2.053c0,0.162-0.018,0.288-0.027,0.369H259.624z M261.946,40.196c0.01-0.504-0.207-1.288-1.098-1.288
		c-0.802,0-1.152,0.738-1.216,1.288H261.946z"/>
	<path class="st5" d="M265.78,40.07v0.585h-2.225V40.07H265.78z"/>
	<path class="st5" d="M269.973,42.636c-0.207,0.108-0.666,0.252-1.251,0.252c-1.314,0-2.169-0.891-2.169-2.224
		c0-1.341,0.918-2.313,2.34-2.313c0.469,0,0.883,0.117,1.099,0.225l-0.181,0.612c-0.188-0.108-0.486-0.207-0.918-0.207
		c-0.999,0-1.539,0.738-1.539,1.647c0,1.008,0.648,1.629,1.512,1.629c0.451,0,0.748-0.117,0.973-0.216L269.973,42.636z"/>
	<path class="st5" d="M274.79,40.583c0,1.612-1.117,2.314-2.17,2.314c-1.18,0-2.089-0.864-2.089-2.242
		c0-1.458,0.954-2.314,2.161-2.314C273.942,38.341,274.79,39.251,274.79,40.583z M271.333,40.628c0,0.954,0.549,1.674,1.322,1.674
		c0.757,0,1.324-0.711,1.324-1.692c0-0.738-0.369-1.675-1.306-1.675S271.333,39.8,271.333,40.628z"/>
	<path class="st5" d="M275.787,39.62c0-0.45-0.009-0.819-0.036-1.18h0.693l0.036,0.702h0.026c0.244-0.414,0.648-0.801,1.369-0.801
		c0.594,0,1.044,0.36,1.232,0.874h0.019c0.136-0.243,0.306-0.432,0.486-0.567c0.261-0.198,0.55-0.306,0.964-0.306
		c0.576,0,1.431,0.378,1.431,1.891v2.566h-0.774v-2.467c0-0.837-0.306-1.341-0.945-1.341c-0.449,0-0.801,0.333-0.936,0.72
		c-0.037,0.108-0.063,0.252-0.063,0.396v2.692h-0.774v-2.611c0-0.693-0.306-1.197-0.909-1.197c-0.495,0-0.854,0.396-0.981,0.792
		c-0.045,0.117-0.062,0.252-0.062,0.387v2.629h-0.774V39.62z"/>
	<path class="st5" d="M283.292,39.62c0-0.45-0.009-0.819-0.036-1.18h0.693l0.036,0.702h0.026c0.244-0.414,0.648-0.801,1.369-0.801
		c0.594,0,1.044,0.36,1.232,0.874h0.019c0.136-0.243,0.306-0.432,0.486-0.567c0.261-0.198,0.55-0.306,0.964-0.306
		c0.576,0,1.431,0.378,1.431,1.891v2.566h-0.774v-2.467c0-0.837-0.306-1.341-0.945-1.341c-0.449,0-0.801,0.333-0.936,0.72
		c-0.037,0.108-0.063,0.252-0.063,0.396v2.692h-0.774v-2.611c0-0.693-0.306-1.197-0.909-1.197c-0.495,0-0.854,0.396-0.981,0.792
		c-0.045,0.117-0.062,0.252-0.062,0.387v2.629h-0.774V39.62z"/>
	<path class="st5" d="M291.239,40.763c0.019,1.071,0.703,1.513,1.495,1.513c0.567,0,0.909-0.099,1.206-0.225l0.135,0.567
		c-0.278,0.126-0.756,0.27-1.449,0.27c-1.341,0-2.143-0.882-2.143-2.196c0-1.314,0.774-2.35,2.044-2.35c1.423,0,1.8,1.251,1.8,2.053
		c0,0.162-0.018,0.288-0.026,0.369H291.239z M293.562,40.196c0.009-0.504-0.207-1.288-1.099-1.288c-0.801,0-1.152,0.738-1.215,1.288
		H293.562z"/>
	<path class="st5" d="M295.307,39.8c0-0.513-0.009-0.954-0.036-1.359h0.693l0.026,0.855h0.037c0.197-0.585,0.675-0.955,1.206-0.955
		c0.09,0,0.153,0.009,0.225,0.027v0.747c-0.081-0.018-0.161-0.027-0.271-0.027c-0.558,0-0.953,0.423-1.062,1.017
		c-0.019,0.108-0.036,0.234-0.036,0.369v2.323h-0.783V39.8z"/>
	<path class="st5" d="M301.266,42.636c-0.207,0.108-0.666,0.252-1.252,0.252c-1.314,0-2.169-0.891-2.169-2.224
		c0-1.341,0.918-2.313,2.341-2.313c0.468,0,0.882,0.117,1.098,0.225l-0.18,0.612c-0.189-0.108-0.486-0.207-0.918-0.207
		c-1,0-1.539,0.738-1.539,1.647c0,1.008,0.647,1.629,1.512,1.629c0.45,0,0.747-0.117,0.973-0.216L301.266,42.636z"/>
	<path class="st5" d="M302.579,40.763c0.019,1.071,0.703,1.513,1.495,1.513c0.567,0,0.909-0.099,1.206-0.225l0.135,0.567
		c-0.278,0.126-0.756,0.27-1.449,0.27c-1.341,0-2.143-0.882-2.143-2.196c0-1.314,0.774-2.35,2.044-2.35c1.423,0,1.8,1.251,1.8,2.053
		c0,0.162-0.018,0.288-0.026,0.369H302.579z M304.902,40.196c0.009-0.504-0.207-1.288-1.099-1.288c-0.801,0-1.152,0.738-1.215,1.288
		H304.902z"/>
	<path class="st5" d="M264.323,50.933c-0.045-0.846-0.1-1.863-0.09-2.62h-0.027c-0.207,0.711-0.459,1.467-0.766,2.305l-1.07,2.944
		h-0.595l-0.981-2.89c-0.288-0.855-0.531-1.639-0.702-2.359h-0.019c-0.018,0.756-0.062,1.773-0.116,2.683l-0.162,2.602h-0.747
		l0.423-6.068h0.999l1.035,2.935c0.252,0.747,0.459,1.413,0.613,2.043h0.026c0.153-0.612,0.369-1.278,0.64-2.043l1.08-2.935h0.999
		l0.378,6.068h-0.766L264.323,50.933z"/>
	<path class="st5" d="M266.913,51.563c0.019,1.071,0.703,1.513,1.495,1.513c0.567,0,0.909-0.099,1.206-0.225l0.135,0.567
		c-0.278,0.126-0.756,0.27-1.449,0.27c-1.341,0-2.143-0.882-2.143-2.196s0.774-2.35,2.044-2.35c1.423,0,1.8,1.251,1.8,2.053
		c0,0.162-0.018,0.288-0.026,0.369H266.913z M269.236,50.997c0.009-0.504-0.207-1.288-1.099-1.288c-0.801,0-1.152,0.738-1.215,1.288
		H269.236z M269.424,47.359l-1.098,1.287h-0.567l0.792-1.287H269.424z"/>
	<path class="st5" d="M274.745,47.206v5.267c0,0.387,0.008,0.829,0.035,1.125h-0.711l-0.036-0.756h-0.019
		c-0.242,0.486-0.773,0.855-1.484,0.855c-1.054,0-1.863-0.891-1.863-2.215c-0.01-1.449,0.891-2.341,1.953-2.341
		c0.666,0,1.116,0.315,1.314,0.667h0.018v-2.602H274.745z M273.952,51.014c0-0.099-0.009-0.234-0.035-0.333
		c-0.117-0.504-0.55-0.918-1.145-0.918c-0.818,0-1.305,0.72-1.305,1.683c0,0.882,0.432,1.612,1.287,1.612
		c0.531,0,1.018-0.351,1.162-0.945c0.026-0.108,0.035-0.216,0.035-0.342V51.014z"/>
	<path class="st5" d="M276.94,48.017c0.008,0.27-0.189,0.486-0.505,0.486c-0.278,0-0.478-0.216-0.478-0.486
		c0-0.279,0.207-0.495,0.496-0.495C276.75,47.521,276.94,47.737,276.94,48.017z M276.057,53.598v-4.357h0.792v4.357H276.057z"/>
	<path class="st5" d="M280.576,53.598l-0.063-0.549h-0.026c-0.243,0.342-0.712,0.648-1.333,0.648c-0.882,0-1.332-0.621-1.332-1.251
		c0-1.053,0.937-1.629,2.62-1.621v-0.09c0-0.36-0.099-1.008-0.99-1.008c-0.405,0-0.829,0.126-1.135,0.324l-0.18-0.522
		c0.36-0.234,0.882-0.387,1.431-0.387c1.333,0,1.657,0.91,1.657,1.783v1.629c0,0.378,0.019,0.748,0.071,1.044H280.576z
		 M280.458,51.375c-0.864-0.018-1.845,0.135-1.845,0.981c0,0.513,0.342,0.756,0.746,0.756c0.568,0,0.928-0.36,1.054-0.729
		c0.027-0.081,0.045-0.171,0.045-0.252V51.375z"/>
	<path class="st5" d="M283.418,47.989v1.251h1.135v0.604h-1.135v2.35c0,0.54,0.154,0.846,0.595,0.846
		c0.207,0,0.36-0.027,0.459-0.054l0.036,0.594c-0.152,0.063-0.396,0.108-0.702,0.108c-0.369,0-0.666-0.117-0.854-0.333
		c-0.226-0.234-0.307-0.621-0.307-1.134v-2.376h-0.676v-0.604h0.676v-1.044L283.418,47.989z"/>
	<path class="st5" d="M286.327,48.017c0.008,0.27-0.189,0.486-0.505,0.486c-0.278,0-0.478-0.216-0.478-0.486
		c0-0.279,0.207-0.495,0.496-0.495C286.137,47.521,286.327,47.737,286.327,48.017z M285.444,53.598v-4.357h0.792v4.357H285.444z"/>
	<path class="st5" d="M291.493,51.383c0,1.612-1.116,2.314-2.17,2.314c-1.179,0-2.088-0.864-2.088-2.242
		c0-1.458,0.954-2.314,2.16-2.314C290.647,49.142,291.493,50.051,291.493,51.383z M288.036,51.429c0,0.954,0.549,1.674,1.324,1.674
		c0.756,0,1.322-0.711,1.322-1.692c0-0.738-0.369-1.675-1.305-1.675C288.441,49.736,288.036,50.6,288.036,51.429z"/>
	<path class="st5" d="M292.491,50.42c0-0.45-0.009-0.819-0.036-1.18h0.702l0.045,0.72h0.018c0.217-0.414,0.721-0.819,1.441-0.819
		c0.604,0,1.539,0.36,1.539,1.855v2.602h-0.792v-2.512c0-0.702-0.261-1.288-1.009-1.288c-0.521,0-0.927,0.369-1.062,0.811
		c-0.035,0.099-0.054,0.234-0.054,0.369v2.62h-0.792V50.42z"/>
	<path class="st5" d="M264.323,61.733c-0.045-0.846-0.1-1.863-0.09-2.62h-0.027c-0.207,0.711-0.459,1.467-0.766,2.305l-1.07,2.944
		h-0.595l-0.981-2.89c-0.288-0.855-0.531-1.639-0.702-2.359h-0.019c-0.018,0.756-0.062,1.773-0.116,2.683l-0.162,2.602h-0.747
		l0.423-6.068h0.999l1.035,2.935c0.252,0.747,0.459,1.413,0.613,2.044h0.026c0.153-0.612,0.369-1.279,0.64-2.044l1.08-2.935h0.999
		l0.378,6.068h-0.766L264.323,61.733z"/>
	<path class="st5" d="M268.885,64.398l-0.063-0.549h-0.026c-0.244,0.342-0.712,0.647-1.333,0.647c-0.882,0-1.333-0.621-1.333-1.251
		c0-1.054,0.938-1.629,2.621-1.621v-0.09c0-0.36-0.1-1.008-0.991-1.008c-0.405,0-0.828,0.126-1.134,0.324l-0.18-0.522
		c0.359-0.234,0.882-0.387,1.431-0.387c1.333,0,1.657,0.91,1.657,1.783v1.63c0,0.378,0.018,0.747,0.071,1.044H268.885z
		 M268.768,62.174c-0.864-0.018-1.846,0.135-1.846,0.981c0,0.513,0.342,0.756,0.747,0.756c0.567,0,0.927-0.36,1.054-0.729
		c0.027-0.081,0.045-0.171,0.045-0.252V62.174z"/>
	<path class="st5" d="M270.81,61.22c0-0.45-0.009-0.819-0.036-1.18h0.702l0.045,0.72h0.019c0.216-0.414,0.72-0.819,1.439-0.819
		c0.604,0,1.54,0.36,1.54,1.855v2.602h-0.792v-2.512c0-0.702-0.262-1.288-1.008-1.288c-0.523,0-0.928,0.369-1.062,0.811
		c-0.037,0.099-0.055,0.234-0.055,0.369v2.62h-0.792V61.22z"/>
	<path class="st5" d="M278.217,64.398l-0.062-0.549h-0.027c-0.242,0.342-0.711,0.647-1.332,0.647c-0.883,0-1.332-0.621-1.332-1.251
		c0-1.054,0.936-1.629,2.619-1.621v-0.09c0-0.36-0.099-1.008-0.99-1.008c-0.404,0-0.828,0.126-1.135,0.324l-0.18-0.522
		c0.36-0.234,0.883-0.387,1.432-0.387c1.332,0,1.656,0.91,1.656,1.783v1.63c0,0.378,0.019,0.747,0.072,1.044H278.217z
		 M278.101,62.174c-0.864-0.018-1.846,0.135-1.846,0.981c0,0.513,0.342,0.756,0.747,0.756c0.567,0,0.928-0.36,1.053-0.729
		c0.027-0.081,0.046-0.171,0.046-0.252V62.174z"/>
	<path class="st5" d="M283.897,60.041c-0.018,0.315-0.035,0.667-0.035,1.197v2.53c0,0.999-0.199,1.611-0.622,1.989
		c-0.423,0.396-1.035,0.522-1.585,0.522c-0.521,0-1.098-0.126-1.449-0.36l0.199-0.604c0.287,0.181,0.737,0.343,1.277,0.343
		c0.811,0,1.404-0.424,1.404-1.521v-0.486h-0.018c-0.243,0.405-0.711,0.729-1.387,0.729c-1.08,0-1.854-0.919-1.854-2.125
		c0-1.477,0.963-2.314,1.962-2.314c0.757,0,1.171,0.396,1.359,0.756h0.019l0.035-0.657H283.897z M283.079,61.76
		c0-0.135-0.01-0.252-0.046-0.36c-0.144-0.459-0.53-0.837-1.106-0.837c-0.757,0-1.297,0.639-1.297,1.647
		c0,0.855,0.432,1.566,1.287,1.566c0.486,0,0.928-0.307,1.099-0.811c0.045-0.135,0.063-0.288,0.063-0.423V61.76z"/>
	<path class="st5" d="M285.615,62.364c0.019,1.071,0.702,1.512,1.495,1.512c0.566,0,0.908-0.099,1.206-0.225l0.135,0.567
		c-0.278,0.126-0.757,0.27-1.449,0.27c-1.341,0-2.143-0.882-2.143-2.196s0.774-2.35,2.044-2.35c1.422,0,1.8,1.251,1.8,2.053
		c0,0.162-0.018,0.288-0.026,0.369H285.615z M287.938,61.796c0.009-0.504-0.207-1.288-1.099-1.288c-0.802,0-1.152,0.738-1.216,1.288
		H287.938z"/>
	<path class="st5" d="M289.682,61.22c0-0.45-0.009-0.819-0.035-1.18h0.693l0.035,0.702h0.027c0.243-0.414,0.648-0.801,1.368-0.801
		c0.595,0,1.044,0.36,1.233,0.874h0.018c0.136-0.243,0.307-0.432,0.486-0.567c0.262-0.198,0.55-0.306,0.964-0.306
		c0.576,0,1.431,0.378,1.431,1.891v2.565h-0.773v-2.467c0-0.837-0.307-1.341-0.945-1.341c-0.45,0-0.801,0.333-0.937,0.72
		c-0.036,0.108-0.063,0.252-0.063,0.396v2.692h-0.773v-2.611c0-0.693-0.307-1.197-0.91-1.197c-0.494,0-0.854,0.396-0.98,0.792
		c-0.045,0.117-0.062,0.252-0.062,0.387v2.629h-0.775V61.22z"/>
	<path class="st5" d="M297.629,62.364c0.018,1.071,0.702,1.512,1.494,1.512c0.568,0,0.91-0.099,1.207-0.225l0.135,0.567
		c-0.279,0.126-0.756,0.27-1.449,0.27c-1.342,0-2.143-0.882-2.143-2.196s0.773-2.35,2.043-2.35c1.423,0,1.801,1.251,1.801,2.053
		c0,0.162-0.018,0.288-0.027,0.369H297.629z M299.952,61.796c0.01-0.504-0.207-1.288-1.098-1.288c-0.801,0-1.152,0.738-1.215,1.288
		H299.952z"/>
	<path class="st5" d="M301.698,61.22c0-0.45-0.01-0.819-0.037-1.18h0.703l0.045,0.72h0.018c0.217-0.414,0.721-0.819,1.44-0.819
		c0.604,0,1.54,0.36,1.54,1.855v2.602h-0.793v-2.512c0-0.702-0.261-1.288-1.008-1.288c-0.522,0-0.928,0.369-1.062,0.811
		c-0.036,0.099-0.055,0.234-0.055,0.369v2.62h-0.791V61.22z"/>
	<path class="st5" d="M307.61,58.789v1.251h1.135v0.604h-1.135v2.35c0,0.54,0.154,0.846,0.595,0.846c0.207,0,0.36-0.026,0.459-0.054
		l0.036,0.595c-0.152,0.062-0.396,0.107-0.702,0.107c-0.369,0-0.666-0.117-0.854-0.333c-0.226-0.234-0.307-0.621-0.307-1.134v-2.377
		h-0.676v-0.604h0.676v-1.044L307.61,58.789z"/>
</g>
</svg>
