<?xml version="1.0" encoding="utf-8"?>
<!-- Generator: Adobe Illustrator 16.0.0, SVG Export Plug-In . SVG Version: 6.00 Build 0)  -->
<!DOCTYPE svg PUBLIC "-//W3C//DTD SVG 1.1//EN" "http://www.w3.org/Graphics/SVG/1.1/DTD/svg11.dtd">
<svg version="1.1" id="Layer_1" xmlns="http://www.w3.org/2000/svg" xmlns:xlink="http://www.w3.org/1999/xlink" x="0px" y="0px"
	 width="255.145px" height="33.019px" viewBox="0 0 255.145 33.019" style="enable-background:new 0 0 255.145 33.019;"
	 xml:space="preserve">
<style type="text/css">
<![CDATA[
	.st0{fill:#FFFFFF;}
]]>
</style>
<g>
	<path class="st0" d="M14.3,13.533V3.685h6.225v0.793h-5.313v3.556h4.83v0.793h-4.83v4.705H14.3z"/>
	<path class="st0" d="M24.496,13.725c-0.447-0.009-0.865-0.091-1.254-0.246s-0.729-0.388-1.02-0.698
		c-0.291-0.31-0.521-0.697-0.691-1.163c-0.17-0.465-0.255-1.007-0.255-1.627c0-0.52,0.067-1.005,0.201-1.457
		c0.134-0.451,0.335-0.846,0.604-1.183c0.268-0.337,0.604-0.604,1.006-0.8c0.402-0.196,0.872-0.294,1.409-0.294
		c0.545,0,1.02,0.098,1.422,0.294c0.403,0.196,0.738,0.46,1.006,0.793c0.269,0.333,0.467,0.728,0.597,1.183
		c0.129,0.456,0.194,0.944,0.194,1.464c0,0.565-0.076,1.076-0.228,1.532c-0.152,0.456-0.369,0.848-0.65,1.176
		c-0.282,0.329-0.622,0.582-1.02,0.759S24.979,13.725,24.496,13.725z M26.857,9.991c0-0.419-0.045-0.812-0.134-1.176
		s-0.228-0.682-0.416-0.951c-0.188-0.269-0.429-0.481-0.724-0.636c-0.295-0.155-0.658-0.232-1.087-0.232
		c-0.42,0-0.78,0.084-1.08,0.253c-0.3,0.169-0.543,0.392-0.731,0.67s-0.327,0.597-0.416,0.958s-0.134,0.731-0.134,1.115
		c0,0.438,0.052,0.841,0.154,1.21c0.103,0.369,0.253,0.686,0.45,0.951s0.443,0.47,0.738,0.615c0.295,0.146,0.635,0.219,1.02,0.219
		c0.42,0,0.78-0.084,1.08-0.253c0.299-0.168,0.543-0.394,0.731-0.677c0.188-0.283,0.327-0.602,0.416-0.958
		C26.812,10.743,26.857,10.374,26.857,9.991z"/>
	<path class="st0" d="M30.037,13.533h-0.805V6.448h0.805v1.327h0.027c0.224-0.565,0.512-0.959,0.865-1.183s0.821-0.335,1.402-0.335
		v0.889c-0.456-0.009-0.832,0.064-1.127,0.219c-0.295,0.155-0.53,0.365-0.704,0.629c-0.174,0.265-0.295,0.577-0.362,0.937
		c-0.067,0.36-0.101,0.736-0.101,1.128V13.533z"/>
	<path class="st0" d="M34.356,13.533h-0.805V6.448h0.805v1.067h0.027c0.206-0.411,0.5-0.723,0.885-0.937s0.805-0.322,1.261-0.322
		c0.322,0,0.595,0.037,0.818,0.109c0.224,0.073,0.414,0.171,0.57,0.294c0.156,0.123,0.286,0.267,0.389,0.431
		c0.103,0.164,0.19,0.342,0.262,0.534c0.232-0.465,0.543-0.809,0.933-1.033c0.389-0.224,0.833-0.335,1.334-0.335
		c0.474,0,0.852,0.08,1.134,0.24s0.499,0.369,0.651,0.629c0.152,0.26,0.252,0.559,0.302,0.896c0.049,0.337,0.074,0.684,0.074,1.04
		v4.473h-0.805V8.637c0-0.511-0.105-0.912-0.315-1.204c-0.21-0.292-0.602-0.438-1.174-0.438c-0.295,0-0.579,0.066-0.852,0.198
		c-0.273,0.132-0.512,0.335-0.718,0.609c-0.089,0.119-0.163,0.258-0.221,0.417c-0.059,0.16-0.105,0.326-0.141,0.5
		s-0.06,0.347-0.074,0.52c-0.013,0.173-0.02,0.333-0.02,0.479v3.816h-0.805V8.637c0-0.511-0.105-0.912-0.315-1.204
		c-0.21-0.292-0.602-0.438-1.174-0.438c-0.295,0-0.579,0.066-0.852,0.198c-0.273,0.132-0.512,0.335-0.718,0.609
		c-0.089,0.119-0.163,0.258-0.221,0.417c-0.059,0.16-0.105,0.326-0.141,0.5s-0.06,0.347-0.074,0.52
		c-0.013,0.173-0.02,0.333-0.02,0.479V13.533z"/>
	<path class="st0" d="M48.027,9.402c0.152-0.018,0.333-0.045,0.543-0.082c0.21-0.036,0.382-0.086,0.517-0.15
		c0.134-0.063,0.217-0.171,0.248-0.321s0.047-0.29,0.047-0.417c0-0.419-0.132-0.764-0.396-1.033
		c-0.264-0.269-0.709-0.403-1.335-0.403c-0.277,0-0.532,0.025-0.765,0.075c-0.233,0.05-0.436,0.137-0.61,0.26
		s-0.318,0.288-0.429,0.493c-0.112,0.205-0.186,0.463-0.222,0.773h-0.818c0.027-0.419,0.121-0.777,0.282-1.074
		c0.161-0.296,0.369-0.538,0.624-0.725s0.55-0.324,0.885-0.411c0.335-0.086,0.691-0.13,1.066-0.13c0.349,0,0.678,0.039,0.986,0.116
		c0.309,0.078,0.577,0.201,0.805,0.37s0.407,0.395,0.537,0.677c0.13,0.283,0.195,0.629,0.195,1.04v3.857
		c0,0.319,0.056,0.522,0.167,0.608c0.112,0.087,0.337,0.066,0.678-0.062v0.643c-0.063,0.019-0.154,0.045-0.275,0.082
		c-0.121,0.036-0.239,0.055-0.355,0.055c-0.125,0-0.246-0.014-0.362-0.041c-0.134-0.019-0.242-0.062-0.322-0.13
		s-0.146-0.15-0.194-0.246c-0.049-0.096-0.083-0.201-0.101-0.315c-0.018-0.114-0.027-0.234-0.027-0.362
		c-0.34,0.383-0.729,0.675-1.167,0.875c-0.438,0.2-0.912,0.301-1.422,0.301c-0.304,0-0.597-0.041-0.879-0.123
		s-0.53-0.209-0.744-0.383c-0.215-0.173-0.385-0.385-0.51-0.636c-0.125-0.25-0.188-0.549-0.188-0.896
		c0-1.204,0.809-1.915,2.428-2.134L48.027,9.402z M49.382,9.813c-0.34,0.146-0.684,0.242-1.033,0.287
		c-0.349,0.046-0.698,0.082-1.046,0.109c-0.617,0.046-1.098,0.187-1.442,0.424c-0.344,0.237-0.517,0.598-0.517,1.081
		c0,0.219,0.042,0.408,0.127,0.568s0.197,0.292,0.335,0.396c0.139,0.105,0.3,0.183,0.483,0.232c0.183,0.05,0.369,0.076,0.557,0.076
		c0.322,0,0.635-0.042,0.939-0.124c0.304-0.082,0.574-0.207,0.812-0.376c0.237-0.168,0.427-0.383,0.57-0.643
		c0.143-0.26,0.214-0.567,0.214-0.923V9.813z"/>
	<path class="st0" d="M54.735,13.561c-0.099,0.018-0.228,0.05-0.389,0.096c-0.161,0.045-0.34,0.068-0.537,0.068
		c-0.402,0-0.709-0.103-0.919-0.308c-0.21-0.205-0.315-0.572-0.315-1.101V7.132h-0.979V6.448h0.979v-1.97h0.805v1.97h1.301v0.684
		H53.38v4.856c0,0.173,0.004,0.324,0.013,0.451c0.009,0.128,0.036,0.232,0.081,0.314c0.044,0.082,0.114,0.142,0.208,0.178
		c0.094,0.037,0.226,0.055,0.396,0.055c0.107,0,0.217-0.009,0.329-0.028c0.111-0.018,0.221-0.041,0.329-0.068V13.561z"/>
	<path class="st0" d="M56.103,4.902V3.685h0.885v1.217H56.103z M56.143,13.533V6.448h0.805v7.085H56.143z"/>
	<path class="st0" d="M61.764,13.725c-0.447-0.009-0.865-0.091-1.254-0.246s-0.729-0.388-1.02-0.698
		c-0.291-0.31-0.521-0.697-0.691-1.163c-0.17-0.465-0.255-1.007-0.255-1.627c0-0.52,0.067-1.005,0.201-1.457
		c0.134-0.451,0.335-0.846,0.604-1.183c0.268-0.337,0.604-0.604,1.006-0.8c0.402-0.196,0.872-0.294,1.409-0.294
		c0.545,0,1.02,0.098,1.422,0.294c0.403,0.196,0.738,0.46,1.006,0.793c0.269,0.333,0.467,0.728,0.597,1.183
		c0.129,0.456,0.194,0.944,0.194,1.464c0,0.565-0.076,1.076-0.228,1.532c-0.152,0.456-0.369,0.848-0.65,1.176
		c-0.282,0.329-0.622,0.582-1.02,0.759S62.247,13.725,61.764,13.725z M64.125,9.991c0-0.419-0.045-0.812-0.134-1.176
		s-0.228-0.682-0.416-0.951c-0.188-0.269-0.429-0.481-0.724-0.636c-0.295-0.155-0.658-0.232-1.087-0.232
		c-0.42,0-0.78,0.084-1.08,0.253c-0.3,0.169-0.543,0.392-0.731,0.67s-0.327,0.597-0.416,0.958s-0.134,0.731-0.134,1.115
		c0,0.438,0.052,0.841,0.154,1.21c0.103,0.369,0.253,0.686,0.45,0.951s0.443,0.47,0.738,0.615c0.295,0.146,0.635,0.219,1.02,0.219
		c0.42,0,0.78-0.084,1.08-0.253c0.299-0.168,0.543-0.394,0.731-0.677c0.188-0.283,0.327-0.602,0.416-0.958
		C64.081,10.743,64.125,10.374,64.125,9.991z"/>
	<path class="st0" d="M67.265,13.533h-0.805V6.448h0.805v0.984c0.322-0.346,0.655-0.629,1-0.848
		c0.344-0.219,0.758-0.329,1.241-0.329c0.429,0,0.827,0.075,1.194,0.226c0.367,0.15,0.675,0.413,0.926,0.786
		c0.17,0.255,0.271,0.518,0.302,0.787s0.047,0.549,0.047,0.841v4.637h-0.805V8.91c0-0.638-0.139-1.117-0.416-1.437
		c-0.277-0.319-0.738-0.479-1.382-0.479c-0.25,0-0.479,0.039-0.684,0.116c-0.206,0.078-0.391,0.18-0.557,0.308
		c-0.166,0.128-0.307,0.274-0.423,0.438s-0.206,0.337-0.268,0.52c-0.081,0.228-0.13,0.447-0.147,0.657
		c-0.018,0.21-0.027,0.438-0.027,0.684V13.533z"/>
	<path class="st0" d="M83.015,3.685h0.805v9.848h-0.805v-1.245h-0.027c-0.116,0.237-0.266,0.444-0.449,0.622
		c-0.184,0.178-0.385,0.326-0.604,0.445c-0.22,0.119-0.445,0.209-0.678,0.273s-0.461,0.096-0.684,0.096
		c-0.563,0-1.042-0.096-1.436-0.287s-0.718-0.454-0.973-0.787c-0.255-0.333-0.44-0.727-0.557-1.183
		c-0.116-0.456-0.174-0.944-0.174-1.463c0-0.493,0.062-0.966,0.188-1.423c0.125-0.456,0.315-0.854,0.57-1.197
		c0.255-0.342,0.577-0.615,0.966-0.82c0.389-0.206,0.847-0.308,1.375-0.308c0.492,0,0.964,0.112,1.416,0.335
		s0.807,0.554,1.066,0.992V3.685z M83.015,9.963c0-0.401-0.054-0.782-0.161-1.142c-0.107-0.36-0.262-0.675-0.463-0.944
		s-0.447-0.483-0.738-0.643c-0.291-0.159-0.62-0.239-0.986-0.239c-0.42,0-0.783,0.084-1.086,0.253
		c-0.304,0.169-0.555,0.399-0.751,0.691S78.489,8.57,78.4,8.958s-0.125,0.805-0.107,1.251c0,0.447,0.061,0.841,0.181,1.183
		s0.289,0.631,0.503,0.869c0.215,0.237,0.465,0.417,0.751,0.54c0.286,0.123,0.599,0.185,0.939,0.185
		c0.375,0,0.711-0.078,1.006-0.233c0.295-0.155,0.541-0.367,0.738-0.636s0.347-0.588,0.449-0.958
		C82.963,10.791,83.015,10.392,83.015,9.963z"/>
	<path class="st0" d="M86.342,10.182c0,0.383,0.049,0.746,0.147,1.087c0.098,0.342,0.244,0.638,0.436,0.889s0.436,0.451,0.731,0.602
		c0.295,0.15,0.635,0.226,1.02,0.226c0.528,0,0.979-0.142,1.355-0.424c0.376-0.283,0.626-0.684,0.751-1.204h0.899
		c-0.099,0.337-0.228,0.65-0.389,0.937s-0.362,0.538-0.604,0.752c-0.242,0.214-0.528,0.381-0.859,0.499s-0.715,0.178-1.154,0.178
		c-0.554,0-1.033-0.096-1.435-0.287c-0.403-0.191-0.733-0.454-0.993-0.787c-0.259-0.333-0.452-0.725-0.577-1.176
		c-0.125-0.451-0.188-0.937-0.188-1.457c0-0.52,0.074-1.007,0.222-1.464c0.147-0.456,0.357-0.854,0.63-1.197
		c0.273-0.342,0.606-0.611,1-0.807c0.394-0.196,0.84-0.294,1.341-0.294c0.957,0,1.708,0.335,2.254,1.005
		c0.545,0.67,0.814,1.644,0.805,2.92H86.342z M90.876,9.498c0-0.346-0.047-0.672-0.141-0.978c-0.094-0.305-0.233-0.569-0.416-0.793
		s-0.414-0.401-0.691-0.534c-0.277-0.132-0.595-0.198-0.953-0.198c-0.357,0-0.673,0.068-0.946,0.205
		c-0.272,0.137-0.505,0.319-0.697,0.547C86.84,7.976,86.686,8.24,86.57,8.541c-0.116,0.301-0.192,0.621-0.228,0.958H90.876z
		 M87.844,5.682l1.489-1.901h1.033l-1.838,1.901H87.844z"/>
	<path class="st0" d="M92.566,6.448h0.872l2.254,6.073l2.254-6.073h0.872l-2.697,7.085h-0.899L92.566,6.448z"/>
	<path class="st0" d="M100.508,10.182c0,0.383,0.049,0.746,0.147,1.087c0.098,0.342,0.244,0.638,0.436,0.889s0.436,0.451,0.73,0.602
		c0.296,0.15,0.636,0.226,1.021,0.226c0.527,0,0.979-0.142,1.354-0.424c0.376-0.283,0.626-0.684,0.752-1.204h0.898
		c-0.099,0.337-0.229,0.65-0.389,0.937c-0.161,0.287-0.362,0.538-0.604,0.752c-0.241,0.214-0.527,0.381-0.858,0.499
		s-0.716,0.178-1.153,0.178c-0.555,0-1.033-0.096-1.436-0.287c-0.403-0.191-0.733-0.454-0.993-0.787
		c-0.259-0.333-0.452-0.725-0.577-1.176c-0.125-0.451-0.188-0.937-0.188-1.457c0-0.52,0.074-1.007,0.222-1.464
		c0.147-0.456,0.357-0.854,0.63-1.197c0.273-0.342,0.606-0.611,1-0.807c0.394-0.196,0.841-0.294,1.342-0.294
		c0.957,0,1.708,0.335,2.254,1.005c0.545,0.67,0.813,1.644,0.805,2.92H100.508z M105.043,9.498c0-0.346-0.047-0.672-0.142-0.978
		c-0.094-0.305-0.232-0.569-0.415-0.793c-0.184-0.224-0.414-0.401-0.691-0.534c-0.277-0.132-0.595-0.198-0.952-0.198
		c-0.358,0-0.674,0.068-0.946,0.205s-0.506,0.319-0.697,0.547c-0.192,0.228-0.347,0.492-0.463,0.793
		c-0.116,0.301-0.192,0.621-0.228,0.958H105.043z"/>
	<path class="st0" d="M107.592,13.533V3.685h0.805v9.848H107.592z"/>
	<path class="st0" d="M113.213,13.725c-0.447-0.009-0.865-0.091-1.254-0.246c-0.39-0.155-0.729-0.388-1.02-0.698
		c-0.291-0.31-0.521-0.697-0.691-1.163c-0.17-0.465-0.255-1.007-0.255-1.627c0-0.52,0.067-1.005,0.201-1.457
		c0.134-0.451,0.336-0.846,0.604-1.183c0.269-0.337,0.604-0.604,1.007-0.8c0.402-0.196,0.872-0.294,1.408-0.294
		c0.546,0,1.02,0.098,1.422,0.294c0.402,0.196,0.738,0.46,1.007,0.793c0.268,0.333,0.467,0.728,0.597,1.183
		c0.13,0.456,0.194,0.944,0.194,1.464c0,0.565-0.076,1.076-0.228,1.532c-0.152,0.456-0.369,0.848-0.651,1.176
		c-0.281,0.329-0.621,0.582-1.02,0.759C114.137,13.636,113.696,13.725,113.213,13.725z M115.574,9.991
		c0-0.419-0.045-0.812-0.135-1.176c-0.089-0.365-0.228-0.682-0.415-0.951c-0.188-0.269-0.43-0.481-0.725-0.636
		c-0.295-0.155-0.657-0.232-1.087-0.232c-0.421,0-0.78,0.084-1.08,0.253c-0.3,0.169-0.543,0.392-0.731,0.67
		c-0.188,0.278-0.326,0.597-0.415,0.958c-0.09,0.36-0.135,0.731-0.135,1.115c0,0.438,0.052,0.841,0.154,1.21
		s0.253,0.686,0.449,0.951c0.197,0.265,0.443,0.47,0.738,0.615c0.295,0.146,0.635,0.219,1.02,0.219c0.42,0,0.78-0.084,1.08-0.253
		c0.3-0.168,0.543-0.394,0.731-0.677c0.188-0.283,0.326-0.602,0.415-0.958C115.529,10.743,115.574,10.374,115.574,9.991z"/>
	<path class="st0" d="M118.808,16.324h-0.806V6.448h0.806v1.245h0.026c0.116-0.228,0.266-0.433,0.449-0.616
		c0.184-0.182,0.385-0.333,0.604-0.451c0.22-0.119,0.445-0.21,0.678-0.274c0.232-0.063,0.461-0.096,0.685-0.096
		c0.563,0,1.042,0.096,1.436,0.288c0.394,0.191,0.718,0.454,0.973,0.786c0.255,0.333,0.44,0.728,0.557,1.183
		c0.116,0.456,0.174,0.944,0.174,1.464c0,0.492-0.062,0.966-0.188,1.422s-0.315,0.855-0.57,1.197s-0.577,0.616-0.966,0.821
		s-0.848,0.308-1.375,0.308c-0.492,0-0.964-0.112-1.415-0.335c-0.452-0.224-0.808-0.554-1.066-0.992V16.324z M118.808,10.018
		c0,0.401,0.053,0.782,0.16,1.142s0.262,0.675,0.463,0.944s0.447,0.483,0.738,0.643c0.29,0.16,0.619,0.24,0.986,0.24
		c0.411,0,0.771-0.084,1.079-0.253c0.309-0.168,0.562-0.398,0.759-0.69c0.196-0.292,0.34-0.631,0.429-1.019
		c0.09-0.388,0.125-0.805,0.107-1.251c0-0.447-0.061-0.841-0.181-1.183c-0.121-0.342-0.289-0.631-0.503-0.869
		c-0.215-0.237-0.466-0.417-0.752-0.541s-0.599-0.185-0.938-0.185c-0.376,0-0.711,0.078-1.007,0.232
		c-0.295,0.155-0.541,0.367-0.737,0.636c-0.197,0.269-0.347,0.588-0.449,0.958C118.858,9.19,118.808,9.589,118.808,10.018z"/>
	<path class="st0" d="M127.004,16.324h-0.806V6.448h0.806v1.245h0.026c0.116-0.228,0.266-0.433,0.449-0.616
		c0.184-0.182,0.385-0.333,0.604-0.451c0.22-0.119,0.445-0.21,0.678-0.274c0.232-0.063,0.461-0.096,0.685-0.096
		c0.563,0,1.042,0.096,1.436,0.288c0.394,0.191,0.718,0.454,0.973,0.786c0.255,0.333,0.44,0.728,0.557,1.183
		c0.116,0.456,0.174,0.944,0.174,1.464c0,0.492-0.062,0.966-0.188,1.422s-0.315,0.855-0.57,1.197s-0.577,0.616-0.966,0.821
		s-0.848,0.308-1.375,0.308c-0.492,0-0.964-0.112-1.415-0.335c-0.452-0.224-0.808-0.554-1.066-0.992V16.324z M127.004,10.018
		c0,0.401,0.053,0.782,0.16,1.142s0.262,0.675,0.463,0.944s0.447,0.483,0.738,0.643c0.29,0.16,0.619,0.24,0.986,0.24
		c0.411,0,0.771-0.084,1.079-0.253c0.309-0.168,0.562-0.398,0.759-0.69c0.196-0.292,0.34-0.631,0.429-1.019
		c0.09-0.388,0.125-0.805,0.107-1.251c0-0.447-0.061-0.841-0.181-1.183c-0.121-0.342-0.289-0.631-0.503-0.869
		c-0.215-0.237-0.466-0.417-0.752-0.541s-0.599-0.185-0.938-0.185c-0.376,0-0.711,0.078-1.007,0.232
		c-0.295,0.155-0.541,0.367-0.737,0.636c-0.197,0.269-0.347,0.588-0.449,0.958C127.055,9.19,127.004,9.589,127.004,10.018z"/>
	<path class="st0" d="M134.798,10.182c0,0.383,0.05,0.746,0.148,1.087c0.098,0.342,0.243,0.638,0.436,0.889s0.436,0.451,0.731,0.602
		c0.295,0.15,0.635,0.226,1.02,0.226c0.527,0,0.979-0.142,1.354-0.424c0.376-0.283,0.626-0.684,0.752-1.204h0.898
		c-0.099,0.337-0.229,0.65-0.389,0.937c-0.161,0.287-0.362,0.538-0.604,0.752c-0.241,0.214-0.527,0.381-0.858,0.499
		s-0.716,0.178-1.153,0.178c-0.555,0-1.033-0.096-1.436-0.287s-0.733-0.454-0.993-0.787c-0.26-0.333-0.451-0.725-0.576-1.176
		c-0.126-0.451-0.188-0.937-0.188-1.457c0-0.52,0.074-1.007,0.222-1.464c0.147-0.456,0.357-0.854,0.631-1.197
		c0.272-0.342,0.605-0.611,0.999-0.807c0.394-0.196,0.841-0.294,1.342-0.294c0.957,0,1.708,0.335,2.254,1.005
		c0.545,0.67,0.813,1.644,0.805,2.92H134.798z M139.333,9.498c0-0.346-0.047-0.672-0.142-0.978
		c-0.094-0.305-0.232-0.569-0.415-0.793c-0.184-0.224-0.414-0.401-0.691-0.534c-0.277-0.132-0.595-0.198-0.952-0.198
		c-0.358,0-0.674,0.068-0.946,0.205s-0.505,0.319-0.697,0.547s-0.347,0.492-0.463,0.793c-0.116,0.301-0.192,0.621-0.229,0.958
		H139.333z"/>
	<path class="st0" d="M146.47,6.448h0.805v7.085h-0.805v-0.985c-0.107,0.128-0.229,0.26-0.362,0.396
		c-0.134,0.137-0.288,0.263-0.463,0.376c-0.174,0.114-0.378,0.21-0.61,0.287c-0.232,0.078-0.501,0.116-0.805,0.116
		c-0.465,0-0.854-0.066-1.167-0.198c-0.313-0.132-0.566-0.317-0.759-0.554c-0.192-0.237-0.33-0.513-0.415-0.827
		c-0.086-0.315-0.128-0.659-0.128-1.033V6.448h0.805v4.65c0,0.611,0.139,1.078,0.416,1.402s0.733,0.486,1.368,0.486
		c0.331,0,0.629-0.066,0.893-0.199c0.264-0.132,0.485-0.316,0.664-0.554s0.317-0.52,0.416-0.848s0.147-0.688,0.147-1.081V6.448z"/>
	<path class="st0" d="M150.065,13.533h-0.806V6.448h0.806v1.327h0.026c0.224-0.565,0.512-0.959,0.865-1.183s0.82-0.335,1.402-0.335
		v0.889c-0.456-0.009-0.832,0.064-1.127,0.219c-0.295,0.155-0.53,0.365-0.704,0.629c-0.175,0.265-0.296,0.577-0.362,0.937
		c-0.067,0.36-0.101,0.736-0.101,1.128V13.533z"/>
	<path class="st0" d="M165.117,12.22h0.027l2.106-8.535h0.938l-2.535,9.848h-1.006l-2.241-8.699h-0.026l-2.24,8.699h-1.006
		l-2.496-9.848h0.912l2.08,8.535h0.026l2.24-8.535h1.021L165.117,12.22z"/>
	<path class="st0" d="M169.839,10.182c0,0.383,0.05,0.746,0.148,1.087c0.098,0.342,0.243,0.638,0.436,0.889s0.436,0.451,0.731,0.602
		c0.295,0.15,0.635,0.226,1.02,0.226c0.527,0,0.979-0.142,1.354-0.424c0.376-0.283,0.626-0.684,0.752-1.204h0.898
		c-0.099,0.337-0.229,0.65-0.389,0.937c-0.161,0.287-0.362,0.538-0.604,0.752c-0.241,0.214-0.527,0.381-0.858,0.499
		s-0.716,0.178-1.153,0.178c-0.555,0-1.033-0.096-1.436-0.287s-0.733-0.454-0.993-0.787c-0.26-0.333-0.451-0.725-0.576-1.176
		c-0.126-0.451-0.188-0.937-0.188-1.457c0-0.52,0.074-1.007,0.222-1.464c0.147-0.456,0.357-0.854,0.631-1.197
		c0.272-0.342,0.605-0.611,0.999-0.807c0.394-0.196,0.841-0.294,1.342-0.294c0.957,0,1.708,0.335,2.254,1.005
		c0.545,0.67,0.813,1.644,0.805,2.92H169.839z M174.374,9.498c0-0.346-0.047-0.672-0.142-0.978
		c-0.094-0.305-0.232-0.569-0.415-0.793c-0.184-0.224-0.414-0.401-0.691-0.534c-0.277-0.132-0.595-0.198-0.952-0.198
		c-0.358,0-0.674,0.068-0.946,0.205s-0.505,0.319-0.697,0.547s-0.347,0.492-0.463,0.793c-0.116,0.301-0.192,0.621-0.229,0.958
		H174.374z"/>
	<path class="st0" d="M177.701,13.533h-0.806V3.685h0.806v3.898c0.259-0.438,0.614-0.768,1.066-0.992
		c0.451-0.224,0.923-0.335,1.415-0.335c0.527,0,0.986,0.103,1.375,0.308c0.389,0.205,0.711,0.479,0.966,0.82
		c0.255,0.342,0.445,0.741,0.57,1.197c0.125,0.457,0.188,0.93,0.188,1.423c0,0.52-0.058,1.008-0.174,1.463
		c-0.116,0.456-0.302,0.851-0.557,1.183c-0.255,0.333-0.579,0.595-0.973,0.787s-0.872,0.287-1.436,0.287
		c-0.224,0-0.452-0.032-0.685-0.096s-0.458-0.155-0.678-0.273c-0.219-0.119-0.42-0.267-0.604-0.445
		c-0.184-0.178-0.333-0.385-0.449-0.622h-0.026V13.533z M177.701,9.963c0,0.429,0.051,0.828,0.154,1.197
		c0.103,0.369,0.252,0.688,0.449,0.958c0.196,0.269,0.442,0.481,0.737,0.636c0.296,0.155,0.631,0.233,1.007,0.233
		c0.34,0,0.652-0.062,0.938-0.185s0.537-0.303,0.752-0.54c0.214-0.237,0.382-0.527,0.503-0.869c0.12-0.342,0.181-0.736,0.181-1.183
		c0.018-0.447-0.018-0.864-0.107-1.251c-0.089-0.388-0.232-0.727-0.429-1.019c-0.197-0.292-0.45-0.522-0.759-0.691
		c-0.308-0.168-0.668-0.253-1.079-0.253c-0.367,0-0.696,0.08-0.986,0.239c-0.291,0.16-0.537,0.374-0.738,0.643
		s-0.355,0.583-0.463,0.944S177.701,9.562,177.701,9.963z"/>
	<path class="st0" d="M15.011,19.028v4.17c0,1.579,0.7,2.248,1.641,2.248c1.045,0,1.714-0.69,1.714-2.248v-4.17h0.919v4.108
		c0,2.164-1.139,3.052-2.665,3.052c-1.442,0-2.53-0.826-2.53-3.01v-4.149H15.011z"/>
	<path class="st0" d="M20.863,19.111c0.439-0.073,1.014-0.136,1.746-0.136c0.899,0,1.557,0.209,1.976,0.585
		c0.387,0.334,0.616,0.847,0.616,1.474c0,0.638-0.188,1.139-0.543,1.505c-0.48,0.512-1.265,0.773-2.153,0.773
		c-0.272,0-0.523-0.011-0.732-0.063v2.822h-0.909V19.111z M21.772,22.508c0.199,0.053,0.45,0.073,0.752,0.073
		c1.098,0,1.767-0.533,1.767-1.505c0-0.93-0.658-1.38-1.662-1.38c-0.397,0-0.701,0.031-0.857,0.073V22.508z"/>
	<path class="st0" d="M29.547,19.801h-2.143v-0.773h5.215v0.773h-2.153v6.271h-0.92V19.801z"/>
	<path class="st0" d="M39.141,22.477c0,2.425-1.474,3.71-3.271,3.71c-1.861,0-3.167-1.442-3.167-3.574c0-2.237,1.39-3.7,3.271-3.7
		C37.897,18.913,39.141,20.387,39.141,22.477z M33.674,22.592c0,1.505,0.815,2.854,2.248,2.854c1.442,0,2.257-1.328,2.257-2.927
		c0-1.401-0.731-2.864-2.247-2.864C34.427,19.655,33.674,21.045,33.674,22.592z"/>
	<path class="st0" d="M43.016,23.71c0.021,1.244,0.815,1.756,1.735,1.756c0.659,0,1.056-0.115,1.4-0.261l0.157,0.659
		c-0.324,0.146-0.878,0.313-1.683,0.313c-1.557,0-2.488-1.024-2.488-2.55s0.899-2.728,2.373-2.728c1.651,0,2.09,1.453,2.09,2.383
		c0,0.188-0.021,0.334-0.031,0.428H43.016z M45.712,23.052c0.011-0.585-0.24-1.495-1.275-1.495c-0.93,0-1.338,0.857-1.411,1.495
		H45.712z M45.932,18.829l-1.275,1.495h-0.658l0.919-1.495H45.932z"/>
	<path class="st0" d="M51.345,25.885c-0.241,0.125-0.773,0.292-1.453,0.292c-1.526,0-2.519-1.035-2.519-2.582
		c0-1.558,1.066-2.687,2.718-2.687c0.543,0,1.024,0.136,1.275,0.261l-0.209,0.711c-0.22-0.125-0.564-0.24-1.066-0.24
		c-1.16,0-1.787,0.857-1.787,1.913c0,1.171,0.752,1.892,1.756,1.892c0.522,0,0.868-0.136,1.129-0.251L51.345,25.885z"/>
	<path class="st0" d="M56.936,23.501c0,1.871-1.296,2.686-2.519,2.686c-1.37,0-2.425-1.003-2.425-2.603
		c0-1.693,1.108-2.686,2.509-2.686C55.953,20.899,56.936,21.955,56.936,23.501z M52.922,23.554c0,1.108,0.637,1.944,1.536,1.944
		c0.878,0,1.537-0.826,1.537-1.965c0-0.857-0.429-1.944-1.516-1.944S52.922,22.592,52.922,23.554z"/>
	<path class="st0" d="M58.095,18.652h0.919v7.421h-0.919V18.652z"/>
	<path class="st0" d="M61.073,23.71c0.021,1.244,0.815,1.756,1.735,1.756c0.659,0,1.056-0.115,1.4-0.261l0.157,0.659
		c-0.324,0.146-0.878,0.313-1.683,0.313c-1.557,0-2.488-1.024-2.488-2.55s0.899-2.728,2.373-2.728c1.651,0,2.09,1.453,2.09,2.383
		c0,0.188-0.021,0.334-0.031,0.428H61.073z M63.77,23.052c0.011-0.585-0.24-1.495-1.275-1.495c-0.93,0-1.338,0.857-1.411,1.495
		H63.77z"/>
	<path class="st0" d="M72.38,18.652v6.114c0,0.45,0.011,0.962,0.042,1.307h-0.826l-0.042-0.878h-0.021
		c-0.282,0.564-0.899,0.993-1.725,0.993c-1.223,0-2.164-1.035-2.164-2.571c-0.01-1.683,1.035-2.718,2.269-2.718
		c0.773,0,1.296,0.366,1.526,0.773h0.021v-3.021H72.38z M71.46,23.073c0-0.115-0.011-0.271-0.042-0.387
		c-0.136-0.585-0.638-1.066-1.328-1.066c-0.951,0-1.515,0.836-1.515,1.955c0,1.024,0.501,1.871,1.495,1.871
		c0.617,0,1.181-0.408,1.348-1.098c0.031-0.125,0.042-0.251,0.042-0.397V23.073z"/>
	<path class="st0" d="M78.138,24.693c0,0.523,0.011,0.983,0.042,1.38h-0.815l-0.052-0.826h-0.021c-0.24,0.408-0.773,0.94-1.672,0.94
		c-0.794,0-1.746-0.439-1.746-2.216v-2.958h0.92v2.801c0,0.962,0.293,1.61,1.129,1.61c0.617,0,1.045-0.429,1.212-0.836
		c0.052-0.136,0.083-0.303,0.083-0.47v-3.104h0.92V24.693z"/>
	<path class="st0" d="M81.878,22.383c0-0.523-0.011-0.951-0.042-1.37h0.815l0.052,0.836h0.021c0.25-0.481,0.836-0.951,1.672-0.951
		c0.7,0,1.787,0.418,1.787,2.153v3.021h-0.92v-2.916c0-0.815-0.303-1.495-1.17-1.495c-0.606,0-1.077,0.428-1.233,0.94
		c-0.042,0.115-0.063,0.272-0.063,0.429v3.042h-0.919V22.383z"/>
	<path class="st0" d="M91.91,24.693c0,0.523,0.011,0.983,0.042,1.38h-0.815l-0.052-0.826h-0.021c-0.24,0.408-0.773,0.94-1.672,0.94
		c-0.794,0-1.746-0.439-1.746-2.216v-2.958h0.92v2.801c0,0.962,0.293,1.61,1.129,1.61c0.617,0,1.045-0.429,1.212-0.836
		c0.052-0.136,0.083-0.303,0.083-0.47v-3.104h0.92V24.693z"/>
	<path class="st0" d="M93.435,22.383c0-0.523-0.011-0.951-0.042-1.37h0.805l0.042,0.815h0.031c0.282-0.481,0.752-0.93,1.589-0.93
		c0.69,0,1.212,0.418,1.432,1.014h0.021c0.157-0.282,0.355-0.501,0.564-0.658c0.303-0.23,0.638-0.355,1.119-0.355
		c0.669,0,1.662,0.439,1.662,2.195v2.979h-0.899v-2.864c0-0.972-0.355-1.558-1.097-1.558c-0.523,0-0.93,0.387-1.087,0.836
		c-0.042,0.125-0.073,0.292-0.073,0.46v3.125h-0.899v-3.031c0-0.805-0.355-1.39-1.056-1.39c-0.575,0-0.993,0.46-1.14,0.92
		c-0.052,0.136-0.073,0.292-0.073,0.449v3.052h-0.899V22.383z"/>
	<path class="st0" d="M102.662,23.71c0.021,1.244,0.815,1.756,1.734,1.756c0.659,0,1.057-0.115,1.401-0.261l0.156,0.659
		c-0.324,0.146-0.878,0.313-1.683,0.313c-1.558,0-2.487-1.024-2.487-2.55s0.898-2.728,2.372-2.728c1.651,0,2.091,1.453,2.091,2.383
		c0,0.188-0.021,0.334-0.031,0.428H102.662z M105.358,23.052c0.011-0.585-0.24-1.495-1.275-1.495c-0.93,0-1.338,0.857-1.411,1.495
		H105.358z M105.578,18.829l-1.275,1.495h-0.658l0.92-1.495H105.578z"/>
	<path class="st0" d="M107.385,22.592c0-0.596-0.01-1.108-0.041-1.579h0.805l0.031,0.993h0.042c0.229-0.679,0.783-1.108,1.4-1.108
		c0.104,0,0.178,0.01,0.261,0.031v0.868c-0.094-0.021-0.188-0.031-0.313-0.031c-0.647,0-1.107,0.491-1.233,1.181
		c-0.021,0.125-0.041,0.271-0.041,0.428v2.697h-0.91V22.592z"/>
	<path class="st0" d="M111.868,19.592c0.011,0.313-0.22,0.564-0.585,0.564c-0.324,0-0.554-0.251-0.554-0.564
		c0-0.324,0.24-0.575,0.574-0.575C111.648,19.018,111.868,19.269,111.868,19.592z M110.844,26.073v-5.059h0.92v5.059H110.844z"/>
	<path class="st0" d="M116.738,25.289h-0.021c-0.271,0.501-0.836,0.898-1.651,0.898c-1.182,0-2.143-1.024-2.143-2.561
		c0-1.892,1.223-2.728,2.289-2.728c0.783,0,1.307,0.387,1.557,0.878h0.021l0.031-0.763h0.867c-0.021,0.429-0.031,0.868-0.031,1.39
		v5.738h-0.92V25.289z M116.738,23.062c0-0.125-0.01-0.272-0.041-0.387c-0.137-0.564-0.628-1.045-1.317-1.045
		c-0.951,0-1.526,0.805-1.526,1.944c0,1.003,0.481,1.881,1.495,1.881c0.596,0,1.107-0.366,1.316-1.003
		c0.042-0.125,0.073-0.303,0.073-0.439V23.062z"/>
	<path class="st0" d="M123.405,24.693c0,0.523,0.011,0.983,0.042,1.38h-0.815l-0.052-0.826h-0.021
		c-0.24,0.408-0.773,0.94-1.672,0.94c-0.795,0-1.746-0.439-1.746-2.216v-2.958h0.92v2.801c0,0.962,0.293,1.61,1.129,1.61
		c0.617,0,1.045-0.429,1.213-0.836c0.052-0.136,0.083-0.303,0.083-0.47v-3.104h0.92V24.693z"/>
	<path class="st0" d="M125.442,23.71c0.021,1.244,0.815,1.756,1.735,1.756c0.658,0,1.056-0.115,1.4-0.261l0.156,0.659
		c-0.324,0.146-0.878,0.313-1.683,0.313c-1.558,0-2.487-1.024-2.487-2.55s0.898-2.728,2.372-2.728c1.651,0,2.091,1.453,2.091,2.383
		c0,0.188-0.021,0.334-0.031,0.428H125.442z M128.139,23.052c0.011-0.585-0.24-1.495-1.275-1.495c-0.93,0-1.338,0.857-1.411,1.495
		H128.139z"/>
	<path class="st0" d="M132.339,26.073c0.021-0.345,0.041-0.857,0.041-1.307v-6.114h0.909v3.177h0.021
		c0.324-0.564,0.909-0.93,1.725-0.93c1.254,0,2.143,1.045,2.132,2.582c0,1.809-1.139,2.707-2.268,2.707
		c-0.731,0-1.317-0.282-1.693-0.951h-0.031l-0.042,0.836H132.339z M133.289,24.045c0,0.115,0.021,0.23,0.042,0.334
		c0.178,0.638,0.711,1.077,1.38,1.077c0.962,0,1.536-0.784,1.536-1.944c0-1.014-0.522-1.881-1.505-1.881
		c-0.627,0-1.212,0.429-1.4,1.129c-0.021,0.104-0.053,0.23-0.053,0.376V24.045z"/>
	<path class="st0" d="M138.587,21.014l1.107,2.99c0.115,0.334,0.241,0.731,0.324,1.035h0.021c0.094-0.303,0.198-0.69,0.323-1.056
		l1.004-2.969h0.972l-1.38,3.606c-0.658,1.735-1.107,2.624-1.734,3.167c-0.45,0.397-0.899,0.554-1.129,0.596l-0.23-0.773
		c0.23-0.073,0.533-0.22,0.805-0.45c0.251-0.198,0.564-0.554,0.773-1.024c0.042-0.094,0.073-0.167,0.073-0.219
		s-0.021-0.125-0.062-0.24l-1.871-4.662H138.587z"/>
	<path class="st0" d="M145.296,24.965c0.407,0.251,1.003,0.46,1.631,0.46c0.93,0,1.474-0.491,1.474-1.202
		c0-0.659-0.376-1.035-1.327-1.4c-1.15-0.408-1.861-1.003-1.861-1.997c0-1.098,0.91-1.913,2.279-1.913
		c0.721,0,1.243,0.167,1.557,0.345L148.798,20c-0.23-0.125-0.701-0.334-1.338-0.334c-0.962,0-1.328,0.575-1.328,1.056
		c0,0.659,0.429,0.982,1.4,1.359c1.192,0.46,1.798,1.035,1.798,2.069c0,1.087-0.805,2.028-2.467,2.028
		c-0.679,0-1.421-0.199-1.797-0.449L145.296,24.965z"/>
	<path class="st0" d="M151.565,19.592c0.011,0.313-0.22,0.564-0.585,0.564c-0.324,0-0.554-0.251-0.554-0.564
		c0-0.324,0.24-0.575,0.574-0.575C151.346,19.018,151.565,19.269,151.565,19.592z M150.541,26.073v-5.059h0.92v5.059H150.541z"/>
	<path class="st0" d="M152.986,22.383c0-0.523-0.01-0.951-0.041-1.37h0.805l0.041,0.815h0.032c0.282-0.481,0.752-0.93,1.588-0.93
		c0.69,0,1.213,0.418,1.433,1.014h0.021c0.157-0.282,0.355-0.501,0.564-0.658c0.304-0.23,0.638-0.355,1.118-0.355
		c0.669,0,1.662,0.439,1.662,2.195v2.979h-0.898v-2.864c0-0.972-0.355-1.558-1.098-1.558c-0.522,0-0.931,0.387-1.087,0.836
		c-0.042,0.125-0.073,0.292-0.073,0.46v3.125h-0.899v-3.031c0-0.805-0.355-1.39-1.056-1.39c-0.574,0-0.992,0.46-1.139,0.92
		c-0.053,0.136-0.073,0.292-0.073,0.449v3.052h-0.899V22.383z"/>
	<path class="st0" d="M161.701,22.666c0-0.648-0.021-1.171-0.041-1.652h0.825l0.042,0.868h0.021
		c0.377-0.617,0.973-0.982,1.798-0.982c1.223,0,2.143,1.035,2.143,2.571c0,1.819-1.107,2.717-2.299,2.717
		c-0.669,0-1.255-0.292-1.558-0.794h-0.021v2.749h-0.91V22.666z M162.611,24.014c0,0.136,0.021,0.261,0.041,0.376
		c0.168,0.637,0.722,1.076,1.38,1.076c0.973,0,1.536-0.794,1.536-1.955c0-1.014-0.532-1.881-1.505-1.881
		c-0.627,0-1.212,0.45-1.39,1.14c-0.031,0.115-0.062,0.25-0.062,0.376V24.014z"/>
	<path class="st0" d="M167.646,18.652h0.92v7.421h-0.92V18.652z"/>
	<path class="st0" d="M174.691,23.501c0,1.871-1.296,2.686-2.519,2.686c-1.369,0-2.425-1.003-2.425-2.603
		c0-1.693,1.107-2.686,2.508-2.686C173.709,20.899,174.691,21.955,174.691,23.501z M170.678,23.554c0,1.108,0.638,1.944,1.537,1.944
		c0.878,0,1.536-0.826,1.536-1.965c0-0.857-0.429-1.944-1.516-1.944S170.678,22.592,170.678,23.554z"/>
	<path class="st0" d="M175.85,22.383c0-0.523-0.01-0.951-0.041-1.37h0.814l0.053,0.836h0.021c0.251-0.481,0.837-0.951,1.673-0.951
		c0.7,0,1.787,0.418,1.787,2.153v3.021h-0.92v-2.916c0-0.815-0.303-1.495-1.171-1.495c-0.605,0-1.076,0.428-1.233,0.94
		c-0.041,0.115-0.062,0.272-0.062,0.429v3.042h-0.92V22.383z"/>
	<path class="st0" d="M181.054,27.358c0.23-0.617,0.513-1.735,0.627-2.498l1.024-0.104c-0.24,0.888-0.7,2.048-0.992,2.54
		L181.054,27.358z"/>
	<path class="st0" d="M191.996,22.979c-0.053-0.982-0.115-2.164-0.104-3.042h-0.031c-0.241,0.826-0.533,1.704-0.889,2.676
		l-1.244,3.417h-0.689l-1.14-3.355c-0.334-0.993-0.616-1.902-0.815-2.738h-0.021c-0.021,0.878-0.073,2.059-0.136,3.115l-0.188,3.021
		h-0.867l0.491-7.045h1.16l1.202,3.408c0.292,0.867,0.533,1.641,0.711,2.373h0.031c0.178-0.711,0.428-1.484,0.742-2.373l1.254-3.408
		h1.16l0.439,7.045h-0.889L191.996,22.979z"/>
	<path class="st0" d="M199.069,23.501c0,1.871-1.296,2.686-2.519,2.686c-1.369,0-2.425-1.003-2.425-2.603
		c0-1.693,1.107-2.686,2.508-2.686C198.087,20.899,199.069,21.955,199.069,23.501z M195.056,23.554c0,1.108,0.638,1.944,1.537,1.944
		c0.878,0,1.536-0.826,1.536-1.965c0-0.857-0.429-1.944-1.516-1.944S195.056,22.592,195.056,23.554z"/>
	<path class="st0" d="M200.229,22.383c0-0.523-0.01-0.951-0.041-1.37h0.814l0.053,0.836h0.021c0.251-0.481,0.837-0.951,1.673-0.951
		c0.7,0,1.787,0.418,1.787,2.153v3.021h-0.92v-2.916c0-0.815-0.303-1.495-1.171-1.495c-0.605,0-1.076,0.428-1.233,0.94
		c-0.041,0.115-0.062,0.272-0.062,0.429v3.042h-0.92V22.383z"/>
	<path class="st0" d="M207.095,19.561v1.453h1.316v0.701h-1.316v2.728c0,0.627,0.178,0.982,0.689,0.982
		c0.24,0,0.418-0.031,0.533-0.063l0.042,0.69c-0.178,0.073-0.46,0.125-0.815,0.125c-0.429,0-0.773-0.136-0.993-0.387
		c-0.261-0.272-0.355-0.721-0.355-1.317v-2.759h-0.783v-0.701h0.783v-1.212L207.095,19.561z"/>
	<path class="st0" d="M209.444,22.666c0-0.648-0.021-1.171-0.041-1.652h0.825l0.042,0.868h0.021
		c0.377-0.617,0.973-0.982,1.798-0.982c1.223,0,2.143,1.035,2.143,2.571c0,1.819-1.107,2.717-2.299,2.717
		c-0.669,0-1.255-0.292-1.558-0.794h-0.021v2.749h-0.909V22.666z M210.354,24.014c0,0.136,0.021,0.261,0.042,0.376
		c0.168,0.637,0.722,1.076,1.38,1.076c0.973,0,1.536-0.794,1.536-1.955c0-1.014-0.532-1.881-1.505-1.881
		c-0.627,0-1.212,0.45-1.39,1.14c-0.031,0.115-0.063,0.25-0.063,0.376V24.014z"/>
	<path class="st0" d="M215.903,23.71c0.021,1.244,0.815,1.756,1.735,1.756c0.658,0,1.056-0.115,1.4-0.261l0.156,0.659
		c-0.324,0.146-0.878,0.313-1.683,0.313c-1.558,0-2.487-1.024-2.487-2.55s0.898-2.728,2.372-2.728c1.651,0,2.091,1.453,2.091,2.383
		c0,0.188-0.021,0.334-0.031,0.428H215.903z M218.6,23.052c0.011-0.585-0.24-1.495-1.275-1.495c-0.93,0-1.338,0.857-1.411,1.495
		H218.6z"/>
	<path class="st0" d="M220.626,18.652h0.92v7.421h-0.92V18.652z"/>
	<path class="st0" d="M223.092,18.652h0.92v7.421h-0.92V18.652z"/>
	<path class="st0" d="M226.582,19.592c0.011,0.313-0.22,0.564-0.585,0.564c-0.324,0-0.554-0.251-0.554-0.564
		c0-0.324,0.24-0.575,0.574-0.575C226.362,19.018,226.582,19.269,226.582,19.592z M225.558,26.073v-5.059h0.92v5.059H225.558z"/>
	<path class="st0" d="M228.516,23.71c0.021,1.244,0.815,1.756,1.734,1.756c0.659,0,1.057-0.115,1.401-0.261l0.156,0.659
		c-0.324,0.146-0.878,0.313-1.683,0.313c-1.558,0-2.487-1.024-2.487-2.55s0.898-2.728,2.372-2.728c1.651,0,2.091,1.453,2.091,2.383
		c0,0.188-0.021,0.334-0.031,0.428H228.516z M231.212,23.052c0.011-0.585-0.24-1.495-1.275-1.495c-0.93,0-1.338,0.857-1.411,1.495
		H231.212z"/>
	<path class="st0" d="M233.238,22.592c0-0.596-0.01-1.108-0.041-1.579h0.805l0.031,0.993h0.042c0.229-0.679,0.783-1.108,1.4-1.108
		c0.104,0,0.178,0.01,0.261,0.031v0.868c-0.094-0.021-0.188-0.031-0.313-0.031c-0.647,0-1.107,0.491-1.233,1.181
		c-0.021,0.125-0.041,0.271-0.041,0.428v2.697h-0.91V22.592z"/>
</g>
<g>
	<text transform="matrix(1 0 0 1 -11.3589 226.7588)"><tspan x="0" y="0" style="fill:#383838; font-family:'ArnoPro-Caption'; font-size:11.3628;">Formation intensive en web developpement,</tspan><tspan x="0" y="13.635" style="fill:#383838; font-family:'ArnoPro-Caption'; font-size:11.3628;">Front et Back end. En collaboration avec les acteurs</tspan><tspan x="0" y="27.271" style="fill:#383838; font-family:'ArnoPro-Caption'; font-size:11.3628;">majeurs de l’ IT. Label Grande Ecole du Numérique.</tspan></text>
</g>
</svg>
