<?xml version="1.0" encoding="utf-8"?>
<!-- Generator: Adobe Illustrator 16.0.0, SVG Export Plug-In . SVG Version: 6.00 Build 0)  -->
<!DOCTYPE svg PUBLIC "-//W3C//DTD SVG 1.1//EN" "http://www.w3.org/Graphics/SVG/1.1/DTD/svg11.dtd">
<svg version="1.1" id="Layer_1" xmlns="http://www.w3.org/2000/svg" xmlns:xlink="http://www.w3.org/1999/xlink" x="0px" y="0px"
	 width="51.597px" height="25.488px" viewBox="0 0 51.597 25.488" style="enable-background:new 0 0 51.597 25.488;"
	 xml:space="preserve">
<style type="text/css">
<![CDATA[
	.st0{fill-rule:evenodd;clip-rule:evenodd;fill:#485058;}
	.st1{fill-rule:evenodd;clip-rule:evenodd;fill:#B7CD33;}
]]>
</style>
<g id="_x33_oRR8e_1_">
	<g>
		<path class="st0" d="M46.74,9.713c-0.607,0.098-0.967-0.185-1.33-0.334c-5.529-2.281-11.033-2.02-16.488,0.204
			c-2.26,0.921-4.537,1.362-6.945,0.842c-0.907-0.196-1.684-0.663-2.305-1.352c-0.743-0.823-0.633-2.198,0.207-2.688
			c0.512-0.299,1.131,0.018,1.662-0.235c0.069-0.032,0.15-0.039,0.225-0.058c-0.172-1.192-1.434-1.61-2.418-1.402
			c-0.986,0.209-1.846,0.686-2.676,1.232c-1.844,1.212-3.707,2.388-5.904,2.873C9.37,9.104,7.973,9.228,6.588,8.737
			c-0.724-0.256-1.31-0.663-1.52-1.458C5.012,7.064,4.918,6.861,5.17,6.676c0.215-0.157,0.379-0.17,0.597-0.014
			c1.208,0.864,2.641,1.059,4.021,0.944c0.956-0.079,1.922-0.549,2.805-1.053c1.947-1.111,3.697-2.502,5.469-3.86
			c1.307-1.003,2.641-2.012,4.265-2.365c1.765-0.385,3.588-0.662,5.221,0.55c0.661,0.49,1.172,1.065,1.212,1.936
			c0.014,0.294-0.051,0.57-0.367,0.695c-0.328,0.129-0.445-0.141-0.602-0.331c-0.072-0.088-0.137-0.181-0.211-0.267
			c-0.99-1.135-2.213-1.366-3.213-0.607c-0.898,0.682-0.984,2.042-0.141,3.207c1.168,1.614,2.834,2.156,4.755,2.081
			c1.953-0.075,3.819-0.725,5.771-0.848c3.115-0.195,6.176,0.003,9.121,1.126C44.91,8.267,45.846,8.84,46.74,9.713z"/>
		<path class="st1" d="M44.219,17.16c0-0.453-0.051-0.913,0.011-1.357c0.104-0.752-0.226-0.908-0.901-0.862
			c-0.436,0.029-0.51,0.203-0.502,0.569c0.015,0.68,0.031,1.36-0.01,2.038c-0.08,1.354-0.848,2.018-2.234,1.981
			c-1.352-0.035-2.072-0.7-2.113-2.019c-0.033-1.047,0.021-2.097-0.019-3.143c-0.022-0.577,0.304-0.527,0.691-0.554
			c0.44-0.029,0.608,0.1,0.599,0.558c-0.021,0.962-0.008,1.925,0.012,2.887c0.012,0.61,0.227,1.042,0.955,1.007
			c0.693-0.033,0.826-0.49,0.832-1.044c0.012-0.935,0.021-1.869,0-2.803c-0.01-0.418,0.09-0.612,0.561-0.603
			c1.387,0.026,2.773,0.022,4.16,0.001c0.397-0.006,0.555,0.1,0.539,0.519c-0.016,0.38-0.027,0.703-0.533,0.619
			c-0.695-0.116-0.86,0.204-0.828,0.851c0.049,1.017-0.018,2.039,0.025,3.056c0.023,0.562-0.268,0.555-0.676,0.569
			c-0.441,0.016-0.605-0.118-0.577-0.572C44.246,18.294,44.219,17.726,44.219,17.16z"/>
		<path class="st0" d="M16.074,16.975c0-0.865,0.03-1.731-0.01-2.595c-0.026-0.551,0.262-0.56,0.674-0.571
			c0.451-0.012,0.656,0.082,0.645,0.597c-0.033,1.411,0.002,2.823-0.023,4.234c-0.004,0.257,0.234,0.716-0.236,0.75
			c-0.426,0.031-0.939,0.252-1.279-0.319c-0.59-0.988-1.233-1.945-2.009-2.897c0,0.907-0.03,1.814,0.013,2.72
			c0.022,0.484-0.178,0.557-0.586,0.542c-0.381-0.015-0.694,0.047-0.677-0.539c0.044-1.438,0.001-2.88,0.026-4.319
			c0.004-0.254-0.23-0.703,0.264-0.736c0.414-0.027,0.893-0.198,1.209,0.33c0.576,0.963,1.199,1.897,1.803,2.844
			C15.949,17.001,16.012,16.989,16.074,16.975z"/>
		<path class="st1" d="M37.949,16.616c0.01,1.648-1.174,2.894-2.764,2.912c-1.568,0.019-2.822-1.246-2.84-2.86
			c-0.017-1.604,1.223-2.892,2.791-2.899C36.743,13.76,37.941,14.973,37.949,16.616z M36.584,16.628
			c0-1.026-0.527-1.646-1.406-1.652c-0.861-0.007-1.453,0.646-1.473,1.623c-0.02,1,0.604,1.72,1.482,1.713
			C36.027,18.305,36.584,17.635,36.584,16.628z"/>
		<path class="st0" d="M27.396,16.676c0,0.707-0.023,1.415,0.01,2.121c0.02,0.449-0.073,0.668-0.588,0.635
			c-0.426-0.028-0.811,0.017-0.716-0.603c0.034-0.221-0.024-0.456,0.011-0.677c0.119-0.762-0.158-1.018-0.949-0.979
			c-0.625,0.03-0.952,0.128-0.839,0.828c0.044,0.276-0.023,0.569,0.014,0.847c0.071,0.534-0.206,0.595-0.642,0.58
			c-0.398-0.014-0.695,0.012-0.681-0.558c0.038-1.498,0.036-2.998,0.001-4.497c-0.013-0.561,0.279-0.549,0.683-0.563
			c0.452-0.017,0.706,0.082,0.638,0.598c-0.029,0.222,0.021,0.456-0.01,0.677c-0.109,0.74,0.124,1.013,0.935,0.998
			c0.737-0.013,0.95-0.239,0.851-0.917c-0.036-0.249,0.021-0.512-0.01-0.763c-0.064-0.522,0.202-0.599,0.646-0.594
			c0.425,0.004,0.691,0.032,0.658,0.576C27.363,15.147,27.396,15.913,27.396,16.676z"/>
		<path class="st0" d="M5.099,17.442c0,0.428-0.026,0.817,0.007,1.201c0.046,0.531-0.037,0.797-0.699,0.805
			c-0.698,0.009-0.609-0.363-0.607-0.791c0.006-1.385,0.031-2.771-0.012-4.153c-0.018-0.581,0.186-0.737,0.723-0.689
			c0.588,0.052,1.191-0.009,1.772,0.08c0.651,0.1,1.155,0.453,1.278,1.173c0.12,0.712,0.047,1.406-0.619,1.795
			c-0.467,0.275-0.311,0.443-0.071,0.722c0.438,0.509,0.86,1.032,1.288,1.548C6.27,20.098,6.184,18.07,5.099,17.442z M5.084,15.563
			c0.115,0.274-0.23,0.814,0.443,0.756c0.429-0.037,0.767-0.236,0.771-0.715c0.005-0.517-0.339-0.731-0.812-0.758
			C4.871,14.813,5.19,15.301,5.084,15.563z"/>
		<path class="st1" d="M47.273,16.571c0-0.735,0.027-1.473-0.01-2.206c-0.025-0.474,0.17-0.559,0.59-0.552
			c0.414,0.007,0.738,0.017,0.662,0.566c-0.023,0.167-0.004,0.34-0.004,0.509c0.001,1.16,0.373,1.436,1.518,1.172
			c0.264-0.061,0.305-0.194,0.304-0.409c-0.003-0.368,0.026-0.738-0.006-1.103C50.281,14.035,50.398,13.805,51,13.8
			c0.635-0.005,0.586,0.334,0.584,0.744c-0.006,1.415-0.029,2.83,0.012,4.243c0.016,0.561-0.207,0.636-0.691,0.648
			c-0.532,0.013-0.623-0.226-0.573-0.659c0.017-0.14,0.003-0.282,0.003-0.424c0-1.16-0.352-1.422-1.501-1.161
			c-0.251,0.058-0.321,0.179-0.319,0.401c0.002,0.368-0.027,0.738,0.004,1.103c0.047,0.515-0.074,0.742-0.674,0.747
			c-0.643,0.005-0.576-0.348-0.572-0.751C47.277,17.985,47.273,17.278,47.273,16.571z"/>
		<path class="st0" d="M20.817,19.422c-1.532,0.034-2.68-0.789-3.031-2.12c-0.33-1.252,0.306-2.669,1.595-3.216
			c0.736-0.312,1.581-0.467,2.391-0.191c0.271,0.093,0.855,0.033,0.637,0.631c-0.158,0.431-0.26,0.86-0.994,0.561
			c-0.731-0.299-1.521-0.084-2.033,0.634c-0.427,0.597-0.419,1.224-0.006,1.817c0.506,0.729,1.255,0.81,2.048,0.664
			c0.312-0.058,0.56-0.314,0.833,0.159c0.348,0.606,0.168,0.873-0.424,1.011C21.477,19.454,21.114,19.56,20.817,19.422z"/>
		<path class="st1" d="M30.201,13.768c0.336,0.025,0.686,0.008,0.988,0.187c0.24,0.143,0.768,0.079,0.481,0.638
			c-0.181,0.353-0.294,0.77-0.841,0.437c-0.16-0.098-0.375-0.138-0.566-0.146c-0.29-0.014-0.584,0.044-0.678,0.377
			c-0.088,0.307,0.133,0.47,0.361,0.593c0.443,0.24,0.913,0.438,1.34,0.703c0.586,0.365,0.826,0.925,0.682,1.602
			c-0.143,0.666-0.583,1.08-1.237,1.254c-0.765,0.204-1.517,0.129-2.229-0.203c-0.323-0.15-0.8-0.236-0.46-0.833
			c0.268-0.469,0.487-0.695,0.981-0.279c0.163,0.137,0.404,0.207,0.62,0.249c0.381,0.074,0.781,0.033,0.935-0.376
			c0.157-0.423-0.223-0.582-0.517-0.745c-0.221-0.123-0.456-0.222-0.68-0.342c-0.883-0.476-1.213-1.067-1.02-1.818
			C28.578,14.229,29.246,13.758,30.201,13.768z"/>
		<path class="st0" d="M10.27,19.426c-1.59,0-1.59,0-1.59-1.554c0-1.129,0.023-2.258-0.01-3.386
			c-0.014-0.497,0.095-0.718,0.646-0.678c0.673,0.049,1.354,0.035,2.03,0.004c0.453-0.021,0.499,0.213,0.494,0.569
			c-0.006,0.343-0.018,0.627-0.483,0.588c-0.28-0.023-0.565,0.013-0.847-0.008c-0.402-0.03-0.611,0.058-0.61,0.542
			c0.001,0.473,0.188,0.585,0.603,0.549c0.252-0.021,0.51,0.021,0.762-0.009c0.515-0.062,0.512,0.247,0.522,0.623
			c0.011,0.39-0.088,0.582-0.515,0.538c-0.279-0.029-0.566,0.017-0.846-0.011c-0.418-0.04-0.533,0.142-0.52,0.536
			c0.014,0.354,0.045,0.615,0.494,0.578c0.252-0.021,0.509,0.008,0.762-0.006c0.408-0.021,0.686,0.011,0.691,0.564
			c0.005,0.536-0.23,0.598-0.653,0.563C10.892,19.406,10.58,19.426,10.27,19.426z"/>
		<path class="st0" d="M0.009,16.618c0.001-0.735,0.017-1.47-0.007-2.204c-0.012-0.408,0.068-0.627,0.55-0.602
			c0.704,0.036,1.414,0.037,2.118-0.001c0.48-0.025,0.551,0.192,0.561,0.601c0.011,0.464-0.178,0.599-0.604,0.56
			c-0.281-0.025-0.566,0.015-0.848-0.009C1.393,14.93,1.23,15.047,1.23,15.473c0.002,0.426,0.098,0.639,0.564,0.582
			c0.25-0.03,0.51,0.017,0.762-0.01c0.506-0.052,0.52,0.249,0.53,0.63c0.011,0.409-0.144,0.518-0.541,0.535
			c-1.29,0.056-1.315,0.074-1.28,1.427c0.015,0.579-0.057,0.885-0.752,0.809c-0.405-0.043-0.527-0.143-0.513-0.54
			C0.028,18.144,0.009,17.38,0.009,16.618z"/>
		<path class="st0" d="M43.439,24.358c-1.398-0.005-1.889-0.383-1.775-1.301c0.076-0.621,0.43-0.959,1.069-0.964
			c0.085-0.001,0.194-0.019,0.249,0.026c0.354,0.294,1.094-0.345,1.145,0.27c0.074,0.893,0.376,1.905-0.26,2.702
			c-0.434,0.546-1.122,0.436-1.73,0.215c-0.162-0.06-0.422-0.184-0.332-0.41c0.096-0.241,0.332-0.38,0.612-0.225
			C42.811,24.89,43.14,24.91,43.439,24.358z M42.91,22.7c-0.293,0.066-0.488,0.238-0.479,0.523c0.011,0.33,0.221,0.517,0.562,0.475
			c0.307-0.036,0.436-0.241,0.41-0.537C43.379,22.858,43.184,22.726,42.91,22.7z"/>
		<path class="st0" d="M39.27,22.212c0-0.374,0-0.739,0.001-1.105c0-0.233-0.007-0.453,0.335-0.463
			c0.31-0.008,0.387,0.137,0.385,0.41c-0.006,0.962,0,1.924-0.006,2.886c0,0.108-0.041,0.31-0.07,0.312
			c-0.59,0.029-1.195,0.123-1.766,0.021c-0.477-0.086-0.688-0.562-0.694-1.053C37.441,22.333,38.064,21.982,39.27,22.212z
			 M39.271,23.222c-0.039-0.31-0.222-0.52-0.534-0.506c-0.26,0.012-0.458,0.18-0.464,0.485c-0.007,0.351,0.189,0.506,0.516,0.495
			C39.074,23.688,39.236,23.518,39.271,23.222z"/>
		<path class="st0" d="M50.031,23.238c-0.115,0.391,0.08,1.045-0.191,1.016c-0.678-0.073-1.443,0.422-2.037-0.204
			c-0.352-0.37-0.454-0.815-0.226-1.316c0.198-0.436,0.515-0.639,0.986-0.635c0.327,0.003,0.656,0.046,0.978,0.067
			C50.333,22.218,49.816,22.92,50.031,23.238z M49.281,23.194c-0.061-0.291-0.233-0.491-0.518-0.477
			c-0.323,0.016-0.506,0.227-0.469,0.573c0.035,0.319,0.25,0.431,0.535,0.406C49.129,23.67,49.268,23.477,49.281,23.194z"/>
		<path class="st0" d="M50.51,22.46c0-0.48,0.003-0.961-0.002-1.44c-0.002-0.226,0.051-0.372,0.325-0.375
			c0.278-0.002,0.425,0.087,0.424,0.383c-0.005,0.988-0.003,1.977-0.005,2.965c0,0.256-0.146,0.328-0.382,0.329
			c-0.241,0.001-0.367-0.078-0.364-0.337C50.514,23.477,50.509,22.968,50.51,22.46z"/>
		<path class="st0" d="M46.559,21.309c0.033,0.019,0.124,0.067,0.215,0.117c-0.291,0.487,0.893,0.874,0.088,1.439
			c-0.141,0.1-0.17,0.589,0.113,0.754c0.305,0.177,0.479,0.433,0.225,0.632c-0.291,0.229-0.74,0.189-0.961-0.188
			c-0.3-0.51-0.055-1.176-0.439-1.706c-0.06-0.082,0.322-0.542,0.328-0.912C46.131,21.291,46.346,21.315,46.559,21.309z"/>
		<path class="st0" d="M40.488,23.153c0.189-0.273-0.373-0.982,0.361-0.988c0.797-0.006,0.258,0.727,0.402,1.101
			c0.039,0.098,0.021,0.225,0.004,0.334c-0.046,0.288,0.177,0.732-0.41,0.72c-0.537-0.013-0.307-0.422-0.354-0.681
			C40.469,23.502,40.488,23.358,40.488,23.153z"/>
		<path class="st0" d="M45.514,23.186c-0.285,0.391,0.294,1.124-0.471,1.096c-0.713-0.025-0.299-0.721-0.309-1.083
			c-0.01-0.345-0.374-1.052,0.353-1.032C45.87,22.186,45.107,22.935,45.514,23.186z"/>
		<path class="st0" d="M36.695,24.36c-0.373-0.017-0.533-0.194-0.535-0.486c-0.002-0.255,0.145-0.43,0.412-0.445
			c0.295-0.018,0.492,0.127,0.516,0.432C37.111,24.172,36.902,24.299,36.695,24.36z"/>
		<path class="st0" d="M45.484,21.272c-0.066,0.308-0.247,0.409-0.504,0.368c-0.275-0.045-0.371-0.245-0.324-0.491
			c0.049-0.249,0.225-0.404,0.488-0.347C45.398,20.857,45.496,21.055,45.484,21.272z"/>
		<path class="st0" d="M40.912,20.784c0.24,0.062,0.417,0.197,0.41,0.457c-0.008,0.266-0.186,0.4-0.445,0.396
			c-0.273-0.005-0.403-0.169-0.398-0.435C40.482,20.925,40.666,20.821,40.912,20.784z"/>
	</g>
</g>
</svg>
