<?xml version="1.0" encoding="utf-8"?>
<!-- Generator: Adobe Illustrator 16.0.0, SVG Export Plug-In . SVG Version: 6.00 Build 0)  -->
<!DOCTYPE svg PUBLIC "-//W3C//DTD SVG 1.1//EN" "http://www.w3.org/Graphics/SVG/1.1/DTD/svg11.dtd">
<svg version="1.1" id="Layer_1" xmlns="http://www.w3.org/2000/svg" xmlns:xlink="http://www.w3.org/1999/xlink" x="0px" y="0px"
	 width="243.667px" height="333.646px" viewBox="0 0 243.667 333.646" style="enable-background:new 0 0 243.667 333.646;"
	 xml:space="preserve">
<style type="text/css">
<![CDATA[
	.st0{fill:url(#SVGID_1_);}
	.st1{fill:url(#SVGID_2_);}
	.st2{fill:url(#SVGID_3_);}
	.st3{fill:url(#SVGID_4_);}
	.st4{fill:url(#SVGID_5_);}
	.st5{fill:url(#SVGID_6_);}
	.st6{fill:url(#SVGID_7_);}
	.st7{fill:url(#SVGID_8_);}
	.st8{fill:url(#SVGID_9_);}
	.st9{fill:#FFFFFF;}
	.st10{fill:url(#SVGID_10_);}
	.st11{fill:url(#SVGID_11_);}
	.st12{fill:url(#SVGID_12_);}
	.st13{fill:url(#SVGID_13_);}
	.st14{fill:url(#SVGID_14_);}
	.st15{fill:url(#SVGID_15_);}
	.st16{fill:url(#SVGID_16_);}
	.st17{fill:url(#SVGID_17_);}
	.st18{fill:url(#SVGID_18_);}
	.st19{fill:url(#SVGID_19_);}
	.st20{fill:url(#SVGID_20_);}
	.st21{fill:url(#SVGID_21_);}
]]>
</style>
<linearGradient id="SVGID_1_" gradientUnits="userSpaceOnUse" x1="125.5957" y1="324.1025" x2="168.8975" y2="324.1025">
	<stop  offset="0" style="stop-color:#D62B30"/>
	<stop  offset="1" style="stop-color:#E4508D"/>
</linearGradient>
<polygon class="st0" points="125.596,333.646 168.897,333.646 137.499,314.56 "/>
<linearGradient id="SVGID_2_" gradientUnits="userSpaceOnUse" x1="199.5659" y1="303.8301" x2="163.8538" y2="343.2366">
	<stop  offset="0" style="stop-color:#D62B30"/>
	<stop  offset="1" style="stop-color:#712529"/>
</linearGradient>
<polygon class="st1" points="202.143,333.646 168.897,333.646 161.92,312.713 "/>
<linearGradient id="SVGID_3_" gradientUnits="userSpaceOnUse" x1="121.0811" y1="316.1504" x2="137.4985" y2="316.1504">
	<stop  offset="0" style="stop-color:#D62B30"/>
	<stop  offset="1" style="stop-color:#712529"/>
</linearGradient>
<polygon class="st2" points="121.081,321.332 131.547,324.103 137.499,314.56 136.473,308.198 "/>
<linearGradient id="SVGID_4_" gradientUnits="userSpaceOnUse" x1="130.1108" y1="308.1973" x2="168.8975" y2="308.1973">
	<stop  offset="0" style="stop-color:#D62B30"/>
	<stop  offset="1" style="stop-color:#E4508D"/>
</linearGradient>
<polygon class="st3" points="168.897,333.646 152.069,282.75 130.111,282.75 137.499,314.56 "/>
<linearGradient id="SVGID_5_" gradientUnits="userSpaceOnUse" x1="168.8774" y1="315.0332" x2="156.3871" y2="266.9935">
	<stop  offset="0" style="stop-color:#D62B30"/>
	<stop  offset="1" style="stop-color:#712529"/>
</linearGradient>
<polygon class="st4" points="168.897,282.75 152.069,282.75 161.988,312.748 174.24,319.124 "/>
<linearGradient id="SVGID_6_" gradientUnits="userSpaceOnUse" x1="137.3159" y1="199.2842" x2="180.417" y2="319.9667">
	<stop  offset="0" style="stop-color:#D62B30"/>
	<stop  offset="1" style="stop-color:#E4508D"/>
</linearGradient>
<polygon class="st5" points="121.081,282.75 178.27,282.75 206.18,263.187 129.29,170.152 121.081,174.804 "/>
<radialGradient id="SVGID_7_" cx="155.4185" cy="188.3467" r="50.6401" gradientUnits="userSpaceOnUse">
	<stop  offset="0" style="stop-color:#E4508D"/>
	<stop  offset="1" style="stop-color:#D62B30"/>
</radialGradient>
<polygon class="st6" points="238.194,211.197 206.18,263.187 129.29,170.152 "/>
<linearGradient id="SVGID_8_" gradientUnits="userSpaceOnUse" x1="32.6987" y1="210.6494" x2="121.0811" y2="210.6494">
	<stop  offset="0" style="stop-color:#D62B30"/>
	<stop  offset="1" style="stop-color:#712529"/>
</linearGradient>
<polygon class="st7" points="32.699,212.839 121.081,212.839 121.081,208.46 40.36,208.46 "/>
<linearGradient id="SVGID_9_" gradientUnits="userSpaceOnUse" x1="32.6987" y1="247.7949" x2="121.0811" y2="247.7949">
	<stop  offset="0" style="stop-color:#E4508D"/>
	<stop  offset="0.7597" style="stop-color:#D62B30"/>
	<stop  offset="0.9898" style="stop-color:#AD2A31"/>
</linearGradient>
<polygon class="st8" points="121.081,282.75 32.699,212.839 121.081,212.839 "/>
<linearGradient id="SVGID_10_" gradientUnits="userSpaceOnUse" x1="32.6987" y1="201.8931" x2="65.5347" y2="201.8931">
	<stop  offset="0" style="stop-color:#D62B30"/>
	<stop  offset="1" style="stop-color:#712529"/>
</linearGradient>
<polygon class="st10" points="32.699,195.326 53.495,208.46 65.535,208.46 57.552,195.326 "/>
<radialGradient id="SVGID_11_" cx="44.8516" cy="193.2739" r="9.0969" gradientUnits="userSpaceOnUse">
	<stop  offset="0" style="stop-color:#E4508D"/>
	<stop  offset="1" style="stop-color:#D62B30"/>
</radialGradient>
<polygon class="st11" points="38.992,191.222 32.151,195.326 57.552,195.326 55.137,191.222 "/>
<linearGradient id="SVGID_12_" gradientUnits="userSpaceOnUse" x1="48.1245" y1="162.7642" x2="109.6971" y2="162.7642">
	<stop  offset="0" style="stop-color:#D62B30"/>
	<stop  offset="1" style="stop-color:#E4508D"/>
</linearGradient>
<polygon class="st12" points="65.535,208.46 108.768,208.46 58.146,118.437 9.988,117.068 "/>
<radialGradient id="SVGID_13_" cx="99.875" cy="163.8589" r="38.8342" gradientUnits="userSpaceOnUse">
	<stop  offset="0" style="stop-color:#E4508D"/>
	<stop  offset="1" style="stop-color:#D62B30"/>
</radialGradient>
<polygon class="st13" points="121.081,167.963 121.081,208.46 108.768,208.46 58.146,118.437 "/>
<linearGradient id="SVGID_14_" gradientUnits="userSpaceOnUse" x1="166.0151" y1="185.7803" x2="215.2733" y2="70.0236">
	<stop  offset="0" style="stop-color:#D62B30"/>
	<stop  offset="1" style="stop-color:#E4508D"/>
</linearGradient>
<polygon class="st14" points="166.23,49.482 129.29,170.152 216.467,203.008 177.996,47.566 "/>
<linearGradient id="SVGID_15_" gradientUnits="userSpaceOnUse" x1="177.9956" y1="155.3765" x2="243.6665" y2="155.3765">
	<stop  offset="0" style="stop-color:#D62B30"/>
	<stop  offset="1" style="stop-color:#E4508D"/>
</linearGradient>
<polygon class="st15" points="206.18,263.187 243.667,220.227 218.219,132.392 177.996,47.566 216.467,203.008 238.194,211.197 "/>
<linearGradient id="SVGID_16_" gradientUnits="userSpaceOnUse" x1="173.0493" y1="24.8535" x2="137.3375" y2="49.4825">
	<stop  offset="0" style="stop-color:#D62B30"/>
	<stop  offset="1" style="stop-color:#E4508D"/>
</linearGradient>
<polygon class="st16" points="160.553,68.026 129.29,20.478 150.086,15.279 166.23,0 177.996,47.566 166.23,49.482 "/>
<linearGradient id="SVGID_17_" gradientUnits="userSpaceOnUse" x1="211.6597" y1="37.7114" x2="155.0119" y2="45.1002">
	<stop  offset="0" style="stop-color:#D62B30"/>
	<stop  offset="1" style="stop-color:#712529"/>
</linearGradient>
<polygon class="st17" points="185.111,11.448 208.37,6.796 195.043,83.518 177.996,47.566 166.23,0 "/>
<linearGradient id="SVGID_18_" gradientUnits="userSpaceOnUse" x1="199.3384" y1="51.1641" x2="225.6079" y2="51.1641">
	<stop  offset="0" style="stop-color:#D62B30"/>
	<stop  offset="1" style="stop-color:#712529"/>
</linearGradient>
<polygon class="st18" points="225.608,58.786 199.338,58.786 201.987,43.542 "/>
<linearGradient id="SVGID_19_" gradientUnits="userSpaceOnUse" x1="219.2915" y1="67.7173" x2="183.585" y2="66.9575">
	<stop  offset="0" style="stop-color:#D62B30"/>
	<stop  offset="1" style="stop-color:#712529"/>
</linearGradient>
<polygon class="st19" points="196.298,76.293 199.338,58.786 225.608,58.786 "/>
<linearGradient id="SVGID_20_" gradientUnits="userSpaceOnUse" x1="121.0811" y1="119.3604" x2="160.5527" y2="119.3604">
	<stop  offset="0" style="stop-color:#D62B30"/>
	<stop  offset="1" style="stop-color:#712529"/>
</linearGradient>
<polygon class="st20" points="157.851,63.917 160.553,68.026 129.29,170.152 121.081,174.804 121.081,167.963 "/>
<linearGradient id="SVGID_21_" gradientUnits="userSpaceOnUse" x1="3.9946" y1="153.5444" x2="28.621" y2="125.2241">
	<stop  offset="0" style="stop-color:#D62B30"/>
	<stop  offset="1" style="stop-color:#712529"/>
</linearGradient>
<polygon class="st21" points="0,172.067 31.155,151.896 9.988,117.068 "/>
<circle class="st9" cx="192.088" cy="51.164" r="4.789"/>
</svg>
