<?xml version="1.0" encoding="utf-8"?>
<!-- Generator: Adobe Illustrator 16.0.0, SVG Export Plug-In . SVG Version: 6.00 Build 0)  -->
<!DOCTYPE svg PUBLIC "-//W3C//DTD SVG 1.1//EN" "http://www.w3.org/Graphics/SVG/1.1/DTD/svg11.dtd">
<svg version="1.1" id="Layer_1" xmlns="http://www.w3.org/2000/svg" xmlns:xlink="http://www.w3.org/1999/xlink" x="0px" y="0px"
	 width="51.595px" height="15.961px" viewBox="0 0 51.595 15.961" style="enable-background:new 0 0 51.595 15.961;"
	 xml:space="preserve">
<style type="text/css">
<![CDATA[
	.st0{fill:#ED682F;}
	.st1{fill-rule:evenodd;clip-rule:evenodd;fill:#ED682F;}
	.st2{fill-rule:evenodd;clip-rule:evenodd;fill:#F8DDCF;}
	.st3{fill-rule:evenodd;clip-rule:evenodd;fill:#FDF7F3;}
]]>
</style>
<g>
	<path class="st0" d="M51.521,15.955c-17.078,0-34.157,0-51.235,0.006c-0.233,0-0.286-0.053-0.285-0.285
		C0.008,10.545,0.008,5.414,0,0.283c-0.001-0.231,0.052-0.284,0.285-0.282c17.078,0.006,34.157,0.006,51.235,0.006
		C51.521,5.322,51.521,10.639,51.521,15.955z M34.269,11.67c-0.084-0.119-0.227-0.135-0.24,0.002
		c-0.027,0.281-0.053,0.574,0.049,0.855c0.111-0.221,0.062-0.449,0.061-0.676c0.262,0.062,0.301,0.324,0.437,0.494
		c0.206,0.258,0.212,0.27,0.405-0.006c0.12-0.172,0.24-0.344,0.408-0.584c0,0.283,0,0.477,0,0.668c0,0.057,0.017,0.109,0.08,0.109
		c0.062,0,0.081-0.051,0.081-0.107c0.001-0.205,0.002-0.412-0.003-0.617c-0.001-0.088,0.041-0.203-0.091-0.229
		c-0.101-0.02-0.165,0.039-0.222,0.129c-0.137,0.211-0.289,0.416-0.449,0.645C34.6,12.109,34.434,11.889,34.269,11.67z
		 M27.806,11.668c-0.285-0.164-0.597-0.111-0.9-0.102c-0.17,0.008-0.258,0.125-0.269,0.287c-0.01,0.145-0.007,0.289,0.002,0.434
		c0.009,0.139,0.082,0.25,0.222,0.258c0.246,0.016,0.495,0.012,0.742,0c0.128-0.008,0.205-0.094,0.199-0.23
		c-0.004-0.074-0.08-0.137-0.111-0.072c-0.168,0.352-0.469,0.141-0.705,0.178c-0.193,0.031-0.205-0.141-0.201-0.273
		c0.006-0.16-0.098-0.4,0.16-0.43c0.271-0.031,0.592-0.156,0.773,0.189c0.107-0.072,0.02-0.176,0.084-0.238
		c0.176,0.023,0.404-0.014,0.516,0.084c0.129,0.111,0.023,0.352,0.05,0.531c0.013,0.088-0.074,0.246,0.081,0.244
		c0.109,0,0.062-0.152,0.064-0.236c0.014-0.512,0.012-0.512,0.457-0.617c0.01-0.002,0.014-0.031,0.043-0.1
		C28.594,11.604,28.194,11.479,27.806,11.668z M19.23,2.852c-0.028-0.131-0.101-0.287-0.282-0.359
		c-0.232-0.092-0.414-0.004-0.583,0.164c-1.503,1.506-3.009,3.008-4.513,4.512c-0.299,0.299-0.294,0.521,0.004,0.82
		c0.934,0.936,1.867,1.873,2.801,2.809c0.548,0.549,1.095,1.098,1.647,1.641c0.216,0.211,0.496,0.211,0.685,0.014
		c0.178-0.184,0.165-0.443-0.035-0.662c-0.076-0.084-0.158-0.162-0.238-0.242c-1.242-1.242-2.479-2.488-3.729-3.721
		c-0.201-0.199-0.199-0.299,0.003-0.498c1.347-1.326,2.677-2.668,4.013-4.004C19.122,3.205,19.233,3.086,19.23,2.852z M36.657,7.695
		c0.002,0,0.002,0,0.004,0c0,0.434-0.016,0.869,0.005,1.303c0.013,0.273-0.063,0.369-0.354,0.365
		c-1.054-0.018-2.108-0.008-3.162-0.006c-0.37,0-0.506,0.133-0.507,0.498c-0.002,0.797,0.004,1.592-0.002,2.389
		c-0.002,0.26,0.088,0.42,0.366,0.428c0.267,0.008,0.394-0.127,0.395-0.432c0.003-0.621,0.009-1.24-0.004-1.859
		c-0.005-0.217,0.063-0.279,0.28-0.277c0.816,0.014,1.633,0.01,2.449,0.004c0.766-0.006,1.305-0.541,1.312-1.305
		c0.006-0.734,0.006-1.469-0.002-2.201c-0.008-0.705-0.522-1.238-1.231-1.252c-0.784-0.016-1.571-0.016-2.356,0
		c-0.668,0.012-1.188,0.545-1.205,1.213c-0.01,0.393,0.005,0.785-0.004,1.178C32.636,8,32.735,8.16,33.007,8.174
		c0.262,0.014,0.392-0.127,0.395-0.434c0.004-0.477,0.012-0.951-0.002-1.426c-0.006-0.197,0.062-0.244,0.248-0.242
		c0.93,0.008,1.859,0.006,2.789,0c0.176-0.002,0.229,0.051,0.225,0.229C36.649,6.766,36.657,7.23,36.657,7.695z M20.29,6.113
		c0,0,0,0,0-0.002c0.549,0,1.096,0.01,1.644-0.004c0.208-0.006,0.292,0.045,0.29,0.27c-0.012,0.9-0.014,1.799-0.002,2.699
		c0.004,0.219-0.082,0.252-0.27,0.25c-0.672-0.008-1.344,0.004-2.016-0.008c-0.317-0.004-0.746,0.145-0.922-0.061
		c-0.184-0.215-0.036-0.633-0.055-0.963c-0.012-0.186,0.068-0.225,0.234-0.221c0.443,0.008,0.889-0.002,1.333,0.002
		c0.251,0.002,0.431-0.08,0.446-0.355c0.016-0.305-0.093-0.406-0.438-0.408c-0.619-0.004-1.239-0.004-1.859,0
		c-0.361,0-0.482,0.119-0.486,0.484c-0.005,0.6-0.006,1.199,0,1.799c0.004,0.373,0.134,0.5,0.51,0.502
		c0.982,0.004,1.965,0.008,2.947,0c0.815-0.008,1.334-0.529,1.344-1.344c0.007-0.691,0.007-1.385,0.002-2.078
		c-0.004-0.773-0.527-1.314-1.297-1.324c-1.023-0.012-2.047-0.006-3.07-0.002c-0.318,0-0.437,0.119-0.432,0.393
		c0.004,0.279,0.165,0.375,0.422,0.373C19.175,6.113,19.732,6.113,20.29,6.113z M27.127,7.695c0,0.361-0.003,0.723,0.001,1.086
		c0.01,0.764,0.545,1.311,1.309,1.318c0.725,0.008,1.449,0.008,2.172-0.002c0.775-0.012,1.307-0.539,1.317-1.309
		c0.011-0.725,0.011-1.449,0-2.174c-0.011-0.703-0.522-1.24-1.231-1.26c-0.775-0.023-1.552-0.021-2.326-0.002
		c-0.719,0.02-1.229,0.566-1.24,1.287C27.124,6.99,27.128,7.344,27.127,7.695z M24.707,6.178c0-1.127,0.001-2.252-0.001-3.377
		c0-0.357-0.145-0.494-0.506-0.494c-0.373,0-0.493,0.121-0.494,0.5c0,2.262,0,4.525,0,6.787c0,0.346,0.161,0.506,0.5,0.506
		c0.332,0,0.501-0.172,0.501-0.514C24.708,8.449,24.707,7.314,24.707,6.178z M26.425,7.752c0,0-0.001,0-0.002,0
		c0-0.631,0.004-1.262,0-1.893c-0.003-0.355-0.137-0.48-0.494-0.482c-0.373-0.002-0.516,0.129-0.516,0.492
		c-0.004,1.24-0.004,2.48-0.004,3.721c0.001,0.352,0.164,0.512,0.509,0.508c0.347-0.002,0.503-0.156,0.505-0.516
		C26.427,8.971,26.425,8.361,26.425,7.752z M13.095,7.758c0.001,0,0.002,0,0.004,0c0-0.629,0.002-1.26-0.002-1.891
		c-0.002-0.363-0.139-0.488-0.518-0.488c-0.355,0-0.482,0.121-0.482,0.484c-0.002,1.25,0,2.5,0.002,3.752
		c0,0.334,0.15,0.477,0.492,0.475c0.349,0,0.501-0.141,0.503-0.471C13.097,8.998,13.095,8.379,13.095,7.758z M25.905,3.902
		c0.42,0.004,0.515-0.086,0.52-0.496c0.006-0.41-0.095-0.525-0.458-0.529c-0.464-0.004-0.56,0.078-0.564,0.48
		C25.397,3.801,25.485,3.898,25.905,3.902z M20.464,11.74c0.294,0.277,0.526,0.49,0.75,0.713c0.074,0.072,0.148,0.117,0.246,0.082
		c0.105-0.037,0.07-0.135,0.072-0.213c0.002-0.195,0-0.393,0.001-0.59c0-0.061,0.009-0.141-0.077-0.139
		c-0.077,0.002-0.078,0.076-0.084,0.141c-0.016,0.197,0.031,0.4-0.076,0.715c-0.255-0.293-0.456-0.529-0.661-0.762
		c-0.062-0.07-0.136-0.135-0.241-0.104c-0.127,0.039-0.084,0.15-0.087,0.236c-0.005,0.176-0.004,0.352,0.002,0.525
		c0.002,0.074-0.044,0.193,0.087,0.189c0.104-0.004,0.066-0.109,0.068-0.176C20.468,12.186,20.464,12.01,20.464,11.74z
		 M37.586,12.545c0.124,0,0.247,0.006,0.37,0c0.128-0.01,0.239-0.051,0.301-0.18c0.205-0.434-0.012-0.793-0.484-0.799
		c-0.061-0.002-0.123,0.004-0.185,0.004c-0.478,0.004-0.478,0.004-0.481,0.49C37.104,12.547,37.104,12.547,37.586,12.545z
		 M25.081,12.359c-0.084-0.088-0.061-0.223,0.016-0.396c0.08-0.18,0.01-0.354-0.25-0.389c-0.77-0.105-0.827-0.062-0.828,0.705
		c0,0.041-0.002,0.082,0,0.123c0.004,0.059-0.016,0.139,0.076,0.137c0.07-0.002,0.072-0.072,0.064-0.119
		c-0.043-0.254,0.111-0.26,0.293-0.246c0.113,0.006,0.229,0.016,0.34-0.002C25.009,12.135,25.118,12.199,25.081,12.359z
		 M23.834,12.549c0.001-0.031,0.001-0.064,0.001-0.098c-0.182-0.061-0.375-0.016-0.562-0.033c-0.101-0.008-0.236,0.053-0.238-0.145
		c-0.002-0.186,0.115-0.152,0.227-0.16c0.184-0.016,0.375,0.037,0.619-0.062c-0.232-0.102-0.408-0.045-0.574-0.068
		c-0.104-0.014-0.276,0.074-0.266-0.146c0.01-0.191,0.162-0.115,0.258-0.127c0.177-0.023,0.363,0.023,0.529-0.061
		c-0.833-0.232-0.947-0.146-0.936,0.666c0.002,0.041-0.002,0.082-0.002,0.123c0,0.08,0.047,0.111,0.118,0.111
		C23.283,12.549,23.559,12.549,23.834,12.549z M36.757,12.072c0-0.029,0.002-0.059,0.002-0.088c-0.18,0-0.358,0-0.537,0
		c-0.104,0-0.215,0.008-0.206-0.152c0.009-0.146,0.118-0.121,0.204-0.123c0.198-0.004,0.396,0,0.596,0c0-0.041,0-0.082,0.001-0.121
		c-0.292-0.033-0.606-0.076-0.876,0.021c-0.164,0.059-0.043,0.336-0.067,0.514c-0.013,0.092-0.003,0.186-0.001,0.279
		c0,0.049-0.008,0.102,0.043,0.137c0.078,0.053,0.801-0.014,0.943-0.119c-0.219,0-0.392,0.01-0.562-0.002
		c-0.109-0.008-0.289,0.09-0.281-0.156c0.008-0.236,0.186-0.133,0.295-0.152C36.457,12.082,36.614,12.143,36.757,12.072z
		 M25.237,12.504c0.429-0.215,0.768-0.223,1.115,0.008c0.029,0.02,0.087,0.031,0.111,0.016c0.064-0.041,0.009-0.088-0.015-0.129
		c-0.142-0.24-0.282-0.48-0.427-0.719c-0.071-0.115-0.174-0.174-0.266-0.033C25.575,11.926,25.409,12.217,25.237,12.504z
		 M40.065,12.465c-0.182-0.291-0.348-0.588-0.545-0.861c-0.061-0.084-0.169-0.012-0.223,0.078c-0.141,0.238-0.281,0.477-0.424,0.715
		c-0.023,0.043-0.074,0.088-0.014,0.131c0.051,0.033,0.088-0.002,0.131-0.039c0.234-0.197,0.664-0.191,0.918,0.014
		c0.033,0.027,0.065,0.055,0.106,0.035C40.036,12.527,40.047,12.494,40.065,12.465z M31.728,12.531c0-0.016,0-0.033,0-0.051
		c-0.18,0-0.361,0.012-0.54-0.004c-0.128-0.01-0.223-0.068-0.214-0.236c0.01-0.172,0.126-0.127,0.221-0.135
		c0.191-0.014,0.391,0.029,0.578-0.07c-0.211-0.047-0.42-0.047-0.63-0.047c-0.086,0-0.16-0.002-0.166-0.125
		c-0.005-0.123,0.079-0.109,0.154-0.141c0.099-0.041,0.182,0.023,0.271,0.01c0.13-0.02,0.287,0.062,0.412-0.119
		c-0.288,0-0.542,0.004-0.796-0.002c-0.114-0.002-0.154,0.031-0.167,0.154c-0.08,0.777-0.072,0.789,0.697,0.777
		C31.608,12.541,31.667,12.535,31.728,12.531z M30.729,11.619c-0.023-0.02-0.049-0.039-0.072-0.057
		c-0.25,0.205-0.306,0.553-0.517,0.795c-0.22-0.248-0.276-0.594-0.573-0.768c0.123,0.312,0.278,0.607,0.451,0.891
		c0.07,0.115,0.188,0.09,0.25-0.016C30.43,12.188,30.577,11.9,30.729,11.619z M21.665,11.596c-0.008,0.031-0.015,0.061-0.021,0.09
		c0.265,0.021,0.57-0.023,0.489,0.402c-0.026,0.137-0.098,0.42,0.071,0.422c0.159,0.002,0.08-0.277,0.07-0.424
		c-0.016-0.271,0.027-0.439,0.353-0.381c0.042,0.006,0.136-0.002,0.085-0.109C22.362,11.596,22.015,11.596,21.665,11.596z
		 M38.667,12.061c-0.001,0-0.002,0-0.002,0c0-0.113,0.001-0.227,0-0.338c-0.001-0.051,0.002-0.115-0.062-0.125
		c-0.084-0.012-0.096,0.061-0.097,0.121c-0.002,0.234,0,0.471,0,0.707c0,0.055,0.02,0.107,0.08,0.111
		c0.062,0.002,0.08-0.053,0.08-0.107C38.667,12.307,38.667,12.184,38.667,12.061z M19.962,11.529c-0.182,0.305-0.174,0.83,0,1.025
		C19.962,12.221,19.962,11.912,19.962,11.529z M29.376,11.6c-0.045-0.002-0.092-0.006-0.138-0.008c0,0.287,0,0.574,0.001,0.861
		c0,0.045,0.021,0.08,0.072,0.076c0.051-0.006,0.063-0.049,0.064-0.09C29.378,12.16,29.376,11.879,29.376,11.6z"/>
	<path class="st3" d="M51.521,15.955c0-5.316,0-10.633,0-15.948c0.121-0.01,0.059,0.083,0.059,0.122
		c0.004,5.234,0.004,10.469,0,15.703C51.579,15.871,51.642,15.965,51.521,15.955z"/>
	<path class="st3" d="M19.23,2.852c0.003,0.234-0.108,0.354-0.228,0.473c-1.336,1.336-2.666,2.678-4.013,4.004
		c-0.202,0.199-0.204,0.299-0.003,0.498c1.25,1.232,2.486,2.479,3.729,3.721c0.08,0.08,0.162,0.158,0.238,0.242
		c0.2,0.219,0.213,0.479,0.035,0.662c-0.188,0.197-0.469,0.197-0.685-0.014c-0.553-0.543-1.1-1.092-1.647-1.641
		c-0.934-0.936-1.867-1.873-2.801-2.809c-0.298-0.299-0.303-0.521-0.004-0.82c1.504-1.504,3.01-3.006,4.513-4.512
		c0.169-0.168,0.351-0.256,0.583-0.164C19.13,2.564,19.202,2.721,19.23,2.852z"/>
	<path class="st3" d="M36.657,7.695c0-0.465-0.008-0.93,0.004-1.395c0.005-0.178-0.049-0.23-0.225-0.229
		c-0.93,0.006-1.859,0.008-2.789,0c-0.187-0.002-0.254,0.045-0.248,0.242c0.014,0.475,0.006,0.949,0.002,1.426
		c-0.003,0.307-0.133,0.447-0.395,0.434C32.735,8.16,32.636,8,32.642,7.74c0.009-0.393-0.006-0.785,0.004-1.178
		c0.018-0.668,0.537-1.201,1.205-1.213c0.785-0.016,1.572-0.016,2.356,0c0.709,0.014,1.224,0.547,1.231,1.252
		c0.008,0.732,0.008,1.467,0.002,2.201c-0.008,0.764-0.547,1.299-1.312,1.305c-0.816,0.006-1.633,0.01-2.449-0.004
		c-0.217-0.002-0.285,0.061-0.28,0.277c0.013,0.619,0.007,1.238,0.004,1.859c-0.001,0.305-0.128,0.439-0.395,0.432
		c-0.278-0.008-0.368-0.168-0.366-0.428c0.006-0.797,0-1.592,0.002-2.389c0.001-0.365,0.137-0.498,0.507-0.498
		c1.054-0.002,2.108-0.012,3.162,0.006c0.29,0.004,0.366-0.092,0.354-0.365c-0.021-0.434-0.005-0.869-0.005-1.303
		C36.659,7.695,36.659,7.695,36.657,7.695z"/>
	<path class="st3" d="M20.29,6.113c-0.558,0-1.115,0-1.674,0.002c-0.257,0.002-0.418-0.094-0.422-0.373
		c-0.005-0.273,0.113-0.393,0.432-0.393c1.023-0.004,2.047-0.01,3.07,0.002c0.77,0.01,1.293,0.551,1.297,1.324
		c0.005,0.693,0.005,1.387-0.002,2.078c-0.01,0.814-0.528,1.336-1.344,1.344c-0.982,0.008-1.965,0.004-2.947,0
		c-0.376-0.002-0.506-0.129-0.51-0.502c-0.006-0.6-0.005-1.199,0-1.799c0.004-0.365,0.125-0.484,0.486-0.484
		c0.62-0.004,1.24-0.004,1.859,0c0.345,0.002,0.453,0.104,0.438,0.408c-0.016,0.275-0.195,0.357-0.446,0.355
		c-0.444-0.004-0.89,0.006-1.333-0.002c-0.166-0.004-0.246,0.035-0.234,0.221c0.019,0.33-0.129,0.748,0.055,0.963
		c0.176,0.205,0.604,0.057,0.922,0.061c0.672,0.012,1.344,0,2.016,0.008c0.188,0.002,0.273-0.031,0.27-0.25
		c-0.012-0.9-0.01-1.799,0.002-2.699c0.002-0.225-0.082-0.275-0.29-0.27c-0.548,0.014-1.095,0.004-1.644,0.004
		C20.29,6.113,20.29,6.113,20.29,6.113z"/>
	<path class="st3" d="M27.128,7.695c0-0.352-0.004-0.705,0-1.055c0.012-0.721,0.521-1.268,1.24-1.287
		c0.774-0.02,1.551-0.021,2.326,0.002c0.709,0.02,1.221,0.557,1.231,1.26c0.011,0.725,0.011,1.449,0,2.174
		c-0.011,0.77-0.542,1.297-1.317,1.309c-0.723,0.01-1.447,0.01-2.172,0.002c-0.764-0.008-1.299-0.555-1.309-1.318
		C27.124,8.418,27.127,8.057,27.128,7.695z M27.897,7.703c0,0.465,0.002,0.93-0.002,1.395c-0.002,0.141,0.016,0.223,0.197,0.221
		c0.95-0.008,1.9-0.006,2.85,0c0.16,0,0.214-0.053,0.213-0.217c-0.006-0.918-0.006-1.838,0-2.756c0-0.152-0.037-0.221-0.207-0.221
		c-0.949,0.008-1.898,0.008-2.849,0c-0.171,0-0.208,0.062-0.206,0.217C27.901,6.795,27.896,7.25,27.897,7.703z"/>
	<path class="st3" d="M24.707,6.178c0,1.137,0.001,2.271,0,3.408c0,0.342-0.169,0.514-0.501,0.514c-0.339,0-0.5-0.16-0.5-0.506
		c0-2.262,0-4.525,0-6.787c0.001-0.379,0.121-0.5,0.494-0.5c0.361,0,0.506,0.137,0.506,0.494
		C24.708,3.926,24.707,5.051,24.707,6.178z"/>
	<path class="st3" d="M26.425,7.752c0,0.609,0.002,1.219-0.002,1.83c-0.002,0.359-0.158,0.514-0.505,0.516
		c-0.345,0.004-0.508-0.156-0.509-0.508c0-1.24,0-2.48,0.004-3.721c0-0.363,0.143-0.494,0.516-0.492
		c0.357,0.002,0.491,0.127,0.494,0.482c0.004,0.631,0,1.262,0,1.893C26.424,7.752,26.425,7.752,26.425,7.752z"/>
	<path class="st3" d="M13.095,7.758c0,0.621,0.002,1.24-0.001,1.861c-0.002,0.33-0.154,0.471-0.503,0.471
		c-0.342,0.002-0.492-0.141-0.492-0.475c-0.002-1.252-0.004-2.502-0.002-3.752c0-0.363,0.127-0.484,0.482-0.484
		c0.379,0,0.516,0.125,0.518,0.488c0.004,0.631,0.002,1.262,0.002,1.891C13.097,7.758,13.096,7.758,13.095,7.758z"/>
	<path class="st3" d="M25.905,3.902c-0.42-0.004-0.508-0.102-0.503-0.545c0.005-0.402,0.101-0.484,0.564-0.48
		c0.363,0.004,0.464,0.119,0.458,0.529C26.42,3.816,26.325,3.906,25.905,3.902z"/>
	<path class="st2" d="M20.464,11.74c0,0.27,0.004,0.445,0,0.619c-0.002,0.066,0.036,0.172-0.068,0.176
		c-0.131,0.004-0.085-0.115-0.087-0.189c-0.006-0.174-0.007-0.35-0.002-0.525c0.003-0.086-0.04-0.197,0.087-0.236
		c0.105-0.031,0.18,0.033,0.241,0.104c0.205,0.232,0.406,0.469,0.661,0.762c0.107-0.314,0.061-0.518,0.076-0.715
		c0.006-0.064,0.007-0.139,0.084-0.141c0.086-0.002,0.077,0.078,0.077,0.139c-0.001,0.197,0.001,0.395-0.001,0.59
		c-0.002,0.078,0.033,0.176-0.072,0.213c-0.098,0.035-0.172-0.01-0.246-0.082C20.99,12.23,20.758,12.018,20.464,11.74z"/>
	<path class="st2" d="M27.802,11.668c-0.064,0.062,0.023,0.166-0.084,0.238c-0.182-0.346-0.502-0.221-0.773-0.189
		c-0.258,0.029-0.154,0.27-0.16,0.43c-0.004,0.133,0.008,0.305,0.201,0.273c0.236-0.037,0.537,0.174,0.705-0.178
		c0.031-0.064,0.107-0.002,0.111,0.072c0.006,0.137-0.071,0.223-0.199,0.23c-0.247,0.012-0.496,0.016-0.742,0
		c-0.14-0.008-0.213-0.119-0.222-0.258c-0.009-0.145-0.012-0.289-0.002-0.434c0.011-0.162,0.099-0.279,0.269-0.287
		c0.304-0.01,0.615-0.062,0.9,0.102H27.802z"/>
	<path class="st2" d="M37.586,12.545c-0.481,0.002-0.481,0.002-0.479-0.484c0.004-0.486,0.004-0.486,0.481-0.49
		c0.062,0,0.124-0.006,0.185-0.004c0.473,0.006,0.689,0.365,0.484,0.799c-0.062,0.129-0.173,0.17-0.301,0.18
		C37.833,12.551,37.71,12.545,37.586,12.545z M37.706,11.705c-0.463,0.008-0.459,0.008-0.457,0.457
		c0.002,0.498,0.371,0.197,0.562,0.248c0.284,0.074,0.336-0.129,0.34-0.367C38.159,11.678,37.929,11.682,37.706,11.705z"/>
	<path class="st2" d="M34.269,11.67c0.165,0.219,0.331,0.439,0.516,0.684c0.16-0.229,0.312-0.434,0.449-0.645
		c0.057-0.09,0.121-0.148,0.222-0.129c0.132,0.025,0.09,0.141,0.091,0.229c0.005,0.205,0.004,0.412,0.003,0.617
		c0,0.057-0.019,0.107-0.081,0.107c-0.063,0-0.08-0.053-0.08-0.109c0-0.191,0-0.385,0-0.668c-0.168,0.24-0.288,0.412-0.408,0.584
		c-0.193,0.275-0.199,0.264-0.405,0.006c-0.136-0.17-0.175-0.432-0.437-0.494C34.065,11.709,34.214,11.723,34.269,11.67z"/>
	<path class="st2" d="M25.081,12.359c0.037-0.16-0.072-0.225-0.289-0.188c-0.11,0.018-0.227,0.008-0.34,0.002
		c-0.182-0.014-0.336-0.008-0.293,0.246c0.008,0.047,0.006,0.117-0.064,0.119c-0.092,0.002-0.072-0.078-0.076-0.137
		c-0.002-0.041,0-0.082,0-0.123c0.001-0.768,0.059-0.811,0.828-0.705c0.26,0.035,0.33,0.209,0.25,0.389
		C25.021,12.137,24.997,12.271,25.081,12.359z M24.573,12.068c0.109-0.121,0.277,0.135,0.369-0.08
		c0.088-0.211,0.001-0.299-0.348-0.273c-0.143,0.01-0.421-0.166-0.422,0.168C24.172,12.205,24.448,11.959,24.573,12.068z"/>
	<path class="st2" d="M23.834,12.549c-0.275,0-0.551,0-0.826,0c-0.071,0-0.118-0.031-0.118-0.111c0-0.041,0.004-0.082,0.002-0.123
		c-0.012-0.812,0.103-0.898,0.936-0.666c-0.166,0.084-0.353,0.037-0.529,0.061c-0.096,0.012-0.248-0.064-0.258,0.127
		c-0.011,0.221,0.162,0.133,0.266,0.146c0.166,0.023,0.342-0.033,0.574,0.068c-0.244,0.1-0.436,0.047-0.619,0.062
		c-0.111,0.008-0.229-0.025-0.227,0.16c0.002,0.197,0.138,0.137,0.238,0.145c0.188,0.018,0.381-0.027,0.562,0.033
		C23.835,12.484,23.835,12.518,23.834,12.549z"/>
	<path class="st2" d="M36.757,12.072c-0.143,0.07-0.3,0.01-0.447,0.037c-0.109,0.02-0.287-0.084-0.295,0.152
		c-0.008,0.246,0.172,0.148,0.281,0.156c0.171,0.012,0.344,0.002,0.562,0.002c-0.143,0.105-0.865,0.172-0.943,0.119
		c-0.051-0.035-0.043-0.088-0.043-0.137c-0.002-0.094-0.012-0.188,0.001-0.279c0.024-0.178-0.097-0.455,0.067-0.514
		c0.27-0.098,0.584-0.055,0.876-0.021c-0.001,0.039-0.001,0.08-0.001,0.121c-0.199,0-0.397-0.004-0.596,0
		c-0.086,0.002-0.195-0.023-0.204,0.123c-0.009,0.16,0.102,0.152,0.206,0.152c0.179,0,0.357,0,0.537,0
		C36.759,12.014,36.757,12.043,36.757,12.072z"/>
	<path class="st2" d="M25.237,12.504c0.172-0.287,0.338-0.578,0.52-0.857c0.092-0.141,0.194-0.082,0.266,0.033
		c0.145,0.238,0.285,0.479,0.427,0.719c0.023,0.041,0.079,0.088,0.015,0.129c-0.024,0.016-0.082,0.004-0.111-0.016
		C26.005,12.281,25.666,12.289,25.237,12.504z M25.618,12.205c0.186,0,0.345,0,0.549,0c-0.121-0.168-0.158-0.342-0.312-0.451
		C25.774,11.902,25.659,12.025,25.618,12.205z"/>
	<path class="st2" d="M40.065,12.465c-0.019,0.029-0.029,0.062-0.05,0.072c-0.041,0.02-0.073-0.008-0.106-0.035
		c-0.254-0.205-0.684-0.211-0.918-0.014c-0.043,0.037-0.08,0.072-0.131,0.039c-0.061-0.043-0.01-0.088,0.014-0.131
		c0.143-0.238,0.283-0.477,0.424-0.715c0.054-0.09,0.162-0.162,0.223-0.078C39.718,11.877,39.884,12.174,40.065,12.465z
		 M39.739,12.215c-0.109-0.184-0.192-0.326-0.286-0.482c-0.13,0.162-0.212,0.307-0.28,0.482
		C39.36,12.215,39.521,12.215,39.739,12.215z"/>
	<path class="st3" d="M31.728,12.531c-0.061,0.004-0.119,0.01-0.18,0.012c-0.77,0.012-0.777,0-0.697-0.777
		c0.013-0.123,0.053-0.156,0.167-0.154c0.254,0.006,0.508,0.002,0.796,0.002c-0.125,0.182-0.282,0.1-0.412,0.119
		c-0.089,0.014-0.172-0.051-0.271-0.01c-0.075,0.031-0.159,0.018-0.154,0.141c0.006,0.123,0.08,0.125,0.166,0.125
		c0.21,0,0.419,0,0.63,0.047c-0.188,0.1-0.387,0.057-0.578,0.07c-0.095,0.008-0.211-0.037-0.221,0.135
		c-0.009,0.168,0.086,0.227,0.214,0.236c0.179,0.016,0.36,0.004,0.54,0.004C31.728,12.498,31.728,12.516,31.728,12.531z"/>
	<path class="st2" d="M30.729,11.619c-0.152,0.281-0.3,0.568-0.461,0.846c-0.062,0.105-0.18,0.131-0.25,0.016
		c-0.173-0.283-0.328-0.578-0.451-0.891c0.297,0.174,0.354,0.52,0.573,0.768c0.211-0.242,0.267-0.59,0.517-0.795
		C30.681,11.58,30.706,11.6,30.729,11.619z"/>
	<path class="st2" d="M21.665,11.596c0.35,0,0.697,0,1.047,0c0.051,0.107-0.043,0.115-0.085,0.109
		c-0.325-0.059-0.368,0.109-0.353,0.381c0.01,0.146,0.089,0.426-0.07,0.424c-0.169-0.002-0.098-0.285-0.071-0.422
		c0.081-0.426-0.225-0.381-0.489-0.402C21.65,11.656,21.657,11.627,21.665,11.596z"/>
	<path class="st2" d="M27.806,11.668c0.389-0.189,0.788-0.064,1.207-0.094c-0.029,0.068-0.033,0.098-0.043,0.1
		c-0.445,0.105-0.443,0.105-0.457,0.617c-0.002,0.084,0.045,0.236-0.064,0.236c-0.155,0.002-0.068-0.156-0.081-0.244
		c-0.026-0.18,0.079-0.42-0.05-0.531c-0.111-0.098-0.34-0.061-0.516-0.084H27.806z"/>
	<path class="st2" d="M38.667,12.061c0,0.123,0,0.246,0,0.369c0,0.055-0.018,0.109-0.08,0.107c-0.061-0.004-0.08-0.057-0.08-0.111
		c0-0.236-0.002-0.473,0-0.707c0.001-0.061,0.013-0.133,0.097-0.121c0.063,0.01,0.061,0.074,0.062,0.125
		c0.001,0.111,0,0.225,0,0.338C38.665,12.061,38.666,12.061,38.667,12.061z"/>
	<path class="st2" d="M19.962,11.529c0,0.383,0,0.691,0,1.025C19.788,12.359,19.78,11.834,19.962,11.529z"/>
	<path class="st3" d="M29.376,11.6c0,0.279,0.002,0.561,0,0.84c-0.001,0.041-0.014,0.084-0.064,0.09
		c-0.051,0.004-0.072-0.031-0.072-0.076c-0.001-0.287-0.001-0.574-0.001-0.861C29.284,11.594,29.331,11.598,29.376,11.6z"/>
	<path class="st3" d="M34.269,11.67c-0.055,0.053-0.203,0.039-0.131,0.182c0.002,0.227,0.051,0.455-0.061,0.676
		c-0.102-0.281-0.076-0.574-0.049-0.855C34.042,11.535,34.185,11.551,34.269,11.67z"/>
	<path class="st1" d="M27.897,7.703c-0.001-0.453,0.004-0.908-0.004-1.361c-0.002-0.154,0.035-0.217,0.206-0.217
		c0.95,0.008,1.899,0.008,2.849,0c0.17,0,0.207,0.068,0.207,0.221c-0.006,0.918-0.006,1.838,0,2.756
		c0.001,0.164-0.053,0.217-0.213,0.217c-0.949-0.006-1.899-0.008-2.85,0c-0.182,0.002-0.199-0.08-0.197-0.221
		C27.899,8.633,27.897,8.168,27.897,7.703z"/>
	<path class="st1" d="M37.706,11.705c0.223-0.023,0.453-0.027,0.445,0.338c-0.004,0.238-0.056,0.441-0.34,0.367
		c-0.191-0.051-0.561,0.25-0.562-0.248C37.247,11.713,37.243,11.713,37.706,11.705z"/>
	<path class="st1" d="M24.573,12.068c-0.125-0.109-0.401,0.137-0.4-0.186c0.001-0.334,0.279-0.158,0.422-0.168
		c0.349-0.025,0.436,0.062,0.348,0.273C24.851,12.203,24.683,11.947,24.573,12.068z"/>
	<path class="st1" d="M25.618,12.205c0.041-0.18,0.156-0.303,0.236-0.451c0.154,0.109,0.191,0.283,0.312,0.451
		C25.963,12.205,25.804,12.205,25.618,12.205z"/>
	<path class="st1" d="M39.739,12.215c-0.219,0-0.379,0-0.566,0c0.068-0.176,0.15-0.32,0.28-0.482
		C39.547,11.889,39.63,12.031,39.739,12.215z"/>
</g>
</svg>
