<?xml version="1.0" encoding="utf-8"?>
<!-- Generator: Adobe Illustrator 16.0.0, SVG Export Plug-In . SVG Version: 6.00 Build 0)  -->
<!DOCTYPE svg PUBLIC "-//W3C//DTD SVG 1.1//EN" "http://www.w3.org/Graphics/SVG/1.1/DTD/svg11.dtd">
<svg version="1.1" id="Layer_1" xmlns="http://www.w3.org/2000/svg" xmlns:xlink="http://www.w3.org/1999/xlink" x="0px" y="0px"
	 width="137.645px" height="105.922px" viewBox="0 0 137.645 105.922" style="enable-background:new 0 0 137.645 105.922;"
	 xml:space="preserve">
<style type="text/css">
<![CDATA[
	.st0{fill:#BDBDBD;stroke:#231F20;stroke-miterlimit:10;}
	.st1{fill:#231F20;}
	.st2{fill-rule:evenodd;clip-rule:evenodd;}
	.st3{opacity:0.4;fill:#231F20;}
	.st4{fill:none;}
	.st5{font-size:13;}
	.st6{fill:#FFFFFF;stroke:#231F20;stroke-miterlimit:10;}
	.st7{font-family:'CaviarDreams-Bold';}
]]>
</style>
<g>
	<polygon class="st3" points="68.822,11.006 71.729,6.09 74.047,11.311 77.505,6.766 79.2,12.219 83.162,8.106 84.213,13.72 
		88.626,10.095 89.019,15.793 93.822,12.705 93.55,18.409 98.68,15.899 97.748,21.534 103.135,19.637 101.554,25.125 
		107.125,23.866 104.918,29.134 110.597,28.53 107.793,33.506 113.504,33.566 110.142,38.183 115.807,38.904 111.932,43.1 
		117.475,44.475 113.139,48.191 118.484,50.201 113.746,53.39 118.822,56.006 113.746,58.622 118.484,61.811 113.139,63.82 
		117.475,67.537 111.932,68.912 115.807,73.107 110.142,73.829 113.504,78.445 107.793,78.506 110.597,83.481 104.918,82.878 
		107.125,88.146 101.554,86.887 103.135,92.375 97.748,90.478 98.68,96.112 93.55,93.603 93.822,99.307 89.019,96.219 
		88.626,101.917 84.213,98.292 83.162,103.905 79.2,99.793 77.505,105.246 74.047,100.701 71.729,105.922 68.822,101.006 
		65.915,105.922 63.598,100.701 60.14,105.246 58.444,99.793 54.482,103.905 53.432,98.292 49.019,101.917 48.626,96.219 
		43.822,99.307 44.095,93.603 38.965,96.112 39.896,90.478 34.51,92.375 36.091,86.887 30.52,88.146 32.727,82.878 27.048,83.481 
		29.852,78.506 24.141,78.445 27.503,73.829 21.838,73.107 25.713,68.912 20.17,67.537 24.506,63.82 19.16,61.811 23.898,58.622 
		18.822,56.006 23.898,53.39 19.16,50.201 24.506,48.191 20.17,44.475 25.713,43.1 21.838,38.904 27.503,38.183 24.141,33.566 
		29.852,33.506 27.048,28.53 32.727,29.134 30.52,23.866 36.091,25.125 34.51,19.637 39.896,21.534 38.965,15.899 44.095,18.409 
		43.822,12.705 48.626,15.793 49.019,10.095 53.432,13.72 54.482,8.106 58.444,12.219 60.14,6.766 63.598,11.311 65.915,6.09 	"/>
	<polygon class="st6" points="68.822,6.006 71.729,1.09 74.047,6.311 77.505,1.766 79.2,7.219 83.162,3.106 84.213,8.72 
		88.626,5.095 89.019,10.793 93.822,7.705 93.55,13.409 98.68,10.899 97.748,16.534 103.135,14.637 101.554,20.125 107.125,18.866 
		104.918,24.134 110.597,23.53 107.793,28.506 113.504,28.566 110.142,33.183 115.807,33.904 111.932,38.1 117.475,39.475 
		113.139,43.191 118.484,45.201 113.746,48.39 118.822,51.006 113.746,53.622 118.484,56.811 113.139,58.82 117.475,62.537 
		111.932,63.912 115.807,68.107 110.142,68.829 113.504,73.445 107.793,73.506 110.597,78.481 104.918,77.878 107.125,83.146 
		101.554,81.887 103.135,87.375 97.748,85.478 98.68,91.112 93.55,88.603 93.822,94.307 89.019,91.219 88.626,96.917 84.213,93.292 
		83.162,98.905 79.2,94.793 77.505,100.246 74.047,95.701 71.729,100.922 68.822,96.006 65.915,100.922 63.598,95.701 
		60.14,100.246 58.444,94.793 54.482,98.905 53.432,93.292 49.019,96.917 48.626,91.219 43.822,94.307 44.095,88.603 38.965,91.112 
		39.896,85.478 34.51,87.375 36.091,81.887 30.52,83.146 32.727,77.878 27.048,78.481 29.852,73.506 24.141,73.445 27.503,68.829 
		21.838,68.107 25.713,63.912 20.17,62.537 24.506,58.82 19.16,56.811 23.898,53.622 18.822,51.006 23.898,48.39 19.16,45.201 
		24.506,43.191 20.17,39.475 25.713,38.1 21.838,33.904 27.503,33.183 24.141,28.566 29.852,28.506 27.048,23.53 32.727,24.134 
		30.52,18.866 36.091,20.125 34.51,14.637 39.896,16.534 38.965,10.899 44.095,13.409 43.822,7.705 48.626,10.793 49.019,5.095 
		53.432,8.72 54.482,3.106 58.444,7.219 60.14,1.766 63.598,6.311 65.915,1.09 	"/>
	<polygon class="st6" points="27.261,94.477 1.322,94.477 11.344,85.635 1.322,76.791 27.261,76.791 	"/>
	<polygon class="st6" points="110.383,103.319 136.322,103.319 126.3,94.477 136.322,85.634 110.383,85.634 	"/>
	<polygon class="st0" points="122.174,97.669 110.383,92.477 110.383,103.319 	"/>
	<g>
		<g id="pWy2PA_1_">
			<g>
				<path d="M65.454,14.438c2.246,0,4.492,0,6.736,0c0.521,0.174,1.036,0.482,1.564,0.502c2.653,0.104,5.154,0.902,7.582,1.814
					c3.627,1.364,6.965,3.296,9.957,5.811c7.074,5.946,11.461,13.365,12.597,22.612c0.062,0.501,0.33,0.976,0.501,1.462
					c0,2.244,0,4.49,0,6.734c-0.166,0.453-0.448,0.896-0.482,1.359c-0.211,2.985-1.123,5.768-2.188,8.541
					c-1.511,3.938-3.713,7.45-6.542,10.507C89.36,80.064,82.291,84.096,73.65,85.077c-0.499,0.056-0.974,0.329-1.46,0.499
					c-2.244,0-4.49,0-6.736,0c-0.52-0.175-1.036-0.483-1.562-0.503c-2.652-0.104-5.154-0.901-7.581-1.813
					c-3.594-1.35-6.911-3.254-9.878-5.737c-7.11-5.953-11.538-13.392-12.679-22.682c-0.062-0.501-0.328-0.978-0.501-1.468
					c0-2.244,0-4.49,0-6.734c0.186-0.695,0.408-1.387,0.546-2.094c0.238-1.23,0.249-2.538,0.672-3.695
					c0.974-2.661,1.978-5.334,3.258-7.857c2.413-4.756,5.924-8.66,10.26-11.737c4.825-3.427,10.116-5.802,16.11-6.335
					C64.562,14.877,65.003,14.603,65.454,14.438z M87.712,49.777c0.004,0,0.005,0,0.008,0c0-5.365,0.009-10.73-0.004-16.097
					c-0.004-1.914-1.223-3.108-3.147-3.108c-8.768-0.006-17.534-0.003-26.302-0.004c-1.893,0-3.787-0.018-5.681,0.001
					c-1.416,0.012-2.415,0.677-2.685,2.022c-0.229,1.146-0.246,2.348-0.249,3.525c-0.019,9.89-0.019,19.777-0.013,29.667
					c0,1.892,1.206,3.112,3.068,3.112c10.695,0.007,21.393,0.004,32.089-0.003c1.632-0.001,2.911-1.282,2.913-2.913
					C87.717,60.58,87.712,55.178,87.712,49.777z"/>
				<path class="st2" d="M70.151,47.578c0.424-0.385,0.696-0.585,0.908-0.835c1.36-1.599,4.392-2.115,6.36-1.394
					c2.907,1.062,4.147,3.138,4.241,6.035c0.107,3.327,0.086,6.657,0.158,9.985c0.02,0.866-0.284,1.21-1.162,1.164
					c-1.084-0.056-2.176-0.062-3.26-0.011c-0.948,0.043-1.301-0.302-1.286-1.276c0.044-2.839,0.002-5.678-0.005-8.518
					c-0.003-1.049-0.204-2.032-1.079-2.72c-1.378-1.082-3.612-0.633-4.425,0.961c-0.336,0.66-0.549,1.453-0.567,2.191
					c-0.069,2.663-0.032,5.329-0.036,7.992c-0.001,1.371-0.02,1.387-1.435,1.383c-1.053-0.003-2.105-0.043-3.155,0.006
					c-0.717,0.033-1.027-0.196-1.025-0.939c0.015-5.084,0.015-10.167-0.002-15.249c-0.002-0.645,0.252-0.872,0.875-0.858
					c1.19,0.024,2.385,0.048,3.574-0.01c0.909-0.042,1.327,0.251,1.171,1.201C69.971,46.877,70.064,47.088,70.151,47.578z"/>
				<path class="st2" d="M61.095,54c-0.001,2.45-0.034,4.902,0.015,7.352c0.019,0.938-0.332,1.246-1.231,1.205
					c-1.153-0.054-2.312-0.046-3.467-0.008c-0.699,0.023-0.933-0.283-0.93-0.934c0.008-5.111-0.007-10.223,0.035-15.335
					c0.002-0.262,0.442-0.73,0.695-0.744c1.361-0.073,2.729-0.019,4.095-0.036c0.679-0.01,0.802,0.357,0.798,0.936
					C61.086,48.957,61.097,51.479,61.095,54z"/>
				<path class="st2" d="M58.267,42.853c-1.833,0.129-2.99-1.208-3.003-2.858c-0.015-1.6,1.249-2.937,3.151-2.838
					c1.827,0.094,3.168,1.226,3.177,2.88C61.602,41.699,60.229,42.861,58.267,42.853z"/>
			</g>
		</g>
		<g>
			<path class="st6" d="M122.174,97.669c-34.385-11.062-67.604,11.062-101.987,0c0-5.896,0-11.79,0-17.686
				c34.386,11.057,67.602-11.057,101.987,0C122.174,85.879,122.174,91.773,122.174,97.669z"/>
		</g>
		<path class="st4" d="M21.364,90.594c0,0,30.167,9,49.815,5s28.695-12.975,52.172-1.987"/>
		<text transform="matrix(0.993 0.118 -0.118 0.993 45.5664 95.625)"><tspan x="0" y="0" class="st1 st7 st5">l</tspan><tspan x="3.407" y="0" class="st1 st7 st5" rotate="-1.578">i</tspan><tspan x="7.151" y="-0.055" class="st1 st7 st5" rotate="-4.588">n</tspan><tspan x="14.923" y="-0.714" class="st1 st7 st5" rotate="-9.727">k</tspan><tspan x="21.693" y="-1.79" class="st1 st7 st5" rotate="-18.682">e</tspan><tspan x="29.82" y="-4.554" class="st1 st7 st5" rotate="-23.146">d</tspan><tspan x="38.016" y="-8.106" class="st1 st7 st5" rotate="-23.884">i</tspan><tspan x="41.039" y="-9.509" class="st1 st7 st5" rotate="-21.76">n</tspan></text>
	</g>
	<path class="st0" d="M20.187,79.983c0,0,1.608,0.76,7.074,1.827v-5.02L20.187,79.983z"/>
</g>
</svg>
