<?xml version="1.0" encoding="utf-8"?>
<!-- Generator: Adobe Illustrator 16.0.0, SVG Export Plug-In . SVG Version: 6.00 Build 0)  -->
<!DOCTYPE svg PUBLIC "-//W3C//DTD SVG 1.1//EN" "http://www.w3.org/Graphics/SVG/1.1/DTD/svg11.dtd">
<svg version="1.1" id="Layer_1" xmlns="http://www.w3.org/2000/svg" xmlns:xlink="http://www.w3.org/1999/xlink" x="0px" y="0px"
	 width="337.626px" height="90.916px" viewBox="0 0 337.626 90.916" style="enable-background:new 0 0 337.626 90.916;"
	 xml:space="preserve">
<style type="text/css">
<![CDATA[
	.st0{fill-rule:evenodd;clip-rule:evenodd;fill:#1D2D59;}
	.st1{fill-rule:evenodd;clip-rule:evenodd;fill:#C81E55;}
]]>
</style>
<g>
	<path class="st0" d="M272.382,79.083c0-24.492,0-48.796,0-73.271c0.523,0,0.99,0,1.457,0c11.998,0,23.995-0.059,35.992,0.025
		c5.166,0.037,10.275,0.681,15.081,2.788c6.842,2.999,10.123,8.355,10.304,15.718c0.097,3.967-0.468,7.801-3.314,10.812
		c-1.353,1.431-3.066,2.521-4.635,3.742c-0.392,0.306-0.853,0.522-1.412,0.858c0.68,0.294,1.226,0.518,1.763,0.763
		c5.79,2.652,8.998,7.18,9.797,13.468c0.551,4.338,0.052,8.537-1.801,12.509c-2.67,5.726-7.471,8.889-13.299,10.692
		c-4.068,1.26-8.264,1.772-12.521,1.784c-11.955,0.034-23.91,0.074-35.865,0.111C273.456,79.084,272.984,79.083,272.382,79.083z
		 M288.432,65.913c0.324,0.024,0.555,0.058,0.786,0.058c6.196,0.002,12.392,0.034,18.588-0.02c1.628-0.015,3.275-0.184,4.877-0.48
		c3.62-0.671,6.451-2.428,7.358-6.258c0.326-1.375,0.379-2.848,0.339-4.27c-0.089-3.133-1.677-5.327-4.529-6.603
		c-2.379-1.063-4.905-1.354-7.478-1.356c-6.235-0.006-12.472-0.003-18.707,0c-0.39,0-0.78,0.032-1.234,0.053
		C288.432,53.328,288.432,59.547,288.432,65.913z M288.431,34.385c0.365,0.037,0.674,0.096,0.983,0.096
		c6.517,0.006,13.034,0.067,19.549-0.037c1.768-0.028,3.584-0.379,5.278-0.9c3.169-0.977,4.693-3.408,4.692-6.986
		c-0.001-3.383-1.438-5.584-4.697-6.539c-2.045-0.6-4.217-0.998-6.342-1.047c-6.193-0.142-12.393-0.062-18.589-0.065
		c-0.271-0.001-0.542,0.033-0.875,0.055C288.431,24.123,288.431,29.219,288.431,34.385z"/>
	<path class="st0" d="M184.677,67.955c2.838,2.515,5.731,5.078,8.729,7.732c-2.995,2.853-5.955,5.672-8.965,8.539
		c-2.859-2.533-5.688-4.995-8.457-7.522c-0.646-0.589-1.107-0.638-1.846-0.199c-6.943,4.126-14.548,4.927-22.416,4.423
		c-5.106-0.327-10.019-1.419-14.649-3.624c-8.62-4.105-14.364-10.815-17.281-19.823c-3.358-10.373-3.407-20.863,0.313-31.139
		c4.452-12.297,13.452-19.542,26.202-21.991c8.839-1.698,17.589-1.226,25.91,2.564c10.914,4.971,17.294,13.634,19.687,25.211
		c1.854,8.972,1.163,17.873-1.899,26.534c-0.594,1.682-1.394,3.313-2.282,4.862C186.854,65.033,185.752,66.41,184.677,67.955z
		 M163.911,65.802c-2.703-2.422-5.309-4.758-7.95-7.125c2.956-2.843,5.832-5.608,8.759-8.423c2.589,2.332,5.124,4.617,7.794,7.022
		c0.457-1.03,0.895-1.878,1.218-2.767c2.661-7.315,2.78-14.763,1.001-22.27c-1.218-5.14-3.645-9.532-8.276-12.412
		c-3.997-2.485-8.436-3.116-13.013-2.804c-7.183,0.49-12.688,3.721-16.017,10.274c-1.894,3.729-2.682,7.741-2.95,11.875
		c-0.384,5.887,0.117,11.664,2.535,17.123C141.524,66.483,154.18,70.992,163.911,65.802z"/>
	<path class="st0" d="M248.933,55.602c0-0.636,0-1.271,0-1.906c-0.001-15.438-0.002-30.876-0.003-46.314
		c0-1.565-0.001-1.567,1.551-1.568c4.239-0.001,8.479,0,12.719,0c0.433,0,0.866,0,1.39,0c0,24.437,0,48.769,0,73.275
		c-0.372,0-0.757,0-1.141,0c-4.8-0.002-9.6-0.026-14.398,0.018c-0.876,0.009-1.349-0.287-1.795-1.02
		c-9.952-16.331-19.929-32.648-29.901-48.967c-0.183-0.298-0.387-0.583-0.803-0.835c0,16.871,0,33.741,0,50.69
		c-0.457,0.048-0.762,0.107-1.065,0.107c-4.52,0.006-9.039-0.024-13.558,0.027c-1.021,0.012-1.259-0.32-1.258-1.296
		c0.024-23.557,0.025-47.114-0.005-70.671c-0.001-1.044,0.255-1.368,1.331-1.355c4.998,0.057,9.998,0.052,14.998,0.003
		c0.957-0.01,1.494,0.298,1.987,1.111c9.608,15.838,19.245,31.659,28.877,47.483c0.264,0.433,0.54,0.857,0.81,1.285
		C248.756,55.647,248.845,55.624,248.933,55.602z"/>
	<path class="st0" d="M93.483,51.305c-5.798,0-11.509,0-17.554,0c0.564,0.601,0.927,1.025,1.329,1.408
		c3.844,3.67,7.702,7.324,11.525,11.016c0.264,0.254,0.504,0.884,0.371,1.146c-1.981,3.941-4.41,7.585-7.487,10.884
		c-0.335-0.32-0.651-0.611-0.955-0.914c-8.567-8.565-17.137-17.128-25.698-25.699c-3.228-3.23-3.21-7.222,0.02-10.451
		c8.595-8.594,17.19-17.188,25.78-25.787c0.281-0.281,0.508-0.618,0.812-0.994c3.294,3.547,5.85,7.363,7.888,11.627
		c-4.502,4.486-8.972,8.939-13.646,13.596c6.059,0,11.857,0,17.729,0C94.402,41.914,94.353,46.543,93.483,51.305z"/>
	<path class="st0" d="M12.609,75.854c-3.256-3.546-5.812-7.329-7.886-11.596c4.472-4.23,8.936-8.453,13.609-12.874
		c-6.016,0-11.778,0-17.612,0c-0.881-4.764-0.985-9.391-0.142-14.15c5.797,0,11.617,0,17.776,0
		c-0.489-0.521-0.762-0.828-1.051-1.117c-3.959-3.961-7.92-7.92-11.881-11.878c-0.392-0.392-0.815-0.688-0.444-1.404
		c1.957-3.78,4.271-7.307,7.158-10.444c0.077-0.083,0.184-0.14,0.345-0.26c0.261,0.229,0.536,0.443,0.781,0.688
		c8.686,8.682,17.369,17.363,26.049,26.051c3.068,3.072,3.054,7.11-0.027,10.191c-8.626,8.627-17.254,17.252-25.878,25.881
		C13.153,75.196,12.933,75.482,12.609,75.854z"/>
	<path class="st0" d="M79.031,78.655c-2.662,1.899-5.195,3.749-7.776,5.526c-0.916,0.63-1.972,1.052-2.923,1.636
		c-0.68,0.416-1.119,0.261-1.639-0.29c-3.672-3.898-7.373-7.77-11.058-11.657c-0.298-0.314-0.544-0.679-0.813-1.021
		c-0.127,0.056-0.254,0.111-0.382,0.167c0,0.406,0,0.812,0,1.219c0,5-0.021,9.999,0.02,14.999c0.007,0.875-0.265,1.119-1.128,1.238
		c-4.305,0.592-8.593,0.633-13.019-0.134c0-5.756,0-11.524,0-17.547c-0.509,0.472-0.827,0.747-1.124,1.044
		c-3.905,3.9-7.799,7.813-11.729,11.688c-0.294,0.29-0.973,0.564-1.268,0.422c-3.978-1.923-7.589-4.393-10.886-7.478
		c0.257-0.292,0.47-0.563,0.713-0.807c8.596-8.6,17.191-17.199,25.793-25.793c3.262-3.259,7.169-3.253,10.432,0
		C60.798,60.396,69.35,68.926,77.9,77.455C78.205,77.759,78.491,78.081,79.031,78.655z"/>
	<path class="st1" d="M54.698,14.522C58.902,10.155,63.106,5.788,67.33,1.4c4.303,2.078,8.146,4.667,11.646,7.909
		c-0.331,0.358-0.586,0.655-0.861,0.931c-8.679,8.684-17.356,17.367-26.04,26.044c-2.851,2.85-7.042,2.905-9.865,0.089
		c-8.777-8.753-17.535-17.525-26.298-26.294c-0.219-0.219-0.41-0.467-0.784-0.897c2-1.508,3.888-3.032,5.881-4.402
		c1.542-1.06,3.23-1.902,4.824-2.889c0.732-0.452,1.189-0.345,1.807,0.285c3.942,4.03,7.938,8.007,11.92,11.998
		c0.135,0.136,0.305,0.235,0.714,0.545c0-0.717,0-1.207,0-1.697c0.001-1.92-0.007-3.839,0.004-5.759
		C40.3,2.997,43.082,0.016,47.045,0c4.146-0.018,7.27,3.036,7.344,7.233c0.042,2.388,0.008,4.777,0.008,7.166
		C54.497,14.44,54.598,14.481,54.698,14.522z"/>
</g>
</svg>
