<?xml version="1.0" encoding="utf-8"?>
<!-- Generator: Adobe Illustrator 16.0.0, SVG Export Plug-In . SVG Version: 6.00 Build 0)  -->
<!DOCTYPE svg PUBLIC "-//W3C//DTD SVG 1.1//EN" "http://www.w3.org/Graphics/SVG/1.1/DTD/svg11.dtd">
<svg version="1.1" id="Layer_1" xmlns="http://www.w3.org/2000/svg" xmlns:xlink="http://www.w3.org/1999/xlink" x="0px" y="0px"
	 width="26.393px" height="26.401px" viewBox="0 0 26.393 26.401" style="enable-background:new 0 0 26.393 26.401;"
	 xml:space="preserve">
<style type="text/css">
<![CDATA[
	.st0{fill-rule:evenodd;clip-rule:evenodd;fill:#067DB9;}
]]>
</style>
<g>
	<path class="st0" d="M12.542,0c7.969,0.024,13.516,5.844,13.832,12.446c0.191,3.979-1.11,7.405-3.948,10.203
		c-2.378,2.345-5.283,3.588-8.612,3.736c-3.656,0.164-6.875-1.008-9.563-3.496c-2.626-2.431-4.066-5.471-4.234-9.045
		c-0.176-3.752,1.073-7.026,3.671-9.742C6.271,1.403,9.468,0.057,12.542,0z M1.349,13.194c-0.008,3.189,1.248,6.134,3.346,8.263
		c2.417,2.453,5.367,3.676,8.809,3.584c3.547-0.095,6.498-1.541,8.781-4.246c2.162-2.564,3.036-5.568,2.682-8.898
		c-0.326-3.073-1.689-5.642-4.025-7.661c-2.396-2.072-5.209-2.999-8.369-2.862C6.612,1.631,1.371,6.58,1.349,13.194z"/>
	<path class="st0" d="M15.548,13.885c-0.519,0.397-1.01,0.774-1.5,1.152c-0.548,0.42-1.098,0.839-1.64,1.267
		c-0.104,0.082-0.168,0.075-0.268-0.003c-1.011-0.783-2.024-1.561-3.038-2.341c-0.027-0.021-0.057-0.041-0.097-0.069
		c-0.032,0.108-0.056,0.207-0.091,0.301c-0.396,1.051-1.169,1.644-2.262,1.838c-0.338,0.06-0.68,0.026-1.021,0.028
		c-0.548,0.005-1.096-0.001-1.644,0.005c-0.102,0-0.127-0.028-0.127-0.129c0.003-1.85,0.003-3.698,0-5.548
		c0-0.101,0.026-0.128,0.127-0.128c0.786,0.004,1.572-0.002,2.357,0.004c1.068,0.008,2.09,0.736,2.52,1.788
		c0.039,0.095,0.077,0.19,0.104,0.289c0.023,0.087,0.049,0.085,0.114,0.035c0.819-0.633,1.642-1.265,2.463-1.896
		c0.217-0.167,0.437-0.331,0.649-0.503c0.062-0.05,0.1-0.047,0.158,0.002c0.254,0.213,0.511,0.424,0.771,0.63
		c0.075,0.059,0.067,0.085-0.005,0.141c-0.953,0.718-1.904,1.438-2.855,2.157c-0.17,0.128-0.17,0.127-0.006,0.27
		c0.135,0.118,0.272,0.232,0.403,0.355c0.069,0.065,0.116,0.077,0.2,0.01c0.971-0.767,1.947-1.528,2.92-2.293
		c0.068-0.055,0.107-0.062,0.178-0.001c0.249,0.213,0.503,0.419,0.761,0.621c0.079,0.062,0.064,0.091-0.005,0.145
		c-0.969,0.756-1.934,1.517-2.904,2.271c-0.1,0.078-0.106,0.119-0.006,0.197c0.164,0.131,0.322,0.271,0.477,0.414
		c0.058,0.053,0.092,0.058,0.155,0.005c0.978-0.796,1.957-1.589,2.938-2.381c0.07-0.057,0.092-0.117,0.092-0.205
		c-0.003-0.642,0-1.284-0.004-1.926c0-0.1,0.024-0.131,0.127-0.129c0.358,0.007,0.718,0.008,1.076,0
		c0.119-0.003,0.15,0.026,0.149,0.146c-0.005,1.437-0.001,2.873-0.006,4.31c-0.001,0.128,0.028,0.165,0.16,0.163
		c0.718-0.006,1.437,0,2.154-0.006c0.107,0,0.137,0.03,0.134,0.136c-0.006,0.31-0.006,0.62,0.001,0.929
		c0.002,0.104-0.031,0.127-0.13,0.126c-1.153-0.004-2.307-0.004-3.461,0.001c-0.104,0-0.125-0.034-0.124-0.131
		c0.005-0.638,0.003-1.274,0.003-1.913C15.548,13.984,15.548,13.95,15.548,13.885z M5.13,13.191c0,0.552,0.002,1.104-0.002,1.655
		c0,0.094,0.027,0.125,0.121,0.123c0.278-0.006,0.557,0.001,0.836-0.003c0.29-0.005,0.567-0.063,0.818-0.22
		c0.76-0.471,1.057-1.524,0.65-2.35c-0.273-0.558-0.706-0.911-1.345-0.951c-0.317-0.021-0.637-0.006-0.954-0.016
		c-0.105-0.003-0.128,0.035-0.127,0.132C5.132,12.105,5.13,12.648,5.13,13.191z"/>
	<path class="st0" d="M19.749,13.159c0-0.919,0.002-1.84-0.002-2.759c-0.001-0.11,0.026-0.146,0.139-0.143
		c0.364,0.008,0.728,0.007,1.091,0c0.108-0.002,0.134,0.03,0.134,0.136c-0.003,1.439,0,2.881-0.005,4.32
		c-0.001,0.129,0.03,0.165,0.161,0.163c0.687-0.006,1.373,0,2.059-0.006c0.115,0,0.143,0.032,0.141,0.142
		c-0.008,0.314-0.006,0.629-0.002,0.942c0.002,0.083-0.023,0.106-0.105,0.105c-1.166-0.003-2.333-0.003-3.5,0.002
		c-0.106,0-0.111-0.048-0.111-0.13C19.75,15.008,19.749,14.084,19.749,13.159z"/>
</g>
</svg>
