<?xml version="1.0" encoding="utf-8"?>
<!-- Generator: Adobe Illustrator 16.0.0, SVG Export Plug-In . SVG Version: 6.00 Build 0)  -->
<!DOCTYPE svg PUBLIC "-//W3C//DTD SVG 1.1//EN" "http://www.w3.org/Graphics/SVG/1.1/DTD/svg11.dtd">
<svg version="1.1" id="Layer_1" xmlns="http://www.w3.org/2000/svg" xmlns:xlink="http://www.w3.org/1999/xlink" x="0px" y="0px"
	 width="269.132px" height="351.6px" viewBox="0 0 269.132 351.6" style="enable-background:new 0 0 269.132 351.6;"
	 xml:space="preserve">
<style type="text/css">
<![CDATA[
	.st0{fill:#000102;}
	.st1{fill:#020202;}
	.st2{fill:#D1D2D3;}
]]>
</style>
<g>
	<path class="st2" d="M141.359,0c1.331,0.146,2.658,0.32,3.991,0.437c22.733,1.961,43.741,9.081,62.792,21.601
		c31.263,20.542,50.242,49.549,58.189,85.91c2.782,12.735,3.461,25.659,2.168,38.635c-2.838,28.448-13.326,53.769-31.914,75.508
		c-20.316,23.761-46.189,38.231-76.713,44.479c-13.133,2.688-26.415,3.266-39.729,1.685c-29.859-3.544-55.978-15.389-77.982-35.93
		C26.082,217.313,14.723,199.16,7.47,178.428c-4.126-11.795-6.572-23.938-7.275-36.424c-0.012-0.218-0.127-0.429-0.194-0.645
		c0-4.56,0-9.12,0-13.68c0.068-0.255,0.184-0.506,0.197-0.764c0.396-7.116,1.327-14.166,2.959-21.1
		c8.341-35.437,27.166-63.723,57.745-83.788C79.957,9.525,100.958,2.396,123.688,0.437c1.333-0.115,2.661-0.29,3.991-0.437
		C132.239,0,136.8,0,141.359,0z M5.759,134.438c0.579,71.046,56.246,128.146,127.788,128.689
		c71.559,0.541,128.828-55.801,129.588-127.227c0.765-71.74-55.693-129.271-127.285-130C63.654,5.168,6.424,62.406,5.759,134.438z"
		/>
	<path class="st1" d="M89.76,351.6c0.014-0.521,0.039-1.038,0.039-1.558c0.003-18.719,0.002-37.438,0.002-56.154
		c0-0.472,0-0.943,0-1.49c5.445,0,10.786,0,16.255,0c1.863,9.1,3.734,18.237,5.605,27.377c0.069,0.01,0.139,0.021,0.208,0.029
		c1.613-9.117,3.227-18.234,4.851-27.413c5.618,0,11.203,0,16.96,0c0,19.729,0,39.47,0,59.209c-3.68,0-7.36,0-11.04,0
		c0.014-0.199,0.039-0.398,0.039-0.598c0.002-13.999,0.002-27.999,0-41.999c0-0.307-0.039-0.611-0.06-0.918
		c-0.051-0.004-0.103-0.01-0.153-0.015c-2.241,12.562-4.482,25.119-6.724,37.679c-2.975,0-5.806,0-8.739,0
		c-2.561-12.525-5.115-25.026-7.67-37.526c-0.071,0.007-0.143,0.015-0.213,0.021c0,14.451,0,28.903,0,43.355
		C96,351.6,92.88,351.6,89.76,351.6z"/>
	<path class="st1" d="M179.759,351.6c0.041-0.514,0.115-1.027,0.115-1.541c0.006-18.677,0.006-37.354,0.006-56.03
		c0-0.515,0-1.027,0-1.625c3.505,0,6.912,0,10.433,0c0,7.531,0,15.03,0,22.604c3.771,0,7.433,0,11.249,0c0-7.52,0-15.045,0-22.627
		c3.621,0,7.086,0,10.718,0c0,0.518,0,1.022,0,1.529c0,18.717-0.001,37.434,0.005,56.149c0,0.514,0.075,1.027,0.115,1.541
		c-3.6,0-7.199,0-10.8,0c0-8.623,0-17.245,0-25.869c-3.836,0-7.524,0-11.28,0c0,8.685,0,17.276,0,25.869
		C186.8,351.6,183.279,351.6,179.759,351.6z"/>
	<path class="st1" d="M48.239,351.6c3.6-19.714,7.198-39.427,10.81-59.205c5.33,0,10.629,0,16.101,0
		c0.297,1.736,0.611,3.526,0.908,5.318c2.221,13.432,4.438,26.863,6.657,40.296c0.748,4.529,1.496,9.061,2.245,13.591
		c-3.601,0-7.2,0-10.801,0c0.01-0.196,0.055-0.398,0.024-0.589c-0.653-4.143-1.331-8.28-1.962-12.426
		c-0.116-0.769-0.592-0.709-1.119-0.708c-3.239,0.003-6.479,0.035-9.716-0.021c-0.955-0.017-1.277,0.265-1.427,1.229
		c-0.649,4.181-1.404,8.345-2.12,12.516C54.64,351.6,51.439,351.6,48.239,351.6z M66.372,302.583c-0.1-0.007-0.2-0.015-0.301-0.021
		c-1.397,8.395-2.796,16.788-4.203,25.237c2.92,0,5.693,0,8.581,0C69.08,319.328,67.726,310.955,66.372,302.583z"/>
	<path class="st1" d="M216.96,351.6c3.604-19.712,7.207-39.423,10.822-59.203c5.324,0,10.623,0,16.113,0
		c3.255,19.698,6.52,39.45,9.783,59.203c-3.602,0-7.2,0-10.801,0c0.002-0.275,0.043-0.557,0-0.825
		c-0.643-4.062-1.313-8.121-1.932-12.188c-0.117-0.776-0.593-0.709-1.117-0.709c-2.76,0.002-5.519,0.001-8.277,0.001
		c-2.691,0-2.657,0.006-3.086,2.629c-0.605,3.702-1.27,7.396-1.907,11.093C223.359,351.6,220.16,351.6,216.96,351.6z
		 M239.18,327.811c-1.37-8.469-2.726-16.851-4.082-25.232c-0.101,0.007-0.201,0.015-0.302,0.021
		c-1.396,8.376-2.793,16.751-4.202,25.211C233.473,327.811,236.251,327.811,239.18,327.811z"/>
	<path class="st1" d="M138.239,351.6c0.642-3.327,1.306-6.649,1.919-9.981c2.956-16.101,5.901-32.203,8.834-48.309
		c0.11-0.613,0.176-1.012,0.973-1.006c4.957,0.036,9.916,0.021,14.873,0.026c0.113,0,0.228,0.052,0.438,0.103
		c0.665,4.025,1.334,8.072,2.002,12.12c1.88,11.387,3.767,22.771,5.636,34.16c0.703,4.292,1.364,8.591,2.047,12.887
		c-3.521,0-7.041,0-10.562,0c-0.737-4.558-1.478-9.116-2.211-13.651c-4.058,0-7.963,0-11.896,0
		c-0.148,0.847-0.297,1.628-0.424,2.413c-0.6,3.745-1.193,7.492-1.791,11.238C144.8,351.6,141.52,351.6,138.239,351.6z
		 M160.556,327.819c-1.381-8.536-2.75-16.996-4.119-25.456c-0.075-0.007-0.15-0.013-0.227-0.02
		c-1.412,8.472-2.824,16.941-4.248,25.476C154.889,327.819,157.671,327.819,160.556,327.819z"/>
	<path class="st1" d="M28.08,351.6c0.04-0.474,0.114-0.947,0.115-1.421c0.008-6.356,0.049-12.714-0.027-19.07
		c-0.018-1.527-0.244-3.109-0.698-4.563c-3.398-10.896-6.879-21.763-10.329-32.642c-0.153-0.482-0.267-0.979-0.416-1.538
		c3.507,0,6.897,0,10.353,0c2.322,7.545,4.642,15.077,7.062,22.939c1.109-3.265,2.105-6.19,3.101-9.116
		c1.465-4.307,2.949-8.605,4.375-12.926c0.245-0.742,0.589-0.973,1.354-0.96c2.836,0.045,5.672,0.018,8.686,0.018
		c-0.123,0.452-0.201,0.814-0.32,1.162c-3.724,10.956-7.457,21.908-11.162,32.87c-0.237,0.701-0.356,1.479-0.357,2.221
		c-0.013,7.676,0.012,15.352,0.025,23.026C35.92,351.6,32,351.6,28.08,351.6z"/>
	<path class="st0" d="M5.759,134.438C6.424,62.406,63.654,5.168,135.85,5.902c71.592,0.729,128.05,58.26,127.285,130
		c-0.761,71.426-58.029,127.768-129.588,127.227C62.005,262.585,6.338,205.484,5.759,134.438z M20.201,134.474
		c0.612,63.405,50.263,114.099,114.133,114.207c63.613,0.108,113.983-50.079,114.359-113.477
		c0.378-63.729-49.837-114.467-113.447-114.859C71.217,19.948,20.86,70.62,20.201,134.474z"/>
	<path class="st0" d="M152.662,165.978c0,18.468,0,36.682,0,54.958c-3.904,0-7.685,0-11.586,0c-0.027-0.584-0.072-1.126-0.072-1.669
		c-0.004-19.56-0.012-39.119,0.02-58.679c0.002-1.015-0.275-1.588-1.193-2.052c-1.565-0.791-3.076-1.701-4.567-2.631
		c-0.564-0.352-0.963-0.311-1.505,0.021c-1.534,0.936-3.078,1.865-4.676,2.685c-0.848,0.435-1.061,0.986-1.059,1.892
		c0.024,19.561,0.019,39.12,0.019,58.68c0,0.553,0,1.106,0,1.739c-3.907,0-7.689,0-11.599,0c0-18.21,0-36.425,0-54.902
		c-0.531,0.27-0.867,0.419-1.186,0.602c-2.529,1.45-5.033,2.947-7.587,4.356c-6.543,3.609-13.391,4.255-20.491,1.925
		c-6.597-2.165-12.596,1.555-13.531,8.429c-0.229,1.678-1.129,2.694-2.787,3.01c-9.262,1.755-18.526,3.49-27.79,5.23
		c-0.997,0.188-1.853-0.028-2.362-0.971c-0.48-0.89-0.211-1.674,0.421-2.411c6.094-7.099,12.17-14.214,18.271-21.307
		c1.339-1.556,2.399-1.741,4.378-0.938c6.083,2.468,12.435-0.982,13.771-7.42c1.574-7.577,5.708-13.351,12.401-17.263
		c2.682-1.566,5.377-3.109,8.215-4.749c-15.951-9.211-31.75-18.333-47.625-27.5c1.964-3.401,3.874-6.709,5.847-10.127
		c2.309,1.327,4.549,2.61,6.784,3.9c15.188,8.77,30.381,17.53,45.55,26.334c0.891,0.518,1.517,0.518,2.359-0.034
		c1.368-0.896,2.803-1.699,4.253-2.456c0.768-0.4,1.088-0.874,1.049-1.766c-0.077-1.717-0.079-3.44,0.001-5.156
		c0.041-0.9-0.317-1.35-1.056-1.773c-11.811-6.789-23.606-13.602-35.405-20.411c-5.363-3.095-10.725-6.191-16.085-9.292
		c-0.305-0.176-0.598-0.374-0.955-0.599c1.948-3.373,3.861-6.683,5.832-10.093c15.852,9.149,31.641,18.265,47.646,27.503
		c0-0.912-0.012-1.61,0.002-2.309c0.069-3.596-0.102-7.217,0.275-10.779c0.656-6.208,3.49-11.469,8.231-15.509
		c5.284-4.504,4.851-12.396-0.514-16.152c-1.405-0.984-1.716-2.265-1.138-3.912c3.093-8.813,6.199-17.622,9.295-26.436
		c0.344-0.979,0.893-1.738,2.025-1.729c1.133,0.01,1.663,0.787,2.004,1.762c3.1,8.812,6.211,17.62,9.305,26.435
		c0.57,1.624,0.175,2.854-1.176,3.919c-5.533,4.368-5.756,11.299-0.539,16.031c5.666,5.143,8.548,11.537,8.551,19.206
		c0.002,3.072,0,6.145,0,9.475c15.963-9.214,31.754-18.328,47.645-27.501c1.938,3.352,3.854,6.663,5.83,10.081
		c-0.338,0.217-0.65,0.435-0.98,0.626c-17.125,9.889-34.248,19.779-51.389,29.645c-0.83,0.479-1.175,0.999-1.129,1.972
		c0.084,1.756-0.025,3.521,0.059,5.275c0.021,0.447,0.363,1.04,0.74,1.279c1.584,1.007,3.256,1.87,4.852,2.857
		c0.635,0.394,1.087,0.357,1.725-0.012c12.963-7.51,25.942-14.992,38.918-22.479c4.526-2.611,9.055-5.226,13.698-7.904
		c1.948,3.366,3.861,6.674,5.858,10.128c-15.854,9.154-31.67,18.288-47.629,27.503c2.857,1.652,5.56,3.198,8.244,4.771
		c6.69,3.919,10.818,9.695,12.375,17.278c1.301,6.352,7.689,9.84,13.688,7.411c2.143-0.867,3.124-0.648,4.641,1.115
		c5.967,6.946,11.918,13.904,17.887,20.849c0.695,0.81,1.203,1.642,0.602,2.694c-0.631,1.104-1.636,1.074-2.732,0.866
		c-9.104-1.727-18.213-3.424-27.317-5.146c-1.793-0.34-2.669-1.343-2.882-3.177c-0.746-6.418-6.954-10.437-13.092-8.395
		c-7.625,2.536-14.869,1.78-21.789-2.281C157.986,169.022,155.453,167.585,152.662,165.978z M141,100.296
		c0-2.677,0.02-5.354-0.013-8.029c-0.01-0.791-0.062-1.607-0.266-2.366c-0.86-3.17-3.88-5.112-7.146-4.671
		c-3.21,0.436-5.485,3.093-5.52,6.653c-0.055,5.672-0.031,11.345,0.017,17.017c0.005,0.44,0.359,1.048,0.736,1.287
		c1.648,1.048,3.35,2.018,5.071,2.941c0.334,0.18,0.926,0.189,1.258,0.013c1.688-0.901,3.312-1.921,4.995-2.834
		c0.646-0.351,0.892-0.767,0.882-1.503C140.976,105.968,141,103.132,141,100.296z M152.682,148.759c0,0.96-0.07,1.927,0.03,2.875
		c0.047,0.431,0.324,1.003,0.676,1.209c4.99,2.932,9.98,5.869,15.053,8.657c1.092,0.601,2.521,0.908,3.77,0.84
		c2.963-0.16,5.15-2.232,5.775-5.065c0.605-2.746-0.646-5.497-3.236-7.007c-4.104-2.392-8.338-4.585-12.297-7.196
		c-2.394-1.577-4.166-1.51-6.591-0.028C153.517,144.473,151.832,145.773,152.682,148.759z M116.358,148.797
		c0-0.96-0.036-1.921,0.013-2.878c0.031-0.628-0.14-1.021-0.724-1.338c-1.716-0.938-3.38-1.972-5.103-2.896
		c-0.342-0.183-0.949-0.218-1.271-0.034c-5.136,2.921-10.262,5.859-15.352,8.86c-1.791,1.057-2.782,2.733-2.952,4.819
		c-0.209,2.563,0.742,4.643,2.914,6.037c2.209,1.42,4.534,1.429,6.81,0.133c4.163-2.369,8.236-4.907,12.478-7.125
		C115.576,153.118,117.243,151.776,116.358,148.797z M127.08,134.45c0,1.117,0.041,2.237-0.014,3.354
		c-0.036,0.73,0.214,1.156,0.865,1.512c1.82,0.993,3.644,1.994,5.38,3.123c0.917,0.597,1.607,0.557,2.456-0.045
		c0.777-0.551,1.652-0.964,2.479-1.45c1.199-0.708,2.864-1.159,3.459-2.215c0.623-1.102,0.244-2.786,0.246-4.216
		c0-1.431,0.383-3.115-0.24-4.218c-0.594-1.054-2.252-1.52-3.461-2.211c-1.242-0.711-2.506-1.93-3.756-1.924
		c-1.254,0.006-2.446,1.388-3.765,1.919C127.781,129.268,126.122,131.079,127.08,134.45z"/>
</g>
</svg>
