<?xml version="1.0" encoding="utf-8"?>
<!-- Generator: Adobe Illustrator 16.0.0, SVG Export Plug-In . SVG Version: 6.00 Build 0)  -->
<!DOCTYPE svg PUBLIC "-//W3C//DTD SVG 1.1//EN" "http://www.w3.org/Graphics/SVG/1.1/DTD/svg11.dtd">
<svg version="1.1" id="Layer_1" xmlns="http://www.w3.org/2000/svg" xmlns:xlink="http://www.w3.org/1999/xlink" x="0px" y="0px"
	 width="389.489px" height="120.688px" viewBox="0 0 389.489 120.688" style="enable-background:new 0 0 389.489 120.688;"
	 xml:space="preserve">
<style type="text/css">
<![CDATA[
	.st0{fill-rule:evenodd;clip-rule:evenodd;}
]]>
</style>
<g>
	<path class="st0" d="M56.731,40.339C56.797,17.526,70.091,2.394,88.07,0.436c5.694-0.62,11.745-0.691,17.289,0.539
		c18.179,4.033,29.115,18.458,28.449,36.397c-0.611,16.479-13.222,29.705-31.061,32.713c-10.996,1.854-21.219-0.111-30.539-6.168
		C61.948,57.248,56.867,47.634,56.731,40.339z M123.887,36.631c0.003-16.781-11.923-29.288-28.055-29.42
		C79.617,7.078,66.521,19.793,66.594,35.599c0.07,15.062,12.899,27.523,28.409,27.596C110.248,63.265,123.885,50.724,123.887,36.631
		z"/>
	<path class="st0" d="M152.11,42.331c0,8.018,0,15.598,0,23.359c-3.024,0-5.427,0-8.104,0c0-18.702,0-37.136,0-56.443
		c2.015,0,4.088-0.005,6.16,0.001c9.829,0.027,19.658,0.059,29.486,0.085c10.479,0.028,17.207,4.703,19.104,13.277
		c1.838,8.311-1.729,14.254-11.452,19.106c-0.44,0.22-0.837,0.53-1.681,1.071c5.424,7.465,10.812,14.882,16.426,22.611
		c-6.459,1.4-11.131,0.792-14.512-5.112c-3.044-5.317-6.916-10.205-10.812-14.963c-1.247-1.522-3.695-2.737-5.67-2.859
		C165.092,42.095,159.092,42.331,152.11,42.331z M152.484,35.115c9.665,0,18.971,0.276,28.25-0.099
		c6.077-0.245,9.406-4.123,9.358-9.563c-0.041-4.729-3.481-8.679-8.965-8.9c-9.43-0.38-18.886-0.105-28.644-0.105
		C152.484,22.652,152.484,28.567,152.484,35.115z"/>
	<path class="st0" d="M334.645,65.547c-9.503,1.015-9.943,1.196-13.153-6.607c-2.55-6.2-6.203-8.433-12.854-7.806
		c-6.924,0.653-13.963,0.305-20.941,0.074c-3.146-0.104-5.031,0.951-6.111,3.826c-0.465,1.235-1.18,2.375-1.771,3.562
		c-3.904,7.825-3.903,7.826-13.415,7.051c0.577-1.461,0.987-2.806,1.614-4.041c8.124-15.995,16.372-31.927,24.35-47.994
		c1.645-3.314,3.609-4.625,7.291-4.456c3.741,0.173,6.771,0.044,8.873,4.38c7.682,15.84,15.871,31.434,23.854,47.128
		C333.114,62.109,333.748,63.605,334.645,65.547z M300.407,17.931c-4.461,8.94-8.492,17.021-12.713,25.482
		c8.854,0,16.894,0,25.657,0C309.012,34.87,304.978,26.927,300.407,17.931z"/>
	<path class="st0" d="M212.096,9.6c16.855,0,33.425,0,50.26,0c0,2.041,0,3.805,0,6.214c-13.63,0-27.203,0-41.079,0
		c0,6.042,0,11.451,0,17.365c10.223,0,20.301,0,30.733,0c0,2.385,0,4.273,0,6.72c-10.216,0-20.297,0-30.708,0
		c0,6.611,0,12.679,0,19.333c13.701,0,27.264,0,41.071,0c0.11,2.181,0.192,3.797,0.3,5.906c-16.893,0-33.584,0-50.577,0
		C212.096,46.68,212.096,28.291,212.096,9.6z"/>
	<path class="st0" d="M0.603,9.627c2.52,0,4.93,0,7.836,0c0,16.536,0,32.787,0,49.511c14.409,0,28.328,0,42.617,0
		c0,2.352,0,4.229,0,6.822c-3.874,0-7.646,0-11.419,0c-11.83,0-23.659-0.024-35.488,0.019C1.762,65.988-0.022,65.876,0,62.631
		c0.117-16.994,0.067-33.988,0.104-50.982C0.105,11.019,0.407,10.39,0.603,9.627z"/>
	<path class="st0" d="M389.489,59.099c0,2.518,0,4.148,0,6.149c-16.856,0-33.548,0-50.52,0c0-18.57,0-36.958,0-55.629
		c2.613,0,5.007,0,7.953,0c0,16.45,0,32.686,0,49.48C361.329,59.099,375.2,59.099,389.489,59.099z"/>
	<path class="st0" d="M78.86,101.664c-1.095-0.783-2.138-1.657-3.298-2.327c-1.776-1.024-3.669-2.714-5.445-2.634
		c-1.91,0.087-3.743,1.891-5.609,2.945c1.495,1.425,2.774,3.276,4.539,4.17c2.327,1.179,5.144,1.357,7.553,2.416
		c3.752,1.649,4.941,4.818,3.826,8.667c-1.263,4.357-6.271,6.493-12.517,5.559c-5.442-0.813-7.856-3.458-7.98-9.982
		c1.644,1.195,2.975,1.756,3.69,2.757c2.541,3.555,6.63,5.068,10.324,3.144c1.233-0.643,2.519-2.283,2.653-3.583
		c0.104-1.012-1.317-2.728-2.452-3.211c-2.575-1.097-5.428-1.518-8.101-2.414c-3.414-1.145-5.917-3.208-5.538-7.239
		c0.387-4.117,3.068-6.022,6.905-6.665C74.31,92.113,78.562,94.615,78.86,101.664z"/>
	<path class="st0" d="M172.057,109.32c0,3.156,0.147,5.792-0.084,8.393c-0.075,0.85-1.135,1.612-1.744,2.414
		c-0.771-0.805-2.193-1.596-2.211-2.417c-0.169-7.935-0.102-15.875-0.102-24.141c5.013,0,9.482-0.339,13.875,0.091
		c4.818,0.472,7.086,3.537,6.867,8.139c-0.21,4.427-3.004,7.238-7.674,7.496C178.34,109.439,175.68,109.32,172.057,109.32z
		 M172.298,106.796c4.353-1.117,8.047-1.852,11.511-3.184c0.521-0.2,0.395-4.5-0.16-4.682c-3.53-1.155-7.264-1.687-11.351-2.509
		C172.298,100.134,172.298,102.566,172.298,106.796z"/>
	<path class="st0" d="M23.264,119.472c3.149-8.18,6.095-16.448,9.561-24.492c1.193-2.769,3.977-2.592,5.201,0.2
		c3.518,8.023,6.685,16.201,9.995,24.33c-3.859,1.737-5.083-0.43-5.569-3.088c-0.925-5.051-4.734-3.823-8.063-4.216
		c-3.631-0.429-4.899,1.338-5.959,4.382c-0.552,1.585-2.35,2.736-3.585,4.083C24.317,120.271,23.79,119.872,23.264,119.472z
		 M39.368,108.894c-1.343-3.587-2.533-6.763-4.1-10.948c-1.49,4.373-2.568,7.535-3.731,10.948
		C34.393,108.894,36.508,108.894,39.368,108.894z"/>
	<path class="st0" d="M197.241,119.486c3.146-8.163,6.104-16.406,9.536-24.447c1.214-2.844,3.933-2.653,5.162,0.115
		c3.558,8.012,6.75,16.185,10.087,24.296c-3.853,1.837-5.146-0.328-5.614-2.978c-0.899-5.084-4.67-3.904-8.029-4.271
		c-3.601-0.394-4.911,1.288-5.951,4.359c-0.539,1.594-2.327,2.766-3.551,4.128C198.334,120.288,197.787,119.887,197.241,119.486z
		 M205.396,108.857c2.885,0,5.116,0,8.042,0c-1.394-3.599-2.62-6.766-4.15-10.719C207.821,102.175,206.717,105.219,205.396,108.857z
		"/>
	<path class="st0" d="M112.611,119.541c3.09-8.049,6.114-16.11,9.342-24.088c0.379-0.937,1.903-1.987,2.857-1.952
		c0.967,0.036,2.335,1.162,2.755,2.142c3.398,7.924,6.614,15.926,9.892,23.917c-3.809,1.812-5.192-0.436-5.719-3.266
		c-0.89-4.788-4.374-3.855-7.642-4.084c-3.305-0.232-5.387,0.63-6.156,4.084C117.375,118.835,116.489,121.308,112.611,119.541z
		 M124.778,97.837c-1.584,4.454-2.71,7.622-3.923,11.031c2.811,0,5.093,0,7.861,0C127.497,105.454,126.398,102.378,124.778,97.837z"
		/>
	<path class="st0" d="M365.399,101.843c-1.25-0.686-2.458-1.469-3.759-2.038c-2.555-1.118-5.5-3.398-7.658-2.828
		c-2.471,0.653-5.106,3.547-6.109,6.084c-0.998,2.523-0.875,6.191,0.269,8.657c1.077,2.324,3.938,4.802,6.362,5.229
		c2.149,0.378,4.847-1.849,7.172-3.159c1.409-0.794,2.569-2.03,4.224-2.602c-0.779,6.891-4.535,9.752-11.126,9.45
		c-6.883-0.315-10.918-4.59-11.72-12.419c-0.728-7.102,3.089-13.314,9.096-14.806c6.55-1.628,11.246,0.704,14.027,6.964
		C365.918,100.865,365.658,101.354,365.399,101.843z"/>
	<path class="st0" d="M255.666,101.867c-1.227-0.724-2.406-1.55-3.691-2.15c-2.395-1.119-5.102-3.285-7.215-2.836
		c-2.402,0.51-5.309,3.038-6.157,5.36c-1.042,2.855-1.005,6.73,0.114,9.551c0.908,2.291,3.972,4.871,6.316,5.122
		c2.305,0.248,4.939-2.22,7.366-3.607c1.265-0.723,2.394-1.684,3.893-2.082c-0.757,6.897-4.467,9.708-11.133,9.411
		c-6.555-0.292-10.672-4.417-11.445-11.466c-0.895-8.151,2.479-14.126,8.899-15.756c6.545-1.662,11.306,0.733,13.889,6.986
		C256.224,100.889,255.945,101.378,255.666,101.867z"/>
	<path class="st0" d="M295.727,97.038c0,2.741,0,4.851,0,7.737c3.217,0,6.315-0.153,9.383,0.091
		c0.951,0.076,1.817,1.228,2.723,1.888c-0.864,0.519-1.704,1.429-2.598,1.486c-2.955,0.19-5.931,0.072-9.722,0.072
		c0,3.42,0.131,6.512-0.091,9.579c-0.057,0.784-1.23,1.486-1.891,2.226c-0.62-0.769-1.765-1.528-1.778-2.307
		c-0.132-7.942-0.081-15.887-0.081-24.47c5.551,0,10.645-0.081,15.73,0.086c0.772,0.025,1.508,1.197,2.26,1.838
		c-0.813,0.592-1.603,1.65-2.444,1.694C303.587,97.146,299.94,97.038,295.727,97.038z"/>
	<path class="st0" d="M35.815,30.602c3.013-7.51,4.872-13.769,8.072-19.243c1.131-1.935,5.539-1.954,8.45-2.847
		c0.253,0.456,0.505,0.911,0.758,1.367c-3.164,5.967-6.064,12.101-9.667,17.789C42.472,29.178,39.354,29.319,35.815,30.602z"/>
	<path class="st0" d="M271.748,107.219c0.004-3.812-0.1-7.628,0.085-11.431c0.041-0.827,1.114-1.604,1.712-2.404
		c0.733,0.83,2.084,1.646,2.104,2.492c0.17,7.288,0.155,14.583,0.021,21.872c-0.015,0.802-1.12,1.583-1.72,2.375
		c-0.735-0.821-2.045-1.602-2.105-2.47C271.6,114.189,271.743,110.699,271.748,107.219z"/>
	<path class="st0" d="M95.778,106.522c0.001-3.323-0.168-6.66,0.096-9.962c0.088-1.103,1.28-2.117,1.968-3.172
		c0.603,0.969,1.706,1.926,1.727,2.908c0.151,6.975,0.151,13.957,0.002,20.932c-0.021,0.975-1.119,1.928-1.718,2.891
		c-0.692-1.043-1.9-2.047-1.98-3.136C95.615,113.513,95.777,110.012,95.778,106.522z"/>
	<path class="st0" d="M324.542,106.777c0.001-3.488-0.126-6.983,0.081-10.459c0.06-1.006,1.078-1.956,1.657-2.932
		c0.696,0.883,1.975,1.753,1.996,2.652c0.167,7.138,0.167,14.284,0.004,21.422c-0.021,0.9-1.286,1.772-1.975,2.657
		c-0.588-0.959-1.624-1.891-1.684-2.881C324.413,113.761,324.541,110.266,324.542,106.777z"/>
	<path class="st0" d="M232.03,8.149c3.926-9.526,11.437-8.12,18.922-6.772C244.799,3.58,238.645,5.782,232.03,8.149z"/>
</g>
</svg>
