<?xml version="1.0" encoding="utf-8"?>
<!-- Generator: Adobe Illustrator 16.0.0, SVG Export Plug-In . SVG Version: 6.00 Build 0)  -->
<!DOCTYPE svg PUBLIC "-//W3C//DTD SVG 1.1//EN" "http://www.w3.org/Graphics/SVG/1.1/DTD/svg11.dtd">
<svg version="1.1" id="Layer_1" xmlns="http://www.w3.org/2000/svg" xmlns:xlink="http://www.w3.org/1999/xlink" x="0px" y="0px"
	 width="151.26px" height="151.162px" viewBox="0 0 151.26 151.162" style="enable-background:new 0 0 151.26 151.162;"
	 xml:space="preserve">
<style type="text/css">
<![CDATA[
	.st0{fill:#FFFFFF;}
]]>
</style>
<g>
	<g>
		<path class="st0" d="M75.63,151.161c-0.8,0-1.94-0.61-2.833-3.52c-0.565-1.842-1.43-2.941-2.315-2.941
			c-0.843,0-1.775,0.942-2.556,2.585c-0.96,2.019-2.028,3.086-3.09,3.086c-0.716,0-1.995-0.508-2.515-3.911
			c-0.312-2.042-1.072-3.26-2.033-3.26c-0.803,0-1.8,0.801-2.735,2.198c-1.147,1.714-2.279,2.62-3.272,2.62
			c-0.795,0-2.133-0.552-2.153-4.252c-0.012-2.214-0.657-3.535-1.727-3.535c-0.783,0-1.79,0.636-2.835,1.79
			c-1.283,1.417-2.415,2.134-3.364,2.135c-0.487,0-0.912-0.193-1.229-0.558c-0.628-0.723-0.808-2.062-0.537-3.98
			c0.222-1.563,0.059-2.752-0.457-3.347c-0.697-0.802-2.146-0.409-3.803,0.956c-2.161,1.778-3.885,2.087-4.7,0.996
			c-0.59-0.79-0.599-2.176-0.024-4.122c0.468-1.586,0.461-2.814-0.02-3.457c-0.597-0.8-2.062-0.605-3.846,0.471
			c-1.279,0.771-2.355,1.162-3.2,1.162c-0.868,0-1.313-0.41-1.533-0.754c-0.54-0.844-0.362-2.292,0.514-4.188
			c0.714-1.543,0.874-2.819,0.438-3.5c-0.511-0.799-1.947-0.803-3.829-0.016c-1.134,0.475-2.101,0.715-2.874,0.715
			c-1.1,0-1.595-0.487-1.816-0.896c-0.493-0.911-0.124-2.354,1.066-4.173c0.969-1.482,1.298-2.749,0.905-3.477
			c-0.343-0.634-1.199-0.768-1.857-0.768c-0.55,0-1.186,0.091-1.89,0.271c-0.869,0.222-1.638,0.335-2.285,0.335
			c-1.484,0-2.062-0.593-2.286-1.09c-0.44-0.978,0.12-2.389,1.619-4.081c1.219-1.376,1.719-2.61,1.37-3.385
			c-0.359-0.799-1.662-1.159-3.604-0.959c-0.45,0.047-0.865,0.07-1.243,0.07c-2.175,0-2.904-0.748-3.133-1.375
			c-0.266-0.73-0.107-2,2.161-3.909c1.444-1.215,2.111-2.383,1.831-3.205c-0.281-0.822-1.523-1.339-3.409-1.418
			c-3.04-0.127-3.919-1.076-4.122-1.85c-0.202-0.773,0.1-2.031,2.689-3.63c1.605-0.992,2.436-2.051,2.278-2.905
			s-1.312-1.546-3.166-1.899c-2.989-0.569-3.72-1.636-3.808-2.431s0.395-1.996,3.188-3.201c1.733-0.748,2.709-1.674,2.677-2.542
			c-0.032-0.868-1.073-1.72-2.855-2.339c-2.875-0.998-3.443-2.16-3.414-2.959s0.681-1.917,3.621-2.702
			c1.823-0.487,2.923-1.262,3.018-2.125c0.095-0.863-0.811-1.858-2.484-2.73c-2.699-1.406-3.092-2.638-2.946-3.424
			c0.145-0.787,0.953-1.797,3.976-2.146c1.875-0.216,3.076-0.823,3.295-1.663c0.22-0.84-0.531-1.957-2.06-3.063
			c-2.446-1.77-2.668-3.041-2.424-3.795c0.245-0.755,1.209-1.654,4.253-1.567c1.898,0.067,3.183-0.378,3.509-1.181
			c0.325-0.799-0.258-2.007-1.599-3.314c-1.649-1.607-2.303-2.992-1.892-4.004c0.226-0.555,0.868-1.217,2.643-1.217
			c0.541,0,1.159,0.062,1.839,0.183c1.909,0.344,3.292,0.062,3.683-0.73c0.372-0.751-0.043-2.005-1.139-3.439
			c-1.346-1.762-1.81-3.193-1.343-4.137c0.222-0.449,0.753-0.985,2.019-0.985c0.72,0,1.602,0.173,2.62,0.515
			c0.834,0.279,1.571,0.421,2.191,0.421c0.55,0,1.275-0.118,1.605-0.679c0.415-0.704,0.17-1.979-0.671-3.497
			c-1.033-1.864-1.306-3.313-0.789-4.19c0.22-0.375,0.687-0.82,1.658-0.82c0.812,0,1.842,0.313,3.062,0.933
			c1.83,0.928,3.295,1.022,3.845,0.228c0.455-0.657,0.38-1.928-0.207-3.487c-0.73-1.94-0.812-3.342-0.242-4.165
			c0.22-0.318,0.647-0.697,1.433-0.697c0.872,0,1.98,0.471,3.293,1.399c1.365,0.966,2.271,1.168,2.792,1.168
			c0.455,0,0.795-0.148,1.041-0.454c0.499-0.619,0.584-1.83,0.241-3.41c-0.421-1.938-0.325-3.304,0.285-4.061
			c0.874-1.084,2.595-0.676,4.656,1.288c1.582,1.509,3.004,2.001,3.759,1.194c0.533-0.57,0.769-1.73,0.664-3.268
			c-0.127-1.886,0.135-3.192,0.779-3.882c0.318-0.34,0.727-0.52,1.182-0.52c0.978,0,2.098,0.8,3.331,2.379
			c1.005,1.287,1.998,1.996,2.796,1.996c1.011,0,1.714-1.272,1.881-3.403c0.28-3.557,1.585-4.088,2.338-4.088
			c1.026,0,2.129,0.988,3.191,2.856c0.865,1.521,1.833,2.394,2.654,2.395l0,0c0.92,0,1.734-1.161,2.179-3.106
			C68.24,0.646,69.383,0,70.218,0c1.102,0,2.129,1.144,2.97,3.308c0.684,1.759,1.574,2.768,2.442,2.768s1.758-1.009,2.442-2.768
			C78.913,1.144,79.94,0,81.042,0c0.835,0,1.978,0.646,2.68,3.721c0.444,1.945,1.259,3.106,2.179,3.106
			c0.822,0,1.79-0.873,2.655-2.395c1.062-1.869,2.166-2.856,3.191-2.856c0.753,0,2.059,0.531,2.338,4.088
			c0.167,2.131,0.871,3.403,1.881,3.403c0.799,0,1.791-0.708,2.796-1.996c1.233-1.579,2.354-2.379,3.331-2.379
			c0.455,0,0.863,0.18,1.182,0.52c0.645,0.689,0.906,1.996,0.779,3.882c-0.104,1.538,0.132,2.698,0.664,3.268
			c0.754,0.807,2.177,0.314,3.759-1.194c2.058-1.962,3.78-2.372,4.655-1.288c0.609,0.756,0.705,2.123,0.284,4.061
			c-0.343,1.58-0.257,2.791,0.242,3.41c0.246,0.306,0.587,0.454,1.041,0.454c0.52,0,1.427-0.203,2.791-1.168
			c1.312-0.929,2.421-1.399,3.293-1.399c0.786,0,1.213,0.379,1.434,0.697c0.569,0.823,0.488,2.224-0.242,4.165
			c-0.587,1.559-0.662,2.83-0.207,3.487c0.549,0.795,2.016,0.702,3.845-0.228c1.221-0.619,2.251-0.933,3.062-0.933
			c0.971,0,1.438,0.446,1.658,0.82c0.517,0.877,0.244,2.327-0.788,4.19c-0.842,1.518-1.086,2.792-0.671,3.497
			c0.33,0.561,1.055,0.679,1.604,0.679c0.62,0,1.357-0.142,2.19-0.421c1.019-0.341,1.9-0.515,2.62-0.515
			c1.266,0,1.797,0.536,2.019,0.985c0.467,0.944,0.003,2.375-1.343,4.137c-1.096,1.435-1.51,2.688-1.139,3.439
			c0.393,0.792,1.774,1.073,3.684,0.73c0.679-0.122,1.298-0.183,1.839-0.183c1.775,0,2.417,0.662,2.644,1.217
			c0.411,1.012-0.243,2.397-1.893,4.004c-1.341,1.307-1.924,2.515-1.599,3.314c0.326,0.803,1.629,1.249,3.51,1.181
			c3.034-0.092,4.009,0.812,4.253,1.567c0.244,0.754,0.022,2.024-2.424,3.795c-1.528,1.106-2.279,2.223-2.06,3.062
			c0.22,0.841,1.421,1.447,3.296,1.664c3.022,0.349,3.83,1.359,3.976,2.146c0.145,0.786-0.249,2.019-2.948,3.424
			c-1.673,0.872-2.578,1.868-2.483,2.73c0.095,0.863,1.195,1.638,3.019,2.125c2.939,0.785,3.592,1.903,3.621,2.702
			c0.029,0.799-0.54,1.961-3.414,2.959c-1.783,0.619-2.824,1.472-2.855,2.339c-0.032,0.868,0.943,1.794,2.677,2.542
			c2.794,1.205,3.276,2.406,3.188,3.201c-0.087,0.795-0.819,1.862-3.808,2.43c-1.854,0.353-3.008,1.045-3.166,1.899
			c-0.157,0.854,0.673,1.913,2.278,2.905c2.589,1.599,2.891,2.857,2.688,3.63s-1.081,1.723-4.122,1.85
			c-1.885,0.079-3.127,0.596-3.407,1.417s0.387,1.99,1.831,3.206c2.268,1.908,2.427,3.178,2.16,3.908
			c-0.229,0.627-0.958,1.375-3.133,1.375c-0.378,0-0.793-0.022-1.243-0.07c-1.944-0.2-3.244,0.16-3.604,0.959
			c-0.349,0.775,0.151,2.009,1.371,3.385c1.499,1.691,2.059,3.103,1.618,4.081c-0.224,0.497-0.802,1.09-2.285,1.09
			c-0.646,0-1.415-0.113-2.284-0.335c-0.704-0.18-1.341-0.271-1.891-0.271c-0.657,0-1.514,0.133-1.856,0.768
			c-0.395,0.728-0.064,1.995,0.905,3.477c1.189,1.819,1.558,3.262,1.064,4.173c-0.221,0.409-0.716,0.896-1.815,0.896
			c-0.772,0-1.739-0.241-2.874-0.715c-1.878-0.787-3.316-0.784-3.828,0.016c-0.436,0.681-0.275,1.957,0.438,3.5
			c0.876,1.895,1.053,3.343,0.514,4.188c-0.221,0.344-0.665,0.755-1.533,0.755c-0.844,0-1.921-0.391-3.199-1.162
			c-1.785-1.076-3.251-1.269-3.847-0.471c-0.481,0.643-0.488,1.871-0.021,3.457c0.574,1.946,0.565,3.333-0.024,4.122
			c-0.816,1.09-2.539,0.782-4.699-0.996c-1.659-1.365-3.106-1.758-3.803-0.956c-0.517,0.594-0.679,1.783-0.457,3.347
			c0.271,1.918,0.091,3.257-0.537,3.98c-0.316,0.365-0.741,0.559-1.229,0.559c-0.949,0-2.082-0.718-3.364-2.135
			c-1.046-1.154-2.053-1.79-2.835-1.79c-1.07,0-1.716,1.321-1.728,3.535c-0.02,3.7-1.356,4.252-2.152,4.252
			c-1.007,0-2.108-0.881-3.272-2.62c-0.935-1.397-1.932-2.198-2.735-2.198c-0.961,0-1.722,1.219-2.033,3.26
			c-0.519,3.402-1.798,3.911-2.514,3.911c-1.062,0-2.13-1.067-3.09-3.086c-0.781-1.643-1.713-2.585-2.556-2.585
			c-0.885,0-1.751,1.1-2.316,2.941C77.57,150.551,76.43,151.161,75.63,151.161z M70.482,143.7c0.804,0,2.298,0.474,3.271,3.648
			c0.636,2.074,1.386,2.812,1.876,2.812s1.24-0.739,1.876-2.812c0.974-3.174,2.468-3.648,3.272-3.648
			c1.263,0,2.492,1.121,3.459,3.156c0.881,1.855,1.708,2.516,2.186,2.516c0.489,0,1.182-0.802,1.526-3.062
			c0.398-2.612,1.5-4.109,3.021-4.109c1.176,0,2.409,0.914,3.566,2.641c0.912,1.363,1.825,2.177,2.441,2.177
			c0.689,0,1.142-1.279,1.152-3.257c0.015-2.836,1.034-4.53,2.728-4.53c1.084,0,2.32,0.732,3.576,2.119
			c1.476,1.629,2.326,1.806,2.623,1.806c0.196,0,0.347-0.068,0.474-0.214c0.194-0.224,0.613-0.983,0.302-3.184
			c-0.267-1.882-0.027-3.314,0.692-4.143c1.054-1.216,3.035-0.937,5.192,0.839c1.495,1.23,2.342,1.415,2.713,1.415
			c0.329,0,0.472-0.14,0.551-0.245c0.177-0.237,0.519-1.027-0.134-3.24c-0.567-1.924-0.506-3.424,0.179-4.339
			c0.925-1.236,2.84-1.188,5.163,0.214c1.396,0.842,2.23,1.019,2.684,1.018c0.503,0,0.644-0.221,0.69-0.293
			c0.124-0.195,0.45-1.002-0.579-3.229c-0.885-1.915-1.014-3.457-0.372-4.459c0.311-0.487,0.954-1.067,2.251-1.067
			c0.804,0,1.747,0.225,2.806,0.667c1.769,0.741,3.117,0.832,3.424,0.266c0.109-0.204,0.361-1.033-1.023-3.15
			c-1.529-2.339-1.359-3.738-0.947-4.5c0.318-0.589,1.052-1.292,2.736-1.292c0.634,0,1.353,0.102,2.139,0.303
			c0.788,0.202,1.473,0.304,2.036,0.304c0.429,0,1.177-0.065,1.373-0.5c0.197-0.438-0.082-1.458-1.454-3.007
			c-1.515-1.708-2.06-3.292-1.535-4.458c0.554-1.23,2.164-1.803,4.62-1.543c1.854,0.193,3.122-0.076,3.333-0.653
			c0.166-0.456-0.236-1.431-1.865-2.801c-1.803-1.517-2.56-3.042-2.133-4.293s1.958-1.995,4.312-2.094
			c2.167-0.091,3.072-0.63,3.196-1.104c0.123-0.474-0.401-1.387-2.247-2.527c-2.005-1.238-2.976-2.637-2.735-3.937
			c0.239-1.3,1.646-2.259,3.961-2.7c2.131-0.405,2.947-1.07,3.001-1.557c0.054-0.487-0.599-1.314-2.591-2.173
			c-2.163-0.933-3.328-2.175-3.28-3.497c0.049-1.321,1.302-2.475,3.527-3.247c2.05-0.712,2.761-1.489,2.742-1.979
			c-0.018-0.49-0.783-1.212-2.879-1.772c-2.276-0.608-3.61-1.667-3.755-2.982c-0.145-1.314,0.927-2.638,3.016-3.727
			c1.925-1.002,2.516-1.874,2.427-2.356s-0.952-1.085-3.107-1.334c-2.341-0.271-3.813-1.124-4.148-2.404
			c-0.335-1.279,0.532-2.745,2.441-4.126c1.747-1.265,2.209-2.212,2.059-2.676c-0.147-0.456-1.129-0.948-3.271-0.875
			c-2.381,0.08-3.966-0.572-4.467-1.804c-0.493-1.213,0.155-2.778,1.827-4.407c1.503-1.466,1.845-2.465,1.663-2.912
			c-0.231-0.571-1.549-0.753-3.38-0.426c-0.603,0.108-1.166,0.163-1.676,0.163c-1.959,0-2.756-0.78-3.08-1.434
			c-0.555-1.122-0.114-2.716,1.24-4.489c1.559-2.042,1.345-2.879,1.241-3.087c-0.175-0.354-0.707-0.428-1.122-0.428
			c-0.611,0-1.386,0.156-2.302,0.463c-0.937,0.314-1.78,0.473-2.509,0.473c-1.469,0-2.151-0.637-2.467-1.171
			c-0.616-1.047-0.389-2.6,0.658-4.489c1.208-2.18,0.919-2.999,0.802-3.198c-0.048-0.081-0.193-0.328-0.797-0.328
			c-0.449,0-1.267,0.143-2.609,0.824c-1.153,0.585-2.177,0.881-3.042,0.881c-1.159,0-1.77-0.531-2.078-0.977
			c-0.663-0.958-0.631-2.483,0.094-4.409c0.573-1.524,0.706-2.736,0.355-3.243c-0.079-0.115-0.229-0.267-0.611-0.267
			c-0.643,0-1.606,0.432-2.715,1.216c-2.258,1.597-4.194,1.759-5.188,0.526c-0.702-0.872-0.855-2.341-0.44-4.25
			c0.48-2.214,0.1-2.99-0.086-3.221c-0.486-0.6-1.738,0.002-3.188,1.384c-2.061,1.965-4.048,2.362-5.179,1.153
			c-0.734-0.785-1.056-2.174-0.932-4.018c0.147-2.175-0.309-2.915-0.512-3.132c-0.13-0.138-0.272-0.203-0.451-0.203
			c-0.296,0-1.137,0.194-2.542,1.994c-1.217,1.557-2.456,2.38-3.585,2.38c-0.763,0-2.57-0.421-2.878-4.325
			c-0.151-1.923-0.677-3.166-1.341-3.166c-0.231,0-1.082,0.169-2.322,2.351c-1.079,1.897-2.297,2.9-3.524,2.9
			c-0.846,0-2.382-0.504-3.153-3.884C82.251,1.773,81.542,1,81.042,1c-0.483,0-1.272,0.702-2.038,2.67
			c-0.854,2.196-2.052,3.406-3.374,3.406s-2.521-1.209-3.374-3.406C71.49,1.701,70.701,1,70.218,1c-0.499,0-1.209,0.773-1.705,2.944
			c-0.771,3.379-2.307,3.884-3.153,3.884c0,0,0,0,0,0c-1.227,0-2.445-1.003-3.523-2.9c-1.24-2.181-2.091-2.351-2.322-2.351
			c-0.664,0-1.19,1.243-1.341,3.166c-0.307,3.903-2.115,4.325-2.878,4.325c-1.129,0-2.368-0.823-3.584-2.38
			c-1.405-1.8-2.246-1.994-2.542-1.994c-0.178,0-0.322,0.064-0.451,0.203c-0.203,0.217-0.659,0.957-0.512,3.132
			c0.125,1.843-0.197,3.232-0.932,4.018c-1.13,1.21-3.119,0.812-5.18-1.153c-1.448-1.381-2.702-1.984-3.187-1.384
			c-0.186,0.23-0.566,1.006-0.085,3.221c0.415,1.909,0.262,3.378-0.44,4.25c-0.994,1.233-2.931,1.071-5.188-0.526
			c-1.108-0.784-2.073-1.216-2.716-1.216c-0.382,0-0.531,0.152-0.61,0.266c-0.351,0.507-0.218,1.719,0.355,3.243
			c0.725,1.926,0.757,3.451,0.093,4.409c-0.308,0.445-0.919,0.976-2.078,0.976c-0.866,0-1.889-0.296-3.042-0.881
			c-1.344-0.682-2.161-0.824-2.61-0.824c-0.603,0-0.749,0.247-0.796,0.328c-0.117,0.199-0.406,1.018,0.802,3.198
			c1.047,1.89,1.274,3.442,0.658,4.489c-0.314,0.534-0.998,1.171-2.467,1.171c-0.728,0-1.572-0.159-2.508-0.473
			c-0.917-0.307-1.691-0.463-2.303-0.463c-0.416,0-0.947,0.074-1.122,0.428c-0.103,0.208-0.318,1.046,1.241,3.087
			c1.354,1.773,1.794,3.368,1.24,4.489c-0.324,0.654-1.121,1.434-3.08,1.434c-0.51,0-1.074-0.055-1.676-0.163
			c-1.829-0.328-3.146-0.145-3.379,0.426c-0.182,0.447,0.16,1.446,1.664,2.912c1.671,1.629,2.32,3.194,1.827,4.407
			c-0.501,1.232-2.073,1.882-4.467,1.804c-2.158-0.07-3.123,0.42-3.271,0.875c-0.151,0.465,0.311,1.412,2.058,2.676
			c1.909,1.381,2.776,2.847,2.441,4.126c-0.334,1.279-1.808,2.133-4.148,2.403c-2.155,0.249-3.018,0.853-3.107,1.334
			c-0.089,0.482,0.501,1.354,2.425,2.356c2.09,1.088,3.161,2.412,3.017,3.727s-1.478,2.374-3.754,2.982
			c-2.096,0.56-2.862,1.283-2.88,1.773c-0.018,0.49,0.693,1.267,2.743,1.978c2.226,0.772,3.478,1.926,3.526,3.248
			c0.048,1.321-1.116,2.563-3.28,3.496c-1.992,0.859-2.645,1.686-2.591,2.173c0.053,0.487,0.87,1.152,3,1.558
			c2.315,0.44,3.722,1.399,3.962,2.7c0.24,1.301-0.731,2.699-2.736,3.937c-1.846,1.14-2.371,2.053-2.247,2.527
			s1.028,1.013,3.196,1.104c2.354,0.099,3.886,0.842,4.313,2.094c0.427,1.251-0.331,2.776-2.134,4.293
			c-1.628,1.37-2.031,2.345-1.865,2.801c0.211,0.578,1.479,0.846,3.333,0.653c2.451-0.257,4.066,0.313,4.619,1.543
			c0.525,1.167-0.02,2.75-1.534,4.458c-1.373,1.55-1.652,2.569-1.455,3.007c0.196,0.435,0.945,0.5,1.374,0.5
			c0.563,0,1.249-0.102,2.037-0.304c0.786-0.201,1.505-0.303,2.138-0.303c1.684,0,2.417,0.703,2.736,1.292
			c0.412,0.762,0.582,2.161-0.947,4.5c-1.385,2.118-1.134,2.947-1.023,3.151c0.306,0.565,1.655,0.474,3.424-0.267
			c1.058-0.442,2.002-0.667,2.805-0.667c1.297,0,1.94,0.58,2.251,1.067c0.642,1.002,0.513,2.544-0.373,4.459
			c-1.029,2.227-0.703,3.035-0.579,3.229c0.046,0.073,0.188,0.294,0.69,0.293c0.454,0,1.288-0.176,2.684-1.018
			c2.325-1.4,4.238-1.451,5.164-0.214c0.684,0.915,0.745,2.416,0.178,4.339c-0.653,2.213-0.311,3.003-0.134,3.24
			c0.079,0.105,0.221,0.245,0.55,0.245c0.372,0,1.219-0.184,2.713-1.415c2.159-1.776,4.137-2.057,5.193-0.839
			c0.719,0.828,0.959,2.261,0.692,4.143c-0.312,2.202,0.107,2.96,0.301,3.184c0.127,0.146,0.277,0.214,0.473,0.214
			c0.297,0,1.147-0.176,2.624-1.806c1.255-1.386,2.492-2.119,3.576-2.119c1.692,0,2.712,1.693,2.727,4.53
			c0.011,1.979,0.463,3.257,1.153,3.257c0.616,0,1.529-0.814,2.441-2.177c1.157-1.728,2.39-2.641,3.566-2.641
			c1.521,0,2.623,1.498,3.021,4.109c0.345,2.26,1.038,3.062,1.526,3.062c0.479,0,1.305-0.661,2.187-2.516
			C67.99,144.821,69.219,143.7,70.482,143.7z"/>
	</g>
	<g>
		<path class="st0" d="M75.63,151.161c-0.8,0-1.94-0.61-2.833-3.52c-0.565-1.842-1.43-2.941-2.315-2.941
			c-0.843,0-1.775,0.942-2.556,2.585c-0.96,2.019-2.028,3.086-3.09,3.086c-0.716,0-1.995-0.508-2.515-3.911
			c-0.312-2.042-1.072-3.26-2.033-3.26c-0.803,0-1.8,0.801-2.735,2.198c-1.147,1.714-2.279,2.62-3.272,2.62
			c-0.795,0-2.133-0.552-2.153-4.252c-0.012-2.214-0.657-3.535-1.727-3.535c-0.783,0-1.79,0.636-2.835,1.79
			c-1.283,1.417-2.415,2.134-3.364,2.135c-0.487,0-0.912-0.193-1.229-0.558c-0.628-0.723-0.808-2.062-0.537-3.98
			c0.222-1.563,0.059-2.752-0.457-3.347c-0.697-0.802-2.146-0.409-3.803,0.956c-2.161,1.778-3.885,2.087-4.7,0.996
			c-0.59-0.79-0.599-2.176-0.024-4.122c0.468-1.586,0.461-2.814-0.02-3.457c-0.597-0.8-2.062-0.605-3.846,0.471
			c-1.279,0.771-2.355,1.162-3.2,1.162c-0.868,0-1.313-0.41-1.533-0.754c-0.54-0.844-0.362-2.292,0.514-4.188
			c0.714-1.543,0.874-2.819,0.438-3.5c-0.511-0.799-1.947-0.803-3.829-0.016c-1.134,0.475-2.101,0.715-2.874,0.715
			c-1.1,0-1.595-0.487-1.816-0.896c-0.493-0.911-0.124-2.354,1.066-4.173c0.969-1.482,1.298-2.749,0.905-3.477
			c-0.343-0.634-1.199-0.768-1.857-0.768c-0.55,0-1.186,0.091-1.89,0.271c-0.869,0.222-1.638,0.335-2.285,0.335
			c-1.484,0-2.062-0.593-2.286-1.09c-0.44-0.978,0.12-2.389,1.619-4.081c1.219-1.376,1.719-2.61,1.37-3.385
			c-0.359-0.799-1.662-1.159-3.604-0.959c-0.45,0.047-0.865,0.07-1.243,0.07c-2.175,0-2.904-0.748-3.133-1.375
			c-0.266-0.73-0.107-2,2.161-3.909c1.444-1.215,2.111-2.383,1.831-3.205c-0.281-0.822-1.523-1.339-3.409-1.418
			c-3.04-0.127-3.919-1.076-4.122-1.85c-0.202-0.773,0.1-2.031,2.689-3.63c1.605-0.992,2.436-2.051,2.278-2.905
			s-1.312-1.546-3.166-1.899c-2.989-0.569-3.72-1.636-3.808-2.431s0.395-1.996,3.188-3.201c1.733-0.748,2.709-1.674,2.677-2.542
			c-0.032-0.868-1.073-1.72-2.855-2.339c-2.875-0.998-3.443-2.16-3.414-2.959s0.681-1.917,3.621-2.702
			c1.823-0.487,2.923-1.262,3.018-2.125c0.095-0.863-0.811-1.858-2.484-2.73c-2.699-1.406-3.092-2.638-2.946-3.424
			c0.145-0.787,0.953-1.797,3.976-2.146c1.875-0.216,3.076-0.823,3.295-1.663c0.22-0.84-0.531-1.957-2.06-3.063
			c-2.446-1.77-2.668-3.041-2.424-3.795c0.245-0.755,1.209-1.654,4.253-1.567c1.898,0.067,3.183-0.378,3.509-1.181
			c0.325-0.799-0.258-2.007-1.599-3.314c-1.649-1.607-2.303-2.992-1.892-4.004c0.226-0.555,0.868-1.217,2.643-1.217
			c0.541,0,1.159,0.062,1.839,0.183c1.909,0.344,3.292,0.062,3.683-0.73c0.372-0.751-0.043-2.005-1.139-3.439
			c-1.346-1.762-1.81-3.193-1.343-4.137c0.222-0.449,0.753-0.985,2.019-0.985c0.72,0,1.602,0.173,2.62,0.515
			c0.834,0.279,1.571,0.421,2.191,0.421c0.55,0,1.275-0.118,1.605-0.679c0.415-0.704,0.17-1.979-0.671-3.497
			c-1.033-1.864-1.306-3.313-0.789-4.19c0.22-0.375,0.687-0.82,1.658-0.82c0.812,0,1.842,0.313,3.062,0.933
			c1.83,0.928,3.295,1.022,3.845,0.228c0.455-0.657,0.38-1.928-0.207-3.487c-0.73-1.94-0.812-3.342-0.242-4.165
			c0.22-0.318,0.647-0.697,1.433-0.697c0.872,0,1.98,0.471,3.293,1.399c1.365,0.966,2.271,1.168,2.792,1.168
			c0.455,0,0.795-0.148,1.041-0.454c0.499-0.619,0.584-1.83,0.241-3.41c-0.421-1.938-0.325-3.304,0.285-4.061
			c0.874-1.084,2.595-0.676,4.656,1.288c1.582,1.509,3.004,2.001,3.759,1.194c0.533-0.57,0.769-1.73,0.664-3.268
			c-0.127-1.886,0.135-3.192,0.779-3.882c0.318-0.34,0.727-0.52,1.182-0.52c0.978,0,2.098,0.8,3.331,2.379
			c1.005,1.287,1.998,1.996,2.796,1.996c1.011,0,1.714-1.272,1.881-3.403c0.28-3.557,1.585-4.088,2.338-4.088
			c1.026,0,2.129,0.988,3.191,2.856c0.865,1.521,1.833,2.394,2.654,2.395l0,0c0.92,0,1.734-1.161,2.179-3.106
			C68.24,0.646,69.383,0,70.218,0c1.102,0,2.129,1.144,2.97,3.308c0.684,1.759,1.574,2.768,2.442,2.768s1.758-1.009,2.442-2.768
			C78.913,1.144,79.94,0,81.042,0c0.835,0,1.978,0.646,2.68,3.721c0.444,1.945,1.259,3.106,2.179,3.106
			c0.822,0,1.79-0.873,2.655-2.395c1.062-1.869,2.166-2.856,3.191-2.856c0.753,0,2.059,0.531,2.338,4.088
			c0.167,2.131,0.871,3.403,1.881,3.403c0.799,0,1.791-0.708,2.796-1.996c1.233-1.579,2.354-2.379,3.331-2.379
			c0.455,0,0.863,0.18,1.182,0.52c0.645,0.689,0.906,1.996,0.779,3.882c-0.104,1.538,0.132,2.698,0.664,3.268
			c0.754,0.807,2.177,0.314,3.759-1.194c2.058-1.962,3.78-2.372,4.655-1.288c0.609,0.756,0.705,2.123,0.284,4.061
			c-0.343,1.58-0.257,2.791,0.242,3.41c0.246,0.306,0.587,0.454,1.041,0.454c0.52,0,1.427-0.203,2.791-1.168
			c1.312-0.929,2.421-1.399,3.293-1.399c0.786,0,1.213,0.379,1.434,0.697c0.569,0.823,0.488,2.224-0.242,4.165
			c-0.587,1.559-0.662,2.83-0.207,3.487c0.549,0.795,2.016,0.702,3.845-0.228c1.221-0.619,2.251-0.933,3.062-0.933
			c0.971,0,1.438,0.446,1.658,0.82c0.517,0.877,0.244,2.327-0.788,4.19c-0.842,1.518-1.086,2.792-0.671,3.497
			c0.33,0.561,1.055,0.679,1.604,0.679c0.62,0,1.357-0.142,2.19-0.421c1.019-0.341,1.9-0.515,2.62-0.515
			c1.266,0,1.797,0.536,2.019,0.985c0.467,0.944,0.003,2.375-1.343,4.137c-1.096,1.435-1.51,2.688-1.139,3.439
			c0.393,0.792,1.774,1.073,3.684,0.73c0.679-0.122,1.298-0.183,1.839-0.183c1.775,0,2.417,0.662,2.644,1.217
			c0.411,1.012-0.243,2.397-1.893,4.004c-1.341,1.307-1.924,2.515-1.599,3.314c0.326,0.803,1.629,1.249,3.51,1.181
			c3.034-0.092,4.009,0.812,4.253,1.567c0.244,0.754,0.022,2.024-2.424,3.795c-1.528,1.106-2.279,2.223-2.06,3.062
			c0.22,0.841,1.421,1.447,3.296,1.664c3.022,0.349,3.83,1.359,3.976,2.146c0.145,0.786-0.249,2.019-2.948,3.424
			c-1.673,0.872-2.578,1.868-2.483,2.73c0.095,0.863,1.195,1.638,3.019,2.125c2.939,0.785,3.592,1.903,3.621,2.702
			c0.029,0.799-0.54,1.961-3.414,2.959c-1.783,0.619-2.824,1.472-2.855,2.339c-0.032,0.868,0.943,1.794,2.677,2.542
			c2.794,1.205,3.276,2.406,3.188,3.201c-0.087,0.795-0.819,1.862-3.808,2.43c-1.854,0.353-3.008,1.045-3.166,1.899
			c-0.157,0.854,0.673,1.913,2.278,2.905c2.589,1.599,2.891,2.857,2.688,3.63s-1.081,1.723-4.122,1.85
			c-1.885,0.079-3.127,0.596-3.407,1.417s0.387,1.99,1.831,3.206c2.268,1.908,2.427,3.178,2.16,3.908
			c-0.229,0.627-0.958,1.375-3.133,1.375c-0.378,0-0.793-0.022-1.243-0.07c-1.944-0.2-3.244,0.16-3.604,0.959
			c-0.349,0.775,0.151,2.009,1.371,3.385c1.499,1.691,2.059,3.103,1.618,4.081c-0.224,0.497-0.802,1.09-2.285,1.09
			c-0.646,0-1.415-0.113-2.284-0.335c-0.704-0.18-1.341-0.271-1.891-0.271c-0.657,0-1.514,0.133-1.856,0.768
			c-0.395,0.728-0.064,1.995,0.905,3.477c1.189,1.819,1.558,3.262,1.064,4.173c-0.221,0.409-0.716,0.896-1.815,0.896
			c-0.772,0-1.739-0.241-2.874-0.715c-1.878-0.787-3.316-0.784-3.828,0.016c-0.436,0.681-0.275,1.957,0.438,3.5
			c0.876,1.895,1.053,3.343,0.514,4.188c-0.221,0.344-0.665,0.755-1.533,0.755c-0.844,0-1.921-0.391-3.199-1.162
			c-1.785-1.076-3.251-1.269-3.847-0.471c-0.481,0.643-0.488,1.871-0.021,3.457c0.574,1.946,0.565,3.333-0.024,4.122
			c-0.816,1.09-2.539,0.782-4.699-0.996c-1.659-1.365-3.106-1.758-3.803-0.956c-0.517,0.594-0.679,1.783-0.457,3.347
			c0.271,1.918,0.091,3.257-0.537,3.98c-0.316,0.365-0.741,0.559-1.229,0.559c-0.949,0-2.082-0.718-3.364-2.135
			c-1.046-1.154-2.053-1.79-2.835-1.79c-1.07,0-1.716,1.321-1.728,3.535c-0.02,3.7-1.356,4.252-2.152,4.252
			c-1.007,0-2.108-0.881-3.272-2.62c-0.935-1.397-1.932-2.198-2.735-2.198c-0.961,0-1.722,1.219-2.033,3.26
			c-0.519,3.402-1.798,3.911-2.514,3.911c-1.062,0-2.13-1.067-3.09-3.086c-0.781-1.643-1.713-2.585-2.556-2.585
			c-0.885,0-1.751,1.1-2.316,2.941C77.57,150.551,76.43,151.161,75.63,151.161z M70.482,143.7c0.804,0,2.298,0.474,3.271,3.648
			c0.636,2.074,1.386,2.812,1.876,2.812s1.24-0.739,1.876-2.812c0.974-3.174,2.468-3.648,3.272-3.648
			c1.263,0,2.492,1.121,3.459,3.156c0.881,1.855,1.708,2.516,2.186,2.516c0.489,0,1.182-0.802,1.526-3.062
			c0.398-2.612,1.5-4.109,3.021-4.109c1.176,0,2.409,0.914,3.566,2.641c0.912,1.363,1.825,2.177,2.441,2.177
			c0.689,0,1.142-1.279,1.152-3.257c0.015-2.836,1.034-4.53,2.728-4.53c1.084,0,2.32,0.732,3.576,2.119
			c1.476,1.629,2.326,1.806,2.623,1.806c0.196,0,0.347-0.068,0.474-0.214c0.194-0.224,0.613-0.983,0.302-3.184
			c-0.267-1.882-0.027-3.314,0.692-4.143c1.054-1.216,3.035-0.937,5.192,0.839c1.495,1.23,2.342,1.415,2.713,1.415
			c0.329,0,0.472-0.14,0.551-0.245c0.177-0.237,0.519-1.027-0.134-3.24c-0.567-1.924-0.506-3.424,0.179-4.339
			c0.925-1.236,2.84-1.188,5.163,0.214c1.396,0.842,2.23,1.019,2.684,1.018c0.503,0,0.644-0.221,0.69-0.293
			c0.124-0.195,0.45-1.002-0.579-3.229c-0.885-1.915-1.014-3.457-0.372-4.459c0.311-0.487,0.954-1.067,2.251-1.067
			c0.804,0,1.747,0.225,2.806,0.667c1.769,0.741,3.117,0.832,3.424,0.266c0.109-0.204,0.361-1.033-1.023-3.15
			c-1.529-2.339-1.359-3.738-0.947-4.5c0.318-0.589,1.052-1.292,2.736-1.292c0.634,0,1.353,0.102,2.139,0.303
			c0.788,0.202,1.473,0.304,2.036,0.304c0.429,0,1.177-0.065,1.373-0.5c0.197-0.438-0.082-1.458-1.454-3.007
			c-1.515-1.708-2.06-3.292-1.535-4.458c0.554-1.23,2.164-1.803,4.62-1.543c1.854,0.193,3.122-0.076,3.333-0.653
			c0.166-0.456-0.236-1.431-1.865-2.801c-1.803-1.517-2.56-3.042-2.133-4.293s1.958-1.995,4.312-2.094
			c2.167-0.091,3.072-0.63,3.196-1.104c0.123-0.474-0.401-1.387-2.247-2.527c-2.005-1.238-2.976-2.637-2.735-3.937
			c0.239-1.3,1.646-2.259,3.961-2.7c2.131-0.405,2.947-1.07,3.001-1.557c0.054-0.487-0.599-1.314-2.591-2.173
			c-2.163-0.933-3.328-2.175-3.28-3.497c0.049-1.321,1.302-2.475,3.527-3.247c2.05-0.712,2.761-1.489,2.742-1.979
			c-0.018-0.49-0.783-1.212-2.879-1.772c-2.276-0.608-3.61-1.667-3.755-2.982c-0.145-1.314,0.927-2.638,3.016-3.727
			c1.925-1.002,2.516-1.874,2.427-2.356s-0.952-1.085-3.107-1.334c-2.341-0.271-3.813-1.124-4.148-2.404
			c-0.335-1.279,0.532-2.745,2.441-4.126c1.747-1.265,2.209-2.212,2.059-2.676c-0.147-0.456-1.129-0.948-3.271-0.875
			c-2.381,0.08-3.966-0.572-4.467-1.804c-0.493-1.213,0.155-2.778,1.827-4.407c1.503-1.466,1.845-2.465,1.663-2.912
			c-0.231-0.571-1.549-0.753-3.38-0.426c-0.603,0.108-1.166,0.163-1.676,0.163c-1.959,0-2.756-0.78-3.08-1.434
			c-0.555-1.122-0.114-2.716,1.24-4.489c1.559-2.042,1.345-2.879,1.241-3.087c-0.175-0.354-0.707-0.428-1.122-0.428
			c-0.611,0-1.386,0.156-2.302,0.463c-0.937,0.314-1.78,0.473-2.509,0.473c-1.469,0-2.151-0.637-2.467-1.171
			c-0.616-1.047-0.389-2.6,0.658-4.489c1.208-2.18,0.919-2.999,0.802-3.198c-0.048-0.081-0.193-0.328-0.797-0.328
			c-0.449,0-1.267,0.143-2.609,0.824c-1.153,0.585-2.177,0.881-3.042,0.881c-1.159,0-1.77-0.531-2.078-0.977
			c-0.663-0.958-0.631-2.483,0.094-4.409c0.573-1.524,0.706-2.736,0.355-3.243c-0.079-0.115-0.229-0.267-0.611-0.267
			c-0.643,0-1.606,0.432-2.715,1.216c-2.258,1.597-4.194,1.759-5.188,0.526c-0.702-0.872-0.855-2.341-0.44-4.25
			c0.48-2.214,0.1-2.99-0.086-3.221c-0.486-0.6-1.738,0.002-3.188,1.384c-2.061,1.965-4.048,2.362-5.179,1.153
			c-0.734-0.785-1.056-2.174-0.932-4.018c0.147-2.175-0.309-2.915-0.512-3.132c-0.13-0.138-0.272-0.203-0.451-0.203
			c-0.296,0-1.137,0.194-2.542,1.994c-1.217,1.557-2.456,2.38-3.585,2.38c-0.763,0-2.57-0.421-2.878-4.325
			c-0.151-1.923-0.677-3.166-1.341-3.166c-0.231,0-1.082,0.169-2.322,2.351c-1.079,1.897-2.297,2.9-3.524,2.9
			c-0.846,0-2.382-0.504-3.153-3.884C82.251,1.773,81.542,1,81.042,1c-0.483,0-1.272,0.702-2.038,2.67
			c-0.854,2.196-2.052,3.406-3.374,3.406s-2.521-1.209-3.374-3.406C71.49,1.701,70.701,1,70.218,1c-0.499,0-1.209,0.773-1.705,2.944
			c-0.771,3.379-2.307,3.884-3.153,3.884c0,0,0,0,0,0c-1.227,0-2.445-1.003-3.523-2.9c-1.24-2.181-2.091-2.351-2.322-2.351
			c-0.664,0-1.19,1.243-1.341,3.166c-0.307,3.903-2.115,4.325-2.878,4.325c-1.129,0-2.368-0.823-3.584-2.38
			c-1.405-1.8-2.246-1.994-2.542-1.994c-0.178,0-0.322,0.064-0.451,0.203c-0.203,0.217-0.659,0.957-0.512,3.132
			c0.125,1.843-0.197,3.232-0.932,4.018c-1.13,1.21-3.119,0.812-5.18-1.153c-1.448-1.381-2.702-1.984-3.187-1.384
			c-0.186,0.23-0.566,1.006-0.085,3.221c0.415,1.909,0.262,3.378-0.44,4.25c-0.994,1.233-2.931,1.071-5.188-0.526
			c-1.108-0.784-2.073-1.216-2.716-1.216c-0.382,0-0.531,0.152-0.61,0.266c-0.351,0.507-0.218,1.719,0.355,3.243
			c0.725,1.926,0.757,3.451,0.093,4.409c-0.308,0.445-0.919,0.976-2.078,0.976c-0.866,0-1.889-0.296-3.042-0.881
			c-1.344-0.682-2.161-0.824-2.61-0.824c-0.603,0-0.749,0.247-0.796,0.328c-0.117,0.199-0.406,1.018,0.802,3.198
			c1.047,1.89,1.274,3.442,0.658,4.489c-0.314,0.534-0.998,1.171-2.467,1.171c-0.728,0-1.572-0.159-2.508-0.473
			c-0.917-0.307-1.691-0.463-2.303-0.463c-0.416,0-0.947,0.074-1.122,0.428c-0.103,0.208-0.318,1.046,1.241,3.087
			c1.354,1.773,1.794,3.368,1.24,4.489c-0.324,0.654-1.121,1.434-3.08,1.434c-0.51,0-1.074-0.055-1.676-0.163
			c-1.829-0.328-3.146-0.145-3.379,0.426c-0.182,0.447,0.16,1.446,1.664,2.912c1.671,1.629,2.32,3.194,1.827,4.407
			c-0.501,1.232-2.073,1.882-4.467,1.804c-2.158-0.07-3.123,0.42-3.271,0.875c-0.151,0.465,0.311,1.412,2.058,2.676
			c1.909,1.381,2.776,2.847,2.441,4.126c-0.334,1.279-1.808,2.133-4.148,2.403c-2.155,0.249-3.018,0.853-3.107,1.334
			c-0.089,0.482,0.501,1.354,2.425,2.356c2.09,1.088,3.161,2.412,3.017,3.727s-1.478,2.374-3.754,2.982
			c-2.096,0.56-2.862,1.283-2.88,1.773c-0.018,0.49,0.693,1.267,2.743,1.978c2.226,0.772,3.478,1.926,3.526,3.248
			c0.048,1.321-1.116,2.563-3.28,3.496c-1.992,0.859-2.645,1.686-2.591,2.173c0.053,0.487,0.87,1.152,3,1.558
			c2.315,0.44,3.722,1.399,3.962,2.7c0.24,1.301-0.731,2.699-2.736,3.937c-1.846,1.14-2.371,2.053-2.247,2.527
			s1.028,1.013,3.196,1.104c2.354,0.099,3.886,0.842,4.313,2.094c0.427,1.251-0.331,2.776-2.134,4.293
			c-1.628,1.37-2.031,2.345-1.865,2.801c0.211,0.578,1.479,0.846,3.333,0.653c2.451-0.257,4.066,0.313,4.619,1.543
			c0.525,1.167-0.02,2.75-1.534,4.458c-1.373,1.55-1.652,2.569-1.455,3.007c0.196,0.435,0.945,0.5,1.374,0.5
			c0.563,0,1.249-0.102,2.037-0.304c0.786-0.201,1.505-0.303,2.138-0.303c1.684,0,2.417,0.703,2.736,1.292
			c0.412,0.762,0.582,2.161-0.947,4.5c-1.385,2.118-1.134,2.947-1.023,3.151c0.306,0.565,1.655,0.474,3.424-0.267
			c1.058-0.442,2.002-0.667,2.805-0.667c1.297,0,1.94,0.58,2.251,1.067c0.642,1.002,0.513,2.544-0.373,4.459
			c-1.029,2.227-0.703,3.035-0.579,3.229c0.046,0.073,0.188,0.294,0.69,0.293c0.454,0,1.288-0.176,2.684-1.018
			c2.325-1.4,4.238-1.451,5.164-0.214c0.684,0.915,0.745,2.416,0.178,4.339c-0.653,2.213-0.311,3.003-0.134,3.24
			c0.079,0.105,0.221,0.245,0.55,0.245c0.372,0,1.219-0.184,2.713-1.415c2.159-1.776,4.137-2.057,5.193-0.839
			c0.719,0.828,0.959,2.261,0.692,4.143c-0.312,2.202,0.107,2.96,0.301,3.184c0.127,0.146,0.277,0.214,0.473,0.214
			c0.297,0,1.147-0.176,2.624-1.806c1.255-1.386,2.492-2.119,3.576-2.119c1.692,0,2.712,1.693,2.727,4.53
			c0.011,1.979,0.463,3.257,1.153,3.257c0.616,0,1.529-0.814,2.441-2.177c1.157-1.728,2.39-2.641,3.566-2.641
			c1.521,0,2.623,1.498,3.021,4.109c0.345,2.26,1.038,3.062,1.526,3.062c0.479,0,1.305-0.661,2.187-2.516
			C67.99,144.821,69.219,143.7,70.482,143.7z"/>
	</g>
</g>
<g>
	<path class="st0" d="M75.63,137.402c-34.088,0-61.821-27.733-61.821-61.821S41.542,13.759,75.63,13.759
		s61.822,27.733,61.822,61.821S109.718,137.402,75.63,137.402z M75.63,14.759c-33.537,0-60.821,27.284-60.821,60.821
		s27.284,60.821,60.821,60.821c33.538,0,60.822-27.284,60.822-60.821S109.167,14.759,75.63,14.759z"/>
</g>
<g>
	<path class="st0" d="M55.446,59.291c-0.026,0.599-0.27,1.211-0.73,1.837c-0.718,0.898-1.18,1.579-1.384,2.042
		c-1.615,2.613-3.281,3.919-4.999,3.919c-2.025,0-3.601-1.088-4.729-3.266c-1-1.987-1.5-4.491-1.5-7.512
		c0-3.456,0.615-6.464,1.846-9.022c1.358-2.83,3.114-4.246,5.268-4.246c1.691,0,3.062,0.994,4.114,2.98
		c0.871,1.688,1.307,3.525,1.307,5.511c0,0.545-0.039,1.021-0.115,1.429c-0.18,0.925-0.91,1.388-2.191,1.388
		c-1,0-1.769-0.299-2.307-0.898c-0.256-0.299-0.384-0.993-0.384-2.082c0-0.271,0.013-0.667,0.038-1.184c0-0.544,0-0.939,0-1.184
		c0-1.225-0.205-1.837-0.615-1.837c-0.437,0-0.898,1.341-1.384,4.021c-0.487,2.681-0.73,5.191-0.73,7.532
		c0,2.722,0.384,4.082,1.153,4.082c1,0,1.743-0.857,2.23-2.572c0.205-0.245,0.32-0.735,0.346-1.47c0-0.653,0.154-1.082,0.461-1.286
		c0.308-0.204,0.755-0.306,1.346-0.306c0.769,0,1.435,0.178,1.999,0.531C55.151,58.107,55.471,58.638,55.446,59.291z"/>
	<path class="st0" d="M64.058,66.272c-0.513,1.034-1.461,1.551-2.845,1.551c-1.282,0-2.179-0.463-2.691-1.388
		c-0.154-0.272-0.23-0.571-0.23-0.898c0-0.271,0.089-0.721,0.269-1.347c0.179-0.626,0.269-1.143,0.269-1.551l-0.154-26.373
		c0-1.442,0-2.177,0-2.205c0.077-0.354,0.436-0.646,1.077-0.877c0.641-0.231,1.32-0.347,2.038-0.347c1.051,0,1.717,0.204,2,0.612
		c0.282,0.408,0.423,0.831,0.423,1.266c0,0.3-0.103,0.796-0.308,1.49c-0.206,0.694-0.308,1.259-0.308,1.694v24.495
		c0,0.408,0.109,0.946,0.327,1.613c0.218,0.667,0.327,1.15,0.327,1.449C64.25,65.755,64.186,66.027,64.058,66.272z"/>
	<path class="st0" d="M73.554,45.411c0,0.381-0.199,0.974-0.596,1.776c-0.397,0.803-0.596,1.463-0.596,1.98v12.002
		c0,0.545,0.141,1.313,0.423,2.307c0.282,0.994,0.423,1.681,0.423,2.062c0,0.544-0.206,0.953-0.615,1.225
		c-0.641,0.435-1.333,0.653-2.076,0.653c-0.975,0-1.667-0.354-2.076-1.062c-0.538-0.871-0.808-3.47-0.808-7.797
		c0-1.034,0.02-2.646,0.058-4.837c0.038-2.191,0.058-3.79,0.058-4.797c0-0.381-0.039-0.878-0.116-1.49
		c-0.077-0.612-0.115-1.055-0.115-1.327c0-0.898,0.308-1.674,0.923-2.327c0.256-0.272,0.73-0.408,1.422-0.408
		c0.692,0,1.384,0.116,2.077,0.347c0.692,0.231,1.134,0.497,1.326,0.796C73.458,44.812,73.554,45.112,73.554,45.411z M73.054,35.45
		c0.077,0.082,0.115,0.218,0.115,0.408c0,0.245-0.077,0.667-0.23,1.266c-0.18,0.735-0.295,1.239-0.346,1.51
		c-0.052,0.272-0.026,0.872,0.077,1.796c0,0.572-0.161,0.946-0.481,1.123c-0.321,0.177-0.724,0.266-1.211,0.266
		c-0.692,0-1.397-0.149-2.115-0.449c-0.872-0.381-1.307-0.884-1.307-1.51c0-0.19,0.077-0.456,0.23-0.796
		c0.154-0.34,0.244-0.619,0.27-0.837c0.051-0.217,0.051-0.762,0-1.633c-0.052-0.68,0.077-1.143,0.384-1.388
		c0.41-0.327,1.14-0.49,2.191-0.49C71.786,34.715,72.593,34.96,73.054,35.45z"/>
	<path class="st0" d="M89.279,59.291c-0.026,0.599-0.27,1.211-0.73,1.837c-0.718,0.898-1.18,1.579-1.384,2.042
		c-1.615,2.613-3.281,3.919-4.999,3.919c-2.025,0-3.601-1.088-4.729-3.266c-1-1.987-1.5-4.491-1.5-7.512
		c0-3.456,0.615-6.464,1.846-9.022c1.358-2.83,3.114-4.246,5.268-4.246c1.691,0,3.062,0.994,4.114,2.98
		c0.871,1.688,1.307,3.525,1.307,5.511c0,0.545-0.039,1.021-0.115,1.429c-0.18,0.925-0.91,1.388-2.191,1.388
		c-1,0-1.769-0.299-2.307-0.898c-0.256-0.299-0.384-0.993-0.384-2.082c0-0.271,0.013-0.667,0.038-1.184c0-0.544,0-0.939,0-1.184
		c0-1.225-0.205-1.837-0.615-1.837c-0.437,0-0.898,1.341-1.384,4.021c-0.487,2.681-0.73,5.191-0.73,7.532
		c0,2.722,0.384,4.082,1.153,4.082c1,0,1.743-0.857,2.23-2.572c0.205-0.245,0.32-0.735,0.346-1.47c0-0.653,0.154-1.082,0.461-1.286
		c0.308-0.204,0.755-0.306,1.346-0.306c0.769,0,1.435,0.178,1.999,0.531C88.984,58.107,89.304,58.638,89.279,59.291z"/>
	<path class="st0" d="M110.309,62.884c0.025,0.19,0.039,0.381,0.039,0.571c0,1.633-0.859,2.735-2.576,3.307
		c-0.334,0.108-0.629,0.164-0.885,0.164c-0.461,0-0.885-0.231-1.27-0.694c-0.59-0.68-0.947-1.061-1.076-1.143l-6.92-5.144v3.429
		c0,0.245,0.07,0.551,0.211,0.918c0.141,0.368,0.211,0.647,0.211,0.837c0,0.3-0.141,0.612-0.422,0.939
		c-0.641,0.708-1.563,1.062-2.769,1.062c-1.153,0-1.897-0.408-2.23-1.225c-0.154-0.381-0.206-0.776-0.154-1.184
		c0.102-0.708,0.154-1.184,0.154-1.429V36.429c-0.026-0.49,0.025-1.225,0.154-2.204c0.231-0.599,0.936-0.898,2.115-0.898
		c1.538,0,2.524,0.3,2.96,0.898c0.23,0.326,0.346,0.681,0.346,1.061c0,0.3-0.096,0.763-0.287,1.388
		c-0.193,0.626-0.289,1.116-0.289,1.47c-0.053,1.579-0.053,6.029,0,13.35c1.436-1.47,3.281-3.389,5.537-5.756
		c0.307-0.327,0.703-0.912,1.191-1.755c0.281-0.49,0.705-0.816,1.268-0.98c0.154-0.054,0.334-0.082,0.539-0.082
		c0.744,0,1.506,0.3,2.287,0.898c0.783,0.599,1.174,1.239,1.174,1.918c0,0.381-0.258,0.844-0.77,1.388
		c-0.514,0.544-1.025,1.062-1.537,1.551l-6.383,7.022l6.844,5.225c0.051,0.055,0.562,0.272,1.537,0.653
		C109.874,61.822,110.206,62.258,110.309,62.884z"/>
	<path class="st0" d="M85.166,114.976c-0.59,0.898-1.448,1.347-2.576,1.347c-1.025,0-2.089-0.354-3.191-1.062
		c-1-0.626-1.563-1.238-1.691-1.837c-0.052-0.218-0.077-0.422-0.077-0.612c0-0.435,0.173-0.925,0.519-1.47s0.506-1.021,0.48-1.429
		l-1.153-13.717l-6.613,15.84c-0.077,0.218-0.116,0.477-0.116,0.776c0,0.218,0.032,0.558,0.096,1.021
		c0.064,0.463,0.096,0.816,0.096,1.062c0,0.625-0.23,1.102-0.692,1.429c-0.667,0.49-1.449,0.735-2.346,0.735
		c-0.897,0-1.711-0.252-2.441-0.755c-0.73-0.504-1.186-1.164-1.365-1.98c-0.052-0.245-0.077-0.462-0.077-0.653
		c0-0.19,0.025-0.421,0.077-0.694c0.051-0.272,0.077-0.476,0.077-0.612c0-0.164-0.025-0.327-0.077-0.49L58.56,96.196l0.539,14.778
		c0.025,0.381,0.115,0.918,0.269,1.613c0.154,0.694,0.23,1.204,0.23,1.531c0,1.006-0.705,1.796-2.115,2.368
		c-0.179,0.054-0.397,0.082-0.653,0.082c-0.795,0-1.615-0.286-2.461-0.857c-0.974-0.626-1.602-1.442-1.884-2.45
		c-0.052-0.163-0.077-0.312-0.077-0.449c0-0.272,0.153-0.578,0.461-0.919c0.308-0.34,0.461-0.646,0.461-0.918l-0.461-23.27
		c0-0.381-0.128-0.864-0.384-1.45c-0.256-0.585-0.384-1.027-0.384-1.327c0-0.462,0.23-0.959,0.692-1.49
		c0.461-0.53,1.269-0.796,2.422-0.796c1.691,0,3.037,0.436,4.037,1.307c0.563,0.49,0.846,1.007,0.846,1.551
		c0,0.082-0.013,0.204-0.039,0.367c0,0.164,0,0.286,0,0.368c0,0.245,0.039,0.463,0.115,0.653l7.613,19.596l8.536-20.82
		c0.102-0.245,0.154-0.531,0.154-0.857c0-0.108-0.013-0.271-0.039-0.49c0-0.217,0-0.381,0-0.49c0-0.626,0.269-1.157,0.808-1.592
		c0.436-0.354,1.012-0.531,1.73-0.531c1.102,0,2.172,0.354,3.21,1.062c1.038,0.708,1.544,1.51,1.519,2.409
		c-0.026,0.436-0.218,0.796-0.577,1.082c-0.359,0.286-0.525,0.551-0.5,0.796l1.615,24.086c0.025,0.272,0.23,0.742,0.615,1.408
		c0.385,0.667,0.577,1.205,0.577,1.613C85.435,114.431,85.345,114.704,85.166,114.976z"/>
	<path class="st0" d="M101.006,110.771c-0.206,1.035-0.897,2.137-2.076,3.307c-0.18,0.3-0.885,0.694-2.115,1.184
		c-1.409,0.572-2.627,0.816-3.652,0.735c-1.922-0.137-3.435-1.306-4.537-3.511c-1-2.042-1.499-4.545-1.499-7.512
		c0-3.211,0.563-6.028,1.691-8.451c1.256-2.667,2.935-4.164,5.037-4.491c0.41-0.054,0.807-0.082,1.192-0.082
		c3.05,0,4.729,1.987,5.037,5.96c0.153,1.824-0.526,3.811-2.038,5.96c-1.641,2.368-3.743,4.028-6.305,4.981
		c0.282,1.089,0.5,1.796,0.653,2.123c0.359,0.681,0.846,1.021,1.461,1.021c0.589,0,1.217-0.245,1.884-0.735
		c0.563-0.408,0.947-0.802,1.153-1.184c0.103-0.054,0.205-0.36,0.308-0.918c0.102-0.558,0.371-0.959,0.808-1.205
		c0.153-0.082,0.332-0.123,0.538-0.123c0.615,0,1.211,0.32,1.788,0.959C100.91,109.43,101.134,110.091,101.006,110.771z M94.97,96.4
		c-1.026,0-1.859,0.776-2.5,2.327c-0.846,2.068-1.192,4.11-1.038,6.124c1.204-0.408,2.319-1.361,3.344-2.858
		c1.025-1.496,1.539-2.83,1.539-4C96.316,96.931,95.867,96.4,94.97,96.4z"/>
</g>
</svg>
