<?xml version="1.0" encoding="utf-8"?>
<!-- Generator: Adobe Illustrator 16.0.0, SVG Export Plug-In . SVG Version: 6.00 Build 0)  -->
<!DOCTYPE svg PUBLIC "-//W3C//DTD SVG 1.1//EN" "http://www.w3.org/Graphics/SVG/1.1/DTD/svg11.dtd">
<svg version="1.1" id="Layer_1" xmlns="http://www.w3.org/2000/svg" xmlns:xlink="http://www.w3.org/1999/xlink" x="0px" y="0px"
	 width="276.583px" height="204.218px" viewBox="0 0 276.583 204.218" style="enable-background:new 0 0 276.583 204.218;"
	 xml:space="preserve">
<style type="text/css">
<![CDATA[
	.st0{fill:#231F20;}
	.st1{fill:#AAA9AA;stroke:#231F20;stroke-miterlimit:10;}
	.st2{fill:#B7B7B7;stroke:#231F20;stroke-linejoin:bevel;stroke-miterlimit:10;}
	.st3{fill:url(#SVGID_2_);}
	.st4{fill:url(#SVGID_3_);}
	.st5{fill:#FFFFFF;}
	.st6{letter-spacing:1;}
	.st7{fill:#FFFFFF;stroke:url(#SVGID_1_);stroke-width:2.8346;stroke-miterlimit:10;}
	.st8{font-size:12;}
	.st9{fill:#FFFFFF;stroke:#231F20;stroke-miterlimit:10;}
	.st10{font-family:'CaviarDreams-Bold';}
	.st11{opacity:0.3;fill:#231F20;}
]]>
</style>
<g>
	<polygon class="st1" points="1.438,142.55 238.642,149.423 238.642,133.253 1.438,126.382 	"/>
	<g>
		<g>
			<line class="st5" x1="190.004" y1="143.017" x2="233.776" y2="144.139"/>
			<polygon class="st0" points="190.004,143.017 233.789,143.639 233.763,144.639 			"/>
		</g>
		<g>
			<line class="st5" x1="190.084" y1="139.908" x2="233.855" y2="141.029"/>
			<polygon class="st0" points="190.084,139.908 233.868,140.529 233.842,141.529 			"/>
		</g>
		<g>
			<line class="st5" x1="190.165" y1="136.799" x2="233.934" y2="137.921"/>
			<polygon class="st0" points="190.165,136.799 233.947,137.421 233.921,138.421 			"/>
		</g>
		<g>
			<line class="st5" x1="190.244" y1="133.689" x2="234.015" y2="134.812"/>
			<polygon class="st0" points="190.244,133.689 234.028,134.312 234.002,135.312 			"/>
		</g>
	</g>
	<ellipse class="st11" cx="125.984" cy="102.569" rx="83.749" ry="93.472"/>
	<polygon class="st9" points="273.833,113.716 224.492,113.716 224.492,97.549 273.833,97.549 252.343,105.633 	"/>
	<polygon class="st9" points="6.553,203.718 55.894,203.718 55.894,187.552 6.553,187.552 28.047,195.636 	"/>
	<polygon class="st1" points="1.438,175.292 237.705,179.737 237.705,163.569 1.438,159.12 	"/>
	<linearGradient id="SVGID_1_" gradientUnits="userSpaceOnUse" x1="62.7681" y1="158.6465" x2="190.2777" y2="31.1368">
		<stop  offset="0" style="stop-color:#FFFFFF"/>
		<stop  offset="0.0908" style="stop-color:#ADAFB1"/>
		<stop  offset="0.1399" style="stop-color:#7C7E80"/>
		<stop  offset="0.2449" style="stop-color:#C7C9CB"/>
		<stop  offset="0.3533" style="stop-color:#929497"/>
		<stop  offset="0.4819" style="stop-color:#FFFFFF"/>
		<stop  offset="0.6351" style="stop-color:#4A4A4C"/>
		<stop  offset="0.737" style="stop-color:#7C7E80"/>
		<stop  offset="0.8772" style="stop-color:#FFFFFF"/>
		<stop  offset="1" style="stop-color:#515254"/>
	</linearGradient>
	<ellipse class="st7" cx="126.522" cy="94.892" rx="83.749" ry="93.472"/>
	<polygon class="st2" points="237.705,100.514 224.492,97.549 224.492,101.956 	"/>
	<g>
		<g>
			<line class="st5" x1="234.015" y1="110.298" x2="248.281" y2="110.298"/>
			<polygon class="st0" points="234.015,109.798 248.281,110.298 234.015,110.798 			"/>
		</g>
		<g>
			<line class="st5" x1="234.015" y1="107.188" x2="248.281" y2="107.188"/>
			<polygon class="st0" points="234.015,106.688 248.281,107.188 234.015,107.688 			"/>
		</g>
		<g>
			<line class="st5" x1="234.015" y1="104.078" x2="248.281" y2="104.078"/>
			<polygon class="st0" points="234.015,103.578 248.281,104.078 234.015,104.578 			"/>
		</g>
		<g>
			<line class="st5" x1="234.015" y1="100.968" x2="248.281" y2="100.968"/>
			<polygon class="st0" points="234.015,100.468 248.281,100.968 234.015,101.468 			"/>
		</g>
	</g>
	<g>
		<g>
			<line class="st5" x1="3.983" y1="141.462" x2="47.754" y2="142.584"/>
			<polygon class="st0" points="3.996,140.962 47.754,142.584 3.97,141.962 			"/>
		</g>
		<g>
			<line class="st5" x1="4.063" y1="138.353" x2="47.834" y2="139.475"/>
			<polygon class="st0" points="4.076,137.853 47.834,139.475 4.051,138.853 			"/>
		</g>
		<g>
			<line class="st5" x1="4.143" y1="135.244" x2="47.914" y2="136.366"/>
			<polygon class="st0" points="4.156,134.744 47.914,136.366 4.13,135.744 			"/>
		</g>
		<g>
			<line class="st5" x1="4.223" y1="132.135" x2="47.994" y2="133.258"/>
			<polygon class="st0" points="4.235,131.635 47.994,133.258 4.21,132.635 			"/>
		</g>
	</g>
	<g>
		<g>
			<line class="st5" x1="13.72" y1="173.531" x2="57.491" y2="174.653"/>
			<polygon class="st0" points="13.732,173.031 57.491,174.653 13.707,174.031 			"/>
		</g>
		<g>
			<line class="st5" x1="13.8" y1="170.423" x2="57.571" y2="171.544"/>
			<polygon class="st0" points="13.813,169.923 57.571,171.544 13.788,170.923 			"/>
		</g>
		<g>
			<line class="st5" x1="13.88" y1="167.313" x2="57.65" y2="168.436"/>
			<polygon class="st0" points="13.893,166.813 57.65,168.436 13.867,167.813 			"/>
		</g>
		<g>
			<line class="st5" x1="13.959" y1="164.204" x2="57.731" y2="165.327"/>
			<polygon class="st0" points="13.972,163.704 57.731,165.327 13.947,164.704 			"/>
		</g>
	</g>
	<g>
		<g>
			<line class="st5" x1="186.358" y1="173.315" x2="230.129" y2="174.438"/>
			<polygon class="st0" points="186.358,173.315 230.142,173.938 230.117,174.938 			"/>
		</g>
		<g>
			<line class="st5" x1="186.438" y1="170.207" x2="230.208" y2="171.328"/>
			<polygon class="st0" points="186.438,170.207 230.221,170.828 230.196,171.828 			"/>
		</g>
		<g>
			<line class="st5" x1="186.518" y1="167.098" x2="230.288" y2="168.22"/>
			<polygon class="st0" points="186.518,167.098 230.3,167.72 230.275,168.72 			"/>
		</g>
		<g>
			<line class="st5" x1="186.597" y1="163.988" x2="230.369" y2="165.111"/>
			<polygon class="st0" points="186.597,163.988 230.381,164.611 230.356,165.611 			"/>
		</g>
	</g>
	<g>
		<g>
			<line class="st5" x1="47.221" y1="200.3" x2="32.955" y2="200.3"/>
			<polygon class="st0" points="47.221,200.8 32.955,200.3 47.221,199.8 			"/>
		</g>
		<g>
			<line class="st5" x1="47.221" y1="197.19" x2="32.955" y2="197.19"/>
			<polygon class="st0" points="47.221,197.69 32.955,197.19 47.221,196.69 			"/>
		</g>
		<g>
			<line class="st5" x1="47.221" y1="194.081" x2="32.955" y2="194.081"/>
			<polygon class="st0" points="47.221,194.581 32.955,194.081 47.221,193.581 			"/>
		</g>
		<g>
			<line class="st5" x1="47.221" y1="190.97" x2="32.955" y2="190.97"/>
			<polygon class="st0" points="47.221,191.47 32.955,190.97 47.221,190.47 			"/>
		</g>
	</g>
	<g>
		<linearGradient id="SVGID_2_" gradientUnits="userSpaceOnUse" x1="121.6226" y1="4.0186" x2="123.6226" y2="41.5189">
			<stop  offset="0" style="stop-color:#B9BBBD"/>
			<stop  offset="1" style="stop-color:#D6D7D9;stop-opacity:0"/>
		</linearGradient>
		<path class="st3" d="M126.522,11.126c44.965,0,81.646,39.55,83.657,89.18c0.058-1.424,0.092-2.854,0.092-4.294
			c0-51.625-37.494-93.475-83.749-93.475c-46.253,0-83.749,41.85-83.749,93.475c0,1.44,0.034,2.871,0.091,4.294
			C44.876,50.676,81.559,11.126,126.522,11.126z"/>
	</g>
	<g>
		
			<linearGradient id="SVGID_3_" gradientUnits="userSpaceOnUse" x1="121.6226" y1="2054.7979" x2="123.6226" y2="2092.2981" gradientTransform="matrix(1 0 0 -1 0 2242.3398)">
			<stop  offset="0" style="stop-color:#B9BBBD"/>
			<stop  offset="1" style="stop-color:#D6D7D9;stop-opacity:0"/>
		</linearGradient>
		<path class="st4" d="M126.522,180.434c44.965,0,81.646-39.55,83.657-89.18c0.058,1.424,0.092,2.854,0.092,4.294
			c0,51.624-37.494,93.475-83.749,93.475c-46.253,0-83.749-41.851-83.749-93.475c0-1.44,0.034-2.87,0.091-4.294
			C44.876,140.884,81.559,180.434,126.522,180.434z"/>
	</g>
	<polygon class="st9" points="238.642,149.423 1.438,175.292 1.438,159.12 238.642,133.253 	"/>
	<polygon class="st9" points="237.705,116.683 0.5,142.55 0.5,126.382 237.705,100.514 	"/>
	<text transform="matrix(0.9932 -0.1162 0.1162 0.9932 43.4224 135.8047)" class="st0 st10 st8 st6">Developpeur web front</text>
	<text transform="matrix(0.9932 -0.1162 0.1162 0.9932 78.936 163.5693)" class="st0 st10 st8 st6">Infographiste</text>
	<polygon class="st2" points="44.391,200.755 56.101,198.857 55.894,203.718 	"/>
	<polygon class="st9" points="237.705,179.737 44.391,200.755 44.391,184.589 237.705,163.569 	"/>
	<text transform="matrix(0.9932 -0.1162 0.1162 0.9932 76.7837 195.0811)" class="st0 st10 st8 st6">Photographe Pro</text>
	<polygon class="st0" points="31.005,163.302 66.38,158.545 63.07,160.306 66.62,161.114 	"/>
	<polygon class="st0" points="221.552,142.778 186.208,147.764 189.507,145.981 185.953,145.196 	"/>
</g>
</svg>
