<?xml version="1.0" encoding="utf-8"?>
<!-- Generator: Adobe Illustrator 16.0.0, SVG Export Plug-In . SVG Version: 6.00 Build 0)  -->
<!DOCTYPE svg PUBLIC "-//W3C//DTD SVG 1.1//EN" "http://www.w3.org/Graphics/SVG/1.1/DTD/svg11.dtd">
<svg version="1.1" id="Layer_1" xmlns="http://www.w3.org/2000/svg" xmlns:xlink="http://www.w3.org/1999/xlink" x="0px" y="0px"
	 width="595.28px" height="1887.892px" viewBox="0 0 595.28 1887.892" style="enable-background:new 0 0 595.28 1887.892;"
	 xml:space="preserve">
<style type="text/css">
<![CDATA[
	.st0{opacity:0.5;fill:#FFFFFF;}
	.st1{fill:url(#SVGID_1_);}
	.st2{opacity:0.4;fill:#FFFFFF;}
]]>
</style>
<g>
	<linearGradient id="SVGID_1_" gradientUnits="userSpaceOnUse" x1="297.6396" y1="1916.7188" x2="297.6396" y2="385.1467">
		<stop  offset="0" style="stop-color:#47647F"/>
		<stop  offset="1" style="stop-color:#84B4E1"/>
	</linearGradient>
	<path class="st1" d="M0,23.867c0,0,33.792-4.714,45.793-6.599c12.001-1.886,47.373-17.302,51.332-5.934
		c5.111,14.676,44.736,8.9,44.736,8.9l44.725-8.9l18.552-4.146c0,0-12.486,24.702,51.761,9.415c8.274-1.969,26.36-9.415,26.36-9.415
		c14.383,21.369,38.284-17.446,44.409,0c4,11.394,46.667,4.146,46.667,4.146s62.114-22.49,52.666-4.11
		c-5.116,9.952,21.334,11.358,21.334,11.358s67.529-15.774,68-3.738C517,31.892,567.667,4.386,567.667,4.386l27.613,13.73v1869.775
		H0V23.867z"/>
	<path class="st0" d="M50.751,18.583c0,0,46.233-17.357,43.241-5.69C93.992,12.893,82.836,9.94,50.751,18.583z"/>
	<path class="st2" d="M165.334,18.583l35.139-7.248c0,0-0.473,4.271,3.194,7.248C203.667,18.583,195.667,12.94,165.334,18.583z"/>
	<path class="st2" d="M264.666,18.583l17-7.248c0,0,2.667,3.023,6,3.624C287.666,14.959,281.333,12.94,264.666,18.583z"/>
	<path class="st2" d="M309,11.335c0,0,14.333-11.443,16.333-4.109C325.333,7.226,315.333,7.777,309,11.335z"/>
	<path class="st2" d="M385,11.335c0,0,26.877-8.875,38-9.109c8.333-0.176-1.666,5.885-2,9.109C421,11.335,426.667,0.11,385,11.335z"
		/>
	<path class="st2" d="M474.368,16.227c0,0,33.895-7.243,39.298-2s-1.667,7.333-1.667,7.333S509.403,12.561,474.368,16.227z"/>
</g>
</svg>
