<?xml version="1.0" encoding="utf-8"?>
<!-- Generator: Adobe Illustrator 16.0.0, SVG Export Plug-In . SVG Version: 6.00 Build 0)  -->
<!DOCTYPE svg PUBLIC "-//W3C//DTD SVG 1.1//EN" "http://www.w3.org/Graphics/SVG/1.1/DTD/svg11.dtd">
<svg version="1.1" id="Layer_1" xmlns="http://www.w3.org/2000/svg" xmlns:xlink="http://www.w3.org/1999/xlink" x="0px" y="0px"
	 width="595.281px" height="90.395px" viewBox="0 0 595.281 90.395" style="enable-background:new 0 0 595.281 90.395;"
	 xml:space="preserve">
<style type="text/css">
<![CDATA[
	.st0{fill:#C0E4F8;}
]]>
</style>
<path class="st0" d="M0,21.943c10.184-5.158,18.37-9.461,30.134-13.318c8.125,3.323,42.137,11.424,51.812,10.285
	c3.099-0.364,8.582-2.61,14.681-5.378c8.996-4.081,19.331-9.298,25.332-11.284c1.274,4.552,15.373,6.23,21.362,10.566
	c9.981,7.227,15.159-7.03,32.346-8.8c19.64-2.023,30.61,10.174,44.31,4.414c7.676-3.229,13.144-5.263,18.717-6.493
	c8.586-1.895,17.421-1.88,34.962-1.371c1.914,9.903,10.748,14.524,23.984,16.363c10.454,1.451,21.987-13.157,36.694-13.942
	c29.117-1.556,33.715,10.185,55.332,10.29c7.83,0.038,23.32-5.566,36.045-2.178c14.371,3.828,6.879,6.586,30.535,7.758
	c8.416,0.416,15.713,0.368,22.494-0.272c8.936-0.843,16.979-2.716,25.512-5.906c14.807-5.536,14.025-9.645,33.516-12.335
	c17.545-2.422,39.324,8.818,57.514,8.818v81.235H0V21.943z"/>
</svg>
