<?xml version="1.0" encoding="utf-8"?>
<!-- Generator: Adobe Illustrator 16.0.0, SVG Export Plug-In . SVG Version: 6.00 Build 0)  -->
<!DOCTYPE svg PUBLIC "-//W3C//DTD SVG 1.1//EN" "http://www.w3.org/Graphics/SVG/1.1/DTD/svg11.dtd">
<svg version="1.1" id="Layer_1" xmlns="http://www.w3.org/2000/svg" xmlns:xlink="http://www.w3.org/1999/xlink" x="0px" y="0px"
	 width="595.281px" height="104.894px" viewBox="0 0 595.281 104.894" style="enable-background:new 0 0 595.281 104.894;"
	 xml:space="preserve">
<style type="text/css">
<![CDATA[
	.st0{fill:#D9EEF9;}
]]>
</style>
<path class="st0" d="M0,23.713l13.666-7.386h8.667l6,3.693c0,0,2,0.583,4,0c2-0.584,6.667-1.75,8.667-2.139
	s10.667-3.384,10.667-3.384h6h18c0,0-7.333,2.446,4.667,0C92.333,12.051,109,7.774,109,7.774s1.333-1.555,5.333,0
	c4,1.556,12.667,5.054,12.667,5.054s2.667,1.396,9.333,1.67c6.667,0.273,8.666-0.503,15.333-2.447S167,7.083,167,7.083h14.667
	c0,0-2,1.081,4,2.636s9.333,0,14,1.166S215,9.502,223,7.083c8-2.418,18.667-5.528,21.333-5.528s7.333-3.498,12.667,0
	c5.333,3.499,17.333,5.054,19.333,6.608c2,1.556-4.001-0.388,11.333,3.693s74.667,0,74.667,0l20-10.302l12-1.555L415,11.856
	c0,0,6,0.424,11.334,2.642c5.332,2.218,12.666,0.114,20,0c7.332-0.115,23.332-4.779,23.332-4.779l22,4.779l32.668-8.667l5.332-1.166
	c0,0,8-1.943,10,0s20.668,7.191,20.668,7.191s10.666,0.584,13.332,0c2.668-0.583,10,1.361,12,0c2-1.36,9.615-5.248,9.615-5.248
	v98.285H0V23.713z"/>
</svg>
