<?xml version="1.0" encoding="utf-8"?>
<!-- Generator: Adobe Illustrator 16.0.0, SVG Export Plug-In . SVG Version: 6.00 Build 0)  -->
<!DOCTYPE svg PUBLIC "-//W3C//DTD SVG 1.1//EN" "http://www.w3.org/Graphics/SVG/1.1/DTD/svg11.dtd">
<svg version="1.1" id="Layer_1" xmlns="http://www.w3.org/2000/svg" xmlns:xlink="http://www.w3.org/1999/xlink" x="0px" y="0px"
	 width="494.899px" height="200.366px" viewBox="0 0 494.899 200.366" style="enable-background:new 0 0 494.899 200.366;"
	 xml:space="preserve">
<style type="text/css">
<![CDATA[
	.st0{fill-rule:evenodd;clip-rule:evenodd;fill:#0264A1;}
]]>
</style>
<g id="_x37_OY8zc.tif">
	<g>
		<path class="st0" d="M183.631,45.93c-0.12-0.196-0.386-0.513-0.338-0.572c10.811-13.161,20.455-27.412,34.323-37.752
			c3.878-2.892,8.275-5.09,12.434-7.606c0.825,0,1.649,0,2.474,0c1.337,9.599,1.825,19.426,4.309,28.719
			c1.667,6.239,6.417,11.598,9.324,17.576c3.23,6.643,9.161,7.965,15.512,9.514c23.81,5.804,47.471,12.227,71.333,17.794
			c5.661,1.321,11.915,0.571,17.842,0.095c3.44-0.276,5.428-0.024,7.146,3.465c1.101,2.234,3.923,4.67,6.291,5.056
			c13.925,2.264,27.936,4.021,41.944,5.713c1.248,0.151,2.964-1.117,4.014-2.171c13.396-13.455,27.07-26.662,43.635-36.17
			c10.781-6.189,22.168-11.339,33.375-16.767c2.087-1.011,4.605-1.128,7.652-1.823c-0.423,1.925-0.419,3.056-0.9,3.916
			c-3.428,6.127-6.386,12.603-12.971,16.297c-1.46,0.819-2.564,2.472-3.53,3.939c-6.568,9.968-13.042,19.998-19.572,29.99
			c-5.653,8.652-7.096,17.818-4.236,27.868c2.984,10.487,6.866,20.498,12.842,29.674c0.87,1.335,0.901,3.216,1.32,4.844
			c-1.672,0.092-3.415,0.536-5.007,0.222c-13.362-2.642-24.271-9.822-34.107-18.855c-7.181-6.595-14.318-13.238-21.354-19.987
			c-2.656-2.548-5.63-3.254-9.059-2.56c-7.918,1.605-15.821,3.279-23.736,4.901c-2.55,0.522-4.37,1.618-5.518,4.256
			c-1.232,2.828-3.375,5.492-7.054,3.923c-10.534-4.494-21.08-1.629-31.624-0.34c-3.763,0.46-7.486,1.245-11.613,1.947
			c1.646,1.246,2.803,2.123,4.778,3.618c-2.118,0.697-3.295,0.905-4.278,1.457c-1.008,0.565-1.87,1.421-2.716,2.232
			c-1.052,1.01-1.868,2.343-3.058,3.118c-3.214,2.097-6.79,3.689-9.806,6.023c-2.491,1.929-4.874,4.352-6.411,7.063
			c-1.607,2.835-3.312,3.63-5.893,2.056c-6.077-3.708-11.977-7.711-18.096-11.346c-1.747-1.037-4.009-1.748-6.021-1.718
			c-24.979,0.387-49.956,0.915-74.932,1.479c-2.639,0.06-6.454-0.395-7.654,1.077c-2.559,3.139-4.973,7.302-5.241,11.197
			c-0.438,6.344,0.552,12.862,1.557,19.21c1.327,8.384,3.425,16.644,4.82,25.019c0.475,2.853-0.172,5.892-0.307,8.845
			c-0.549,0-1.099,0-1.649,0c-13.765-5.849-23.998-15.919-31.83-28.231c-3.989-6.271-6.369-13.598-9.219-20.554
			c-2.75-6.712-4.978-13.643-7.873-20.287c-0.694-1.592-3.001-3.215-4.775-3.491c-19.638-3.063-39.369-5.554-58.964-8.856
			c-8.39-1.414-16.522-4.594-25.005-5.368c-8.112-0.74-3.94-8.996-6.612-9.859c-6.75-2.181-14.198,0.684-20.518-2.829
			c-3.834-2.131-7.789-4.077-11.459-6.459C4.889,92.657,2.527,90.315,0,88.227c0-0.825,0-1.649,0-2.474
			c5.087-2.267,10.033-4.95,15.287-6.725c20.092-6.787,39.988-14.474,60.522-19.533c18.663-4.598,38.007-6.639,57.149-9.023
			c16.856-2.099,33.848-3.115,50.768-4.603c-2.723,0.906-5.377,2.322-8.152,2.617c-12.411,1.316-24.875,2.127-37.283,3.471
			c-14.308,1.549-28.676,2.892-42.842,5.342C67.655,62.108,41.433,72.387,14.959,81.7c-4.061,1.429-7.968,3.294-12.722,5.282
			c1.99,1.796,3.106,3.232,4.569,4.045c4.977,2.766,10,5.48,15.167,7.86c2.07,0.954,4.575,1.426,6.86,1.36
			c6.977-0.199,13.942-0.807,20.917-1.148c1.054-0.051,2.137,0.469,3.206,0.726c0.027,0.325,0.053,0.649,0.08,0.975
			c-3.338,1.726-6.676,3.451-8.933,4.618c-0.632,2.227-0.979,3.451-1.632,5.754c5.101,0.355,10.115,0.704,15.277,1.062
			c0.032-0.156-0.104,0.505-0.362,1.757c11.331,0.489,22.377,7.1,33.703,0.114c1.18,6.093,4.132,7.095,9.914,3.223
			c0.179,0.942,0.346,1.821,0.471,2.481c1.094-0.243,2.208-0.861,3.094-0.626c6.052,1.61,12.007,3.604,18.095,5.054
			c3.52,0.838,7.227,0.891,12.038,1.43c-1.577-4.703-2.951-8.366-4.012-12.117c-0.744-2.631-2.02-5.628-1.4-8.036
			c2.31-8.988,5.27-17.812,8.075-26.67c0.423-1.336,1.32-2.521,1.999-3.777c0.386,0.161,0.773,0.321,1.16,0.481
			c-1.672,4.859-3.276,9.743-5.033,14.572c-3.248,8.929-4.548,17.552-0.916,27.062c4.825,12.632,7.925,25.911,12.341,38.715
			c5.878,17.039,16.153,30.762,32.27,39.546c1.771,0.966,3.832,1.4,5.758,2.081c0.27-0.342,0.539-0.684,0.809-1.025
			c-2.481-6.475-4.962-12.949-7.444-19.423c0.726-1.188,0.809-2.431,0.691-3.655c-0.059-0.619-0.696-1.201-0.704-1.806
			c-0.142-10.116-0.213-20.232-0.333-30.349c-0.03-2.574,1.001-4.173,3.315-5.583c2.348-1.43,4.146-3.762,6.952-6.426
			c-5.7-3.672-10.789-6.813-15.718-10.187c-2.129-1.457-3.929-3.395-5.878-5.113c0.208-0.26,0.417-0.519,0.625-0.779
			c-1.867-0.341-3.734-0.681-5.601-1.021c-0.309-0.328-0.618-0.656-0.926-0.983c1.222-3.65,4.414-3.702,7.048-2.934
			c2.048,0.597,5.18,2.805,5.138,4.218c-0.11,3.725,2.113,4.91,4.442,6.593c3.33,2.404,6.837,4.717,9.63,7.672
			c3.418,3.617,7.757,5.036,12.131,5.082c18.534,0.194,37.087,0.25,55.605-0.426c7.724-0.282,15.466,0.417,23.232-0.762
			c4.847-0.735,8.119,3.276,11.088,6.814c1.2,1.431,2.614,2.68,4.161,4.244c-2.885,2.656-5.449-1.399-9.189-1.145
			c2.607,1.392,4.397,2.38,6.216,3.312c2.372,1.216,3.822,0.301,5.589-1.63c2.889-3.157,6.191-6.021,9.663-8.534
			c2.583-1.87,5.708-2.99,8.592-4.444c-5.528,0.099-7.969-7.21-14.091-5.332c-4.958,1.521-10.153,2.271-15.244,3.361
			c-0.139-0.602-0.277-1.202-0.416-1.804c11.441-2.847,22.822-5.974,34.347-8.427c6-1.276,12.245-1.47,18.396-1.962
			c7.745-0.62,15.524-2.098,23.099,1.453c1.426,0.669,3.581-0.217,5.399-0.386c-1.442-0.928-2.892-1.845-4.315-2.8
			c-0.192-0.129-0.258-0.449-0.587-1.063c1.69-0.627,3.277-1.454,4.963-1.803c11.132-2.301,22.32-4.337,33.412-6.809
			c4.701-1.047,8.351,0.177,11.61,3.354c5.358,5.223,11.183,10.067,15.906,15.814c5.815,7.079,12.991,12.143,20.747,16.558
			c5.651,3.217,11.521,6.076,18.48,6.683c-0.311-0.762-0.437-1.139-0.612-1.492c-4.888-9.843-13.029-17.953-14.021-29.967
			c-0.319-3.866-1.734-7.993-1.733-12.138c0-2.859-1.893-5.704,0.586-8.643c1.311-1.553,0.947-4.837,2.394-5.882
			c2.435-1.76,2.081-3.065,0.936-4.588c7.582-4.491,8.457-13.678,13.963-19.534c-2.418,1.319-4.63,2.878-6.271,4.901
			c-4.671,5.753-9.073,11.723-13.664,17.542c-1.075,1.363-2.482,2.465-3.736,3.687c-0.359-0.345-0.718-0.691-1.076-1.037
			c4.868-6.008,9.732-12.021,14.608-18.023c2.659-3.275,6.604-6.155,2.989-11.425c3.596,3.081,4.763-0.384,6.522-1.844
			c4.77-3.956,7.616-10.864,15.51-10.014c0.322,0.035,0.822-0.322,1.025-0.635c2.57-3.966,5.102-7.958,7.642-11.942
			c-0.488-0.492-0.977-0.985-1.465-1.477c-12.357,6.385-25.642,11.474-36.845,19.477c-14.791,10.566-27.992,23.369-41.766,35.337
			c-2.01,1.745-3.806,2.769-6.551,2.342c-12.188-1.898-24.42-3.529-36.595-5.517c-5.419-0.885-10.738-2.383-15.413-3.445
			c1.249-2.105,3.221-3.968,2.867-5.11c-1.088-3.518-3.561-0.952-5.338-0.385c-3.912,1.249-7.562,2.636-11.959,1.528
			c-32.53-8.198-65.118-16.168-97.677-24.256c-1.854-0.46-3.607-1.329-5.407-2.007c0.071-0.357,0.143-0.714,0.214-1.072
			c3.576-0.184,7.152-0.368,11.649-0.6c-5.671-5.425-10.676-10.362-12.019-17.901c-1.251,0.661-2.198,1.162-3.041,1.607
			c0.386-2.531,1.127-4.83,1.003-7.082c-0.334-6.101-1.02-12.183-1.604-18.269c-0.157-1.641-0.453-3.268-0.86-6.141
			c-5.543,3.801-10.788,6.318-14.603,10.23c-8.896,9.125-17.056,18.965-25.631,28.408C188.007,42.685,185.702,44.201,183.631,45.93z
			 M476.456,51.99c-0.294-0.218-0.587-0.437-0.881-0.655c-2.969,3.331-5.938,6.662-8.906,9.992c0.319,0.289,0.638,0.576,0.957,0.865
			C472.467,60.527,473.99,55.828,476.456,51.99z"/>
		<path class="st0" d="M161.657,112.157c1.684,1.558,3.367,3.116,5.775,5.345c-7.265-1.442-10.722-5.491-9.067-9.327
			c0.768,0.974,1.567,1.985,2.366,2.999C161.039,111.5,161.348,111.829,161.657,112.157z"/>
		<path class="st0" d="M369.229,98.258c15.823-0.484,31.646-0.969,47.468-1.454c0.021,0.622,0.04,1.244,0.061,1.865
			c-15.711,4.021-31.593,2.644-47.479,1.181C369.262,99.32,369.245,98.789,369.229,98.258z"/>
		<path class="st0" d="M101.237,109.554c-1.637,0.101-3.646-0.446-2.775-3.071c3.215-9.704,6.711-19.315,10.15-28.943
			c0.203-0.568,0.832-0.983,2.075-1.183c-0.323,1.297-0.556,2.626-0.986,3.888c-2.421,7.108-5.009,14.163-7.278,21.319
			C101.651,103.996,101.64,106.669,101.237,109.554z"/>
		<path class="st0" d="M128.799,74.941c-3.438,12.887-6.646,24.909-10.189,38.192c-0.588-2.466-1.608-4.196-1.215-5.5
			c3.114-10.326,6.49-20.574,9.822-30.833C127.362,76.353,127.862,76.021,128.799,74.941z"/>
		<path class="st0" d="M135.406,75.023c-3.424,12.537-6.706,24.546-10.054,36.801c-0.374-0.956-1.612-2.487-1.296-3.56
			c3.205-10.87,6.661-21.665,10.071-32.473C134.186,75.606,134.559,75.521,135.406,75.023z"/>
		<path class="st0" d="M121.412,74.752c-3.733,12.001-7.467,24.002-11.439,36.771C108.295,106.955,115.933,81.55,121.412,74.752z"/>
		<path class="st0" d="M37.087,84.076c-1.568,1.29-3.595,3.924-4.605,3.58c-1.89-0.645-3.713-2.817-4.462-4.776
			c-0.279-0.729,2.34-3.453,3.968-3.826C34.597,78.457,36.197,80.373,37.087,84.076z"/>
		<path class="st0" d="M443.068,107.156c3.455,7.562,6.909,15.125,10.363,22.687c-0.461,0.219-0.922,0.437-1.383,0.654
			c-3.616-7.485-7.23-14.972-10.846-22.458C441.824,107.744,442.447,107.45,443.068,107.156z"/>
		<path class="st0" d="M205.34,51.688c3.593,0.202,7.186,0.403,10.779,0.605c-0.037,0.56-0.073,1.121-0.109,1.681
			c-3.598-0.24-7.194-0.48-10.792-0.721C205.259,52.731,205.3,52.209,205.34,51.688z"/>
		<path class="st0" d="M443.655,83.025c-2.476,2.599-4.951,5.197-7.427,7.795c-0.394-0.383-0.785-0.765-1.179-1.147
			c2.553-2.525,5.105-5.051,7.658-7.576C443.023,82.407,443.34,82.716,443.655,83.025z"/>
	</g>
</g>
</svg>
