<?xml version="1.0" encoding="utf-8"?>
<!-- Generator: Adobe Illustrator 16.0.0, SVG Export Plug-In . SVG Version: 6.00 Build 0)  -->
<!DOCTYPE svg PUBLIC "-//W3C//DTD SVG 1.1//EN" "http://www.w3.org/Graphics/SVG/1.1/DTD/svg11.dtd">
<svg version="1.1" id="Layer_1" xmlns="http://www.w3.org/2000/svg" xmlns:xlink="http://www.w3.org/1999/xlink" x="0px" y="0px"
	 width="368.54px" height="110.741px" viewBox="0 0 368.54 110.741" style="enable-background:new 0 0 368.54 110.741;"
	 xml:space="preserve">
<style type="text/css">
<![CDATA[
	.st0{fill:#48D1FB;}
	.st1{fill:#8B8B8B;}
	.st2{fill:#5D5D5D;}
	.st3{fill:#FAFAFA;}
	.st4{fill:none;}
	.st5{fill:#34BCEB;}
	.st6{fill:#35BCEB;}
	.st7{fill:#39BDEB;}
	.st8{fill:#3ABEEC;}
	.st9{fill:#3DBBE8;}
	.st10{fill:#3FBFEC;}
]]>
</style>
<g>
	<polygon class="st4" points="169.184,84.761 169.184,84.76 169.184,84.76 	"/>
	<polygon class="st4" points="169.177,84.745 169.184,84.76 169.184,84.753 	"/>
	<path class="st4" d="M168.494,78.634c0.058,0.297,0.084,0.596,0.098,0.895c0.003-0.011,0.007-0.022,0.011-0.034
		C168.584,79.207,168.554,78.92,168.494,78.634z"/>
	<path class="st4" d="M37.316,90.277c-0.031,0.272-0.042,0.542-0.012,0.8c0.007-0.163,0.012-0.322,0.012-0.475
		C37.316,90.494,37.316,90.386,37.316,90.277z"/>
	<polygon class="st4" points="169.184,84.753 169.186,84.756 169.188,84.751 169.184,84.743 	"/>
	<path d="M262.269,37.206c-0.025-10.327-0.027-20.654-0.109-30.979c-0.01-1.221,0.701-2.731-0.778-3.635
		c-2.798-1.707-9.631,0.476-10.927,3.484c-5.457,12.673-10.893,25.355-16.35,38.028c-7.512,17.438-15.035,34.873-22.859,53.017
		c-7.259-16.889-14.201-33.037-21.141-49.187c-6.105-14.206-12.254-28.393-18.287-42.629c-2.221-5.242-6.632-2.521-9.976-2.648
		c-3.245-0.124-1.527,3.149-1.54,4.729c-0.136,16.829-0.057,33.66-0.037,50.49c4.138,4.774,7.66,9.916,9.53,16.043
		c0-15.217,0-30.436,0-45.653c1.521,0.967,2.003,2.111,2.494,3.253c10.702,24.894,21.477,49.757,32.017,74.719
		c1.365,3.229,3.365,3.687,6.186,3.334c2.697-0.336,5.756,1.268,7.482-2.833c10.967-26.039,22.17-51.978,33.295-77.949
		c-0.025-1.331,0.725-2.079,1.604-0.946c0.561,0.722,0.106,2.229,0.111,3.383c0.095,26.08,0.191,52.161,0.287,78.241
		c1.158,0.021,2.346-0.113,3.472,0.093c4.7,0.857,5.693-1.237,5.558-5.637c-0.299-9.759-0.016-19.536,0.029-29.306
		c-0.021-12.472-0.042-24.943-0.062-37.409C262.268,37.207,262.268,37.207,262.269,37.206z"/>
	<path d="M94.299,71.736c-3.469,0.314-6.989,0.066-10.487,0.066c-6.179,0-12.357,0-19.128,0
		c10.156-15.581,19.282-30.688,29.592-44.94c5.335-7.375,5.071-14.826,4.81-24.021c-1.125,1.735-1.614,2.505-2.119,3.264
		C77.72,35.043,58.472,63.979,39.224,92.916c-0.041,1.156-0.483,2.271-1.59,1.029c-0.521-0.586-0.378-1.809-0.33-2.868
		c-0.029-0.258-0.019-0.527,0.012-0.8c-0.014-24.47-0.021-48.939,0.017-73.409c0.002-1.41-0.594-3.021,0.825-4.186
		c8.146-0.111,16.298-0.456,24.436-0.245c4.811,0.124,3.206-3.064,3.369-5.36c0.174-2.441,0.722-4.763-3.477-4.713
		C42.835,2.598,23.179,2.604,3.528,2.36c-4.313-0.053-3.492,2.431-3.361,4.745c0.128,2.268-1.512,5.575,3.336,5.322
		c6.146-0.319,12.342,0.238,18.477-0.178c4.779-0.325,6.353,0.727,6.293,6.015c-0.324,28.977-0.165,57.958-0.123,86.938
		c0.002,1.411-0.74,3.131,0.708,4.21c2.178,1.622,11.547-0.433,13.024-2.774c4.083-6.47,8.281-12.873,12.151-19.468
		c1.861-3.172,3.896-4.654,7.849-4.521c10.314,0.352,20.661-0.177,30.97,0.244c5.095,0.207,6.771-1.041,6.519-6.359
		C99.18,72.509,98.108,71.391,94.299,71.736z"/>
	<path class="st10" d="M365.128,37.009c-1.482-3.871-2.828-7.951-6.201-10.913c-1.305,1.304-0.923,2.495-0.631,3.561
		c2.551,9.309,2.444,18.807,1.752,28.279c-2.003,27.41-32.976,54.734-66.641,37.815c-18.12-9.106-27.207-29.126-23.068-49.219
		c3.882-18.843,20.368-33.247,39.982-34.964c1.38-0.121,3.53,0.453,3.547-1.684c0.02-2.68,1.133-5.557-0.78-8.072
		c-0.448,2.875,1.062,6.077-1.513,8.625c0.881-2.875,0.481-5.797,0.529-8.695c-19.794-0.291-39.854,13.145-47.755,31.984
		c1.444,2.131,0.69,4.527,0.709,6.786c0.09,10.633,0.07,21.268,0.01,31.9c-0.01,1.751,0.651,3.691-0.899,5.204
		c0.232,0.785,0.364,1.618,0.711,2.349c12.413,26.11,43.994,37.858,70.848,26.372C361.889,95.146,375.31,63.605,365.128,37.009z"/>
	<path class="st10" d="M167.662,72.059c-1.554-4.059-3.601-7.784-6.67-10.926c-0.829-0.849-1.049-2.044-0.727-3.257
		c-6.344-5.02-13.827-6.082-21.571-6.139c-7.479-0.056-14.963-0.171-22.436,0.051c-3.265,0.097-4.255-0.889-4.211-4.178
		c0.174-12.962,0.069-25.928,0.074-38.893c0.002-6.354,0.007-6.357-6.539-6.186c-0.496,0.013-0.99,0.104-1.484,0.158
		c0,33.146,0.082,66.293-0.096,99.438c-0.023,4.357,1.059,5.767,5.547,5.624c10.483-0.334,20.984-0.136,31.477-0.077
		c1.745,0.01,3.719-0.672,5.13,1.081h0c11.779-1.494,22.246-12.395,23.038-23.991c0,0-0.009-0.004-0.01-0.006
		c0,0.001,0,0.001,0,0.001l0-0.001l0,0l0,0c-0.003-0.005-0.004-0.01-0.006-0.015c-1.466-1.618-1.158-3.412-0.585-5.217
		c-0.014-0.299-0.04-0.598-0.098-0.895c0.06,0.286,0.09,0.573,0.109,0.86c0.184-0.576,0.393-1.153,0.58-1.726
		c0,2.323,0,4.648,0,6.975c0.001,0.002,0.002,0.005,0.004,0.008c1.487-3.536,0.652-7.202,0.608-10.829c0-0.001,0-0.002-0.001-0.003
		c0,0.002,0,0.004,0,0.007C168.672,73.775,168.016,72.983,167.662,72.059z M141.84,101.376c-9.566,0-19.132,0-28.698,0
		c0.001-0.166,0.002-0.332,0.003-0.498c9.582,0,19.164,0,28.746,0C141.874,101.044,141.856,101.21,141.84,101.376z M142.022,99.56
		c-8.804,0.308-17.629-0.031-26.441,0.148c-3.047,0.062-3.58-1.249-3.506-3.874c0.149-5.318,0.044-10.643,0.045-15.965
		c0-5.322,0.084-10.646-0.038-15.966c-0.053-2.321,0.674-3.262,3.103-3.233c8.98,0.104,17.972-0.219,26.94,0.129
		c10.176,0.395,18.064,9.33,17.933,19.676C159.929,90.598,152.02,99.211,142.022,99.56z"/>
	<polygon class="st10" points="169.194,84.766 169.188,84.751 169.186,84.756 	"/>
	<path class="st10" d="M160.992,61.133c3.069,3.142,5.116,6.867,6.67,10.926c0.354,0.925,1.01,1.717,2.133,1.867
		c0-0.002,0-0.004,0-0.007c-1.87-6.127-5.392-11.269-9.53-16.043C159.942,59.089,160.163,60.284,160.992,61.133z"/>
	<path class="st8" d="M109.208,108.637c-5.766-0.044-6.085-0.299-6.09-5.8c-0.031-31.792-0.021-63.583-0.004-95.375
		c0-1.646-0.213-3.361,0.983-4.771c-2.529-0.041-1.852,1.897-1.853,3.215c-0.034,33.325,0.017,66.65-0.097,99.976
		c-0.011,3.334,1.388,3.77,4.176,3.742c11.663-0.113,23.328-0.034,34.991-0.072c1.636-0.006,3.357,0.246,4.841-0.794l0,0
		C133.84,108.496,121.523,108.729,109.208,108.637z"/>
	<path class="st8" d="M141.025,107.676c-10.493-0.059-20.994-0.257-31.477,0.077c-4.488,0.143-5.57-1.267-5.547-5.624
		c0.177-33.146,0.096-66.292,0.096-99.438c-1.196,1.41-0.983,3.126-0.983,4.771c-0.017,31.792-0.027,63.583,0.004,95.375
		c0.005,5.501,0.325,5.756,6.09,5.8c12.315,0.092,24.632-0.141,36.948,0.12C144.745,107.004,142.77,107.686,141.025,107.676z"/>
	<path class="st1" d="M252.649,104.181c-0.053-23.616-0.006-47.232-0.105-70.849c-0.006-1.489,1.288-3.655-1.275-4.543
		c1.361,1.776,0.703,3.842,0.708,5.76c0.054,23.383,0.008,46.765,0.101,70.146c0.006,1.572-1.189,3.698,1.193,4.771
		C251.987,107.837,252.653,105.937,252.649,104.181z"/>
	<path class="st1" d="M252.872,27.843c-0.879-1.133-1.629-0.385-1.604,0.946c2.563,0.888,1.27,3.054,1.275,4.543
		c0.1,23.616,0.053,47.232,0.105,70.849c0.004,1.756-0.662,3.656,0.621,5.286c-0.096-26.08-0.192-52.161-0.287-78.241
		C252.979,30.071,253.433,28.564,252.872,27.843z"/>
	<path class="st2" d="M37.61,17.526c-0.039,23.481-0.066,46.963,0.059,70.443c0.003,0.674-0.264,1.507-0.353,2.308
		c0,0.108,0,0.217,0,0.325c0,0.152-0.005,0.312-0.012,0.475c0.09,0.798,0.553,1.486,1.92,1.839
		c-1.816-1.409-0.902-3.392-0.909-5.075c-0.105-25.053-0.121-50.105-0.157-75.158C37.082,14.192,37.613,15.914,37.61,17.526z"/>
	<path class="st2" d="M37.304,91.077c-0.048,1.06-0.191,2.282,0.33,2.868c1.106,1.241,1.549,0.127,1.59-1.029
		C37.856,92.563,37.394,91.875,37.304,91.077z"/>
	<path class="st2" d="M37.333,16.868c-0.038,24.47-0.03,48.939-0.017,73.409c0.089-0.801,0.356-1.634,0.353-2.308
		c-0.125-23.48-0.098-46.962-0.059-70.443c0.002-1.612-0.528-3.334,0.547-4.844C36.739,13.847,37.334,15.458,37.333,16.868z"/>
	<path class="st0" d="M263.939,40.453c-0.002-1.716-0.003-3.432-0.004-5.147c0,0,0-0.001,0-0.001v0
		c-0.555,0.636-1.111,1.271-1.667,1.902c0,0.002,0,0.004,0,0.007c1.137,1.192,1.188,2.71,1.197,4.209
		c0.07,9.655,0.063,19.311,0.004,28.965c-0.01,1.496-0.027,3.019-1.141,4.23c0.545,0.772,1.09,1.545,1.636,2.317
		c-0.001-1.416-0.002-2.833-0.003-4.249C263.545,61.94,263.413,51.195,263.939,40.453z"/>
	<path class="st0" d="M263.466,41.422c-0.01-1.499-0.061-3.017-1.197-4.209c0-0.002,0-0.005,0-0.007
		c-0.001,0-0.001,0.001-0.002,0.002c0.021,12.466,0.041,24.938,0.062,37.409c1.113-1.212,1.131-2.734,1.141-4.23
		C263.529,60.732,263.536,51.077,263.466,41.422z"/>
	<path class="st0" d="M263.962,72.686c-0.008-10.744-0.015-21.488-0.022-32.232C263.413,51.195,263.545,61.94,263.962,72.686z"/>
	<path class="st3" d="M64.995,0.368C64.993,0.245,64.992,0.123,64.991,0C43.794,0,22.598,0,1.401,0
		c0.001,0.123,0.003,0.245,0.004,0.368C22.602,0.368,43.798,0.368,64.995,0.368z"/>
	<path class="st9" d="M264.35,33.727c-0.138,0.526-0.276,1.051-0.414,1.578c0.113,0.165,0.195,0.333,0.279,0.5
		C264.262,35.112,264.297,34.419,264.35,33.727z"/>
	<path class="st9" d="M264.129,76.667c-0.055,0.089-0.098,0.18-0.164,0.268c-0.042,0.261,0.025,0.488,0.204,0.683l0,0v-0.001
		C264.154,77.3,264.144,76.983,264.129,76.667z"/>
	<path class="st9" d="M265.068,72.413c0.061-10.633,0.08-21.268-0.01-31.9c-0.019-2.259,0.735-4.655-0.709-6.786
		c-0.053,0.692-0.088,1.385-0.135,2.078c0.849,1.694,0.321,3.556,0.334,5.317c0.073,10.326,0.062,20.652,0.007,30.979
		c-0.008,1.518,0.46,3.136-0.427,4.566c0.015,0.316,0.025,0.633,0.04,0.949v0.001C265.72,76.104,265.059,74.164,265.068,72.413z"/>
	<path class="st9" d="M263.962,72.686c0.001,1.417,0.002,2.833,0.003,4.249c0.066-0.088,0.109-0.179,0.164-0.268
		C264.07,75.34,264.014,74.013,263.962,72.686z"/>
	<path class="st9" d="M263.939,40.453c0.075-1.549,0.17-3.099,0.275-4.648c-0.084-0.168-0.166-0.336-0.279-0.5c0,0,0,0.001,0,0.001
		C263.937,37.021,263.938,38.737,263.939,40.453z"/>
	<path class="st9" d="M263.962,72.686c0.052,1.327,0.108,2.654,0.167,3.981c0.887-1.431,0.419-3.049,0.427-4.566
		c0.055-10.326,0.066-20.652-0.007-30.979c-0.013-1.762,0.515-3.623-0.334-5.317c-0.105,1.549-0.2,3.099-0.275,4.648
		C263.947,51.198,263.954,61.942,263.962,72.686z"/>
	<path class="st6" d="M312.567,4.019c-0.02,0.681,0.045,1.369,0.101,2.046C312.683,5.392,312.651,4.709,312.567,4.019z"/>
	<path class="st6" d="M313.088,1.812c-0.327-0.023-0.655-0.047-0.983-0.07c0.225,0.763,0.371,1.523,0.463,2.276
		C312.589,3.265,312.714,2.52,313.088,1.812z"/>
	<path class="st6" d="M312.668,6.064c-0.026,1.224-0.198,2.412-0.489,3.532C312.832,8.553,312.772,7.331,312.668,6.064z"/>
	<path class="st6" d="M311.575,10.438c2.574-2.548,1.064-5.75,1.513-8.625c-0.374,0.708-0.499,1.452-0.521,2.206
		c0.084,0.69,0.115,1.373,0.101,2.046c0.104,1.267,0.164,2.489-0.489,3.532c0.291-1.121,0.463-2.309,0.489-3.532
		c-0.056-0.677-0.12-1.365-0.101-2.046c-0.092-0.753-0.238-1.514-0.463-2.276C312.057,4.641,312.456,7.562,311.575,10.438z"/>
	<path class="st7" d="M113.142,101.376c9.566,0,19.132,0,28.698,0c0.017-0.166,0.034-0.332,0.051-0.498c-9.582,0-19.164,0-28.746,0
		C113.144,101.044,113.143,101.21,113.142,101.376z"/>
	<polygon class="st5" points="169.184,84.753 169.184,84.76 169.184,84.76 169.184,84.76 169.186,84.756 	"/>
	<path class="st5" d="M169.184,84.743c-0.042-0.073-0.066-0.147-0.104-0.22c0.035,0.074,0.059,0.147,0.098,0.222
		c0.002,0.003,0.004,0.005,0.006,0.008C169.184,84.75,169.184,84.746,169.184,84.743z"/>
	<path class="st5" d="M169.08,84.523c-0.792-1.647-0.365-3.351-0.476-5.029c-0.004,0.012-0.008,0.023-0.011,0.034
		C168.672,81.197,168.239,82.891,169.08,84.523z"/>
	<polygon class="st5" points="169.184,84.76 169.184,84.76 169.184,84.76 	"/>
	<polygon class="st5" points="169.184,84.76 169.194,84.766 169.186,84.756 	"/>
	<path class="st5" d="M168.592,79.528c-0.573,1.805-0.881,3.599,0.585,5.217c-0.039-0.074-0.062-0.147-0.098-0.222
		C168.239,82.891,168.672,81.197,168.592,79.528z"/>
	<path class="st5" d="M169.08,84.523c0.038,0.072,0.062,0.146,0.104,0.22c0-2.326,0-4.651,0-6.975
		c-0.187,0.572-0.396,1.149-0.58,1.726C168.714,81.173,168.288,82.876,169.08,84.523z"/>
</g>
</svg>
