<?xml version="1.0" encoding="utf-8"?>
<!-- Generator: Adobe Illustrator 16.0.0, SVG Export Plug-In . SVG Version: 6.00 Build 0)  -->
<!DOCTYPE svg PUBLIC "-//W3C//DTD SVG 1.1//EN" "http://www.w3.org/Graphics/SVG/1.1/DTD/svg11.dtd">
<svg version="1.1" id="Layer_1" xmlns="http://www.w3.org/2000/svg" xmlns:xlink="http://www.w3.org/1999/xlink" x="0px" y="0px"
	 width="917.921px" height="309.732px" viewBox="0 0 917.921 309.732" enable-background="new 0 0 917.921 309.732"
	 xml:space="preserve">
<g>
	<path fill="none" stroke="#FFFFFF" stroke-miterlimit="10" d="M457.568,116.892c0.74,0,1.111,0.277,1.111,0.833v0.417
		c0,0.833-0.371,1.25-1.111,1.25h-0.139c-2.409-0.187-4.676-0.973-6.805-2.361c-2.131-1.389-3.981-3.426-5.555-6.11
		c-1.575-2.686-2.777-5.763-3.611-9.234c-0.833-3.472-1.25-7.197-1.25-11.179V41.902l-26.524,63.741
		c0,0.187-0.093,0.277-0.278,0.277c-0.187,0.187-0.325,0.278-0.417,0.278l-0.139,0.139h-0.278c-0.556,0-0.927-0.23-1.111-0.694
		L372.72,11.769v92.208h6.11c0.833,0,1.25,0.371,1.25,1.111c0,0.833-0.417,1.25-1.25,1.25h-26.663c-0.833,0-1.25-0.417-1.25-1.25
		c0-0.74,0.417-1.111,1.25-1.111h5.971V6.908h-5.971c-0.833,0-1.25-0.417-1.25-1.25c0-0.74,0.417-1.111,1.25-1.111h7.082
		l0.139-0.139h12.22l0.139,0.139h7.083c0.833,0,1.25,0.371,1.25,1.111c0,0.833-0.417,1.25-1.25,1.25h-5.416l33.051,80.266
		l33.051-80.266h-4.86c-0.742,0-1.111-0.417-1.111-1.25s0.369-1.25,1.111-1.25h13.331c0.833,0,1.25,0.417,1.25,1.25
		s-0.417,1.25-1.25,1.25h-5.416v83.599c0,3.704,0.369,7.151,1.111,10.346c0.74,3.193,1.781,5.972,3.125,8.332
		c1.341,2.36,2.938,4.212,4.791,5.555C453.448,116.08,455.438,116.799,457.568,116.892z M370.359,6.908H360.5v97.068h9.859V6.908z
		 M369.526,7.741v95.402h-8.193V7.741H369.526z M365.499,14.268l-0.972,41.105l0.972,41.244l0.972-41.244L365.499,14.268z
		 M440.21,11.769l-32.495,78.6l4.86,11.665l27.635-66.519V11.769z M408.687,90.368l30.69-74.572v19.58l-26.801,64.435
		L408.687,90.368z M425.768,55.373l-13.47,34.855l15.553-34.855l8.193-22.357L425.768,55.373z"/>
	<path fill="none" stroke="#FFFFFF" stroke-miterlimit="10" d="M530.138,68.685c0.833,0,1.25,0.371,1.25,1.11
		c0,0.834-0.417,1.25-1.25,1.25c-1.389,0-2.777,0.44-4.166,1.319c-1.389,0.881-2.663,2.062-3.819,3.541
		c-1.158,1.482-2.131,3.218-2.916,5.208c-0.787,1.992-1.319,4.097-1.597,6.318c-0.093,0.465-0.14,0.881-0.14,1.25v2.222
		c0,4.353,1.064,7.731,3.195,10.138c1.389,1.666,3.055,2.499,4.998,2.499h1.25c0.834,0,1.25,0.371,1.25,1.111
		c0,0.833-0.416,1.25-1.25,1.25h-64.157c-0.833,0-1.25-0.417-1.25-1.25c0-0.74,0.417-1.111,1.25-1.111h5.971V6.472h-5.971
		c-0.833,0-1.25-0.417-1.25-1.25s0.417-1.25,1.25-1.25h59.019c0.556-0.556,1.132-1.087,1.735-1.597
		c0.602-0.508,1.227-0.994,1.875-1.458c0.277-0.278,0.556-0.417,0.834-0.417c0.368,0,0.646,0.232,0.832,0.694
		c0.278,0.277,0.417,0.556,0.417,0.833c0,0.371-0.231,0.649-0.694,0.833c-1.297,1.021-2.5,2.083-3.61,3.194h-0.14
		c-3.519,3.704-5.879,7.963-7.082,12.776c-0.186,1.02-0.277,1.991-0.277,2.916c0,2.408,0.74,4.582,2.222,6.526
		c1.111,1.389,2.5,2.361,4.167,2.917c0-0.185-0.024-0.348-0.07-0.486c-0.047-0.139-0.069-0.3-0.069-0.486
		c0-1.111,0.417-2.083,1.25-2.916s1.806-1.25,2.916-1.25c1.202,0,2.198,0.417,2.985,1.25c0.786,0.833,1.181,1.805,1.181,2.916
		s-0.371,2.062-1.11,2.847c-0.742,0.788-1.621,1.229-2.639,1.319h-0.556c-4.259-0.185-7.547-1.712-9.86-4.582
		c-1.853-2.313-2.777-5.045-2.777-8.193c0-1.018,0.092-2.083,0.278-3.194c0-3.239-1.11-5.993-3.333-8.263
		c-2.222-2.268-4.953-3.493-8.193-3.68h-18.748v29.856c0,2.222,0.786,4.097,2.361,5.624c1.573,1.527,3.424,2.291,5.555,2.291
		c1.295,0,2.452-0.277,3.472-0.833h0.139c3.333-1.666,6.989-2.499,10.971-2.499c1.111,0,2.059,0.395,2.847,1.18
		c0.785,0.788,1.181,1.784,1.181,2.986c0,1.11-0.396,2.061-1.181,2.847c-0.788,0.787-1.735,1.18-2.847,1.18
		c-1.205,0-2.201-0.393-2.986-1.18c-0.788-0.786-1.181-1.736-1.181-2.847c0-0.646,0.046-1.111,0.139-1.389
		c-2.593,0.464-5.023,1.343-7.291,2.638c-2.27,1.298-4.236,2.917-5.902,4.86c-1.667,1.944-2.964,4.145-3.889,6.597
		c-0.926,2.454-1.389,5.068-1.389,7.846v37.911h18.192c1.757,0,3.448-0.323,5.069-0.972c1.619-0.646,3.031-1.549,4.235-2.708
		c1.202-1.156,2.175-2.5,2.916-4.027c0.74-1.527,1.157-3.17,1.25-4.93c0-0.646,0.021-1.271,0.069-1.875
		c0.046-0.601,0.115-1.226,0.209-1.874c0.277-2.591,0.902-5.021,1.874-7.291c0.972-2.268,2.129-4.235,3.472-5.901
		c1.342-1.667,2.823-2.962,4.443-3.889C526.688,69.148,528.378,68.685,530.138,68.685z M480.979,6.472h-9.859v97.068h9.859V6.472z
		 M480.146,7.305v95.402h-8.193V7.305H480.146z M475.146,54.937l0.972,41.244l0.972-41.244l-0.972-41.105L475.146,54.937z
		 M483.339,54.937c1.758-3.424,3.979-6.201,6.666-8.332c-2.778-0.462-5-1.667-6.666-3.61V54.937z M484.173,44.938
		c1.295,1.021,2.638,1.715,4.027,2.083c-0.742,0.742-1.458,1.506-2.152,2.292c-0.694,0.787-1.319,1.645-1.875,2.569V44.938z
		 M505.836,43.271c-1.205,0-1.806,0.604-1.806,1.806c0,0.464,0.185,0.856,0.556,1.18c0.369,0.326,0.785,0.486,1.25,0.486
		c0.462,0,0.854-0.16,1.18-0.486c0.324-0.323,0.486-0.716,0.486-1.18c0-0.463-0.162-0.879-0.486-1.25
		C506.691,43.458,506.298,43.271,505.836,43.271z M505.836,45.91c-0.648,0-0.973-0.278-0.973-0.833c0-0.646,0.324-0.973,0.973-0.973
		c0.555,0,0.833,0.326,0.833,0.973C506.669,45.632,506.391,45.91,505.836,45.91z M509.585,6.472
		c2.685,1.666,4.535,4.027,5.555,7.082c1.019-2.406,2.5-4.768,4.444-7.082H509.585z M518.889,102.707
		c-0.648-0.739-1.228-1.597-1.735-2.569c-0.51-0.972-0.902-2.059-1.181-3.263c-1.389,2.686-3.381,4.908-5.971,6.665h9.721
		L518.889,102.707z M515.28,11.609c-0.928-1.851-2.038-3.285-3.334-4.305h5.972c-0.464,0.742-0.927,1.458-1.389,2.152
		C516.065,10.151,515.648,10.869,515.28,11.609z M512.502,102.707c1.389-1.202,2.451-2.452,3.193-3.749
		c0.277,0.742,0.602,1.412,0.973,2.014c0.368,0.603,0.785,1.18,1.249,1.735H512.502z M526.111,28.552
		c-1.11,0-1.667,0.555-1.667,1.666c0,1.02,0.557,1.621,1.667,1.806h0.14c0.461,0,0.854-0.185,1.18-0.556
		c0.323-0.369,0.486-0.785,0.486-1.25C527.917,29.106,527.313,28.552,526.111,28.552z M526.111,31.19
		c-0.556,0-0.833-0.324-0.833-0.973c0-0.646,0.277-0.972,0.833-0.972c0.646,0,0.972,0.325,0.972,0.972
		c0,0.648-0.277,0.973-0.832,0.973H526.111z"/>
	<path fill="none" stroke="#FFFFFF" stroke-miterlimit="10" d="M602.904,75.072c0,1.854-0.139,3.635-0.416,5.347
		c-0.277,1.714-0.694,3.311-1.25,4.791c-1.666,4.908-4.491,9.165-8.471,12.775c-1.76,1.575-4.006,2.964-6.735,4.166
		c-2.731,1.205-5.718,2.177-8.957,2.917c-0.927,0.187-1.829,0.347-2.708,0.485c-0.881,0.139-1.829,0.209-2.847,0.209h-0.139
		c-0.187,0.093-0.464,0.139-0.833,0.139h-3.194c-5.741-0.092-11.157-1.504-16.247-4.235c-5.093-2.729-9.63-6.643-13.609-11.734
		c-0.742-0.925-1.413-1.852-2.014-2.777c-0.604-0.925-1.228-1.896-1.875-2.917c-0.093-0.184-0.139-0.416-0.139-0.694
		c0-0.368,0.091-0.646,0.278-0.833c0.277-0.277,0.555-0.416,0.832-0.416c0.369,0,0.695,0.139,0.973,0.416
		c1.202,1.204,2.823,1.806,4.86,1.806h0.416c1.574-0.092,3.146-0.556,4.723-1.389c1.572-0.833,3.146-1.99,4.721-3.472
		c0.092-0.092,0.161-0.185,0.209-0.278c0.045-0.091,0.16-0.185,0.347-0.277c0-0.091,0.046-0.139,0.14-0.139
		c0.277-0.278,0.555-0.577,0.832-0.903c0.278-0.323,0.557-0.67,0.834-1.041c2.222-2.868,3.749-6.017,4.582-9.443
		c0.186-0.556,0.508-0.833,0.973-0.833h0.416c0.646,0.187,0.973,0.51,0.973,0.972v0.417c-0.834,3.61-2.547,7.082-5.139,10.415
		c-0.742,1.111-1.574,2.038-2.499,2.777c-2.222,2.687-3.333,5.648-3.333,8.888c0,1.854,0.348,3.589,1.041,5.208
		c0.695,1.62,1.688,3.078,2.986,4.374c2.406,1.204,4.86,2.131,7.359,2.777c2.5,0.648,5.091,0.972,7.777,0.972h1.389
		c0.277-0.091,0.555-0.139,0.833-0.139c0.185,0,0.417-0.045,0.694-0.139c3.239-0.462,6.132-1.504,8.68-3.125
		c2.545-1.618,4.559-3.68,6.041-6.18c1.85-2.961,2.777-5.923,2.777-8.887c0-2.962-0.882-5.739-2.639-8.332V76.6l-0.278-0.277
		c-0.742-1.111-1.667-2.174-2.777-3.194h-0.139c-2.315-2.684-7.314-5.184-14.998-7.499c-2.687-0.833-5.763-1.943-9.235-3.332
		c-3.471-1.389-6.828-3.285-10.067-5.694c-7.87-6.017-11.804-13.422-11.804-22.219v-2.083c0.277-5.277,1.852-10.09,4.722-14.442
		c2.222-3.518,5.045-6.479,8.471-8.888c3.61-2.312,7.499-3.84,11.665-4.582c0.277,0,0.463-0.046,0.556-0.14h0.556
		c0.462-0.091,0.972-0.139,1.527-0.139h1.527c5.739,0,10.832,1.715,15.275,5.139c1.018-0.925,2.174-1.806,3.473-2.639
		c0.277-0.091,0.507-0.139,0.693-0.139c0.369,0,0.695,0.187,0.973,0.555c0.091,0.278,0.139,0.511,0.139,0.694
		c0,0.465-0.232,0.788-0.694,0.973c-2.409,1.481-4.329,3.472-5.763,5.972c-1.438,2.499-2.152,5.186-2.152,8.054
		c0,2.222,0.416,4.329,1.249,6.318c0.833,1.992,1.989,3.729,3.472,5.208c1.48,1.481,3.216,2.662,5.208,3.541
		c1.989,0.881,4.097,1.319,6.318,1.319c0.833,0,1.25,0.371,1.25,1.111c0,0.833-0.417,1.249-1.25,1.249
		c-2.593,0-5.022-0.485-7.29-1.458c-2.27-0.972-4.26-2.312-5.973-4.027c-1.713-1.712-3.055-3.701-4.026-5.971
		c-0.972-2.268-1.458-4.698-1.458-7.291c0-0.462,0.021-0.854,0.069-1.18c0.046-0.324,0.114-0.717,0.208-1.181
		c-0.094-0.092-0.139-0.185-0.139-0.278c0-3.701-1.273-6.826-3.818-9.373c-2.548-2.545-5.764-3.864-9.652-3.958
		c-2.314,0.465-4.491,1.159-6.526,2.083c-1.667,0.742-3.333,2.037-4.999,3.889c-2.5,2.964-3.843,6.481-4.027,10.554
		c0,1.298,0.139,2.5,0.416,3.61c0.369,2.131,1.157,4.075,2.361,5.833l0.139,0.139c1.758,2.222,4.049,4.166,6.874,5.832
		c2.823,1.667,6.087,3.01,9.79,4.027c0.925,0.187,1.827,0.417,2.708,0.694c0.879,0.278,1.735,0.51,2.569,0.694
		c5.555,1.76,10.276,3.61,14.164,5.555c3.889,1.944,7.174,4.121,9.86,6.527c2.499,2.408,4.489,5.276,5.972,8.609
		c1.479,3.333,2.221,6.714,2.221,10.138V75.072z M539.441,88.543c2.5,3.241,5.23,5.926,8.193,8.054
		c-0.926-1.851-1.389-3.979-1.389-6.388c0-1.851,0.278-3.562,0.834-5.138c-1.944,1.02-3.982,1.62-6.11,1.805h-0.694
		c-1.02,0-1.76-0.045-2.223-0.139c0.186,0.277,0.394,0.579,0.625,0.902C538.908,87.966,539.164,88.265,539.441,88.543z
		 M599.016,84.516c0.368-1.018,0.716-2.313,1.042-3.889c0.322-1.573,0.485-3.424,0.485-5.555c0-3.146-0.673-6.249-2.013-9.304
		c-1.344-3.056-3.173-5.646-5.486-7.777c-2.408-2.312-5.484-4.396-9.234-6.249c-3.75-1.851-8.401-3.61-13.957-5.276
		c-0.741-0.278-1.527-0.532-2.359-0.764c-0.834-0.23-1.715-0.486-2.639-0.765c-3.982-1.018-7.5-2.43-10.555-4.235
		c-3.055-1.805-5.555-3.91-7.498-6.318l-0.14-0.277c-1.389-1.852-2.315-4.118-2.777-6.805c-0.278-1.202-0.417-2.591-0.417-4.166
		c0.092-2.129,0.508-4.258,1.25-6.388c-0.371,0.464-0.693,0.881-0.972,1.249c-0.278,0.371-0.556,0.788-0.833,1.25
		c-2.594,3.889-3.982,8.287-4.166,13.192l-0.139,1.528v0.139c0,4.999,1.18,9.234,3.541,12.706c2.36,3.472,5.16,6.343,8.401,8.61
		c3.239,2.27,6.503,4.005,9.79,5.207c3.285,1.204,5.854,2.083,7.707,2.639c8.055,2.5,13.423,5.231,16.109,8.193
		c1.201,1.11,2.221,2.27,3.055,3.472l0.277,0.277l0.139,0.14c1.945,2.964,2.916,6.157,2.916,9.581c0,3.52-1.02,6.943-3.055,10.276
		c-1.297,2.315-3.103,4.306-5.416,5.972c3.98-1.296,7.035-2.962,9.166-4.999c1.758-1.573,3.309-3.354,4.652-5.347
		C597.232,88.844,598.274,86.737,599.016,84.516z M592.49,58.547c2.222,2.131,3.979,4.676,5.276,7.638
		c1.296,2.964,1.944,5.926,1.944,8.888c0,2.131-0.162,3.937-0.486,5.416c-0.325,1.482-0.672,2.731-1.041,3.749
		c-0.742,2.131-1.736,4.166-2.986,6.11s-2.756,3.704-4.513,5.277c-0.649,0.556-1.367,1.089-2.152,1.597
		c-0.788,0.51-1.646,0.996-2.569,1.458c0.463-0.462,0.879-0.948,1.25-1.458c0.369-0.508,0.694-1.041,0.973-1.597
		c2.128-3.518,3.193-7.082,3.193-10.693c0-3.517-1.065-6.85-3.193-9.998v-0.139l-0.278-0.278c-0.464-0.739-0.95-1.389-1.458-1.944
		c-0.51-0.555-1.09-1.156-1.736-1.805c-2.777-2.962-8.24-5.693-16.387-8.193c-1.853-0.556-4.374-1.435-7.568-2.639
		c-3.193-1.202-6.387-2.893-9.582-5.068c-3.193-2.175-5.949-4.952-8.262-8.332c-2.315-3.379-3.473-7.521-3.473-12.429v-1.667
		c0.092-3.888,1.25-7.729,3.473-11.525c-0.188,0.926-0.277,1.666-0.277,2.222c0,1.481,0.139,2.964,0.416,4.443
		c0.555,2.687,1.527,5.047,2.916,7.083h0.139l0.139,0.139c1.945,2.499,4.466,4.676,7.568,6.526
		c3.102,1.854,6.688,3.333,10.763,4.444c0.925,0.187,1.806,0.416,2.639,0.694c0.833,0.277,1.667,0.555,2.499,0.833
		c5.369,1.575,9.906,3.287,13.609,5.138C587.026,54.29,590.081,56.325,592.49,58.547z M545.83,86.46
		c-0.277,1.297-0.416,2.547-0.416,3.749c0,1.575,0.184,2.916,0.555,4.027c-1.02-0.925-2.037-1.896-3.055-2.916
		c-1.02-1.018-1.992-2.129-2.916-3.333l-0.139-0.278h1.11C542.542,87.618,544.164,87.202,545.83,86.46z M593.323,88.82
		c0.925-2.777,1.389-5.601,1.389-8.471v-1.389c-0.187-2.777-1.021-5.809-2.5-9.096c-1.481-3.285-4.214-6.364-8.192-9.235
		c-1.576-1.11-3.427-2.174-5.556-3.193c-0.093-0.092-0.187-0.14-0.277-0.14c-0.833-0.462-1.69-0.854-2.569-1.18
		c-0.881-0.323-1.829-0.717-2.847-1.181c-0.093,0-0.927-0.23-2.499-0.694c-1.576-0.462-3.496-1.111-5.764-1.944
		c-2.27-0.833-4.699-1.851-7.291-3.055c-2.592-1.202-4.999-2.569-7.221-4.097c-2.223-1.527-4.075-3.17-5.555-4.93
		c-1.482-1.758-2.27-3.656-2.361-5.694c0.092,1.944,0.695,3.773,1.806,5.485c1.11,1.715,2.499,3.312,4.166,4.791
		c1.667,1.482,3.493,2.825,5.485,4.027c1.99,1.204,3.865,2.246,5.624,3.125c1.758,0.881,3.264,1.575,4.514,2.083
		c1.249,0.51,2.06,0.812,2.431,0.902c0.924,0.371,1.989,0.694,3.193,0.972c1.48,0.465,2.893,0.973,4.235,1.528
		c1.341,0.555,2.66,1.11,3.958,1.666c4.072,1.944,7.545,4.353,10.415,7.221c1.202,1.205,2.313,2.569,3.333,4.097
		c1.018,1.528,1.826,3.242,2.43,5.139c0.602,1.898,0.902,3.912,0.902,6.041C594.572,83.821,594.156,86.229,593.323,88.82z
		 M578.88,11.054c-2.5-1.943-5.324-3.285-8.471-4.027c2.961,2.038,4.999,4.677,6.109,7.916
		C576.982,13.74,577.769,12.442,578.88,11.054z M577.769,11.193c-0.187,0.277-0.395,0.579-0.625,0.902
		c-0.232,0.325-0.439,0.625-0.625,0.902c-0.371-0.74-0.764-1.435-1.18-2.083c-0.417-0.646-0.902-1.25-1.459-1.805
		C575.176,9.665,576.472,10.359,577.769,11.193z"/>
	<g>
		<g>
			<path fill="none" stroke="#355AA9" stroke-width="0.8504" stroke-miterlimit="10" d="M148.453,184.653
				c-0.854-24.036,51.384-41.663,68.156-42.197c-7.371-0.213-24.463-5.769-24.891-16.665c-0.748-20.297,41.556-40.7,63.668-40.7
				c10.469,0,21.793,7.371,22.22,16.985c0.213,6.089-13.995,18.374-25.532,23.395c-0.427,0.214-1.496-0.106-0.961-0.641
				c8.333-8.012,18.802-21.899,18.588-28.31c-0.107-3.525-1.816-5.981-8.653-5.981c-21.472,0-58.969,23.501-58.969,40.06
				c0,3.418,5.555,8.332,21.793,9.935c3.632-0.747,16.131-4.914,22.006-4.914c1.602,0,2.991,0.214,2.991,1.176
				c0.106,2.67-4.38,9.935-11.324,9.935c-6.517,0-11.965-1.923-15.597-2.243c-37.069,8.76-63.455,30.659-63.455,47.965
				c0,5.876,5.234,10.79,16.131,10.79c34.932,0,77.983-35.253,103.194-58.328c1.603-1.495,1.282,0.748,0.641,1.389
				c-21.579,22.861-62.494,63.562-91.123,64.631C172.81,211.467,149.308,202.707,148.453,184.653z"/>
			<path fill="none" stroke="#355AA9" stroke-width="0.8504" stroke-miterlimit="10" d="M280.483,158.267
				c-4.166,3.739-8.226,7.799-12.285,12.179c-2.671,2.777-10.042,11.751-10.255,15.917c-0.107,1.282,0.32,2.029,0.748,2.243
				c-0.427,0.214-4.166-0.32-6.837-2.029c-1.923-1.282-2.671-2.671-2.777-3.846c-0.321-4.06,11.003-13.567,24.784-23.822
				l6.623-4.914c0-6.196,0-11.858-0.106-14.956c-0.321-4.166-1.709-7.478-3.525-7.051c-0.214,0,0.427-1.603,3.846-1.282
				c4.7,0.428,8.333,2.351,9.401,3.846c0.427,0.534,0.641,2.457,0.641,5.448c0,0.534-0.106,3.205-0.106,6.73
				c0.534-0.32,1.068-0.748,1.602-1.175c7.051-5.128,11.965-8.439,16.772-11.858c4.06-2.991,8.76-5.875,10.148-5.875
				c2.35,0,4.594,1.709,5.341,3.952c1.175,3.953,0,8.439-2.457,10.896c0.107-1.068-0.213-2.243-0.854-3.205
				c-0.748-1.175-2.991-2.243-5.875-1.923c-6.41,0.748-17.092,7.479-24.677,12.819c-0.107,11.431,0.213,27.989,2.991,27.989
				c2.351,0,17.733-14.529,32.155-28.416c0.748-0.748,1.496,0.106,0.961,0.854c-2.351,2.991-8.012,9.614-14.422,16.237
				c-6.944,7.051-17.52,19.229-20.938,19.229c-3.205,0-7.371-2.457-8.546-5.556C281.124,176.214,280.697,167.134,280.483,158.267z"
				/>
			<path fill="none" stroke="#355AA9" stroke-width="0.8504" stroke-miterlimit="10" d="M376.625,150.575
				c-2.03,4.594-5.341,9.614-9.508,14.208c-8.653,9.508-23.608,21.686-37.816,21.686c-3.525,0-9.401-2.67-12.392-6.623
				c-11.537,18.802-67.901,123.276-62.881,129.259c0,1.496-12.285-5.555-9.507-13.032c5.021-13.247,57.967-112.915,66.94-126.269
				c6.517-9.614,17.84-25.211,22.006-31.406c2.884-4.273,4.167-8.227,2.244-9.188c-0.107,0,0.854-0.854,3.525,1.389
				c1.175,1.068,3.205,3.418,4.701,5.662c6.303-4.594,13.14-7.265,20.083-7.265c6.41,0,14.849,6.837,14.849,12.605
				c0,2.03-0.534,4.273-1.389,6.73c4.487-0.534,11.003-1.068,14.208-1.282c0.641,0,1.068,1.389,0.107,1.496
				C387.627,148.973,380.15,150.041,376.625,150.575z M361.989,153.887c-13.14,3.632-19.015,6.41-23.822,8.974
				c-13.354,7.051-18.375,14.208-18.375,15.811s1.282,2.029,2.671,2.029C335.389,180.7,350.666,167.134,361.989,153.887z
				 M363.164,150.361l1.816-0.32c3.739-5.234,6.089-10.148,6.089-13.888c0-2.029-1.816-3.525-4.487-3.525
				c-4.059,0-11.003,3.633-17.092,8.013c-6.516,4.7-12.605,11.217-20.617,21.365C341.158,155.062,352.054,152.604,363.164,150.361z"
				/>
			<path fill="none" stroke="#355AA9" stroke-width="0.8504" stroke-miterlimit="10" d="M421.701,128.996
				c6.516,0,12.392,6.623,12.392,12.071c0,5.342-26.493,22.968-46.042,23.075c-4.06,5.661-5.555,10.683-5.769,12.926
				c-0.106,1.603,1.068,2.243,2.778,2.243c2.884,0.107,5.769-1.068,7.264-1.709c11.537-4.914,29.377-14.422,45.508-27.668
				c0.427-0.32,1.495,0.534,1.068,0.961c-14.635,15.597-41.235,35.36-51.917,35.36c-5.128,0-13.888-8.227-13.995-13.461
				c-0.106-3.846,1.923-8.546,5.128-13.354c5.448-8.118,15.169-16.985,23.609-22.434
				C409.202,132.201,416.253,128.996,421.701,128.996z M390.294,161.364c8.546-1.709,19.656-8.438,27.027-13.887
				c7.798-5.769,10.789-10.362,10.789-11.645c0-0.961-0.641-1.175-1.389-1.175C418.176,134.658,401.083,148.866,390.294,161.364z
				 M406.104,123.762c-0.641,0-0.321-1.175,0.534-1.495c8.439-2.778,21.366-9.615,27.668-16.772
				c1.389-1.495,1.709-2.671,1.068-3.846c-0.107-0.106,0.213-0.106,0.427,0c2.243,1.175,3.098,3.846,3.098,6.517
				c0,1.709-0.427,6.409-2.884,7.691C427.256,120.45,410.164,123.655,406.104,123.762z"/>
			<path fill="none" stroke="#355AA9" stroke-width="0.8504" stroke-miterlimit="10" d="M430.777,177.709
				c-2.029,3.739-2.67,6.196-2.35,6.73c0.748,0.641-0.213,1.068-1.389,0.854s-6.944-6.623-5.875-9.828
				c0.641-1.923,2.03-4.38,4.06-7.478l5.555-8.226c4.38-6.41,11.858-17.093,14.529-21.152c2.67-4.166,4.166-8.226,2.243-9.187
				c-0.107,0,0.854-0.854,3.525,1.389c2.136,1.815,5.875,6.943,5.769,8.439c0,1.281-4.594,7.264-10.042,14.528
				c2.67-2.991,5.555-5.876,8.653-8.76c6.089-5.448,18.695-16.238,23.715-17.307c2.244-0.427,5.875,4.273,5.555,9.401
				c-0.107,1.389-0.641,4.7-2.137,6.089c0.107-1.068-0.32-2.243-0.961-3.205c-0.854-1.175-3.098-2.243-5.982-1.923
				c-6.517,0.748-13.14,5.128-20.938,11.751C443.383,159.335,435.157,169.591,430.777,177.709z"/>
			<path fill="none" stroke="#355AA9" stroke-width="0.8504" stroke-miterlimit="10" d="M491.664,138.61
				c2.671-4.166,4.167-8.226,2.244-9.187c-0.107,0,0.854-0.854,3.525,1.389c2.137,1.815,5.662,6.943,5.555,8.439
				c0,1.709-6.837,9.721-14.956,21.151c-5.341,7.585-9.935,15.276-9.935,17.413c0,0.32,0.107,0.534,0.534,0.534
				c2.243,0,20.297-14.636,34.505-28.416c0.748-0.748,1.603,0,1.068,0.747c-2.35,3.099-7.478,8.974-14.528,16.345
				c-7.051,7.371-19.763,19.229-22.968,19.229c-1.496,0-3.098-0.855-4.701-2.244c-2.563-2.243-4.7-5.234-4.593-7.264
				c0-0.534,0.213-1.176,0.427-1.71C471.26,166.065,484.293,149.827,491.664,138.61z M501.919,122.8
				c3.846-7.264,6.41-13.887,6.41-18.267c0-1.176-0.534-2.244-1.603-2.671c0,0,0.961-0.748,4.06,1.282
				c3.739,2.563,6.624,7.905,6.517,9.507c0,0.214-0.107,0.321-0.321,0.642c-2.029,2.884-12.392,10.683-12.712,10.896
				C502.561,125.257,501.599,123.441,501.919,122.8z"/>
			<path fill="none" stroke="#355AA9" stroke-width="0.8504" stroke-miterlimit="10" d="M548.494,128.996
				c6.517,0,12.392,6.623,12.392,12.071c0,5.342-26.493,22.968-46.042,23.075c-4.059,5.661-5.555,10.683-5.769,12.926
				c-0.106,1.603,1.068,2.243,2.778,2.243c5.662,0,15.597-5.021,22.113-8.546c9.615-5.128,21.579-12.605,31.514-20.831
				c0.428-0.32,1.496,0.534,1.068,0.961c-14.635,15.597-42.09,35.36-52.772,35.36c-5.128,0-13.888-8.227-13.995-13.461
				c-0.106-3.846,1.923-8.546,5.128-13.354c5.448-8.118,15.169-16.985,23.608-22.434
				C535.995,132.201,543.045,128.996,548.494,128.996z M517.086,161.364c8.546-1.709,19.656-8.438,27.027-13.887
				c7.799-5.769,10.789-10.362,10.789-11.645c0-0.961-0.641-1.175-1.389-1.175C544.968,134.658,527.876,148.866,517.086,161.364z"/>
			<path fill="none" stroke="#355AA9" stroke-width="0.8504" stroke-miterlimit="10" d="M602.864,159.869
				c-5.982,8.226-10.789,15.703-10.896,17.947c0,0.32,0.107,0.534,0.535,0.534c2.35,0,20.082-14.529,34.504-28.416
				c0.748-0.748,1.496,0.106,0.963,0.854c-2.352,2.991-8.014,9.614-14.422,16.237c-6.945,7.051-19.551,19.229-22.969,19.229
				c-4.059,0-9.721-7.051-9.4-11.11c0-0.32,0.107-0.748,0.213-1.068c0.748-2.137,4.914-9.188,13.889-21.579
				c5.02-6.943,13.354-16.985,13.354-17.306c0-0.214-0.215-0.214-0.215-0.214c-0.748,0-12.498,5.555-25.531,17.947
				c-10.256,9.721-28.309,27.774-27.348,31.086c0.107,0.214,0.214,0.428,0.428,0.428c0.961,0.32-0.214,1.068-1.389,0.854
				c-1.176-0.214-6.196-6.623-5.662-9.828c1.068-5.982,15.918-23.929,24.357-36.855c2.67-4.166,4.166-8.226,2.242-9.187
				c-0.107,0,0.855-0.854,3.525,1.389c2.137,1.815,5.662,6.943,5.555,8.439c0,2.136-11.645,16.237-20.189,28.202
				c4.699-5.662,10.789-11.858,16.236-17.199c4.488-4.38,24.037-21.365,28.738-21.365c1.389,0,2.67,1.068,3.846,2.243
				c2.35,2.457,5.66,7.585,5.555,8.866c0,0.214-0.107,0.428-0.215,0.642C613.333,146.836,609.594,150.575,602.864,159.869z"/>
			<path fill="none" stroke="#355AA9" stroke-width="0.8504" stroke-miterlimit="10" d="M634.374,157.198
				c-7.584,8.974-10.896,16.238-11.109,19.442c-0.107,1.603,1.068,2.671,2.777,2.671c2.885,0.107,6.73-1.495,8.227-2.137
				c11.537-4.914,28.094-15.062,41.875-27.24c0.428-0.32,1.496,0.534,1.068,0.961c-13.461,15.276-39.098,35.36-49.781,35.36
				c-4.166,0-13.566-8.013-13.674-13.247c-0.32-9.935,13.033-25.211,26.279-34.825c7.906-5.662,15.062-8.439,21.365-9.294
				c0.961-0.107,1.176-0.107,1.281-0.107c5.982,0,10.896,5.556,10.896,9.828c0,2.777-8.865,10.47-12.178,11.537
				c-0.32,0.107-0.32-0.213-0.107-0.533c2.137-3.099,8.334-11.11,8.334-13.247c0-1.282-0.855-2.029-2.031-2.029
				C659.264,134.338,644.202,145.555,634.374,157.198z"/>
			<path fill="none" stroke="#355AA9" stroke-width="0.8504" stroke-miterlimit="10" d="M711.499,128.996
				c6.518,0,12.393,6.623,12.393,12.071c0,5.342-26.492,22.968-46.043,23.075c-4.059,5.661-5.555,10.683-5.768,12.926
				c-0.107,1.603,1.068,2.243,2.777,2.243c5.662,0,15.596-5.021,22.113-8.546c9.613-5.128,21.578-12.605,31.514-20.831
				c0.428-0.32,1.496,0.534,1.068,0.961c-14.635,15.597-42.09,35.36-52.773,35.36c-5.127,0-13.887-8.227-13.994-13.461
				c-0.105-3.846,1.924-8.546,5.129-13.354c5.447-8.118,15.168-16.985,23.607-22.434C699,132.201,706.051,128.996,711.499,128.996z
				 M680.092,161.364c8.547-1.709,19.656-8.438,27.027-13.887c7.799-5.769,10.789-10.362,10.789-11.645
				c0-0.961-0.641-1.175-1.389-1.175C707.973,134.658,690.881,148.866,680.092,161.364z"/>
			<path fill="none" stroke="#355AA9" stroke-width="0.8504" stroke-miterlimit="10" d="M743.969,156.451
				c16.344-5.662,42.348-10.023,54.992-9.836l0.355,2.781c-12.625,1.125-35.584,3.529-49.793,9.404
				c4.914,2.137,9.08,4.594,9.08,7.691c0,2.564-0.961,5.448-5.768,9.401c-8.119,6.195-20.832,11.644-30.66,11.644
				c-5.982,0-12.926-7.157-11.965-10.896c1.068-3.952,10.148-10.683,20.832-15.062c3.205-1.389,6.41-2.563,9.4-3.846
				c-6.09-2.137-12.605-4.272-12.605-9.187c0-8.867,21.473-20.19,33.65-20.19c6.41,0,11.537,6.303,11.432,9.294
				c-0.107,5.021-11.004,8.652-13.889,9.4c-0.641,0.214-0.961-0.427-0.641-0.748c1.922-1.923,10.148-8.546,9.936-10.896
				c0-0.428-0.428-0.962-1.816-0.962c-10.684,0-30.873,13.033-30.873,18.054C735.637,154.207,742.368,155.81,743.969,156.451z
				 M746.534,160.083c-3.74,1.603-7.691,3.418-11.752,5.555c-12.926,6.73-19.869,13.674-19.869,15.811c0,0.32,0.428,0.32,0.855,0.32
				c4.592,0,16.344-5.769,24.891-10.789c4.699-2.671,8.76-5.662,9.506-7.585C750.913,161.686,748.991,160.938,746.534,160.083z"/>
			<path fill="#FDFDFE" d="M326.92,201.577c0,0,290.754-14.999,445.247,0v9.379h-11.999l11.999,5.62v6v11.953
				c0,0-242.526-36.664-445.247-19.809V201.577z"/>
			<path fill="#FFFFFF" stroke="#2950A3" stroke-miterlimit="10" d="M146.453,182.653c-0.854-24.036,51.384-41.663,68.156-42.197
				c-7.371-0.213-24.463-5.769-24.891-16.665c-0.748-20.297,41.556-40.7,63.668-40.7c10.469,0,21.793,7.371,22.22,16.985
				c0.213,6.089-13.995,18.374-25.532,23.395c-0.427,0.214-1.496-0.106-0.961-0.641c8.333-8.012,18.802-21.899,18.588-28.31
				c-0.107-3.525-1.816-5.981-8.653-5.981c-21.472,0-58.969,23.501-58.969,40.06c0,3.418,5.555,8.332,21.793,9.935
				c3.632-0.747,16.131-4.914,22.006-4.914c1.602,0,2.991,0.214,2.991,1.176c0.106,2.67-4.38,9.935-11.324,9.935
				c-6.517,0-11.965-1.923-15.597-2.243c-37.069,8.76-63.455,30.659-63.455,47.965c0,5.876,5.234,10.79,16.131,10.79
				c34.932,0,77.983-35.253,103.194-58.328c1.603-1.495,1.282,0.748,0.641,1.389c-21.579,22.861-62.494,63.562-91.123,64.631
				C170.81,209.467,147.308,200.707,146.453,182.653z"/>
			<path fill="#FFFFFF" stroke="#2950A3" stroke-miterlimit="10" d="M278.483,156.267c-4.166,3.739-8.226,7.799-12.285,12.179
				c-2.671,2.777-10.042,11.751-10.255,15.917c-0.107,1.282,0.32,2.029,0.748,2.243c-0.427,0.214-4.166-0.32-6.837-2.029
				c-1.923-1.282-2.671-2.671-2.777-3.846c-0.321-4.06,11.003-13.567,24.784-23.822l6.623-4.914c0-6.196,0-11.858-0.106-14.956
				c-0.321-4.166-1.709-7.478-3.525-7.051c-0.214,0,0.427-1.603,3.846-1.282c4.7,0.428,8.333,2.351,9.401,3.846
				c0.427,0.534,0.641,2.457,0.641,5.448c0,0.534-0.106,3.205-0.106,6.73c0.534-0.32,1.068-0.748,1.602-1.175
				c7.051-5.128,11.965-8.439,16.772-11.858c4.06-2.991,8.76-5.875,10.148-5.875c2.35,0,4.594,1.709,5.341,3.952
				c1.175,3.953,0,8.439-2.457,10.896c0.107-1.068-0.213-2.243-0.854-3.205c-0.748-1.175-2.991-2.243-5.875-1.923
				c-6.41,0.748-17.092,7.479-24.677,12.819c-0.107,11.431,0.213,27.989,2.991,27.989c2.351,0,17.733-14.529,32.155-28.416
				c0.748-0.748,1.496,0.106,0.961,0.854c-2.351,2.991-8.012,9.614-14.422,16.237c-6.944,7.051-17.52,19.229-20.938,19.229
				c-3.205,0-7.371-2.457-8.546-5.556C279.124,174.214,278.697,165.134,278.483,156.267z"/>
			<path fill="#FFFFFF" stroke="#2950A3" stroke-miterlimit="10" d="M374.625,148.575c-2.03,4.594-5.341,9.614-9.508,14.208
				c-8.653,9.508-23.608,21.686-37.816,21.686c-3.525,0-9.401-2.67-12.392-6.623c-11.537,18.802-67.901,123.276-62.881,129.259
				c0,1.496-12.285-5.555-9.507-13.032c5.021-13.247,57.967-112.915,66.94-126.269c6.517-9.614,17.84-25.211,22.006-31.406
				c2.884-4.273,4.167-8.227,2.244-9.188c-0.107,0,0.854-0.854,3.525,1.389c1.175,1.068,3.205,3.418,4.701,5.662
				c6.303-4.594,13.14-7.265,20.083-7.265c6.41,0,14.849,6.837,14.849,12.605c0,2.03-0.534,4.273-1.389,6.73
				c4.487-0.534,11.003-1.068,14.208-1.282c0.641,0,1.068,1.389,0.107,1.496C385.627,146.973,378.15,148.041,374.625,148.575z
				 M359.989,151.887c-13.14,3.632-19.015,6.41-23.822,8.974c-13.354,7.051-18.375,14.208-18.375,15.811s1.282,2.029,2.671,2.029
				C333.389,178.7,348.666,165.134,359.989,151.887z M361.164,148.361l1.816-0.32c3.739-5.234,6.089-10.148,6.089-13.888
				c0-2.029-1.816-3.525-4.487-3.525c-4.059,0-11.003,3.633-17.092,8.013c-6.516,4.7-12.605,11.217-20.617,21.365
				C339.158,153.062,350.054,150.604,361.164,148.361z"/>
			<path fill="#FFFFFF" stroke="#2950A3" stroke-miterlimit="10" d="M419.701,126.996c6.516,0,12.392,6.623,12.392,12.071
				c0,5.342-26.493,22.968-46.042,23.075c-4.06,5.661-5.555,10.683-5.769,12.926c-0.106,1.603,1.068,2.243,2.778,2.243
				c2.884,0.107,5.769-1.068,7.264-1.709c11.537-4.914,29.377-14.422,45.508-27.668c0.427-0.32,1.495,0.534,1.068,0.961
				c-14.635,15.597-41.235,35.36-51.917,35.36c-5.128,0-13.888-8.227-13.995-13.461c-0.106-3.846,1.923-8.546,5.128-13.354
				c5.448-8.118,15.169-16.985,23.609-22.434C407.202,130.201,414.253,126.996,419.701,126.996z M388.294,159.364
				c8.546-1.709,19.656-8.438,27.027-13.887c7.798-5.769,10.789-10.362,10.789-11.645c0-0.961-0.641-1.175-1.389-1.175
				C416.176,132.658,399.083,146.866,388.294,159.364z M404.104,121.762c-0.641,0-0.321-1.175,0.534-1.495
				c8.439-2.778,21.366-9.615,27.668-16.772c1.389-1.495,1.709-2.671,1.068-3.846c-0.107-0.106,0.213-0.106,0.427,0
				c2.243,1.175,3.098,3.846,3.098,6.517c0,1.709-0.427,6.409-2.884,7.691C425.256,118.45,408.164,121.655,404.104,121.762z"/>
			<path fill="#FFFFFF" stroke="#2950A3" stroke-miterlimit="10" d="M428.777,175.709c-2.029,3.739-2.67,6.196-2.35,6.73
				c0.748,0.641-0.213,1.068-1.389,0.854s-6.944-6.623-5.875-9.828c0.641-1.923,2.03-4.38,4.06-7.478l5.555-8.226
				c4.38-6.41,11.858-17.093,14.529-21.152c2.67-4.166,4.166-8.226,2.243-9.187c-0.107,0,0.854-0.854,3.525,1.389
				c2.136,1.815,5.875,6.943,5.769,8.439c0,1.281-4.594,7.264-10.042,14.528c2.67-2.991,5.555-5.876,8.653-8.76
				c6.089-5.448,18.695-16.238,23.715-17.307c2.244-0.427,5.875,4.273,5.555,9.401c-0.107,1.389-0.641,4.7-2.137,6.089
				c0.107-1.068-0.32-2.243-0.961-3.205c-0.854-1.175-3.098-2.243-5.982-1.923c-6.517,0.748-13.14,5.128-20.938,11.751
				C441.383,157.335,433.157,167.591,428.777,175.709z"/>
			<path fill="#FFFFFF" stroke="#2950A3" stroke-miterlimit="10" d="M489.664,136.61c2.671-4.166,4.167-8.226,2.244-9.187
				c-0.107,0,0.854-0.854,3.525,1.389c2.137,1.815,5.662,6.943,5.555,8.439c0,1.709-6.837,9.721-14.956,21.151
				c-5.341,7.585-9.935,15.276-9.935,17.413c0,0.32,0.107,0.534,0.534,0.534c2.243,0,20.297-14.636,34.505-28.416
				c0.748-0.748,1.603,0,1.068,0.747c-2.35,3.099-7.478,8.974-14.528,16.345c-7.051,7.371-19.763,19.229-22.968,19.229
				c-1.496,0-3.098-0.855-4.701-2.244c-2.563-2.243-4.7-5.234-4.593-7.264c0-0.534,0.213-1.176,0.427-1.71
				C469.26,164.065,482.293,147.827,489.664,136.61z M499.919,120.8c3.846-7.264,6.41-13.887,6.41-18.267
				c0-1.176-0.534-2.244-1.603-2.671c0,0,0.961-0.748,4.06,1.282c3.739,2.563,6.624,7.905,6.517,9.507
				c0,0.214-0.107,0.321-0.321,0.642c-2.029,2.884-12.392,10.683-12.712,10.896C500.561,123.257,499.599,121.441,499.919,120.8z"/>
			<path fill="#FFFFFF" stroke="#2950A3" stroke-miterlimit="10" d="M546.494,126.996c6.517,0,12.392,6.623,12.392,12.071
				c0,5.342-26.493,22.968-46.042,23.075c-4.059,5.661-5.555,10.683-5.769,12.926c-0.106,1.603,1.068,2.243,2.778,2.243
				c5.662,0,15.597-5.021,22.113-8.546c9.615-5.128,21.579-12.605,31.514-20.831c0.428-0.32,1.496,0.534,1.068,0.961
				c-14.635,15.597-42.09,35.36-52.772,35.36c-5.128,0-13.888-8.227-13.995-13.461c-0.106-3.846,1.923-8.546,5.128-13.354
				c5.448-8.118,15.169-16.985,23.608-22.434C533.995,130.201,541.045,126.996,546.494,126.996z M515.086,159.364
				c8.546-1.709,19.656-8.438,27.027-13.887c7.799-5.769,10.789-10.362,10.789-11.645c0-0.961-0.641-1.175-1.389-1.175
				C542.968,132.658,525.876,146.866,515.086,159.364z"/>
			<path fill="#FFFFFF" stroke="#2950A3" stroke-miterlimit="10" d="M600.864,157.869c-5.982,8.226-10.789,15.703-10.896,17.947
				c0,0.32,0.107,0.534,0.535,0.534c2.35,0,20.082-14.529,34.504-28.416c0.748-0.748,1.496,0.106,0.963,0.854
				c-2.352,2.991-8.014,9.614-14.422,16.237c-6.945,7.051-19.551,19.229-22.969,19.229c-4.059,0-9.721-7.051-9.4-11.11
				c0-0.32,0.107-0.748,0.213-1.068c0.748-2.137,4.914-9.188,13.889-21.579c5.02-6.943,13.354-16.985,13.354-17.306
				c0-0.214-0.215-0.214-0.215-0.214c-0.748,0-12.498,5.555-25.531,17.947c-10.256,9.721-28.309,27.774-27.348,31.086
				c0.107,0.214,0.214,0.428,0.428,0.428c0.961,0.32-0.214,1.068-1.389,0.854c-1.176-0.214-6.196-6.623-5.662-9.828
				c1.068-5.982,15.918-23.929,24.357-36.855c2.67-4.166,4.166-8.226,2.242-9.187c-0.107,0,0.855-0.854,3.525,1.389
				c2.137,1.815,5.662,6.943,5.555,8.439c0,2.136-11.645,16.237-20.189,28.202c4.699-5.662,10.789-11.858,16.236-17.199
				c4.488-4.38,24.037-21.365,28.738-21.365c1.389,0,2.67,1.068,3.846,2.243c2.35,2.457,5.66,7.585,5.555,8.866
				c0,0.214-0.107,0.428-0.215,0.642C611.333,144.836,607.594,148.575,600.864,157.869z"/>
			<path fill="#FFFFFF" stroke="#2950A3" stroke-miterlimit="10" d="M632.374,155.198c-7.584,8.974-10.896,16.238-11.109,19.442
				c-0.107,1.603,1.068,2.671,2.777,2.671c2.885,0.107,6.73-1.495,8.227-2.137c11.537-4.914,28.094-15.062,41.875-27.24
				c0.428-0.32,1.496,0.534,1.068,0.961c-13.461,15.276-39.098,35.36-49.781,35.36c-4.166,0-13.566-8.013-13.674-13.247
				c-0.32-9.935,13.033-25.211,26.279-34.825c7.906-5.662,15.062-8.439,21.365-9.294c0.961-0.107,1.176-0.107,1.281-0.107
				c5.982,0,10.896,5.556,10.896,9.828c0,2.777-8.865,10.47-12.178,11.537c-0.32,0.107-0.32-0.213-0.107-0.533
				c2.137-3.099,8.334-11.11,8.334-13.247c0-1.282-0.855-2.029-2.031-2.029C657.264,132.338,642.202,143.555,632.374,155.198z"/>
			<path fill="#FFFFFF" stroke="#2950A3" stroke-miterlimit="10" d="M709.499,126.996c6.518,0,12.393,6.623,12.393,12.071
				c0,5.342-26.492,22.968-46.043,23.075c-4.059,5.661-5.555,10.683-5.768,12.926c-0.107,1.603,1.068,2.243,2.777,2.243
				c5.662,0,15.596-5.021,22.113-8.546c9.613-5.128,21.578-12.605,31.514-20.831c0.428-0.32,1.496,0.534,1.068,0.961
				c-14.635,15.597-42.09,35.36-52.773,35.36c-5.127,0-13.887-8.227-13.994-13.461c-0.105-3.846,1.924-8.546,5.129-13.354
				c5.447-8.118,15.168-16.985,23.607-22.434C697,130.201,704.051,126.996,709.499,126.996z M678.092,159.364
				c8.547-1.709,19.656-8.438,27.027-13.887c7.799-5.769,10.789-10.362,10.789-11.645c0-0.961-0.641-1.175-1.389-1.175
				C705.973,132.658,688.881,146.866,678.092,159.364z"/>
			<path fill="#FFFFFF" stroke="#2950A3" stroke-miterlimit="10" d="M741.969,154.451c16.344-5.662,42.348-10.023,54.992-9.836
				l0.355,2.781c-12.625,1.125-35.584,3.529-49.793,9.404c4.914,2.137,9.08,4.594,9.08,7.691c0,2.564-0.961,5.448-5.768,9.401
				c-8.119,6.195-20.832,11.644-30.66,11.644c-5.982,0-12.926-7.157-11.965-10.896c1.068-3.952,10.148-10.683,20.832-15.062
				c3.205-1.389,6.41-2.563,9.4-3.846c-6.09-2.137-12.605-4.272-12.605-9.187c0-8.867,21.473-20.19,33.65-20.19
				c6.41,0,11.537,6.303,11.432,9.294c-0.107,5.021-11.004,8.652-13.889,9.4c-0.641,0.214-0.961-0.427-0.641-0.748
				c1.922-1.923,10.148-8.546,9.936-10.896c0-0.428-0.428-0.962-1.816-0.962c-10.684,0-30.873,13.033-30.873,18.054
				C733.637,152.207,740.368,153.81,741.969,154.451z M744.534,158.083c-3.74,1.603-7.691,3.418-11.752,5.555
				c-12.926,6.73-19.869,13.674-19.869,15.811c0,0.32,0.428,0.32,0.855,0.32c4.592,0,16.344-5.769,24.891-10.789
				c4.699-2.671,8.76-5.662,9.506-7.585C748.913,159.686,746.991,158.938,744.534,158.083z"/>
			<g>
				<g>
					<g>
						<polygon fill="#F9F9FA" points="129.96,118.854 46.498,117.438 129.96,116.021 						"/>
					</g>
					<g>
						<polygon fill="#F9F9FA" points="123.96,149.44 0,148.023 123.96,146.606 						"/>
					</g>
					<g>
						<polygon fill="#F9F9FA" points="129.96,180.026 46.498,178.609 129.96,177.192 						"/>
					</g>
				</g>
				<g>
					<path fill="#F9F9FA" d="M326.92,225.457c0,0,1.741-0.161,5.006-0.465c3.266-0.288,8.058-0.722,14.163-1.16
						c6.105-0.449,13.521-0.959,22.033-1.485c4.257-0.249,8.787-0.515,13.562-0.794c4.777-0.236,9.808-0.267,15.052-0.412
						c10.491-0.267,21.858-0.436,33.881-0.559c12.024-0.099,24.705-0.131,37.821-0.017c6.559,0.05,13.227,0.118,19.976,0.25
						c6.75,0.09,13.58,0.272,20.464,0.443c6.886,0.151,13.822,0.438,20.788,0.652c6.963,0.295,13.953,0.592,20.943,0.888
						c13.977,0.701,27.949,1.49,41.688,2.498c6.87,0.503,13.687,0.987,20.412,1.596c3.363,0.288,6.706,0.574,10.025,0.858
						c3.316,0.321,6.609,0.642,9.874,0.958c3.265,0.322,6.502,0.641,9.709,0.957c3.203,0.357,6.375,0.712,9.514,1.062
						c3.138,0.354,6.241,0.702,9.309,1.047c3.062,0.388,6.086,0.771,9.069,1.148c5.969,0.754,11.773,1.484,17.371,2.329
						c5.6,0.833,11.025,1.524,16.202,2.41c2.593,0.414,5.131,0.82,7.612,1.217c2.484,0.379,4.908,0.764,7.257,1.229
						c4.688,0.97,9.135,1.89,13.313,2.754c4.185,0.829,8.072,1.749,11.671,2.57c3.598,0.823,6.902,1.58,9.887,2.263
						c5.95,1.446,10.596,2.703,13.774,3.506c3.174,0.818,4.867,1.255,4.867,1.255s-6.859-1.354-18.863-3.727
						c-3.01-0.537-6.343-1.132-9.971-1.778c-3.627-0.646-7.543-1.374-11.756-1.999c-8.409-1.341-17.902-2.756-28.232-4.488
						c-5.161-0.884-10.575-1.573-16.159-2.404c-5.583-0.843-11.376-1.572-17.33-2.324c-2.977-0.377-5.994-0.759-9.049-1.145
						c-3.061-0.345-6.158-0.692-9.289-1.045c-3.132-0.35-6.297-0.704-9.493-1.061c-3.2-0.315-6.432-0.634-9.689-0.955
						c-3.259-0.316-6.545-0.635-9.854-0.956c-3.313-0.284-6.65-0.569-10.008-0.857c-6.712-0.607-13.518-1.09-20.375-1.593
						c-13.716-1.005-27.667-1.794-41.622-2.493c-6.979-0.296-13.96-0.592-20.913-0.887c-6.956-0.215-13.882-0.501-20.758-0.652
						c-6.875-0.171-13.696-0.353-20.437-0.442c-6.74-0.131-13.399-0.2-19.95-0.25c-13.1-0.114-25.765-0.081-37.774,0.017
						c-12.008,0.123-23.362,0.292-33.839,0.559c-5.241,0.069-10.255,0.378-15.033,0.398c-4.778,0.047-9.31,0.091-13.569,0.132
						c-8.518,0.11-15.944,0.258-22.06,0.41c-6.116,0.161-10.922,0.288-14.199,0.374C328.667,225.398,326.92,225.457,326.92,225.457z
						"/>
				</g>
				<g>
					<g>
						<polygon fill="#F9F9FA" points="787.961,116.021 871.424,117.438 787.961,118.854 						"/>
					</g>
					<g>
						<polygon fill="#F9F9FA" points="793.961,146.606 917.921,148.023 793.961,149.44 						"/>
					</g>
					<g>
						<polygon fill="#F9F9FA" points="787.961,177.192 871.424,178.609 787.961,180.026 						"/>
					</g>
				</g>
				<path fill="none" stroke="#F9F9FA" stroke-miterlimit="10" d="M222.411,148.023c-29.75,1.154-92.45,54.404-37,47.578"/>
				<path fill="none" stroke="#F9F9FA" stroke-miterlimit="10" d="M316.234,139.678c0,0-10.072,0.752-23.824,11.5"/>
				<path fill="none" stroke="#F9F9FA" stroke-miterlimit="10" d="M261.411,92.428c0,0-37.75,2-57.25,38"/>
				<path fill="none" stroke="#F9F9FA" stroke-miterlimit="10" d="M360.911,135.678c0,0-14.5,8.5-20,15.5"/>
				<path fill="none" stroke="#F9F9FA" stroke-miterlimit="10" d="M316.234,184.256c0,0-57.574,104.922-59.824,119.172"/>
				<path fill="none" stroke="#F9F9FA" stroke-miterlimit="10" d="M389.161,165.678c0,0-7.25,11.25-2,9"/>
				<path fill="none" stroke="#F9F9FA" stroke-miterlimit="10" d="M421.032,137.178c0,0-16.871,11.182-22.621,17.341"/>
				<path fill="none" stroke="#F9F9FA" stroke-miterlimit="10" d="M476.911,139.678c0,0-24.5,6.844-46.5,43.672"/>
				<line fill="none" stroke="#F9F9FA" stroke-miterlimit="10" x1="503.411" y1="141.912" x2="482.745" y2="170.326"/>
				<path fill="none" stroke="#F9F9FA" stroke-miterlimit="10" d="M548.876,137.178c0,0-10.614,6.244-23.466,17.341"/>
				<path fill="none" stroke="#F9F9FA" stroke-miterlimit="10" d="M515.306,165.678c0,0-6.645,10.25-3.895,9.5"/>
				<path fill="none" stroke="#F9F9FA" stroke-miterlimit="10" d="M595.911,143.912c0,0-31.75,27.766-37,38.266"/>
				<path fill="none" stroke="#F9F9FA" stroke-miterlimit="10" d="M619.411,141.912c0,0-18.25,21.055-22,28.535"/>
				<path fill="none" stroke="#F9F9FA" stroke-miterlimit="10" d="M664.411,137.178c0,0-26.271,11.5-38.261,37"/>
				<path fill="none" stroke="#F9F9FA" stroke-miterlimit="10" d="M712.161,137.178c0,0-13.204,5.499-24.5,17.341"/>
				<path fill="none" stroke="#F9F9FA" stroke-miterlimit="10" d="M678.911,166.178c0,0-8.25,11.75,0,8"/>
				<path fill="none" stroke="#F9F9FA" stroke-miterlimit="10" d="M761.161,137.178c0,0-15.276,4.305-22.25,12.75"/>
				<path fill="none" stroke="#F9F9FA" stroke-miterlimit="10" d="M759.911,164.428c0,0,7.5,8.656-22.25,21.828"/>
				<path fill="none" stroke="#F9F9FA" stroke-miterlimit="10" d="M744.411,163.045c0,0-15.502,6.19-22.5,12.297"/>
			</g>
		</g>
	</g>
</g>
</svg>
