
<svg version="1.1" id="Layer_1" xmlns="http://www.w3.org/2000/svg" xmlns:xlink="http://www.w3.org/1999/xlink" x="0px" y="0px"
	 width="595.28px" height="841.89px" viewBox="0 0 595.28 841.89" style="enable-background:new 0 0 595.28 841.89;"
	 xml:space="preserve">
<style type="text/css">

	.st0{fill:none;stroke:#FFFFFF;stroke-miterlimit:10;}

</style>
    <defs>
        
        <style>
        
            
        .st0 {
    fill: none;
    stroke:#FFFFFF;
    stroke-miterlimit:5;
        stroke-dasharray: 400;
        stroke-dashoffset: 0;
        -webkit-animation: dash 10s linear forwards;
        -o-animation: dash 10s linear forwards;
        -moz-animation: dash 10s linear forwards;
        animation: dash 10s linear forwards;
   
        }
    @-webkit-keyframes dash {
        
        from {
                stroke-dashoffset: 400;
    }
            to {
                stroke-dashoffset: 0;
        }
    }
            
        </style>
    </defs>

<g>
	<path class="st0" d="M163,462.879c0-26.33,0.04-52.66-0.065-78.99c-0.01-2.5,0.565-3.075,3.065-3.065
		c26.996,0.104,53.992,0.065,80.989,0.065c0.016,0.354,0.031,0.709,0.046,1.063c0.012,26.618,0.023,53.236,0.035,79.853
		c-0.185,0.263-0.265,0.555-0.239,0.876C218.887,462.748,190.943,462.814,163,462.879z M230.835,402.893
		c3.023,1.923,6.207,0.69,10.246,0.891c-3.636-3.846-6.323-7.318-10.087-9.728c-2.792,0-5.584,0-9.464,0
		C225.227,397.566,228.03,400.23,230.835,402.893z M209.93,432.158l0.276-0.298c1.262-1.048,2.523-2.096,3.786-3.144
		c4.144,0.122,8.307,0.587,13.11-0.422c-2.874-2.243-4.382-4.895-7.113-6.243c-3.245-0.033-6.49-0.066-9.735-0.1
		c-3.438-3.455-6.876-6.912-10.315-10.368c-3.193-2.997-6.386-5.993-9.789-9.187c0,3.296,0,6.395,0,9.493
		c0.195,3.39-1.231,6.916,0.841,10.148c2.722,3.244,5.636,6.294,8.989,8.9c0.016,0.326,0.076,0.644,0.181,0.953
		c0,3.055,0,6.107,0,9.979C203.877,438.175,206.904,435.167,209.93,432.158z M173.964,392.033c0.679,1.285,2.052,2.647,1.919,3.842
		c-0.664,5.958,3.345,5.106,6.86,4.999c0.875-0.027,1.967,0.516,2.899-0.934c-3.154-2.951-6.336-5.928-9.519-8.905
		c-1.152-1.901-2.5-3.571-4.983-4.41C171.2,389.182,169.731,392.119,173.964,392.033z M179.998,417.212c0,2.338,0,4.255,0,6.172
		c0,1.917,0,3.834,0,6.172C188.442,422.484,188.443,424.285,179.998,417.212z M199.69,443.422c-2.851,2.87-5.312,5.346-7.794,7.845
		C200.225,452.864,200.428,452.674,199.69,443.422z"/>
	<path class="st0" d="M247.035,381.954c-0.016-0.355-0.031-0.709-0.046-1.064c61.992,0,123.984,0,185.976,0
		c0.049,0.285,0.073,0.572,0.072,0.861c-2.492,0.043-4.984,0.122-7.476,0.124C366.053,381.906,306.544,381.929,247.035,381.954z"/>
	<path class="st0" d="M433.037,381.751c0.001-0.289-0.023-0.576-0.072-0.861c0.666,0,1.333,0,1.999,0
		c-0.019,26.983-0.038,53.967-0.057,80.95c-0.514-0.022-1.026-0.046-1.54-0.068c0.097-2.151,0.272-4.302,0.277-6.454
		c0.053-24.083,0.079-48.167,0.113-72.25c0.123-0.609-0.089-1.036-0.683-1.255L433.037,381.751z"/>
	<path class="st0" d="M433.758,383.067c-0.034,24.084-0.061,48.167-0.113,72.25c-0.005,2.152-0.181,4.303-0.277,6.454
		c-62.099,0.012-124.198,0.022-186.297,0.034c-0.012-26.617-0.023-53.235-0.035-79.853c59.509-0.024,119.018-0.047,178.526-0.078
		c2.491-0.002,4.983-0.081,7.476-0.124l0.038,0.061C433.303,382.23,433.53,382.648,433.758,383.067z M362.967,439.745
		c1.16,0.067,2.339,0.028,3.479,0.22c4.501,0.758,5.953-0.929,5.727-5.571c-0.406-8.303,0.021-16.643-0.186-24.959
		c-0.075-3.03,0.732-4.35,3.854-3.934c1.145,0.152,2.343-0.104,3.488,0.042c4.562,0.585,3.563-2.649,3.6-5.159
		c0.036-2.44,0.712-4.923-3.51-4.747c-8.142,0.339-16.316,0.332-24.458-0.001c-4.055-0.166-4.877,1.192-4.942,5.01
		c-0.069,4.018,1.153,5.583,5.018,4.859c5.274-0.989,6.362,1.419,6.104,6.254c-0.407,7.634-0.192,15.308-0.042,22.961
		c0.032,1.638-1.104,3.646,0.89,4.985C362.313,439.718,362.641,439.732,362.967,439.745z M304.972,439.759
		c2.668,0.002,5.337,0.004,8.006,0.007c0.33-0.056,0.661-0.11,0.991-0.166c1.545-2.097,0.638-4.486,0.673-6.715
		c0.132-8.25,0.051-8.252,8.046-8.804c8.134-0.562,13.588-6.322,13.532-14.292c-0.056-7.903-5.639-13.727-13.809-13.988
		c-5.8-0.186-11.613,0.08-17.421,0.144c-1.724,0.354-1.19,1.77-1.193,2.79c-0.041,12.745-0.042,25.49-0.001,38.234
		C303.8,437.98,303.238,439.403,304.972,439.759z M294.006,395.854c-2.67,0.031-5.34,0.062-8.01,0.094
		c-2.338,0.792-1.235,2.762-1.27,4.177c-0.213,8.88-0.277,17.765-0.39,26.649c-1.634,2.931-3.934,4.506-7.393,3.442
		c-3.574-1.099-4.045-3.969-4.025-7.162c0.042-6.828,0.012-13.656,0.012-20.484c0-7.073,0.001-6.938-7.327-6.896
		c-2.762,0.017-3.744,0.722-3.681,3.617c0.182,8.323-0.007,16.654,0.083,24.98c0.097,8.937,5.705,14.945,14.656,15.915
		c9.185,0.995,16.166-3.684,18.357-12.301c1.696-10.214,0.375-20.497,0.689-30.742C295.739,396.131,294.944,395.799,294.006,395.854
		z M387.005,409.894c-0.781,5.325-0.794,10.651,0.016,15.975c0.804,8.67,6.483,13.973,15.45,14.424
		c8.931,0.449,16.06-4.802,17.254-13.206c0.868-6.105,0.874-12.341,0.009-18.442c-1.333-9.397-7.647-13.014-20.878-12.496
		C392.831,396.383,387.648,402.395,387.005,409.894z"/>
	<path class="st0" d="M199.939,411.583c3.438,3.457,6.877,6.913,10.314,10.368c-0.001,0-0.279,0.007-0.279,0.007
		c-2.977,0.024-5.954,0.049-8.931,0.073c-0.356,0.002-0.712,0.004-1.068,0.006c-2.995,0-5.99,0.001-8.984,0.001
		c-2.072-3.233-0.646-6.759-0.841-10.149c0.327,0.001,0.65,0.04,0.968,0.118c2.362,3.068,4.896,5.947,8.814,8.377
		c0-3.273,0-5.875,0-8.477L199.939,411.583z"/>
	<path class="st0" d="M176.124,391.035c3.182,2.977,6.365,5.954,9.519,8.905c-0.932,1.45-2.023,0.907-2.899,0.934
		c-3.515,0.107-7.523,0.959-6.86-4.999c0.133-1.195-1.24-2.558-1.919-3.843C174.684,391.7,175.403,391.367,176.124,391.035z"/>
	<path class="st0" d="M199.976,422.038c0.356-0.002,0.712-0.004,1.068-0.006c2.603,3.268,5.572,6.17,8.786,8.828
		c0.126,0.334,0.251,0.667,0.377,1c0,0-0.276,0.298-0.276,0.297c-3.256-0.089-6.513-0.177-9.77-0.266
		c-0.105-0.31-0.165-0.627-0.181-0.953C199.979,427.971,199.978,425.004,199.976,422.038z"/>
	<path class="st0" d="M210.207,431.86c-0.125-0.333-0.251-0.666-0.376-1c0.048-2.967,0.096-5.935,0.144-8.901
		c0,0,0.278-0.007,0.279-0.007c3.246,0.033,6.491,0.066,9.736,0.1c-1.999,2.222-3.998,4.443-5.997,6.665
		C212.73,429.764,211.469,430.812,210.207,431.86z"/>
	<path class="st0" d="M191.118,412.008c-0.318-0.078-0.641-0.117-0.968-0.118c0-3.098,0-6.196,0-9.493
		c3.403,3.194,6.596,6.189,9.789,9.187l-0.007,0.325C196.994,411.941,194.056,411.975,191.118,412.008z"/>
	<path class="st0" d="M200.161,431.891c3.256,0.089,6.513,0.177,9.77,0.266c-3.027,3.01-6.053,6.019-9.77,9.714
		C200.161,437.999,200.161,434.946,200.161,431.891z"/>
	<path class="st0" d="M230.993,394.056c3.764,2.409,6.451,5.881,10.087,9.728c-4.039-0.2-7.222,1.033-10.245-0.89
		C230.889,399.948,230.94,397.002,230.993,394.056z"/>
	<path class="st0" d="M213.992,428.716c1.999-2.222,3.998-4.443,5.997-6.665c2.731,1.349,4.239,4,7.113,6.243
		C222.299,429.303,218.136,428.838,213.992,428.716z"/>
	<path class="st0" d="M179.998,417.212c8.445,7.072,8.445,5.271,0,12.344c0-2.338,0-4.255,0-6.172
		C179.998,421.468,179.998,419.551,179.998,417.212z"/>
	<path class="st0" d="M199.69,443.422c0.738,9.252,0.535,9.441-7.794,7.845C194.378,448.768,196.839,446.292,199.69,443.422z"/>
	<path class="st0" d="M199.976,422.038c0.002,2.967,0.003,5.934,0.005,8.9c-3.353-2.606-6.268-5.656-8.989-8.899
		C193.986,422.039,196.981,422.038,199.976,422.038z"/>
	<path class="st0" d="M230.993,394.056c-0.053,2.946-0.104,5.892-0.158,8.838c-2.805-2.664-5.609-5.328-9.306-8.838
		C225.409,394.056,228.201,394.056,230.993,394.056z"/>
	<path class="st0" d="M176.124,391.035c-0.72,0.332-1.439,0.665-2.16,0.997c-4.233,0.087-2.764-2.85-2.824-5.407
		C173.624,387.464,174.971,389.134,176.124,391.035z"/>
	<path class="st0" d="M433.758,383.067c-0.228-0.419-0.455-0.837-0.683-1.255C433.669,382.031,433.881,382.458,433.758,383.067z"/>
	<path class="st0" d="M387.005,409.894c0.644-7.499,5.826-13.511,11.851-13.746c13.23-0.518,19.545,3.099,20.878,12.496
		c0.865,6.101,0.859,12.337-0.009,18.442c-1.194,8.404-8.323,13.655-17.254,13.206c-8.967-0.451-14.646-5.754-15.45-14.424
		C388.535,420.542,388.555,415.217,387.005,409.894z M409.269,418.224c-0.135-2.661-0.119-5.34-0.441-7.978
		c-0.397-3.242-2.345-5.168-5.693-5.084c-3.103,0.079-4.859,1.934-5.259,4.983c-0.674,5.146-0.673,10.3,0.025,15.448
		c0.424,3.127,2.419,4.835,5.377,4.904c3.03,0.071,5.007-1.817,5.484-4.795C409.155,423.249,409.122,420.727,409.269,418.224z"/>
	<path class="st0" d="M285.997,395.948c2.67-0.031,5.339-0.062,8.009-0.094c0.07,4.121,0.035,8.246,0.234,12.359
		c0.319,6.555-0.92,13.172,0.779,19.672c-2.191,8.617-9.172,13.296-18.357,12.301c-8.951-0.97-14.56-6.979-14.656-15.915
		c-0.09-8.326,0.099-16.657-0.083-24.98c-0.063-2.895,0.918-3.6,3.681-3.617c7.328-0.043,7.327-0.178,7.327,6.896
		c0,6.828,0.03,13.656-0.012,20.484c-0.02,3.193,0.451,6.063,4.025,7.162c3.459,1.063,5.759-0.512,7.393-3.442
		c1.975-1.381,1.632-3.482,1.639-5.439C286.003,412.872,285.993,404.41,285.997,395.948z"/>
	<path class="st0" d="M304.99,395.945c5.808-0.063,11.621-0.329,17.421-0.144c8.17,0.262,13.753,6.085,13.809,13.988
		c0.056,7.97-5.398,13.729-13.532,14.292c-7.995,0.552-7.914,0.554-8.046,8.804c-0.035,2.229,0.872,4.618-0.673,6.715
		c0-4.205,0-8.412,0-12.617c-0.33,0.011-0.661,0.021-0.991,0.031c0,4.251,0,8.502,0,12.752c-2.669-0.003-5.338-0.005-8.006-0.007
		C304.978,425.155,304.983,410.549,304.99,395.945z M314.781,409.631c-0.611,3.192,0.146,5.042,3.952,4.706
		c3.093-0.273,6.341-0.22,6.37-4.363c0.03-4.147-3.159-4.215-6.299-4.4C315.686,405.391,314.019,406.223,314.781,409.631z"/>
	<path class="st0" d="M361.987,439.705c-1.994-1.34-0.857-3.348-0.89-4.985c-0.15-7.653-0.365-15.328,0.042-22.961
		c0.258-4.835-0.83-7.243-6.104-6.254c-3.864,0.725-5.087-0.841-5.018-4.859c0.065-3.818,0.888-5.176,4.942-5.01
		c8.142,0.333,16.316,0.34,24.458,0.001c4.222-0.176,3.546,2.307,3.51,4.747c-0.036,2.51,0.962,5.744-3.6,5.159
		c-1.146-0.146-2.344,0.11-3.488-0.042c-3.121-0.416-3.929,0.904-3.854,3.934c0.206,8.316-0.221,16.656,0.186,24.959
		c0.227,4.643-1.226,6.329-5.727,5.571c-1.14-0.191-2.318-0.152-3.479-0.22c0-10.604,0-21.208,0-31.812
		c-0.326,0.004-0.653,0.007-0.979,0.01C361.987,418.53,361.987,429.117,361.987,439.705z"/>
	<path class="st0" d="M295.019,427.885c-1.699-6.5-0.46-13.117-0.779-19.672c-0.2-4.113-0.164-8.239-0.234-12.359
		c0.938-0.055,1.733,0.277,1.702,1.29C295.394,407.389,296.715,417.671,295.019,427.885z"/>
	<path class="st0" d="M304.99,395.945c-0.007,14.604-0.013,29.21-0.019,43.814c-1.733-0.356-1.172-1.779-1.176-2.791
		c-0.041-12.744-0.04-25.489,0.001-38.234C303.8,397.715,303.267,396.298,304.99,395.945z"/>
	<path class="st0" d="M361.987,439.705c0-10.588,0-21.175,0-31.763c0.326-0.003,0.653-0.006,0.979-0.01c0,10.604,0,21.208,0,31.812
		C362.641,439.732,362.313,439.718,361.987,439.705z"/>
	<path class="st0" d="M285.997,395.948c-0.003,8.462,0.007,16.924-0.021,25.387c-0.006,1.957,0.336,4.058-1.639,5.439
		c0.113-8.884,0.177-17.769,0.39-26.649C284.761,398.71,283.658,396.74,285.997,395.948z"/>
	<path class="st0" d="M387.005,409.894c1.55,5.323,1.53,10.648,0.016,15.975C386.211,420.545,386.224,415.219,387.005,409.894z"/>
	<path class="st0" d="M312.978,439.766c0-4.25,0-8.501,0-12.752c0.33-0.01,0.661-0.021,0.991-0.031c0,4.205,0,8.412,0,12.617
		C313.639,439.656,313.308,439.71,312.978,439.766z"/>
	<path class="st0" d="M191.118,412.008c2.938-0.033,5.876-0.066,8.814-0.1c0,2.602,0,5.204,0,8.477
		C196.014,417.955,193.48,415.076,191.118,412.008z"/>
	<path class="st0" d="M209.974,421.958c-0.048,2.967-0.096,5.935-0.144,8.901c-3.214-2.658-6.184-5.561-8.787-8.828
		C204.021,422.007,206.997,421.983,209.974,421.958z"/>
	<path class="st0" d="M409.273,418.23c-0.151,2.497-0.118,5.019-0.512,7.473c-0.478,2.978-2.454,4.866-5.484,4.795
		c-2.958-0.069-4.953-1.777-5.377-4.904c-0.698-5.148-0.699-10.302-0.025-15.448c0.399-3.049,2.156-4.904,5.259-4.983
		c3.349-0.084,5.296,1.843,5.693,5.084C409.149,412.884,409.134,415.563,409.273,418.23z"/>
	<path class="st0" d="M314.781,409.631c-0.763-3.409,0.904-4.241,4.023-4.057c3.14,0.185,6.329,0.253,6.299,4.4
		c-0.029,4.143-3.277,4.089-6.37,4.363C314.928,414.673,314.17,412.823,314.781,409.631z"/>
</g>
</svg>
